G75*
%MOIN*%
%OFA0B0*%
%FSLAX25Y25*%
%IPPOS*%
%LPD*%
%AMOC8*
5,1,8,0,0,1.08239X$1,22.5*
%
%ADD10C,0.00000*%
%ADD11R,0.04731X0.04337*%
%ADD12R,0.04337X0.04731*%
%ADD13R,0.02362X0.03937*%
%ADD14R,0.02565X0.05124*%
%ADD15C,0.06337*%
D10*
X0001500Y0004550D02*
X0004000Y0002050D01*
X0198000Y0002050D01*
X0200500Y0004550D01*
X0200500Y0122050D01*
X0198000Y0124550D01*
X0004000Y0124550D01*
X0001500Y0122050D01*
X0001500Y0004550D01*
D11*
X0011500Y0016204D03*
X0011500Y0022896D03*
X0064000Y0036704D03*
X0064000Y0043396D03*
X0075154Y0026050D03*
X0081846Y0026050D03*
X0095654Y0026050D03*
X0102346Y0026050D03*
X0154654Y0070550D03*
X0161346Y0070550D03*
X0161346Y0078050D03*
X0154654Y0078050D03*
X0154654Y0085550D03*
X0161346Y0085550D03*
X0166654Y0085550D03*
X0173346Y0085550D03*
X0173346Y0093050D03*
X0166654Y0093050D03*
X0161346Y0093050D03*
X0154654Y0093050D03*
X0110846Y0115050D03*
X0104154Y0115050D03*
X0083346Y0115050D03*
X0076654Y0115050D03*
X0064500Y0102396D03*
X0064500Y0095704D03*
X0044346Y0076050D03*
X0037654Y0076050D03*
X0070154Y0071050D03*
X0076846Y0071050D03*
D12*
X0088500Y0082704D03*
X0088500Y0089396D03*
X0110500Y0080896D03*
X0110500Y0074204D03*
X0110500Y0059396D03*
X0110500Y0052704D03*
X0090500Y0052704D03*
X0090500Y0059396D03*
X0048346Y0039550D03*
X0041654Y0039550D03*
X0127500Y0021896D03*
X0127500Y0015204D03*
X0136000Y0053704D03*
X0143500Y0053704D03*
X0143500Y0060396D03*
X0136000Y0060396D03*
X0143654Y0105550D03*
X0150346Y0105550D03*
X0064500Y0113204D03*
X0064500Y0119896D03*
X0034500Y0119896D03*
X0034500Y0113204D03*
D13*
X0171276Y0066700D03*
X0174425Y0066700D03*
X0177575Y0066700D03*
X0180724Y0066700D03*
X0180724Y0060400D03*
X0177575Y0060400D03*
X0174425Y0060400D03*
X0171276Y0060400D03*
D14*
X0053240Y0109932D03*
X0049500Y0109932D03*
X0045760Y0109932D03*
X0045760Y0120168D03*
X0053240Y0120168D03*
D15*
X0053500Y0023550D03*
X0043500Y0023550D03*
X0033500Y0023550D03*
X0023500Y0023550D03*
X0023500Y0013550D03*
X0033500Y0013550D03*
X0043500Y0013550D03*
X0053500Y0013550D03*
X0063500Y0013550D03*
X0063500Y0023550D03*
M02*
