G75*
%MOIN*%
%OFA0B0*%
%FSLAX25Y25*%
%IPPOS*%
%LPD*%
%AMOC8*
5,1,8,0,0,1.08239X$1,22.5*
%
%ADD10C,0.00000*%
%ADD11R,0.04731X0.04337*%
%ADD12R,0.04337X0.04731*%
%ADD13R,0.06700X0.05000*%
%ADD14R,0.07200X0.00600*%
%ADD15R,0.02362X0.03937*%
%ADD16R,0.02565X0.05124*%
%ADD17C,0.06337*%
D10*
X0004000Y0002550D02*
X0001500Y0005050D01*
X0001500Y0122550D01*
X0004000Y0125050D01*
X0198000Y0125050D01*
X0200500Y0122550D01*
X0200500Y0005050D01*
X0198000Y0002550D01*
X0004000Y0002550D01*
D11*
X0011500Y0016704D03*
X0011500Y0023396D03*
X0075154Y0026550D03*
X0081846Y0026550D03*
X0095654Y0026550D03*
X0102346Y0026550D03*
X0099154Y0063550D03*
X0105846Y0063550D03*
X0105846Y0071550D03*
X0099154Y0071550D03*
X0076846Y0071550D03*
X0070154Y0071550D03*
X0044346Y0076550D03*
X0037654Y0076550D03*
X0076654Y0115550D03*
X0083346Y0115550D03*
X0104154Y0115550D03*
X0110846Y0115550D03*
X0152154Y0093550D03*
X0158846Y0093550D03*
X0164154Y0093550D03*
X0170846Y0093550D03*
X0170846Y0086050D03*
X0164154Y0086050D03*
X0158846Y0086050D03*
X0152154Y0086050D03*
X0152154Y0078550D03*
X0158846Y0078550D03*
X0158846Y0071050D03*
X0152154Y0071050D03*
D12*
X0144900Y0071704D03*
X0137400Y0071704D03*
X0137400Y0078396D03*
X0144900Y0078396D03*
X0143654Y0106050D03*
X0150346Y0106050D03*
X0088500Y0089896D03*
X0088500Y0083204D03*
X0090500Y0060396D03*
X0090500Y0053704D03*
X0127500Y0022396D03*
X0127500Y0015704D03*
X0081846Y0016550D03*
X0075154Y0016550D03*
X0075154Y0009050D03*
X0081846Y0009050D03*
X0064500Y0113704D03*
X0064500Y0120396D03*
X0034500Y0120396D03*
X0034500Y0113704D03*
D13*
X0064500Y0103050D03*
X0064500Y0097050D03*
D14*
X0064500Y0100050D03*
D15*
X0171276Y0067200D03*
X0174425Y0067200D03*
X0177575Y0067200D03*
X0180724Y0067200D03*
X0180724Y0060900D03*
X0177575Y0060900D03*
X0174425Y0060900D03*
X0171276Y0060900D03*
D16*
X0053240Y0110432D03*
X0049500Y0110432D03*
X0045760Y0110432D03*
X0045760Y0120668D03*
X0053240Y0120668D03*
D17*
X0053500Y0024050D03*
X0043500Y0024050D03*
X0033500Y0024050D03*
X0023500Y0024050D03*
X0023500Y0014050D03*
X0033500Y0014050D03*
X0043500Y0014050D03*
X0053500Y0014050D03*
X0063500Y0014050D03*
X0063500Y0024050D03*
M02*
