G75*
%MOIN*%
%OFA0B0*%
%FSLAX25Y25*%
%IPPOS*%
%LPD*%
%AMOC8*
5,1,8,0,0,1.08239X$1,22.5*
%
%ADD10C,0.00000*%
%ADD11R,0.10000X0.05000*%
%ADD12R,0.05118X0.05906*%
%ADD13R,0.06299X0.07087*%
%ADD14R,0.10630X0.06299*%
%ADD15R,0.05906X0.05118*%
%ADD16R,0.06299X0.03150*%
%ADD17R,0.03937X0.04331*%
%ADD18R,0.04600X0.06300*%
%ADD19R,0.04331X0.03937*%
%ADD20R,0.03543X0.01969*%
%ADD21R,0.05906X0.02520*%
%ADD22R,0.05906X0.01260*%
%ADD23R,0.02520X0.05906*%
%ADD24R,0.01260X0.05906*%
%ADD25R,0.03937X0.02362*%
%ADD26R,0.03937X0.01181*%
%ADD27R,0.02362X0.03937*%
%ADD28R,0.01181X0.03937*%
%ADD29R,0.01575X0.04134*%
%ADD30C,0.05937*%
%ADD31R,0.06300X0.04600*%
%ADD32C,0.01000*%
%ADD33C,0.03169*%
%ADD34C,0.02775*%
%ADD35C,0.01400*%
%ADD36C,0.04000*%
%ADD37C,0.03200*%
%ADD38C,0.03150*%
%ADD39C,0.01200*%
%ADD40C,0.00800*%
%ADD41C,0.02400*%
%ADD42C,0.01600*%
%ADD43C,0.02578*%
D10*
X0001500Y0004550D02*
X0004000Y0002050D01*
X0198000Y0002050D01*
X0200500Y0004550D01*
X0200500Y0122050D01*
X0198000Y0124550D01*
X0004000Y0124550D01*
X0001500Y0122050D01*
X0001500Y0004550D01*
D11*
X0007600Y0038750D03*
X0007500Y0096050D03*
X0007500Y0106050D03*
X0194500Y0106050D03*
X0194500Y0096050D03*
X0194500Y0078550D03*
X0194500Y0071050D03*
X0194500Y0063550D03*
X0194500Y0053550D03*
X0194500Y0043550D03*
X0194500Y0036050D03*
X0194500Y0018550D03*
X0194500Y0011050D03*
D12*
X0154240Y0025550D03*
X0146760Y0025550D03*
X0015740Y0117550D03*
X0008260Y0117550D03*
X0139760Y0118550D03*
X0147240Y0118550D03*
X0185760Y0118550D03*
X0193240Y0118550D03*
D13*
X0156512Y0013050D03*
X0145488Y0013050D03*
D14*
X0168500Y0013538D03*
X0168500Y0024562D03*
D15*
X0054000Y0108310D03*
X0054000Y0115790D03*
X0036500Y0115290D03*
X0036500Y0107810D03*
D16*
X0006000Y0086050D03*
X0006000Y0081050D03*
X0006000Y0076050D03*
X0006000Y0071050D03*
X0006000Y0066050D03*
X0006000Y0061050D03*
X0006000Y0056050D03*
X0006000Y0051050D03*
X0006000Y0046050D03*
D17*
X0021154Y0106050D03*
X0027846Y0106050D03*
X0131154Y0032550D03*
X0137846Y0032550D03*
X0122846Y0023050D03*
X0116154Y0023050D03*
X0110846Y0023050D03*
X0104154Y0023050D03*
X0159154Y0118550D03*
X0165846Y0118550D03*
D18*
X0178100Y0105950D03*
X0184100Y0105950D03*
X0142000Y0056050D03*
X0136000Y0056050D03*
X0094500Y0119550D03*
X0088500Y0119550D03*
X0082500Y0119550D03*
D19*
X0165500Y0110896D03*
X0165500Y0104204D03*
X0181000Y0024396D03*
X0181000Y0017704D03*
D20*
X0036650Y0046326D03*
X0036650Y0049475D03*
X0036650Y0052625D03*
X0036650Y0055774D03*
X0036650Y0061326D03*
X0036650Y0064475D03*
X0036650Y0067625D03*
X0036650Y0070774D03*
X0036650Y0076326D03*
X0036650Y0079475D03*
X0036650Y0082625D03*
X0036650Y0085774D03*
X0030350Y0085774D03*
X0030350Y0082625D03*
X0030350Y0079475D03*
X0030350Y0076326D03*
X0030350Y0070774D03*
X0030350Y0067625D03*
X0030350Y0064475D03*
X0030350Y0061326D03*
X0030350Y0055774D03*
X0030350Y0052625D03*
X0030350Y0049475D03*
X0030350Y0046326D03*
D21*
X0057004Y0046798D03*
X0119996Y0046798D03*
X0119996Y0095302D03*
X0057004Y0095302D03*
D22*
X0057004Y0092704D03*
X0057004Y0090735D03*
X0057004Y0088767D03*
X0057004Y0086798D03*
X0057004Y0084830D03*
X0057004Y0082861D03*
X0057004Y0080893D03*
X0057004Y0078924D03*
X0057004Y0076956D03*
X0057004Y0074987D03*
X0057004Y0073019D03*
X0057004Y0071050D03*
X0057004Y0069081D03*
X0057004Y0067113D03*
X0057004Y0065144D03*
X0057004Y0063176D03*
X0057004Y0061207D03*
X0057004Y0059239D03*
X0057004Y0057270D03*
X0057004Y0055302D03*
X0057004Y0053333D03*
X0057004Y0051365D03*
X0057004Y0049396D03*
X0119996Y0049396D03*
X0119996Y0051365D03*
X0119996Y0053333D03*
X0119996Y0055302D03*
X0119996Y0057270D03*
X0119996Y0059239D03*
X0119996Y0061207D03*
X0119996Y0063176D03*
X0119996Y0065144D03*
X0119996Y0067113D03*
X0119996Y0069081D03*
X0119996Y0071050D03*
X0119996Y0073019D03*
X0119996Y0074987D03*
X0119996Y0076956D03*
X0119996Y0078924D03*
X0119996Y0080893D03*
X0119996Y0082861D03*
X0119996Y0084830D03*
X0119996Y0086798D03*
X0119996Y0088767D03*
X0119996Y0090735D03*
X0119996Y0092704D03*
D23*
X0112752Y0102546D03*
X0064248Y0102546D03*
X0064248Y0039554D03*
X0112752Y0039554D03*
D24*
X0110154Y0039554D03*
X0108185Y0039554D03*
X0106217Y0039554D03*
X0104248Y0039554D03*
X0102280Y0039554D03*
X0100311Y0039554D03*
X0098343Y0039554D03*
X0096374Y0039554D03*
X0094406Y0039554D03*
X0092437Y0039554D03*
X0090469Y0039554D03*
X0088500Y0039554D03*
X0086531Y0039554D03*
X0084563Y0039554D03*
X0082594Y0039554D03*
X0080626Y0039554D03*
X0078657Y0039554D03*
X0076689Y0039554D03*
X0074720Y0039554D03*
X0072752Y0039554D03*
X0070783Y0039554D03*
X0068815Y0039554D03*
X0066846Y0039554D03*
X0066846Y0102546D03*
X0068815Y0102546D03*
X0070783Y0102546D03*
X0072752Y0102546D03*
X0074720Y0102546D03*
X0076689Y0102546D03*
X0078657Y0102546D03*
X0080626Y0102546D03*
X0082594Y0102546D03*
X0084563Y0102546D03*
X0086531Y0102546D03*
X0088500Y0102546D03*
X0090469Y0102546D03*
X0092437Y0102546D03*
X0094406Y0102546D03*
X0096374Y0102546D03*
X0098343Y0102546D03*
X0100311Y0102546D03*
X0102280Y0102546D03*
X0104248Y0102546D03*
X0106217Y0102546D03*
X0108185Y0102546D03*
X0110154Y0102546D03*
D25*
X0134268Y0093294D03*
X0167732Y0093294D03*
X0167732Y0070459D03*
X0134268Y0070459D03*
D26*
X0134268Y0073019D03*
X0134268Y0074987D03*
X0134268Y0076956D03*
X0134268Y0078924D03*
X0134268Y0080893D03*
X0134268Y0082861D03*
X0134268Y0084830D03*
X0134268Y0086798D03*
X0134268Y0088767D03*
X0134268Y0090735D03*
X0167732Y0090735D03*
X0167732Y0088767D03*
X0167732Y0086798D03*
X0167732Y0084830D03*
X0167732Y0082861D03*
X0167732Y0080893D03*
X0167732Y0078924D03*
X0167732Y0076956D03*
X0167732Y0074987D03*
X0167732Y0073019D03*
D27*
X0162417Y0065144D03*
X0139583Y0065144D03*
X0139583Y0098609D03*
X0162417Y0098609D03*
D28*
X0159858Y0098609D03*
X0157890Y0098609D03*
X0155921Y0098609D03*
X0153953Y0098609D03*
X0151984Y0098609D03*
X0150016Y0098609D03*
X0148047Y0098609D03*
X0146079Y0098609D03*
X0144110Y0098609D03*
X0142142Y0098609D03*
X0142142Y0065144D03*
X0144110Y0065144D03*
X0146079Y0065144D03*
X0148047Y0065144D03*
X0150016Y0065144D03*
X0151984Y0065144D03*
X0153953Y0065144D03*
X0155921Y0065144D03*
X0157890Y0065144D03*
X0159858Y0065144D03*
D29*
X0136059Y0024692D03*
X0133500Y0024692D03*
X0130941Y0024692D03*
X0130941Y0017408D03*
X0133500Y0017408D03*
X0136059Y0017408D03*
D30*
X0063500Y0013550D03*
X0053500Y0013550D03*
X0043500Y0013550D03*
X0033500Y0013550D03*
X0023500Y0013550D03*
X0023500Y0023550D03*
X0033500Y0023550D03*
X0043500Y0023550D03*
X0053500Y0023550D03*
X0063500Y0023550D03*
D31*
X0089000Y0023150D03*
X0089000Y0029150D03*
X0089000Y0017150D03*
D32*
X0084750Y0017028D02*
X0076044Y0017028D01*
X0075087Y0017984D02*
X0075087Y0018845D01*
X0074709Y0019759D01*
X0074009Y0020459D01*
X0073095Y0020837D01*
X0072105Y0020837D01*
X0071191Y0020459D01*
X0070491Y0019759D01*
X0070113Y0018845D01*
X0070113Y0017855D01*
X0070491Y0016941D01*
X0071191Y0016241D01*
X0072105Y0015863D01*
X0072966Y0015863D01*
X0079279Y0009550D01*
X0078018Y0009550D01*
X0077409Y0010159D01*
X0076495Y0010537D01*
X0075505Y0010537D01*
X0074591Y0010159D01*
X0073891Y0009459D01*
X0073513Y0008545D01*
X0073513Y0007555D01*
X0073891Y0006641D01*
X0074591Y0005941D01*
X0075505Y0005563D01*
X0076495Y0005563D01*
X0077409Y0005941D01*
X0078018Y0006550D01*
X0092879Y0006550D01*
X0095879Y0003550D01*
X0004621Y0003550D01*
X0003000Y0005171D01*
X0003000Y0034750D01*
X0007100Y0034750D01*
X0007100Y0038250D01*
X0008100Y0038250D01*
X0008100Y0039250D01*
X0007100Y0039250D01*
X0007100Y0042750D01*
X0007100Y0043375D01*
X0009605Y0043375D01*
X0010250Y0044020D01*
X0010250Y0044550D01*
X0012621Y0044550D01*
X0022346Y0054274D01*
X0027539Y0054274D01*
X0027614Y0054200D01*
X0027479Y0054065D01*
X0027479Y0051185D01*
X0027614Y0051050D01*
X0027539Y0050975D01*
X0027304Y0050975D01*
X0025879Y0049550D01*
X0025000Y0048671D01*
X0025000Y0038068D01*
X0024391Y0037459D01*
X0024013Y0036545D01*
X0024013Y0035555D01*
X0024391Y0034641D01*
X0025091Y0033941D01*
X0026005Y0033563D01*
X0026995Y0033563D01*
X0027909Y0033941D01*
X0028609Y0034641D01*
X0028987Y0035555D01*
X0028987Y0036545D01*
X0028621Y0037429D01*
X0029505Y0037063D01*
X0030495Y0037063D01*
X0031409Y0037441D01*
X0032109Y0038141D01*
X0032487Y0039055D01*
X0032487Y0040045D01*
X0032109Y0040959D01*
X0031500Y0041568D01*
X0031500Y0043929D01*
X0031813Y0044241D01*
X0032578Y0044241D01*
X0032774Y0044438D01*
X0032962Y0044250D01*
X0034038Y0044250D01*
X0034226Y0044438D01*
X0034422Y0044241D01*
X0038687Y0044241D01*
X0032796Y0038350D01*
X0031800Y0037354D01*
X0031800Y0027250D01*
X0031195Y0026999D01*
X0030051Y0025855D01*
X0029431Y0024359D01*
X0029431Y0022741D01*
X0030051Y0021245D01*
X0031195Y0020101D01*
X0031361Y0020032D01*
X0030500Y0019171D01*
X0027018Y0015689D01*
X0026949Y0015855D01*
X0025805Y0016999D01*
X0024309Y0017618D01*
X0022691Y0017618D01*
X0021195Y0016999D01*
X0020051Y0015855D01*
X0019431Y0014359D01*
X0019431Y0012741D01*
X0020051Y0011245D01*
X0021195Y0010101D01*
X0022691Y0009481D01*
X0024309Y0009481D01*
X0025805Y0010101D01*
X0026949Y0011245D01*
X0027282Y0012050D01*
X0027621Y0012050D01*
X0029431Y0013860D01*
X0029431Y0012741D01*
X0030051Y0011245D01*
X0031195Y0010101D01*
X0032000Y0009768D01*
X0032000Y0006929D01*
X0032500Y0006429D01*
X0033500Y0005429D01*
X0034379Y0004550D01*
X0056621Y0004550D01*
X0057500Y0005429D01*
X0058621Y0006550D01*
X0059500Y0007429D01*
X0059500Y0012575D01*
X0060051Y0011245D01*
X0061195Y0010101D01*
X0062691Y0009481D01*
X0064309Y0009481D01*
X0065805Y0010101D01*
X0066949Y0011245D01*
X0067568Y0012741D01*
X0067568Y0014359D01*
X0067235Y0015164D01*
X0070000Y0017929D01*
X0070000Y0027171D01*
X0069121Y0028050D01*
X0067121Y0030050D01*
X0064121Y0030050D01*
X0062000Y0032171D01*
X0062000Y0036034D01*
X0062533Y0035501D01*
X0073120Y0035501D01*
X0073120Y0033253D01*
X0072432Y0032565D01*
X0072025Y0031582D01*
X0072025Y0030518D01*
X0072432Y0029535D01*
X0073185Y0028782D01*
X0074168Y0028375D01*
X0075232Y0028375D01*
X0076215Y0028782D01*
X0076968Y0029535D01*
X0077375Y0030518D01*
X0077375Y0031582D01*
X0076968Y0032565D01*
X0076320Y0033212D01*
X0076320Y0035101D01*
X0076689Y0035101D01*
X0077516Y0035101D01*
X0077898Y0035203D01*
X0078240Y0035401D01*
X0078340Y0035501D01*
X0084880Y0035501D01*
X0084981Y0035401D01*
X0085323Y0035203D01*
X0085704Y0035101D01*
X0086531Y0035101D01*
X0086531Y0039554D01*
X0086531Y0044007D01*
X0085704Y0044007D01*
X0085323Y0043904D01*
X0084981Y0043707D01*
X0084880Y0043607D01*
X0078340Y0043607D01*
X0078240Y0043707D01*
X0077898Y0043904D01*
X0077516Y0044007D01*
X0076689Y0044007D01*
X0076689Y0039554D01*
X0076689Y0039554D01*
X0076689Y0044007D01*
X0075862Y0044007D01*
X0075480Y0043904D01*
X0075138Y0043707D01*
X0075038Y0043607D01*
X0062678Y0043607D01*
X0063634Y0044563D01*
X0064495Y0044563D01*
X0065409Y0044941D01*
X0066109Y0045641D01*
X0066487Y0046555D01*
X0066487Y0047545D01*
X0066109Y0048459D01*
X0065500Y0049068D01*
X0065500Y0049671D01*
X0063185Y0051986D01*
X0063185Y0051986D01*
X0062306Y0052865D01*
X0061057Y0052865D01*
X0061057Y0069450D01*
X0064317Y0069450D01*
X0064600Y0069167D01*
X0064600Y0056763D01*
X0073600Y0047763D01*
X0074713Y0046650D01*
X0088617Y0046650D01*
X0088900Y0046367D01*
X0088900Y0043607D01*
X0088183Y0043607D01*
X0088082Y0043707D01*
X0087740Y0043904D01*
X0087359Y0044007D01*
X0086532Y0044007D01*
X0086532Y0039554D01*
X0086531Y0039554D01*
X0086532Y0039554D01*
X0086532Y0035101D01*
X0087000Y0035101D01*
X0087000Y0032550D01*
X0085394Y0032550D01*
X0084750Y0031906D01*
X0084750Y0026471D01*
X0084650Y0026371D01*
X0084452Y0026029D01*
X0084350Y0025647D01*
X0084350Y0023650D01*
X0088500Y0023650D01*
X0088500Y0022650D01*
X0084350Y0022650D01*
X0084350Y0020653D01*
X0084452Y0020271D01*
X0084650Y0019929D01*
X0084750Y0019829D01*
X0084750Y0014394D01*
X0085394Y0013750D01*
X0092606Y0013750D01*
X0093250Y0014394D01*
X0093250Y0015879D01*
X0095600Y0018229D01*
X0095600Y0033271D01*
X0094721Y0034150D01*
X0093937Y0034934D01*
X0093937Y0035501D01*
X0096743Y0035501D01*
X0096743Y0028545D01*
X0098400Y0026887D01*
X0099337Y0025950D01*
X0100877Y0025950D01*
X0100787Y0025794D01*
X0100685Y0025413D01*
X0100685Y0023534D01*
X0103669Y0023534D01*
X0103669Y0022566D01*
X0100685Y0022566D01*
X0100685Y0020687D01*
X0100787Y0020306D01*
X0100985Y0019964D01*
X0101264Y0019684D01*
X0101606Y0019487D01*
X0101988Y0019385D01*
X0103669Y0019385D01*
X0103669Y0022566D01*
X0104638Y0022566D01*
X0104638Y0023534D01*
X0107622Y0023534D01*
X0107622Y0023550D01*
X0107778Y0023550D01*
X0107778Y0020429D01*
X0108422Y0019785D01*
X0109246Y0019785D01*
X0109246Y0019041D01*
X0110400Y0017887D01*
X0111337Y0016950D01*
X0128337Y0016950D01*
X0129054Y0016234D01*
X0129054Y0014886D01*
X0129698Y0014241D01*
X0131691Y0014241D01*
X0131792Y0014141D01*
X0132134Y0013944D01*
X0132515Y0013841D01*
X0133500Y0013841D01*
X0134459Y0013841D01*
X0134459Y0013828D01*
X0135900Y0012387D01*
X0136837Y0011450D01*
X0141239Y0011450D01*
X0141239Y0009051D01*
X0141883Y0008407D01*
X0149093Y0008407D01*
X0149738Y0009051D01*
X0149738Y0015250D01*
X0152262Y0015250D01*
X0152262Y0009051D01*
X0152907Y0008407D01*
X0160117Y0008407D01*
X0160761Y0009051D01*
X0160761Y0011550D01*
X0162085Y0011550D01*
X0162085Y0009933D01*
X0162729Y0009289D01*
X0174271Y0009289D01*
X0174915Y0009933D01*
X0174915Y0011938D01*
X0179767Y0011938D01*
X0175879Y0008050D01*
X0098621Y0008050D01*
X0095200Y0011471D01*
X0094321Y0012350D01*
X0080721Y0012350D01*
X0075087Y0017984D01*
X0075087Y0018026D02*
X0084750Y0018026D01*
X0084750Y0019025D02*
X0075013Y0019025D01*
X0074445Y0020023D02*
X0084595Y0020023D01*
X0084350Y0021022D02*
X0070000Y0021022D01*
X0070000Y0022020D02*
X0084350Y0022020D01*
X0084350Y0024017D02*
X0070000Y0024017D01*
X0070000Y0023019D02*
X0088500Y0023019D01*
X0084350Y0025016D02*
X0070000Y0025016D01*
X0070000Y0026014D02*
X0084448Y0026014D01*
X0084750Y0027013D02*
X0070000Y0027013D01*
X0069160Y0028011D02*
X0084750Y0028011D01*
X0084750Y0029010D02*
X0076443Y0029010D01*
X0077164Y0030008D02*
X0084750Y0030008D01*
X0084750Y0031007D02*
X0077375Y0031007D01*
X0077199Y0032005D02*
X0084850Y0032005D01*
X0087000Y0033004D02*
X0076529Y0033004D01*
X0076320Y0034002D02*
X0087000Y0034002D01*
X0087000Y0035001D02*
X0076320Y0035001D01*
X0076689Y0035101D02*
X0076689Y0039554D01*
X0076689Y0035101D01*
X0076689Y0035999D02*
X0076689Y0035999D01*
X0076689Y0036998D02*
X0076689Y0036998D01*
X0076689Y0037996D02*
X0076689Y0037996D01*
X0076689Y0038995D02*
X0076689Y0038995D01*
X0076689Y0039554D02*
X0076689Y0039554D01*
X0076689Y0039993D02*
X0076689Y0039993D01*
X0076689Y0040992D02*
X0076689Y0040992D01*
X0076689Y0041990D02*
X0076689Y0041990D01*
X0076689Y0042989D02*
X0076689Y0042989D01*
X0076689Y0043987D02*
X0076689Y0043987D01*
X0077588Y0043987D02*
X0085632Y0043987D01*
X0086531Y0043987D02*
X0086532Y0043987D01*
X0087431Y0043987D02*
X0088900Y0043987D01*
X0088900Y0044986D02*
X0065454Y0044986D01*
X0066251Y0045984D02*
X0088900Y0045984D01*
X0090500Y0048550D02*
X0090500Y0039585D01*
X0090469Y0039554D01*
X0086532Y0039993D02*
X0086531Y0039993D01*
X0086531Y0038995D02*
X0086532Y0038995D01*
X0086531Y0037996D02*
X0086532Y0037996D01*
X0086531Y0036998D02*
X0086532Y0036998D01*
X0086531Y0035999D02*
X0086532Y0035999D01*
X0086531Y0040992D02*
X0086532Y0040992D01*
X0086531Y0041990D02*
X0086532Y0041990D01*
X0086531Y0042989D02*
X0086532Y0042989D01*
X0092100Y0043607D02*
X0092100Y0046367D01*
X0092768Y0047035D01*
X0093175Y0048018D01*
X0093175Y0049082D01*
X0092768Y0050065D01*
X0092015Y0050818D01*
X0091032Y0051225D01*
X0089968Y0051225D01*
X0088985Y0050818D01*
X0088617Y0050450D01*
X0076287Y0050450D01*
X0068400Y0058337D01*
X0068400Y0069167D01*
X0068768Y0069535D01*
X0069175Y0070518D01*
X0069175Y0071582D01*
X0068768Y0072565D01*
X0068400Y0072933D01*
X0068400Y0089263D01*
X0069400Y0090263D01*
X0070287Y0091150D01*
X0086600Y0091150D01*
X0086600Y0079263D01*
X0096713Y0069150D01*
X0108617Y0069150D01*
X0108985Y0068782D01*
X0109968Y0068375D01*
X0111032Y0068375D01*
X0112015Y0068782D01*
X0112683Y0069450D01*
X0115943Y0069450D01*
X0115943Y0066796D01*
X0115843Y0066695D01*
X0115646Y0066353D01*
X0115543Y0065972D01*
X0115543Y0065145D01*
X0119996Y0065145D01*
X0119996Y0065144D01*
X0115543Y0065144D01*
X0115543Y0064776D01*
X0113837Y0064776D01*
X0112711Y0063650D01*
X0112418Y0063650D01*
X0111909Y0064159D01*
X0110995Y0064537D01*
X0110005Y0064537D01*
X0109091Y0064159D01*
X0108391Y0063459D01*
X0108013Y0062545D01*
X0108013Y0061555D01*
X0108391Y0060641D01*
X0109091Y0059941D01*
X0110005Y0059563D01*
X0110995Y0059563D01*
X0111909Y0059941D01*
X0112418Y0060450D01*
X0114037Y0060450D01*
X0115163Y0061576D01*
X0115943Y0061576D01*
X0115943Y0045083D01*
X0116588Y0044438D01*
X0123404Y0044438D01*
X0123697Y0044731D01*
X0124000Y0044429D01*
X0124379Y0044050D01*
X0124000Y0043671D01*
X0121383Y0041054D01*
X0115112Y0041054D01*
X0115112Y0042962D01*
X0114467Y0043607D01*
X0105899Y0043607D01*
X0105799Y0043707D01*
X0105457Y0043904D01*
X0105075Y0044007D01*
X0104248Y0044007D01*
X0103421Y0044007D01*
X0103039Y0043904D01*
X0102697Y0043707D01*
X0102597Y0043607D01*
X0092100Y0043607D01*
X0092100Y0043987D02*
X0103349Y0043987D01*
X0104248Y0043987D02*
X0104248Y0043987D01*
X0104248Y0044007D02*
X0104248Y0039554D01*
X0104248Y0039554D01*
X0104248Y0044007D01*
X0105147Y0043987D02*
X0124316Y0043987D01*
X0123318Y0042989D02*
X0115085Y0042989D01*
X0115112Y0041990D02*
X0122319Y0041990D01*
X0116040Y0044986D02*
X0092100Y0044986D01*
X0092100Y0045984D02*
X0115943Y0045984D01*
X0115943Y0046983D02*
X0092716Y0046983D01*
X0093160Y0047982D02*
X0115943Y0047982D01*
X0115943Y0048980D02*
X0093175Y0048980D01*
X0092803Y0049979D02*
X0115943Y0049979D01*
X0115943Y0050977D02*
X0091630Y0050977D01*
X0089370Y0050977D02*
X0075760Y0050977D01*
X0074761Y0051976D02*
X0115943Y0051976D01*
X0115943Y0052974D02*
X0073763Y0052974D01*
X0072764Y0053973D02*
X0115943Y0053973D01*
X0115943Y0054971D02*
X0071766Y0054971D01*
X0070767Y0055970D02*
X0115943Y0055970D01*
X0115943Y0056968D02*
X0069769Y0056968D01*
X0068770Y0057967D02*
X0115943Y0057967D01*
X0115943Y0058965D02*
X0068400Y0058965D01*
X0068400Y0059964D02*
X0109069Y0059964D01*
X0108258Y0060962D02*
X0068400Y0060962D01*
X0068400Y0061961D02*
X0108013Y0061961D01*
X0108184Y0062959D02*
X0068400Y0062959D01*
X0068400Y0063958D02*
X0108890Y0063958D01*
X0110500Y0062050D02*
X0113374Y0062050D01*
X0114500Y0063176D01*
X0119996Y0063176D01*
X0119870Y0063050D01*
X0115943Y0060962D02*
X0114549Y0060962D01*
X0115943Y0059964D02*
X0111931Y0059964D01*
X0112110Y0063958D02*
X0113019Y0063958D01*
X0115543Y0064956D02*
X0068400Y0064956D01*
X0068400Y0065955D02*
X0115543Y0065955D01*
X0115943Y0066953D02*
X0068400Y0066953D01*
X0068400Y0067952D02*
X0115943Y0067952D01*
X0115943Y0068950D02*
X0112183Y0068950D01*
X0110500Y0071050D02*
X0119996Y0071050D01*
X0119996Y0074987D02*
X0115543Y0074987D01*
X0115543Y0074518D01*
X0115153Y0074518D01*
X0114000Y0075671D01*
X0114000Y0087671D01*
X0114889Y0088560D01*
X0114889Y0090540D01*
X0113490Y0091939D01*
X0111510Y0091939D01*
X0110111Y0090540D01*
X0110111Y0088560D01*
X0111000Y0087671D01*
X0111000Y0074429D01*
X0112779Y0072650D01*
X0112683Y0072650D01*
X0112015Y0073318D01*
X0111032Y0073725D01*
X0109968Y0073725D01*
X0108985Y0073318D01*
X0108617Y0072950D01*
X0098287Y0072950D01*
X0090400Y0080837D01*
X0090400Y0091167D01*
X0090768Y0091535D01*
X0091175Y0092518D01*
X0091175Y0093582D01*
X0090768Y0094565D01*
X0090100Y0095233D01*
X0090100Y0098493D01*
X0104565Y0098493D01*
X0104666Y0098393D01*
X0105008Y0098196D01*
X0105389Y0098093D01*
X0106216Y0098093D01*
X0106216Y0102546D01*
X0106217Y0102546D01*
X0106217Y0098093D01*
X0107044Y0098093D01*
X0107425Y0098196D01*
X0107767Y0098393D01*
X0107868Y0098493D01*
X0114467Y0098493D01*
X0115112Y0099138D01*
X0115112Y0105790D01*
X0116371Y0107050D01*
X0126379Y0107050D01*
X0121379Y0102050D01*
X0120500Y0101171D01*
X0120500Y0097662D01*
X0116588Y0097662D01*
X0115943Y0097017D01*
X0115943Y0076638D01*
X0115843Y0076538D01*
X0115646Y0076196D01*
X0115543Y0075814D01*
X0115543Y0074987D01*
X0119996Y0074987D01*
X0119996Y0074987D01*
X0115943Y0076938D02*
X0114000Y0076938D01*
X0114000Y0075940D02*
X0115577Y0075940D01*
X0115543Y0074941D02*
X0114730Y0074941D01*
X0112484Y0072944D02*
X0112388Y0072944D01*
X0111486Y0073943D02*
X0097294Y0073943D01*
X0096296Y0074941D02*
X0111000Y0074941D01*
X0111000Y0075940D02*
X0095297Y0075940D01*
X0094299Y0076938D02*
X0111000Y0076938D01*
X0111000Y0077937D02*
X0093300Y0077937D01*
X0092302Y0078935D02*
X0111000Y0078935D01*
X0111000Y0079934D02*
X0091303Y0079934D01*
X0090400Y0080932D02*
X0111000Y0080932D01*
X0111000Y0081931D02*
X0090400Y0081931D01*
X0090400Y0082929D02*
X0111000Y0082929D01*
X0111000Y0083928D02*
X0090400Y0083928D01*
X0090400Y0084926D02*
X0111000Y0084926D01*
X0111000Y0085925D02*
X0090400Y0085925D01*
X0090400Y0086923D02*
X0111000Y0086923D01*
X0110749Y0087922D02*
X0090400Y0087922D01*
X0090400Y0088920D02*
X0110111Y0088920D01*
X0110111Y0089919D02*
X0090400Y0089919D01*
X0090400Y0090918D02*
X0110489Y0090918D01*
X0111487Y0091916D02*
X0090925Y0091916D01*
X0091175Y0092915D02*
X0115943Y0092915D01*
X0115943Y0093913D02*
X0091038Y0093913D01*
X0090421Y0094912D02*
X0115943Y0094912D01*
X0115943Y0095910D02*
X0090100Y0095910D01*
X0090100Y0096909D02*
X0115943Y0096909D01*
X0114880Y0098906D02*
X0120500Y0098906D01*
X0120500Y0099904D02*
X0115112Y0099904D01*
X0115112Y0100903D02*
X0120500Y0100903D01*
X0121230Y0101901D02*
X0115112Y0101901D01*
X0115112Y0102900D02*
X0122228Y0102900D01*
X0123227Y0103898D02*
X0115112Y0103898D01*
X0115112Y0104897D02*
X0124225Y0104897D01*
X0125224Y0105895D02*
X0115216Y0105895D01*
X0116215Y0106894D02*
X0126222Y0106894D01*
X0136000Y0114676D02*
X0136280Y0114397D01*
X0136622Y0114199D01*
X0137003Y0114097D01*
X0139260Y0114097D01*
X0139260Y0118050D01*
X0140260Y0118050D01*
X0140260Y0114097D01*
X0142516Y0114097D01*
X0142898Y0114199D01*
X0143240Y0114397D01*
X0143519Y0114676D01*
X0143712Y0115011D01*
X0144225Y0114497D01*
X0150255Y0114497D01*
X0150899Y0115142D01*
X0150899Y0115850D01*
X0156164Y0115850D01*
X0156300Y0115714D01*
X0156300Y0115632D01*
X0155900Y0114667D01*
X0155900Y0107939D01*
X0154010Y0107939D01*
X0152871Y0106800D01*
X0146750Y0112921D01*
X0145871Y0113800D01*
X0112879Y0113800D01*
X0112000Y0112921D01*
X0106685Y0107606D01*
X0106685Y0106999D01*
X0106217Y0106999D01*
X0106217Y0102546D01*
X0106216Y0102546D01*
X0106216Y0106999D01*
X0105848Y0106999D01*
X0105848Y0107380D01*
X0106109Y0107641D01*
X0106487Y0108555D01*
X0106487Y0109545D01*
X0106109Y0110459D01*
X0105409Y0111159D01*
X0104495Y0111537D01*
X0103505Y0111537D01*
X0102591Y0111159D01*
X0101891Y0110459D01*
X0101513Y0109545D01*
X0101513Y0108555D01*
X0101891Y0107641D01*
X0102591Y0106941D01*
X0102648Y0106918D01*
X0102648Y0106599D01*
X0095905Y0106599D01*
X0095905Y0115300D01*
X0097256Y0115300D01*
X0097900Y0115944D01*
X0097900Y0123050D01*
X0197379Y0123050D01*
X0199000Y0121429D01*
X0199000Y0109650D01*
X0189044Y0109650D01*
X0188400Y0109006D01*
X0188400Y0108968D01*
X0187294Y0110074D01*
X0187294Y0114497D01*
X0188775Y0114497D01*
X0189288Y0115011D01*
X0189481Y0114676D01*
X0189760Y0114397D01*
X0190102Y0114199D01*
X0190484Y0114097D01*
X0192740Y0114097D01*
X0192740Y0118050D01*
X0193740Y0118050D01*
X0193740Y0114097D01*
X0195997Y0114097D01*
X0196378Y0114199D01*
X0196720Y0114397D01*
X0196999Y0114676D01*
X0197197Y0115018D01*
X0197299Y0115400D01*
X0197299Y0118050D01*
X0193740Y0118050D01*
X0193740Y0119050D01*
X0192740Y0119050D01*
X0192740Y0123003D01*
X0190484Y0123003D01*
X0190102Y0122901D01*
X0189760Y0122703D01*
X0189481Y0122424D01*
X0189288Y0122089D01*
X0188775Y0122603D01*
X0182745Y0122603D01*
X0182101Y0121958D01*
X0182101Y0121650D01*
X0168436Y0121650D01*
X0168271Y0121815D01*
X0163422Y0121815D01*
X0162778Y0121171D01*
X0162778Y0119243D01*
X0162746Y0119167D01*
X0162746Y0117933D01*
X0162778Y0117857D01*
X0162778Y0115929D01*
X0163422Y0115285D01*
X0168271Y0115285D01*
X0168436Y0115450D01*
X0181894Y0115450D01*
X0181894Y0110200D01*
X0181344Y0110200D01*
X0181100Y0109956D01*
X0180856Y0110200D01*
X0176063Y0110200D01*
X0173694Y0111840D01*
X0173456Y0112078D01*
X0173192Y0112187D01*
X0172958Y0112350D01*
X0172628Y0112421D01*
X0172317Y0112550D01*
X0172031Y0112550D01*
X0171752Y0112610D01*
X0171420Y0112550D01*
X0170883Y0112550D01*
X0169744Y0112078D01*
X0169165Y0111499D01*
X0169165Y0113062D01*
X0169063Y0113444D01*
X0168866Y0113786D01*
X0168586Y0114065D01*
X0168244Y0114263D01*
X0167863Y0114365D01*
X0165984Y0114365D01*
X0165984Y0111381D01*
X0165016Y0111381D01*
X0165016Y0114365D01*
X0163137Y0114365D01*
X0162756Y0114263D01*
X0162414Y0114065D01*
X0162134Y0113786D01*
X0162100Y0113726D01*
X0162100Y0114667D01*
X0161766Y0115473D01*
X0162222Y0115929D01*
X0162222Y0121171D01*
X0161578Y0121815D01*
X0156729Y0121815D01*
X0156164Y0121250D01*
X0150899Y0121250D01*
X0150899Y0121958D01*
X0150255Y0122603D01*
X0144225Y0122603D01*
X0143712Y0122089D01*
X0143519Y0122424D01*
X0143240Y0122703D01*
X0142898Y0122901D01*
X0142516Y0123003D01*
X0140260Y0123003D01*
X0140260Y0119050D01*
X0139260Y0119050D01*
X0139260Y0123003D01*
X0137003Y0123003D01*
X0136622Y0122901D01*
X0136280Y0122703D01*
X0136000Y0122424D01*
X0135803Y0122082D01*
X0135701Y0121700D01*
X0135701Y0119050D01*
X0139260Y0119050D01*
X0139260Y0118050D01*
X0135701Y0118050D01*
X0135701Y0115400D01*
X0135803Y0115018D01*
X0136000Y0114676D01*
X0135882Y0114882D02*
X0095905Y0114882D01*
X0095905Y0113883D02*
X0155900Y0113883D01*
X0155900Y0112885D02*
X0146787Y0112885D01*
X0147785Y0111886D02*
X0155900Y0111886D01*
X0155900Y0110888D02*
X0148784Y0110888D01*
X0149782Y0109889D02*
X0155900Y0109889D01*
X0155900Y0108891D02*
X0150781Y0108891D01*
X0151779Y0107892D02*
X0153964Y0107892D01*
X0152965Y0106894D02*
X0152778Y0106894D01*
X0155600Y0103161D02*
X0155990Y0103161D01*
X0156879Y0104050D01*
X0158358Y0102570D01*
X0158358Y0102078D01*
X0157890Y0102078D01*
X0157890Y0101191D01*
X0157890Y0102078D01*
X0157102Y0102078D01*
X0156906Y0102025D01*
X0156709Y0102078D01*
X0155921Y0102078D01*
X0155600Y0102078D01*
X0155600Y0103161D01*
X0155600Y0102900D02*
X0158029Y0102900D01*
X0157890Y0102050D02*
X0157890Y0098609D01*
X0157890Y0094550D01*
X0157890Y0095141D02*
X0158678Y0095141D01*
X0159059Y0095243D01*
X0159401Y0095440D01*
X0159502Y0095541D01*
X0164054Y0095541D01*
X0164698Y0096185D01*
X0164698Y0101033D01*
X0164597Y0101135D01*
X0168121Y0101135D01*
X0168513Y0101527D01*
X0168548Y0101320D01*
X0168737Y0101021D01*
X0168872Y0100694D01*
X0169062Y0100504D01*
X0169205Y0100276D01*
X0169494Y0100072D01*
X0169744Y0099822D01*
X0169992Y0099719D01*
X0170212Y0099564D01*
X0170557Y0099485D01*
X0170883Y0099350D01*
X0171152Y0099350D01*
X0171414Y0099290D01*
X0171763Y0099350D01*
X0172117Y0099350D01*
X0172365Y0099453D01*
X0172630Y0099498D01*
X0172929Y0099687D01*
X0173256Y0099822D01*
X0173446Y0100012D01*
X0176127Y0101700D01*
X0180856Y0101700D01*
X0181100Y0101944D01*
X0181344Y0101700D01*
X0186856Y0101700D01*
X0187500Y0102344D01*
X0187500Y0103250D01*
X0188400Y0103250D01*
X0188400Y0103094D01*
X0189044Y0102450D01*
X0195400Y0102450D01*
X0195400Y0100050D01*
X0195000Y0100050D01*
X0195000Y0096550D01*
X0194000Y0096550D01*
X0194000Y0100050D01*
X0189303Y0100050D01*
X0188921Y0099948D01*
X0188579Y0099750D01*
X0188300Y0099471D01*
X0188102Y0099129D01*
X0188000Y0098747D01*
X0188000Y0096550D01*
X0194000Y0096550D01*
X0194000Y0095550D01*
X0195000Y0095550D01*
X0195000Y0092050D01*
X0199000Y0092050D01*
X0199000Y0082150D01*
X0189044Y0082150D01*
X0188400Y0081506D01*
X0188400Y0081037D01*
X0188275Y0081037D01*
X0179692Y0089621D01*
X0180634Y0090563D01*
X0181495Y0090563D01*
X0182409Y0090941D01*
X0183109Y0091641D01*
X0183487Y0092555D01*
X0183487Y0093545D01*
X0183109Y0094459D01*
X0182409Y0095159D01*
X0181495Y0095537D01*
X0180505Y0095537D01*
X0179591Y0095159D01*
X0178891Y0094459D01*
X0178513Y0093545D01*
X0178513Y0092684D01*
X0178207Y0092378D01*
X0178487Y0093055D01*
X0178487Y0094045D01*
X0178109Y0094959D01*
X0177409Y0095659D01*
X0176495Y0096037D01*
X0175505Y0096037D01*
X0174591Y0095659D01*
X0173982Y0095050D01*
X0170682Y0095050D01*
X0170156Y0095575D01*
X0165308Y0095575D01*
X0164664Y0094931D01*
X0164664Y0094433D01*
X0164359Y0094053D01*
X0163976Y0093671D01*
X0163976Y0093579D01*
X0163918Y0093506D01*
X0163976Y0092969D01*
X0163976Y0092429D01*
X0164042Y0092363D01*
X0164052Y0092271D01*
X0164473Y0091932D01*
X0164664Y0091741D01*
X0164664Y0088410D01*
X0164563Y0088310D01*
X0164366Y0087968D01*
X0164264Y0087586D01*
X0164264Y0086798D01*
X0164264Y0086010D01*
X0164366Y0085628D01*
X0164563Y0085286D01*
X0164664Y0085186D01*
X0164664Y0084473D01*
X0164563Y0084373D01*
X0164366Y0084031D01*
X0164264Y0083649D01*
X0164264Y0082861D01*
X0164264Y0082493D01*
X0164175Y0082493D01*
X0164175Y0083332D01*
X0163768Y0084315D01*
X0163015Y0085068D01*
X0162032Y0085475D01*
X0160968Y0085475D01*
X0159985Y0085068D01*
X0159232Y0084315D01*
X0158825Y0083332D01*
X0158825Y0082268D01*
X0159232Y0081285D01*
X0159985Y0080532D01*
X0160968Y0080125D01*
X0161525Y0080125D01*
X0159746Y0078347D01*
X0159746Y0076483D01*
X0159079Y0075815D01*
X0158672Y0074832D01*
X0158672Y0073768D01*
X0159079Y0072785D01*
X0159831Y0072032D01*
X0160814Y0071625D01*
X0161879Y0071625D01*
X0162862Y0072032D01*
X0163614Y0072785D01*
X0164021Y0073768D01*
X0164021Y0074832D01*
X0163614Y0075815D01*
X0162946Y0076483D01*
X0162946Y0077022D01*
X0163249Y0077324D01*
X0164664Y0077324D01*
X0164664Y0076599D01*
X0164563Y0076499D01*
X0164366Y0076157D01*
X0164264Y0075775D01*
X0164264Y0074987D01*
X0164264Y0074199D01*
X0164316Y0074003D01*
X0164264Y0073807D01*
X0164264Y0073019D01*
X0165150Y0073019D01*
X0165150Y0073019D01*
X0165150Y0073018D02*
X0164264Y0073018D01*
X0164264Y0072230D01*
X0164316Y0072034D01*
X0164264Y0071838D01*
X0164264Y0070550D01*
X0167642Y0070550D01*
X0167642Y0070928D01*
X0167732Y0070928D01*
X0167732Y0073018D01*
X0167732Y0073018D01*
X0167732Y0072896D01*
X0167732Y0070928D01*
X0167823Y0070928D01*
X0167823Y0070550D01*
X0171201Y0070550D01*
X0171201Y0071838D01*
X0171148Y0072034D01*
X0171201Y0072230D01*
X0171201Y0073018D01*
X0170314Y0073018D01*
X0170314Y0073019D01*
X0171201Y0073019D01*
X0171201Y0073807D01*
X0171148Y0074003D01*
X0171201Y0074199D01*
X0171201Y0074987D01*
X0171201Y0075356D01*
X0174432Y0075356D01*
X0186013Y0063775D01*
X0186013Y0063055D01*
X0186391Y0062141D01*
X0187091Y0061441D01*
X0188005Y0061063D01*
X0188400Y0061063D01*
X0188400Y0060594D01*
X0189044Y0059950D01*
X0195400Y0059950D01*
X0195400Y0057550D01*
X0195000Y0057550D01*
X0195000Y0054050D01*
X0194000Y0054050D01*
X0194000Y0057550D01*
X0189303Y0057550D01*
X0188921Y0057448D01*
X0188579Y0057250D01*
X0188300Y0056971D01*
X0188102Y0056629D01*
X0188000Y0056247D01*
X0188000Y0054050D01*
X0194000Y0054050D01*
X0194000Y0053050D01*
X0195000Y0053050D01*
X0195000Y0049550D01*
X0195400Y0049550D01*
X0195400Y0047150D01*
X0189044Y0047150D01*
X0188400Y0046506D01*
X0188400Y0045150D01*
X0163337Y0045150D01*
X0152337Y0034150D01*
X0140915Y0034150D01*
X0140915Y0035171D01*
X0140536Y0035550D01*
X0153621Y0035550D01*
X0154500Y0036429D01*
X0163039Y0044967D01*
X0163917Y0045846D01*
X0163917Y0062076D01*
X0164054Y0062076D01*
X0164698Y0062720D01*
X0164698Y0067569D01*
X0164054Y0068213D01*
X0147579Y0068213D01*
X0147579Y0069171D01*
X0148468Y0070060D01*
X0148468Y0072040D01*
X0147068Y0073439D01*
X0145089Y0073439D01*
X0143690Y0072040D01*
X0143690Y0070060D01*
X0144579Y0069171D01*
X0144579Y0068613D01*
X0144110Y0068613D01*
X0143322Y0068613D01*
X0143126Y0068560D01*
X0142930Y0068613D01*
X0142142Y0068613D01*
X0142142Y0067726D01*
X0142142Y0068613D01*
X0141354Y0068613D01*
X0140972Y0068511D01*
X0140630Y0068313D01*
X0140530Y0068213D01*
X0138186Y0068213D01*
X0137336Y0069062D01*
X0137336Y0087267D01*
X0137513Y0087267D01*
X0137513Y0087055D01*
X0137891Y0086141D01*
X0138591Y0085441D01*
X0139505Y0085063D01*
X0140495Y0085063D01*
X0141409Y0085441D01*
X0142109Y0086141D01*
X0142487Y0087055D01*
X0142487Y0088045D01*
X0142109Y0088959D01*
X0141409Y0089659D01*
X0140495Y0090037D01*
X0139634Y0090037D01*
X0139405Y0090267D01*
X0137736Y0090267D01*
X0137736Y0090735D01*
X0136849Y0090735D01*
X0136850Y0090735D01*
X0137736Y0090735D01*
X0137736Y0091523D01*
X0137684Y0091719D01*
X0137736Y0091916D01*
X0141513Y0091916D01*
X0141513Y0091555D02*
X0141891Y0090641D01*
X0142591Y0089941D01*
X0143505Y0089563D01*
X0144495Y0089563D01*
X0145409Y0089941D01*
X0146018Y0090550D01*
X0152621Y0090550D01*
X0155453Y0093381D01*
X0155453Y0095141D01*
X0155921Y0095141D01*
X0155921Y0096027D01*
X0155921Y0095141D01*
X0156709Y0095141D01*
X0156906Y0095193D01*
X0157102Y0095141D01*
X0157890Y0095141D01*
X0157890Y0096027D01*
X0157890Y0096027D01*
X0157890Y0095141D01*
X0157890Y0095910D02*
X0157890Y0095910D01*
X0155921Y0095910D02*
X0155921Y0095910D01*
X0155921Y0096027D02*
X0155921Y0096027D01*
X0155453Y0094912D02*
X0164664Y0094912D01*
X0164424Y0095910D02*
X0175198Y0095910D01*
X0176802Y0095910D02*
X0194000Y0095910D01*
X0194000Y0095550D02*
X0188000Y0095550D01*
X0188000Y0093353D01*
X0188102Y0092971D01*
X0188300Y0092629D01*
X0188579Y0092350D01*
X0188921Y0092152D01*
X0189303Y0092050D01*
X0194000Y0092050D01*
X0194000Y0095550D01*
X0194000Y0094912D02*
X0195000Y0094912D01*
X0195000Y0093913D02*
X0194000Y0093913D01*
X0194000Y0092915D02*
X0195000Y0092915D01*
X0199000Y0091916D02*
X0183223Y0091916D01*
X0183487Y0092915D02*
X0188135Y0092915D01*
X0188000Y0093913D02*
X0183335Y0093913D01*
X0182656Y0094912D02*
X0188000Y0094912D01*
X0188000Y0096909D02*
X0164698Y0096909D01*
X0164698Y0097907D02*
X0188000Y0097907D01*
X0188042Y0098906D02*
X0164698Y0098906D01*
X0164698Y0099904D02*
X0169662Y0099904D01*
X0168786Y0100903D02*
X0164698Y0100903D01*
X0157890Y0101191D02*
X0157890Y0101191D01*
X0157890Y0101901D02*
X0157890Y0101901D01*
X0155921Y0101901D02*
X0155921Y0101901D01*
X0155921Y0102050D02*
X0155921Y0098609D01*
X0155921Y0094550D01*
X0155453Y0093913D02*
X0164218Y0093913D01*
X0163976Y0092915D02*
X0154986Y0092915D01*
X0153987Y0091916D02*
X0164489Y0091916D01*
X0164664Y0090918D02*
X0152989Y0090918D01*
X0151379Y0093550D02*
X0146018Y0093550D01*
X0145409Y0094159D01*
X0144495Y0094537D01*
X0143505Y0094537D01*
X0142591Y0094159D01*
X0141891Y0093459D01*
X0141513Y0092545D01*
X0141513Y0091555D01*
X0141777Y0090918D02*
X0137736Y0090918D01*
X0138315Y0090735D02*
X0134268Y0090735D01*
X0131185Y0090735D01*
X0130799Y0090735D02*
X0130799Y0090650D01*
X0130000Y0090650D01*
X0130000Y0096429D01*
X0130680Y0097109D01*
X0137302Y0097109D01*
X0137302Y0096185D01*
X0137946Y0095541D01*
X0152453Y0095541D01*
X0152453Y0094624D01*
X0151379Y0093550D01*
X0151742Y0093913D02*
X0145655Y0093913D01*
X0142345Y0093913D02*
X0137736Y0093913D01*
X0137736Y0093385D02*
X0137736Y0094673D01*
X0137634Y0095054D01*
X0137437Y0095396D01*
X0137157Y0095675D01*
X0136815Y0095873D01*
X0136434Y0095975D01*
X0134358Y0095975D01*
X0134358Y0093385D01*
X0134177Y0093385D01*
X0134177Y0095975D01*
X0132102Y0095975D01*
X0131720Y0095873D01*
X0131378Y0095675D01*
X0131099Y0095396D01*
X0130901Y0095054D01*
X0130799Y0094673D01*
X0130799Y0093385D01*
X0134177Y0093385D01*
X0134177Y0093204D01*
X0130799Y0093204D01*
X0130799Y0091916D01*
X0130000Y0091916D01*
X0130799Y0091916D02*
X0130852Y0091719D01*
X0130799Y0091523D01*
X0130799Y0090735D01*
X0131686Y0090735D01*
X0131686Y0090735D01*
X0130799Y0090735D01*
X0130799Y0090918D02*
X0130000Y0090918D01*
X0130000Y0092915D02*
X0130799Y0092915D01*
X0130799Y0093913D02*
X0130000Y0093913D01*
X0130000Y0094912D02*
X0130863Y0094912D01*
X0130000Y0095910D02*
X0131859Y0095910D01*
X0130480Y0096909D02*
X0137302Y0096909D01*
X0137576Y0095910D02*
X0136677Y0095910D01*
X0137672Y0094912D02*
X0152453Y0094912D01*
X0155921Y0098609D02*
X0155921Y0098609D01*
X0157890Y0098609D01*
X0157890Y0098609D01*
X0155921Y0098609D01*
X0155921Y0101191D02*
X0155921Y0102078D01*
X0155921Y0101191D01*
X0155921Y0101191D01*
X0156727Y0103898D02*
X0157031Y0103898D01*
X0156879Y0104050D02*
X0156879Y0104050D01*
X0165016Y0111886D02*
X0165984Y0111886D01*
X0165984Y0112885D02*
X0165016Y0112885D01*
X0165016Y0113883D02*
X0165984Y0113883D01*
X0168768Y0113883D02*
X0181894Y0113883D01*
X0181894Y0112885D02*
X0169165Y0112885D01*
X0169165Y0111886D02*
X0169552Y0111886D01*
X0173648Y0111886D02*
X0181894Y0111886D01*
X0181894Y0110888D02*
X0175069Y0110888D01*
X0181894Y0114882D02*
X0162011Y0114882D01*
X0162100Y0113883D02*
X0162232Y0113883D01*
X0162173Y0115880D02*
X0162827Y0115880D01*
X0162778Y0116879D02*
X0162222Y0116879D01*
X0162222Y0117877D02*
X0162770Y0117877D01*
X0162746Y0118876D02*
X0162222Y0118876D01*
X0162222Y0119874D02*
X0162778Y0119874D01*
X0162778Y0120873D02*
X0162222Y0120873D01*
X0155989Y0114882D02*
X0150639Y0114882D01*
X0143841Y0114882D02*
X0143638Y0114882D01*
X0140260Y0114882D02*
X0139260Y0114882D01*
X0139260Y0115880D02*
X0140260Y0115880D01*
X0140260Y0116879D02*
X0139260Y0116879D01*
X0139260Y0117877D02*
X0140260Y0117877D01*
X0139260Y0118876D02*
X0097900Y0118876D01*
X0097900Y0119874D02*
X0135701Y0119874D01*
X0135701Y0120873D02*
X0097900Y0120873D01*
X0097900Y0121871D02*
X0135747Y0121871D01*
X0136569Y0122870D02*
X0097900Y0122870D01*
X0097900Y0117877D02*
X0135701Y0117877D01*
X0135701Y0116879D02*
X0097900Y0116879D01*
X0097836Y0115880D02*
X0135701Y0115880D01*
X0139260Y0119874D02*
X0140260Y0119874D01*
X0140260Y0120873D02*
X0139260Y0120873D01*
X0139260Y0121871D02*
X0140260Y0121871D01*
X0140260Y0122870D02*
X0139260Y0122870D01*
X0142951Y0122870D02*
X0190049Y0122870D01*
X0192740Y0122870D02*
X0193740Y0122870D01*
X0193740Y0123003D02*
X0193740Y0119050D01*
X0197299Y0119050D01*
X0197299Y0121700D01*
X0197197Y0122082D01*
X0196999Y0122424D01*
X0196720Y0122703D01*
X0196378Y0122901D01*
X0195997Y0123003D01*
X0193740Y0123003D01*
X0193740Y0121871D02*
X0192740Y0121871D01*
X0192740Y0120873D02*
X0193740Y0120873D01*
X0193740Y0119874D02*
X0192740Y0119874D01*
X0193740Y0118876D02*
X0199000Y0118876D01*
X0199000Y0119874D02*
X0197299Y0119874D01*
X0197299Y0120873D02*
X0199000Y0120873D01*
X0198557Y0121871D02*
X0197253Y0121871D01*
X0197559Y0122870D02*
X0196431Y0122870D01*
X0197299Y0117877D02*
X0199000Y0117877D01*
X0199000Y0116879D02*
X0197299Y0116879D01*
X0197299Y0115880D02*
X0199000Y0115880D01*
X0199000Y0114882D02*
X0197118Y0114882D01*
X0199000Y0113883D02*
X0187294Y0113883D01*
X0187294Y0112885D02*
X0199000Y0112885D01*
X0199000Y0111886D02*
X0187294Y0111886D01*
X0187294Y0110888D02*
X0199000Y0110888D01*
X0199000Y0109889D02*
X0187479Y0109889D01*
X0189159Y0114882D02*
X0189362Y0114882D01*
X0192740Y0114882D02*
X0193740Y0114882D01*
X0193740Y0115880D02*
X0192740Y0115880D01*
X0192740Y0116879D02*
X0193740Y0116879D01*
X0193740Y0117877D02*
X0192740Y0117877D01*
X0182101Y0121871D02*
X0150899Y0121871D01*
X0181057Y0101901D02*
X0181143Y0101901D01*
X0187057Y0101901D02*
X0195400Y0101901D01*
X0195400Y0100903D02*
X0174861Y0100903D01*
X0173338Y0099904D02*
X0188845Y0099904D01*
X0194000Y0099904D02*
X0195000Y0099904D01*
X0195000Y0098906D02*
X0194000Y0098906D01*
X0194000Y0097907D02*
X0195000Y0097907D01*
X0195000Y0096909D02*
X0194000Y0096909D01*
X0199000Y0090918D02*
X0182352Y0090918D01*
X0179990Y0089919D02*
X0199000Y0089919D01*
X0199000Y0088920D02*
X0180392Y0088920D01*
X0181391Y0087922D02*
X0199000Y0087922D01*
X0199000Y0086923D02*
X0182389Y0086923D01*
X0183388Y0085925D02*
X0199000Y0085925D01*
X0199000Y0084926D02*
X0184386Y0084926D01*
X0185385Y0083928D02*
X0199000Y0083928D01*
X0199000Y0082929D02*
X0186383Y0082929D01*
X0187382Y0081931D02*
X0188825Y0081931D01*
X0188500Y0078550D02*
X0194500Y0078550D01*
X0199000Y0074950D02*
X0189044Y0074950D01*
X0188400Y0075594D01*
X0188400Y0076063D01*
X0188005Y0076063D01*
X0187091Y0076441D01*
X0186391Y0077141D01*
X0186013Y0078055D01*
X0186013Y0078775D01*
X0177621Y0087167D01*
X0171201Y0087167D01*
X0171201Y0086798D01*
X0167732Y0086798D01*
X0164264Y0086798D01*
X0167732Y0086798D01*
X0167732Y0086798D01*
X0171201Y0086798D01*
X0171201Y0086430D01*
X0174058Y0086430D01*
X0175383Y0086430D01*
X0188275Y0073537D01*
X0188400Y0073537D01*
X0188400Y0074006D01*
X0189044Y0074650D01*
X0199000Y0074650D01*
X0199000Y0074950D01*
X0199000Y0074941D02*
X0186871Y0074941D01*
X0185873Y0075940D02*
X0188400Y0075940D01*
X0186594Y0076938D02*
X0184874Y0076938D01*
X0183876Y0077937D02*
X0186062Y0077937D01*
X0185852Y0078935D02*
X0182877Y0078935D01*
X0181879Y0079934D02*
X0184853Y0079934D01*
X0183855Y0080932D02*
X0180880Y0080932D01*
X0179882Y0081931D02*
X0182856Y0081931D01*
X0181858Y0082929D02*
X0178883Y0082929D01*
X0177885Y0083928D02*
X0180859Y0083928D01*
X0179861Y0084926D02*
X0176886Y0084926D01*
X0175888Y0085925D02*
X0178862Y0085925D01*
X0177864Y0086923D02*
X0171201Y0086923D01*
X0167732Y0086798D02*
X0167732Y0086798D01*
X0164664Y0084926D02*
X0163156Y0084926D01*
X0163928Y0083928D02*
X0164339Y0083928D01*
X0164264Y0082929D02*
X0164175Y0082929D01*
X0164264Y0082861D02*
X0167732Y0082861D01*
X0164264Y0082861D01*
X0163407Y0080893D02*
X0161500Y0082800D01*
X0159072Y0083928D02*
X0137336Y0083928D01*
X0137336Y0084926D02*
X0159844Y0084926D01*
X0158825Y0082929D02*
X0137336Y0082929D01*
X0137336Y0081931D02*
X0158965Y0081931D01*
X0159585Y0080932D02*
X0137336Y0080932D01*
X0137336Y0079934D02*
X0161333Y0079934D01*
X0160335Y0078935D02*
X0137336Y0078935D01*
X0137336Y0077937D02*
X0159746Y0077937D01*
X0159746Y0076938D02*
X0137336Y0076938D01*
X0137336Y0075940D02*
X0159204Y0075940D01*
X0158717Y0074941D02*
X0137336Y0074941D01*
X0137336Y0073943D02*
X0158672Y0073943D01*
X0159013Y0072944D02*
X0147563Y0072944D01*
X0148468Y0071946D02*
X0160040Y0071946D01*
X0162652Y0071946D02*
X0164293Y0071946D01*
X0164264Y0072944D02*
X0163680Y0072944D01*
X0164021Y0073943D02*
X0164300Y0073943D01*
X0164264Y0074941D02*
X0163976Y0074941D01*
X0164264Y0074987D02*
X0165150Y0074987D01*
X0165151Y0074987D01*
X0164264Y0074987D01*
X0164308Y0075940D02*
X0163489Y0075940D01*
X0162946Y0076938D02*
X0164664Y0076938D01*
X0167732Y0076956D02*
X0175094Y0076956D01*
X0188500Y0063550D01*
X0194500Y0063550D01*
X0199000Y0067150D02*
X0189044Y0067150D01*
X0188400Y0066506D01*
X0188400Y0066037D01*
X0188275Y0066037D01*
X0175757Y0078555D01*
X0174432Y0078555D01*
X0170801Y0078555D01*
X0170801Y0081249D01*
X0170901Y0081349D01*
X0171099Y0081691D01*
X0171201Y0082073D01*
X0171201Y0082861D01*
X0171201Y0083230D01*
X0174058Y0083230D01*
X0186013Y0071275D01*
X0186013Y0070555D01*
X0186391Y0069641D01*
X0187091Y0068941D01*
X0188005Y0068563D01*
X0188400Y0068563D01*
X0188400Y0068094D01*
X0189044Y0067450D01*
X0199000Y0067450D01*
X0199000Y0067150D01*
X0194500Y0071050D02*
X0188500Y0071050D01*
X0174720Y0084830D01*
X0167732Y0084830D01*
X0167732Y0082861D02*
X0167732Y0082861D01*
X0171201Y0082861D01*
X0167732Y0082861D01*
X0167732Y0082861D01*
X0167732Y0080893D02*
X0163407Y0080893D01*
X0162586Y0078924D02*
X0161346Y0077684D01*
X0161346Y0074300D01*
X0165150Y0073019D02*
X0165150Y0073018D01*
X0164264Y0070947D02*
X0148468Y0070947D01*
X0148356Y0069949D02*
X0164264Y0069949D01*
X0164264Y0070369D02*
X0164264Y0069081D01*
X0164366Y0068699D01*
X0164563Y0068357D01*
X0164843Y0068078D01*
X0165185Y0067881D01*
X0165566Y0067778D01*
X0167642Y0067778D01*
X0167642Y0070369D01*
X0167823Y0070369D01*
X0167823Y0070550D01*
X0167642Y0070550D01*
X0167642Y0070369D01*
X0164264Y0070369D01*
X0164299Y0068950D02*
X0147579Y0068950D01*
X0144579Y0068950D02*
X0137448Y0068950D01*
X0137336Y0069949D02*
X0143801Y0069949D01*
X0144110Y0069550D02*
X0144110Y0065144D01*
X0142142Y0065144D01*
X0142142Y0065145D01*
X0144110Y0065145D01*
X0144110Y0065144D01*
X0142142Y0065144D01*
X0142142Y0069550D01*
X0143690Y0070947D02*
X0137336Y0070947D01*
X0137336Y0071946D02*
X0143690Y0071946D01*
X0144595Y0072944D02*
X0137336Y0072944D01*
X0144110Y0068613D02*
X0144110Y0067726D01*
X0144110Y0067726D01*
X0144110Y0068613D01*
X0144110Y0067952D02*
X0144110Y0067952D01*
X0142142Y0067952D02*
X0142142Y0067952D01*
X0142142Y0067726D02*
X0142142Y0067726D01*
X0142142Y0065144D02*
X0142142Y0061550D01*
X0142142Y0061676D02*
X0142930Y0061676D01*
X0143126Y0061729D01*
X0143322Y0061676D01*
X0144110Y0061676D01*
X0144110Y0062563D01*
X0144110Y0061676D01*
X0144898Y0061676D01*
X0145280Y0061778D01*
X0145622Y0061976D01*
X0145722Y0062076D01*
X0146547Y0062076D01*
X0146547Y0055150D01*
X0145800Y0055150D01*
X0145800Y0055550D01*
X0142500Y0055550D01*
X0142500Y0056550D01*
X0141500Y0056550D01*
X0141500Y0060700D01*
X0141100Y0060700D01*
X0141100Y0061744D01*
X0141354Y0061676D01*
X0142142Y0061676D01*
X0142142Y0062563D01*
X0142142Y0062563D01*
X0142142Y0061676D01*
X0142142Y0061961D02*
X0142142Y0061961D01*
X0142500Y0060700D02*
X0142500Y0056550D01*
X0145800Y0056550D01*
X0145800Y0059397D01*
X0145698Y0059779D01*
X0145500Y0060121D01*
X0145221Y0060400D01*
X0144879Y0060598D01*
X0144497Y0060700D01*
X0142500Y0060700D01*
X0142500Y0059964D02*
X0141500Y0059964D01*
X0141500Y0058965D02*
X0142500Y0058965D01*
X0142500Y0057967D02*
X0141500Y0057967D01*
X0141500Y0056968D02*
X0142500Y0056968D01*
X0142500Y0055970D02*
X0146547Y0055970D01*
X0146547Y0056968D02*
X0145800Y0056968D01*
X0145800Y0057967D02*
X0146547Y0057967D01*
X0146547Y0058965D02*
X0145800Y0058965D01*
X0145591Y0059964D02*
X0146547Y0059964D01*
X0146547Y0060962D02*
X0141100Y0060962D01*
X0144110Y0061550D02*
X0144110Y0065144D01*
X0144110Y0062563D02*
X0144110Y0062563D01*
X0144110Y0061961D02*
X0144110Y0061961D01*
X0145596Y0061961D02*
X0146547Y0061961D01*
X0163917Y0061961D02*
X0186572Y0061961D01*
X0186052Y0062959D02*
X0164698Y0062959D01*
X0164698Y0063958D02*
X0185830Y0063958D01*
X0184831Y0064956D02*
X0164698Y0064956D01*
X0164698Y0065955D02*
X0183833Y0065955D01*
X0182834Y0066953D02*
X0164698Y0066953D01*
X0165062Y0067952D02*
X0164315Y0067952D01*
X0167642Y0067952D02*
X0167823Y0067952D01*
X0167823Y0067778D02*
X0169898Y0067778D01*
X0170280Y0067881D01*
X0170622Y0068078D01*
X0170901Y0068357D01*
X0171099Y0068699D01*
X0171201Y0069081D01*
X0171201Y0070369D01*
X0167823Y0070369D01*
X0167823Y0067778D01*
X0167823Y0068950D02*
X0167642Y0068950D01*
X0167642Y0069949D02*
X0167823Y0069949D01*
X0167732Y0070459D02*
X0167732Y0073019D01*
X0167732Y0074987D01*
X0167732Y0074987D01*
X0172500Y0074987D01*
X0171201Y0074987D02*
X0170314Y0074987D01*
X0170314Y0074987D01*
X0171201Y0074987D01*
X0171201Y0074941D02*
X0174846Y0074941D01*
X0175844Y0073943D02*
X0171164Y0073943D01*
X0171201Y0072944D02*
X0176843Y0072944D01*
X0177841Y0071946D02*
X0171172Y0071946D01*
X0171201Y0070947D02*
X0178840Y0070947D01*
X0179838Y0069949D02*
X0171201Y0069949D01*
X0171166Y0068950D02*
X0180837Y0068950D01*
X0181836Y0067952D02*
X0170403Y0067952D01*
X0167732Y0070947D02*
X0167732Y0070947D01*
X0167732Y0071946D02*
X0167732Y0071946D01*
X0167732Y0072944D02*
X0167732Y0072944D01*
X0167732Y0073019D02*
X0172500Y0073019D01*
X0170314Y0073019D02*
X0170314Y0073019D01*
X0167732Y0073019D02*
X0167732Y0074987D01*
X0167732Y0073019D01*
X0167732Y0073019D01*
X0167732Y0073943D02*
X0167732Y0073943D01*
X0167732Y0074941D02*
X0167732Y0074941D01*
X0167732Y0078924D02*
X0162586Y0078924D01*
X0170801Y0078935D02*
X0178352Y0078935D01*
X0179350Y0077937D02*
X0176376Y0077937D01*
X0177374Y0076938D02*
X0180349Y0076938D01*
X0181347Y0075940D02*
X0178373Y0075940D01*
X0179371Y0074941D02*
X0182346Y0074941D01*
X0183344Y0073943D02*
X0180370Y0073943D01*
X0181368Y0072944D02*
X0184343Y0072944D01*
X0185341Y0071946D02*
X0182367Y0071946D01*
X0183365Y0070947D02*
X0186013Y0070947D01*
X0186264Y0069949D02*
X0184364Y0069949D01*
X0185362Y0068950D02*
X0187082Y0068950D01*
X0186361Y0067952D02*
X0188543Y0067952D01*
X0188848Y0066953D02*
X0187359Y0066953D01*
X0188400Y0060962D02*
X0163917Y0060962D01*
X0163917Y0059964D02*
X0189031Y0059964D01*
X0188298Y0056968D02*
X0163917Y0056968D01*
X0163917Y0055970D02*
X0188000Y0055970D01*
X0188000Y0054971D02*
X0163917Y0054971D01*
X0163917Y0053973D02*
X0194000Y0053973D01*
X0194000Y0053050D02*
X0188000Y0053050D01*
X0188000Y0050853D01*
X0188102Y0050471D01*
X0188300Y0050129D01*
X0188579Y0049850D01*
X0188921Y0049652D01*
X0189303Y0049550D01*
X0194000Y0049550D01*
X0194000Y0053050D01*
X0194000Y0052974D02*
X0195000Y0052974D01*
X0195000Y0051976D02*
X0194000Y0051976D01*
X0194000Y0050977D02*
X0195000Y0050977D01*
X0195000Y0049979D02*
X0194000Y0049979D01*
X0195400Y0048980D02*
X0163917Y0048980D01*
X0163917Y0047982D02*
X0195400Y0047982D01*
X0188877Y0046983D02*
X0163917Y0046983D01*
X0163917Y0045984D02*
X0188400Y0045984D01*
X0188450Y0049979D02*
X0163917Y0049979D01*
X0163917Y0050977D02*
X0188000Y0050977D01*
X0188000Y0051976D02*
X0163917Y0051976D01*
X0163917Y0052974D02*
X0188000Y0052974D01*
X0194000Y0054971D02*
X0195000Y0054971D01*
X0195000Y0055970D02*
X0194000Y0055970D01*
X0194000Y0056968D02*
X0195000Y0056968D01*
X0195400Y0057967D02*
X0163917Y0057967D01*
X0163917Y0058965D02*
X0195400Y0058965D01*
X0194500Y0043550D02*
X0164000Y0043550D01*
X0153000Y0032550D01*
X0137846Y0032550D01*
X0140915Y0035001D02*
X0153188Y0035001D01*
X0154071Y0035999D02*
X0154187Y0035999D01*
X0155069Y0036998D02*
X0155185Y0036998D01*
X0156068Y0037996D02*
X0156184Y0037996D01*
X0157066Y0038995D02*
X0157182Y0038995D01*
X0158065Y0039993D02*
X0158181Y0039993D01*
X0159063Y0040992D02*
X0159179Y0040992D01*
X0160062Y0041990D02*
X0160178Y0041990D01*
X0161060Y0042989D02*
X0161176Y0042989D01*
X0162059Y0043987D02*
X0162175Y0043987D01*
X0163057Y0044986D02*
X0163173Y0044986D01*
X0164663Y0041950D02*
X0188400Y0041950D01*
X0188400Y0040594D01*
X0189044Y0039950D01*
X0199000Y0039950D01*
X0199000Y0039650D01*
X0189044Y0039650D01*
X0188400Y0039006D01*
X0188400Y0037650D01*
X0183837Y0037650D01*
X0182900Y0036713D01*
X0179400Y0033213D01*
X0179400Y0027465D01*
X0178379Y0027465D01*
X0177735Y0026821D01*
X0177735Y0021972D01*
X0178379Y0021328D01*
X0183621Y0021328D01*
X0184265Y0021972D01*
X0184265Y0026821D01*
X0183621Y0027465D01*
X0182600Y0027465D01*
X0182600Y0031887D01*
X0185163Y0034450D01*
X0188400Y0034450D01*
X0188400Y0033094D01*
X0189044Y0032450D01*
X0199000Y0032450D01*
X0199000Y0022150D01*
X0189044Y0022150D01*
X0188400Y0021506D01*
X0188400Y0020050D01*
X0187879Y0020050D01*
X0187000Y0019171D01*
X0184265Y0016437D01*
X0184265Y0020128D01*
X0183621Y0020772D01*
X0178379Y0020772D01*
X0177735Y0020128D01*
X0177735Y0015279D01*
X0177876Y0015138D01*
X0174915Y0015138D01*
X0174915Y0017143D01*
X0174271Y0017788D01*
X0162729Y0017788D01*
X0162392Y0017450D01*
X0160360Y0017450D01*
X0160117Y0017693D01*
X0152907Y0017693D01*
X0152609Y0017396D01*
X0152556Y0017450D01*
X0149337Y0017450D01*
X0149093Y0017693D01*
X0141883Y0017693D01*
X0141239Y0017049D01*
X0141239Y0014650D01*
X0138163Y0014650D01*
X0137937Y0014876D01*
X0137946Y0014886D01*
X0137946Y0019931D01*
X0137302Y0020575D01*
X0135309Y0020575D01*
X0135208Y0020675D01*
X0134866Y0020873D01*
X0134485Y0020975D01*
X0133500Y0020975D01*
X0133500Y0017408D01*
X0133500Y0013841D01*
X0133500Y0017408D01*
X0133500Y0017408D01*
X0133500Y0020975D01*
X0132515Y0020975D01*
X0132134Y0020873D01*
X0131792Y0020675D01*
X0131691Y0020575D01*
X0130600Y0020575D01*
X0130600Y0021525D01*
X0132184Y0021525D01*
X0132220Y0021561D01*
X0132257Y0021525D01*
X0134743Y0021525D01*
X0134780Y0021561D01*
X0134816Y0021525D01*
X0136963Y0021525D01*
X0139101Y0019387D01*
X0140038Y0018450D01*
X0161663Y0018450D01*
X0162600Y0019387D01*
X0162600Y0019387D01*
X0163525Y0020312D01*
X0174271Y0020312D01*
X0174915Y0020957D01*
X0174915Y0028167D01*
X0174271Y0028811D01*
X0162729Y0028811D01*
X0162085Y0028167D01*
X0162085Y0023398D01*
X0160337Y0021650D01*
X0157973Y0021650D01*
X0157999Y0021676D01*
X0158197Y0022018D01*
X0158299Y0022400D01*
X0158299Y0025050D01*
X0154740Y0025050D01*
X0154740Y0026050D01*
X0154400Y0026050D01*
X0154400Y0027906D01*
X0153756Y0028550D01*
X0153740Y0028550D01*
X0153740Y0030003D01*
X0153400Y0030003D01*
X0153400Y0030950D01*
X0153663Y0030950D01*
X0164663Y0041950D01*
X0163705Y0040992D02*
X0188400Y0040992D01*
X0189001Y0039993D02*
X0162706Y0039993D01*
X0161708Y0038995D02*
X0188400Y0038995D01*
X0188400Y0037996D02*
X0160709Y0037996D01*
X0159711Y0036998D02*
X0183185Y0036998D01*
X0182187Y0035999D02*
X0158712Y0035999D01*
X0157714Y0035001D02*
X0181188Y0035001D01*
X0180190Y0034002D02*
X0156715Y0034002D01*
X0155717Y0033004D02*
X0179400Y0033004D01*
X0179400Y0032005D02*
X0154718Y0032005D01*
X0153720Y0031007D02*
X0179400Y0031007D01*
X0179400Y0030008D02*
X0153400Y0030008D01*
X0153740Y0029010D02*
X0154740Y0029010D01*
X0154740Y0030003D02*
X0154740Y0026050D01*
X0158299Y0026050D01*
X0158299Y0028700D01*
X0158197Y0029082D01*
X0157999Y0029424D01*
X0157720Y0029703D01*
X0157378Y0029901D01*
X0156997Y0030003D01*
X0154740Y0030003D01*
X0158216Y0029010D02*
X0179400Y0029010D01*
X0179400Y0028011D02*
X0174915Y0028011D01*
X0174915Y0027013D02*
X0177927Y0027013D01*
X0177735Y0026014D02*
X0174915Y0026014D01*
X0174915Y0025016D02*
X0177735Y0025016D01*
X0177735Y0024017D02*
X0174915Y0024017D01*
X0174915Y0023019D02*
X0177735Y0023019D01*
X0177735Y0022020D02*
X0174915Y0022020D01*
X0174915Y0021022D02*
X0188400Y0021022D01*
X0188915Y0022020D02*
X0184265Y0022020D01*
X0184265Y0023019D02*
X0199000Y0023019D01*
X0199000Y0024017D02*
X0184265Y0024017D01*
X0184265Y0025016D02*
X0199000Y0025016D01*
X0199000Y0026014D02*
X0184265Y0026014D01*
X0184073Y0027013D02*
X0199000Y0027013D01*
X0199000Y0028011D02*
X0182600Y0028011D01*
X0182600Y0029010D02*
X0199000Y0029010D01*
X0199000Y0030008D02*
X0182600Y0030008D01*
X0182600Y0031007D02*
X0199000Y0031007D01*
X0199000Y0032005D02*
X0182718Y0032005D01*
X0183717Y0033004D02*
X0188491Y0033004D01*
X0188400Y0034002D02*
X0184715Y0034002D01*
X0184500Y0036050D02*
X0181000Y0032550D01*
X0181000Y0024396D01*
X0184265Y0020023D02*
X0187852Y0020023D01*
X0186853Y0019025D02*
X0184265Y0019025D01*
X0184265Y0018026D02*
X0185855Y0018026D01*
X0184856Y0017028D02*
X0184265Y0017028D01*
X0181000Y0017704D02*
X0181000Y0015050D01*
X0179488Y0013538D01*
X0168500Y0013538D01*
X0174915Y0016029D02*
X0177735Y0016029D01*
X0177735Y0017028D02*
X0174915Y0017028D01*
X0177735Y0018026D02*
X0137946Y0018026D01*
X0137946Y0017028D02*
X0141239Y0017028D01*
X0141239Y0016029D02*
X0137946Y0016029D01*
X0137946Y0015031D02*
X0141239Y0015031D01*
X0137500Y0013050D02*
X0145488Y0013050D01*
X0149738Y0013034D02*
X0152262Y0013034D01*
X0152262Y0014032D02*
X0149738Y0014032D01*
X0149738Y0015031D02*
X0152262Y0015031D01*
X0152262Y0012035D02*
X0149738Y0012035D01*
X0149738Y0011037D02*
X0152262Y0011037D01*
X0152262Y0010038D02*
X0149738Y0010038D01*
X0149726Y0009040D02*
X0152274Y0009040D01*
X0160750Y0009040D02*
X0176868Y0009040D01*
X0177867Y0010038D02*
X0174915Y0010038D01*
X0174915Y0011037D02*
X0178865Y0011037D01*
X0177735Y0019025D02*
X0162237Y0019025D01*
X0163236Y0020023D02*
X0177735Y0020023D01*
X0168500Y0024562D02*
X0165512Y0024562D01*
X0161000Y0020050D01*
X0141700Y0020050D01*
X0141700Y0020250D01*
X0139500Y0022450D01*
X0139900Y0022050D01*
X0138701Y0022050D01*
X0136059Y0024692D01*
X0140701Y0020050D01*
X0141700Y0020050D01*
X0139463Y0019025D02*
X0137946Y0019025D01*
X0137854Y0020023D02*
X0138465Y0020023D01*
X0137466Y0021022D02*
X0130600Y0021022D01*
X0133500Y0020023D02*
X0133500Y0020023D01*
X0133500Y0019025D02*
X0133500Y0019025D01*
X0133500Y0018026D02*
X0133500Y0018026D01*
X0133500Y0017408D02*
X0133500Y0017408D01*
X0133500Y0017028D02*
X0133500Y0017028D01*
X0133500Y0016029D02*
X0133500Y0016029D01*
X0133500Y0015031D02*
X0133500Y0015031D01*
X0133500Y0014032D02*
X0133500Y0014032D01*
X0131980Y0014032D02*
X0092888Y0014032D01*
X0093250Y0015031D02*
X0129054Y0015031D01*
X0129054Y0016029D02*
X0093400Y0016029D01*
X0094399Y0017028D02*
X0111260Y0017028D01*
X0110261Y0018026D02*
X0095398Y0018026D01*
X0095600Y0019025D02*
X0109263Y0019025D01*
X0108184Y0020023D02*
X0107357Y0020023D01*
X0107322Y0019964D02*
X0107520Y0020306D01*
X0107622Y0020687D01*
X0107622Y0022566D01*
X0104638Y0022566D01*
X0104638Y0019385D01*
X0106320Y0019385D01*
X0106701Y0019487D01*
X0107043Y0019684D01*
X0107322Y0019964D01*
X0107622Y0021022D02*
X0107778Y0021022D01*
X0107778Y0022020D02*
X0107622Y0022020D01*
X0107778Y0023019D02*
X0104638Y0023019D01*
X0103669Y0023019D02*
X0095600Y0023019D01*
X0095600Y0024017D02*
X0100685Y0024017D01*
X0100685Y0025016D02*
X0095600Y0025016D01*
X0095600Y0026014D02*
X0099273Y0026014D01*
X0098400Y0026887D02*
X0098400Y0026887D01*
X0098274Y0027013D02*
X0095600Y0027013D01*
X0095600Y0028011D02*
X0097276Y0028011D01*
X0096743Y0029010D02*
X0095600Y0029010D01*
X0095600Y0030008D02*
X0096743Y0030008D01*
X0096743Y0031007D02*
X0095600Y0031007D01*
X0095600Y0032005D02*
X0096743Y0032005D01*
X0096743Y0033004D02*
X0095600Y0033004D01*
X0094869Y0034002D02*
X0096743Y0034002D01*
X0096743Y0035001D02*
X0093937Y0035001D01*
X0098343Y0039554D02*
X0098343Y0029207D01*
X0100000Y0027550D01*
X0114500Y0027550D01*
X0117500Y0027550D01*
X0116000Y0026050D01*
X0116000Y0023204D01*
X0116154Y0023050D01*
X0116000Y0026050D02*
X0116000Y0027050D01*
X0116000Y0026050D02*
X0114500Y0027550D01*
X0117500Y0027550D02*
X0122500Y0027550D01*
X0127500Y0032550D01*
X0131154Y0032550D01*
X0136059Y0024692D02*
X0137258Y0024692D01*
X0139500Y0022450D01*
X0136059Y0017408D02*
X0136059Y0014491D01*
X0137500Y0013050D01*
X0136252Y0012035D02*
X0094636Y0012035D01*
X0095635Y0011037D02*
X0141239Y0011037D01*
X0141239Y0010038D02*
X0096633Y0010038D01*
X0097632Y0009040D02*
X0141250Y0009040D01*
X0135254Y0013034D02*
X0080038Y0013034D01*
X0079039Y0014032D02*
X0085112Y0014032D01*
X0084750Y0015031D02*
X0078041Y0015031D01*
X0077042Y0016029D02*
X0084750Y0016029D01*
X0077792Y0011037D02*
X0066740Y0011037D01*
X0067276Y0012035D02*
X0076794Y0012035D01*
X0075795Y0013034D02*
X0067568Y0013034D01*
X0067568Y0014032D02*
X0074797Y0014032D01*
X0073798Y0015031D02*
X0067290Y0015031D01*
X0068100Y0016029D02*
X0071703Y0016029D01*
X0070455Y0017028D02*
X0069099Y0017028D01*
X0070000Y0018026D02*
X0070113Y0018026D01*
X0070187Y0019025D02*
X0070000Y0019025D01*
X0070000Y0020023D02*
X0070755Y0020023D01*
X0059724Y0012035D02*
X0059500Y0012035D01*
X0059500Y0011037D02*
X0060260Y0011037D01*
X0059500Y0010038D02*
X0061347Y0010038D01*
X0059500Y0009040D02*
X0073718Y0009040D01*
X0073513Y0008041D02*
X0059500Y0008041D01*
X0059114Y0007043D02*
X0073725Y0007043D01*
X0074488Y0006044D02*
X0058115Y0006044D01*
X0057500Y0005429D02*
X0057500Y0005429D01*
X0057117Y0005046D02*
X0094383Y0005046D01*
X0093385Y0006044D02*
X0077512Y0006044D01*
X0077530Y0010038D02*
X0078791Y0010038D01*
X0074470Y0010038D02*
X0065653Y0010038D01*
X0095382Y0004047D02*
X0004124Y0004047D01*
X0003126Y0005046D02*
X0033883Y0005046D01*
X0032885Y0006044D02*
X0003000Y0006044D01*
X0003000Y0007043D02*
X0032000Y0007043D01*
X0032000Y0008041D02*
X0003000Y0008041D01*
X0003000Y0009040D02*
X0032000Y0009040D01*
X0031347Y0010038D02*
X0025653Y0010038D01*
X0026740Y0011037D02*
X0030260Y0011037D01*
X0029724Y0012035D02*
X0027276Y0012035D01*
X0028605Y0013034D02*
X0029431Y0013034D01*
X0027358Y0016029D02*
X0026775Y0016029D01*
X0025736Y0017028D02*
X0028356Y0017028D01*
X0029355Y0018026D02*
X0003000Y0018026D01*
X0003000Y0017028D02*
X0021264Y0017028D01*
X0020225Y0016029D02*
X0003000Y0016029D01*
X0003000Y0015031D02*
X0019710Y0015031D01*
X0019431Y0014032D02*
X0003000Y0014032D01*
X0003000Y0013034D02*
X0019431Y0013034D01*
X0019724Y0012035D02*
X0003000Y0012035D01*
X0003000Y0011037D02*
X0020260Y0011037D01*
X0021347Y0010038D02*
X0003000Y0010038D01*
X0003000Y0019025D02*
X0030353Y0019025D01*
X0031352Y0020023D02*
X0026248Y0020023D01*
X0026411Y0020142D02*
X0025842Y0019728D01*
X0025215Y0019409D01*
X0024546Y0019192D01*
X0023984Y0019102D01*
X0023984Y0023066D01*
X0023016Y0023066D01*
X0023016Y0019102D01*
X0022454Y0019192D01*
X0021785Y0019409D01*
X0021158Y0019728D01*
X0020589Y0020142D01*
X0020092Y0020639D01*
X0019678Y0021208D01*
X0019359Y0021835D01*
X0019142Y0022504D01*
X0019052Y0023066D01*
X0023016Y0023066D01*
X0023016Y0024034D01*
X0019052Y0024034D01*
X0019142Y0024596D01*
X0019359Y0025265D01*
X0019678Y0025892D01*
X0020092Y0026461D01*
X0020589Y0026958D01*
X0021158Y0027372D01*
X0021785Y0027691D01*
X0022454Y0027908D01*
X0023016Y0027997D01*
X0023016Y0024034D01*
X0023984Y0024034D01*
X0027947Y0024034D01*
X0027858Y0024596D01*
X0027641Y0025265D01*
X0027322Y0025892D01*
X0026908Y0026461D01*
X0026411Y0026958D01*
X0025842Y0027372D01*
X0025215Y0027691D01*
X0024546Y0027908D01*
X0023984Y0027997D01*
X0023984Y0024034D01*
X0023984Y0023066D01*
X0027947Y0023066D01*
X0027858Y0022504D01*
X0027641Y0021835D01*
X0027322Y0021208D01*
X0026908Y0020639D01*
X0026411Y0020142D01*
X0027186Y0021022D02*
X0030275Y0021022D01*
X0029730Y0022020D02*
X0027701Y0022020D01*
X0027940Y0023019D02*
X0029431Y0023019D01*
X0029431Y0024017D02*
X0023984Y0024017D01*
X0023016Y0024017D02*
X0003000Y0024017D01*
X0003000Y0023019D02*
X0019060Y0023019D01*
X0019299Y0022020D02*
X0003000Y0022020D01*
X0003000Y0021022D02*
X0019814Y0021022D01*
X0020752Y0020023D02*
X0003000Y0020023D01*
X0003000Y0025016D02*
X0019278Y0025016D01*
X0019767Y0026014D02*
X0003000Y0026014D01*
X0003000Y0027013D02*
X0020664Y0027013D01*
X0023016Y0027013D02*
X0023984Y0027013D01*
X0023984Y0026014D02*
X0023016Y0026014D01*
X0023016Y0025016D02*
X0023984Y0025016D01*
X0023984Y0023019D02*
X0023016Y0023019D01*
X0023016Y0022020D02*
X0023984Y0022020D01*
X0023984Y0021022D02*
X0023016Y0021022D01*
X0023016Y0020023D02*
X0023984Y0020023D01*
X0027722Y0025016D02*
X0029703Y0025016D01*
X0030211Y0026014D02*
X0027233Y0026014D01*
X0026336Y0027013D02*
X0031228Y0027013D01*
X0031800Y0028011D02*
X0003000Y0028011D01*
X0003000Y0029010D02*
X0031800Y0029010D01*
X0031800Y0030008D02*
X0003000Y0030008D01*
X0003000Y0031007D02*
X0031800Y0031007D01*
X0031800Y0032005D02*
X0003000Y0032005D01*
X0003000Y0033004D02*
X0031800Y0033004D01*
X0031800Y0034002D02*
X0027970Y0034002D01*
X0028758Y0035001D02*
X0031800Y0035001D01*
X0031800Y0035999D02*
X0028987Y0035999D01*
X0028800Y0036998D02*
X0031800Y0036998D01*
X0031964Y0037996D02*
X0032442Y0037996D01*
X0032462Y0038995D02*
X0033441Y0038995D01*
X0032487Y0039993D02*
X0034439Y0039993D01*
X0035438Y0040992D02*
X0032076Y0040992D01*
X0031500Y0041990D02*
X0036436Y0041990D01*
X0037435Y0042989D02*
X0031500Y0042989D01*
X0031559Y0043987D02*
X0038433Y0043987D01*
X0027541Y0050977D02*
X0019048Y0050977D01*
X0018050Y0049979D02*
X0026307Y0049979D01*
X0025309Y0048980D02*
X0017051Y0048980D01*
X0016053Y0047982D02*
X0025000Y0047982D01*
X0025000Y0046983D02*
X0015054Y0046983D01*
X0014056Y0045984D02*
X0025000Y0045984D01*
X0025000Y0044986D02*
X0013057Y0044986D01*
X0012797Y0042750D02*
X0008100Y0042750D01*
X0008100Y0039250D01*
X0014100Y0039250D01*
X0014100Y0041447D01*
X0013998Y0041829D01*
X0013800Y0042171D01*
X0013521Y0042450D01*
X0013179Y0042648D01*
X0012797Y0042750D01*
X0013905Y0041990D02*
X0025000Y0041990D01*
X0025000Y0040992D02*
X0014100Y0040992D01*
X0014100Y0039993D02*
X0025000Y0039993D01*
X0025000Y0038995D02*
X0008100Y0038995D01*
X0008100Y0038250D02*
X0014100Y0038250D01*
X0014100Y0036053D01*
X0013998Y0035671D01*
X0013800Y0035329D01*
X0013521Y0035050D01*
X0013179Y0034852D01*
X0012797Y0034750D01*
X0008100Y0034750D01*
X0008100Y0038250D01*
X0008100Y0037996D02*
X0007100Y0037996D01*
X0007100Y0036998D02*
X0008100Y0036998D01*
X0008100Y0035999D02*
X0007100Y0035999D01*
X0007100Y0035001D02*
X0008100Y0035001D01*
X0003000Y0034002D02*
X0025030Y0034002D01*
X0024242Y0035001D02*
X0013436Y0035001D01*
X0014086Y0035999D02*
X0024013Y0035999D01*
X0024200Y0036998D02*
X0014100Y0036998D01*
X0014100Y0037996D02*
X0024929Y0037996D01*
X0025000Y0042989D02*
X0007100Y0042989D01*
X0007100Y0042750D02*
X0007100Y0042750D01*
X0007100Y0041990D02*
X0008100Y0041990D01*
X0008100Y0040992D02*
X0007100Y0040992D01*
X0007100Y0039993D02*
X0008100Y0039993D01*
X0010218Y0043987D02*
X0025000Y0043987D01*
X0027479Y0051976D02*
X0020047Y0051976D01*
X0021045Y0052974D02*
X0027479Y0052974D01*
X0027479Y0053973D02*
X0022044Y0053973D01*
X0048500Y0076050D02*
X0051374Y0078924D01*
X0057004Y0078924D01*
X0057004Y0080892D02*
X0057004Y0080893D01*
X0061457Y0080893D01*
X0061457Y0081720D01*
X0061354Y0082101D01*
X0061157Y0082443D01*
X0061057Y0082544D01*
X0061057Y0093021D01*
X0061157Y0093121D01*
X0061354Y0093463D01*
X0061457Y0093845D01*
X0061457Y0095172D01*
X0057134Y0095172D01*
X0057134Y0095432D01*
X0061431Y0095432D01*
X0064600Y0092263D01*
X0064600Y0072933D01*
X0064317Y0072650D01*
X0061057Y0072650D01*
X0061057Y0073336D01*
X0061157Y0073436D01*
X0061354Y0073778D01*
X0061457Y0074160D01*
X0061457Y0074987D01*
X0061457Y0075814D01*
X0061415Y0075971D01*
X0061457Y0076128D01*
X0061457Y0076955D01*
X0060638Y0076955D01*
X0060638Y0076956D01*
X0061457Y0076956D01*
X0061457Y0077783D01*
X0061354Y0078164D01*
X0061157Y0078506D01*
X0061057Y0078607D01*
X0061057Y0079241D01*
X0061157Y0079342D01*
X0061354Y0079684D01*
X0061457Y0080065D01*
X0061457Y0080892D01*
X0057004Y0080892D01*
X0061457Y0080932D02*
X0064600Y0080932D01*
X0064600Y0079934D02*
X0061422Y0079934D01*
X0061057Y0078935D02*
X0064600Y0078935D01*
X0064600Y0077937D02*
X0061415Y0077937D01*
X0061457Y0076938D02*
X0064600Y0076938D01*
X0064600Y0075940D02*
X0061423Y0075940D01*
X0061457Y0074987D02*
X0060638Y0074987D01*
X0060638Y0074987D01*
X0061457Y0074987D01*
X0061457Y0074941D02*
X0064600Y0074941D01*
X0064600Y0073943D02*
X0061399Y0073943D01*
X0061057Y0072944D02*
X0064600Y0072944D01*
X0066500Y0071050D02*
X0057004Y0071050D01*
X0061057Y0068950D02*
X0064600Y0068950D01*
X0064600Y0067952D02*
X0061057Y0067952D01*
X0061057Y0066953D02*
X0064600Y0066953D01*
X0064600Y0065955D02*
X0061057Y0065955D01*
X0061057Y0064956D02*
X0064600Y0064956D01*
X0064600Y0063958D02*
X0061057Y0063958D01*
X0061057Y0062959D02*
X0064600Y0062959D01*
X0064600Y0061961D02*
X0061057Y0061961D01*
X0061057Y0060962D02*
X0064600Y0060962D01*
X0064600Y0059964D02*
X0061057Y0059964D01*
X0061057Y0058965D02*
X0064600Y0058965D01*
X0064600Y0057967D02*
X0061057Y0057967D01*
X0061057Y0056968D02*
X0064600Y0056968D01*
X0065393Y0055970D02*
X0061057Y0055970D01*
X0061057Y0054971D02*
X0066392Y0054971D01*
X0067390Y0053973D02*
X0061057Y0053973D01*
X0061057Y0052974D02*
X0068389Y0052974D01*
X0069387Y0051976D02*
X0063196Y0051976D01*
X0064194Y0050977D02*
X0070386Y0050977D01*
X0071384Y0049979D02*
X0065193Y0049979D01*
X0065588Y0048980D02*
X0072383Y0048980D01*
X0073381Y0047982D02*
X0066306Y0047982D01*
X0066487Y0046983D02*
X0074380Y0046983D01*
X0075790Y0043987D02*
X0063059Y0043987D01*
X0074720Y0039554D02*
X0074720Y0031270D01*
X0074700Y0031050D01*
X0072236Y0030008D02*
X0067163Y0030008D01*
X0068162Y0029010D02*
X0072957Y0029010D01*
X0072025Y0031007D02*
X0063164Y0031007D01*
X0062166Y0032005D02*
X0072201Y0032005D01*
X0072871Y0033004D02*
X0062000Y0033004D01*
X0062000Y0034002D02*
X0073120Y0034002D01*
X0073120Y0035001D02*
X0062000Y0035001D01*
X0062000Y0035999D02*
X0062034Y0035999D01*
X0095600Y0022020D02*
X0100685Y0022020D01*
X0100685Y0021022D02*
X0095600Y0021022D01*
X0095600Y0020023D02*
X0100950Y0020023D01*
X0103669Y0020023D02*
X0104638Y0020023D01*
X0104638Y0021022D02*
X0103669Y0021022D01*
X0103669Y0022020D02*
X0104638Y0022020D01*
X0110846Y0023050D02*
X0110846Y0019704D01*
X0112000Y0018550D01*
X0121500Y0018550D01*
X0129000Y0018550D01*
X0130142Y0017408D01*
X0130941Y0017408D01*
X0130799Y0018550D01*
X0129000Y0018550D01*
X0124500Y0018550D02*
X0123000Y0020050D01*
X0122000Y0019050D01*
X0123000Y0019050D01*
X0123000Y0022896D01*
X0122846Y0023050D01*
X0122000Y0019050D02*
X0121500Y0018550D01*
X0102300Y0031050D02*
X0102280Y0031170D01*
X0102280Y0039554D01*
X0104248Y0039993D02*
X0104248Y0039993D01*
X0104248Y0040992D02*
X0104248Y0040992D01*
X0104248Y0041990D02*
X0104248Y0041990D01*
X0104248Y0042989D02*
X0104248Y0042989D01*
X0108817Y0068950D02*
X0068400Y0068950D01*
X0068939Y0069949D02*
X0095914Y0069949D01*
X0094916Y0070947D02*
X0069175Y0070947D01*
X0069024Y0071946D02*
X0093917Y0071946D01*
X0092919Y0072944D02*
X0068400Y0072944D01*
X0068400Y0073943D02*
X0091920Y0073943D01*
X0090922Y0074941D02*
X0068400Y0074941D01*
X0068400Y0075940D02*
X0089923Y0075940D01*
X0088925Y0076938D02*
X0068400Y0076938D01*
X0068400Y0077937D02*
X0087926Y0077937D01*
X0086928Y0078935D02*
X0068400Y0078935D01*
X0068400Y0079934D02*
X0086600Y0079934D01*
X0086600Y0080932D02*
X0068400Y0080932D01*
X0068400Y0081931D02*
X0086600Y0081931D01*
X0086600Y0082929D02*
X0068400Y0082929D01*
X0068400Y0083928D02*
X0086600Y0083928D01*
X0086600Y0084926D02*
X0068400Y0084926D01*
X0068400Y0085925D02*
X0086600Y0085925D01*
X0086600Y0086923D02*
X0068400Y0086923D01*
X0068400Y0087922D02*
X0086600Y0087922D01*
X0086600Y0088920D02*
X0068400Y0088920D01*
X0069056Y0089919D02*
X0086600Y0089919D01*
X0086600Y0090918D02*
X0070054Y0090918D01*
X0067287Y0094950D02*
X0063744Y0098493D01*
X0065964Y0098493D01*
X0073069Y0098493D01*
X0073170Y0098393D01*
X0073512Y0098196D01*
X0073893Y0098093D01*
X0074720Y0098093D01*
X0074720Y0102546D01*
X0074721Y0102546D01*
X0074721Y0098093D01*
X0075548Y0098093D01*
X0075929Y0098196D01*
X0076271Y0098393D01*
X0076372Y0098493D01*
X0077006Y0098493D01*
X0077107Y0098393D01*
X0077449Y0098196D01*
X0077830Y0098093D01*
X0078657Y0098093D01*
X0078657Y0102546D01*
X0078658Y0102546D01*
X0078658Y0098093D01*
X0079485Y0098093D01*
X0079866Y0098196D01*
X0080208Y0098393D01*
X0080309Y0098493D01*
X0082912Y0098493D01*
X0083012Y0098393D01*
X0083354Y0098196D01*
X0083736Y0098093D01*
X0084563Y0098093D01*
X0085390Y0098093D01*
X0085772Y0098196D01*
X0086114Y0098393D01*
X0086214Y0098493D01*
X0086900Y0098493D01*
X0086900Y0095233D01*
X0086617Y0094950D01*
X0067287Y0094950D01*
X0066327Y0095910D02*
X0086900Y0095910D01*
X0086900Y0096909D02*
X0065328Y0096909D01*
X0064330Y0097907D02*
X0086900Y0097907D01*
X0084563Y0098093D02*
X0084563Y0102546D01*
X0084563Y0102546D01*
X0084563Y0098093D01*
X0084563Y0098906D02*
X0084563Y0098906D01*
X0084563Y0099904D02*
X0084563Y0099904D01*
X0084563Y0100903D02*
X0084563Y0100903D01*
X0084563Y0101901D02*
X0084563Y0101901D01*
X0084563Y0102546D02*
X0084563Y0106999D01*
X0084563Y0102546D01*
X0084563Y0102546D01*
X0084563Y0102900D02*
X0084563Y0102900D01*
X0084563Y0103898D02*
X0084563Y0103898D01*
X0084563Y0104897D02*
X0084563Y0104897D01*
X0084563Y0105895D02*
X0084563Y0105895D01*
X0084563Y0106894D02*
X0084563Y0106894D01*
X0084563Y0106999D02*
X0083736Y0106999D01*
X0083354Y0106897D01*
X0083012Y0106699D01*
X0082912Y0106599D01*
X0080309Y0106599D01*
X0080208Y0106699D01*
X0079866Y0106897D01*
X0079485Y0106999D01*
X0078658Y0106999D01*
X0078658Y0102546D01*
X0078657Y0102546D01*
X0078657Y0106999D01*
X0078289Y0106999D01*
X0078289Y0107121D01*
X0078809Y0107641D01*
X0079187Y0108555D01*
X0079187Y0109545D01*
X0078809Y0110459D01*
X0078109Y0111159D01*
X0077195Y0111537D01*
X0076205Y0111537D01*
X0075291Y0111159D01*
X0074591Y0110459D01*
X0074213Y0109545D01*
X0074213Y0108555D01*
X0074591Y0107641D01*
X0075089Y0107143D01*
X0075089Y0106999D01*
X0074721Y0106999D01*
X0074721Y0102546D01*
X0074720Y0102546D01*
X0074720Y0106999D01*
X0073893Y0106999D01*
X0073512Y0106897D01*
X0073170Y0106699D01*
X0073069Y0106599D01*
X0062533Y0106599D01*
X0061944Y0106010D01*
X0059200Y0108754D01*
X0058204Y0109750D01*
X0058053Y0109750D01*
X0058053Y0111325D01*
X0057539Y0111838D01*
X0057874Y0112031D01*
X0058153Y0112310D01*
X0058351Y0112652D01*
X0058453Y0113034D01*
X0058453Y0115290D01*
X0054500Y0115290D01*
X0054500Y0116290D01*
X0058453Y0116290D01*
X0058453Y0118547D01*
X0058351Y0118928D01*
X0058153Y0119270D01*
X0057874Y0119549D01*
X0057532Y0119747D01*
X0057150Y0119849D01*
X0054500Y0119849D01*
X0054500Y0116290D01*
X0053500Y0116290D01*
X0053500Y0115290D01*
X0049547Y0115290D01*
X0049547Y0113034D01*
X0049649Y0112652D01*
X0049847Y0112310D01*
X0050126Y0112031D01*
X0050461Y0111838D01*
X0049947Y0111325D01*
X0049947Y0109750D01*
X0049796Y0109750D01*
X0047800Y0107754D01*
X0047800Y0102346D01*
X0049300Y0100846D01*
X0050296Y0099850D01*
X0051918Y0099850D01*
X0052883Y0099450D01*
X0053210Y0099450D01*
X0056779Y0098062D01*
X0053854Y0098062D01*
X0053472Y0097960D01*
X0053130Y0097762D01*
X0052851Y0097483D01*
X0052653Y0097141D01*
X0052551Y0096759D01*
X0052551Y0095432D01*
X0056874Y0095432D01*
X0056874Y0095172D01*
X0052551Y0095172D01*
X0052551Y0093845D01*
X0052653Y0093463D01*
X0052851Y0093121D01*
X0052951Y0093021D01*
X0052951Y0086330D01*
X0043442Y0086330D01*
X0043376Y0086396D01*
X0042497Y0087274D01*
X0039461Y0087274D01*
X0038877Y0087859D01*
X0034422Y0087859D01*
X0034226Y0087662D01*
X0034038Y0087850D01*
X0032962Y0087850D01*
X0032774Y0087662D01*
X0032578Y0087859D01*
X0028123Y0087859D01*
X0027916Y0087652D01*
X0027709Y0087859D01*
X0026795Y0088237D01*
X0025805Y0088237D01*
X0024891Y0087859D01*
X0024191Y0087159D01*
X0023813Y0086245D01*
X0023813Y0085255D01*
X0023917Y0085004D01*
X0023595Y0085137D01*
X0022605Y0085137D01*
X0021691Y0084759D01*
X0020991Y0084059D01*
X0020613Y0083145D01*
X0020613Y0082155D01*
X0020991Y0081241D01*
X0021257Y0080975D01*
X0020196Y0080975D01*
X0013621Y0087550D01*
X0010250Y0087550D01*
X0010250Y0088080D01*
X0009605Y0088725D01*
X0003000Y0088725D01*
X0003000Y0092050D01*
X0007000Y0092050D01*
X0007000Y0095550D01*
X0008000Y0095550D01*
X0008000Y0096550D01*
X0007000Y0096550D01*
X0007000Y0100050D01*
X0003000Y0100050D01*
X0003000Y0102450D01*
X0012956Y0102450D01*
X0013600Y0103094D01*
X0013600Y0103350D01*
X0018164Y0103350D01*
X0018729Y0102785D01*
X0023578Y0102785D01*
X0024222Y0103429D01*
X0024222Y0108671D01*
X0023578Y0109315D01*
X0018729Y0109315D01*
X0018164Y0108750D01*
X0013600Y0108750D01*
X0013600Y0109006D01*
X0012956Y0109650D01*
X0010960Y0109650D01*
X0010960Y0113497D01*
X0011275Y0113497D01*
X0011788Y0114011D01*
X0011981Y0113676D01*
X0012260Y0113397D01*
X0012602Y0113199D01*
X0012984Y0113097D01*
X0015240Y0113097D01*
X0015240Y0117050D01*
X0016240Y0117050D01*
X0016240Y0113097D01*
X0018497Y0113097D01*
X0018878Y0113199D01*
X0019220Y0113397D01*
X0019499Y0113676D01*
X0019697Y0114018D01*
X0019799Y0114400D01*
X0019799Y0117050D01*
X0016240Y0117050D01*
X0016240Y0118050D01*
X0015240Y0118050D01*
X0015240Y0122003D01*
X0012984Y0122003D01*
X0012602Y0121901D01*
X0012260Y0121703D01*
X0011981Y0121424D01*
X0011788Y0121089D01*
X0011275Y0121603D01*
X0005245Y0121603D01*
X0004601Y0120958D01*
X0004601Y0114142D01*
X0005245Y0113497D01*
X0005560Y0113497D01*
X0005560Y0109650D01*
X0003000Y0109650D01*
X0003000Y0121429D01*
X0004621Y0123050D01*
X0079100Y0123050D01*
X0079100Y0115944D01*
X0079744Y0115300D01*
X0081000Y0115300D01*
X0081000Y0110929D01*
X0081879Y0110050D01*
X0083379Y0108550D01*
X0090379Y0108550D01*
X0090937Y0107992D01*
X0090937Y0106599D01*
X0086214Y0106599D01*
X0086114Y0106699D01*
X0085772Y0106897D01*
X0085390Y0106999D01*
X0084563Y0106999D01*
X0085777Y0106894D02*
X0090937Y0106894D01*
X0090937Y0107892D02*
X0078913Y0107892D01*
X0078657Y0106894D02*
X0078658Y0106894D01*
X0078657Y0105895D02*
X0078658Y0105895D01*
X0078657Y0104897D02*
X0078658Y0104897D01*
X0078657Y0103898D02*
X0078658Y0103898D01*
X0078657Y0102900D02*
X0078658Y0102900D01*
X0078657Y0101901D02*
X0078658Y0101901D01*
X0078657Y0100903D02*
X0078658Y0100903D01*
X0078657Y0099904D02*
X0078658Y0099904D01*
X0078657Y0098906D02*
X0078658Y0098906D01*
X0074721Y0098906D02*
X0074720Y0098906D01*
X0074720Y0099904D02*
X0074721Y0099904D01*
X0074720Y0100903D02*
X0074721Y0100903D01*
X0074720Y0101901D02*
X0074721Y0101901D01*
X0074720Y0102900D02*
X0074721Y0102900D01*
X0074720Y0103898D02*
X0074721Y0103898D01*
X0074720Y0104897D02*
X0074721Y0104897D01*
X0074720Y0105895D02*
X0074721Y0105895D01*
X0074720Y0106894D02*
X0074721Y0106894D01*
X0074487Y0107892D02*
X0060062Y0107892D01*
X0061060Y0106894D02*
X0073507Y0106894D01*
X0074213Y0108891D02*
X0059063Y0108891D01*
X0058053Y0109889D02*
X0074355Y0109889D01*
X0075020Y0110888D02*
X0058053Y0110888D01*
X0057623Y0111886D02*
X0081000Y0111886D01*
X0081000Y0112885D02*
X0058413Y0112885D01*
X0058453Y0113883D02*
X0081000Y0113883D01*
X0081000Y0114882D02*
X0058453Y0114882D01*
X0058453Y0116879D02*
X0079100Y0116879D01*
X0079100Y0117877D02*
X0058453Y0117877D01*
X0058365Y0118876D02*
X0079100Y0118876D01*
X0079100Y0119874D02*
X0019799Y0119874D01*
X0019799Y0120700D02*
X0019697Y0121082D01*
X0019499Y0121424D01*
X0019220Y0121703D01*
X0018878Y0121901D01*
X0018497Y0122003D01*
X0016240Y0122003D01*
X0016240Y0118050D01*
X0019799Y0118050D01*
X0019799Y0120700D01*
X0019753Y0120873D02*
X0079100Y0120873D01*
X0079100Y0121871D02*
X0018929Y0121871D01*
X0016240Y0121871D02*
X0015240Y0121871D01*
X0015240Y0120873D02*
X0016240Y0120873D01*
X0016240Y0119874D02*
X0015240Y0119874D01*
X0015240Y0118876D02*
X0016240Y0118876D01*
X0016240Y0117877D02*
X0032047Y0117877D01*
X0032047Y0118047D02*
X0032047Y0115790D01*
X0036000Y0115790D01*
X0036000Y0114790D01*
X0032047Y0114790D01*
X0032047Y0112534D01*
X0032149Y0112152D01*
X0032347Y0111810D01*
X0032626Y0111531D01*
X0032961Y0111338D01*
X0032447Y0110825D01*
X0032447Y0108750D01*
X0030836Y0108750D01*
X0030271Y0109315D01*
X0025422Y0109315D01*
X0024778Y0108671D01*
X0024778Y0103429D01*
X0025422Y0102785D01*
X0030271Y0102785D01*
X0030836Y0103350D01*
X0033900Y0103350D01*
X0033900Y0094387D01*
X0034286Y0094001D01*
X0034372Y0093794D01*
X0035244Y0092922D01*
X0035451Y0092836D01*
X0035837Y0092450D01*
X0044163Y0092450D01*
X0044663Y0092950D01*
X0045600Y0093887D01*
X0045600Y0096713D01*
X0045214Y0097099D01*
X0045128Y0097306D01*
X0044256Y0098178D01*
X0044049Y0098264D01*
X0040100Y0102213D01*
X0040100Y0104342D01*
X0040553Y0104795D01*
X0040553Y0110825D01*
X0040039Y0111338D01*
X0040374Y0111531D01*
X0040653Y0111810D01*
X0040851Y0112152D01*
X0040953Y0112534D01*
X0040953Y0114790D01*
X0037000Y0114790D01*
X0037000Y0115790D01*
X0040953Y0115790D01*
X0040953Y0118047D01*
X0040851Y0118428D01*
X0040653Y0118770D01*
X0040374Y0119049D01*
X0040032Y0119247D01*
X0039650Y0119349D01*
X0037000Y0119349D01*
X0037000Y0115790D01*
X0036000Y0115790D01*
X0036000Y0119349D01*
X0033350Y0119349D01*
X0032968Y0119247D01*
X0032626Y0119049D01*
X0032347Y0118770D01*
X0032149Y0118428D01*
X0032047Y0118047D01*
X0032453Y0118876D02*
X0019799Y0118876D01*
X0019799Y0116879D02*
X0032047Y0116879D01*
X0032047Y0115880D02*
X0019799Y0115880D01*
X0019799Y0114882D02*
X0036000Y0114882D01*
X0036000Y0115880D02*
X0037000Y0115880D01*
X0037000Y0114882D02*
X0049547Y0114882D01*
X0049547Y0113883D02*
X0040953Y0113883D01*
X0040953Y0112885D02*
X0049587Y0112885D01*
X0050377Y0111886D02*
X0040697Y0111886D01*
X0040490Y0110888D02*
X0049947Y0110888D01*
X0049947Y0109889D02*
X0040553Y0109889D01*
X0040553Y0108891D02*
X0048937Y0108891D01*
X0047938Y0107892D02*
X0040553Y0107892D01*
X0040553Y0106894D02*
X0047800Y0106894D01*
X0047800Y0105895D02*
X0040553Y0105895D01*
X0040553Y0104897D02*
X0047800Y0104897D01*
X0047800Y0103898D02*
X0040100Y0103898D01*
X0040100Y0102900D02*
X0047800Y0102900D01*
X0048245Y0101901D02*
X0040412Y0101901D01*
X0041410Y0100903D02*
X0049243Y0100903D01*
X0050242Y0099904D02*
X0042409Y0099904D01*
X0043407Y0098906D02*
X0054610Y0098906D01*
X0053381Y0097907D02*
X0044527Y0097907D01*
X0045404Y0096909D02*
X0052591Y0096909D01*
X0052551Y0095910D02*
X0045600Y0095910D01*
X0045600Y0094912D02*
X0052551Y0094912D01*
X0052551Y0093913D02*
X0045600Y0093913D01*
X0044627Y0092915D02*
X0052951Y0092915D01*
X0052951Y0091916D02*
X0003000Y0091916D01*
X0003000Y0090918D02*
X0052951Y0090918D01*
X0052951Y0089919D02*
X0003000Y0089919D01*
X0003000Y0088920D02*
X0052951Y0088920D01*
X0052951Y0087922D02*
X0027556Y0087922D01*
X0025044Y0087922D02*
X0010250Y0087922D01*
X0014248Y0086923D02*
X0024094Y0086923D01*
X0023813Y0085925D02*
X0015246Y0085925D01*
X0016245Y0084926D02*
X0022096Y0084926D01*
X0020937Y0083928D02*
X0017243Y0083928D01*
X0018242Y0082929D02*
X0020613Y0082929D01*
X0020705Y0081931D02*
X0019240Y0081931D01*
X0013421Y0092350D02*
X0013700Y0092629D01*
X0013898Y0092971D01*
X0014000Y0093353D01*
X0014000Y0095550D01*
X0008000Y0095550D01*
X0008000Y0092050D01*
X0012697Y0092050D01*
X0013079Y0092152D01*
X0013421Y0092350D01*
X0013865Y0092915D02*
X0035262Y0092915D01*
X0034323Y0093913D02*
X0014000Y0093913D01*
X0014000Y0094912D02*
X0033900Y0094912D01*
X0033900Y0095910D02*
X0008000Y0095910D01*
X0008000Y0096550D02*
X0014000Y0096550D01*
X0014000Y0098747D01*
X0013898Y0099129D01*
X0013700Y0099471D01*
X0013421Y0099750D01*
X0013079Y0099948D01*
X0012697Y0100050D01*
X0008000Y0100050D01*
X0008000Y0096550D01*
X0008000Y0096909D02*
X0007000Y0096909D01*
X0007000Y0097907D02*
X0008000Y0097907D01*
X0008000Y0098906D02*
X0007000Y0098906D01*
X0007000Y0099904D02*
X0008000Y0099904D01*
X0003000Y0100903D02*
X0033900Y0100903D01*
X0033900Y0101901D02*
X0003000Y0101901D01*
X0013155Y0099904D02*
X0033900Y0099904D01*
X0033900Y0098906D02*
X0013958Y0098906D01*
X0014000Y0097907D02*
X0033900Y0097907D01*
X0033900Y0096909D02*
X0014000Y0096909D01*
X0008000Y0094912D02*
X0007000Y0094912D01*
X0007000Y0093913D02*
X0008000Y0093913D01*
X0008000Y0092915D02*
X0007000Y0092915D01*
X0013405Y0102900D02*
X0018614Y0102900D01*
X0023693Y0102900D02*
X0025307Y0102900D01*
X0024778Y0103898D02*
X0024222Y0103898D01*
X0024222Y0104897D02*
X0024778Y0104897D01*
X0024778Y0105895D02*
X0024222Y0105895D01*
X0024222Y0106894D02*
X0024778Y0106894D01*
X0024778Y0107892D02*
X0024222Y0107892D01*
X0024002Y0108891D02*
X0024998Y0108891D01*
X0030695Y0108891D02*
X0032447Y0108891D01*
X0032447Y0109889D02*
X0010960Y0109889D01*
X0010960Y0110888D02*
X0032510Y0110888D01*
X0032303Y0111886D02*
X0010960Y0111886D01*
X0010960Y0112885D02*
X0032047Y0112885D01*
X0032047Y0113883D02*
X0019619Y0113883D01*
X0016240Y0113883D02*
X0015240Y0113883D01*
X0015240Y0114882D02*
X0016240Y0114882D01*
X0016240Y0115880D02*
X0015240Y0115880D01*
X0015240Y0116879D02*
X0016240Y0116879D01*
X0011861Y0113883D02*
X0011661Y0113883D01*
X0005560Y0112885D02*
X0003000Y0112885D01*
X0003000Y0113883D02*
X0004859Y0113883D01*
X0004601Y0114882D02*
X0003000Y0114882D01*
X0003000Y0115880D02*
X0004601Y0115880D01*
X0004601Y0116879D02*
X0003000Y0116879D01*
X0003000Y0117877D02*
X0004601Y0117877D01*
X0004601Y0118876D02*
X0003000Y0118876D01*
X0003000Y0119874D02*
X0004601Y0119874D01*
X0004601Y0120873D02*
X0003000Y0120873D01*
X0003443Y0121871D02*
X0012552Y0121871D01*
X0004441Y0122870D02*
X0079100Y0122870D01*
X0079164Y0115880D02*
X0054500Y0115880D01*
X0054500Y0116879D02*
X0053500Y0116879D01*
X0053500Y0116290D02*
X0053500Y0119849D01*
X0050850Y0119849D01*
X0050468Y0119747D01*
X0050126Y0119549D01*
X0049847Y0119270D01*
X0049649Y0118928D01*
X0049547Y0118547D01*
X0049547Y0116290D01*
X0053500Y0116290D01*
X0053500Y0115880D02*
X0040953Y0115880D01*
X0040953Y0116879D02*
X0049547Y0116879D01*
X0049547Y0117877D02*
X0040953Y0117877D01*
X0040547Y0118876D02*
X0049635Y0118876D01*
X0053500Y0118876D02*
X0054500Y0118876D01*
X0054500Y0117877D02*
X0053500Y0117877D01*
X0037000Y0117877D02*
X0036000Y0117877D01*
X0036000Y0116879D02*
X0037000Y0116879D01*
X0037000Y0118876D02*
X0036000Y0118876D01*
X0018305Y0108891D02*
X0013600Y0108891D01*
X0005560Y0109889D02*
X0003000Y0109889D01*
X0003000Y0110888D02*
X0005560Y0110888D01*
X0005560Y0111886D02*
X0003000Y0111886D01*
X0030386Y0102900D02*
X0033900Y0102900D01*
X0035500Y0101550D02*
X0036000Y0102050D01*
X0038000Y0102050D01*
X0044000Y0096050D01*
X0044000Y0094550D01*
X0043500Y0094050D01*
X0036500Y0094050D01*
X0035500Y0095050D01*
X0035500Y0101550D01*
X0035851Y0101901D02*
X0038149Y0101901D01*
X0039147Y0100903D02*
X0035500Y0100903D01*
X0035500Y0099904D02*
X0040146Y0099904D01*
X0041144Y0098906D02*
X0035500Y0098906D01*
X0035500Y0097907D02*
X0042143Y0097907D01*
X0043141Y0096909D02*
X0035500Y0096909D01*
X0035500Y0095910D02*
X0044000Y0095910D01*
X0044000Y0094912D02*
X0035638Y0094912D01*
X0042848Y0086923D02*
X0052951Y0086923D01*
X0061057Y0086923D02*
X0064600Y0086923D01*
X0064600Y0085925D02*
X0061057Y0085925D01*
X0061057Y0084926D02*
X0064600Y0084926D01*
X0064600Y0083928D02*
X0061057Y0083928D01*
X0061057Y0082929D02*
X0064600Y0082929D01*
X0064600Y0081931D02*
X0061400Y0081931D01*
X0062594Y0076956D02*
X0057004Y0076956D01*
X0057004Y0076955D02*
X0057004Y0074987D01*
X0062437Y0074987D01*
X0063500Y0076050D01*
X0062594Y0076956D01*
X0057004Y0076955D02*
X0057004Y0076955D01*
X0057004Y0074987D01*
X0057004Y0074987D01*
X0057004Y0075940D02*
X0057004Y0075940D01*
X0057004Y0076938D02*
X0057004Y0076938D01*
X0043376Y0086396D02*
X0043376Y0086396D01*
X0061057Y0087922D02*
X0064600Y0087922D01*
X0064600Y0088920D02*
X0061057Y0088920D01*
X0061057Y0089919D02*
X0064600Y0089919D01*
X0064600Y0090918D02*
X0061057Y0090918D01*
X0061057Y0091916D02*
X0064600Y0091916D01*
X0063948Y0092915D02*
X0061057Y0092915D01*
X0061457Y0093913D02*
X0062950Y0093913D01*
X0061951Y0094912D02*
X0061457Y0094912D01*
X0076689Y0102546D02*
X0076689Y0108861D01*
X0076700Y0109050D01*
X0079045Y0109889D02*
X0082039Y0109889D01*
X0081041Y0110888D02*
X0078380Y0110888D01*
X0079187Y0108891D02*
X0083038Y0108891D01*
X0083349Y0106894D02*
X0079871Y0106894D01*
X0084621Y0111550D02*
X0084000Y0112171D01*
X0084000Y0115300D01*
X0085179Y0115300D01*
X0085279Y0115200D01*
X0085621Y0115002D01*
X0086003Y0114900D01*
X0088000Y0114900D01*
X0088000Y0119050D01*
X0089000Y0119050D01*
X0089000Y0114900D01*
X0090997Y0114900D01*
X0091379Y0115002D01*
X0091721Y0115200D01*
X0091821Y0115300D01*
X0092906Y0115300D01*
X0092906Y0110266D01*
X0092500Y0110671D01*
X0091621Y0111550D01*
X0084621Y0111550D01*
X0084285Y0111886D02*
X0092906Y0111886D01*
X0092906Y0110888D02*
X0092284Y0110888D01*
X0092906Y0112885D02*
X0084000Y0112885D01*
X0084000Y0113883D02*
X0092906Y0113883D01*
X0092906Y0114882D02*
X0084000Y0114882D01*
X0088000Y0115880D02*
X0089000Y0115880D01*
X0089000Y0116879D02*
X0088000Y0116879D01*
X0088000Y0117877D02*
X0089000Y0117877D01*
X0089000Y0118876D02*
X0088000Y0118876D01*
X0095905Y0112885D02*
X0111963Y0112885D01*
X0110965Y0111886D02*
X0095905Y0111886D01*
X0095905Y0110888D02*
X0102320Y0110888D01*
X0101655Y0109889D02*
X0095905Y0109889D01*
X0095905Y0108891D02*
X0101513Y0108891D01*
X0101787Y0107892D02*
X0095905Y0107892D01*
X0095905Y0106894D02*
X0102648Y0106894D01*
X0104248Y0108802D02*
X0104000Y0109050D01*
X0104248Y0108802D02*
X0104248Y0102546D01*
X0106216Y0102900D02*
X0106217Y0102900D01*
X0106216Y0103898D02*
X0106217Y0103898D01*
X0106216Y0104897D02*
X0106217Y0104897D01*
X0106216Y0105895D02*
X0106217Y0105895D01*
X0106216Y0106894D02*
X0106217Y0106894D01*
X0106213Y0107892D02*
X0106971Y0107892D01*
X0106487Y0108891D02*
X0107969Y0108891D01*
X0108968Y0109889D02*
X0106345Y0109889D01*
X0105680Y0110888D02*
X0109966Y0110888D01*
X0106217Y0101901D02*
X0106216Y0101901D01*
X0106216Y0100903D02*
X0106217Y0100903D01*
X0106216Y0099904D02*
X0106217Y0099904D01*
X0106216Y0098906D02*
X0106217Y0098906D01*
X0113512Y0091916D02*
X0115943Y0091916D01*
X0115943Y0090918D02*
X0114511Y0090918D01*
X0114889Y0089919D02*
X0115943Y0089919D01*
X0115943Y0088920D02*
X0114889Y0088920D01*
X0114250Y0087922D02*
X0115943Y0087922D01*
X0115943Y0086923D02*
X0114000Y0086923D01*
X0114000Y0085925D02*
X0115943Y0085925D01*
X0115943Y0084926D02*
X0114000Y0084926D01*
X0114000Y0083928D02*
X0115943Y0083928D01*
X0115943Y0082929D02*
X0114000Y0082929D01*
X0114000Y0081931D02*
X0115943Y0081931D01*
X0115943Y0080932D02*
X0114000Y0080932D01*
X0114000Y0079934D02*
X0115943Y0079934D01*
X0115943Y0078935D02*
X0114000Y0078935D01*
X0114000Y0077937D02*
X0115943Y0077937D01*
X0134268Y0090735D02*
X0136500Y0090735D01*
X0137736Y0091916D02*
X0137736Y0093204D01*
X0134358Y0093204D01*
X0134358Y0093385D01*
X0137736Y0093385D01*
X0137736Y0092915D02*
X0141666Y0092915D01*
X0140781Y0089919D02*
X0142645Y0089919D01*
X0142125Y0088920D02*
X0164664Y0088920D01*
X0164664Y0089919D02*
X0145355Y0089919D01*
X0142487Y0087922D02*
X0164354Y0087922D01*
X0164264Y0086923D02*
X0142433Y0086923D01*
X0141893Y0085925D02*
X0164287Y0085925D01*
X0167732Y0088767D02*
X0178283Y0088767D01*
X0188500Y0078550D01*
X0188400Y0073943D02*
X0187870Y0073943D01*
X0177353Y0079934D02*
X0170801Y0079934D01*
X0170801Y0080932D02*
X0176355Y0080932D01*
X0175356Y0081931D02*
X0171163Y0081931D01*
X0171201Y0082929D02*
X0174358Y0082929D01*
X0178429Y0092915D02*
X0178513Y0092915D01*
X0178487Y0093913D02*
X0178665Y0093913D01*
X0178128Y0094912D02*
X0179344Y0094912D01*
X0187500Y0102900D02*
X0188595Y0102900D01*
X0138107Y0085925D02*
X0137336Y0085925D01*
X0137336Y0086923D02*
X0137567Y0086923D01*
X0134268Y0090735D02*
X0134268Y0090735D01*
X0134268Y0092826D01*
X0134358Y0092826D01*
X0134358Y0093203D01*
X0134177Y0093203D01*
X0134177Y0092826D01*
X0134268Y0092826D01*
X0134268Y0090735D01*
X0134268Y0090918D02*
X0134268Y0090918D01*
X0134268Y0091916D02*
X0134268Y0091916D01*
X0134177Y0092915D02*
X0134358Y0092915D01*
X0134358Y0093913D02*
X0134177Y0093913D01*
X0134177Y0094912D02*
X0134358Y0094912D01*
X0134358Y0095910D02*
X0134177Y0095910D01*
X0120500Y0097907D02*
X0090100Y0097907D01*
X0088500Y0102546D02*
X0088500Y0093050D01*
X0184500Y0036050D02*
X0194500Y0036050D01*
X0162085Y0028011D02*
X0158299Y0028011D01*
X0158299Y0027013D02*
X0162085Y0027013D01*
X0162085Y0026014D02*
X0154740Y0026014D01*
X0154740Y0027013D02*
X0154400Y0027013D01*
X0154294Y0028011D02*
X0154740Y0028011D01*
X0158299Y0025016D02*
X0162085Y0025016D01*
X0162085Y0024017D02*
X0158299Y0024017D01*
X0158299Y0023019D02*
X0161706Y0023019D01*
X0160708Y0022020D02*
X0158197Y0022020D01*
X0160761Y0011037D02*
X0162085Y0011037D01*
X0162085Y0010038D02*
X0160761Y0010038D01*
D33*
X0171500Y0048550D03*
X0179000Y0048550D03*
X0186500Y0048550D03*
X0174000Y0055550D03*
X0166500Y0058050D03*
X0166500Y0064550D03*
X0186500Y0059050D03*
X0189100Y0084450D03*
X0196500Y0084350D03*
X0184200Y0089650D03*
X0186200Y0096150D03*
X0171400Y0097850D03*
X0171500Y0102450D03*
X0171500Y0109450D03*
X0159000Y0108550D03*
X0159000Y0114050D03*
X0059000Y0102550D03*
X0053500Y0102550D03*
X0042500Y0095550D03*
X0037000Y0095550D03*
X0037000Y0100550D03*
X0027700Y0095650D03*
X0020200Y0095750D03*
X0027700Y0089850D03*
X0037000Y0090050D03*
X0008500Y0090550D03*
X0024000Y0051950D03*
X0017400Y0044450D03*
X0021700Y0031850D03*
X0006400Y0031950D03*
X0011400Y0007050D03*
X0024100Y0006950D03*
X0071200Y0012850D03*
X0088300Y0005050D03*
D34*
X0076000Y0008050D03*
X0072600Y0018350D03*
X0081500Y0034050D03*
X0086500Y0045550D03*
X0067500Y0050050D03*
X0064000Y0047050D03*
X0076000Y0058550D03*
X0101000Y0058550D03*
X0110500Y0062050D03*
X0125500Y0067113D03*
X0125500Y0073050D03*
X0141500Y0074550D03*
X0148000Y0082050D03*
X0140000Y0087550D03*
X0144000Y0092050D03*
X0148000Y0088850D03*
X0173500Y0080350D03*
X0188500Y0078550D03*
X0188500Y0071050D03*
X0188500Y0063550D03*
X0166500Y0037050D03*
X0191500Y0027050D03*
X0139400Y0017050D03*
X0133500Y0012050D03*
X0121500Y0012050D03*
X0104100Y0015850D03*
X0099100Y0012250D03*
X0119500Y0042550D03*
X0106500Y0047050D03*
X0063500Y0076050D03*
X0076000Y0083550D03*
X0063500Y0091050D03*
X0081500Y0096050D03*
X0076700Y0109050D03*
X0070500Y0109050D03*
X0070500Y0115550D03*
X0060500Y0109550D03*
X0045500Y0104550D03*
X0045500Y0099550D03*
X0026300Y0085750D03*
X0023100Y0082650D03*
X0014000Y0076050D03*
X0019000Y0072050D03*
X0034000Y0042050D03*
X0030000Y0039550D03*
X0026500Y0036050D03*
X0041800Y0034750D03*
X0098500Y0083550D03*
X0112500Y0095550D03*
X0121500Y0104550D03*
X0133700Y0115150D03*
X0117500Y0120050D03*
X0104000Y0109050D03*
X0099000Y0113050D03*
X0088500Y0113050D03*
X0042500Y0121750D03*
X0028500Y0120050D03*
X0014000Y0112050D03*
X0154000Y0114050D03*
X0165500Y0113550D03*
X0178700Y0113750D03*
X0195000Y0111550D03*
X0181000Y0093050D03*
X0176000Y0093550D03*
D35*
X0172500Y0070459D02*
X0167732Y0070459D01*
X0164000Y0070459D01*
D36*
X0171500Y0102450D02*
X0176900Y0105850D01*
X0175200Y0105950D01*
X0178100Y0105950D01*
X0176900Y0105850D02*
X0171700Y0109450D01*
X0171500Y0109450D01*
X0171500Y0102450D01*
X0159000Y0108550D02*
X0159000Y0114050D01*
X0165846Y0118550D02*
X0185760Y0118550D01*
X0139760Y0118550D02*
X0130500Y0118550D01*
X0059000Y0102550D02*
X0053500Y0102550D01*
X0042500Y0095550D02*
X0037000Y0095550D01*
X0037000Y0105550D01*
D37*
X0035594Y0106956D01*
X0036500Y0107810D01*
X0036500Y0106050D01*
X0027846Y0106050D01*
X0021154Y0106050D02*
X0009000Y0106050D01*
X0008260Y0106790D01*
X0008260Y0117550D01*
X0008094Y0106050D02*
X0007500Y0106050D01*
X0009000Y0106050D01*
X0147240Y0118550D02*
X0159154Y0118550D01*
X0159000Y0118396D01*
X0159000Y0114050D01*
X0184594Y0112050D02*
X0184594Y0108956D01*
X0187500Y0106050D01*
X0191500Y0106050D01*
X0191400Y0105950D01*
X0184100Y0105950D01*
X0191500Y0106050D02*
X0194500Y0106050D01*
X0184594Y0112050D02*
X0184594Y0117550D01*
X0185760Y0118550D01*
D38*
X0161500Y0082800D03*
X0161346Y0074300D03*
X0136000Y0065144D03*
X0110500Y0071050D03*
X0088500Y0093050D03*
X0066500Y0071050D03*
X0048500Y0076050D03*
X0046500Y0049650D03*
X0074700Y0031050D03*
X0090500Y0048550D03*
X0102300Y0031050D03*
X0127500Y0024550D03*
D39*
X0127642Y0024692D01*
X0130941Y0024692D01*
X0133500Y0024692D01*
X0133500Y0027550D01*
X0134500Y0028550D01*
X0138594Y0028550D01*
X0141594Y0025550D01*
X0146760Y0025550D01*
X0139583Y0065144D02*
X0136000Y0065144D01*
X0061500Y0098050D02*
X0052500Y0101550D01*
X0051000Y0101550D01*
X0049500Y0103050D01*
X0049500Y0107050D01*
X0050500Y0108050D01*
X0057500Y0108050D01*
X0060500Y0105050D01*
X0060500Y0103050D01*
X0061500Y0098050D01*
X0061284Y0099129D02*
X0058724Y0099129D01*
X0061044Y0100328D02*
X0055642Y0100328D01*
X0052561Y0101526D02*
X0060805Y0101526D01*
X0060565Y0102725D02*
X0049825Y0102725D01*
X0049500Y0103923D02*
X0060500Y0103923D01*
X0060428Y0105122D02*
X0049500Y0105122D01*
X0049500Y0106320D02*
X0059230Y0106320D01*
X0058031Y0107519D02*
X0049969Y0107519D01*
X0046500Y0049650D02*
X0033500Y0036650D01*
X0033500Y0023550D01*
D40*
X0038500Y0020550D02*
X0038500Y0031450D01*
X0041800Y0034750D01*
X0046700Y0039650D01*
X0046700Y0045250D01*
X0049900Y0048450D01*
X0049900Y0051450D01*
X0051783Y0053333D01*
X0057004Y0053333D01*
X0057004Y0051365D02*
X0061685Y0051365D01*
X0064000Y0049050D01*
X0064000Y0047050D01*
X0060500Y0043550D01*
X0060500Y0031550D01*
X0063500Y0028550D01*
X0066500Y0028550D01*
X0068500Y0026550D01*
X0068500Y0018550D01*
X0063500Y0013550D01*
X0058000Y0008050D02*
X0058000Y0045802D01*
X0057004Y0046798D01*
X0058000Y0046767D02*
X0055000Y0046767D01*
X0055000Y0047050D02*
X0058000Y0047050D01*
X0058000Y0043050D01*
X0055000Y0046050D01*
X0055000Y0047050D01*
X0055082Y0045968D02*
X0058000Y0045968D01*
X0058000Y0045170D02*
X0055880Y0045170D01*
X0056679Y0044371D02*
X0058000Y0044371D01*
X0058000Y0043573D02*
X0057477Y0043573D01*
X0057004Y0049396D02*
X0053346Y0049396D01*
X0048500Y0044550D01*
X0048500Y0010550D01*
X0046500Y0008550D01*
X0040500Y0008550D01*
X0038500Y0010550D01*
X0038500Y0016550D01*
X0036500Y0018550D01*
X0032000Y0018550D01*
X0027000Y0013550D01*
X0023500Y0013550D01*
X0033500Y0013550D02*
X0033500Y0007550D01*
X0035000Y0006050D01*
X0056000Y0006050D01*
X0058000Y0008050D01*
X0043500Y0013550D02*
X0043500Y0015550D01*
X0038500Y0020550D01*
X0034000Y0007050D02*
X0035000Y0006050D01*
X0072600Y0018350D02*
X0080100Y0010850D01*
X0093700Y0010850D01*
X0098000Y0006550D01*
X0176500Y0006550D01*
X0188500Y0018550D01*
X0194500Y0018550D01*
X0194500Y0011050D02*
X0187500Y0011050D01*
X0181000Y0004550D01*
X0097000Y0004550D01*
X0093500Y0008050D01*
X0076000Y0008050D01*
X0089000Y0017150D02*
X0092400Y0017150D01*
X0094100Y0018850D01*
X0094100Y0032650D01*
X0092437Y0034313D01*
X0092437Y0039554D01*
X0088500Y0039554D02*
X0088500Y0029250D01*
X0088900Y0029250D01*
X0089000Y0029150D01*
X0106217Y0033833D02*
X0109500Y0030550D01*
X0122000Y0030550D01*
X0128500Y0037050D01*
X0153000Y0037050D01*
X0162417Y0046467D01*
X0162417Y0065144D01*
X0159858Y0065144D02*
X0159858Y0046908D01*
X0152000Y0039050D01*
X0127500Y0039050D01*
X0121000Y0032550D01*
X0110500Y0032550D01*
X0108185Y0034865D01*
X0108185Y0039554D01*
X0106217Y0039554D02*
X0106217Y0033833D01*
X0110154Y0035896D02*
X0111500Y0034550D01*
X0120000Y0034550D01*
X0126500Y0041050D01*
X0151000Y0041050D01*
X0157890Y0047940D01*
X0157890Y0065144D01*
X0155921Y0065144D02*
X0155921Y0048971D01*
X0150000Y0043050D01*
X0125500Y0043050D01*
X0122004Y0039554D01*
X0112752Y0039554D01*
X0110154Y0039554D02*
X0110154Y0035896D01*
X0124000Y0046550D02*
X0125500Y0045050D01*
X0149000Y0045050D01*
X0153953Y0050003D01*
X0153953Y0065144D01*
X0151984Y0065144D02*
X0151984Y0051034D01*
X0148000Y0047050D01*
X0126500Y0047050D01*
X0124154Y0049396D01*
X0119996Y0049396D01*
X0119996Y0051365D02*
X0125185Y0051365D01*
X0127500Y0049050D01*
X0147000Y0049050D01*
X0150016Y0052066D01*
X0150016Y0065144D01*
X0148047Y0065144D02*
X0148047Y0053097D01*
X0146000Y0051050D01*
X0128500Y0051050D01*
X0126217Y0053333D01*
X0119996Y0053333D01*
X0119996Y0055302D02*
X0134252Y0055302D01*
X0136000Y0056050D01*
X0133000Y0061050D02*
X0129220Y0057270D01*
X0119996Y0057270D01*
X0119996Y0059239D02*
X0128189Y0059239D01*
X0130500Y0061550D01*
X0130500Y0072050D01*
X0131469Y0073019D01*
X0134268Y0073019D01*
X0134268Y0074987D02*
X0129937Y0074987D01*
X0128500Y0073550D01*
X0128500Y0062550D01*
X0127157Y0061207D01*
X0119996Y0061207D01*
X0119996Y0067113D02*
X0125500Y0067113D01*
X0123531Y0069081D02*
X0125500Y0071050D01*
X0125500Y0073050D01*
X0119996Y0073019D02*
X0114531Y0073019D01*
X0112500Y0075050D01*
X0112500Y0089550D01*
X0119996Y0088767D02*
X0127217Y0088767D01*
X0128500Y0090050D01*
X0128500Y0097050D01*
X0130059Y0098609D01*
X0139583Y0098609D01*
X0142142Y0098609D02*
X0142142Y0100908D01*
X0140500Y0102550D01*
X0130500Y0102550D01*
X0126500Y0098550D01*
X0126500Y0091550D01*
X0125685Y0090735D01*
X0119996Y0090735D01*
X0119996Y0092704D02*
X0123654Y0092704D01*
X0124500Y0093550D01*
X0124500Y0100050D01*
X0129000Y0104550D01*
X0141500Y0104550D01*
X0144110Y0101940D01*
X0144110Y0098609D01*
X0146079Y0098609D02*
X0146079Y0102971D01*
X0142500Y0106550D01*
X0128000Y0106550D01*
X0122000Y0100550D01*
X0122000Y0096050D01*
X0122500Y0095550D01*
X0120244Y0095550D01*
X0119996Y0095302D01*
X0112752Y0102546D02*
X0112752Y0105552D01*
X0115750Y0108550D01*
X0143250Y0108550D01*
X0148000Y0103800D01*
X0148000Y0098656D01*
X0148047Y0098609D01*
X0150016Y0098609D02*
X0150016Y0104784D01*
X0144500Y0110300D01*
X0114500Y0110300D01*
X0110154Y0105954D01*
X0110154Y0102546D01*
X0108185Y0102546D02*
X0108185Y0106985D01*
X0113500Y0112300D01*
X0145250Y0112300D01*
X0151984Y0105566D01*
X0151984Y0098609D01*
X0153953Y0098609D02*
X0153953Y0094003D01*
X0152000Y0092050D01*
X0144000Y0092050D01*
X0140000Y0087550D02*
X0138783Y0088767D01*
X0134268Y0088767D01*
X0134268Y0086798D02*
X0119996Y0086798D01*
X0119996Y0084830D02*
X0134268Y0084830D01*
X0134268Y0082861D02*
X0119996Y0082861D01*
X0119996Y0080893D02*
X0134268Y0080893D01*
X0134268Y0078924D02*
X0119996Y0078924D01*
X0119996Y0076956D02*
X0134268Y0076956D01*
X0134268Y0070459D02*
X0132909Y0070459D01*
X0133000Y0070550D01*
X0133000Y0068550D01*
X0134268Y0069818D01*
X0134268Y0070459D01*
X0134768Y0069318D01*
X0133000Y0067550D01*
X0133000Y0061050D01*
X0133000Y0067550D02*
X0133000Y0068550D01*
X0123531Y0069081D02*
X0119996Y0069081D01*
X0146079Y0071050D02*
X0146079Y0065144D01*
X0124000Y0046550D02*
X0120244Y0046550D01*
X0119996Y0046798D01*
X0156512Y0013050D02*
X0168012Y0013050D01*
X0168500Y0013538D01*
X0057004Y0055302D02*
X0047752Y0055302D01*
X0038776Y0046326D01*
X0036650Y0046326D01*
X0036650Y0049475D02*
X0038925Y0049475D01*
X0046720Y0057270D01*
X0057004Y0057270D01*
X0057004Y0059239D02*
X0045689Y0059239D01*
X0042224Y0055774D01*
X0036650Y0055774D01*
X0036768Y0061207D02*
X0036650Y0061326D01*
X0036768Y0061207D02*
X0057004Y0061207D01*
X0057004Y0063176D02*
X0043874Y0063176D01*
X0042575Y0064475D01*
X0036650Y0064475D01*
X0036650Y0067625D02*
X0043425Y0067625D01*
X0045906Y0065144D01*
X0057004Y0065144D01*
X0057004Y0067113D02*
X0046937Y0067113D01*
X0043276Y0070774D01*
X0036650Y0070774D01*
X0036925Y0076050D02*
X0036650Y0076326D01*
X0036925Y0076050D02*
X0040500Y0076050D01*
X0047469Y0069081D01*
X0057004Y0069081D01*
X0057004Y0073019D02*
X0047231Y0073019D01*
X0040800Y0079450D01*
X0036675Y0079450D01*
X0036650Y0079475D01*
X0036650Y0082625D02*
X0036886Y0082861D01*
X0057004Y0082861D01*
X0057004Y0084830D02*
X0042820Y0084830D01*
X0041876Y0085774D01*
X0036650Y0085774D01*
X0030350Y0085774D02*
X0030326Y0085750D01*
X0026300Y0085750D01*
X0023100Y0082650D02*
X0030325Y0082650D01*
X0030350Y0082625D01*
X0030350Y0079475D02*
X0019575Y0079475D01*
X0013000Y0086050D01*
X0006000Y0086050D01*
X0006000Y0081050D02*
X0014500Y0081050D01*
X0019224Y0076326D01*
X0030350Y0076326D01*
X0030326Y0076350D01*
X0030350Y0070774D02*
X0023224Y0070774D01*
X0018500Y0066050D01*
X0006000Y0066050D01*
X0006000Y0061050D02*
X0017000Y0061050D01*
X0023575Y0067625D01*
X0030350Y0067625D01*
X0030276Y0064550D02*
X0030350Y0064475D01*
X0030276Y0064550D02*
X0024000Y0064550D01*
X0015500Y0056050D01*
X0006000Y0056050D01*
X0006000Y0051050D02*
X0013500Y0051050D01*
X0023776Y0061326D01*
X0030350Y0061326D01*
X0030350Y0055774D02*
X0021724Y0055774D01*
X0012000Y0046050D01*
X0006000Y0046050D01*
X0026500Y0048050D02*
X0026500Y0036050D01*
X0030000Y0039550D02*
X0030000Y0045975D01*
X0030350Y0046326D01*
X0031418Y0045968D02*
X0029000Y0045968D01*
X0029000Y0045550D02*
X0029000Y0046550D01*
X0031500Y0046550D01*
X0031500Y0046050D01*
X0030000Y0044550D01*
X0029000Y0045550D01*
X0029380Y0045170D02*
X0030620Y0045170D01*
X0026500Y0048050D02*
X0027925Y0049475D01*
X0030350Y0049475D01*
X0007000Y0072050D02*
X0006000Y0071050D01*
X0007000Y0072050D02*
X0019000Y0072050D01*
X0014000Y0076050D02*
X0006000Y0076050D01*
X0082500Y0111550D02*
X0082500Y0119550D01*
X0082500Y0111550D02*
X0084000Y0110050D01*
X0091000Y0110050D01*
X0092437Y0108613D01*
X0092437Y0102546D01*
X0094406Y0102546D02*
X0094406Y0119456D01*
X0094500Y0119550D01*
X0155000Y0105550D02*
X0157500Y0105550D01*
X0159858Y0103192D01*
X0159858Y0098609D01*
X0162417Y0098609D02*
X0162417Y0102467D01*
X0164154Y0104204D01*
X0165500Y0104204D01*
X0165976Y0093550D02*
X0165476Y0093050D01*
X0167732Y0093294D01*
X0165976Y0093550D02*
X0176000Y0093550D01*
X0178685Y0090735D02*
X0181000Y0093050D01*
X0178685Y0090735D02*
X0167732Y0090735D01*
X0184594Y0112050D02*
X0184594Y0112850D01*
D41*
X0054594Y0106956D02*
X0053500Y0102550D01*
X0053406Y0103050D01*
X0054594Y0106956D02*
X0054000Y0108310D01*
D42*
X0059000Y0102550D02*
X0059000Y0100550D01*
X0066500Y0093050D01*
X0066500Y0071050D01*
X0066500Y0057550D01*
X0075500Y0048550D01*
X0090500Y0048550D01*
X0097500Y0071050D02*
X0088500Y0080050D01*
X0088500Y0093050D01*
X0069500Y0093050D01*
X0067500Y0091050D01*
X0067500Y0093050D01*
X0066500Y0093050D01*
X0067500Y0093050D02*
X0069500Y0093050D01*
X0067500Y0091050D02*
X0066500Y0090050D01*
X0097500Y0071050D02*
X0110500Y0071050D01*
D43*
X0112500Y0089550D03*
X0146079Y0071050D03*
X0155000Y0105550D03*
M02*
