G75*
%MOIN*%
%OFA0B0*%
%FSLAX25Y25*%
%IPPOS*%
%LPD*%
%AMOC8*
5,1,8,0,0,1.08239X$1,22.5*
%
%ADD10C,0.00000*%
%ADD11C,0.00500*%
%ADD12C,0.00600*%
%ADD13C,0.00400*%
D10*
X0001500Y0004550D02*
X0004000Y0002050D01*
X0198000Y0002050D01*
X0200500Y0004550D01*
X0200500Y0122050D01*
X0198000Y0124550D01*
X0004000Y0124550D01*
X0001500Y0122050D01*
X0001500Y0004550D01*
D11*
X0004650Y0014660D02*
X0007352Y0014660D01*
X0007352Y0016012D01*
X0006902Y0016462D01*
X0006001Y0016462D01*
X0005551Y0016012D01*
X0005551Y0014660D01*
X0005551Y0015561D02*
X0004650Y0016462D01*
X0004650Y0017607D02*
X0004650Y0019409D01*
X0004650Y0018508D02*
X0007352Y0018508D01*
X0006452Y0017607D01*
X0006902Y0020553D02*
X0005100Y0020553D01*
X0006902Y0022355D01*
X0005100Y0022355D01*
X0004650Y0021905D01*
X0004650Y0021004D01*
X0005100Y0020553D01*
X0006902Y0020553D02*
X0007352Y0021004D01*
X0007352Y0021905D01*
X0006902Y0022355D01*
X0040955Y0043600D02*
X0042757Y0043600D01*
X0041856Y0043600D02*
X0041856Y0046302D01*
X0042757Y0045402D01*
X0044803Y0046302D02*
X0044803Y0043600D01*
X0045703Y0043600D02*
X0043902Y0043600D01*
X0045703Y0045402D02*
X0044803Y0046302D01*
X0046848Y0045852D02*
X0046848Y0044951D01*
X0047299Y0044501D01*
X0048650Y0044501D01*
X0047749Y0044501D02*
X0046848Y0043600D01*
X0048650Y0043600D02*
X0048650Y0046302D01*
X0047299Y0046302D01*
X0046848Y0045852D01*
X0068950Y0043995D02*
X0068950Y0042193D01*
X0070752Y0043995D01*
X0071202Y0043995D01*
X0071652Y0043544D01*
X0071652Y0042643D01*
X0071202Y0042193D01*
X0071652Y0040147D02*
X0068950Y0040147D01*
X0068950Y0039247D02*
X0068950Y0041048D01*
X0070752Y0039247D02*
X0071652Y0040147D01*
X0071202Y0038102D02*
X0070301Y0038102D01*
X0069851Y0037651D01*
X0069851Y0036300D01*
X0069851Y0037201D02*
X0068950Y0038102D01*
X0068950Y0036300D02*
X0071652Y0036300D01*
X0071652Y0037651D01*
X0071202Y0038102D01*
X0076955Y0032002D02*
X0078757Y0032002D01*
X0078757Y0030651D01*
X0077856Y0031102D01*
X0077406Y0031102D01*
X0076955Y0030651D01*
X0076955Y0029750D01*
X0077406Y0029300D01*
X0078307Y0029300D01*
X0078757Y0029750D01*
X0079902Y0029300D02*
X0081703Y0029300D01*
X0080803Y0029300D02*
X0080803Y0032002D01*
X0081703Y0031102D01*
X0082848Y0031552D02*
X0083299Y0032002D01*
X0084200Y0032002D01*
X0084650Y0031552D01*
X0084650Y0029750D01*
X0084200Y0029300D01*
X0083299Y0029300D01*
X0082848Y0029750D01*
X0092255Y0030150D02*
X0092255Y0030601D01*
X0092706Y0031051D01*
X0094057Y0031051D01*
X0094057Y0030150D01*
X0093607Y0029700D01*
X0092706Y0029700D01*
X0092255Y0030150D01*
X0093156Y0031952D02*
X0094057Y0031051D01*
X0093156Y0031952D02*
X0092255Y0032402D01*
X0096103Y0032402D02*
X0096103Y0029700D01*
X0097003Y0029700D02*
X0095202Y0029700D01*
X0097003Y0031502D02*
X0096103Y0032402D01*
X0098148Y0031952D02*
X0098599Y0032402D01*
X0099500Y0032402D01*
X0099950Y0031952D01*
X0099950Y0030150D01*
X0099500Y0029700D01*
X0098599Y0029700D01*
X0098148Y0030150D01*
X0121150Y0020955D02*
X0121150Y0019153D01*
X0122952Y0020955D01*
X0123402Y0020955D01*
X0123852Y0020505D01*
X0123852Y0019604D01*
X0123402Y0019153D01*
X0123402Y0018009D02*
X0122952Y0018009D01*
X0122501Y0017558D01*
X0122051Y0018009D01*
X0121600Y0018009D01*
X0121150Y0017558D01*
X0121150Y0016657D01*
X0121600Y0016207D01*
X0121600Y0015062D02*
X0121150Y0014612D01*
X0121150Y0013711D01*
X0121600Y0013260D01*
X0123402Y0013260D01*
X0123852Y0013711D01*
X0123852Y0014612D01*
X0123402Y0015062D01*
X0123402Y0016207D02*
X0123852Y0016657D01*
X0123852Y0017558D01*
X0123402Y0018009D01*
X0122501Y0017558D02*
X0122501Y0017108D01*
X0130300Y0052460D02*
X0129850Y0052911D01*
X0129850Y0053812D01*
X0130300Y0054262D01*
X0129850Y0055407D02*
X0131652Y0057209D01*
X0132102Y0057209D01*
X0132552Y0056758D01*
X0132552Y0055857D01*
X0132102Y0055407D01*
X0132102Y0054262D02*
X0132552Y0053812D01*
X0132552Y0052911D01*
X0132102Y0052460D01*
X0130300Y0052460D01*
X0129850Y0055407D02*
X0129850Y0057209D01*
X0129850Y0058353D02*
X0129850Y0060155D01*
X0129850Y0059254D02*
X0132552Y0059254D01*
X0131652Y0058353D01*
X0146450Y0058804D02*
X0146900Y0058353D01*
X0148702Y0060155D01*
X0146900Y0060155D01*
X0146450Y0059705D01*
X0146450Y0058804D01*
X0146900Y0058353D02*
X0148702Y0058353D01*
X0149152Y0058804D01*
X0149152Y0059705D01*
X0148702Y0060155D01*
X0148702Y0057209D02*
X0149152Y0056758D01*
X0149152Y0055857D01*
X0148702Y0055407D01*
X0148702Y0054262D02*
X0149152Y0053812D01*
X0149152Y0052911D01*
X0148702Y0052460D01*
X0146900Y0052460D01*
X0146450Y0052911D01*
X0146450Y0053812D01*
X0146900Y0054262D01*
X0146450Y0055407D02*
X0148252Y0057209D01*
X0148702Y0057209D01*
X0146450Y0057209D02*
X0146450Y0055407D01*
X0154606Y0063600D02*
X0154155Y0064050D01*
X0154155Y0064501D01*
X0154606Y0064951D01*
X0155056Y0064951D01*
X0154606Y0064951D02*
X0154155Y0065402D01*
X0154155Y0065852D01*
X0154606Y0066302D01*
X0155507Y0066302D01*
X0155957Y0065852D01*
X0157102Y0065852D02*
X0157102Y0065402D01*
X0158903Y0063600D01*
X0157102Y0063600D01*
X0155957Y0064050D02*
X0155507Y0063600D01*
X0154606Y0063600D01*
X0157102Y0065852D02*
X0157552Y0066302D01*
X0158453Y0066302D01*
X0158903Y0065852D01*
X0160048Y0065852D02*
X0160499Y0066302D01*
X0161400Y0066302D01*
X0161850Y0065852D01*
X0161850Y0064050D01*
X0161400Y0063600D01*
X0160499Y0063600D01*
X0160048Y0064050D01*
X0170609Y0070250D02*
X0171059Y0069800D01*
X0171960Y0069800D01*
X0172410Y0070250D01*
X0173555Y0069800D02*
X0175357Y0069800D01*
X0173555Y0071602D01*
X0173555Y0072052D01*
X0174006Y0072502D01*
X0174907Y0072502D01*
X0175357Y0072052D01*
X0176502Y0072502D02*
X0176502Y0069800D01*
X0178303Y0072502D01*
X0178303Y0069800D01*
X0179448Y0069800D02*
X0180349Y0070701D01*
X0179899Y0070701D02*
X0181250Y0070701D01*
X0181250Y0069800D02*
X0181250Y0072502D01*
X0179899Y0072502D01*
X0179448Y0072052D01*
X0179448Y0071151D01*
X0179899Y0070701D01*
X0172410Y0072052D02*
X0171960Y0072502D01*
X0171059Y0072502D01*
X0170609Y0072052D01*
X0170609Y0071602D01*
X0171059Y0071151D01*
X0170609Y0070701D01*
X0170609Y0070250D01*
X0171059Y0071151D02*
X0171510Y0071151D01*
X0176706Y0079700D02*
X0177607Y0079700D01*
X0178057Y0080150D01*
X0178057Y0080601D01*
X0177607Y0081051D01*
X0176706Y0081051D01*
X0176255Y0080601D01*
X0176255Y0080150D01*
X0176706Y0079700D01*
X0179202Y0079700D02*
X0181003Y0079700D01*
X0179202Y0081502D01*
X0179202Y0081952D01*
X0179652Y0082402D01*
X0180553Y0082402D01*
X0181003Y0081952D01*
X0182148Y0081952D02*
X0182599Y0082402D01*
X0183500Y0082402D01*
X0183950Y0081952D01*
X0183950Y0080150D01*
X0183500Y0079700D01*
X0182599Y0079700D01*
X0182148Y0080150D01*
X0178057Y0081502D02*
X0178057Y0081952D01*
X0177607Y0082402D01*
X0176706Y0082402D01*
X0176255Y0081952D01*
X0176255Y0081502D01*
X0176706Y0081051D01*
X0177607Y0081051D02*
X0178057Y0081502D01*
X0178803Y0096300D02*
X0177002Y0096300D01*
X0175857Y0096300D02*
X0175857Y0096750D01*
X0174055Y0098552D01*
X0174055Y0099002D01*
X0175857Y0099002D01*
X0177002Y0098552D02*
X0177452Y0099002D01*
X0178353Y0099002D01*
X0178803Y0098552D01*
X0179948Y0098552D02*
X0180399Y0099002D01*
X0181300Y0099002D01*
X0181750Y0098552D01*
X0181750Y0096750D01*
X0181300Y0096300D01*
X0180399Y0096300D01*
X0179948Y0096750D01*
X0178803Y0096300D02*
X0177002Y0098102D01*
X0177002Y0098552D01*
X0161850Y0098752D02*
X0161850Y0096950D01*
X0161400Y0096500D01*
X0160499Y0096500D01*
X0160048Y0096950D01*
X0158903Y0096500D02*
X0157102Y0098302D01*
X0157102Y0098752D01*
X0157552Y0099202D01*
X0158453Y0099202D01*
X0158903Y0098752D01*
X0160048Y0098752D02*
X0160499Y0099202D01*
X0161400Y0099202D01*
X0161850Y0098752D01*
X0158903Y0096500D02*
X0157102Y0096500D01*
X0155957Y0096950D02*
X0155507Y0096500D01*
X0154606Y0096500D01*
X0154155Y0096950D01*
X0154155Y0097851D01*
X0154606Y0098302D01*
X0155056Y0098302D01*
X0155957Y0097851D01*
X0155957Y0099202D01*
X0154155Y0099202D01*
X0150450Y0109200D02*
X0150450Y0111902D01*
X0149099Y0111902D01*
X0148648Y0111452D01*
X0148648Y0110551D01*
X0149099Y0110101D01*
X0150450Y0110101D01*
X0149549Y0110101D02*
X0148648Y0109200D01*
X0147503Y0109200D02*
X0145702Y0111002D01*
X0145702Y0111452D01*
X0146152Y0111902D01*
X0147053Y0111902D01*
X0147503Y0111452D01*
X0144557Y0111002D02*
X0143656Y0111902D01*
X0143656Y0109200D01*
X0144557Y0109200D02*
X0142755Y0109200D01*
X0145702Y0109200D02*
X0147503Y0109200D01*
X0147753Y0087002D02*
X0148203Y0086552D01*
X0147753Y0087002D02*
X0146852Y0087002D01*
X0146402Y0086552D01*
X0146402Y0086102D01*
X0148203Y0084300D01*
X0146402Y0084300D01*
X0145257Y0085651D02*
X0143455Y0085651D01*
X0143906Y0084300D02*
X0143906Y0087002D01*
X0145257Y0085651D01*
X0149348Y0084750D02*
X0149799Y0084300D01*
X0150700Y0084300D01*
X0151150Y0084750D01*
X0151150Y0086552D01*
X0150700Y0087002D01*
X0149799Y0087002D01*
X0149348Y0086552D01*
X0149699Y0079602D02*
X0150600Y0079602D01*
X0151050Y0079152D01*
X0151050Y0077350D01*
X0150600Y0076900D01*
X0149699Y0076900D01*
X0149248Y0077350D01*
X0148103Y0076900D02*
X0146302Y0078702D01*
X0146302Y0079152D01*
X0146752Y0079602D01*
X0147653Y0079602D01*
X0148103Y0079152D01*
X0149248Y0079152D02*
X0149699Y0079602D01*
X0148103Y0076900D02*
X0146302Y0076900D01*
X0145157Y0076900D02*
X0143355Y0078702D01*
X0143355Y0079152D01*
X0143806Y0079602D01*
X0144707Y0079602D01*
X0145157Y0079152D01*
X0145157Y0076900D02*
X0143355Y0076900D01*
X0106552Y0076208D02*
X0105652Y0075307D01*
X0106102Y0074162D02*
X0106552Y0073712D01*
X0106552Y0072811D01*
X0106102Y0072360D01*
X0104300Y0072360D01*
X0103850Y0072811D01*
X0103850Y0073712D01*
X0104300Y0074162D01*
X0103850Y0075307D02*
X0103850Y0077109D01*
X0103850Y0076208D02*
X0106552Y0076208D01*
X0106102Y0078253D02*
X0106552Y0078704D01*
X0106552Y0079605D01*
X0106102Y0080055D01*
X0105652Y0080055D01*
X0103850Y0078253D01*
X0103850Y0080055D01*
X0084852Y0081511D02*
X0084402Y0081060D01*
X0082600Y0081060D01*
X0082150Y0081511D01*
X0082150Y0082412D01*
X0082600Y0082862D01*
X0082150Y0084007D02*
X0082150Y0085809D01*
X0082150Y0084908D02*
X0084852Y0084908D01*
X0083952Y0084007D01*
X0084402Y0082862D02*
X0084852Y0082412D01*
X0084852Y0081511D01*
X0084402Y0086953D02*
X0084852Y0087404D01*
X0084852Y0088305D01*
X0084402Y0088755D01*
X0083952Y0088755D01*
X0083501Y0088305D01*
X0083051Y0088755D01*
X0082600Y0088755D01*
X0082150Y0088305D01*
X0082150Y0087404D01*
X0082600Y0086953D01*
X0083501Y0087854D02*
X0083501Y0088305D01*
X0071552Y0095700D02*
X0071552Y0097502D01*
X0071552Y0098647D02*
X0071552Y0099998D01*
X0071102Y0100448D01*
X0070652Y0100448D01*
X0070201Y0099998D01*
X0070201Y0098647D01*
X0070201Y0099998D02*
X0069751Y0100448D01*
X0069300Y0100448D01*
X0068850Y0099998D01*
X0068850Y0098647D01*
X0071552Y0098647D01*
X0070201Y0096601D02*
X0070201Y0095700D01*
X0068850Y0095700D02*
X0071552Y0095700D01*
X0071102Y0101593D02*
X0071552Y0102043D01*
X0071552Y0102944D01*
X0071102Y0103395D01*
X0070652Y0103395D01*
X0070201Y0102944D01*
X0069751Y0103395D01*
X0069300Y0103395D01*
X0068850Y0102944D01*
X0068850Y0102043D01*
X0069300Y0101593D01*
X0070201Y0102494D02*
X0070201Y0102944D01*
X0060702Y0112660D02*
X0058900Y0112660D01*
X0058450Y0113111D01*
X0058450Y0114012D01*
X0058900Y0114462D01*
X0059801Y0115607D02*
X0059801Y0117409D01*
X0058450Y0116958D02*
X0061152Y0116958D01*
X0059801Y0115607D01*
X0060702Y0114462D02*
X0061152Y0114012D01*
X0061152Y0113111D01*
X0060702Y0112660D01*
X0060702Y0118553D02*
X0061152Y0119004D01*
X0061152Y0119905D01*
X0060702Y0120355D01*
X0060252Y0120355D01*
X0058450Y0118553D01*
X0058450Y0120355D01*
X0075755Y0120752D02*
X0075755Y0118950D01*
X0076206Y0118500D01*
X0077107Y0118500D01*
X0077557Y0118950D01*
X0077107Y0119851D02*
X0075755Y0119851D01*
X0075755Y0120752D02*
X0076206Y0121202D01*
X0077107Y0121202D01*
X0077557Y0120752D01*
X0077557Y0120302D01*
X0077107Y0119851D01*
X0078702Y0118500D02*
X0080503Y0118500D01*
X0079603Y0118500D02*
X0079603Y0121202D01*
X0080503Y0120302D01*
X0081648Y0120752D02*
X0082099Y0121202D01*
X0083000Y0121202D01*
X0083450Y0120752D01*
X0083450Y0118950D01*
X0083000Y0118500D01*
X0082099Y0118500D01*
X0081648Y0118950D01*
X0101355Y0118950D02*
X0101806Y0118500D01*
X0102707Y0118500D01*
X0103157Y0118950D01*
X0103157Y0119401D01*
X0102707Y0119851D01*
X0101806Y0119851D01*
X0101355Y0119401D01*
X0101355Y0118950D01*
X0101806Y0119851D02*
X0101355Y0120302D01*
X0101355Y0120752D01*
X0101806Y0121202D01*
X0102707Y0121202D01*
X0103157Y0120752D01*
X0103157Y0120302D01*
X0102707Y0119851D01*
X0104302Y0118500D02*
X0106103Y0118500D01*
X0105203Y0118500D02*
X0105203Y0121202D01*
X0106103Y0120302D01*
X0107248Y0120752D02*
X0107699Y0121202D01*
X0108600Y0121202D01*
X0109050Y0120752D01*
X0109050Y0118950D01*
X0108600Y0118500D01*
X0107699Y0118500D01*
X0107248Y0118950D01*
X0044650Y0081552D02*
X0044650Y0079750D01*
X0044200Y0079300D01*
X0043299Y0079300D01*
X0042848Y0079750D01*
X0041703Y0079300D02*
X0039902Y0079300D01*
X0040803Y0079300D02*
X0040803Y0082002D01*
X0041703Y0081102D01*
X0042848Y0081552D02*
X0043299Y0082002D01*
X0044200Y0082002D01*
X0044650Y0081552D01*
X0038757Y0080651D02*
X0036955Y0080651D01*
X0037406Y0079300D02*
X0037406Y0082002D01*
X0038757Y0080651D01*
X0068955Y0067152D02*
X0068955Y0065350D01*
X0069406Y0064900D01*
X0070307Y0064900D01*
X0070757Y0065350D01*
X0068955Y0067152D01*
X0069406Y0067602D01*
X0070307Y0067602D01*
X0070757Y0067152D01*
X0070757Y0065350D01*
X0071902Y0064900D02*
X0073703Y0064900D01*
X0072803Y0064900D02*
X0072803Y0067602D01*
X0073703Y0066702D01*
X0074848Y0067152D02*
X0075299Y0067602D01*
X0076200Y0067602D01*
X0076650Y0067152D01*
X0076650Y0065350D01*
X0076200Y0064900D01*
X0075299Y0064900D01*
X0074848Y0065350D01*
X0084350Y0059155D02*
X0084350Y0057353D01*
X0084350Y0058254D02*
X0087052Y0058254D01*
X0086152Y0057353D01*
X0084350Y0056209D02*
X0084350Y0054407D01*
X0084350Y0055308D02*
X0087052Y0055308D01*
X0086152Y0054407D01*
X0086602Y0053262D02*
X0087052Y0052812D01*
X0087052Y0051911D01*
X0086602Y0051460D01*
X0084800Y0051460D01*
X0084350Y0051911D01*
X0084350Y0052812D01*
X0084800Y0053262D01*
X0104050Y0052812D02*
X0104050Y0051911D01*
X0104500Y0051460D01*
X0106302Y0051460D01*
X0106752Y0051911D01*
X0106752Y0052812D01*
X0106302Y0053262D01*
X0105852Y0054407D02*
X0106752Y0055308D01*
X0104050Y0055308D01*
X0104050Y0054407D02*
X0104050Y0056209D01*
X0104050Y0057353D02*
X0104500Y0057353D01*
X0106302Y0059155D01*
X0106752Y0059155D01*
X0106752Y0057353D01*
X0104500Y0053262D02*
X0104050Y0052812D01*
X0031352Y0110111D02*
X0030902Y0109660D01*
X0029100Y0109660D01*
X0028650Y0110111D01*
X0028650Y0111012D01*
X0029100Y0111462D01*
X0030001Y0112607D02*
X0030001Y0114409D01*
X0030452Y0115553D02*
X0031352Y0116454D01*
X0028650Y0116454D01*
X0028650Y0115553D02*
X0028650Y0117355D01*
X0028650Y0113958D02*
X0031352Y0113958D01*
X0030001Y0112607D01*
X0030902Y0111462D02*
X0031352Y0111012D01*
X0031352Y0110111D01*
D12*
X0032938Y0115300D02*
X0032938Y0117800D01*
X0036063Y0117800D02*
X0036063Y0115300D01*
X0039200Y0116568D02*
X0042603Y0116568D01*
X0040901Y0114867D01*
X0040901Y0117135D01*
X0043902Y0118239D02*
X0044272Y0118239D01*
X0043902Y0118239D02*
X0043902Y0111861D01*
X0044272Y0111861D01*
X0042603Y0111184D02*
X0039767Y0111184D01*
X0039200Y0111751D01*
X0039200Y0112885D01*
X0039767Y0113452D01*
X0042603Y0113452D01*
X0047445Y0111861D02*
X0047815Y0111861D01*
X0051185Y0111861D02*
X0051555Y0111861D01*
X0054728Y0111861D02*
X0055098Y0111861D01*
X0055098Y0118239D01*
X0054728Y0118239D01*
X0051555Y0118239D02*
X0047445Y0118239D01*
X0062937Y0117800D02*
X0062937Y0115300D01*
X0066063Y0115300D02*
X0066063Y0117800D01*
X0078750Y0116612D02*
X0081250Y0116612D01*
X0081250Y0113487D02*
X0078750Y0113487D01*
X0066063Y0100300D02*
X0066063Y0097800D01*
X0062937Y0097800D02*
X0062937Y0100300D01*
X0086937Y0087300D02*
X0086937Y0084800D01*
X0090062Y0084800D02*
X0090062Y0087300D01*
X0108937Y0078800D02*
X0108937Y0076300D01*
X0112062Y0076300D02*
X0112062Y0078800D01*
X0134438Y0058300D02*
X0134438Y0055800D01*
X0137563Y0055800D02*
X0137563Y0058300D01*
X0141938Y0058300D02*
X0141938Y0055800D01*
X0145063Y0055800D02*
X0145063Y0058300D01*
X0156750Y0068988D02*
X0159250Y0068988D01*
X0159250Y0072113D02*
X0156750Y0072113D01*
X0156750Y0076488D02*
X0159250Y0076488D01*
X0159250Y0079613D02*
X0156750Y0079613D01*
X0156750Y0083988D02*
X0159250Y0083988D01*
X0159250Y0087112D02*
X0156750Y0087112D01*
X0156750Y0091487D02*
X0159250Y0091487D01*
X0159250Y0094612D02*
X0156750Y0094612D01*
X0168750Y0094612D02*
X0171250Y0094612D01*
X0171250Y0091487D02*
X0168750Y0091487D01*
X0168750Y0087112D02*
X0171250Y0087112D01*
X0171250Y0083988D02*
X0168750Y0083988D01*
X0148250Y0103987D02*
X0145750Y0103987D01*
X0145750Y0107112D02*
X0148250Y0107112D01*
X0108750Y0113487D02*
X0106250Y0113487D01*
X0106250Y0116612D02*
X0108750Y0116612D01*
X0042250Y0077613D02*
X0039750Y0077613D01*
X0039750Y0074488D02*
X0042250Y0074488D01*
X0072250Y0072613D02*
X0074750Y0072613D01*
X0074750Y0069488D02*
X0072250Y0069488D01*
X0088937Y0057300D02*
X0088937Y0054800D01*
X0092062Y0054800D02*
X0092062Y0057300D01*
X0108937Y0057300D02*
X0108937Y0054800D01*
X0112062Y0054800D02*
X0112062Y0057300D01*
X0100250Y0027612D02*
X0097750Y0027612D01*
X0097750Y0024487D02*
X0100250Y0024487D01*
X0079750Y0024487D02*
X0077250Y0024487D01*
X0077250Y0027612D02*
X0079750Y0027612D01*
X0065563Y0038800D02*
X0065563Y0041300D01*
X0062437Y0041300D02*
X0062437Y0038800D01*
X0046250Y0037988D02*
X0043750Y0037988D01*
X0043750Y0041113D02*
X0046250Y0041113D01*
X0013062Y0020800D02*
X0013062Y0018300D01*
X0009938Y0018300D02*
X0009938Y0020800D01*
X0125937Y0019800D02*
X0125937Y0017300D01*
X0129062Y0017300D02*
X0129062Y0019800D01*
X0140217Y0008753D02*
X0139649Y0008186D01*
X0139649Y0005917D01*
X0140217Y0005350D01*
X0141351Y0005350D01*
X0141918Y0005917D01*
X0141351Y0007051D02*
X0139649Y0007051D01*
X0141351Y0007051D02*
X0141918Y0007619D01*
X0141918Y0008186D01*
X0141351Y0008753D01*
X0140217Y0008753D01*
X0144467Y0008753D02*
X0144467Y0005350D01*
X0145601Y0005350D02*
X0143333Y0005350D01*
X0145601Y0007619D02*
X0144467Y0008753D01*
X0147016Y0008186D02*
X0147016Y0007619D01*
X0149284Y0005350D01*
X0147016Y0005350D01*
X0147016Y0008186D02*
X0147583Y0008753D01*
X0148717Y0008753D01*
X0149284Y0008186D01*
X0151833Y0008753D02*
X0151833Y0005350D01*
X0152967Y0005350D02*
X0150699Y0005350D01*
X0152967Y0007619D02*
X0151833Y0008753D01*
X0154382Y0008753D02*
X0154382Y0008186D01*
X0156651Y0005917D01*
X0156651Y0005350D01*
X0158065Y0005350D02*
X0160334Y0005350D01*
X0159199Y0005350D02*
X0159199Y0008753D01*
X0160334Y0007619D01*
X0161748Y0008186D02*
X0161748Y0005917D01*
X0162315Y0005350D01*
X0163450Y0005350D01*
X0164017Y0005917D01*
X0161748Y0008186D01*
X0162315Y0008753D01*
X0163450Y0008753D01*
X0164017Y0008186D01*
X0164017Y0005917D01*
X0165431Y0005350D02*
X0167700Y0005350D01*
X0165431Y0007619D01*
X0165431Y0008186D01*
X0165999Y0008753D01*
X0167133Y0008753D01*
X0167700Y0008186D01*
X0169115Y0004783D02*
X0171383Y0004783D01*
X0172798Y0005350D02*
X0175066Y0005350D01*
X0172798Y0007619D01*
X0172798Y0008186D01*
X0173365Y0008753D01*
X0174499Y0008753D01*
X0175066Y0008186D01*
X0176481Y0008186D02*
X0176481Y0007619D01*
X0177048Y0007051D01*
X0178749Y0007051D01*
X0180164Y0007051D02*
X0181298Y0007051D01*
X0180164Y0007051D02*
X0180164Y0005917D01*
X0180731Y0005350D01*
X0181865Y0005350D01*
X0182433Y0005917D01*
X0182433Y0008186D01*
X0181865Y0008753D01*
X0180731Y0008753D01*
X0180164Y0008186D01*
X0178749Y0008753D02*
X0177048Y0008753D01*
X0176481Y0008186D01*
X0177048Y0007051D02*
X0176481Y0006484D01*
X0176481Y0005917D01*
X0177048Y0005350D01*
X0178749Y0005350D01*
X0178749Y0008753D01*
X0183847Y0008186D02*
X0183847Y0007051D01*
X0184414Y0006484D01*
X0186116Y0006484D01*
X0186116Y0005350D02*
X0186116Y0008753D01*
X0184414Y0008753D01*
X0183847Y0008186D01*
X0184981Y0006484D02*
X0183847Y0005350D01*
X0187530Y0007051D02*
X0189799Y0007051D01*
X0188097Y0008753D01*
X0188097Y0005350D01*
X0191213Y0005917D02*
X0191213Y0006484D01*
X0191781Y0007051D01*
X0193482Y0007051D01*
X0193482Y0005917D01*
X0192915Y0005350D01*
X0191781Y0005350D01*
X0191213Y0005917D01*
X0193482Y0007051D02*
X0192348Y0008186D01*
X0191213Y0008753D01*
X0194897Y0008753D02*
X0194897Y0005350D01*
X0197165Y0008753D01*
X0197165Y0005350D01*
X0156651Y0008753D02*
X0154382Y0008753D01*
D13*
X0169898Y0060597D02*
X0169898Y0066503D01*
X0182102Y0066503D02*
X0182102Y0060597D01*
M02*
