%
M48
M72
T01C0.0138
T02C0.0157
T03C0.0197
T04C0.0394
%
T01
X15500Y10555
X11250Y8955
X14608Y7105
T02
X2850Y12005
X7050Y10905
X7050Y11555
X8850Y11305
X4250Y12175
X6050Y10955
X6350Y7605
X6350Y9105
X8150Y9605
X11250Y9555
X3400Y4205
X12150Y10455
X14150Y7455
X14800Y8205
X14800Y8885
X15400Y11405
X19500Y11155
X6750Y5005
X8650Y4555
X8150Y3405
X10410Y1585
X9910Y1225
X13350Y1205
X12150Y1205
X16650Y3705
X19150Y2705
X9900Y11305
X13370Y11515
X7600Y5855
X11950Y4255
X10650Y4705
X7600Y8355
X9850Y8355
X10100Y5855
X13940Y1705
X1400Y11205
X16550Y11355
X11750Y12005
X17870Y11375
X4550Y10455
X4550Y9955
X17350Y8035
X11050Y6205
X10400Y10905
X7670Y10905
X7470Y3105
X10230Y3105
X4850Y7605
X4650Y4965
X6400Y4705
X4180Y3475
X11050Y7105
X8850Y9305
X9050Y4855
X6650Y7105
X18850Y7855
X18850Y7105
X18850Y6355
X13600Y6514
X16150Y8280
X16135Y7430
X12750Y2455
X18100Y9305
X17600Y9355
X7260Y1835
X3000Y3955
X7600Y805
X2650Y3605
X1400Y7605
X2630Y8575
X1900Y7205
X2310Y8265
X14400Y9205
X12550Y7305
X14000Y8755
X12550Y6711
T03
X2770Y9565
X2020Y9575
X2770Y8985
X850Y9055
X3700Y9005
X17400Y5555
X17150Y4855
X17900Y4855
X18650Y5905
X18650Y4855
X16650Y5805
X16650Y6455
X19650Y8435
X18910Y8445
X18420Y8965
X18620Y9615
X17140Y9785
X8830Y505
X2400Y5195
X2170Y3185
X1740Y4445
X2410Y695
X640Y3195
X1140Y705
X7120Y1285
X3700Y9555
X3700Y10055
X17150Y10245
X17150Y10945
X4250Y9555
X5350Y10255
X5900Y10255
X15900Y11405
X15900Y10855
T04
X2350Y1355
X2350Y2355
X3350Y1355
X3350Y2355
X4350Y1355
X4350Y2355
X5350Y1355
X5350Y2355
X6350Y1355
X6350Y2355
M30
