%
M48
M72
T01C0.0138
T02C0.0157
T03C0.0197
T04C0.0394
%
T01
X15500Y10605
T02
X2850Y12055
X7050Y10955
X7050Y11605
X8850Y11355
X4250Y12225
X6050Y11005
X6350Y7655
X6350Y9155
X8150Y9655
X11250Y9605
X8850Y7155
X12150Y10505
X11250Y7755
X13800Y8355
X14550Y8355
X13830Y9135
X14550Y9135
X15400Y11455
X19500Y11205
X6750Y4805
X8650Y4605
X8150Y3455
X10410Y1635
X9910Y1275
X13350Y1255
X12150Y1255
X16650Y3755
X19150Y2755
X9900Y11355
X13370Y11565
X7600Y5905
X11950Y4305
X10900Y5005
X7600Y8405
X10100Y8405
X10100Y5905
X13940Y1755
X1400Y11255
X16550Y11405
X11750Y12055
X17770Y11375
X4550Y10505
X4550Y10005
X11050Y6355
X10400Y10955
X7670Y10955
X7470Y3155
X10230Y3155
X4850Y7655
X4650Y5015
X8190Y1955
X10900Y7155
X8850Y9355
X9050Y4905
X6650Y7155
X18850Y7905
X18850Y7155
X18850Y6405
X13385Y6555
X15900Y8330
X15885Y7480
X12750Y2505
X17850Y9355
X17350Y9405
X7010Y1135
X2850Y4155
X9350Y505
X1750Y4655
X1400Y7655
X2630Y8625
X1900Y7255
X2310Y8315
T03
X2770Y9615
X2020Y9625
X2770Y9035
X850Y9105
X3700Y9055
X17400Y5605
X17150Y4905
X17900Y4905
X18650Y5955
X18650Y4905
X16650Y5855
X16650Y6505
X19650Y8635
X18910Y8495
X18170Y9015
X18570Y9515
X17140Y9835
X8780Y805
X3400Y4245
X2420Y3385
X2340Y4395
X1410Y3245
X640Y3245
X640Y1005
X3700Y9605
X3700Y10105
X17150Y10295
X17150Y10995
X4250Y9605
X5350Y10305
X5900Y10305
X15900Y11455
X15900Y10905
T04
X2350Y1405
X2350Y2405
X3350Y1405
X3350Y2405
X4350Y1405
X4350Y2405
X5350Y1405
X5350Y2405
X6350Y1405
X6350Y2405
M30
