G75*
%MOIN*%
%OFA0B0*%
%FSLAX25Y25*%
%IPPOS*%
%LPD*%
%AMOC8*
5,1,8,0,0,1.08239X$1,22.5*
%
%ADD10C,0.00000*%
%ADD11C,0.00500*%
%ADD12C,0.00600*%
%ADD13C,0.01200*%
%ADD14C,0.00800*%
%ADD15C,0.00787*%
%ADD16C,0.00400*%
%ADD17C,0.01000*%
%ADD18C,0.00300*%
%ADD19R,0.04133X0.01182*%
%ADD20R,0.04133X0.01181*%
%ADD21R,0.01182X0.04133*%
%ADD22R,0.01181X0.04133*%
D10*
X0001500Y0004550D02*
X0004000Y0002050D01*
X0198000Y0002050D01*
X0200500Y0004550D01*
X0200500Y0122050D01*
X0198000Y0124550D01*
X0004000Y0124550D01*
X0001500Y0122050D01*
X0001500Y0004550D01*
D11*
X0040848Y0046200D02*
X0040848Y0047551D01*
X0041298Y0048002D01*
X0042199Y0048002D01*
X0042649Y0047551D01*
X0042649Y0046200D01*
X0042649Y0047101D02*
X0043550Y0048002D01*
X0043550Y0049147D02*
X0040848Y0049147D01*
X0043550Y0050948D01*
X0040848Y0050948D01*
X0041748Y0052093D02*
X0040848Y0052994D01*
X0043550Y0052994D01*
X0043550Y0052093D02*
X0043550Y0053895D01*
X0043100Y0055040D02*
X0041298Y0055040D01*
X0040848Y0055490D01*
X0040848Y0056391D01*
X0041298Y0056841D01*
X0043100Y0055040D01*
X0043550Y0055490D01*
X0043550Y0056391D01*
X0043100Y0056841D01*
X0041298Y0056841D01*
X0040948Y0061200D02*
X0040948Y0062551D01*
X0041398Y0063002D01*
X0042299Y0063002D01*
X0042749Y0062551D01*
X0042749Y0061200D01*
X0042749Y0062101D02*
X0043650Y0063002D01*
X0043650Y0064147D02*
X0040948Y0064147D01*
X0043650Y0065948D01*
X0040948Y0065948D01*
X0041848Y0067093D02*
X0040948Y0067994D01*
X0043650Y0067994D01*
X0043650Y0067093D02*
X0043650Y0068895D01*
X0043650Y0070040D02*
X0043650Y0071841D01*
X0043650Y0070940D02*
X0040948Y0070940D01*
X0041848Y0070040D01*
X0041048Y0076000D02*
X0041048Y0077351D01*
X0041498Y0077802D01*
X0042399Y0077802D01*
X0042849Y0077351D01*
X0042849Y0076000D01*
X0042849Y0076901D02*
X0043750Y0077802D01*
X0043750Y0078947D02*
X0041048Y0078947D01*
X0043750Y0080748D01*
X0041048Y0080748D01*
X0041948Y0081893D02*
X0041048Y0082794D01*
X0043750Y0082794D01*
X0043750Y0081893D02*
X0043750Y0083695D01*
X0043750Y0084840D02*
X0041948Y0086641D01*
X0041498Y0086641D01*
X0041048Y0086191D01*
X0041048Y0085290D01*
X0041498Y0084840D01*
X0043750Y0084840D02*
X0043750Y0086641D01*
X0043750Y0076000D02*
X0041048Y0076000D01*
X0022891Y0083800D02*
X0021540Y0085151D01*
X0021090Y0084701D02*
X0022891Y0086502D01*
X0021090Y0086502D02*
X0021090Y0083800D01*
X0019945Y0083800D02*
X0018143Y0083800D01*
X0018143Y0086502D01*
X0016998Y0086052D02*
X0016548Y0086502D01*
X0015647Y0086502D01*
X0015197Y0086052D01*
X0015197Y0084250D01*
X0015647Y0083800D01*
X0016548Y0083800D01*
X0016998Y0084250D01*
X0016548Y0081502D02*
X0015197Y0081502D01*
X0015197Y0078800D01*
X0016548Y0078800D01*
X0016998Y0079250D01*
X0016998Y0081052D01*
X0016548Y0081502D01*
X0018143Y0081052D02*
X0018143Y0080602D01*
X0018593Y0080151D01*
X0019494Y0080151D01*
X0019945Y0079701D01*
X0019945Y0079250D01*
X0019494Y0078800D01*
X0018593Y0078800D01*
X0018143Y0079250D01*
X0018143Y0081052D02*
X0018593Y0081502D01*
X0019494Y0081502D01*
X0019945Y0081052D01*
X0014052Y0081502D02*
X0012250Y0078800D01*
X0012250Y0083800D02*
X0014052Y0086502D01*
X0013949Y0070021D02*
X0013499Y0069571D01*
X0013499Y0068220D01*
X0014400Y0068220D01*
X0014850Y0068670D01*
X0014850Y0069571D01*
X0014400Y0070021D01*
X0013949Y0070021D01*
X0012598Y0069121D02*
X0013499Y0068220D01*
X0012598Y0069121D02*
X0012148Y0070021D01*
X0012598Y0067075D02*
X0012148Y0066624D01*
X0012148Y0065273D01*
X0014850Y0065273D01*
X0014850Y0066624D01*
X0014400Y0067075D01*
X0012598Y0067075D01*
X0013499Y0064128D02*
X0013499Y0062327D01*
X0012598Y0061182D02*
X0014400Y0061182D01*
X0014850Y0060731D01*
X0014850Y0059831D01*
X0014400Y0059380D01*
X0012598Y0061182D01*
X0012148Y0060731D01*
X0012148Y0059831D01*
X0012598Y0059380D01*
X0014400Y0059380D01*
X0014400Y0058235D02*
X0012598Y0058235D01*
X0012148Y0057785D01*
X0012148Y0056434D01*
X0014850Y0056434D01*
X0014850Y0057785D01*
X0014400Y0058235D01*
X0040948Y0061200D02*
X0043650Y0061200D01*
X0043550Y0046200D02*
X0040848Y0046200D01*
X0078984Y0068456D02*
X0079984Y0068456D01*
X0080484Y0069456D01*
X0082484Y0069456D01*
X0082984Y0068456D01*
X0087484Y0068456D01*
X0087484Y0072707D01*
X0088984Y0072707D01*
X0090984Y0072707D01*
X0090984Y0071707D01*
X0088984Y0071707D01*
X0088984Y0072707D01*
X0088984Y0073707D01*
X0093232Y0073707D01*
X0092984Y0072707D02*
X0092232Y0072707D01*
X0092232Y0071707D01*
X0092984Y0071707D01*
X0093028Y0071709D01*
X0093071Y0071715D01*
X0093113Y0071724D01*
X0093155Y0071737D01*
X0093195Y0071754D01*
X0093234Y0071774D01*
X0093271Y0071797D01*
X0093305Y0071824D01*
X0093338Y0071853D01*
X0093367Y0071886D01*
X0093394Y0071920D01*
X0093417Y0071957D01*
X0093437Y0071996D01*
X0093454Y0072036D01*
X0093467Y0072078D01*
X0093476Y0072120D01*
X0093482Y0072163D01*
X0093484Y0072207D01*
X0093482Y0072251D01*
X0093476Y0072294D01*
X0093467Y0072336D01*
X0093454Y0072378D01*
X0093437Y0072418D01*
X0093417Y0072457D01*
X0093394Y0072494D01*
X0093367Y0072528D01*
X0093338Y0072561D01*
X0093305Y0072590D01*
X0093271Y0072617D01*
X0093234Y0072640D01*
X0093195Y0072660D01*
X0093155Y0072677D01*
X0093113Y0072690D01*
X0093071Y0072699D01*
X0093028Y0072705D01*
X0092984Y0072707D01*
X0093233Y0073708D02*
X0093309Y0073699D01*
X0093386Y0073687D01*
X0093461Y0073671D01*
X0093536Y0073651D01*
X0093609Y0073627D01*
X0093682Y0073600D01*
X0093752Y0073569D01*
X0093821Y0073534D01*
X0093889Y0073496D01*
X0093954Y0073455D01*
X0094017Y0073410D01*
X0094077Y0073362D01*
X0094136Y0073311D01*
X0094191Y0073258D01*
X0094244Y0073201D01*
X0094293Y0073142D01*
X0094340Y0073080D01*
X0094383Y0073017D01*
X0094424Y0072951D01*
X0094460Y0072883D01*
X0094494Y0072813D01*
X0094523Y0072742D01*
X0094549Y0072669D01*
X0094571Y0072595D01*
X0094590Y0072520D01*
X0094604Y0072444D01*
X0094615Y0072367D01*
X0094622Y0072290D01*
X0094625Y0072213D01*
X0094624Y0072136D01*
X0094619Y0072059D01*
X0094610Y0071982D01*
X0094597Y0071906D01*
X0094581Y0071831D01*
X0094560Y0071756D01*
X0094536Y0071683D01*
X0094508Y0071611D01*
X0094477Y0071540D01*
X0094441Y0071471D01*
X0094403Y0071404D01*
X0094361Y0071340D01*
X0094316Y0071277D01*
X0094268Y0071217D01*
X0094216Y0071159D01*
X0094162Y0071104D01*
X0094105Y0071051D01*
X0094046Y0071002D01*
X0093984Y0070956D01*
X0093984Y0070958D02*
X0094035Y0070933D01*
X0094085Y0070903D01*
X0094132Y0070871D01*
X0094178Y0070836D01*
X0094221Y0070798D01*
X0094262Y0070757D01*
X0094300Y0070714D01*
X0094335Y0070669D01*
X0094367Y0070621D01*
X0094396Y0070571D01*
X0094421Y0070520D01*
X0094444Y0070467D01*
X0094462Y0070412D01*
X0094478Y0070357D01*
X0094490Y0070300D01*
X0094498Y0070243D01*
X0094502Y0070186D01*
X0094503Y0070129D01*
X0094500Y0070071D01*
X0094493Y0070014D01*
X0094483Y0069957D01*
X0094484Y0070207D02*
X0095984Y0073707D01*
X0096984Y0073707D01*
X0098984Y0068456D01*
X0097984Y0068456D01*
X0097484Y0069456D01*
X0095484Y0069456D01*
X0094984Y0068456D01*
X0093232Y0068456D01*
X0093232Y0070207D01*
X0093230Y0070251D01*
X0093224Y0070294D01*
X0093215Y0070336D01*
X0093202Y0070378D01*
X0093185Y0070418D01*
X0093165Y0070457D01*
X0093142Y0070494D01*
X0093115Y0070528D01*
X0093086Y0070561D01*
X0093053Y0070590D01*
X0093019Y0070617D01*
X0092982Y0070640D01*
X0092943Y0070660D01*
X0092903Y0070677D01*
X0092861Y0070690D01*
X0092819Y0070699D01*
X0092776Y0070705D01*
X0092732Y0070707D01*
X0092232Y0070707D01*
X0092232Y0068456D01*
X0087732Y0068456D01*
X0086484Y0069456D02*
X0086484Y0072707D01*
X0084732Y0072707D01*
X0084732Y0069456D01*
X0086484Y0069456D01*
X0088984Y0069707D02*
X0088984Y0070707D01*
X0090984Y0070707D01*
X0090984Y0069707D01*
X0088984Y0069707D01*
X0084732Y0072707D02*
X0084732Y0073707D01*
X0088984Y0073707D01*
X0084732Y0073707D02*
X0083732Y0073707D01*
X0083732Y0069456D01*
X0081984Y0073707D01*
X0080984Y0073707D01*
X0078984Y0068456D01*
X0080732Y0070456D02*
X0082232Y0070456D01*
X0081484Y0072707D01*
X0080732Y0070456D01*
X0095732Y0070456D02*
X0096484Y0072707D01*
X0097232Y0070456D01*
X0095732Y0070456D01*
X0131150Y0039002D02*
X0132501Y0039002D01*
X0132952Y0038552D01*
X0132952Y0037651D01*
X0132501Y0037201D01*
X0131150Y0037201D01*
X0132051Y0037201D02*
X0132952Y0036300D01*
X0134097Y0036300D02*
X0135898Y0036300D01*
X0134997Y0036300D02*
X0134997Y0039002D01*
X0134097Y0038102D01*
X0137043Y0038552D02*
X0137493Y0039002D01*
X0138394Y0039002D01*
X0138845Y0038552D01*
X0138845Y0038102D01*
X0138394Y0037651D01*
X0138845Y0037201D01*
X0138845Y0036750D01*
X0138394Y0036300D01*
X0137493Y0036300D01*
X0137043Y0036750D01*
X0137944Y0037651D02*
X0138394Y0037651D01*
X0131150Y0036300D02*
X0131150Y0039002D01*
X0122944Y0029402D02*
X0122944Y0026700D01*
X0122043Y0026700D02*
X0123845Y0026700D01*
X0122043Y0028502D02*
X0122944Y0029402D01*
X0120898Y0028952D02*
X0120898Y0028502D01*
X0120448Y0028051D01*
X0120898Y0027601D01*
X0120898Y0027150D01*
X0120448Y0026700D01*
X0119547Y0026700D01*
X0119097Y0027150D01*
X0117952Y0026700D02*
X0117051Y0027601D01*
X0117501Y0027601D02*
X0116150Y0027601D01*
X0116150Y0026700D02*
X0116150Y0029402D01*
X0117501Y0029402D01*
X0117952Y0028952D01*
X0117952Y0028051D01*
X0117501Y0027601D01*
X0119097Y0028952D02*
X0119547Y0029402D01*
X0120448Y0029402D01*
X0120898Y0028952D01*
X0120448Y0028051D02*
X0119997Y0028051D01*
X0111645Y0028502D02*
X0109843Y0026700D01*
X0111645Y0026700D01*
X0108698Y0027150D02*
X0108248Y0026700D01*
X0107347Y0026700D01*
X0106897Y0027150D01*
X0105752Y0026700D02*
X0104851Y0027601D01*
X0105301Y0027601D02*
X0103950Y0027601D01*
X0103950Y0026700D02*
X0103950Y0029402D01*
X0105301Y0029402D01*
X0105752Y0028952D01*
X0105752Y0028051D01*
X0105301Y0027601D01*
X0106897Y0028952D02*
X0107347Y0029402D01*
X0108248Y0029402D01*
X0108698Y0028952D01*
X0108698Y0028502D01*
X0108248Y0028051D01*
X0108698Y0027601D01*
X0108698Y0027150D01*
X0108248Y0028051D02*
X0107797Y0028051D01*
X0109843Y0028952D02*
X0110293Y0029402D01*
X0111194Y0029402D01*
X0111645Y0028952D01*
X0111645Y0028502D01*
X0146750Y0030250D02*
X0147200Y0029800D01*
X0148101Y0029800D01*
X0148552Y0030250D01*
X0149697Y0030250D02*
X0150147Y0029800D01*
X0151048Y0029800D01*
X0151498Y0030250D01*
X0151498Y0030701D01*
X0151048Y0031151D01*
X0150597Y0031151D01*
X0151048Y0031151D02*
X0151498Y0031602D01*
X0151498Y0032052D01*
X0151048Y0032502D01*
X0150147Y0032502D01*
X0149697Y0032052D01*
X0148552Y0032052D02*
X0148101Y0032502D01*
X0147200Y0032502D01*
X0146750Y0032052D01*
X0146750Y0030250D01*
X0152643Y0029800D02*
X0154445Y0029800D01*
X0153544Y0029800D02*
X0153544Y0032502D01*
X0152643Y0031602D01*
X0165350Y0031952D02*
X0165350Y0030150D01*
X0165800Y0029700D01*
X0166701Y0029700D01*
X0167152Y0030150D01*
X0168297Y0030150D02*
X0168747Y0029700D01*
X0169648Y0029700D01*
X0170098Y0030150D01*
X0170098Y0030601D01*
X0169648Y0031051D01*
X0169197Y0031051D01*
X0169648Y0031051D02*
X0170098Y0031502D01*
X0170098Y0031952D01*
X0169648Y0032402D01*
X0168747Y0032402D01*
X0168297Y0031952D01*
X0167152Y0031952D02*
X0166701Y0032402D01*
X0165800Y0032402D01*
X0165350Y0031952D01*
X0171243Y0031952D02*
X0171693Y0032402D01*
X0172594Y0032402D01*
X0173045Y0031952D01*
X0173045Y0031502D01*
X0172594Y0031051D01*
X0173045Y0030601D01*
X0173045Y0030150D01*
X0172594Y0029700D01*
X0171693Y0029700D01*
X0171243Y0030150D01*
X0172144Y0031051D02*
X0172594Y0031051D01*
X0177950Y0030402D02*
X0179301Y0030402D01*
X0179752Y0029952D01*
X0179752Y0029051D01*
X0179301Y0028601D01*
X0177950Y0028601D01*
X0178851Y0028601D02*
X0179752Y0027700D01*
X0180897Y0028150D02*
X0181347Y0027700D01*
X0182248Y0027700D01*
X0182698Y0028150D01*
X0182698Y0028601D01*
X0182248Y0029051D01*
X0181797Y0029051D01*
X0182248Y0029051D02*
X0182698Y0029502D01*
X0182698Y0029952D01*
X0182248Y0030402D01*
X0181347Y0030402D01*
X0180897Y0029952D01*
X0183843Y0029952D02*
X0184293Y0030402D01*
X0185194Y0030402D01*
X0185645Y0029952D01*
X0185645Y0029502D01*
X0185194Y0029051D01*
X0185645Y0028601D01*
X0185645Y0028150D01*
X0185194Y0027700D01*
X0184293Y0027700D01*
X0183843Y0028150D01*
X0184744Y0029051D02*
X0185194Y0029051D01*
X0177950Y0027700D02*
X0177950Y0030402D01*
X0155194Y0020602D02*
X0155194Y0017900D01*
X0155645Y0019251D02*
X0153843Y0019251D01*
X0155194Y0020602D01*
X0152698Y0020152D02*
X0152698Y0019702D01*
X0152248Y0019251D01*
X0152698Y0018801D01*
X0152698Y0018350D01*
X0152248Y0017900D01*
X0151347Y0017900D01*
X0150897Y0018350D01*
X0149752Y0018350D02*
X0149301Y0017900D01*
X0148400Y0017900D01*
X0147950Y0018350D01*
X0147950Y0020152D01*
X0148400Y0020602D01*
X0149301Y0020602D01*
X0149752Y0020152D01*
X0150897Y0020152D02*
X0151347Y0020602D01*
X0152248Y0020602D01*
X0152698Y0020152D01*
X0152248Y0019251D02*
X0151797Y0019251D01*
X0049750Y0110750D02*
X0049300Y0110300D01*
X0047498Y0110300D01*
X0047048Y0110750D01*
X0047048Y0111651D01*
X0047498Y0112102D01*
X0047498Y0113247D02*
X0047048Y0113697D01*
X0047048Y0114598D01*
X0047498Y0115048D01*
X0047948Y0115048D01*
X0048399Y0114598D01*
X0048849Y0115048D01*
X0049300Y0115048D01*
X0049750Y0114598D01*
X0049750Y0113697D01*
X0049300Y0113247D01*
X0049300Y0112102D02*
X0049750Y0111651D01*
X0049750Y0110750D01*
X0048399Y0114147D02*
X0048399Y0114598D01*
X0043750Y0115048D02*
X0043750Y0113247D01*
X0041948Y0115048D01*
X0041498Y0115048D01*
X0041048Y0114598D01*
X0041048Y0113697D01*
X0041498Y0113247D01*
X0041498Y0112102D02*
X0041048Y0111651D01*
X0041048Y0110750D01*
X0041498Y0110300D01*
X0043300Y0110300D01*
X0043750Y0110750D01*
X0043750Y0111651D01*
X0043300Y0112102D01*
X0029045Y0110500D02*
X0027243Y0110500D01*
X0028144Y0110500D02*
X0028144Y0113202D01*
X0027243Y0112302D01*
X0026098Y0112302D02*
X0025648Y0111851D01*
X0024297Y0111851D01*
X0025648Y0111851D02*
X0026098Y0111401D01*
X0026098Y0110950D01*
X0025648Y0110500D01*
X0024297Y0110500D01*
X0024297Y0113202D01*
X0025648Y0113202D01*
X0026098Y0112752D01*
X0026098Y0112302D01*
X0023152Y0113202D02*
X0021350Y0113202D01*
X0021350Y0110500D01*
X0021350Y0111851D02*
X0022251Y0111851D01*
X0022101Y0116300D02*
X0022552Y0116750D01*
X0022101Y0116300D02*
X0021200Y0116300D01*
X0020750Y0116750D01*
X0020750Y0118552D01*
X0021200Y0119002D01*
X0022101Y0119002D01*
X0022552Y0118552D01*
X0023697Y0118102D02*
X0024597Y0119002D01*
X0024597Y0116300D01*
X0023697Y0116300D02*
X0025498Y0116300D01*
X0141250Y0114052D02*
X0141250Y0112250D01*
X0141700Y0111800D01*
X0142601Y0111800D01*
X0143052Y0112250D01*
X0144197Y0112250D02*
X0144647Y0111800D01*
X0145548Y0111800D01*
X0145998Y0112250D01*
X0145998Y0113151D01*
X0145548Y0113602D01*
X0145097Y0113602D01*
X0144197Y0113151D01*
X0144197Y0114502D01*
X0145998Y0114502D01*
X0143052Y0114052D02*
X0142601Y0114502D01*
X0141700Y0114502D01*
X0141250Y0114052D01*
X0168750Y0113201D02*
X0170101Y0113201D01*
X0170552Y0113651D01*
X0170552Y0114552D01*
X0170101Y0115002D01*
X0168750Y0115002D01*
X0168750Y0112300D01*
X0169651Y0113201D02*
X0170552Y0112300D01*
X0171697Y0112300D02*
X0173498Y0114102D01*
X0173498Y0114552D01*
X0173048Y0115002D01*
X0172147Y0115002D01*
X0171697Y0114552D01*
X0171697Y0112300D02*
X0173498Y0112300D01*
X0174643Y0112300D02*
X0176445Y0114102D01*
X0176445Y0114552D01*
X0175994Y0115002D01*
X0175093Y0115002D01*
X0174643Y0114552D01*
X0174643Y0112300D02*
X0176445Y0112300D01*
X0176945Y0117800D02*
X0175143Y0117800D01*
X0176945Y0119602D01*
X0176945Y0120052D01*
X0176494Y0120502D01*
X0175593Y0120502D01*
X0175143Y0120052D01*
X0173998Y0120052D02*
X0173998Y0119602D01*
X0173548Y0119151D01*
X0172197Y0119151D01*
X0173548Y0119151D02*
X0173998Y0118701D01*
X0173998Y0118250D01*
X0173548Y0117800D01*
X0172197Y0117800D01*
X0172197Y0120502D01*
X0173548Y0120502D01*
X0173998Y0120052D01*
X0171052Y0120502D02*
X0169250Y0120502D01*
X0169250Y0117800D01*
X0169250Y0119151D02*
X0170151Y0119151D01*
X0187750Y0113652D02*
X0187750Y0111850D01*
X0188200Y0111400D01*
X0189101Y0111400D01*
X0189552Y0111850D01*
X0190697Y0112751D02*
X0192498Y0112751D01*
X0192048Y0111400D02*
X0192048Y0114102D01*
X0190697Y0112751D01*
X0189552Y0113652D02*
X0189101Y0114102D01*
X0188200Y0114102D01*
X0187750Y0113652D01*
D12*
X0188000Y0115950D02*
X0191000Y0115950D01*
X0191000Y0121150D02*
X0188000Y0121150D01*
X0184617Y0114253D02*
X0184617Y0110850D01*
X0183483Y0110850D02*
X0185752Y0110850D01*
X0186600Y0109950D02*
X0175600Y0109950D01*
X0175540Y0109948D01*
X0175479Y0109943D01*
X0175420Y0109934D01*
X0175361Y0109921D01*
X0175302Y0109905D01*
X0175245Y0109885D01*
X0175190Y0109862D01*
X0175135Y0109835D01*
X0175083Y0109806D01*
X0175032Y0109773D01*
X0174983Y0109737D01*
X0174937Y0109699D01*
X0174893Y0109657D01*
X0174851Y0109613D01*
X0174813Y0109567D01*
X0174777Y0109518D01*
X0174744Y0109467D01*
X0174715Y0109415D01*
X0174688Y0109360D01*
X0174665Y0109305D01*
X0174645Y0109248D01*
X0174629Y0109189D01*
X0174616Y0109130D01*
X0174607Y0109071D01*
X0174602Y0109010D01*
X0174600Y0108950D01*
X0174600Y0102950D01*
X0174602Y0102890D01*
X0174607Y0102829D01*
X0174616Y0102770D01*
X0174629Y0102711D01*
X0174645Y0102652D01*
X0174665Y0102595D01*
X0174688Y0102540D01*
X0174715Y0102485D01*
X0174744Y0102433D01*
X0174777Y0102382D01*
X0174813Y0102333D01*
X0174851Y0102287D01*
X0174893Y0102243D01*
X0174937Y0102201D01*
X0174983Y0102163D01*
X0175032Y0102127D01*
X0175083Y0102094D01*
X0175135Y0102065D01*
X0175190Y0102038D01*
X0175245Y0102015D01*
X0175302Y0101995D01*
X0175361Y0101979D01*
X0175420Y0101966D01*
X0175479Y0101957D01*
X0175540Y0101952D01*
X0175600Y0101950D01*
X0186600Y0101950D01*
X0186660Y0101952D01*
X0186721Y0101957D01*
X0186780Y0101966D01*
X0186839Y0101979D01*
X0186898Y0101995D01*
X0186955Y0102015D01*
X0187010Y0102038D01*
X0187065Y0102065D01*
X0187117Y0102094D01*
X0187168Y0102127D01*
X0187217Y0102163D01*
X0187263Y0102201D01*
X0187307Y0102243D01*
X0187349Y0102287D01*
X0187387Y0102333D01*
X0187423Y0102382D01*
X0187456Y0102433D01*
X0187485Y0102485D01*
X0187512Y0102540D01*
X0187535Y0102595D01*
X0187555Y0102652D01*
X0187571Y0102711D01*
X0187584Y0102770D01*
X0187593Y0102829D01*
X0187598Y0102890D01*
X0187600Y0102950D01*
X0187600Y0108950D01*
X0187598Y0109010D01*
X0187593Y0109071D01*
X0187584Y0109130D01*
X0187571Y0109189D01*
X0187555Y0109248D01*
X0187535Y0109305D01*
X0187512Y0109360D01*
X0187485Y0109415D01*
X0187456Y0109467D01*
X0187423Y0109518D01*
X0187387Y0109567D01*
X0187349Y0109613D01*
X0187307Y0109657D01*
X0187263Y0109699D01*
X0187217Y0109737D01*
X0187168Y0109773D01*
X0187117Y0109806D01*
X0187065Y0109835D01*
X0187010Y0109862D01*
X0186955Y0109885D01*
X0186898Y0109905D01*
X0186839Y0109921D01*
X0186780Y0109934D01*
X0186721Y0109943D01*
X0186660Y0109948D01*
X0186600Y0109950D01*
X0183483Y0113119D02*
X0184617Y0114253D01*
X0182069Y0114253D02*
X0180934Y0114253D01*
X0181501Y0114253D02*
X0181501Y0111417D01*
X0180934Y0110850D01*
X0180367Y0110850D01*
X0179800Y0111417D01*
X0167063Y0108800D02*
X0167063Y0106300D01*
X0163938Y0106300D02*
X0163938Y0108800D01*
X0163750Y0116987D02*
X0161250Y0116987D01*
X0161250Y0120112D02*
X0163750Y0120112D01*
X0145000Y0121150D02*
X0142000Y0121150D01*
X0142000Y0115950D02*
X0145000Y0115950D01*
X0131078Y0116783D02*
X0128810Y0116783D01*
X0127489Y0118484D02*
X0126354Y0117350D01*
X0127489Y0118484D02*
X0127489Y0119619D01*
X0126354Y0120753D01*
X0124940Y0120753D02*
X0122671Y0117350D01*
X0121257Y0116783D02*
X0118988Y0116783D01*
X0117573Y0116783D02*
X0115305Y0116783D01*
X0113984Y0118484D02*
X0112849Y0117350D01*
X0113984Y0118484D02*
X0113984Y0119619D01*
X0112849Y0120753D01*
X0111435Y0120753D02*
X0109166Y0117350D01*
X0107752Y0116783D02*
X0105483Y0116783D01*
X0104069Y0116783D02*
X0101800Y0116783D01*
X0098000Y0116550D02*
X0098000Y0122550D01*
X0097998Y0122610D01*
X0097993Y0122671D01*
X0097984Y0122730D01*
X0097971Y0122789D01*
X0097955Y0122848D01*
X0097935Y0122905D01*
X0097912Y0122960D01*
X0097885Y0123015D01*
X0097856Y0123067D01*
X0097823Y0123118D01*
X0097787Y0123167D01*
X0097749Y0123213D01*
X0097707Y0123257D01*
X0097663Y0123299D01*
X0097617Y0123337D01*
X0097568Y0123373D01*
X0097517Y0123406D01*
X0097465Y0123435D01*
X0097410Y0123462D01*
X0097355Y0123485D01*
X0097298Y0123505D01*
X0097239Y0123521D01*
X0097180Y0123534D01*
X0097121Y0123543D01*
X0097060Y0123548D01*
X0097000Y0123550D01*
X0080000Y0123550D01*
X0079940Y0123548D01*
X0079879Y0123543D01*
X0079820Y0123534D01*
X0079761Y0123521D01*
X0079702Y0123505D01*
X0079645Y0123485D01*
X0079590Y0123462D01*
X0079535Y0123435D01*
X0079483Y0123406D01*
X0079432Y0123373D01*
X0079383Y0123337D01*
X0079337Y0123299D01*
X0079293Y0123257D01*
X0079251Y0123213D01*
X0079213Y0123167D01*
X0079177Y0123118D01*
X0079144Y0123067D01*
X0079115Y0123015D01*
X0079088Y0122960D01*
X0079065Y0122905D01*
X0079045Y0122848D01*
X0079029Y0122789D01*
X0079016Y0122730D01*
X0079007Y0122671D01*
X0079002Y0122610D01*
X0079000Y0122550D01*
X0079000Y0116550D01*
X0079002Y0116490D01*
X0079007Y0116429D01*
X0079016Y0116370D01*
X0079029Y0116311D01*
X0079045Y0116252D01*
X0079065Y0116195D01*
X0079088Y0116140D01*
X0079115Y0116085D01*
X0079144Y0116033D01*
X0079177Y0115982D01*
X0079213Y0115933D01*
X0079251Y0115887D01*
X0079293Y0115843D01*
X0079337Y0115801D01*
X0079383Y0115763D01*
X0079432Y0115727D01*
X0079483Y0115694D01*
X0079535Y0115665D01*
X0079590Y0115638D01*
X0079645Y0115615D01*
X0079702Y0115595D01*
X0079761Y0115579D01*
X0079820Y0115566D01*
X0079879Y0115557D01*
X0079940Y0115552D01*
X0080000Y0115550D01*
X0097000Y0115550D01*
X0097060Y0115552D01*
X0097121Y0115557D01*
X0097180Y0115566D01*
X0097239Y0115579D01*
X0097298Y0115595D01*
X0097355Y0115615D01*
X0097410Y0115638D01*
X0097465Y0115665D01*
X0097517Y0115694D01*
X0097568Y0115727D01*
X0097617Y0115763D01*
X0097663Y0115801D01*
X0097707Y0115843D01*
X0097749Y0115887D01*
X0097787Y0115933D01*
X0097823Y0115982D01*
X0097856Y0116033D01*
X0097885Y0116085D01*
X0097912Y0116140D01*
X0097935Y0116195D01*
X0097955Y0116252D01*
X0097971Y0116311D01*
X0097984Y0116370D01*
X0097993Y0116429D01*
X0097998Y0116490D01*
X0098000Y0116550D01*
X0077735Y0118850D02*
X0075466Y0118850D01*
X0076601Y0118850D02*
X0076601Y0122253D01*
X0075466Y0121119D01*
X0074052Y0118850D02*
X0071783Y0118850D01*
X0072917Y0118850D02*
X0072917Y0122253D01*
X0071783Y0121119D01*
X0070369Y0122253D02*
X0069234Y0122253D01*
X0069801Y0122253D02*
X0069801Y0119417D01*
X0069234Y0118850D01*
X0068667Y0118850D01*
X0068100Y0119417D01*
X0056600Y0113550D02*
X0056600Y0110550D01*
X0051400Y0110550D02*
X0051400Y0113550D01*
X0039100Y0113050D02*
X0039100Y0110050D01*
X0033900Y0110050D02*
X0033900Y0113050D01*
X0025750Y0107612D02*
X0023250Y0107612D01*
X0023250Y0104487D02*
X0025750Y0104487D01*
X0027575Y0102253D02*
X0028709Y0102253D01*
X0029276Y0101686D01*
X0029276Y0101119D01*
X0028709Y0100551D01*
X0029276Y0099984D01*
X0029276Y0099417D01*
X0028709Y0098850D01*
X0027575Y0098850D01*
X0027008Y0099417D01*
X0025733Y0099417D02*
X0025733Y0098850D01*
X0025166Y0098850D01*
X0025166Y0099417D01*
X0025733Y0099417D01*
X0023752Y0099417D02*
X0023185Y0098850D01*
X0022050Y0098850D01*
X0021483Y0099417D01*
X0022617Y0100551D02*
X0023185Y0100551D01*
X0023752Y0099984D01*
X0023752Y0099417D01*
X0023185Y0100551D02*
X0023752Y0101119D01*
X0023752Y0101686D01*
X0023185Y0102253D01*
X0022050Y0102253D01*
X0021483Y0101686D01*
X0020069Y0100551D02*
X0017800Y0100551D01*
X0018934Y0099417D02*
X0018934Y0101686D01*
X0015500Y0102050D02*
X0013500Y0103050D01*
X0014500Y0101050D01*
X0013500Y0103050D02*
X0018500Y0098050D01*
X0033000Y0098050D01*
X0031825Y0098850D02*
X0030691Y0099984D01*
X0030691Y0102253D01*
X0032960Y0102253D02*
X0032960Y0099984D01*
X0031825Y0098850D01*
X0028709Y0100551D02*
X0028142Y0100551D01*
X0027008Y0101686D02*
X0027575Y0102253D01*
X0023368Y0092753D02*
X0021666Y0092753D01*
X0021666Y0089350D01*
X0023368Y0089350D01*
X0023935Y0089917D01*
X0023935Y0092186D01*
X0023368Y0092753D01*
X0020252Y0092753D02*
X0020252Y0089350D01*
X0017983Y0092753D01*
X0017983Y0089350D01*
X0016569Y0089917D02*
X0016569Y0091051D01*
X0015434Y0091051D01*
X0014300Y0089917D02*
X0014867Y0089350D01*
X0016001Y0089350D01*
X0016569Y0089917D01*
X0014300Y0089917D02*
X0014300Y0092186D01*
X0014867Y0092753D01*
X0016001Y0092753D01*
X0016569Y0092186D01*
X0010000Y0078550D02*
X0010500Y0078050D01*
X0010500Y0064550D01*
X0011500Y0063550D01*
X0010500Y0062550D01*
X0010500Y0044050D01*
X0010000Y0043550D01*
X0009000Y0043550D01*
X0015200Y0039986D02*
X0015200Y0037717D01*
X0015767Y0037150D01*
X0016901Y0037150D01*
X0017469Y0037717D01*
X0017469Y0038851D01*
X0016334Y0038851D01*
X0015200Y0039986D02*
X0015767Y0040553D01*
X0016901Y0040553D01*
X0017469Y0039986D01*
X0018883Y0040553D02*
X0021152Y0037150D01*
X0021152Y0040553D01*
X0022566Y0040553D02*
X0024268Y0040553D01*
X0024835Y0039986D01*
X0024835Y0037717D01*
X0024268Y0037150D01*
X0022566Y0037150D01*
X0022566Y0040553D01*
X0018883Y0040553D02*
X0018883Y0037150D01*
X0017585Y0029753D02*
X0018152Y0029186D01*
X0018152Y0028619D01*
X0017585Y0028051D01*
X0018152Y0027484D01*
X0018152Y0026917D01*
X0017585Y0026350D01*
X0016450Y0026350D01*
X0015883Y0026917D01*
X0017017Y0028051D02*
X0017585Y0028051D01*
X0015883Y0029186D02*
X0016450Y0029753D01*
X0017585Y0029753D01*
X0014469Y0029753D02*
X0013334Y0029753D01*
X0013901Y0029753D02*
X0013901Y0026917D01*
X0013334Y0026350D01*
X0012767Y0026350D01*
X0012200Y0026917D01*
X0085000Y0031650D02*
X0085000Y0014650D01*
X0085002Y0014590D01*
X0085007Y0014529D01*
X0085016Y0014470D01*
X0085029Y0014411D01*
X0085045Y0014352D01*
X0085065Y0014295D01*
X0085088Y0014240D01*
X0085115Y0014185D01*
X0085144Y0014133D01*
X0085177Y0014082D01*
X0085213Y0014033D01*
X0085251Y0013987D01*
X0085293Y0013943D01*
X0085337Y0013901D01*
X0085383Y0013863D01*
X0085432Y0013827D01*
X0085483Y0013794D01*
X0085535Y0013765D01*
X0085590Y0013738D01*
X0085645Y0013715D01*
X0085702Y0013695D01*
X0085761Y0013679D01*
X0085820Y0013666D01*
X0085879Y0013657D01*
X0085940Y0013652D01*
X0086000Y0013650D01*
X0092000Y0013650D01*
X0092060Y0013652D01*
X0092121Y0013657D01*
X0092180Y0013666D01*
X0092239Y0013679D01*
X0092298Y0013695D01*
X0092355Y0013715D01*
X0092410Y0013738D01*
X0092465Y0013765D01*
X0092517Y0013794D01*
X0092568Y0013827D01*
X0092617Y0013863D01*
X0092663Y0013901D01*
X0092707Y0013943D01*
X0092749Y0013987D01*
X0092787Y0014033D01*
X0092823Y0014082D01*
X0092856Y0014133D01*
X0092885Y0014185D01*
X0092912Y0014240D01*
X0092935Y0014295D01*
X0092955Y0014352D01*
X0092971Y0014411D01*
X0092984Y0014470D01*
X0092993Y0014529D01*
X0092998Y0014590D01*
X0093000Y0014650D01*
X0093000Y0031650D01*
X0092998Y0031710D01*
X0092993Y0031771D01*
X0092984Y0031830D01*
X0092971Y0031889D01*
X0092955Y0031948D01*
X0092935Y0032005D01*
X0092912Y0032060D01*
X0092885Y0032115D01*
X0092856Y0032167D01*
X0092823Y0032218D01*
X0092787Y0032267D01*
X0092749Y0032313D01*
X0092707Y0032357D01*
X0092663Y0032399D01*
X0092617Y0032437D01*
X0092568Y0032473D01*
X0092517Y0032506D01*
X0092465Y0032535D01*
X0092410Y0032562D01*
X0092355Y0032585D01*
X0092298Y0032605D01*
X0092239Y0032621D01*
X0092180Y0032634D01*
X0092121Y0032643D01*
X0092060Y0032648D01*
X0092000Y0032650D01*
X0086000Y0032650D01*
X0085940Y0032648D01*
X0085879Y0032643D01*
X0085820Y0032634D01*
X0085761Y0032621D01*
X0085702Y0032605D01*
X0085645Y0032585D01*
X0085590Y0032562D01*
X0085535Y0032535D01*
X0085483Y0032506D01*
X0085432Y0032473D01*
X0085383Y0032437D01*
X0085337Y0032399D01*
X0085293Y0032357D01*
X0085251Y0032313D01*
X0085213Y0032267D01*
X0085177Y0032218D01*
X0085144Y0032167D01*
X0085115Y0032115D01*
X0085088Y0032060D01*
X0085065Y0032005D01*
X0085045Y0031948D01*
X0085029Y0031889D01*
X0085016Y0031830D01*
X0085007Y0031771D01*
X0085002Y0031710D01*
X0085000Y0031650D01*
X0094597Y0030218D02*
X0094597Y0029083D01*
X0095164Y0028516D01*
X0094597Y0030218D02*
X0095164Y0030785D01*
X0095731Y0030785D01*
X0098000Y0028516D01*
X0098000Y0030785D01*
X0098000Y0027102D02*
X0098000Y0024833D01*
X0098000Y0025967D02*
X0094597Y0025967D01*
X0095731Y0024833D01*
X0094597Y0023419D02*
X0094597Y0022284D01*
X0094597Y0022851D02*
X0097433Y0022851D01*
X0098000Y0022284D01*
X0098000Y0021717D01*
X0097433Y0021150D01*
X0106250Y0021488D02*
X0108750Y0021488D01*
X0108750Y0024612D02*
X0106250Y0024612D01*
X0118250Y0024612D02*
X0120750Y0024612D01*
X0120750Y0021488D02*
X0118250Y0021488D01*
X0123000Y0016553D02*
X0123000Y0013717D01*
X0123567Y0013150D01*
X0124701Y0013150D01*
X0125269Y0013717D01*
X0125269Y0016553D01*
X0126683Y0015986D02*
X0127250Y0016553D01*
X0128385Y0016553D01*
X0128952Y0015986D01*
X0128952Y0015419D01*
X0128385Y0014851D01*
X0128952Y0014284D01*
X0128952Y0013717D01*
X0128385Y0013150D01*
X0127250Y0013150D01*
X0126683Y0013717D01*
X0127817Y0014851D02*
X0128385Y0014851D01*
X0129563Y0018589D02*
X0129563Y0020181D01*
X0137437Y0020181D01*
X0137437Y0018589D01*
X0129563Y0018589D01*
X0129563Y0020181D02*
X0129563Y0023511D01*
X0137437Y0023511D01*
X0137437Y0020181D01*
X0148500Y0016175D02*
X0153500Y0016175D01*
X0153500Y0009925D02*
X0148500Y0009925D01*
X0163500Y0016550D02*
X0163500Y0021550D01*
X0173500Y0021550D02*
X0173500Y0016550D01*
X0175967Y0013953D02*
X0175967Y0010550D01*
X0177101Y0010550D02*
X0177101Y0013953D01*
X0177101Y0012819D02*
X0175400Y0012819D01*
X0175400Y0011684D02*
X0177669Y0011684D01*
X0177669Y0012819D02*
X0177101Y0012819D01*
X0179083Y0013953D02*
X0179083Y0010550D01*
X0179083Y0011684D02*
X0180785Y0011684D01*
X0181352Y0012251D01*
X0181352Y0013386D01*
X0180785Y0013953D01*
X0179083Y0013953D01*
X0180217Y0011684D02*
X0181352Y0010550D01*
X0182766Y0011117D02*
X0183333Y0010550D01*
X0184468Y0010550D01*
X0185035Y0011117D01*
X0185035Y0011684D01*
X0184468Y0012251D01*
X0183333Y0012251D01*
X0182766Y0012819D01*
X0182766Y0013386D01*
X0183333Y0013953D01*
X0184468Y0013953D01*
X0185035Y0013386D01*
X0186449Y0013953D02*
X0188718Y0013953D01*
X0187584Y0013953D02*
X0187584Y0010550D01*
X0186449Y0007953D02*
X0186449Y0004550D01*
X0188718Y0004550D01*
X0185035Y0004550D02*
X0183901Y0005684D01*
X0184468Y0005684D02*
X0182766Y0005684D01*
X0182766Y0004550D02*
X0182766Y0007953D01*
X0184468Y0007953D01*
X0185035Y0007386D01*
X0185035Y0006251D01*
X0184468Y0005684D01*
X0181352Y0007953D02*
X0179083Y0007953D01*
X0180217Y0007953D02*
X0180217Y0004550D01*
X0177669Y0005117D02*
X0177101Y0004550D01*
X0175967Y0004550D01*
X0175400Y0005117D01*
X0175400Y0007386D01*
X0175967Y0007953D01*
X0177101Y0007953D01*
X0177669Y0007386D01*
X0179437Y0019800D02*
X0179437Y0022300D01*
X0182562Y0022300D02*
X0182562Y0019800D01*
X0182849Y0034350D02*
X0182849Y0034917D01*
X0185118Y0037186D01*
X0185118Y0037753D01*
X0182849Y0037753D01*
X0181435Y0037186D02*
X0180868Y0037753D01*
X0179733Y0037753D01*
X0179166Y0037186D01*
X0179166Y0036619D01*
X0179733Y0036051D01*
X0180868Y0036051D01*
X0181435Y0035484D01*
X0181435Y0034917D01*
X0180868Y0034350D01*
X0179733Y0034350D01*
X0179166Y0034917D01*
X0177752Y0034917D02*
X0177185Y0034350D01*
X0176050Y0034350D01*
X0175483Y0034917D01*
X0175483Y0037186D01*
X0176050Y0037753D01*
X0177185Y0037753D01*
X0177752Y0037186D01*
X0174069Y0036619D02*
X0173501Y0036619D01*
X0171800Y0036619D01*
X0171800Y0035484D02*
X0174069Y0035484D01*
X0173501Y0034350D02*
X0173501Y0037753D01*
X0172367Y0037753D02*
X0172367Y0034350D01*
X0179367Y0041950D02*
X0179367Y0045353D01*
X0180501Y0045353D02*
X0180501Y0041950D01*
X0181069Y0043084D02*
X0178800Y0043084D01*
X0178800Y0044219D02*
X0180501Y0044219D01*
X0181069Y0044219D01*
X0182483Y0044786D02*
X0182483Y0042517D01*
X0183050Y0041950D01*
X0184185Y0041950D01*
X0184752Y0042517D01*
X0186166Y0042517D02*
X0186733Y0041950D01*
X0187868Y0041950D01*
X0188435Y0042517D01*
X0188435Y0043084D01*
X0187868Y0043651D01*
X0186733Y0043651D01*
X0186166Y0044219D01*
X0186166Y0044786D01*
X0186733Y0045353D01*
X0187868Y0045353D01*
X0188435Y0044786D01*
X0184752Y0044786D02*
X0184185Y0045353D01*
X0183050Y0045353D01*
X0182483Y0044786D01*
X0186533Y0037753D02*
X0186533Y0036051D01*
X0187667Y0036619D01*
X0188234Y0036619D01*
X0188801Y0036051D01*
X0188801Y0034917D01*
X0188234Y0034350D01*
X0187100Y0034350D01*
X0186533Y0034917D01*
X0186533Y0037753D02*
X0188801Y0037753D01*
X0187068Y0051950D02*
X0185366Y0051950D01*
X0185366Y0055353D01*
X0187068Y0055353D01*
X0187635Y0054786D01*
X0187635Y0052517D01*
X0187068Y0051950D01*
X0183952Y0051950D02*
X0183952Y0055353D01*
X0181683Y0055353D02*
X0183952Y0051950D01*
X0181683Y0051950D02*
X0181683Y0055353D01*
X0180269Y0054786D02*
X0179701Y0055353D01*
X0178567Y0055353D01*
X0178000Y0054786D01*
X0178000Y0052517D01*
X0178567Y0051950D01*
X0179701Y0051950D01*
X0180269Y0052517D01*
X0180269Y0053651D01*
X0179134Y0053651D01*
X0183600Y0062350D02*
X0185301Y0062350D01*
X0185869Y0062917D01*
X0185869Y0063484D01*
X0185301Y0064051D01*
X0183600Y0064051D01*
X0183600Y0062350D02*
X0183600Y0065753D01*
X0185301Y0065753D01*
X0185869Y0065186D01*
X0185869Y0064619D01*
X0185301Y0064051D01*
X0185301Y0069750D02*
X0184167Y0069750D01*
X0183600Y0070317D01*
X0183600Y0072586D01*
X0184167Y0073153D01*
X0185301Y0073153D01*
X0185869Y0072586D01*
X0185869Y0071451D02*
X0184734Y0071451D01*
X0185869Y0071451D02*
X0185869Y0070317D01*
X0185301Y0069750D01*
X0185869Y0077350D02*
X0184734Y0078484D01*
X0185301Y0078484D02*
X0183600Y0078484D01*
X0183600Y0077350D02*
X0183600Y0080753D01*
X0185301Y0080753D01*
X0185869Y0080186D01*
X0185869Y0079051D01*
X0185301Y0078484D01*
X0189567Y0087550D02*
X0190701Y0087550D01*
X0191269Y0088117D01*
X0191269Y0089251D01*
X0190134Y0089251D01*
X0189000Y0088117D02*
X0189567Y0087550D01*
X0189000Y0088117D02*
X0189000Y0090386D01*
X0189567Y0090953D01*
X0190701Y0090953D01*
X0191269Y0090386D01*
X0192683Y0090953D02*
X0194952Y0087550D01*
X0194952Y0090953D01*
X0196366Y0090953D02*
X0198068Y0090953D01*
X0198635Y0090386D01*
X0198635Y0088117D01*
X0198068Y0087550D01*
X0196366Y0087550D01*
X0196366Y0090953D01*
X0192683Y0090953D02*
X0192683Y0087550D01*
X0182900Y0095650D02*
X0189300Y0102050D01*
X0188500Y0100250D01*
X0187500Y0101250D02*
X0189300Y0102050D01*
X0183435Y0100153D02*
X0183435Y0097884D01*
X0182301Y0096750D01*
X0181166Y0097884D01*
X0181166Y0100153D01*
X0179752Y0100153D02*
X0177483Y0100153D01*
X0177483Y0098451D01*
X0178617Y0099019D01*
X0179185Y0099019D01*
X0179752Y0098451D01*
X0179752Y0097317D01*
X0179185Y0096750D01*
X0178050Y0096750D01*
X0177483Y0097317D01*
X0176069Y0098451D02*
X0173800Y0098451D01*
X0174934Y0097317D02*
X0174934Y0099586D01*
X0173500Y0095650D02*
X0182900Y0095650D01*
X0164780Y0094672D02*
X0163795Y0095656D01*
X0139189Y0095656D01*
X0137220Y0093688D01*
X0137220Y0069081D01*
X0138205Y0068097D01*
X0163795Y0068097D01*
X0164780Y0069081D01*
X0164780Y0094672D01*
X0139189Y0092704D02*
X0139191Y0092766D01*
X0139197Y0092829D01*
X0139207Y0092890D01*
X0139221Y0092951D01*
X0139238Y0093011D01*
X0139259Y0093070D01*
X0139285Y0093127D01*
X0139313Y0093182D01*
X0139345Y0093236D01*
X0139381Y0093287D01*
X0139419Y0093337D01*
X0139461Y0093383D01*
X0139505Y0093427D01*
X0139553Y0093468D01*
X0139602Y0093506D01*
X0139654Y0093540D01*
X0139708Y0093571D01*
X0139764Y0093599D01*
X0139822Y0093623D01*
X0139881Y0093644D01*
X0139941Y0093660D01*
X0140002Y0093673D01*
X0140064Y0093682D01*
X0140126Y0093687D01*
X0140189Y0093688D01*
X0140251Y0093685D01*
X0140313Y0093678D01*
X0140375Y0093667D01*
X0140435Y0093652D01*
X0140495Y0093634D01*
X0140553Y0093612D01*
X0140610Y0093586D01*
X0140665Y0093556D01*
X0140718Y0093523D01*
X0140769Y0093487D01*
X0140817Y0093448D01*
X0140863Y0093405D01*
X0140906Y0093360D01*
X0140946Y0093312D01*
X0140983Y0093262D01*
X0141017Y0093209D01*
X0141048Y0093155D01*
X0141074Y0093099D01*
X0141098Y0093041D01*
X0141117Y0092981D01*
X0141133Y0092921D01*
X0141145Y0092859D01*
X0141153Y0092798D01*
X0141157Y0092735D01*
X0141157Y0092673D01*
X0141153Y0092610D01*
X0141145Y0092549D01*
X0141133Y0092487D01*
X0141117Y0092427D01*
X0141098Y0092367D01*
X0141074Y0092309D01*
X0141048Y0092253D01*
X0141017Y0092199D01*
X0140983Y0092146D01*
X0140946Y0092096D01*
X0140906Y0092048D01*
X0140863Y0092003D01*
X0140817Y0091960D01*
X0140769Y0091921D01*
X0140718Y0091885D01*
X0140665Y0091852D01*
X0140610Y0091822D01*
X0140553Y0091796D01*
X0140495Y0091774D01*
X0140435Y0091756D01*
X0140375Y0091741D01*
X0140313Y0091730D01*
X0140251Y0091723D01*
X0140189Y0091720D01*
X0140126Y0091721D01*
X0140064Y0091726D01*
X0140002Y0091735D01*
X0139941Y0091748D01*
X0139881Y0091764D01*
X0139822Y0091785D01*
X0139764Y0091809D01*
X0139708Y0091837D01*
X0139654Y0091868D01*
X0139602Y0091902D01*
X0139553Y0091940D01*
X0139505Y0091981D01*
X0139461Y0092025D01*
X0139419Y0092071D01*
X0139381Y0092121D01*
X0139345Y0092172D01*
X0139313Y0092226D01*
X0139285Y0092281D01*
X0139259Y0092338D01*
X0139238Y0092397D01*
X0139221Y0092457D01*
X0139207Y0092518D01*
X0139197Y0092579D01*
X0139191Y0092642D01*
X0139189Y0092704D01*
X0133852Y0100050D02*
X0131583Y0100050D01*
X0133852Y0102319D01*
X0133852Y0102886D01*
X0133285Y0103453D01*
X0132150Y0103453D01*
X0131583Y0102886D01*
X0130169Y0103453D02*
X0130169Y0100617D01*
X0129601Y0100050D01*
X0128467Y0100050D01*
X0127900Y0100617D01*
X0127900Y0103453D01*
X0133500Y0060050D02*
X0144500Y0060050D01*
X0144560Y0060048D01*
X0144621Y0060043D01*
X0144680Y0060034D01*
X0144739Y0060021D01*
X0144798Y0060005D01*
X0144855Y0059985D01*
X0144910Y0059962D01*
X0144965Y0059935D01*
X0145017Y0059906D01*
X0145068Y0059873D01*
X0145117Y0059837D01*
X0145163Y0059799D01*
X0145207Y0059757D01*
X0145249Y0059713D01*
X0145287Y0059667D01*
X0145323Y0059618D01*
X0145356Y0059567D01*
X0145385Y0059515D01*
X0145412Y0059460D01*
X0145435Y0059405D01*
X0145455Y0059348D01*
X0145471Y0059289D01*
X0145484Y0059230D01*
X0145493Y0059171D01*
X0145498Y0059110D01*
X0145500Y0059050D01*
X0145500Y0053050D01*
X0145498Y0052990D01*
X0145493Y0052929D01*
X0145484Y0052870D01*
X0145471Y0052811D01*
X0145455Y0052752D01*
X0145435Y0052695D01*
X0145412Y0052640D01*
X0145385Y0052585D01*
X0145356Y0052533D01*
X0145323Y0052482D01*
X0145287Y0052433D01*
X0145249Y0052387D01*
X0145207Y0052343D01*
X0145163Y0052301D01*
X0145117Y0052263D01*
X0145068Y0052227D01*
X0145017Y0052194D01*
X0144965Y0052165D01*
X0144910Y0052138D01*
X0144855Y0052115D01*
X0144798Y0052095D01*
X0144739Y0052079D01*
X0144680Y0052066D01*
X0144621Y0052057D01*
X0144560Y0052052D01*
X0144500Y0052050D01*
X0133500Y0052050D01*
X0133440Y0052052D01*
X0133379Y0052057D01*
X0133320Y0052066D01*
X0133261Y0052079D01*
X0133202Y0052095D01*
X0133145Y0052115D01*
X0133090Y0052138D01*
X0133035Y0052165D01*
X0132983Y0052194D01*
X0132932Y0052227D01*
X0132883Y0052263D01*
X0132837Y0052301D01*
X0132793Y0052343D01*
X0132751Y0052387D01*
X0132713Y0052433D01*
X0132677Y0052482D01*
X0132644Y0052533D01*
X0132615Y0052585D01*
X0132588Y0052640D01*
X0132565Y0052695D01*
X0132545Y0052752D01*
X0132529Y0052811D01*
X0132516Y0052870D01*
X0132507Y0052929D01*
X0132502Y0052990D01*
X0132500Y0053050D01*
X0132500Y0059050D01*
X0132502Y0059110D01*
X0132507Y0059171D01*
X0132516Y0059230D01*
X0132529Y0059289D01*
X0132545Y0059348D01*
X0132565Y0059405D01*
X0132588Y0059460D01*
X0132615Y0059515D01*
X0132644Y0059567D01*
X0132677Y0059618D01*
X0132713Y0059667D01*
X0132751Y0059713D01*
X0132793Y0059757D01*
X0132837Y0059799D01*
X0132883Y0059837D01*
X0132932Y0059873D01*
X0132983Y0059906D01*
X0133035Y0059935D01*
X0133090Y0059962D01*
X0133145Y0059985D01*
X0133202Y0060005D01*
X0133261Y0060021D01*
X0133320Y0060034D01*
X0133379Y0060043D01*
X0133440Y0060048D01*
X0133500Y0060050D01*
X0134334Y0050553D02*
X0135469Y0050553D01*
X0134901Y0050553D02*
X0134901Y0047717D01*
X0134334Y0047150D01*
X0133767Y0047150D01*
X0133200Y0047717D01*
X0136883Y0047150D02*
X0139152Y0049419D01*
X0139152Y0049986D01*
X0138585Y0050553D01*
X0137450Y0050553D01*
X0136883Y0049986D01*
X0136883Y0047150D02*
X0139152Y0047150D01*
X0140566Y0047150D02*
X0142835Y0047150D01*
X0141701Y0047150D02*
X0141701Y0050553D01*
X0140566Y0049419D01*
X0135750Y0034113D02*
X0133250Y0034113D01*
X0133250Y0030987D02*
X0135750Y0030987D01*
X0149000Y0028150D02*
X0152000Y0028150D01*
X0152000Y0022950D02*
X0149000Y0022950D01*
X0051852Y0093650D02*
X0049583Y0093650D01*
X0050717Y0093650D02*
X0050717Y0097053D01*
X0049583Y0095919D01*
X0048169Y0097053D02*
X0048169Y0094217D01*
X0047601Y0093650D01*
X0046467Y0093650D01*
X0045900Y0094217D01*
X0045900Y0097053D01*
X0013500Y0114950D02*
X0010500Y0114950D01*
X0010500Y0120150D02*
X0013500Y0120150D01*
X0010000Y0078550D02*
X0009000Y0078550D01*
D13*
X0082000Y0112850D02*
X0082002Y0112894D01*
X0082008Y0112938D01*
X0082018Y0112981D01*
X0082031Y0113023D01*
X0082048Y0113064D01*
X0082069Y0113103D01*
X0082093Y0113140D01*
X0082120Y0113175D01*
X0082150Y0113207D01*
X0082183Y0113237D01*
X0082219Y0113263D01*
X0082256Y0113287D01*
X0082296Y0113306D01*
X0082337Y0113323D01*
X0082380Y0113335D01*
X0082423Y0113344D01*
X0082467Y0113349D01*
X0082511Y0113350D01*
X0082555Y0113347D01*
X0082599Y0113340D01*
X0082642Y0113329D01*
X0082684Y0113315D01*
X0082724Y0113297D01*
X0082763Y0113275D01*
X0082799Y0113251D01*
X0082833Y0113223D01*
X0082865Y0113192D01*
X0082894Y0113158D01*
X0082920Y0113122D01*
X0082942Y0113084D01*
X0082961Y0113044D01*
X0082976Y0113002D01*
X0082988Y0112960D01*
X0082996Y0112916D01*
X0083000Y0112872D01*
X0083000Y0112828D01*
X0082996Y0112784D01*
X0082988Y0112740D01*
X0082976Y0112698D01*
X0082961Y0112656D01*
X0082942Y0112616D01*
X0082920Y0112578D01*
X0082894Y0112542D01*
X0082865Y0112508D01*
X0082833Y0112477D01*
X0082799Y0112449D01*
X0082763Y0112425D01*
X0082724Y0112403D01*
X0082684Y0112385D01*
X0082642Y0112371D01*
X0082599Y0112360D01*
X0082555Y0112353D01*
X0082511Y0112350D01*
X0082467Y0112351D01*
X0082423Y0112356D01*
X0082380Y0112365D01*
X0082337Y0112377D01*
X0082296Y0112394D01*
X0082256Y0112413D01*
X0082219Y0112437D01*
X0082183Y0112463D01*
X0082150Y0112493D01*
X0082120Y0112525D01*
X0082093Y0112560D01*
X0082069Y0112597D01*
X0082048Y0112636D01*
X0082031Y0112677D01*
X0082018Y0112719D01*
X0082008Y0112762D01*
X0082002Y0112806D01*
X0082000Y0112850D01*
X0095700Y0017050D02*
X0095702Y0017094D01*
X0095708Y0017138D01*
X0095718Y0017181D01*
X0095731Y0017223D01*
X0095748Y0017264D01*
X0095769Y0017303D01*
X0095793Y0017340D01*
X0095820Y0017375D01*
X0095850Y0017407D01*
X0095883Y0017437D01*
X0095919Y0017463D01*
X0095956Y0017487D01*
X0095996Y0017506D01*
X0096037Y0017523D01*
X0096080Y0017535D01*
X0096123Y0017544D01*
X0096167Y0017549D01*
X0096211Y0017550D01*
X0096255Y0017547D01*
X0096299Y0017540D01*
X0096342Y0017529D01*
X0096384Y0017515D01*
X0096424Y0017497D01*
X0096463Y0017475D01*
X0096499Y0017451D01*
X0096533Y0017423D01*
X0096565Y0017392D01*
X0096594Y0017358D01*
X0096620Y0017322D01*
X0096642Y0017284D01*
X0096661Y0017244D01*
X0096676Y0017202D01*
X0096688Y0017160D01*
X0096696Y0017116D01*
X0096700Y0017072D01*
X0096700Y0017028D01*
X0096696Y0016984D01*
X0096688Y0016940D01*
X0096676Y0016898D01*
X0096661Y0016856D01*
X0096642Y0016816D01*
X0096620Y0016778D01*
X0096594Y0016742D01*
X0096565Y0016708D01*
X0096533Y0016677D01*
X0096499Y0016649D01*
X0096463Y0016625D01*
X0096424Y0016603D01*
X0096384Y0016585D01*
X0096342Y0016571D01*
X0096299Y0016560D01*
X0096255Y0016553D01*
X0096211Y0016550D01*
X0096167Y0016551D01*
X0096123Y0016556D01*
X0096080Y0016565D01*
X0096037Y0016577D01*
X0095996Y0016594D01*
X0095956Y0016613D01*
X0095919Y0016637D01*
X0095883Y0016663D01*
X0095850Y0016693D01*
X0095820Y0016725D01*
X0095793Y0016760D01*
X0095769Y0016797D01*
X0095748Y0016836D01*
X0095731Y0016877D01*
X0095718Y0016919D01*
X0095708Y0016962D01*
X0095702Y0017006D01*
X0095700Y0017050D01*
D14*
X0096700Y0008954D02*
X0099903Y0004150D01*
X0099903Y0008954D01*
X0101856Y0006552D02*
X0104258Y0006552D01*
X0105059Y0005751D01*
X0105059Y0004951D01*
X0104258Y0004150D01*
X0102657Y0004150D01*
X0101856Y0004951D01*
X0101856Y0006552D01*
X0103458Y0008153D01*
X0105059Y0008954D01*
X0107013Y0006552D02*
X0110216Y0006552D01*
X0112169Y0005751D02*
X0114571Y0005751D01*
X0115372Y0006552D01*
X0115372Y0008153D01*
X0114571Y0008954D01*
X0112169Y0008954D01*
X0112169Y0004150D01*
X0113771Y0005751D02*
X0115372Y0004150D01*
X0117326Y0004951D02*
X0118126Y0004150D01*
X0119728Y0004150D01*
X0120528Y0004951D01*
X0120528Y0006552D01*
X0118927Y0006552D01*
X0120528Y0008153D02*
X0119728Y0008954D01*
X0118126Y0008954D01*
X0117326Y0008153D01*
X0117326Y0004951D01*
X0122482Y0004150D02*
X0122482Y0008954D01*
X0124884Y0008954D01*
X0125685Y0008153D01*
X0125685Y0007353D01*
X0124884Y0006552D01*
X0122482Y0006552D01*
X0124884Y0006552D02*
X0125685Y0005751D01*
X0125685Y0004951D01*
X0124884Y0004150D01*
X0122482Y0004150D01*
X0127638Y0007353D02*
X0129240Y0004150D01*
X0130841Y0007353D01*
X0132795Y0008153D02*
X0133595Y0008954D01*
X0135197Y0008954D01*
X0135998Y0008153D01*
X0135998Y0007353D01*
X0132795Y0004150D01*
X0135998Y0004150D01*
X0109415Y0004150D02*
X0109415Y0008954D01*
X0107013Y0006552D01*
X0096700Y0004150D02*
X0096700Y0008954D01*
X0082870Y0002015D02*
X0066878Y0002015D01*
X0066878Y0003196D01*
X0061055Y0003196D01*
X0061055Y0002015D01*
X0050913Y0002015D01*
X0036087Y0002015D01*
X0004130Y0002015D01*
X0004130Y0035085D01*
X0082870Y0035085D01*
X0082870Y0002015D01*
X0078441Y0005656D02*
X0050913Y0005656D01*
X0050913Y0008117D02*
X0036087Y0008117D01*
X0036087Y0002015D01*
X0036087Y0005656D02*
X0008559Y0005656D01*
X0008559Y0031444D01*
X0078441Y0031444D01*
X0078441Y0005656D01*
X0050913Y0008117D02*
X0050913Y0002015D01*
D15*
X0148018Y0041831D02*
X0148018Y0053748D01*
X0150991Y0052535D01*
X0153585Y0053582D01*
X0154976Y0050763D01*
X0154976Y0044792D01*
X0150991Y0052535D01*
X0150754Y0054640D02*
X0153585Y0053582D01*
X0153656Y0053439D02*
X0155238Y0056329D01*
X0157985Y0057293D01*
X0160769Y0056341D01*
X0158092Y0055283D01*
X0155238Y0056329D01*
X0158092Y0055283D02*
X0155702Y0051179D01*
X0158092Y0052143D01*
X0161197Y0050870D01*
X0165217Y0045173D01*
X0165217Y0052512D01*
X0168226Y0053748D01*
X0168226Y0041831D01*
X0165371Y0040653D01*
X0161089Y0046184D01*
X0161089Y0043092D01*
X0161089Y0038905D01*
X0158128Y0037680D01*
X0155179Y0038893D01*
X0150861Y0046743D01*
X0150861Y0040665D01*
X0148018Y0041831D01*
X0150861Y0040665D02*
X0153585Y0041783D01*
X0150861Y0046743D01*
X0154976Y0050763D02*
X0154976Y0050894D01*
X0158128Y0049609D01*
X0158128Y0037680D01*
X0162065Y0041795D02*
X0165371Y0040653D01*
X0162065Y0041795D02*
X0161089Y0043092D01*
X0158128Y0049609D02*
X0161197Y0050870D01*
X0160209Y0051275D01*
X0158092Y0052143D01*
X0154976Y0050894D01*
X0155702Y0051179D01*
X0154976Y0050763D02*
X0153656Y0053439D01*
X0150754Y0054640D02*
X0148018Y0053748D01*
X0160209Y0051275D02*
X0162433Y0053570D01*
X0165217Y0052512D01*
X0165371Y0054783D02*
X0162433Y0053570D01*
X0160769Y0051857D02*
X0160769Y0056341D01*
X0165371Y0054783D02*
X0168226Y0053748D01*
D16*
X0036453Y0057152D02*
X0030547Y0057152D01*
X0030547Y0059948D02*
X0036453Y0059948D01*
X0036453Y0072152D02*
X0030547Y0072152D01*
X0030547Y0074948D02*
X0036453Y0074948D01*
X0036453Y0087152D02*
X0030547Y0087152D01*
X0030547Y0044948D02*
X0036453Y0044948D01*
D17*
X0060941Y0044475D02*
X0061925Y0043491D01*
X0115075Y0043491D01*
X0116059Y0044475D01*
X0116059Y0097625D01*
X0115075Y0098609D01*
X0063894Y0098609D01*
X0060941Y0095656D01*
X0060941Y0044475D01*
X0063894Y0094672D02*
X0063896Y0094734D01*
X0063902Y0094797D01*
X0063912Y0094858D01*
X0063926Y0094919D01*
X0063943Y0094979D01*
X0063964Y0095038D01*
X0063990Y0095095D01*
X0064018Y0095150D01*
X0064050Y0095204D01*
X0064086Y0095255D01*
X0064124Y0095305D01*
X0064166Y0095351D01*
X0064210Y0095395D01*
X0064258Y0095436D01*
X0064307Y0095474D01*
X0064359Y0095508D01*
X0064413Y0095539D01*
X0064469Y0095567D01*
X0064527Y0095591D01*
X0064586Y0095612D01*
X0064646Y0095628D01*
X0064707Y0095641D01*
X0064769Y0095650D01*
X0064831Y0095655D01*
X0064894Y0095656D01*
X0064956Y0095653D01*
X0065018Y0095646D01*
X0065080Y0095635D01*
X0065140Y0095620D01*
X0065200Y0095602D01*
X0065258Y0095580D01*
X0065315Y0095554D01*
X0065370Y0095524D01*
X0065423Y0095491D01*
X0065474Y0095455D01*
X0065522Y0095416D01*
X0065568Y0095373D01*
X0065611Y0095328D01*
X0065651Y0095280D01*
X0065688Y0095230D01*
X0065722Y0095177D01*
X0065753Y0095123D01*
X0065779Y0095067D01*
X0065803Y0095009D01*
X0065822Y0094949D01*
X0065838Y0094889D01*
X0065850Y0094827D01*
X0065858Y0094766D01*
X0065862Y0094703D01*
X0065862Y0094641D01*
X0065858Y0094578D01*
X0065850Y0094517D01*
X0065838Y0094455D01*
X0065822Y0094395D01*
X0065803Y0094335D01*
X0065779Y0094277D01*
X0065753Y0094221D01*
X0065722Y0094167D01*
X0065688Y0094114D01*
X0065651Y0094064D01*
X0065611Y0094016D01*
X0065568Y0093971D01*
X0065522Y0093928D01*
X0065474Y0093889D01*
X0065423Y0093853D01*
X0065370Y0093820D01*
X0065315Y0093790D01*
X0065258Y0093764D01*
X0065200Y0093742D01*
X0065140Y0093724D01*
X0065080Y0093709D01*
X0065018Y0093698D01*
X0064956Y0093691D01*
X0064894Y0093688D01*
X0064831Y0093689D01*
X0064769Y0093694D01*
X0064707Y0093703D01*
X0064646Y0093716D01*
X0064586Y0093732D01*
X0064527Y0093753D01*
X0064469Y0093777D01*
X0064413Y0093805D01*
X0064359Y0093836D01*
X0064307Y0093870D01*
X0064258Y0093908D01*
X0064210Y0093949D01*
X0064166Y0093993D01*
X0064124Y0094039D01*
X0064086Y0094089D01*
X0064050Y0094140D01*
X0064018Y0094194D01*
X0063990Y0094249D01*
X0063964Y0094306D01*
X0063943Y0094365D01*
X0063926Y0094425D01*
X0063912Y0094486D01*
X0063902Y0094547D01*
X0063896Y0094610D01*
X0063894Y0094672D01*
D18*
X0077587Y0064338D02*
X0079522Y0064338D01*
X0078554Y0064338D02*
X0078554Y0061436D01*
X0080534Y0061920D02*
X0081017Y0061436D01*
X0081985Y0061436D01*
X0082469Y0061920D01*
X0082469Y0063855D01*
X0081985Y0064338D01*
X0081017Y0064338D01*
X0080534Y0063855D01*
X0080534Y0061920D01*
X0081501Y0062403D02*
X0082469Y0061436D01*
X0083480Y0061436D02*
X0083480Y0064338D01*
X0085415Y0064338D01*
X0086427Y0064338D02*
X0087878Y0064338D01*
X0088362Y0063855D01*
X0088362Y0062887D01*
X0087878Y0062403D01*
X0086427Y0062403D01*
X0086427Y0061436D02*
X0086427Y0064338D01*
X0084448Y0062887D02*
X0083480Y0062887D01*
X0092320Y0063371D02*
X0093287Y0064338D01*
X0093287Y0061436D01*
X0092320Y0061436D02*
X0094255Y0061436D01*
X0095266Y0061920D02*
X0097201Y0063855D01*
X0097201Y0061920D01*
X0096717Y0061436D01*
X0095750Y0061436D01*
X0095266Y0061920D01*
X0095266Y0063855D01*
X0095750Y0064338D01*
X0096717Y0064338D01*
X0097201Y0063855D01*
X0098213Y0063855D02*
X0098213Y0061920D01*
X0100148Y0063855D01*
X0100148Y0061920D01*
X0099664Y0061436D01*
X0098696Y0061436D01*
X0098213Y0061920D01*
X0098213Y0063855D02*
X0098696Y0064338D01*
X0099664Y0064338D01*
X0100148Y0063855D01*
D19*
X0118717Y0063176D03*
X0118717Y0067113D03*
X0118717Y0071050D03*
X0118717Y0074987D03*
X0118717Y0078924D03*
X0118717Y0082861D03*
X0118717Y0086798D03*
X0118717Y0090735D03*
X0118717Y0094672D03*
X0118717Y0059239D03*
X0118717Y0055302D03*
X0118717Y0051365D03*
X0118717Y0047428D03*
X0058283Y0047428D03*
X0058283Y0051365D03*
X0058283Y0055302D03*
X0058283Y0059239D03*
X0058283Y0063176D03*
X0058283Y0067113D03*
X0058283Y0071050D03*
X0058283Y0074987D03*
X0058283Y0078924D03*
X0058283Y0082861D03*
X0058283Y0086798D03*
X0058283Y0090735D03*
X0058283Y0094672D03*
D20*
X0058283Y0092704D03*
X0058283Y0088767D03*
X0058283Y0084830D03*
X0058283Y0080893D03*
X0058283Y0076956D03*
X0058283Y0073019D03*
X0058283Y0069081D03*
X0058283Y0065144D03*
X0058283Y0061207D03*
X0058283Y0057270D03*
X0058283Y0053333D03*
X0058283Y0049396D03*
X0118717Y0049396D03*
X0118717Y0053333D03*
X0118717Y0057270D03*
X0118717Y0061207D03*
X0118717Y0065144D03*
X0118717Y0069081D03*
X0118717Y0073019D03*
X0118717Y0076956D03*
X0118717Y0080893D03*
X0118717Y0084830D03*
X0118717Y0088767D03*
X0118717Y0092704D03*
D21*
X0112122Y0101267D03*
X0108185Y0101267D03*
X0104248Y0101267D03*
X0100311Y0101267D03*
X0096374Y0101267D03*
X0092437Y0101267D03*
X0088500Y0101267D03*
X0084563Y0101267D03*
X0080626Y0101267D03*
X0076689Y0101267D03*
X0072752Y0101267D03*
X0068815Y0101267D03*
X0064878Y0101267D03*
X0064878Y0040833D03*
X0068815Y0040833D03*
X0072752Y0040833D03*
X0076689Y0040833D03*
X0080626Y0040833D03*
X0084563Y0040833D03*
X0088500Y0040833D03*
X0092437Y0040833D03*
X0096374Y0040833D03*
X0100311Y0040833D03*
X0104248Y0040833D03*
X0108185Y0040833D03*
X0112122Y0040833D03*
D22*
X0110154Y0040833D03*
X0106217Y0040833D03*
X0102280Y0040833D03*
X0098343Y0040833D03*
X0094406Y0040833D03*
X0090469Y0040833D03*
X0086531Y0040833D03*
X0082594Y0040833D03*
X0078657Y0040833D03*
X0074720Y0040833D03*
X0070783Y0040833D03*
X0066846Y0040833D03*
X0066846Y0101267D03*
X0070783Y0101267D03*
X0074720Y0101267D03*
X0078657Y0101267D03*
X0082594Y0101267D03*
X0086531Y0101267D03*
X0090469Y0101267D03*
X0094406Y0101267D03*
X0098343Y0101267D03*
X0102280Y0101267D03*
X0106217Y0101267D03*
X0110154Y0101267D03*
M02*
