G75*
%MOIN*%
%OFA0B0*%
%FSLAX25Y25*%
%IPPOS*%
%LPD*%
%AMOC8*
5,1,8,0,0,1.08239X$1,22.5*
%
%ADD10C,0.00000*%
%ADD11C,0.00500*%
%ADD12C,0.00600*%
%ADD13C,0.02000*%
%ADD14C,0.00400*%
D10*
X0001500Y0004550D02*
X0004000Y0002050D01*
X0198000Y0002050D01*
X0200500Y0004550D01*
X0200500Y0122050D01*
X0198000Y0124550D01*
X0004000Y0124550D01*
X0001500Y0122050D01*
X0001500Y0004550D01*
D11*
X0004650Y0014660D02*
X0007352Y0014660D01*
X0007352Y0016012D01*
X0006902Y0016462D01*
X0006001Y0016462D01*
X0005551Y0016012D01*
X0005551Y0014660D01*
X0005551Y0015561D02*
X0004650Y0016462D01*
X0004650Y0017607D02*
X0004650Y0019409D01*
X0004650Y0018508D02*
X0007352Y0018508D01*
X0006452Y0017607D01*
X0006902Y0020553D02*
X0005100Y0020553D01*
X0006902Y0022355D01*
X0005100Y0022355D01*
X0004650Y0021905D01*
X0004650Y0021004D01*
X0005100Y0020553D01*
X0006902Y0020553D02*
X0007352Y0021004D01*
X0007352Y0021905D01*
X0006902Y0022355D01*
X0040955Y0043600D02*
X0042757Y0043600D01*
X0041856Y0043600D02*
X0041856Y0046302D01*
X0042757Y0045402D01*
X0044803Y0046302D02*
X0044803Y0043600D01*
X0045703Y0043600D02*
X0043902Y0043600D01*
X0045703Y0045402D02*
X0044803Y0046302D01*
X0046848Y0045852D02*
X0046848Y0044951D01*
X0047299Y0044501D01*
X0048650Y0044501D01*
X0047749Y0044501D02*
X0046848Y0043600D01*
X0048650Y0043600D02*
X0048650Y0046302D01*
X0047299Y0046302D01*
X0046848Y0045852D01*
X0068950Y0043995D02*
X0068950Y0042193D01*
X0070752Y0043995D01*
X0071202Y0043995D01*
X0071652Y0043544D01*
X0071652Y0042643D01*
X0071202Y0042193D01*
X0071652Y0040147D02*
X0068950Y0040147D01*
X0068950Y0039247D02*
X0068950Y0041048D01*
X0070752Y0039247D02*
X0071652Y0040147D01*
X0071202Y0038102D02*
X0070301Y0038102D01*
X0069851Y0037651D01*
X0069851Y0036300D01*
X0069851Y0037201D02*
X0068950Y0038102D01*
X0068950Y0036300D02*
X0071652Y0036300D01*
X0071652Y0037651D01*
X0071202Y0038102D01*
X0076955Y0032002D02*
X0078757Y0032002D01*
X0078757Y0030651D01*
X0077856Y0031102D01*
X0077406Y0031102D01*
X0076955Y0030651D01*
X0076955Y0029750D01*
X0077406Y0029300D01*
X0078307Y0029300D01*
X0078757Y0029750D01*
X0079902Y0029300D02*
X0081703Y0029300D01*
X0080803Y0029300D02*
X0080803Y0032002D01*
X0081703Y0031102D01*
X0082848Y0031552D02*
X0083299Y0032002D01*
X0084200Y0032002D01*
X0084650Y0031552D01*
X0084650Y0029750D01*
X0084200Y0029300D01*
X0083299Y0029300D01*
X0082848Y0029750D01*
X0092255Y0030150D02*
X0092255Y0030601D01*
X0092706Y0031051D01*
X0094057Y0031051D01*
X0094057Y0030150D01*
X0093607Y0029700D01*
X0092706Y0029700D01*
X0092255Y0030150D01*
X0093156Y0031952D02*
X0094057Y0031051D01*
X0093156Y0031952D02*
X0092255Y0032402D01*
X0096103Y0032402D02*
X0096103Y0029700D01*
X0097003Y0029700D02*
X0095202Y0029700D01*
X0097003Y0031502D02*
X0096103Y0032402D01*
X0098148Y0031952D02*
X0098599Y0032402D01*
X0099500Y0032402D01*
X0099950Y0031952D01*
X0099950Y0030150D01*
X0099500Y0029700D01*
X0098599Y0029700D01*
X0098148Y0030150D01*
X0121150Y0020955D02*
X0121150Y0019153D01*
X0122952Y0020955D01*
X0123402Y0020955D01*
X0123852Y0020505D01*
X0123852Y0019604D01*
X0123402Y0019153D01*
X0123402Y0018009D02*
X0122952Y0018009D01*
X0122501Y0017558D01*
X0122051Y0018009D01*
X0121600Y0018009D01*
X0121150Y0017558D01*
X0121150Y0016657D01*
X0121600Y0016207D01*
X0121600Y0015062D02*
X0121150Y0014612D01*
X0121150Y0013711D01*
X0121600Y0013260D01*
X0123402Y0013260D01*
X0123852Y0013711D01*
X0123852Y0014612D01*
X0123402Y0015062D01*
X0123402Y0016207D02*
X0123852Y0016657D01*
X0123852Y0017558D01*
X0123402Y0018009D01*
X0122501Y0017558D02*
X0122501Y0017108D01*
X0130300Y0052460D02*
X0129850Y0052911D01*
X0129850Y0053812D01*
X0130300Y0054262D01*
X0129850Y0055407D02*
X0131652Y0057209D01*
X0132102Y0057209D01*
X0132552Y0056758D01*
X0132552Y0055857D01*
X0132102Y0055407D01*
X0132102Y0054262D02*
X0132552Y0053812D01*
X0132552Y0052911D01*
X0132102Y0052460D01*
X0130300Y0052460D01*
X0129850Y0055407D02*
X0129850Y0057209D01*
X0129850Y0058353D02*
X0129850Y0060155D01*
X0129850Y0059254D02*
X0132552Y0059254D01*
X0131652Y0058353D01*
X0146450Y0058804D02*
X0146900Y0058353D01*
X0148702Y0060155D01*
X0146900Y0060155D01*
X0146450Y0059705D01*
X0146450Y0058804D01*
X0146900Y0058353D02*
X0148702Y0058353D01*
X0149152Y0058804D01*
X0149152Y0059705D01*
X0148702Y0060155D01*
X0148702Y0057209D02*
X0149152Y0056758D01*
X0149152Y0055857D01*
X0148702Y0055407D01*
X0148702Y0054262D02*
X0149152Y0053812D01*
X0149152Y0052911D01*
X0148702Y0052460D01*
X0146900Y0052460D01*
X0146450Y0052911D01*
X0146450Y0053812D01*
X0146900Y0054262D01*
X0146450Y0055407D02*
X0148252Y0057209D01*
X0148702Y0057209D01*
X0146450Y0057209D02*
X0146450Y0055407D01*
X0154606Y0063600D02*
X0154155Y0064050D01*
X0154155Y0064501D01*
X0154606Y0064951D01*
X0155056Y0064951D01*
X0154606Y0064951D02*
X0154155Y0065402D01*
X0154155Y0065852D01*
X0154606Y0066302D01*
X0155507Y0066302D01*
X0155957Y0065852D01*
X0157102Y0065852D02*
X0157102Y0065402D01*
X0158903Y0063600D01*
X0157102Y0063600D01*
X0155957Y0064050D02*
X0155507Y0063600D01*
X0154606Y0063600D01*
X0157102Y0065852D02*
X0157552Y0066302D01*
X0158453Y0066302D01*
X0158903Y0065852D01*
X0160048Y0065852D02*
X0160499Y0066302D01*
X0161400Y0066302D01*
X0161850Y0065852D01*
X0161850Y0064050D01*
X0161400Y0063600D01*
X0160499Y0063600D01*
X0160048Y0064050D01*
X0170609Y0070250D02*
X0171059Y0069800D01*
X0171960Y0069800D01*
X0172410Y0070250D01*
X0173555Y0069800D02*
X0175357Y0069800D01*
X0173555Y0071602D01*
X0173555Y0072052D01*
X0174006Y0072502D01*
X0174907Y0072502D01*
X0175357Y0072052D01*
X0176502Y0072502D02*
X0176502Y0069800D01*
X0178303Y0072502D01*
X0178303Y0069800D01*
X0179448Y0069800D02*
X0180349Y0070701D01*
X0179899Y0070701D02*
X0181250Y0070701D01*
X0181250Y0069800D02*
X0181250Y0072502D01*
X0179899Y0072502D01*
X0179448Y0072052D01*
X0179448Y0071151D01*
X0179899Y0070701D01*
X0172410Y0072052D02*
X0171960Y0072502D01*
X0171059Y0072502D01*
X0170609Y0072052D01*
X0170609Y0071602D01*
X0171059Y0071151D01*
X0170609Y0070701D01*
X0170609Y0070250D01*
X0171059Y0071151D02*
X0171510Y0071151D01*
X0176706Y0079700D02*
X0177607Y0079700D01*
X0178057Y0080150D01*
X0178057Y0080601D01*
X0177607Y0081051D01*
X0176706Y0081051D01*
X0176255Y0080601D01*
X0176255Y0080150D01*
X0176706Y0079700D01*
X0179202Y0079700D02*
X0181003Y0079700D01*
X0179202Y0081502D01*
X0179202Y0081952D01*
X0179652Y0082402D01*
X0180553Y0082402D01*
X0181003Y0081952D01*
X0182148Y0081952D02*
X0182599Y0082402D01*
X0183500Y0082402D01*
X0183950Y0081952D01*
X0183950Y0080150D01*
X0183500Y0079700D01*
X0182599Y0079700D01*
X0182148Y0080150D01*
X0178057Y0081502D02*
X0178057Y0081952D01*
X0177607Y0082402D01*
X0176706Y0082402D01*
X0176255Y0081952D01*
X0176255Y0081502D01*
X0176706Y0081051D01*
X0177607Y0081051D02*
X0178057Y0081502D01*
X0178803Y0096300D02*
X0177002Y0096300D01*
X0175857Y0096300D02*
X0175857Y0096750D01*
X0174055Y0098552D01*
X0174055Y0099002D01*
X0175857Y0099002D01*
X0177002Y0098552D02*
X0177452Y0099002D01*
X0178353Y0099002D01*
X0178803Y0098552D01*
X0179948Y0098552D02*
X0180399Y0099002D01*
X0181300Y0099002D01*
X0181750Y0098552D01*
X0181750Y0096750D01*
X0181300Y0096300D01*
X0180399Y0096300D01*
X0179948Y0096750D01*
X0178803Y0096300D02*
X0177002Y0098102D01*
X0177002Y0098552D01*
X0161850Y0098752D02*
X0161850Y0096950D01*
X0161400Y0096500D01*
X0160499Y0096500D01*
X0160048Y0096950D01*
X0158903Y0096500D02*
X0157102Y0098302D01*
X0157102Y0098752D01*
X0157552Y0099202D01*
X0158453Y0099202D01*
X0158903Y0098752D01*
X0160048Y0098752D02*
X0160499Y0099202D01*
X0161400Y0099202D01*
X0161850Y0098752D01*
X0158903Y0096500D02*
X0157102Y0096500D01*
X0155957Y0096950D02*
X0155507Y0096500D01*
X0154606Y0096500D01*
X0154155Y0096950D01*
X0154155Y0097851D01*
X0154606Y0098302D01*
X0155056Y0098302D01*
X0155957Y0097851D01*
X0155957Y0099202D01*
X0154155Y0099202D01*
X0150450Y0109200D02*
X0150450Y0111902D01*
X0149099Y0111902D01*
X0148648Y0111452D01*
X0148648Y0110551D01*
X0149099Y0110101D01*
X0150450Y0110101D01*
X0149549Y0110101D02*
X0148648Y0109200D01*
X0147503Y0109200D02*
X0145702Y0111002D01*
X0145702Y0111452D01*
X0146152Y0111902D01*
X0147053Y0111902D01*
X0147503Y0111452D01*
X0144557Y0111452D02*
X0144107Y0111902D01*
X0143206Y0111902D01*
X0142755Y0111452D01*
X0142755Y0111002D01*
X0144557Y0109200D01*
X0142755Y0109200D01*
X0145702Y0109200D02*
X0147503Y0109200D01*
X0147753Y0087002D02*
X0148203Y0086552D01*
X0147753Y0087002D02*
X0146852Y0087002D01*
X0146402Y0086552D01*
X0146402Y0086102D01*
X0148203Y0084300D01*
X0146402Y0084300D01*
X0145257Y0085651D02*
X0143455Y0085651D01*
X0143906Y0084300D02*
X0143906Y0087002D01*
X0145257Y0085651D01*
X0149348Y0084750D02*
X0149799Y0084300D01*
X0150700Y0084300D01*
X0151150Y0084750D01*
X0151150Y0086552D01*
X0150700Y0087002D01*
X0149799Y0087002D01*
X0149348Y0086552D01*
X0149699Y0079602D02*
X0150600Y0079602D01*
X0151050Y0079152D01*
X0151050Y0077350D01*
X0150600Y0076900D01*
X0149699Y0076900D01*
X0149248Y0077350D01*
X0148103Y0076900D02*
X0146302Y0078702D01*
X0146302Y0079152D01*
X0146752Y0079602D01*
X0147653Y0079602D01*
X0148103Y0079152D01*
X0149248Y0079152D02*
X0149699Y0079602D01*
X0148103Y0076900D02*
X0146302Y0076900D01*
X0145157Y0076900D02*
X0143355Y0078702D01*
X0143355Y0079152D01*
X0143806Y0079602D01*
X0144707Y0079602D01*
X0145157Y0079152D01*
X0145157Y0076900D02*
X0143355Y0076900D01*
X0106552Y0076208D02*
X0105652Y0075307D01*
X0106102Y0074162D02*
X0106552Y0073712D01*
X0106552Y0072811D01*
X0106102Y0072360D01*
X0104300Y0072360D01*
X0103850Y0072811D01*
X0103850Y0073712D01*
X0104300Y0074162D01*
X0103850Y0075307D02*
X0103850Y0077109D01*
X0103850Y0076208D02*
X0106552Y0076208D01*
X0106102Y0078253D02*
X0106552Y0078704D01*
X0106552Y0079605D01*
X0106102Y0080055D01*
X0105652Y0080055D01*
X0103850Y0078253D01*
X0103850Y0080055D01*
X0084852Y0080600D02*
X0084852Y0081501D01*
X0084402Y0081951D01*
X0082600Y0080150D01*
X0082150Y0080600D01*
X0082150Y0081501D01*
X0082600Y0081951D01*
X0084402Y0081951D01*
X0084852Y0083096D02*
X0082150Y0083096D01*
X0082150Y0084898D01*
X0082150Y0086043D02*
X0082150Y0087844D01*
X0082150Y0088989D02*
X0082150Y0090340D01*
X0082600Y0090791D01*
X0083051Y0090340D01*
X0083051Y0089440D01*
X0083501Y0088989D01*
X0083952Y0089440D01*
X0083952Y0090791D01*
X0084852Y0091936D02*
X0083952Y0092836D01*
X0083051Y0092836D01*
X0082150Y0091936D01*
X0084852Y0087844D02*
X0084852Y0086043D01*
X0082150Y0086043D01*
X0083501Y0086043D02*
X0083501Y0086943D01*
X0084852Y0080600D02*
X0084402Y0080150D01*
X0082600Y0080150D01*
X0084402Y0079005D02*
X0082600Y0077203D01*
X0082150Y0077203D01*
X0082600Y0076058D02*
X0082150Y0075608D01*
X0082150Y0074707D01*
X0082600Y0074257D01*
X0083501Y0074257D02*
X0083952Y0075157D01*
X0083952Y0075608D01*
X0083501Y0076058D01*
X0082600Y0076058D01*
X0084852Y0076058D02*
X0084852Y0074257D01*
X0083501Y0074257D01*
X0082150Y0073193D02*
X0083051Y0072292D01*
X0083952Y0072292D01*
X0084852Y0073193D01*
X0084852Y0077203D02*
X0084852Y0079005D01*
X0084402Y0079005D01*
X0072552Y0068144D02*
X0072102Y0068595D01*
X0070300Y0066793D01*
X0069850Y0067243D01*
X0069850Y0068144D01*
X0070300Y0068595D01*
X0072102Y0068595D01*
X0072552Y0068144D02*
X0072552Y0067243D01*
X0072102Y0066793D01*
X0070300Y0066793D01*
X0069850Y0065648D02*
X0069850Y0063847D01*
X0069850Y0064747D02*
X0072552Y0064747D01*
X0071652Y0063847D01*
X0072102Y0062702D02*
X0072552Y0062251D01*
X0072552Y0061350D01*
X0072102Y0060900D01*
X0070300Y0060900D01*
X0069850Y0061350D01*
X0069850Y0062251D01*
X0070300Y0062702D01*
X0090456Y0056202D02*
X0090456Y0053500D01*
X0091357Y0053500D02*
X0089555Y0053500D01*
X0092502Y0053500D02*
X0094303Y0053500D01*
X0093403Y0053500D02*
X0093403Y0056202D01*
X0094303Y0055302D01*
X0095448Y0055752D02*
X0095899Y0056202D01*
X0096800Y0056202D01*
X0097250Y0055752D01*
X0097250Y0053950D01*
X0096800Y0053500D01*
X0095899Y0053500D01*
X0095448Y0053950D01*
X0091357Y0055302D02*
X0090456Y0056202D01*
X0104050Y0055808D02*
X0106752Y0055808D01*
X0105852Y0054907D01*
X0106302Y0053762D02*
X0106752Y0053312D01*
X0106752Y0052411D01*
X0106302Y0051960D01*
X0104500Y0051960D01*
X0104050Y0052411D01*
X0104050Y0053312D01*
X0104500Y0053762D01*
X0104050Y0054907D02*
X0104050Y0056709D01*
X0104050Y0057853D02*
X0104500Y0057853D01*
X0106302Y0059655D01*
X0106752Y0059655D01*
X0106752Y0057853D01*
X0071552Y0095700D02*
X0068850Y0095700D01*
X0070201Y0095700D02*
X0070201Y0096601D01*
X0071552Y0095700D02*
X0071552Y0097502D01*
X0071552Y0098647D02*
X0071552Y0099998D01*
X0071102Y0100448D01*
X0070652Y0100448D01*
X0070201Y0099998D01*
X0070201Y0098647D01*
X0070201Y0099998D02*
X0069751Y0100448D01*
X0069300Y0100448D01*
X0068850Y0099998D01*
X0068850Y0098647D01*
X0071552Y0098647D01*
X0071102Y0101593D02*
X0071552Y0102043D01*
X0071552Y0102944D01*
X0071102Y0103395D01*
X0070652Y0103395D01*
X0070201Y0102944D01*
X0069751Y0103395D01*
X0069300Y0103395D01*
X0068850Y0102944D01*
X0068850Y0102043D01*
X0069300Y0101593D01*
X0070201Y0102494D02*
X0070201Y0102944D01*
X0060702Y0112660D02*
X0058900Y0112660D01*
X0058450Y0113111D01*
X0058450Y0114012D01*
X0058900Y0114462D01*
X0059801Y0115607D02*
X0059801Y0117409D01*
X0058450Y0116958D02*
X0061152Y0116958D01*
X0059801Y0115607D01*
X0060702Y0114462D02*
X0061152Y0114012D01*
X0061152Y0113111D01*
X0060702Y0112660D01*
X0060702Y0118553D02*
X0061152Y0119004D01*
X0061152Y0119905D01*
X0060702Y0120355D01*
X0060252Y0120355D01*
X0058450Y0118553D01*
X0058450Y0120355D01*
X0075755Y0120752D02*
X0075755Y0118950D01*
X0076206Y0118500D01*
X0077107Y0118500D01*
X0077557Y0118950D01*
X0077107Y0119851D02*
X0075755Y0119851D01*
X0075755Y0120752D02*
X0076206Y0121202D01*
X0077107Y0121202D01*
X0077557Y0120752D01*
X0077557Y0120302D01*
X0077107Y0119851D01*
X0078702Y0118500D02*
X0080503Y0118500D01*
X0079603Y0118500D02*
X0079603Y0121202D01*
X0080503Y0120302D01*
X0081648Y0120752D02*
X0082099Y0121202D01*
X0083000Y0121202D01*
X0083450Y0120752D01*
X0083450Y0118950D01*
X0083000Y0118500D01*
X0082099Y0118500D01*
X0081648Y0118950D01*
X0101355Y0118950D02*
X0101806Y0118500D01*
X0102707Y0118500D01*
X0103157Y0118950D01*
X0103157Y0119401D01*
X0102707Y0119851D01*
X0101806Y0119851D01*
X0101355Y0119401D01*
X0101355Y0118950D01*
X0101806Y0119851D02*
X0101355Y0120302D01*
X0101355Y0120752D01*
X0101806Y0121202D01*
X0102707Y0121202D01*
X0103157Y0120752D01*
X0103157Y0120302D01*
X0102707Y0119851D01*
X0104302Y0118500D02*
X0106103Y0118500D01*
X0105203Y0118500D02*
X0105203Y0121202D01*
X0106103Y0120302D01*
X0107248Y0120752D02*
X0107699Y0121202D01*
X0108600Y0121202D01*
X0109050Y0120752D01*
X0109050Y0118950D01*
X0108600Y0118500D01*
X0107699Y0118500D01*
X0107248Y0118950D01*
X0097400Y0099402D02*
X0097850Y0098952D01*
X0097850Y0097150D01*
X0097400Y0096700D01*
X0096499Y0096700D01*
X0096048Y0097150D01*
X0094903Y0096700D02*
X0093102Y0096700D01*
X0094003Y0096700D02*
X0094003Y0099402D01*
X0094903Y0098502D01*
X0096048Y0098952D02*
X0096499Y0099402D01*
X0097400Y0099402D01*
X0091957Y0098952D02*
X0091507Y0099402D01*
X0090606Y0099402D01*
X0090155Y0098952D01*
X0090155Y0098502D01*
X0090606Y0098051D01*
X0090155Y0097601D01*
X0090155Y0097150D01*
X0090606Y0096700D01*
X0091507Y0096700D01*
X0091957Y0097150D01*
X0091056Y0098051D02*
X0090606Y0098051D01*
X0044650Y0081552D02*
X0044650Y0079750D01*
X0044200Y0079300D01*
X0043299Y0079300D01*
X0042848Y0079750D01*
X0041703Y0079300D02*
X0039902Y0079300D01*
X0040803Y0079300D02*
X0040803Y0082002D01*
X0041703Y0081102D01*
X0042848Y0081552D02*
X0043299Y0082002D01*
X0044200Y0082002D01*
X0044650Y0081552D01*
X0038757Y0080651D02*
X0036955Y0080651D01*
X0037406Y0079300D02*
X0037406Y0082002D01*
X0038757Y0080651D01*
X0011350Y0081432D02*
X0011350Y0082333D01*
X0010900Y0082783D01*
X0009999Y0082783D01*
X0009548Y0082333D01*
X0009548Y0081432D01*
X0009999Y0080982D01*
X0010449Y0080982D01*
X0010449Y0082783D01*
X0010900Y0083928D02*
X0010449Y0084379D01*
X0010449Y0085279D01*
X0009999Y0085730D01*
X0009548Y0085279D01*
X0009548Y0083928D01*
X0010900Y0083928D02*
X0011350Y0084379D01*
X0011350Y0085730D01*
X0011350Y0086875D02*
X0009548Y0086875D01*
X0009548Y0088676D02*
X0010900Y0088676D01*
X0011350Y0088226D01*
X0011350Y0086875D01*
X0006550Y0086875D02*
X0004748Y0086875D01*
X0005199Y0085730D02*
X0004748Y0085279D01*
X0004748Y0083928D01*
X0005649Y0084379D02*
X0005649Y0085279D01*
X0005199Y0085730D01*
X0006550Y0085730D02*
X0006550Y0084379D01*
X0006100Y0083928D01*
X0005649Y0084379D01*
X0005649Y0082783D02*
X0005649Y0080982D01*
X0005199Y0080982D01*
X0004748Y0081432D01*
X0004748Y0082333D01*
X0005199Y0082783D01*
X0006100Y0082783D01*
X0006550Y0082333D01*
X0006550Y0081432D01*
X0006100Y0076890D02*
X0003848Y0076890D01*
X0003848Y0075089D02*
X0006100Y0075089D01*
X0006550Y0075539D01*
X0006550Y0076440D01*
X0006100Y0076890D01*
X0008648Y0076890D02*
X0008648Y0075089D01*
X0008648Y0073944D02*
X0008648Y0072593D01*
X0009098Y0072142D01*
X0009548Y0072142D01*
X0009999Y0072593D01*
X0009999Y0073944D01*
X0011350Y0073944D02*
X0008648Y0073944D01*
X0009999Y0072593D02*
X0010449Y0072142D01*
X0010900Y0072142D01*
X0011350Y0072593D01*
X0011350Y0073944D01*
X0009999Y0075989D02*
X0009999Y0076890D01*
X0011350Y0076890D02*
X0008648Y0076890D01*
X0005199Y0073944D02*
X0005199Y0072142D01*
X0006550Y0072593D02*
X0003848Y0072593D01*
X0005199Y0073944D01*
X0007451Y0070997D02*
X0006550Y0070096D01*
X0006550Y0070547D01*
X0006100Y0070547D01*
X0006100Y0070096D01*
X0006550Y0070096D01*
X0006100Y0069033D02*
X0004298Y0069033D01*
X0003848Y0068582D01*
X0003848Y0067682D01*
X0004298Y0067231D01*
X0005199Y0066086D02*
X0005199Y0064285D01*
X0004748Y0063140D02*
X0003848Y0062239D01*
X0006550Y0062239D01*
X0006550Y0063140D02*
X0006550Y0061338D01*
X0007451Y0060193D02*
X0006550Y0059293D01*
X0006550Y0059743D01*
X0006100Y0059743D01*
X0006100Y0059293D01*
X0006550Y0059293D01*
X0006100Y0058229D02*
X0004298Y0058229D01*
X0003848Y0057779D01*
X0003848Y0056878D01*
X0004298Y0056427D01*
X0005199Y0055282D02*
X0005199Y0053481D01*
X0006550Y0053931D02*
X0003848Y0053931D01*
X0005199Y0055282D01*
X0006100Y0056427D02*
X0006550Y0056878D01*
X0006550Y0057779D01*
X0006100Y0058229D01*
X0006550Y0052336D02*
X0004748Y0050534D01*
X0004298Y0050534D01*
X0003848Y0050985D01*
X0003848Y0051886D01*
X0004298Y0052336D01*
X0006550Y0052336D02*
X0006550Y0050534D01*
X0006550Y0064735D02*
X0003848Y0064735D01*
X0005199Y0066086D01*
X0006100Y0067231D02*
X0006550Y0067682D01*
X0006550Y0068582D01*
X0006100Y0069033D01*
X0008197Y0068051D02*
X0009999Y0068051D01*
X0010900Y0068051D02*
X0011350Y0068051D01*
X0011350Y0067069D02*
X0010900Y0067069D01*
X0009999Y0067069D02*
X0008197Y0067069D01*
X0008197Y0066086D02*
X0009999Y0066086D01*
X0010900Y0066086D02*
X0011350Y0066086D01*
X0010900Y0069196D02*
X0011350Y0069646D01*
X0011350Y0070547D01*
X0010900Y0070997D01*
X0009999Y0070096D02*
X0009999Y0069646D01*
X0010449Y0069196D01*
X0010900Y0069196D01*
X0009999Y0069646D02*
X0009548Y0069196D01*
X0009098Y0069196D01*
X0008648Y0069646D01*
X0008648Y0070547D01*
X0009098Y0070997D01*
X0006550Y0086875D02*
X0006550Y0088226D01*
X0006100Y0088676D01*
X0004748Y0088676D01*
X0004748Y0092686D02*
X0004748Y0093587D01*
X0004298Y0093137D02*
X0006100Y0093137D01*
X0006550Y0092686D01*
X0008197Y0094610D02*
X0009098Y0094610D01*
X0009548Y0095060D01*
X0009999Y0096205D02*
X0011350Y0096205D01*
X0009999Y0096205D02*
X0009548Y0096656D01*
X0009548Y0098007D01*
X0011350Y0098007D01*
X0010900Y0099152D02*
X0009999Y0099152D01*
X0009548Y0099602D01*
X0009548Y0100503D01*
X0009999Y0100953D01*
X0010900Y0100953D01*
X0011350Y0100503D01*
X0011350Y0099602D01*
X0010900Y0099152D01*
X0010900Y0102098D02*
X0009098Y0102098D01*
X0008648Y0102549D01*
X0008648Y0103900D01*
X0011350Y0103900D01*
X0011350Y0102549D01*
X0010900Y0102098D01*
X0006550Y0102549D02*
X0006100Y0102098D01*
X0004298Y0102098D01*
X0003848Y0102549D01*
X0003848Y0103900D01*
X0006550Y0103900D01*
X0006550Y0102549D01*
X0006100Y0100953D02*
X0005199Y0100953D01*
X0004748Y0100503D01*
X0004748Y0099602D01*
X0005199Y0099152D01*
X0006100Y0099152D01*
X0006550Y0099602D01*
X0006550Y0100503D01*
X0006100Y0100953D01*
X0006550Y0098007D02*
X0004748Y0098007D01*
X0004748Y0096656D01*
X0005199Y0096205D01*
X0006550Y0096205D01*
X0004748Y0095060D02*
X0004298Y0094610D01*
X0003397Y0094610D01*
X0009098Y0093137D02*
X0010900Y0093137D01*
X0011350Y0092686D01*
X0009548Y0092686D02*
X0009548Y0093587D01*
X0006550Y0106181D02*
X0006550Y0106632D01*
X0006100Y0106632D01*
X0006100Y0106181D01*
X0006550Y0106181D01*
X0005199Y0106181D02*
X0005199Y0106632D01*
X0004748Y0106632D01*
X0004748Y0106181D01*
X0005199Y0106181D01*
X0006550Y0107695D02*
X0006550Y0108596D01*
X0006550Y0108146D02*
X0003848Y0108146D01*
X0003848Y0108596D02*
X0003848Y0107695D01*
X0003848Y0109660D02*
X0003848Y0110560D01*
X0003848Y0110110D02*
X0006550Y0110110D01*
X0006550Y0110560D02*
X0006550Y0109660D01*
X0006550Y0111705D02*
X0004748Y0113507D01*
X0005199Y0114652D02*
X0006550Y0114652D01*
X0006550Y0116003D01*
X0006100Y0116453D01*
X0005649Y0116003D01*
X0005649Y0114652D01*
X0005199Y0114652D02*
X0004748Y0115102D01*
X0004748Y0116003D01*
X0003848Y0117598D02*
X0006550Y0117598D01*
X0006550Y0119400D02*
X0003848Y0119400D01*
X0004748Y0118499D01*
X0003848Y0117598D01*
X0008648Y0117598D02*
X0011350Y0117598D01*
X0010900Y0116453D02*
X0010449Y0116003D01*
X0010449Y0114652D01*
X0009999Y0114652D02*
X0011350Y0114652D01*
X0011350Y0116003D01*
X0010900Y0116453D01*
X0009548Y0116003D02*
X0009548Y0115102D01*
X0009999Y0114652D01*
X0009548Y0113507D02*
X0011350Y0111705D01*
X0010449Y0110560D02*
X0011350Y0109660D01*
X0010449Y0108759D01*
X0008648Y0108759D01*
X0009548Y0107614D02*
X0009999Y0107614D01*
X0009999Y0107164D01*
X0009548Y0107164D01*
X0009548Y0107614D01*
X0010900Y0107614D02*
X0011350Y0107614D01*
X0011350Y0107164D01*
X0010900Y0107164D01*
X0010900Y0107614D01*
X0010449Y0110560D02*
X0008648Y0110560D01*
X0009548Y0111705D02*
X0011350Y0113507D01*
X0006550Y0113507D02*
X0004748Y0111705D01*
X0008648Y0117598D02*
X0009548Y0118499D01*
X0008648Y0119400D01*
X0011350Y0119400D01*
X0028650Y0117355D02*
X0028650Y0115553D01*
X0028650Y0116454D02*
X0031352Y0116454D01*
X0030452Y0115553D01*
X0030001Y0114409D02*
X0030001Y0112607D01*
X0031352Y0113958D01*
X0028650Y0113958D01*
X0029100Y0111462D02*
X0028650Y0111012D01*
X0028650Y0110111D01*
X0029100Y0109660D01*
X0030902Y0109660D01*
X0031352Y0110111D01*
X0031352Y0111012D01*
X0030902Y0111462D01*
D12*
X0026500Y0112581D02*
X0026500Y0105550D01*
X0031047Y0105550D01*
X0034984Y0105550D02*
X0039531Y0105550D01*
X0043469Y0105550D02*
X0048016Y0105550D01*
X0051953Y0105550D02*
X0056500Y0105550D01*
X0073000Y0105550D01*
X0073000Y0112581D01*
X0073000Y0116519D02*
X0073000Y0123550D01*
X0068531Y0123550D01*
X0064594Y0123550D02*
X0060125Y0123550D01*
X0056188Y0123550D02*
X0051719Y0123550D01*
X0047781Y0123550D02*
X0043312Y0123550D01*
X0039375Y0123550D02*
X0034906Y0123550D01*
X0030969Y0123550D02*
X0026500Y0123550D01*
X0026500Y0116519D01*
X0023185Y0117563D02*
X0017179Y0117563D01*
X0017043Y0118161D02*
X0023348Y0118161D01*
X0023512Y0118760D02*
X0016907Y0118760D01*
X0016771Y0119358D02*
X0023675Y0119358D01*
X0023838Y0119957D02*
X0016635Y0119957D01*
X0016500Y0120550D02*
X0019000Y0109550D01*
X0021000Y0109550D01*
X0024000Y0120550D01*
X0016500Y0120550D01*
X0012500Y0121050D02*
X0012500Y0116550D01*
X0017315Y0116964D02*
X0023022Y0116964D01*
X0022859Y0116366D02*
X0017451Y0116366D01*
X0017587Y0115767D02*
X0022696Y0115767D01*
X0022532Y0115169D02*
X0017723Y0115169D01*
X0017859Y0114570D02*
X0022369Y0114570D01*
X0022206Y0113972D02*
X0017995Y0113972D01*
X0018131Y0113373D02*
X0022043Y0113373D01*
X0021879Y0112775D02*
X0018267Y0112775D01*
X0018403Y0112176D02*
X0021716Y0112176D01*
X0021553Y0111578D02*
X0018539Y0111578D01*
X0018675Y0110979D02*
X0021390Y0110979D01*
X0021227Y0110381D02*
X0018811Y0110381D01*
X0018947Y0109782D02*
X0021063Y0109782D01*
X0012500Y0108112D02*
X0012500Y0112613D01*
X0002500Y0112613D02*
X0002500Y0108112D01*
X0002500Y0104175D02*
X0002500Y0099675D01*
X0002500Y0095738D02*
X0002500Y0091237D01*
X0002500Y0087300D02*
X0002500Y0082800D01*
X0002500Y0078863D02*
X0002500Y0074362D01*
X0002500Y0070425D02*
X0002500Y0065925D01*
X0002500Y0061988D02*
X0002500Y0057487D01*
X0002500Y0053550D02*
X0002500Y0049050D01*
X0012500Y0049050D01*
X0012500Y0053550D01*
X0012500Y0057487D02*
X0012500Y0061988D01*
X0012500Y0065925D02*
X0012500Y0070425D01*
X0012500Y0074362D02*
X0012500Y0078863D01*
X0012500Y0082800D02*
X0012500Y0087300D01*
X0012500Y0091237D02*
X0012500Y0095738D01*
X0012500Y0099675D02*
X0012500Y0104175D01*
X0002500Y0116550D02*
X0002500Y0121050D01*
X0003000Y0121050D01*
X0012500Y0121050D01*
X0032938Y0117800D02*
X0032938Y0115300D01*
X0036063Y0115300D02*
X0036063Y0117800D01*
X0039200Y0116568D02*
X0042603Y0116568D01*
X0040901Y0114867D01*
X0040901Y0117135D01*
X0043902Y0118239D02*
X0044272Y0118239D01*
X0043902Y0118239D02*
X0043902Y0111861D01*
X0044272Y0111861D01*
X0042603Y0111184D02*
X0039767Y0111184D01*
X0039200Y0111751D01*
X0039200Y0112885D01*
X0039767Y0113452D01*
X0042603Y0113452D01*
X0047445Y0111861D02*
X0047815Y0111861D01*
X0051185Y0111861D02*
X0051555Y0111861D01*
X0054728Y0111861D02*
X0055098Y0111861D01*
X0055098Y0118239D01*
X0054728Y0118239D01*
X0051555Y0118239D02*
X0047445Y0118239D01*
X0062937Y0117800D02*
X0062937Y0115300D01*
X0066063Y0115300D02*
X0066063Y0117800D01*
X0078750Y0116612D02*
X0081250Y0116612D01*
X0081250Y0113487D02*
X0078750Y0113487D01*
X0073000Y0105550D02*
X0073000Y0100769D01*
X0073000Y0096831D02*
X0073000Y0092050D01*
X0066719Y0092050D01*
X0062781Y0092050D02*
X0056500Y0092050D01*
X0056500Y0096831D01*
X0056500Y0100769D02*
X0056500Y0105550D01*
X0062937Y0100300D02*
X0062937Y0097800D01*
X0066063Y0097800D02*
X0066063Y0100300D01*
X0073500Y0091050D02*
X0079500Y0091050D01*
X0079560Y0091048D01*
X0079621Y0091043D01*
X0079680Y0091034D01*
X0079739Y0091021D01*
X0079798Y0091005D01*
X0079855Y0090985D01*
X0079910Y0090962D01*
X0079965Y0090935D01*
X0080017Y0090906D01*
X0080068Y0090873D01*
X0080117Y0090837D01*
X0080163Y0090799D01*
X0080207Y0090757D01*
X0080249Y0090713D01*
X0080287Y0090667D01*
X0080323Y0090618D01*
X0080356Y0090567D01*
X0080385Y0090515D01*
X0080412Y0090460D01*
X0080435Y0090405D01*
X0080455Y0090348D01*
X0080471Y0090289D01*
X0080484Y0090230D01*
X0080493Y0090171D01*
X0080498Y0090110D01*
X0080500Y0090050D01*
X0080500Y0079050D01*
X0080498Y0078990D01*
X0080493Y0078929D01*
X0080484Y0078870D01*
X0080471Y0078811D01*
X0080455Y0078752D01*
X0080435Y0078695D01*
X0080412Y0078640D01*
X0080385Y0078585D01*
X0080356Y0078533D01*
X0080323Y0078482D01*
X0080287Y0078433D01*
X0080249Y0078387D01*
X0080207Y0078343D01*
X0080163Y0078301D01*
X0080117Y0078263D01*
X0080068Y0078227D01*
X0080017Y0078194D01*
X0079965Y0078165D01*
X0079910Y0078138D01*
X0079855Y0078115D01*
X0079798Y0078095D01*
X0079739Y0078079D01*
X0079680Y0078066D01*
X0079621Y0078057D01*
X0079560Y0078052D01*
X0079500Y0078050D01*
X0073500Y0078050D01*
X0073440Y0078052D01*
X0073379Y0078057D01*
X0073320Y0078066D01*
X0073261Y0078079D01*
X0073202Y0078095D01*
X0073145Y0078115D01*
X0073090Y0078138D01*
X0073035Y0078165D01*
X0072983Y0078194D01*
X0072932Y0078227D01*
X0072883Y0078263D01*
X0072837Y0078301D01*
X0072793Y0078343D01*
X0072751Y0078387D01*
X0072713Y0078433D01*
X0072677Y0078482D01*
X0072644Y0078533D01*
X0072615Y0078585D01*
X0072588Y0078640D01*
X0072565Y0078695D01*
X0072545Y0078752D01*
X0072529Y0078811D01*
X0072516Y0078870D01*
X0072507Y0078929D01*
X0072502Y0078990D01*
X0072500Y0079050D01*
X0072500Y0090050D01*
X0072502Y0090110D01*
X0072507Y0090171D01*
X0072516Y0090230D01*
X0072529Y0090289D01*
X0072545Y0090348D01*
X0072565Y0090405D01*
X0072588Y0090460D01*
X0072615Y0090515D01*
X0072644Y0090567D01*
X0072677Y0090618D01*
X0072713Y0090667D01*
X0072751Y0090713D01*
X0072793Y0090757D01*
X0072837Y0090799D01*
X0072883Y0090837D01*
X0072932Y0090873D01*
X0072983Y0090906D01*
X0073035Y0090935D01*
X0073090Y0090962D01*
X0073145Y0090985D01*
X0073202Y0091005D01*
X0073261Y0091021D01*
X0073320Y0091034D01*
X0073379Y0091043D01*
X0073440Y0091048D01*
X0073500Y0091050D01*
X0087300Y0087302D02*
X0087300Y0085033D01*
X0087300Y0086167D02*
X0090703Y0086167D01*
X0089569Y0085033D01*
X0090703Y0083619D02*
X0090703Y0082484D01*
X0090703Y0083051D02*
X0087867Y0083051D01*
X0087300Y0082484D01*
X0087300Y0081917D01*
X0087867Y0081350D01*
X0091250Y0091487D02*
X0093750Y0091487D01*
X0093750Y0094612D02*
X0091250Y0094612D01*
X0108937Y0078800D02*
X0108937Y0076300D01*
X0112062Y0076300D02*
X0112062Y0078800D01*
X0134438Y0058300D02*
X0134438Y0055800D01*
X0137563Y0055800D02*
X0137563Y0058300D01*
X0141938Y0058300D02*
X0141938Y0055800D01*
X0145063Y0055800D02*
X0145063Y0058300D01*
X0156750Y0068988D02*
X0159250Y0068988D01*
X0159250Y0072113D02*
X0156750Y0072113D01*
X0156750Y0076488D02*
X0159250Y0076488D01*
X0159250Y0079613D02*
X0156750Y0079613D01*
X0156750Y0083988D02*
X0159250Y0083988D01*
X0159250Y0087112D02*
X0156750Y0087112D01*
X0156750Y0091487D02*
X0159250Y0091487D01*
X0159250Y0094612D02*
X0156750Y0094612D01*
X0168750Y0094612D02*
X0171250Y0094612D01*
X0171250Y0091487D02*
X0168750Y0091487D01*
X0168750Y0087112D02*
X0171250Y0087112D01*
X0171250Y0083988D02*
X0168750Y0083988D01*
X0148250Y0103987D02*
X0145750Y0103987D01*
X0145750Y0107112D02*
X0148250Y0107112D01*
X0108750Y0113487D02*
X0106250Y0113487D01*
X0106250Y0116612D02*
X0108750Y0116612D01*
X0042250Y0077613D02*
X0039750Y0077613D01*
X0039750Y0074488D02*
X0042250Y0074488D01*
X0064937Y0065800D02*
X0064937Y0063300D01*
X0068063Y0063300D02*
X0068063Y0065800D01*
X0092750Y0051112D02*
X0095250Y0051112D01*
X0095250Y0047987D02*
X0092750Y0047987D01*
X0108937Y0054800D02*
X0108937Y0057300D01*
X0112062Y0057300D02*
X0112062Y0054800D01*
X0100250Y0027612D02*
X0097750Y0027612D01*
X0097750Y0024487D02*
X0100250Y0024487D01*
X0079750Y0024487D02*
X0077250Y0024487D01*
X0077250Y0027612D02*
X0079750Y0027612D01*
X0065563Y0038800D02*
X0065563Y0041300D01*
X0062437Y0041300D02*
X0062437Y0038800D01*
X0046250Y0037988D02*
X0043750Y0037988D01*
X0043750Y0041113D02*
X0046250Y0041113D01*
X0013062Y0020800D02*
X0013062Y0018300D01*
X0009938Y0018300D02*
X0009938Y0020800D01*
X0125937Y0019800D02*
X0125937Y0017300D01*
X0129062Y0017300D02*
X0129062Y0019800D01*
X0137442Y0008753D02*
X0137442Y0005350D01*
X0138576Y0005350D02*
X0136308Y0005350D01*
X0138576Y0007619D02*
X0137442Y0008753D01*
X0139991Y0008186D02*
X0139991Y0007619D01*
X0142260Y0005350D01*
X0139991Y0005350D01*
X0139991Y0008186D02*
X0140558Y0008753D01*
X0141692Y0008753D01*
X0142260Y0008186D01*
X0144808Y0008753D02*
X0145943Y0007619D01*
X0147357Y0008186D02*
X0147357Y0005917D01*
X0147924Y0005350D01*
X0149059Y0005350D01*
X0149626Y0005917D01*
X0147357Y0008186D01*
X0147924Y0008753D01*
X0149059Y0008753D01*
X0149626Y0008186D01*
X0149626Y0005917D01*
X0151040Y0005917D02*
X0151040Y0006484D01*
X0151608Y0007051D01*
X0152742Y0007051D01*
X0153309Y0007619D01*
X0153309Y0008186D01*
X0152742Y0008753D01*
X0151608Y0008753D01*
X0151040Y0008186D01*
X0151040Y0007619D01*
X0151608Y0007051D01*
X0152742Y0007051D02*
X0153309Y0006484D01*
X0153309Y0005917D01*
X0152742Y0005350D01*
X0151608Y0005350D01*
X0151040Y0005917D01*
X0154724Y0005350D02*
X0156992Y0005350D01*
X0155858Y0005350D02*
X0155858Y0008753D01*
X0156992Y0007619D01*
X0158407Y0008186D02*
X0158407Y0005917D01*
X0158974Y0005350D01*
X0160108Y0005350D01*
X0160675Y0005917D01*
X0158407Y0008186D01*
X0158974Y0008753D01*
X0160108Y0008753D01*
X0160675Y0008186D01*
X0160675Y0005917D01*
X0162090Y0005350D02*
X0164358Y0005350D01*
X0162090Y0007619D01*
X0162090Y0008186D01*
X0162657Y0008753D01*
X0163791Y0008753D01*
X0164358Y0008186D01*
X0165773Y0004783D02*
X0168042Y0004783D01*
X0169456Y0005350D02*
X0171725Y0005350D01*
X0169456Y0007619D01*
X0169456Y0008186D01*
X0170023Y0008753D01*
X0171158Y0008753D01*
X0171725Y0008186D01*
X0173139Y0007619D02*
X0174274Y0005350D01*
X0175408Y0007619D01*
X0176822Y0007619D02*
X0176822Y0008186D01*
X0177390Y0008753D01*
X0179091Y0008753D01*
X0179091Y0005350D01*
X0177390Y0005350D01*
X0176822Y0005917D01*
X0176822Y0006484D01*
X0177390Y0007051D01*
X0179091Y0007051D01*
X0180506Y0007051D02*
X0181640Y0007051D01*
X0180506Y0007051D02*
X0180506Y0005917D01*
X0181073Y0005350D01*
X0182207Y0005350D01*
X0182774Y0005917D01*
X0182774Y0008186D01*
X0182207Y0008753D01*
X0181073Y0008753D01*
X0180506Y0008186D01*
X0177390Y0007051D02*
X0176822Y0007619D01*
X0184189Y0008186D02*
X0184189Y0007051D01*
X0184756Y0006484D01*
X0186457Y0006484D01*
X0185323Y0006484D02*
X0184189Y0005350D01*
X0186457Y0005350D02*
X0186457Y0008753D01*
X0184756Y0008753D01*
X0184189Y0008186D01*
X0187872Y0007051D02*
X0190140Y0007051D01*
X0188439Y0008753D01*
X0188439Y0005350D01*
X0191555Y0005917D02*
X0191555Y0006484D01*
X0192122Y0007051D01*
X0193824Y0007051D01*
X0193824Y0005917D01*
X0193256Y0005350D01*
X0192122Y0005350D01*
X0191555Y0005917D01*
X0192689Y0008186D02*
X0193824Y0007051D01*
X0192689Y0008186D02*
X0191555Y0008753D01*
X0195238Y0008753D02*
X0195238Y0005350D01*
X0197507Y0008753D01*
X0197507Y0005350D01*
X0145943Y0005350D02*
X0143674Y0005350D01*
X0144808Y0005350D02*
X0144808Y0008753D01*
D13*
X0019400Y0106550D02*
X0019402Y0106599D01*
X0019408Y0106647D01*
X0019418Y0106695D01*
X0019432Y0106742D01*
X0019449Y0106788D01*
X0019470Y0106832D01*
X0019495Y0106874D01*
X0019523Y0106914D01*
X0019555Y0106952D01*
X0019589Y0106987D01*
X0019626Y0107019D01*
X0019665Y0107048D01*
X0019707Y0107074D01*
X0019751Y0107096D01*
X0019796Y0107114D01*
X0019843Y0107129D01*
X0019890Y0107140D01*
X0019939Y0107147D01*
X0019988Y0107150D01*
X0020037Y0107149D01*
X0020085Y0107144D01*
X0020134Y0107135D01*
X0020181Y0107122D01*
X0020227Y0107105D01*
X0020271Y0107085D01*
X0020314Y0107061D01*
X0020355Y0107034D01*
X0020393Y0107003D01*
X0020429Y0106970D01*
X0020461Y0106934D01*
X0020491Y0106895D01*
X0020518Y0106854D01*
X0020541Y0106810D01*
X0020560Y0106765D01*
X0020576Y0106719D01*
X0020588Y0106672D01*
X0020596Y0106623D01*
X0020600Y0106574D01*
X0020600Y0106526D01*
X0020596Y0106477D01*
X0020588Y0106428D01*
X0020576Y0106381D01*
X0020560Y0106335D01*
X0020541Y0106290D01*
X0020518Y0106246D01*
X0020491Y0106205D01*
X0020461Y0106166D01*
X0020429Y0106130D01*
X0020393Y0106097D01*
X0020355Y0106066D01*
X0020314Y0106039D01*
X0020271Y0106015D01*
X0020227Y0105995D01*
X0020181Y0105978D01*
X0020134Y0105965D01*
X0020085Y0105956D01*
X0020037Y0105951D01*
X0019988Y0105950D01*
X0019939Y0105953D01*
X0019890Y0105960D01*
X0019843Y0105971D01*
X0019796Y0105986D01*
X0019751Y0106004D01*
X0019707Y0106026D01*
X0019665Y0106052D01*
X0019626Y0106081D01*
X0019589Y0106113D01*
X0019555Y0106148D01*
X0019523Y0106186D01*
X0019495Y0106226D01*
X0019470Y0106268D01*
X0019449Y0106312D01*
X0019432Y0106358D01*
X0019418Y0106405D01*
X0019408Y0106453D01*
X0019402Y0106501D01*
X0019400Y0106550D01*
D14*
X0169898Y0066503D02*
X0169898Y0060597D01*
X0182102Y0060597D02*
X0182102Y0066503D01*
M02*
