G75*
%MOIN*%
%OFA0B0*%
%FSLAX25Y25*%
%IPPOS*%
%LPD*%
%AMOC8*
5,1,8,0,0,1.08239X$1,22.5*
%
%ADD10C,0.00000*%
%ADD11R,0.10400X0.05400*%
%ADD12R,0.05518X0.06306*%
%ADD13R,0.06699X0.07487*%
%ADD14R,0.11030X0.06699*%
%ADD15R,0.06306X0.05518*%
%ADD16R,0.06699X0.03550*%
%ADD17R,0.04337X0.04731*%
%ADD18R,0.05000X0.06700*%
%ADD19R,0.00600X0.07200*%
%ADD20R,0.04731X0.04337*%
%ADD21R,0.03937X0.02362*%
%ADD22R,0.06306X0.02920*%
%ADD23R,0.06306X0.01660*%
%ADD24R,0.02920X0.06306*%
%ADD25R,0.01660X0.06306*%
%ADD26R,0.04337X0.02762*%
%ADD27R,0.04337X0.01581*%
%ADD28R,0.02762X0.04337*%
%ADD29R,0.01581X0.04337*%
%ADD30R,0.01975X0.04534*%
%ADD31C,0.06337*%
%ADD32R,0.06700X0.05000*%
D10*
X0004000Y0002550D02*
X0001500Y0005050D01*
X0001500Y0122550D01*
X0004000Y0125050D01*
X0198000Y0125050D01*
X0200500Y0122550D01*
X0200500Y0005050D01*
X0198000Y0002550D01*
X0004000Y0002550D01*
D11*
X0007600Y0039250D03*
X0007500Y0096550D03*
X0007500Y0106550D03*
X0194500Y0106550D03*
X0194500Y0096550D03*
X0194500Y0079050D03*
X0194500Y0071550D03*
X0194500Y0064050D03*
X0194500Y0054050D03*
X0194500Y0044050D03*
X0194500Y0036550D03*
X0194500Y0019050D03*
X0194500Y0011550D03*
D12*
X0154240Y0026050D03*
X0146760Y0026050D03*
X0015740Y0118050D03*
X0008260Y0118050D03*
X0139760Y0119050D03*
X0147240Y0119050D03*
X0185760Y0119050D03*
X0193240Y0119050D03*
D13*
X0156512Y0013550D03*
X0145488Y0013550D03*
D14*
X0168500Y0014038D03*
X0168500Y0025062D03*
D15*
X0054000Y0108810D03*
X0054000Y0116290D03*
X0036500Y0115790D03*
X0036500Y0108310D03*
D16*
X0006000Y0086550D03*
X0006000Y0081550D03*
X0006000Y0076550D03*
X0006000Y0071550D03*
X0006000Y0066550D03*
X0006000Y0061550D03*
X0006000Y0056550D03*
X0006000Y0051550D03*
X0006000Y0046550D03*
D17*
X0021154Y0106550D03*
X0027846Y0106550D03*
X0131154Y0033050D03*
X0137846Y0033050D03*
X0122846Y0023550D03*
X0116154Y0023550D03*
X0110846Y0023550D03*
X0104154Y0023550D03*
X0159154Y0119050D03*
X0165846Y0119050D03*
D18*
X0178100Y0106450D03*
X0184100Y0106450D03*
X0138500Y0056550D03*
X0132500Y0056550D03*
X0094500Y0120050D03*
X0088500Y0120050D03*
X0082500Y0120050D03*
D19*
X0181100Y0106450D03*
X0135500Y0056550D03*
D20*
X0181000Y0024896D03*
X0181000Y0018204D03*
X0165500Y0104704D03*
X0165500Y0111396D03*
D21*
X0036650Y0086274D03*
X0036650Y0083125D03*
X0036650Y0079975D03*
X0036650Y0076826D03*
X0036650Y0071274D03*
X0036650Y0068125D03*
X0036650Y0064975D03*
X0036650Y0061826D03*
X0036650Y0056274D03*
X0036650Y0053125D03*
X0036650Y0049975D03*
X0036650Y0046826D03*
X0030350Y0046826D03*
X0030350Y0049975D03*
X0030350Y0053125D03*
X0030350Y0056274D03*
X0030350Y0061826D03*
X0030350Y0064975D03*
X0030350Y0068125D03*
X0030350Y0071274D03*
X0030350Y0076826D03*
X0030350Y0079975D03*
X0030350Y0083125D03*
X0030350Y0086274D03*
D22*
X0057004Y0095802D03*
X0119996Y0095802D03*
X0119996Y0047298D03*
X0057004Y0047298D03*
D23*
X0057004Y0049896D03*
X0057004Y0051865D03*
X0057004Y0053833D03*
X0057004Y0055802D03*
X0057004Y0057770D03*
X0057004Y0059739D03*
X0057004Y0061707D03*
X0057004Y0063676D03*
X0057004Y0065644D03*
X0057004Y0067613D03*
X0057004Y0069581D03*
X0057004Y0071550D03*
X0057004Y0073519D03*
X0057004Y0075487D03*
X0057004Y0077456D03*
X0057004Y0079424D03*
X0057004Y0081393D03*
X0057004Y0083361D03*
X0057004Y0085330D03*
X0057004Y0087298D03*
X0057004Y0089267D03*
X0057004Y0091235D03*
X0057004Y0093204D03*
X0119996Y0093204D03*
X0119996Y0091235D03*
X0119996Y0089267D03*
X0119996Y0087298D03*
X0119996Y0085330D03*
X0119996Y0083361D03*
X0119996Y0081393D03*
X0119996Y0079424D03*
X0119996Y0077456D03*
X0119996Y0075487D03*
X0119996Y0073519D03*
X0119996Y0071550D03*
X0119996Y0069581D03*
X0119996Y0067613D03*
X0119996Y0065644D03*
X0119996Y0063676D03*
X0119996Y0061707D03*
X0119996Y0059739D03*
X0119996Y0057770D03*
X0119996Y0055802D03*
X0119996Y0053833D03*
X0119996Y0051865D03*
X0119996Y0049896D03*
D24*
X0112752Y0040054D03*
X0064248Y0040054D03*
X0064248Y0103046D03*
X0112752Y0103046D03*
D25*
X0110154Y0103046D03*
X0108185Y0103046D03*
X0106217Y0103046D03*
X0104248Y0103046D03*
X0102280Y0103046D03*
X0100311Y0103046D03*
X0098343Y0103046D03*
X0096374Y0103046D03*
X0094406Y0103046D03*
X0092437Y0103046D03*
X0090469Y0103046D03*
X0088500Y0103046D03*
X0086531Y0103046D03*
X0084563Y0103046D03*
X0082594Y0103046D03*
X0080626Y0103046D03*
X0078657Y0103046D03*
X0076689Y0103046D03*
X0074720Y0103046D03*
X0072752Y0103046D03*
X0070783Y0103046D03*
X0068815Y0103046D03*
X0066846Y0103046D03*
X0066846Y0040054D03*
X0068815Y0040054D03*
X0070783Y0040054D03*
X0072752Y0040054D03*
X0074720Y0040054D03*
X0076689Y0040054D03*
X0078657Y0040054D03*
X0080626Y0040054D03*
X0082594Y0040054D03*
X0084563Y0040054D03*
X0086531Y0040054D03*
X0088500Y0040054D03*
X0090469Y0040054D03*
X0092437Y0040054D03*
X0094406Y0040054D03*
X0096374Y0040054D03*
X0098343Y0040054D03*
X0100311Y0040054D03*
X0102280Y0040054D03*
X0104248Y0040054D03*
X0106217Y0040054D03*
X0108185Y0040054D03*
X0110154Y0040054D03*
D26*
X0131768Y0070959D03*
X0165232Y0070959D03*
X0165232Y0093794D03*
X0131768Y0093794D03*
D27*
X0131768Y0091235D03*
X0131768Y0089267D03*
X0131768Y0087298D03*
X0131768Y0085330D03*
X0131768Y0083361D03*
X0131768Y0081393D03*
X0131768Y0079424D03*
X0131768Y0077456D03*
X0131768Y0075487D03*
X0131768Y0073519D03*
X0165232Y0073519D03*
X0165232Y0075487D03*
X0165232Y0077456D03*
X0165232Y0079424D03*
X0165232Y0081393D03*
X0165232Y0083361D03*
X0165232Y0085330D03*
X0165232Y0087298D03*
X0165232Y0089267D03*
X0165232Y0091235D03*
D28*
X0159917Y0099109D03*
X0137083Y0099109D03*
X0137083Y0065644D03*
X0159917Y0065644D03*
D29*
X0157358Y0065644D03*
X0155390Y0065644D03*
X0153421Y0065644D03*
X0151453Y0065644D03*
X0149484Y0065644D03*
X0147516Y0065644D03*
X0145547Y0065644D03*
X0143579Y0065644D03*
X0141610Y0065644D03*
X0139642Y0065644D03*
X0139642Y0099109D03*
X0141610Y0099109D03*
X0143579Y0099109D03*
X0145547Y0099109D03*
X0147516Y0099109D03*
X0149484Y0099109D03*
X0151453Y0099109D03*
X0153421Y0099109D03*
X0155390Y0099109D03*
X0157358Y0099109D03*
D30*
X0136059Y0025192D03*
X0133500Y0025192D03*
X0130941Y0025192D03*
X0130941Y0017908D03*
X0133500Y0017908D03*
X0136059Y0017908D03*
D31*
X0063500Y0014050D03*
X0053500Y0014050D03*
X0043500Y0014050D03*
X0033500Y0014050D03*
X0023500Y0014050D03*
X0023500Y0024050D03*
X0033500Y0024050D03*
X0043500Y0024050D03*
X0053500Y0024050D03*
X0063500Y0024050D03*
D32*
X0089000Y0023650D03*
X0089000Y0029650D03*
X0089000Y0017650D03*
M02*
