G75*
%MOIN*%
%OFA0B0*%
%FSLAX25Y25*%
%IPPOS*%
%LPD*%
%AMOC8*
5,1,8,0,0,1.08239X$1,22.5*
%
%ADD10C,0.00000*%
%ADD11C,0.00500*%
%ADD12C,0.00600*%
D10*
X0007850Y0004100D02*
X0005350Y0006600D01*
X0005350Y0129100D01*
X0007850Y0131600D01*
X0195350Y0131600D01*
X0197850Y0129100D01*
X0197850Y0006600D01*
X0195350Y0004100D01*
X0007850Y0004100D01*
D11*
X0020600Y0032788D02*
X0023302Y0032788D01*
X0023302Y0034139D01*
X0022852Y0034589D01*
X0021951Y0034589D01*
X0021501Y0034139D01*
X0021501Y0032788D01*
X0021501Y0033688D02*
X0020600Y0034589D01*
X0020600Y0035734D02*
X0020600Y0037536D01*
X0020600Y0036635D02*
X0023302Y0036635D01*
X0022402Y0035734D01*
X0022852Y0038681D02*
X0021050Y0038681D01*
X0022852Y0040482D01*
X0021050Y0040482D01*
X0020600Y0040032D01*
X0020600Y0039131D01*
X0021050Y0038681D01*
X0022852Y0038681D02*
X0023302Y0039131D01*
X0023302Y0040032D01*
X0022852Y0040482D01*
X0035600Y0040482D02*
X0035600Y0038681D01*
X0035600Y0039581D02*
X0038302Y0039581D01*
X0037402Y0038681D01*
X0035600Y0037536D02*
X0035600Y0035734D01*
X0035600Y0036635D02*
X0038302Y0036635D01*
X0037402Y0035734D01*
X0037852Y0034589D02*
X0036951Y0034589D01*
X0036501Y0034139D01*
X0036501Y0032788D01*
X0036501Y0033688D02*
X0035600Y0034589D01*
X0037852Y0034589D02*
X0038302Y0034139D01*
X0038302Y0032788D01*
X0035600Y0032788D01*
X0055287Y0032788D02*
X0057990Y0032788D01*
X0057990Y0034139D01*
X0057539Y0034589D01*
X0056639Y0034589D01*
X0056188Y0034139D01*
X0056188Y0032788D01*
X0056188Y0033688D02*
X0055287Y0034589D01*
X0055287Y0035734D02*
X0055287Y0037536D01*
X0055287Y0036635D02*
X0057990Y0036635D01*
X0057089Y0035734D01*
X0057539Y0038681D02*
X0057990Y0039131D01*
X0057990Y0040032D01*
X0057539Y0040482D01*
X0057089Y0040482D01*
X0055287Y0038681D01*
X0055287Y0040482D01*
X0085579Y0072850D02*
X0085129Y0073300D01*
X0085129Y0075102D01*
X0085579Y0075552D01*
X0086480Y0075552D01*
X0086930Y0075102D01*
X0086930Y0074652D01*
X0086480Y0074201D01*
X0085129Y0074201D01*
X0085579Y0072850D02*
X0086480Y0072850D01*
X0086930Y0073300D01*
X0088075Y0072850D02*
X0089877Y0072850D01*
X0088976Y0072850D02*
X0088976Y0075552D01*
X0089877Y0074652D01*
X0091022Y0075102D02*
X0091472Y0075552D01*
X0092373Y0075552D01*
X0092823Y0075102D01*
X0092823Y0073300D01*
X0092373Y0072850D01*
X0091472Y0072850D01*
X0091022Y0073300D01*
X0090900Y0077650D02*
X0091350Y0078100D01*
X0089548Y0079902D01*
X0089548Y0078100D01*
X0089999Y0077650D01*
X0090900Y0077650D01*
X0091350Y0078100D02*
X0091350Y0079902D01*
X0090900Y0080352D01*
X0089999Y0080352D01*
X0089548Y0079902D01*
X0088403Y0079001D02*
X0086602Y0079001D01*
X0092495Y0077650D02*
X0094297Y0077650D01*
X0093396Y0077650D02*
X0093396Y0080352D01*
X0094297Y0079452D01*
X0095441Y0079902D02*
X0095892Y0080352D01*
X0096793Y0080352D01*
X0097243Y0079902D01*
X0097243Y0078100D01*
X0096793Y0077650D01*
X0095892Y0077650D01*
X0095441Y0078100D01*
X0136065Y0112025D02*
X0136516Y0111574D01*
X0136966Y0111574D01*
X0136065Y0112025D02*
X0136065Y0114277D01*
X0137867Y0114277D02*
X0137867Y0112925D01*
X0137417Y0112475D01*
X0136065Y0112475D01*
X0139012Y0112925D02*
X0139012Y0113826D01*
X0139462Y0114277D01*
X0140814Y0114277D01*
X0140814Y0115177D02*
X0140814Y0112475D01*
X0139462Y0112475D01*
X0139012Y0112925D01*
X0138890Y0117275D02*
X0137989Y0117275D01*
X0137539Y0117725D01*
X0137539Y0119527D01*
X0139340Y0117725D01*
X0138890Y0117275D01*
X0139340Y0117725D02*
X0139340Y0119527D01*
X0138890Y0119977D01*
X0137989Y0119977D01*
X0137539Y0119527D01*
X0136394Y0119977D02*
X0134592Y0119977D01*
X0135493Y0119977D02*
X0135493Y0117275D01*
X0133447Y0117275D02*
X0131646Y0117275D01*
X0132546Y0117275D02*
X0132546Y0119977D01*
X0133447Y0119077D01*
X0130501Y0119527D02*
X0130501Y0117725D01*
X0128699Y0119527D01*
X0128699Y0117725D01*
X0129150Y0117275D01*
X0130050Y0117275D01*
X0130501Y0117725D01*
X0130501Y0119527D02*
X0130050Y0119977D01*
X0129150Y0119977D01*
X0128699Y0119527D01*
X0127554Y0119527D02*
X0127554Y0117725D01*
X0125753Y0119527D01*
X0125753Y0117725D01*
X0126203Y0117275D01*
X0127104Y0117275D01*
X0127554Y0117725D01*
X0127554Y0119527D02*
X0127104Y0119977D01*
X0126203Y0119977D01*
X0125753Y0119527D01*
X0124608Y0119527D02*
X0124608Y0117725D01*
X0124157Y0117275D01*
X0123257Y0117275D01*
X0122806Y0117725D01*
X0121661Y0117725D02*
X0121211Y0117275D01*
X0120310Y0117275D01*
X0119860Y0117725D01*
X0119860Y0118626D01*
X0120310Y0119077D01*
X0120760Y0119077D01*
X0121661Y0118626D01*
X0121661Y0119977D01*
X0119860Y0119977D01*
X0118715Y0119977D02*
X0117814Y0119077D01*
X0117814Y0118176D01*
X0118715Y0117275D01*
X0118346Y0115177D02*
X0119697Y0113826D01*
X0117895Y0113826D01*
X0116750Y0114277D02*
X0116750Y0114727D01*
X0116300Y0115177D01*
X0115399Y0115177D01*
X0114949Y0114727D01*
X0114949Y0112925D01*
X0115399Y0112475D01*
X0116300Y0112475D01*
X0116750Y0112925D01*
X0116300Y0113826D02*
X0114949Y0113826D01*
X0116300Y0113826D02*
X0116750Y0114277D01*
X0118346Y0115177D02*
X0118346Y0112475D01*
X0120760Y0112475D02*
X0121661Y0112475D01*
X0121211Y0112475D02*
X0121211Y0114277D01*
X0121661Y0114277D01*
X0121211Y0115177D02*
X0121211Y0115628D01*
X0122725Y0114277D02*
X0123625Y0114277D01*
X0123175Y0114727D02*
X0123175Y0112925D01*
X0122725Y0112475D01*
X0124730Y0114277D02*
X0125180Y0114277D01*
X0126081Y0113376D01*
X0126081Y0112475D02*
X0126081Y0114277D01*
X0127226Y0113826D02*
X0127676Y0114277D01*
X0128577Y0114277D01*
X0129027Y0113826D01*
X0129027Y0112925D01*
X0128577Y0112475D01*
X0127676Y0112475D01*
X0127226Y0112925D01*
X0127226Y0113826D01*
X0130172Y0113826D02*
X0130172Y0112925D01*
X0130623Y0112475D01*
X0131974Y0112475D01*
X0131974Y0115177D01*
X0131974Y0114277D02*
X0130623Y0114277D01*
X0130172Y0113826D01*
X0124608Y0119527D02*
X0124157Y0119977D01*
X0123257Y0119977D01*
X0122806Y0119527D01*
X0121251Y0121174D02*
X0120801Y0121174D01*
X0120351Y0121625D01*
X0120351Y0123877D01*
X0122152Y0123877D02*
X0122152Y0122525D01*
X0121702Y0122075D01*
X0120351Y0122075D01*
X0123297Y0122525D02*
X0123297Y0123426D01*
X0123748Y0123877D01*
X0125099Y0123877D01*
X0125099Y0124777D02*
X0125099Y0122075D01*
X0123748Y0122075D01*
X0123297Y0122525D01*
X0125262Y0126875D02*
X0126613Y0126875D01*
X0127063Y0127325D01*
X0127063Y0128226D01*
X0126613Y0128677D01*
X0125262Y0128677D01*
X0125262Y0129577D02*
X0125262Y0126875D01*
X0128208Y0127776D02*
X0130010Y0127776D01*
X0130010Y0128226D02*
X0129559Y0128677D01*
X0128658Y0128677D01*
X0128208Y0128226D01*
X0128208Y0127776D01*
X0128658Y0126875D02*
X0129559Y0126875D01*
X0130010Y0127325D01*
X0130010Y0128226D01*
X0131155Y0128677D02*
X0132506Y0128677D01*
X0132956Y0128226D01*
X0132506Y0127776D01*
X0131605Y0127776D01*
X0131155Y0127325D01*
X0131605Y0126875D01*
X0132956Y0126875D01*
X0134101Y0126875D02*
X0135452Y0126875D01*
X0135903Y0127325D01*
X0135452Y0127776D01*
X0134101Y0127776D01*
X0134101Y0128226D02*
X0134101Y0126875D01*
X0134101Y0128226D02*
X0134552Y0128677D01*
X0135452Y0128677D01*
X0137048Y0128226D02*
X0137498Y0128677D01*
X0138849Y0128677D01*
X0138849Y0129577D02*
X0138849Y0126875D01*
X0137498Y0126875D01*
X0137048Y0127325D01*
X0137048Y0128226D01*
X0135452Y0125228D02*
X0135452Y0124777D01*
X0135452Y0123877D02*
X0135452Y0122075D01*
X0135002Y0122075D02*
X0135903Y0122075D01*
X0136966Y0122075D02*
X0137417Y0122525D01*
X0137417Y0124327D01*
X0137867Y0123877D02*
X0136966Y0123877D01*
X0135903Y0123877D02*
X0135452Y0123877D01*
X0133938Y0123426D02*
X0133938Y0122525D01*
X0133488Y0122075D01*
X0132137Y0122075D01*
X0130992Y0122075D02*
X0129641Y0122075D01*
X0129190Y0122525D01*
X0129641Y0122976D01*
X0130541Y0122976D01*
X0130992Y0123426D01*
X0130541Y0123877D01*
X0129190Y0123877D01*
X0132137Y0123877D02*
X0133488Y0123877D01*
X0133938Y0123426D01*
X0139012Y0123426D02*
X0139012Y0122075D01*
X0140363Y0122075D01*
X0140814Y0122525D01*
X0140363Y0122976D01*
X0139012Y0122976D01*
X0139012Y0123426D02*
X0139462Y0123877D01*
X0140363Y0123877D01*
X0141958Y0123426D02*
X0141958Y0122075D01*
X0142859Y0122075D02*
X0142859Y0123426D01*
X0142409Y0123877D01*
X0141958Y0123426D01*
X0142859Y0123426D02*
X0143310Y0123877D01*
X0143760Y0123877D01*
X0143760Y0122075D01*
X0144905Y0122976D02*
X0144905Y0123426D01*
X0145355Y0123877D01*
X0146256Y0123877D01*
X0146707Y0123426D01*
X0146707Y0122525D01*
X0146256Y0122075D01*
X0145355Y0122075D01*
X0144905Y0122976D02*
X0146707Y0122976D01*
X0147852Y0123426D02*
X0147852Y0122075D01*
X0147852Y0123426D02*
X0148302Y0123877D01*
X0149203Y0123877D01*
X0149653Y0123426D01*
X0150798Y0123877D02*
X0152149Y0123877D01*
X0152600Y0123426D01*
X0152600Y0122525D01*
X0152149Y0122075D01*
X0150798Y0122075D01*
X0149653Y0122075D02*
X0149653Y0124777D01*
X0150798Y0126875D02*
X0150798Y0128226D01*
X0151248Y0128677D01*
X0152600Y0128677D01*
X0152600Y0126875D01*
X0153745Y0126875D02*
X0155096Y0126875D01*
X0155546Y0127325D01*
X0155546Y0128226D01*
X0155096Y0128677D01*
X0153745Y0128677D01*
X0153745Y0126425D01*
X0154195Y0125974D01*
X0154645Y0125974D01*
X0156610Y0126875D02*
X0157510Y0126875D01*
X0157060Y0126875D02*
X0157060Y0128677D01*
X0157510Y0128677D01*
X0157060Y0129577D02*
X0157060Y0130028D01*
X0158655Y0128677D02*
X0160007Y0128677D01*
X0160457Y0128226D01*
X0160007Y0127776D01*
X0159106Y0127776D01*
X0158655Y0127325D01*
X0159106Y0126875D01*
X0160457Y0126875D01*
X0161602Y0127776D02*
X0163403Y0127776D01*
X0163403Y0128226D02*
X0162953Y0128677D01*
X0162052Y0128677D01*
X0161602Y0128226D01*
X0161602Y0127776D01*
X0162052Y0126875D02*
X0162953Y0126875D01*
X0163403Y0127325D01*
X0163403Y0128226D01*
X0164548Y0127325D02*
X0164548Y0129127D01*
X0164999Y0129577D01*
X0166350Y0129577D01*
X0166350Y0126875D01*
X0164999Y0126875D01*
X0164548Y0127325D01*
X0164386Y0124777D02*
X0164386Y0122075D01*
X0165449Y0122075D02*
X0165900Y0122525D01*
X0165900Y0124327D01*
X0166350Y0123877D02*
X0165449Y0123877D01*
X0164386Y0123426D02*
X0163935Y0123877D01*
X0163035Y0123877D01*
X0162584Y0123426D01*
X0162584Y0122075D01*
X0161439Y0122525D02*
X0161439Y0123426D01*
X0160989Y0123877D01*
X0160088Y0123877D01*
X0159638Y0123426D01*
X0159638Y0122976D01*
X0161439Y0122976D01*
X0161439Y0122525D02*
X0160989Y0122075D01*
X0160088Y0122075D01*
X0159475Y0119077D02*
X0159475Y0117275D01*
X0159475Y0118176D02*
X0158574Y0119077D01*
X0158124Y0119077D01*
X0160620Y0118626D02*
X0161070Y0119077D01*
X0161971Y0119077D01*
X0162421Y0118626D01*
X0162421Y0117725D01*
X0161971Y0117275D01*
X0161070Y0117275D01*
X0160620Y0117725D01*
X0160620Y0118626D01*
X0163485Y0118626D02*
X0164386Y0118626D01*
X0163935Y0119527D02*
X0163935Y0117275D01*
X0165449Y0117275D02*
X0166350Y0118176D01*
X0166350Y0119077D01*
X0165449Y0119977D01*
X0163935Y0119527D02*
X0163485Y0119977D01*
X0164999Y0115177D02*
X0164548Y0114727D01*
X0164548Y0113826D01*
X0164999Y0113376D01*
X0166350Y0113376D01*
X0165449Y0113376D02*
X0164548Y0112475D01*
X0163403Y0112925D02*
X0163403Y0113826D01*
X0162953Y0114277D01*
X0162052Y0114277D01*
X0161602Y0113826D01*
X0161602Y0113376D01*
X0163403Y0113376D01*
X0163403Y0112925D02*
X0162953Y0112475D01*
X0162052Y0112475D01*
X0160457Y0112925D02*
X0160457Y0113826D01*
X0160007Y0114277D01*
X0158655Y0114277D01*
X0158655Y0115177D02*
X0158655Y0112475D01*
X0160007Y0112475D01*
X0160457Y0112925D01*
X0157510Y0112925D02*
X0157510Y0113826D01*
X0157060Y0114277D01*
X0156159Y0114277D01*
X0155709Y0113826D01*
X0155709Y0113376D01*
X0157510Y0113376D01*
X0157510Y0112925D02*
X0157060Y0112475D01*
X0156159Y0112475D01*
X0154564Y0112475D02*
X0153213Y0112475D01*
X0152762Y0112925D01*
X0153213Y0113376D01*
X0154114Y0113376D01*
X0154564Y0113826D01*
X0154114Y0114277D01*
X0152762Y0114277D01*
X0151617Y0114277D02*
X0151167Y0114277D01*
X0151167Y0112475D01*
X0151617Y0112475D02*
X0150717Y0112475D01*
X0149653Y0112925D02*
X0149653Y0113826D01*
X0149203Y0114277D01*
X0147852Y0114277D01*
X0147852Y0112025D01*
X0148302Y0111574D01*
X0148752Y0111574D01*
X0149203Y0112475D02*
X0147852Y0112475D01*
X0146707Y0112475D02*
X0146707Y0114277D01*
X0145355Y0114277D01*
X0144905Y0113826D01*
X0144905Y0112475D01*
X0149203Y0112475D02*
X0149653Y0112925D01*
X0151167Y0115177D02*
X0151167Y0115628D01*
X0151126Y0117275D02*
X0151126Y0119977D01*
X0149775Y0119977D01*
X0149325Y0119527D01*
X0149325Y0118626D01*
X0149775Y0118176D01*
X0151126Y0118176D01*
X0152271Y0117275D02*
X0154073Y0117275D01*
X0154073Y0119977D01*
X0152271Y0119977D01*
X0153172Y0118626D02*
X0154073Y0118626D01*
X0154195Y0122075D02*
X0153745Y0122525D01*
X0154195Y0122976D01*
X0155096Y0122976D01*
X0155546Y0123426D01*
X0155096Y0123877D01*
X0153745Y0123877D01*
X0154195Y0122075D02*
X0155546Y0122075D01*
X0148180Y0119977D02*
X0148180Y0117275D01*
X0146378Y0117275D02*
X0146378Y0119977D01*
X0147279Y0119077D01*
X0148180Y0119977D01*
X0145233Y0119527D02*
X0144783Y0119977D01*
X0143882Y0119977D01*
X0143432Y0119527D01*
X0143432Y0119077D01*
X0145233Y0117275D01*
X0143432Y0117275D01*
X0142287Y0118626D02*
X0140485Y0118626D01*
X0140936Y0117275D02*
X0140936Y0119977D01*
X0142287Y0118626D01*
X0143391Y0126875D02*
X0142941Y0127325D01*
X0143391Y0127776D01*
X0144292Y0127776D01*
X0144742Y0128226D01*
X0144292Y0128677D01*
X0142941Y0128677D01*
X0146256Y0128677D02*
X0146256Y0126875D01*
X0145806Y0126875D02*
X0146707Y0126875D01*
X0144742Y0126875D02*
X0143391Y0126875D01*
X0146256Y0128677D02*
X0146707Y0128677D01*
X0146256Y0129577D02*
X0146256Y0130028D01*
X0164999Y0115177D02*
X0166350Y0115177D01*
X0166350Y0112475D01*
X0167189Y0106018D02*
X0165388Y0104216D01*
X0164938Y0104216D01*
X0164938Y0103071D02*
X0164938Y0101270D01*
X0166739Y0103071D01*
X0167189Y0103071D01*
X0167640Y0102621D01*
X0167640Y0101720D01*
X0167189Y0101270D01*
X0167189Y0100125D02*
X0167640Y0099674D01*
X0167640Y0098774D01*
X0167189Y0098323D01*
X0165388Y0098323D01*
X0164938Y0098774D01*
X0164938Y0099674D01*
X0165388Y0100125D01*
X0166289Y0097178D02*
X0166289Y0095377D01*
X0166739Y0094232D02*
X0166289Y0093781D01*
X0165838Y0094232D01*
X0165388Y0094232D01*
X0164938Y0093781D01*
X0164938Y0092881D01*
X0165388Y0092430D01*
X0164938Y0091285D02*
X0164938Y0089484D01*
X0166739Y0091285D01*
X0167189Y0091285D01*
X0167640Y0090835D01*
X0167640Y0089934D01*
X0167189Y0089484D01*
X0167189Y0088339D02*
X0167640Y0087888D01*
X0167640Y0086988D01*
X0167189Y0086537D01*
X0165388Y0086537D01*
X0164938Y0086988D01*
X0164938Y0087888D01*
X0165388Y0088339D01*
X0167189Y0092430D02*
X0167640Y0092881D01*
X0167640Y0093781D01*
X0167189Y0094232D01*
X0166739Y0094232D01*
X0166289Y0093781D02*
X0166289Y0093331D01*
X0167640Y0104216D02*
X0167640Y0106018D01*
X0167189Y0106018D01*
X0121170Y0127325D02*
X0120720Y0126875D01*
X0119819Y0126875D01*
X0119369Y0127325D01*
X0119369Y0128226D01*
X0119819Y0128677D01*
X0120720Y0128677D01*
X0121170Y0128226D01*
X0121170Y0127325D01*
X0118224Y0126875D02*
X0118224Y0128677D01*
X0116872Y0128677D01*
X0116422Y0128226D01*
X0116422Y0126875D01*
X0116259Y0123877D02*
X0115358Y0122075D01*
X0114458Y0123877D01*
X0113313Y0123877D02*
X0112862Y0123877D01*
X0112862Y0122075D01*
X0112412Y0122075D02*
X0113313Y0122075D01*
X0111348Y0122075D02*
X0110448Y0122075D01*
X0110898Y0122075D02*
X0110898Y0124777D01*
X0111348Y0124777D01*
X0112862Y0124777D02*
X0112862Y0125228D01*
X0109384Y0123426D02*
X0109384Y0122525D01*
X0108934Y0122075D01*
X0108033Y0122075D01*
X0107582Y0122976D02*
X0109384Y0122976D01*
X0109384Y0123426D02*
X0108934Y0123877D01*
X0108033Y0123877D01*
X0107582Y0123426D01*
X0107582Y0122976D01*
X0106437Y0123877D02*
X0105537Y0123877D01*
X0105987Y0124327D02*
X0105987Y0122525D01*
X0105537Y0122075D01*
X0104473Y0122075D02*
X0103572Y0122075D01*
X0104023Y0122075D02*
X0104023Y0123877D01*
X0104473Y0123877D01*
X0104023Y0124777D02*
X0104023Y0125228D01*
X0102509Y0123877D02*
X0102058Y0123877D01*
X0101608Y0123426D01*
X0101158Y0123877D01*
X0100707Y0123426D01*
X0100707Y0122075D01*
X0101608Y0122075D02*
X0101608Y0123426D01*
X0102509Y0123877D02*
X0102509Y0122075D01*
X0109506Y0115177D02*
X0109056Y0114727D01*
X0109056Y0114277D01*
X0109506Y0113826D01*
X0110407Y0113826D01*
X0110857Y0114277D01*
X0110857Y0114727D01*
X0110407Y0115177D01*
X0109506Y0115177D01*
X0109506Y0113826D02*
X0109056Y0113376D01*
X0109056Y0112925D01*
X0109506Y0112475D01*
X0110407Y0112475D01*
X0110857Y0112925D01*
X0110857Y0113376D01*
X0110407Y0113826D01*
X0112002Y0113376D02*
X0112002Y0112925D01*
X0112453Y0112475D01*
X0113353Y0112475D01*
X0113804Y0112925D01*
X0112903Y0113826D02*
X0112453Y0113826D01*
X0112002Y0113376D01*
X0112453Y0113826D02*
X0112002Y0114277D01*
X0112002Y0114727D01*
X0112453Y0115177D01*
X0113353Y0115177D01*
X0113804Y0114727D01*
X0161427Y0014352D02*
X0160976Y0013902D01*
X0160976Y0013452D01*
X0161427Y0013001D01*
X0162778Y0013001D01*
X0163923Y0013001D02*
X0164823Y0013001D01*
X0163923Y0013001D02*
X0163923Y0012100D01*
X0164373Y0011650D01*
X0165274Y0011650D01*
X0165724Y0012100D01*
X0165724Y0013902D01*
X0165274Y0014352D01*
X0164373Y0014352D01*
X0163923Y0013902D01*
X0162778Y0014352D02*
X0161427Y0014352D01*
X0162778Y0014352D02*
X0162778Y0011650D01*
X0161427Y0011650D01*
X0160976Y0012100D01*
X0160976Y0012551D01*
X0161427Y0013001D01*
X0162859Y0009552D02*
X0162859Y0006850D01*
X0163760Y0006850D02*
X0161958Y0006850D01*
X0163760Y0008652D02*
X0162859Y0009552D01*
X0164905Y0009102D02*
X0164905Y0007300D01*
X0165355Y0006850D01*
X0166256Y0006850D01*
X0166706Y0007300D01*
X0164905Y0009102D01*
X0165355Y0009552D01*
X0166256Y0009552D01*
X0166706Y0009102D01*
X0166706Y0007300D01*
X0167851Y0007300D02*
X0167851Y0009102D01*
X0168302Y0009552D01*
X0169202Y0009552D01*
X0169653Y0009102D01*
X0169653Y0008652D01*
X0169202Y0008201D01*
X0167851Y0008201D01*
X0167851Y0007300D02*
X0168302Y0006850D01*
X0169202Y0006850D01*
X0169653Y0007300D01*
X0170798Y0007300D02*
X0171248Y0006850D01*
X0172149Y0006850D01*
X0172599Y0007300D01*
X0170798Y0009102D01*
X0170798Y0007300D01*
X0172599Y0007300D02*
X0172599Y0009102D01*
X0172149Y0009552D01*
X0171248Y0009552D01*
X0170798Y0009102D01*
X0173744Y0009102D02*
X0175546Y0007300D01*
X0175546Y0006850D01*
X0176691Y0006850D02*
X0178492Y0006850D01*
X0177592Y0006850D02*
X0177592Y0009552D01*
X0178492Y0008652D01*
X0179637Y0009102D02*
X0179637Y0007300D01*
X0180088Y0006850D01*
X0180989Y0006850D01*
X0181439Y0007300D01*
X0179637Y0009102D01*
X0180088Y0009552D01*
X0180989Y0009552D01*
X0181439Y0009102D01*
X0181439Y0007300D01*
X0182584Y0006850D02*
X0184385Y0006850D01*
X0182584Y0008652D01*
X0182584Y0009102D01*
X0183034Y0009552D01*
X0183935Y0009552D01*
X0184385Y0009102D01*
X0184877Y0011650D02*
X0183525Y0011650D01*
X0183075Y0012100D01*
X0183525Y0012551D01*
X0184426Y0012551D01*
X0184877Y0013001D01*
X0184426Y0013452D01*
X0183075Y0013452D01*
X0181930Y0013452D02*
X0181930Y0013001D01*
X0181480Y0013001D01*
X0181480Y0013452D01*
X0181930Y0013452D01*
X0181930Y0012100D02*
X0181930Y0011650D01*
X0181480Y0011650D01*
X0181480Y0012100D01*
X0181930Y0012100D01*
X0185981Y0013452D02*
X0186431Y0013452D01*
X0187332Y0012551D01*
X0187332Y0011650D02*
X0187332Y0013452D01*
X0188477Y0013001D02*
X0188477Y0012551D01*
X0190278Y0012551D01*
X0190278Y0013001D02*
X0189828Y0013452D01*
X0188927Y0013452D01*
X0188477Y0013001D01*
X0188927Y0011650D02*
X0189828Y0011650D01*
X0190278Y0012100D01*
X0190278Y0013001D01*
X0191423Y0012551D02*
X0192324Y0011650D01*
X0193225Y0012551D01*
X0193225Y0014352D01*
X0191423Y0014352D02*
X0191423Y0012551D01*
X0191423Y0009552D02*
X0193225Y0009552D01*
X0193225Y0008201D01*
X0192324Y0008652D01*
X0191874Y0008652D01*
X0191423Y0008201D01*
X0191423Y0007300D01*
X0191874Y0006850D01*
X0192775Y0006850D01*
X0193225Y0007300D01*
X0190278Y0006850D02*
X0190278Y0009552D01*
X0189378Y0008652D01*
X0188477Y0009552D01*
X0188477Y0006850D01*
X0187332Y0006400D02*
X0185530Y0006400D01*
X0177510Y0011650D02*
X0177510Y0014352D01*
X0175709Y0011650D01*
X0175709Y0014352D01*
X0174564Y0013001D02*
X0173213Y0013001D01*
X0172762Y0012551D01*
X0172762Y0012100D01*
X0173213Y0011650D01*
X0174113Y0011650D01*
X0174564Y0012100D01*
X0174564Y0013001D01*
X0173663Y0013902D01*
X0172762Y0014352D01*
X0171617Y0013001D02*
X0169816Y0013001D01*
X0168671Y0012551D02*
X0167320Y0012551D01*
X0166869Y0013001D01*
X0166869Y0013902D01*
X0167320Y0014352D01*
X0168671Y0014352D01*
X0168671Y0011650D01*
X0167770Y0012551D02*
X0166869Y0011650D01*
X0170266Y0011650D02*
X0170266Y0014352D01*
X0171617Y0013001D01*
X0173744Y0009552D02*
X0173744Y0009102D01*
X0173744Y0009552D02*
X0175546Y0009552D01*
D12*
X0101287Y0060350D02*
X0101287Y0062850D01*
X0098162Y0062850D02*
X0098162Y0060350D01*
X0093162Y0060350D02*
X0093162Y0062850D01*
X0090037Y0062850D02*
X0090037Y0060350D01*
X0085038Y0060350D02*
X0085038Y0062850D01*
X0081913Y0062850D02*
X0081913Y0060350D01*
X0077850Y0070975D02*
X0075350Y0070975D01*
X0075350Y0074100D02*
X0077850Y0074100D01*
X0077850Y0079100D02*
X0075350Y0079100D01*
X0075350Y0082225D02*
X0077850Y0082225D01*
X0081913Y0090350D02*
X0081913Y0092850D01*
X0085038Y0092850D02*
X0085038Y0090350D01*
X0090037Y0090350D02*
X0090037Y0092850D01*
X0093162Y0092850D02*
X0093162Y0090350D01*
X0098162Y0090350D02*
X0098162Y0092850D01*
X0101287Y0092850D02*
X0101287Y0090350D01*
X0105350Y0082225D02*
X0107850Y0082225D01*
X0107850Y0079100D02*
X0105350Y0079100D01*
X0105350Y0074100D02*
X0107850Y0074100D01*
X0107850Y0070975D02*
X0105350Y0070975D01*
X0053162Y0037850D02*
X0053162Y0035350D01*
X0050037Y0035350D02*
X0050037Y0037850D01*
X0043162Y0037850D02*
X0043162Y0035350D01*
X0040038Y0035350D02*
X0040038Y0037850D01*
X0018163Y0037850D02*
X0018163Y0035350D01*
X0015037Y0035350D02*
X0015037Y0037850D01*
X0168163Y0096600D02*
X0169413Y0095350D01*
X0169413Y0079100D01*
X0170663Y0077850D01*
X0171913Y0077850D01*
X0175350Y0080038D02*
X0177850Y0080038D01*
X0177850Y0083163D02*
X0175350Y0083163D01*
X0175350Y0090037D02*
X0177850Y0090037D01*
X0177850Y0093162D02*
X0175350Y0093162D01*
X0169413Y0097850D02*
X0168163Y0096600D01*
X0169413Y0097850D02*
X0169413Y0124412D01*
X0170350Y0125350D01*
X0172225Y0125350D01*
X0175350Y0123162D02*
X0177850Y0123162D01*
X0177850Y0120037D02*
X0175350Y0120037D01*
X0175350Y0113162D02*
X0177850Y0113162D01*
X0177850Y0110037D02*
X0175350Y0110037D01*
X0175350Y0103162D02*
X0177850Y0103162D01*
X0177850Y0100037D02*
X0175350Y0100037D01*
M02*
