G75*
%MOIN*%
%OFA0B0*%
%FSLAX25Y25*%
%IPPOS*%
%LPD*%
%AMOC8*
5,1,8,0,0,1.08239X$1,22.5*
%
%ADD10C,0.00000*%
%ADD11R,0.04731X0.04337*%
%ADD12R,0.04337X0.04731*%
%ADD13OC8,0.06306*%
%ADD14R,0.06306X0.06306*%
D10*
X0007850Y0004100D02*
X0005350Y0006600D01*
X0005350Y0129100D01*
X0007850Y0131600D01*
X0195350Y0131600D01*
X0197850Y0129100D01*
X0197850Y0006600D01*
X0195350Y0004100D01*
X0007850Y0004100D01*
D11*
X0016600Y0033254D03*
X0016600Y0039946D03*
X0041600Y0039946D03*
X0041600Y0033254D03*
X0051600Y0033254D03*
X0051600Y0039946D03*
X0073254Y0072538D03*
X0079946Y0072538D03*
X0079946Y0080663D03*
X0073254Y0080663D03*
X0103254Y0080663D03*
X0109946Y0080663D03*
X0109946Y0072538D03*
X0103254Y0072538D03*
X0173254Y0081600D03*
X0179946Y0081600D03*
X0179946Y0091600D03*
X0173254Y0091600D03*
X0173254Y0101600D03*
X0179946Y0101600D03*
X0179946Y0111600D03*
X0173254Y0111600D03*
X0173254Y0121600D03*
X0179946Y0121600D03*
D12*
X0099725Y0094946D03*
X0091600Y0094946D03*
X0083475Y0094946D03*
X0083475Y0088254D03*
X0091600Y0088254D03*
X0099725Y0088254D03*
X0099725Y0064946D03*
X0099725Y0058254D03*
X0091600Y0058254D03*
X0091600Y0064946D03*
X0083475Y0064946D03*
X0083475Y0058254D03*
D13*
X0051600Y0024412D03*
X0041600Y0024412D03*
X0031600Y0024412D03*
X0021600Y0024412D03*
X0011600Y0024412D03*
X0021600Y0014412D03*
X0031600Y0014412D03*
X0041600Y0014412D03*
X0051600Y0014412D03*
D14*
X0011600Y0014412D03*
M02*
