G75*
%MOIN*%
%OFA0B0*%
%FSLAX25Y25*%
%IPPOS*%
%LPD*%
%AMOC8*
5,1,8,0,0,1.08239X$1,22.5*
%
%ADD10C,0.00000*%
%ADD11R,0.04331X0.03937*%
%ADD12R,0.03937X0.04331*%
%ADD13R,0.02165X0.04724*%
%ADD14R,0.06300X0.04600*%
%ADD15C,0.01200*%
%ADD16C,0.03562*%
%ADD17C,0.02775*%
%ADD18OC8,0.05906*%
%ADD19C,0.02000*%
%ADD20C,0.02400*%
%ADD21C,0.01600*%
%ADD22C,0.01400*%
%ADD23C,0.03200*%
%ADD24C,0.03169*%
%ADD25C,0.01000*%
%ADD26R,0.05906X0.05906*%
D10*
X0007850Y0004100D02*
X0005350Y0006600D01*
X0005350Y0129100D01*
X0007850Y0131600D01*
X0195350Y0131600D01*
X0197850Y0129100D01*
X0197850Y0006600D01*
X0195350Y0004100D01*
X0007850Y0004100D01*
D11*
X0016600Y0033254D03*
X0016600Y0039946D03*
X0041600Y0039946D03*
X0041600Y0033254D03*
X0051600Y0033254D03*
X0051600Y0039946D03*
X0070754Y0072538D03*
X0077446Y0072538D03*
X0077446Y0080663D03*
X0070754Y0080663D03*
X0105441Y0077225D03*
X0112134Y0077225D03*
X0112134Y0069100D03*
X0105441Y0069100D03*
X0173254Y0081600D03*
X0179946Y0081600D03*
X0179946Y0091600D03*
X0173254Y0091600D03*
X0173254Y0101600D03*
X0179946Y0101600D03*
X0179946Y0111600D03*
X0173254Y0111600D03*
X0173254Y0121600D03*
X0179946Y0121600D03*
X0068071Y0126600D03*
X0061379Y0126600D03*
D12*
X0039100Y0124946D03*
X0039100Y0118254D03*
X0048254Y0106600D03*
X0054946Y0106600D03*
X0079725Y0097446D03*
X0079725Y0090754D03*
X0091600Y0090754D03*
X0091600Y0097446D03*
X0102225Y0097446D03*
X0102225Y0090754D03*
X0105350Y0062446D03*
X0105350Y0055754D03*
X0092537Y0055754D03*
X0092537Y0062446D03*
X0077850Y0062446D03*
X0077850Y0055754D03*
D13*
X0055340Y0116482D03*
X0051600Y0116482D03*
X0047860Y0116482D03*
X0047860Y0126718D03*
X0055340Y0126718D03*
D14*
X0116600Y0094600D03*
X0116600Y0088600D03*
D15*
X0112250Y0088192D02*
X0112250Y0085803D01*
X0112953Y0085100D01*
X0114459Y0085100D01*
X0113897Y0084537D01*
X0099616Y0084537D01*
X0098912Y0085241D01*
X0098912Y0087716D01*
X0098976Y0087606D01*
X0099274Y0087308D01*
X0099639Y0087097D01*
X0100046Y0086988D01*
X0101841Y0086988D01*
X0101841Y0090369D01*
X0102609Y0090369D01*
X0102609Y0086988D01*
X0104404Y0086988D01*
X0104811Y0087097D01*
X0105176Y0087308D01*
X0105474Y0087606D01*
X0105684Y0087971D01*
X0105793Y0088378D01*
X0105793Y0090369D01*
X0102609Y0090369D01*
X0102609Y0091138D01*
X0105793Y0091138D01*
X0105793Y0093130D01*
X0105684Y0093536D01*
X0105474Y0093901D01*
X0105176Y0094199D01*
X0104943Y0094334D01*
X0105393Y0094784D01*
X0105393Y0095973D01*
X0107183Y0097763D01*
X0107740Y0097763D01*
X0108691Y0098157D01*
X0109418Y0098884D01*
X0109812Y0099835D01*
X0109812Y0100865D01*
X0109418Y0101816D01*
X0108691Y0102543D01*
X0107740Y0102937D01*
X0106710Y0102937D01*
X0105759Y0102543D01*
X0105032Y0101816D01*
X0104638Y0100865D01*
X0104638Y0100812D01*
X0104225Y0100812D01*
X0104225Y0103366D01*
X0103053Y0104537D01*
X0099928Y0107662D01*
X0084209Y0107662D01*
X0083038Y0106491D01*
X0079484Y0102937D01*
X0079210Y0102937D01*
X0078259Y0102543D01*
X0077532Y0101816D01*
X0077138Y0100865D01*
X0077138Y0100690D01*
X0076556Y0100109D01*
X0076556Y0098618D01*
X0073584Y0098618D01*
X0072413Y0097446D01*
X0067169Y0092203D01*
X0065997Y0091031D01*
X0065841Y0090875D01*
X0052594Y0090875D01*
X0049000Y0094469D01*
X0049000Y0096952D01*
X0049400Y0097918D01*
X0049400Y0099032D01*
X0048974Y0100061D01*
X0048186Y0100849D01*
X0047157Y0101275D01*
X0036043Y0101275D01*
X0035014Y0100849D01*
X0034226Y0100061D01*
X0033800Y0099032D01*
X0033800Y0097918D01*
X0034226Y0096889D01*
X0035014Y0096101D01*
X0036043Y0095675D01*
X0041006Y0095675D01*
X0042222Y0094459D01*
X0042897Y0093784D01*
X0044565Y0092116D01*
X0045241Y0091440D01*
X0049200Y0087481D01*
X0049200Y0046887D01*
X0045813Y0043500D01*
X0044845Y0042532D01*
X0044262Y0043115D01*
X0038938Y0043115D01*
X0038235Y0042412D01*
X0038235Y0041846D01*
X0036347Y0041846D01*
X0024075Y0029575D01*
X0018300Y0029575D01*
X0018300Y0030085D01*
X0019262Y0030085D01*
X0019965Y0030788D01*
X0019965Y0035719D01*
X0019262Y0036422D01*
X0019141Y0036422D01*
X0019383Y0036487D01*
X0019748Y0036698D01*
X0020046Y0036996D01*
X0020256Y0037360D01*
X0020365Y0037767D01*
X0020365Y0039562D01*
X0016984Y0039562D01*
X0016984Y0040331D01*
X0016216Y0040331D01*
X0016216Y0043515D01*
X0014224Y0043515D01*
X0013817Y0043406D01*
X0013452Y0043195D01*
X0013154Y0042897D01*
X0012944Y0042533D01*
X0012835Y0042126D01*
X0012835Y0040331D01*
X0016216Y0040331D01*
X0016216Y0039562D01*
X0012835Y0039562D01*
X0012835Y0037767D01*
X0012944Y0037360D01*
X0013154Y0036996D01*
X0013452Y0036698D01*
X0013817Y0036487D01*
X0014059Y0036422D01*
X0013938Y0036422D01*
X0013235Y0035719D01*
X0013235Y0030788D01*
X0013938Y0030085D01*
X0014900Y0030085D01*
X0014900Y0020117D01*
X0013349Y0018565D01*
X0008150Y0018565D01*
X0007447Y0017862D01*
X0007447Y0010963D01*
X0008150Y0010260D01*
X0015050Y0010260D01*
X0015290Y0010500D01*
X0019640Y0010500D01*
X0019880Y0010260D01*
X0023320Y0010260D01*
X0023560Y0010500D01*
X0029640Y0010500D01*
X0029880Y0010260D01*
X0033320Y0010260D01*
X0033560Y0010500D01*
X0039640Y0010500D01*
X0039880Y0010260D01*
X0043320Y0010260D01*
X0043560Y0010500D01*
X0049640Y0010500D01*
X0049880Y0010260D01*
X0053320Y0010260D01*
X0055753Y0012692D01*
X0055753Y0016133D01*
X0053320Y0018565D01*
X0049880Y0018565D01*
X0049866Y0018551D01*
X0048300Y0020117D01*
X0048300Y0028619D01*
X0049766Y0030085D01*
X0054262Y0030085D01*
X0054965Y0030788D01*
X0054965Y0035719D01*
X0054887Y0035797D01*
X0054887Y0037403D01*
X0054965Y0037481D01*
X0054965Y0042412D01*
X0054262Y0043115D01*
X0050802Y0043115D01*
X0051887Y0044200D01*
X0078327Y0044200D01*
X0078810Y0044400D01*
X0106261Y0044400D01*
X0106461Y0044600D01*
X0142128Y0044600D01*
X0142322Y0044407D01*
X0143273Y0044013D01*
X0144302Y0044013D01*
X0145253Y0044407D01*
X0145981Y0045134D01*
X0146375Y0046085D01*
X0146375Y0047115D01*
X0145981Y0048066D01*
X0145253Y0048793D01*
X0144302Y0049187D01*
X0143273Y0049187D01*
X0142322Y0048793D01*
X0142128Y0048600D01*
X0108396Y0048600D01*
X0107881Y0049115D01*
X0109537Y0050772D01*
X0110787Y0052022D01*
X0115866Y0057100D01*
X0117037Y0058272D01*
X0117037Y0067067D01*
X0117231Y0067260D01*
X0117625Y0068211D01*
X0117625Y0069241D01*
X0117231Y0070192D01*
X0116503Y0070919D01*
X0115552Y0071313D01*
X0115499Y0071313D01*
X0115499Y0071566D01*
X0114796Y0072268D01*
X0109472Y0072268D01*
X0109021Y0071818D01*
X0108887Y0072051D01*
X0108589Y0072349D01*
X0108224Y0072559D01*
X0107817Y0072668D01*
X0105825Y0072668D01*
X0105825Y0069484D01*
X0105057Y0069484D01*
X0105057Y0068716D01*
X0101676Y0068716D01*
X0101676Y0066921D01*
X0101785Y0066514D01*
X0101995Y0066149D01*
X0102293Y0065851D01*
X0102334Y0065827D01*
X0102101Y0065594D01*
X0101891Y0065229D01*
X0101781Y0064822D01*
X0101781Y0062831D01*
X0104966Y0062831D01*
X0104966Y0065531D01*
X0105057Y0065531D01*
X0105057Y0068716D01*
X0105825Y0068716D01*
X0105825Y0066212D01*
X0105734Y0066212D01*
X0105734Y0062831D01*
X0104966Y0062831D01*
X0104966Y0062062D01*
X0101781Y0062062D01*
X0101781Y0060070D01*
X0101891Y0059664D01*
X0102101Y0059299D01*
X0102399Y0059001D01*
X0102632Y0058866D01*
X0102181Y0058416D01*
X0102181Y0053091D01*
X0102763Y0052510D01*
X0102763Y0052335D01*
X0103150Y0051400D01*
X0103150Y0049446D01*
X0102504Y0048800D01*
X0080504Y0048800D01*
X0079650Y0049776D01*
X0079650Y0050991D01*
X0080043Y0051384D01*
X0080437Y0052335D01*
X0080437Y0052510D01*
X0081018Y0053091D01*
X0081018Y0058416D01*
X0080568Y0058866D01*
X0080801Y0059001D01*
X0081099Y0059299D01*
X0081309Y0059664D01*
X0081418Y0060070D01*
X0081418Y0062062D01*
X0078234Y0062062D01*
X0078234Y0062831D01*
X0077466Y0062831D01*
X0077466Y0066212D01*
X0075671Y0066212D01*
X0075264Y0066103D01*
X0074899Y0065892D01*
X0074601Y0065594D01*
X0074391Y0065229D01*
X0074281Y0064822D01*
X0074281Y0062831D01*
X0077466Y0062831D01*
X0077466Y0062062D01*
X0074281Y0062062D01*
X0074281Y0060070D01*
X0074391Y0059664D01*
X0074601Y0059299D01*
X0074899Y0059001D01*
X0075132Y0058866D01*
X0074681Y0058416D01*
X0074681Y0053091D01*
X0075263Y0052510D01*
X0075263Y0052335D01*
X0075657Y0051384D01*
X0076050Y0050991D01*
X0076050Y0049846D01*
X0075204Y0049000D01*
X0055094Y0049000D01*
X0054000Y0050094D01*
X0054000Y0083418D01*
X0056657Y0086075D01*
X0065841Y0086075D01*
X0065997Y0085919D01*
X0067169Y0084747D01*
X0067710Y0084207D01*
X0067710Y0083933D01*
X0067851Y0083591D01*
X0067388Y0083128D01*
X0067388Y0078197D01*
X0068091Y0077494D01*
X0073416Y0077494D01*
X0073866Y0077944D01*
X0074001Y0077712D01*
X0074299Y0077414D01*
X0074664Y0077203D01*
X0075070Y0077094D01*
X0077062Y0077094D01*
X0077062Y0080278D01*
X0077831Y0080278D01*
X0077831Y0081047D01*
X0081212Y0081047D01*
X0081212Y0082842D01*
X0081103Y0083249D01*
X0080892Y0083613D01*
X0080594Y0083911D01*
X0080229Y0084122D01*
X0079822Y0084231D01*
X0077831Y0084231D01*
X0077831Y0081047D01*
X0077062Y0081047D01*
X0077062Y0084231D01*
X0075070Y0084231D01*
X0074664Y0084122D01*
X0074299Y0083911D01*
X0074001Y0083613D01*
X0073866Y0083381D01*
X0073416Y0083831D01*
X0072842Y0083831D01*
X0072885Y0083933D01*
X0072885Y0084962D01*
X0072491Y0085913D01*
X0071763Y0086641D01*
X0070812Y0087035D01*
X0070538Y0087035D01*
X0069997Y0087576D01*
X0069997Y0089374D01*
X0075241Y0094618D01*
X0076723Y0094618D01*
X0077007Y0094334D01*
X0076774Y0094199D01*
X0076476Y0093901D01*
X0076266Y0093536D01*
X0076156Y0093130D01*
X0076156Y0091138D01*
X0079341Y0091138D01*
X0079341Y0090369D01*
X0080109Y0090369D01*
X0080109Y0086988D01*
X0081904Y0086988D01*
X0082311Y0087097D01*
X0082676Y0087308D01*
X0082974Y0087606D01*
X0083184Y0087971D01*
X0083293Y0088378D01*
X0083293Y0090369D01*
X0080109Y0090369D01*
X0080109Y0091138D01*
X0083293Y0091138D01*
X0083293Y0093130D01*
X0083184Y0093536D01*
X0082974Y0093901D01*
X0082676Y0094199D01*
X0082443Y0094334D01*
X0082893Y0094784D01*
X0082893Y0100109D01*
X0082603Y0100399D01*
X0085866Y0103662D01*
X0098272Y0103662D01*
X0100225Y0101709D01*
X0100225Y0100812D01*
X0099759Y0100812D01*
X0099056Y0100109D01*
X0099056Y0094784D01*
X0099507Y0094334D01*
X0099274Y0094199D01*
X0098976Y0093901D01*
X0098912Y0093791D01*
X0098912Y0095241D01*
X0096100Y0098053D01*
X0094928Y0099225D01*
X0094768Y0099225D01*
X0094768Y0100109D01*
X0094187Y0100690D01*
X0094187Y0100865D01*
X0093793Y0101816D01*
X0093066Y0102543D01*
X0092115Y0102937D01*
X0091085Y0102937D01*
X0090134Y0102543D01*
X0089407Y0101816D01*
X0089013Y0100865D01*
X0089013Y0100690D01*
X0088431Y0100109D01*
X0088431Y0094784D01*
X0088882Y0094334D01*
X0088649Y0094199D01*
X0088351Y0093901D01*
X0088141Y0093536D01*
X0088031Y0093130D01*
X0088031Y0091138D01*
X0091216Y0091138D01*
X0091216Y0090369D01*
X0091984Y0090369D01*
X0091984Y0086988D01*
X0093779Y0086988D01*
X0094186Y0087097D01*
X0094551Y0087308D01*
X0094849Y0087606D01*
X0094912Y0087716D01*
X0094912Y0066159D01*
X0094717Y0066212D01*
X0092922Y0066212D01*
X0092922Y0062831D01*
X0092153Y0062831D01*
X0092153Y0066212D01*
X0090358Y0066212D01*
X0089951Y0066103D01*
X0089587Y0065892D01*
X0089289Y0065594D01*
X0089078Y0065229D01*
X0088969Y0064822D01*
X0088969Y0062831D01*
X0092153Y0062831D01*
X0092153Y0062062D01*
X0088969Y0062062D01*
X0088969Y0060070D01*
X0089078Y0059664D01*
X0089289Y0059299D01*
X0089587Y0059001D01*
X0089819Y0058866D01*
X0089369Y0058416D01*
X0089369Y0053091D01*
X0090072Y0052388D01*
X0090888Y0052388D01*
X0090888Y0052335D01*
X0091282Y0051384D01*
X0092009Y0050657D01*
X0092960Y0050263D01*
X0093990Y0050263D01*
X0094941Y0050657D01*
X0095668Y0051384D01*
X0096062Y0052335D01*
X0096062Y0053365D01*
X0095826Y0053935D01*
X0098912Y0057022D01*
X0098912Y0079522D01*
X0099616Y0080225D01*
X0099928Y0080538D01*
X0102404Y0080538D01*
X0102293Y0080474D01*
X0101995Y0080176D01*
X0101785Y0079811D01*
X0101676Y0079404D01*
X0101676Y0077609D01*
X0105057Y0077609D01*
X0105057Y0076841D01*
X0101676Y0076841D01*
X0101676Y0075046D01*
X0101785Y0074639D01*
X0101995Y0074274D01*
X0102293Y0073976D01*
X0102658Y0073766D01*
X0103065Y0073656D01*
X0105057Y0073656D01*
X0105057Y0076841D01*
X0105825Y0076841D01*
X0105825Y0073656D01*
X0107817Y0073656D01*
X0108224Y0073766D01*
X0108589Y0073976D01*
X0108887Y0074274D01*
X0109021Y0074507D01*
X0109472Y0074056D01*
X0114729Y0074056D01*
X0114835Y0074013D01*
X0115865Y0074013D01*
X0116816Y0074407D01*
X0117543Y0075134D01*
X0117937Y0076085D01*
X0117937Y0077115D01*
X0117543Y0078066D01*
X0116816Y0078793D01*
X0115865Y0079187D01*
X0115499Y0079187D01*
X0115499Y0079691D01*
X0114796Y0080393D01*
X0109472Y0080393D01*
X0109021Y0079943D01*
X0108887Y0080176D01*
X0108589Y0080474D01*
X0108478Y0080538D01*
X0115553Y0080538D01*
X0116725Y0081709D01*
X0118600Y0083584D01*
X0118600Y0085100D01*
X0120247Y0085100D01*
X0120950Y0085803D01*
X0120950Y0091397D01*
X0120747Y0091600D01*
X0120950Y0091803D01*
X0120950Y0097397D01*
X0120247Y0098100D01*
X0112953Y0098100D01*
X0112378Y0097525D01*
X0109168Y0097525D01*
X0108139Y0097099D01*
X0107351Y0096311D01*
X0106925Y0095282D01*
X0106925Y0088856D01*
X0107351Y0087826D01*
X0108139Y0087039D01*
X0109168Y0086612D01*
X0110282Y0086612D01*
X0111311Y0087039D01*
X0112099Y0087826D01*
X0112250Y0088192D01*
X0112250Y0087893D02*
X0112126Y0087893D01*
X0112250Y0086694D02*
X0110479Y0086694D01*
X0108971Y0086694D02*
X0098912Y0086694D01*
X0098912Y0085496D02*
X0112557Y0085496D01*
X0116916Y0081900D02*
X0126550Y0081900D01*
X0126513Y0081991D02*
X0126907Y0081040D01*
X0127400Y0080546D01*
X0127400Y0056521D01*
X0128396Y0055525D01*
X0128746Y0055175D01*
X0117934Y0055175D01*
X0117441Y0055668D01*
X0116490Y0056062D01*
X0115460Y0056062D01*
X0114509Y0055668D01*
X0113782Y0054941D01*
X0113388Y0053990D01*
X0113388Y0052960D01*
X0113782Y0052009D01*
X0114509Y0051282D01*
X0115460Y0050888D01*
X0116490Y0050888D01*
X0117441Y0051282D01*
X0117934Y0051775D01*
X0161521Y0051775D01*
X0162138Y0051158D01*
X0162138Y0050460D01*
X0162532Y0049509D01*
X0163259Y0048782D01*
X0164210Y0048388D01*
X0165240Y0048388D01*
X0166191Y0048782D01*
X0166775Y0049366D01*
X0166775Y0047146D01*
X0167771Y0046150D01*
X0174900Y0039021D01*
X0174900Y0015896D01*
X0175896Y0014900D01*
X0176911Y0013885D01*
X0176825Y0013677D01*
X0176825Y0012648D01*
X0177219Y0011697D01*
X0177947Y0010969D01*
X0178898Y0010575D01*
X0179927Y0010575D01*
X0180878Y0010969D01*
X0181606Y0011697D01*
X0182000Y0012648D01*
X0182000Y0013677D01*
X0181606Y0014628D01*
X0180878Y0015356D01*
X0179927Y0015750D01*
X0179854Y0015750D01*
X0178300Y0017304D01*
X0178300Y0039990D01*
X0180597Y0036672D01*
X0180263Y0035865D01*
X0180263Y0034835D01*
X0180657Y0033884D01*
X0181384Y0033157D01*
X0182335Y0032763D01*
X0183365Y0032763D01*
X0184316Y0033157D01*
X0185043Y0033884D01*
X0185437Y0034835D01*
X0185437Y0035865D01*
X0185043Y0036816D01*
X0184550Y0037309D01*
X0184550Y0051679D01*
X0172929Y0063300D01*
X0150429Y0063300D01*
X0149550Y0064179D01*
X0149550Y0117304D01*
X0144862Y0121992D01*
X0143867Y0122987D01*
X0100742Y0122987D01*
X0097312Y0126417D01*
X0097312Y0127115D01*
X0096918Y0128066D01*
X0096191Y0128793D01*
X0095240Y0129187D01*
X0094210Y0129187D01*
X0093259Y0128793D01*
X0092532Y0128066D01*
X0092138Y0127115D01*
X0092138Y0126085D01*
X0092532Y0125134D01*
X0093259Y0124407D01*
X0093788Y0124187D01*
X0092960Y0124187D01*
X0092009Y0123793D01*
X0091282Y0123066D01*
X0090888Y0122115D01*
X0090888Y0121085D01*
X0091282Y0120134D01*
X0092009Y0119407D01*
X0092538Y0119187D01*
X0092023Y0119187D01*
X0091072Y0118793D01*
X0090344Y0118066D01*
X0089950Y0117115D01*
X0089950Y0116085D01*
X0090034Y0115883D01*
X0088612Y0117304D01*
X0087617Y0118300D01*
X0075896Y0118300D01*
X0074900Y0117304D01*
X0057549Y0099954D01*
X0055434Y0099954D01*
X0054941Y0100447D01*
X0053990Y0100841D01*
X0052960Y0100841D01*
X0052009Y0100447D01*
X0051282Y0099719D01*
X0050888Y0098768D01*
X0050888Y0097739D01*
X0051282Y0096788D01*
X0052009Y0096060D01*
X0052960Y0095666D01*
X0053990Y0095666D01*
X0054941Y0096060D01*
X0055434Y0096554D01*
X0058958Y0096554D01*
X0077304Y0114900D01*
X0086208Y0114900D01*
X0089021Y0112087D01*
X0104641Y0112087D01*
X0105134Y0111594D01*
X0106085Y0111200D01*
X0107115Y0111200D01*
X0108066Y0111594D01*
X0108793Y0112322D01*
X0109187Y0113273D01*
X0109187Y0114302D01*
X0108940Y0114900D01*
X0138396Y0114900D01*
X0142400Y0110896D01*
X0142400Y0060271D01*
X0145308Y0057362D01*
X0131367Y0057362D01*
X0130800Y0057929D01*
X0130800Y0080546D01*
X0131293Y0081040D01*
X0131687Y0081991D01*
X0131687Y0083020D01*
X0131293Y0083971D01*
X0130566Y0084699D01*
X0129615Y0085093D01*
X0128585Y0085093D01*
X0127634Y0084699D01*
X0126907Y0083971D01*
X0126513Y0083020D01*
X0126513Y0081991D01*
X0126545Y0083099D02*
X0118115Y0083099D01*
X0118600Y0084297D02*
X0127233Y0084297D01*
X0127245Y0080702D02*
X0115718Y0080702D01*
X0115499Y0079503D02*
X0127400Y0079503D01*
X0127400Y0078305D02*
X0117304Y0078305D01*
X0117937Y0077106D02*
X0127400Y0077106D01*
X0127400Y0075908D02*
X0117864Y0075908D01*
X0117118Y0074709D02*
X0127400Y0074709D01*
X0127400Y0073511D02*
X0098912Y0073511D01*
X0098912Y0074709D02*
X0101766Y0074709D01*
X0101676Y0075908D02*
X0098912Y0075908D01*
X0098912Y0077106D02*
X0105057Y0077106D01*
X0105057Y0075908D02*
X0105825Y0075908D01*
X0105825Y0074709D02*
X0105057Y0074709D01*
X0105057Y0072668D02*
X0103065Y0072668D01*
X0102658Y0072559D01*
X0102293Y0072349D01*
X0101995Y0072051D01*
X0101785Y0071686D01*
X0101676Y0071279D01*
X0101676Y0069484D01*
X0105057Y0069484D01*
X0105057Y0072668D01*
X0105057Y0072312D02*
X0105825Y0072312D01*
X0105825Y0071114D02*
X0105057Y0071114D01*
X0105057Y0069915D02*
X0105825Y0069915D01*
X0105057Y0068717D02*
X0098912Y0068717D01*
X0098912Y0069915D02*
X0101676Y0069915D01*
X0101676Y0071114D02*
X0098912Y0071114D01*
X0098912Y0072312D02*
X0102257Y0072312D01*
X0108625Y0072312D02*
X0127400Y0072312D01*
X0127400Y0071114D02*
X0116034Y0071114D01*
X0117346Y0069915D02*
X0127400Y0069915D01*
X0127400Y0068717D02*
X0117625Y0068717D01*
X0117338Y0067518D02*
X0127400Y0067518D01*
X0127400Y0066320D02*
X0117037Y0066320D01*
X0117037Y0065121D02*
X0127400Y0065121D01*
X0127400Y0063923D02*
X0117037Y0063923D01*
X0117037Y0062724D02*
X0127400Y0062724D01*
X0127400Y0061526D02*
X0117037Y0061526D01*
X0117037Y0060327D02*
X0127400Y0060327D01*
X0127400Y0059129D02*
X0117037Y0059129D01*
X0116696Y0057930D02*
X0127400Y0057930D01*
X0127400Y0056732D02*
X0115497Y0056732D01*
X0114374Y0055533D02*
X0114299Y0055533D01*
X0113530Y0054334D02*
X0113100Y0054334D01*
X0113388Y0053136D02*
X0111902Y0053136D01*
X0110703Y0051937D02*
X0113853Y0051937D01*
X0109505Y0050739D02*
X0162138Y0050739D01*
X0162519Y0049540D02*
X0108306Y0049540D01*
X0106108Y0048342D02*
X0104592Y0048342D01*
X0105350Y0049100D02*
X0102850Y0046600D01*
X0107850Y0046600D01*
X0105350Y0049100D01*
X0103150Y0049540D02*
X0079856Y0049540D01*
X0079650Y0050739D02*
X0091927Y0050739D01*
X0091052Y0051937D02*
X0080273Y0051937D01*
X0081018Y0053136D02*
X0089369Y0053136D01*
X0089369Y0054334D02*
X0081018Y0054334D01*
X0081018Y0055533D02*
X0089369Y0055533D01*
X0089369Y0056732D02*
X0081018Y0056732D01*
X0081018Y0057930D02*
X0089369Y0057930D01*
X0089459Y0059129D02*
X0080929Y0059129D01*
X0081418Y0060327D02*
X0088969Y0060327D01*
X0088969Y0061526D02*
X0081418Y0061526D01*
X0081418Y0062831D02*
X0081418Y0064822D01*
X0081309Y0065229D01*
X0081099Y0065594D01*
X0080801Y0065892D01*
X0080436Y0066103D01*
X0080029Y0066212D01*
X0078234Y0066212D01*
X0078234Y0062831D01*
X0081418Y0062831D01*
X0081418Y0063923D02*
X0088969Y0063923D01*
X0089049Y0065121D02*
X0081338Y0065121D01*
X0078234Y0065121D02*
X0077466Y0065121D01*
X0077466Y0063923D02*
X0078234Y0063923D01*
X0078234Y0062724D02*
X0092153Y0062724D01*
X0092153Y0063923D02*
X0092922Y0063923D01*
X0092922Y0065121D02*
X0092153Y0065121D01*
X0094912Y0066320D02*
X0054000Y0066320D01*
X0054000Y0067518D02*
X0094912Y0067518D01*
X0094912Y0068717D02*
X0054000Y0068717D01*
X0054000Y0069915D02*
X0067545Y0069915D01*
X0067510Y0069950D02*
X0068091Y0069369D01*
X0073416Y0069369D01*
X0073866Y0069819D01*
X0074001Y0069587D01*
X0074299Y0069289D01*
X0074664Y0069078D01*
X0075070Y0068969D01*
X0077062Y0068969D01*
X0077062Y0072153D01*
X0077831Y0072153D01*
X0077831Y0072922D01*
X0081212Y0072922D01*
X0081212Y0074717D01*
X0081103Y0075124D01*
X0080892Y0075488D01*
X0080594Y0075786D01*
X0080229Y0075997D01*
X0079822Y0076106D01*
X0077831Y0076106D01*
X0077831Y0072922D01*
X0077062Y0072922D01*
X0077062Y0076106D01*
X0075070Y0076106D01*
X0074664Y0075997D01*
X0074299Y0075786D01*
X0074001Y0075488D01*
X0073866Y0075256D01*
X0073416Y0075706D01*
X0068091Y0075706D01*
X0067510Y0075125D01*
X0067335Y0075125D01*
X0066384Y0074731D01*
X0065657Y0074003D01*
X0065263Y0073052D01*
X0065263Y0072023D01*
X0065657Y0071072D01*
X0066384Y0070344D01*
X0067335Y0069950D01*
X0067510Y0069950D01*
X0065639Y0071114D02*
X0054000Y0071114D01*
X0054000Y0072312D02*
X0065263Y0072312D01*
X0065453Y0073511D02*
X0054000Y0073511D01*
X0054000Y0074709D02*
X0066363Y0074709D01*
X0067850Y0072538D02*
X0070754Y0072538D01*
X0074509Y0075908D02*
X0054000Y0075908D01*
X0054000Y0077106D02*
X0075025Y0077106D01*
X0077062Y0077106D02*
X0077831Y0077106D01*
X0077831Y0077094D02*
X0079822Y0077094D01*
X0080229Y0077203D01*
X0080594Y0077414D01*
X0080892Y0077712D01*
X0081103Y0078076D01*
X0081212Y0078483D01*
X0081212Y0080278D01*
X0077831Y0080278D01*
X0077831Y0077094D01*
X0077831Y0075908D02*
X0077062Y0075908D01*
X0077062Y0074709D02*
X0077831Y0074709D01*
X0077831Y0073511D02*
X0077062Y0073511D01*
X0077831Y0072312D02*
X0094912Y0072312D01*
X0094912Y0071114D02*
X0081212Y0071114D01*
X0081212Y0070358D02*
X0081212Y0072153D01*
X0077831Y0072153D01*
X0077831Y0068969D01*
X0079822Y0068969D01*
X0080229Y0069078D01*
X0080594Y0069289D01*
X0080892Y0069587D01*
X0081103Y0069951D01*
X0081212Y0070358D01*
X0081082Y0069915D02*
X0094912Y0069915D01*
X0098912Y0067518D02*
X0101676Y0067518D01*
X0101897Y0066320D02*
X0098912Y0066320D01*
X0098912Y0065121D02*
X0101862Y0065121D01*
X0101781Y0063923D02*
X0098912Y0063923D01*
X0098912Y0062724D02*
X0104966Y0062724D01*
X0105734Y0062724D02*
X0113037Y0062724D01*
X0113037Y0061526D02*
X0108918Y0061526D01*
X0108918Y0062062D02*
X0105734Y0062062D01*
X0105734Y0062831D01*
X0108918Y0062831D01*
X0108918Y0064822D01*
X0108809Y0065229D01*
X0108599Y0065594D01*
X0108432Y0065761D01*
X0108589Y0065851D01*
X0108887Y0066149D01*
X0109021Y0066382D01*
X0109472Y0065931D01*
X0113037Y0065931D01*
X0113037Y0059928D01*
X0108518Y0055409D01*
X0108518Y0058416D01*
X0108068Y0058866D01*
X0108301Y0059001D01*
X0108599Y0059299D01*
X0108809Y0059664D01*
X0108918Y0060070D01*
X0108918Y0062062D01*
X0108918Y0060327D02*
X0113037Y0060327D01*
X0112238Y0059129D02*
X0108429Y0059129D01*
X0108518Y0057930D02*
X0111039Y0057930D01*
X0109841Y0056732D02*
X0108518Y0056732D01*
X0108518Y0055533D02*
X0108642Y0055533D01*
X0105350Y0055754D02*
X0105350Y0052850D01*
X0102927Y0051937D02*
X0095898Y0051937D01*
X0096062Y0053136D02*
X0102181Y0053136D01*
X0102181Y0054334D02*
X0096225Y0054334D01*
X0097424Y0055533D02*
X0102181Y0055533D01*
X0102181Y0056732D02*
X0098622Y0056732D01*
X0098912Y0057930D02*
X0102181Y0057930D01*
X0102271Y0059129D02*
X0098912Y0059129D01*
X0098912Y0060327D02*
X0101781Y0060327D01*
X0101781Y0061526D02*
X0098912Y0061526D01*
X0104966Y0063923D02*
X0105734Y0063923D01*
X0105734Y0065121D02*
X0104966Y0065121D01*
X0105057Y0066320D02*
X0105825Y0066320D01*
X0105825Y0067518D02*
X0105057Y0067518D01*
X0108985Y0066320D02*
X0109083Y0066320D01*
X0108838Y0065121D02*
X0113037Y0065121D01*
X0113037Y0063923D02*
X0108918Y0063923D01*
X0117576Y0055533D02*
X0128388Y0055533D01*
X0130800Y0057930D02*
X0144741Y0057930D01*
X0143542Y0059129D02*
X0130800Y0059129D01*
X0130800Y0060327D02*
X0142400Y0060327D01*
X0142400Y0061526D02*
X0130800Y0061526D01*
X0130800Y0062724D02*
X0142400Y0062724D01*
X0142400Y0063923D02*
X0130800Y0063923D01*
X0130800Y0065121D02*
X0142400Y0065121D01*
X0142400Y0066320D02*
X0130800Y0066320D01*
X0130800Y0067518D02*
X0142400Y0067518D01*
X0142400Y0068717D02*
X0130800Y0068717D01*
X0130800Y0069915D02*
X0142400Y0069915D01*
X0142400Y0071114D02*
X0130800Y0071114D01*
X0130800Y0072312D02*
X0142400Y0072312D01*
X0142400Y0073511D02*
X0130800Y0073511D01*
X0130800Y0074709D02*
X0142400Y0074709D01*
X0142400Y0075908D02*
X0130800Y0075908D01*
X0130800Y0077106D02*
X0142400Y0077106D01*
X0142400Y0078305D02*
X0130800Y0078305D01*
X0130800Y0079503D02*
X0142400Y0079503D01*
X0142400Y0080702D02*
X0130955Y0080702D01*
X0131650Y0081900D02*
X0142400Y0081900D01*
X0142400Y0083099D02*
X0131655Y0083099D01*
X0130967Y0084297D02*
X0142400Y0084297D01*
X0142400Y0085496D02*
X0120643Y0085496D01*
X0120950Y0086694D02*
X0142400Y0086694D01*
X0142400Y0087893D02*
X0120950Y0087893D01*
X0120950Y0089091D02*
X0142400Y0089091D01*
X0142400Y0090290D02*
X0120950Y0090290D01*
X0120859Y0091488D02*
X0142400Y0091488D01*
X0142400Y0092687D02*
X0120950Y0092687D01*
X0120950Y0093885D02*
X0142400Y0093885D01*
X0142400Y0095084D02*
X0120950Y0095084D01*
X0120950Y0096282D02*
X0142400Y0096282D01*
X0142400Y0097481D02*
X0120866Y0097481D01*
X0109812Y0099878D02*
X0142400Y0099878D01*
X0142400Y0101076D02*
X0109725Y0101076D01*
X0108959Y0102275D02*
X0142400Y0102275D01*
X0142400Y0103473D02*
X0104117Y0103473D01*
X0104225Y0102275D02*
X0105491Y0102275D01*
X0104725Y0101076D02*
X0104225Y0101076D01*
X0107225Y0100350D02*
X0104321Y0097446D01*
X0102225Y0097446D01*
X0099056Y0097481D02*
X0096673Y0097481D01*
X0097871Y0096282D02*
X0099056Y0096282D01*
X0099056Y0095084D02*
X0098912Y0095084D01*
X0098912Y0093885D02*
X0098967Y0093885D01*
X0101841Y0090290D02*
X0102609Y0090290D01*
X0102609Y0089091D02*
X0101841Y0089091D01*
X0101841Y0087893D02*
X0102609Y0087893D01*
X0105640Y0087893D02*
X0107324Y0087893D01*
X0106925Y0089091D02*
X0105793Y0089091D01*
X0105793Y0090290D02*
X0106925Y0090290D01*
X0106925Y0091488D02*
X0105793Y0091488D01*
X0105793Y0092687D02*
X0106925Y0092687D01*
X0106925Y0093885D02*
X0105483Y0093885D01*
X0105393Y0095084D02*
X0106925Y0095084D01*
X0107339Y0096282D02*
X0105703Y0096282D01*
X0106901Y0097481D02*
X0109062Y0097481D01*
X0109214Y0098679D02*
X0142400Y0098679D01*
X0149550Y0098679D02*
X0169790Y0098679D01*
X0169808Y0098649D02*
X0170106Y0098351D01*
X0170471Y0098141D01*
X0170878Y0098031D01*
X0172869Y0098031D01*
X0172869Y0101216D01*
X0169488Y0101216D01*
X0169488Y0099421D01*
X0169597Y0099014D01*
X0169808Y0098649D01*
X0169488Y0099878D02*
X0149550Y0099878D01*
X0149550Y0101076D02*
X0169488Y0101076D01*
X0169488Y0101984D02*
X0172869Y0101984D01*
X0172869Y0101216D01*
X0173638Y0101216D01*
X0173638Y0098031D01*
X0175630Y0098031D01*
X0176036Y0098141D01*
X0176401Y0098351D01*
X0176699Y0098649D01*
X0176834Y0098882D01*
X0177284Y0098431D01*
X0182609Y0098431D01*
X0183312Y0099134D01*
X0183312Y0099900D01*
X0184641Y0099900D01*
X0185134Y0099407D01*
X0186085Y0099013D01*
X0187115Y0099013D01*
X0188066Y0099407D01*
X0188793Y0100134D01*
X0189187Y0101085D01*
X0189187Y0102115D01*
X0188793Y0103066D01*
X0188066Y0103793D01*
X0187115Y0104187D01*
X0186085Y0104187D01*
X0185134Y0103793D01*
X0184641Y0103300D01*
X0183312Y0103300D01*
X0183312Y0104066D01*
X0182609Y0104768D01*
X0177284Y0104768D01*
X0176834Y0104318D01*
X0176699Y0104551D01*
X0176401Y0104849D01*
X0176036Y0105059D01*
X0175630Y0105168D01*
X0173638Y0105168D01*
X0173638Y0101984D01*
X0172869Y0101984D01*
X0172869Y0105168D01*
X0170878Y0105168D01*
X0170471Y0105059D01*
X0170106Y0104849D01*
X0169808Y0104551D01*
X0169597Y0104186D01*
X0169488Y0103779D01*
X0169488Y0101984D01*
X0169488Y0102275D02*
X0149550Y0102275D01*
X0149550Y0103473D02*
X0169488Y0103473D01*
X0169929Y0104672D02*
X0149550Y0104672D01*
X0149550Y0105870D02*
X0196250Y0105870D01*
X0196250Y0104672D02*
X0182705Y0104672D01*
X0183312Y0103473D02*
X0184814Y0103473D01*
X0188386Y0103473D02*
X0196250Y0103473D01*
X0196250Y0102275D02*
X0189121Y0102275D01*
X0189184Y0101076D02*
X0196250Y0101076D01*
X0196250Y0099878D02*
X0188537Y0099878D01*
X0184663Y0099878D02*
X0183312Y0099878D01*
X0182857Y0098679D02*
X0196250Y0098679D01*
X0196250Y0097481D02*
X0149550Y0097481D01*
X0149550Y0096282D02*
X0196250Y0096282D01*
X0196250Y0095084D02*
X0175945Y0095084D01*
X0176036Y0095059D02*
X0175630Y0095168D01*
X0173638Y0095168D01*
X0173638Y0091984D01*
X0172869Y0091984D01*
X0172869Y0091216D01*
X0169488Y0091216D01*
X0169488Y0089421D01*
X0169597Y0089014D01*
X0169808Y0088649D01*
X0170106Y0088351D01*
X0170471Y0088141D01*
X0170878Y0088031D01*
X0172869Y0088031D01*
X0172869Y0091216D01*
X0173638Y0091216D01*
X0173638Y0088031D01*
X0175630Y0088031D01*
X0176036Y0088141D01*
X0176401Y0088351D01*
X0176699Y0088649D01*
X0176834Y0088882D01*
X0177284Y0088431D01*
X0182609Y0088431D01*
X0183312Y0089134D01*
X0183312Y0089900D01*
X0184641Y0089900D01*
X0185134Y0089407D01*
X0186085Y0089013D01*
X0187115Y0089013D01*
X0188066Y0089407D01*
X0188793Y0090134D01*
X0189187Y0091085D01*
X0189187Y0092115D01*
X0188793Y0093066D01*
X0188066Y0093793D01*
X0187115Y0094187D01*
X0186085Y0094187D01*
X0185134Y0093793D01*
X0184641Y0093300D01*
X0183312Y0093300D01*
X0183312Y0094066D01*
X0182609Y0094768D01*
X0177284Y0094768D01*
X0176834Y0094318D01*
X0176699Y0094551D01*
X0176401Y0094849D01*
X0176036Y0095059D01*
X0173638Y0095084D02*
X0172869Y0095084D01*
X0172869Y0095168D02*
X0170878Y0095168D01*
X0170471Y0095059D01*
X0170106Y0094849D01*
X0169808Y0094551D01*
X0169597Y0094186D01*
X0169488Y0093779D01*
X0169488Y0091984D01*
X0172869Y0091984D01*
X0172869Y0095168D01*
X0172869Y0093885D02*
X0173638Y0093885D01*
X0173638Y0092687D02*
X0172869Y0092687D01*
X0172869Y0091488D02*
X0149550Y0091488D01*
X0149550Y0090290D02*
X0169488Y0090290D01*
X0169576Y0089091D02*
X0149550Y0089091D01*
X0149550Y0087893D02*
X0196250Y0087893D01*
X0196250Y0089091D02*
X0187305Y0089091D01*
X0185895Y0089091D02*
X0183269Y0089091D01*
X0188858Y0090290D02*
X0196250Y0090290D01*
X0196250Y0091488D02*
X0189187Y0091488D01*
X0188950Y0092687D02*
X0196250Y0092687D01*
X0196250Y0093885D02*
X0187844Y0093885D01*
X0185356Y0093885D02*
X0183312Y0093885D01*
X0177036Y0098679D02*
X0176717Y0098679D01*
X0173638Y0098679D02*
X0172869Y0098679D01*
X0172869Y0099878D02*
X0173638Y0099878D01*
X0173638Y0101076D02*
X0172869Y0101076D01*
X0172869Y0102275D02*
X0173638Y0102275D01*
X0173638Y0103473D02*
X0172869Y0103473D01*
X0172869Y0104672D02*
X0173638Y0104672D01*
X0176578Y0104672D02*
X0177188Y0104672D01*
X0176036Y0108141D02*
X0176401Y0108351D01*
X0176699Y0108649D01*
X0176834Y0108882D01*
X0177284Y0108431D01*
X0182609Y0108431D01*
X0183312Y0109134D01*
X0183312Y0109900D01*
X0184641Y0109900D01*
X0185134Y0109407D01*
X0186085Y0109013D01*
X0187115Y0109013D01*
X0188066Y0109407D01*
X0188793Y0110134D01*
X0189187Y0111085D01*
X0189187Y0112115D01*
X0188793Y0113066D01*
X0188066Y0113793D01*
X0187115Y0114187D01*
X0186085Y0114187D01*
X0185134Y0113793D01*
X0184641Y0113300D01*
X0183312Y0113300D01*
X0183312Y0114066D01*
X0182609Y0114768D01*
X0177284Y0114768D01*
X0176834Y0114318D01*
X0176699Y0114551D01*
X0176401Y0114849D01*
X0176036Y0115059D01*
X0175630Y0115168D01*
X0173638Y0115168D01*
X0173638Y0111984D01*
X0172869Y0111984D01*
X0172869Y0111216D01*
X0169488Y0111216D01*
X0169488Y0109421D01*
X0169597Y0109014D01*
X0169808Y0108649D01*
X0170106Y0108351D01*
X0170471Y0108141D01*
X0170878Y0108031D01*
X0172869Y0108031D01*
X0172869Y0111216D01*
X0173638Y0111216D01*
X0173638Y0108031D01*
X0175630Y0108031D01*
X0176036Y0108141D01*
X0176256Y0108268D02*
X0196250Y0108268D01*
X0196250Y0109466D02*
X0188125Y0109466D01*
X0189013Y0110665D02*
X0196250Y0110665D01*
X0196250Y0111863D02*
X0189187Y0111863D01*
X0188795Y0113062D02*
X0196250Y0113062D01*
X0196250Y0114260D02*
X0183117Y0114260D01*
X0182609Y0118431D02*
X0177284Y0118431D01*
X0176834Y0118882D01*
X0176699Y0118649D01*
X0176401Y0118351D01*
X0176036Y0118141D01*
X0175630Y0118031D01*
X0173638Y0118031D01*
X0173638Y0121216D01*
X0172869Y0121216D01*
X0169488Y0121216D01*
X0169488Y0119421D01*
X0169597Y0119014D01*
X0169808Y0118649D01*
X0170106Y0118351D01*
X0170471Y0118141D01*
X0170878Y0118031D01*
X0172869Y0118031D01*
X0172869Y0121216D01*
X0172869Y0121984D01*
X0169488Y0121984D01*
X0169488Y0123779D01*
X0169597Y0124186D01*
X0169808Y0124551D01*
X0170106Y0124849D01*
X0170471Y0125059D01*
X0170878Y0125168D01*
X0172869Y0125168D01*
X0172869Y0121984D01*
X0173638Y0121984D01*
X0173638Y0125168D01*
X0175630Y0125168D01*
X0176036Y0125059D01*
X0176401Y0124849D01*
X0176699Y0124551D01*
X0176834Y0124318D01*
X0177284Y0124768D01*
X0182609Y0124768D01*
X0183312Y0124066D01*
X0183312Y0123300D01*
X0184641Y0123300D01*
X0185134Y0123793D01*
X0186085Y0124187D01*
X0187115Y0124187D01*
X0188066Y0123793D01*
X0188793Y0123066D01*
X0189187Y0122115D01*
X0189187Y0121085D01*
X0188793Y0120134D01*
X0188066Y0119407D01*
X0187115Y0119013D01*
X0186085Y0119013D01*
X0185134Y0119407D01*
X0184641Y0119900D01*
X0183312Y0119900D01*
X0183312Y0119134D01*
X0182609Y0118431D01*
X0183231Y0119054D02*
X0185985Y0119054D01*
X0187215Y0119054D02*
X0196250Y0119054D01*
X0196250Y0117856D02*
X0148999Y0117856D01*
X0149550Y0116657D02*
X0196250Y0116657D01*
X0196250Y0115459D02*
X0149550Y0115459D01*
X0149550Y0114260D02*
X0169640Y0114260D01*
X0169597Y0114186D02*
X0169488Y0113779D01*
X0169488Y0111984D01*
X0172869Y0111984D01*
X0172869Y0115168D01*
X0170878Y0115168D01*
X0170471Y0115059D01*
X0170106Y0114849D01*
X0169808Y0114551D01*
X0169597Y0114186D01*
X0169488Y0113062D02*
X0149550Y0113062D01*
X0149550Y0111863D02*
X0172869Y0111863D01*
X0172869Y0110665D02*
X0173638Y0110665D01*
X0173638Y0109466D02*
X0172869Y0109466D01*
X0172869Y0108268D02*
X0173638Y0108268D01*
X0170251Y0108268D02*
X0149550Y0108268D01*
X0149550Y0109466D02*
X0169488Y0109466D01*
X0169488Y0110665D02*
X0149550Y0110665D01*
X0149550Y0107069D02*
X0196250Y0107069D01*
X0185075Y0109466D02*
X0183312Y0109466D01*
X0173638Y0113062D02*
X0172869Y0113062D01*
X0172869Y0114260D02*
X0173638Y0114260D01*
X0173638Y0119054D02*
X0172869Y0119054D01*
X0172869Y0120253D02*
X0173638Y0120253D01*
X0172869Y0121451D02*
X0145403Y0121451D01*
X0146602Y0120253D02*
X0169488Y0120253D01*
X0169586Y0119054D02*
X0147800Y0119054D01*
X0144205Y0122650D02*
X0169488Y0122650D01*
X0169507Y0123848D02*
X0099881Y0123848D01*
X0098682Y0125047D02*
X0170448Y0125047D01*
X0172869Y0125047D02*
X0173638Y0125047D01*
X0173638Y0123848D02*
X0172869Y0123848D01*
X0172869Y0122650D02*
X0173638Y0122650D01*
X0176059Y0125047D02*
X0196250Y0125047D01*
X0196250Y0126245D02*
X0097484Y0126245D01*
X0097176Y0127444D02*
X0196250Y0127444D01*
X0196250Y0128437D02*
X0196250Y0007263D01*
X0194687Y0005700D01*
X0008513Y0005700D01*
X0006950Y0007263D01*
X0006950Y0128437D01*
X0008513Y0130000D01*
X0046000Y0130000D01*
X0045577Y0129577D01*
X0045577Y0124142D01*
X0043584Y0126135D01*
X0042702Y0126500D01*
X0042268Y0126500D01*
X0042268Y0127609D01*
X0041566Y0128312D01*
X0036634Y0128312D01*
X0035931Y0127609D01*
X0035931Y0126500D01*
X0033123Y0126500D01*
X0032157Y0126900D01*
X0026043Y0126900D01*
X0025014Y0126474D01*
X0024226Y0125686D01*
X0023800Y0124657D01*
X0023800Y0123543D01*
X0024226Y0122514D01*
X0025014Y0121726D01*
X0026043Y0121300D01*
X0032157Y0121300D01*
X0033123Y0121700D01*
X0036150Y0121700D01*
X0036149Y0121699D01*
X0035851Y0121401D01*
X0035641Y0121036D01*
X0035531Y0120630D01*
X0035531Y0118638D01*
X0038716Y0118638D01*
X0038716Y0117869D01*
X0039484Y0117869D01*
X0039484Y0114488D01*
X0041279Y0114488D01*
X0041686Y0114597D01*
X0042051Y0114808D01*
X0042349Y0115106D01*
X0042559Y0115471D01*
X0042668Y0115878D01*
X0042668Y0117869D01*
X0039484Y0117869D01*
X0039484Y0118638D01*
X0042668Y0118638D01*
X0042668Y0120262D01*
X0043991Y0118940D01*
X0045460Y0117471D01*
X0045460Y0109637D01*
X0045085Y0109262D01*
X0045085Y0103938D01*
X0045788Y0103235D01*
X0050719Y0103235D01*
X0051422Y0103938D01*
X0051422Y0109262D01*
X0050719Y0109965D01*
X0050260Y0109965D01*
X0050260Y0112532D01*
X0050307Y0112520D01*
X0051600Y0112520D01*
X0052893Y0112520D01*
X0053300Y0112629D01*
X0053665Y0112839D01*
X0053753Y0112927D01*
X0053760Y0112920D01*
X0056088Y0112920D01*
X0053134Y0109965D01*
X0052481Y0109965D01*
X0051778Y0109262D01*
X0051778Y0103938D01*
X0052481Y0103235D01*
X0057412Y0103235D01*
X0058115Y0103938D01*
X0058115Y0108158D01*
X0062220Y0112264D01*
X0063186Y0112664D01*
X0063974Y0113451D01*
X0064400Y0114481D01*
X0064400Y0123791D01*
X0064491Y0123882D01*
X0064626Y0123649D01*
X0064924Y0123351D01*
X0065289Y0123141D01*
X0065695Y0123031D01*
X0067687Y0123031D01*
X0067687Y0126216D01*
X0068456Y0126216D01*
X0068456Y0126984D01*
X0071837Y0126984D01*
X0071837Y0128779D01*
X0071728Y0129186D01*
X0071517Y0129551D01*
X0071219Y0129849D01*
X0070957Y0130000D01*
X0194687Y0130000D01*
X0196250Y0128437D01*
X0196045Y0128642D02*
X0096342Y0128642D01*
X0093108Y0128642D02*
X0071837Y0128642D01*
X0071837Y0127444D02*
X0092274Y0127444D01*
X0092138Y0126245D02*
X0068456Y0126245D01*
X0068456Y0126216D02*
X0071837Y0126216D01*
X0071837Y0124421D01*
X0071728Y0124014D01*
X0071517Y0123649D01*
X0071219Y0123351D01*
X0070854Y0123141D01*
X0070447Y0123031D01*
X0068456Y0123031D01*
X0068456Y0126216D01*
X0068456Y0125047D02*
X0067687Y0125047D01*
X0067687Y0123848D02*
X0068456Y0123848D01*
X0071632Y0123848D02*
X0092141Y0123848D01*
X0092619Y0125047D02*
X0071837Y0125047D01*
X0071227Y0129841D02*
X0194847Y0129841D01*
X0196250Y0123848D02*
X0187934Y0123848D01*
X0188966Y0122650D02*
X0196250Y0122650D01*
X0196250Y0121451D02*
X0189187Y0121451D01*
X0188842Y0120253D02*
X0196250Y0120253D01*
X0185266Y0123848D02*
X0183312Y0123848D01*
X0142400Y0110665D02*
X0073069Y0110665D01*
X0074267Y0111863D02*
X0104865Y0111863D01*
X0108335Y0111863D02*
X0141433Y0111863D01*
X0140234Y0113062D02*
X0109100Y0113062D01*
X0109187Y0114260D02*
X0139036Y0114260D01*
X0142400Y0109466D02*
X0071870Y0109466D01*
X0070672Y0108268D02*
X0142400Y0108268D01*
X0142400Y0107069D02*
X0100522Y0107069D01*
X0101720Y0105870D02*
X0142400Y0105870D01*
X0142400Y0104672D02*
X0102919Y0104672D01*
X0099659Y0102275D02*
X0093334Y0102275D01*
X0094100Y0101076D02*
X0100225Y0101076D01*
X0099056Y0099878D02*
X0094768Y0099878D01*
X0095474Y0098679D02*
X0099056Y0098679D01*
X0098461Y0103473D02*
X0085677Y0103473D01*
X0084478Y0102275D02*
X0089866Y0102275D01*
X0089100Y0101076D02*
X0083280Y0101076D01*
X0082893Y0099878D02*
X0088431Y0099878D01*
X0088431Y0098679D02*
X0082893Y0098679D01*
X0082893Y0097481D02*
X0088431Y0097481D01*
X0088431Y0096282D02*
X0082893Y0096282D01*
X0082893Y0095084D02*
X0088431Y0095084D01*
X0088342Y0093885D02*
X0082983Y0093885D01*
X0083293Y0092687D02*
X0088031Y0092687D01*
X0088031Y0091488D02*
X0083293Y0091488D01*
X0083293Y0090290D02*
X0088031Y0090290D01*
X0088031Y0090369D02*
X0088031Y0088378D01*
X0088141Y0087971D01*
X0088351Y0087606D01*
X0088649Y0087308D01*
X0089014Y0087097D01*
X0089421Y0086988D01*
X0091216Y0086988D01*
X0091216Y0090369D01*
X0088031Y0090369D01*
X0088031Y0089091D02*
X0083293Y0089091D01*
X0083140Y0087893D02*
X0088185Y0087893D01*
X0091216Y0087893D02*
X0091984Y0087893D01*
X0091984Y0089091D02*
X0091216Y0089091D01*
X0091216Y0090290D02*
X0091984Y0090290D01*
X0094912Y0086694D02*
X0071634Y0086694D01*
X0072664Y0085496D02*
X0094912Y0085496D01*
X0094912Y0084297D02*
X0072885Y0084297D01*
X0070754Y0083696D02*
X0070297Y0084448D01*
X0070754Y0083696D02*
X0070754Y0080663D01*
X0067388Y0080702D02*
X0054000Y0080702D01*
X0054000Y0081900D02*
X0067388Y0081900D01*
X0067388Y0083099D02*
X0054000Y0083099D01*
X0054879Y0084297D02*
X0067619Y0084297D01*
X0066421Y0085496D02*
X0056077Y0085496D01*
X0049200Y0085496D02*
X0006950Y0085496D01*
X0006950Y0086694D02*
X0049200Y0086694D01*
X0048788Y0087893D02*
X0006950Y0087893D01*
X0006950Y0089091D02*
X0047590Y0089091D01*
X0046391Y0090290D02*
X0006950Y0090290D01*
X0006950Y0091488D02*
X0045193Y0091488D01*
X0043994Y0092687D02*
X0006950Y0092687D01*
X0006950Y0093885D02*
X0042796Y0093885D01*
X0042897Y0093784D02*
X0042897Y0093784D01*
X0042222Y0094459D02*
X0042222Y0094459D01*
X0041597Y0095084D02*
X0006950Y0095084D01*
X0006950Y0096282D02*
X0034833Y0096282D01*
X0033981Y0097481D02*
X0006950Y0097481D01*
X0006950Y0098679D02*
X0033800Y0098679D01*
X0034150Y0099878D02*
X0006950Y0099878D01*
X0006950Y0101076D02*
X0035564Y0101076D01*
X0045085Y0104672D02*
X0006950Y0104672D01*
X0006950Y0105870D02*
X0045085Y0105870D01*
X0045085Y0107069D02*
X0006950Y0107069D01*
X0006950Y0108268D02*
X0045085Y0108268D01*
X0045289Y0109466D02*
X0006950Y0109466D01*
X0006950Y0110665D02*
X0045460Y0110665D01*
X0045460Y0111863D02*
X0006950Y0111863D01*
X0006950Y0113062D02*
X0045460Y0113062D01*
X0045460Y0114260D02*
X0006950Y0114260D01*
X0006950Y0115459D02*
X0035647Y0115459D01*
X0035641Y0115471D02*
X0035851Y0115106D01*
X0036149Y0114808D01*
X0036514Y0114597D01*
X0036921Y0114488D01*
X0038716Y0114488D01*
X0038716Y0117869D01*
X0035531Y0117869D01*
X0035531Y0115878D01*
X0035641Y0115471D01*
X0035531Y0116657D02*
X0006950Y0116657D01*
X0006950Y0117856D02*
X0035531Y0117856D01*
X0035531Y0119054D02*
X0006950Y0119054D01*
X0006950Y0120253D02*
X0035531Y0120253D01*
X0035901Y0121451D02*
X0032522Y0121451D01*
X0038716Y0117856D02*
X0039484Y0117856D01*
X0039484Y0116657D02*
X0038716Y0116657D01*
X0038716Y0115459D02*
X0039484Y0115459D01*
X0042553Y0115459D02*
X0045460Y0115459D01*
X0045460Y0116657D02*
X0042668Y0116657D01*
X0042668Y0117856D02*
X0045075Y0117856D01*
X0043877Y0119054D02*
X0042668Y0119054D01*
X0042668Y0120253D02*
X0042678Y0120253D01*
X0044672Y0125047D02*
X0045577Y0125047D01*
X0045577Y0126245D02*
X0043318Y0126245D01*
X0042268Y0127444D02*
X0045577Y0127444D01*
X0045577Y0128642D02*
X0007155Y0128642D01*
X0006950Y0127444D02*
X0035931Y0127444D01*
X0045841Y0129841D02*
X0008353Y0129841D01*
X0006950Y0126245D02*
X0024785Y0126245D01*
X0023961Y0125047D02*
X0006950Y0125047D01*
X0006950Y0123848D02*
X0023800Y0123848D01*
X0024170Y0122650D02*
X0006950Y0122650D01*
X0006950Y0121451D02*
X0025678Y0121451D01*
X0050260Y0111863D02*
X0055031Y0111863D01*
X0053833Y0110665D02*
X0050260Y0110665D01*
X0051218Y0109466D02*
X0051982Y0109466D01*
X0051778Y0108268D02*
X0051422Y0108268D01*
X0051422Y0107069D02*
X0051778Y0107069D01*
X0051778Y0105870D02*
X0051422Y0105870D01*
X0051422Y0104672D02*
X0051778Y0104672D01*
X0052242Y0103473D02*
X0050958Y0103473D01*
X0051440Y0099878D02*
X0049050Y0099878D01*
X0049400Y0098679D02*
X0050888Y0098679D01*
X0050994Y0097481D02*
X0049219Y0097481D01*
X0049000Y0096282D02*
X0051787Y0096282D01*
X0049000Y0095084D02*
X0070050Y0095084D01*
X0068852Y0093885D02*
X0049584Y0093885D01*
X0050782Y0092687D02*
X0067653Y0092687D01*
X0066455Y0091488D02*
X0051981Y0091488D01*
X0055163Y0096282D02*
X0071249Y0096282D01*
X0072447Y0097481D02*
X0059885Y0097481D01*
X0061084Y0098679D02*
X0076556Y0098679D01*
X0076556Y0099878D02*
X0062282Y0099878D01*
X0063481Y0101076D02*
X0077225Y0101076D01*
X0077991Y0102275D02*
X0064679Y0102275D01*
X0065878Y0103473D02*
X0080020Y0103473D01*
X0081219Y0104672D02*
X0067076Y0104672D01*
X0068275Y0105870D02*
X0082417Y0105870D01*
X0083616Y0107069D02*
X0069473Y0107069D01*
X0067062Y0109466D02*
X0059423Y0109466D01*
X0060621Y0110665D02*
X0068260Y0110665D01*
X0069459Y0111863D02*
X0061820Y0111863D01*
X0063584Y0113062D02*
X0070657Y0113062D01*
X0071856Y0114260D02*
X0064309Y0114260D01*
X0064400Y0115459D02*
X0073054Y0115459D01*
X0074253Y0116657D02*
X0064400Y0116657D01*
X0064400Y0117856D02*
X0075451Y0117856D01*
X0076664Y0114260D02*
X0086848Y0114260D01*
X0088047Y0113062D02*
X0075466Y0113062D01*
X0065863Y0108268D02*
X0058224Y0108268D01*
X0058115Y0107069D02*
X0064665Y0107069D01*
X0063466Y0105870D02*
X0058115Y0105870D01*
X0058115Y0104672D02*
X0062268Y0104672D01*
X0061069Y0103473D02*
X0057651Y0103473D01*
X0059871Y0102275D02*
X0006950Y0102275D01*
X0006950Y0103473D02*
X0045549Y0103473D01*
X0047636Y0101076D02*
X0058672Y0101076D01*
X0072112Y0091488D02*
X0076156Y0091488D01*
X0076156Y0090369D02*
X0076156Y0088378D01*
X0076266Y0087971D01*
X0076476Y0087606D01*
X0076774Y0087308D01*
X0077139Y0087097D01*
X0077546Y0086988D01*
X0079341Y0086988D01*
X0079341Y0090369D01*
X0076156Y0090369D01*
X0076156Y0090290D02*
X0070913Y0090290D01*
X0069997Y0089091D02*
X0076156Y0089091D01*
X0076310Y0087893D02*
X0069997Y0087893D01*
X0077062Y0083099D02*
X0077831Y0083099D01*
X0077831Y0081900D02*
X0077062Y0081900D01*
X0077831Y0080702D02*
X0094912Y0080702D01*
X0094912Y0081900D02*
X0081212Y0081900D01*
X0081143Y0083099D02*
X0094912Y0083099D01*
X0094912Y0079503D02*
X0081212Y0079503D01*
X0081164Y0078305D02*
X0094912Y0078305D01*
X0094912Y0077106D02*
X0079868Y0077106D01*
X0080384Y0075908D02*
X0094912Y0075908D01*
X0094912Y0074709D02*
X0081212Y0074709D01*
X0081212Y0073511D02*
X0094912Y0073511D01*
X0098912Y0078305D02*
X0101676Y0078305D01*
X0101702Y0079503D02*
X0098912Y0079503D01*
X0112134Y0077225D02*
X0112759Y0076600D01*
X0115350Y0076600D01*
X0149550Y0077106D02*
X0178337Y0077106D01*
X0178337Y0075908D02*
X0149550Y0075908D01*
X0149550Y0074709D02*
X0178337Y0074709D01*
X0178337Y0074492D02*
X0177146Y0073300D01*
X0161997Y0073300D01*
X0161503Y0073793D01*
X0160552Y0074187D01*
X0159523Y0074187D01*
X0158572Y0073793D01*
X0157844Y0073066D01*
X0157450Y0072115D01*
X0157450Y0071085D01*
X0157844Y0070134D01*
X0158572Y0069407D01*
X0159523Y0069013D01*
X0160552Y0069013D01*
X0161503Y0069407D01*
X0161997Y0069900D01*
X0178554Y0069900D01*
X0180742Y0072088D01*
X0181737Y0073083D01*
X0181737Y0078431D01*
X0182609Y0078431D01*
X0183312Y0079134D01*
X0183312Y0079900D01*
X0184641Y0079900D01*
X0185134Y0079407D01*
X0186085Y0079013D01*
X0187115Y0079013D01*
X0188066Y0079407D01*
X0188793Y0080134D01*
X0189187Y0081085D01*
X0189187Y0082115D01*
X0188793Y0083066D01*
X0188066Y0083793D01*
X0187115Y0084187D01*
X0186085Y0084187D01*
X0185134Y0083793D01*
X0184641Y0083300D01*
X0183312Y0083300D01*
X0183312Y0084066D01*
X0182609Y0084768D01*
X0177284Y0084768D01*
X0176834Y0084318D01*
X0176699Y0084551D01*
X0176401Y0084849D01*
X0176036Y0085059D01*
X0175630Y0085168D01*
X0173638Y0085168D01*
X0173638Y0081984D01*
X0172869Y0081984D01*
X0172869Y0081216D01*
X0169488Y0081216D01*
X0169488Y0079421D01*
X0169597Y0079014D01*
X0169808Y0078649D01*
X0170106Y0078351D01*
X0170471Y0078141D01*
X0170878Y0078031D01*
X0172869Y0078031D01*
X0172869Y0081216D01*
X0173638Y0081216D01*
X0173638Y0078031D01*
X0175630Y0078031D01*
X0176036Y0078141D01*
X0176401Y0078351D01*
X0176699Y0078649D01*
X0176834Y0078882D01*
X0177284Y0078431D01*
X0178337Y0078431D01*
X0178337Y0074492D01*
X0177357Y0073511D02*
X0161786Y0073511D01*
X0158289Y0073511D02*
X0149550Y0073511D01*
X0149550Y0072312D02*
X0157532Y0072312D01*
X0157450Y0071114D02*
X0149550Y0071114D01*
X0149550Y0069915D02*
X0158063Y0069915D01*
X0149550Y0068717D02*
X0196250Y0068717D01*
X0196250Y0069915D02*
X0178569Y0069915D01*
X0179768Y0071114D02*
X0196250Y0071114D01*
X0196250Y0072312D02*
X0180966Y0072312D01*
X0181737Y0073511D02*
X0196250Y0073511D01*
X0196250Y0074709D02*
X0181737Y0074709D01*
X0181737Y0075908D02*
X0196250Y0075908D01*
X0196250Y0077106D02*
X0181737Y0077106D01*
X0181737Y0078305D02*
X0196250Y0078305D01*
X0196250Y0079503D02*
X0188162Y0079503D01*
X0189028Y0080702D02*
X0196250Y0080702D01*
X0196250Y0081900D02*
X0189187Y0081900D01*
X0188760Y0083099D02*
X0196250Y0083099D01*
X0196250Y0084297D02*
X0183080Y0084297D01*
X0183312Y0079503D02*
X0185038Y0079503D01*
X0178337Y0078305D02*
X0176321Y0078305D01*
X0173638Y0078305D02*
X0172869Y0078305D01*
X0172869Y0079503D02*
X0173638Y0079503D01*
X0173638Y0080702D02*
X0172869Y0080702D01*
X0172869Y0081900D02*
X0149550Y0081900D01*
X0149550Y0080702D02*
X0169488Y0080702D01*
X0169488Y0079503D02*
X0149550Y0079503D01*
X0149550Y0078305D02*
X0170186Y0078305D01*
X0169488Y0081984D02*
X0172869Y0081984D01*
X0172869Y0085168D01*
X0170878Y0085168D01*
X0170471Y0085059D01*
X0170106Y0084849D01*
X0169808Y0084551D01*
X0169597Y0084186D01*
X0169488Y0083779D01*
X0169488Y0081984D01*
X0169488Y0083099D02*
X0149550Y0083099D01*
X0149550Y0084297D02*
X0169661Y0084297D01*
X0172869Y0084297D02*
X0173638Y0084297D01*
X0173638Y0083099D02*
X0172869Y0083099D01*
X0172869Y0089091D02*
X0173638Y0089091D01*
X0173638Y0090290D02*
X0172869Y0090290D01*
X0169488Y0092687D02*
X0149550Y0092687D01*
X0149550Y0093885D02*
X0169517Y0093885D01*
X0170562Y0095084D02*
X0149550Y0095084D01*
X0149550Y0086694D02*
X0196250Y0086694D01*
X0196250Y0085496D02*
X0149550Y0085496D01*
X0149550Y0067518D02*
X0196250Y0067518D01*
X0196250Y0066320D02*
X0149550Y0066320D01*
X0149550Y0065121D02*
X0196250Y0065121D01*
X0196250Y0063923D02*
X0149807Y0063923D01*
X0145705Y0048342D02*
X0166775Y0048342D01*
X0166777Y0047143D02*
X0146363Y0047143D01*
X0146317Y0045945D02*
X0167976Y0045945D01*
X0169174Y0044746D02*
X0145593Y0044746D01*
X0139187Y0042115D02*
X0139187Y0041085D01*
X0138793Y0040134D01*
X0138300Y0039641D01*
X0138300Y0030896D01*
X0128300Y0020896D01*
X0127304Y0019900D01*
X0103559Y0019900D01*
X0103066Y0019407D01*
X0102115Y0019013D01*
X0101085Y0019013D01*
X0100134Y0019407D01*
X0099407Y0020134D01*
X0099013Y0021085D01*
X0099013Y0022115D01*
X0099407Y0023066D01*
X0100134Y0023793D01*
X0101085Y0024187D01*
X0102115Y0024187D01*
X0103066Y0023793D01*
X0103559Y0023300D01*
X0125896Y0023300D01*
X0134900Y0032304D01*
X0134900Y0039641D01*
X0134407Y0040134D01*
X0134013Y0041085D01*
X0134013Y0042115D01*
X0134407Y0043066D01*
X0135134Y0043793D01*
X0136085Y0044187D01*
X0137115Y0044187D01*
X0138066Y0043793D01*
X0138793Y0043066D01*
X0139187Y0042115D01*
X0139090Y0042349D02*
X0171571Y0042349D01*
X0170373Y0043548D02*
X0138311Y0043548D01*
X0139187Y0041151D02*
X0172770Y0041151D01*
X0173968Y0039952D02*
X0138611Y0039952D01*
X0138300Y0038754D02*
X0174900Y0038754D01*
X0174900Y0037555D02*
X0138300Y0037555D01*
X0138300Y0036357D02*
X0174900Y0036357D01*
X0174900Y0035158D02*
X0138300Y0035158D01*
X0138300Y0033960D02*
X0174900Y0033960D01*
X0174900Y0032761D02*
X0138300Y0032761D01*
X0138300Y0031563D02*
X0174900Y0031563D01*
X0174900Y0030364D02*
X0137768Y0030364D01*
X0136570Y0029166D02*
X0174900Y0029166D01*
X0174900Y0027967D02*
X0135371Y0027967D01*
X0134173Y0026769D02*
X0174900Y0026769D01*
X0174900Y0025570D02*
X0132974Y0025570D01*
X0131776Y0024372D02*
X0174900Y0024372D01*
X0174900Y0023173D02*
X0130577Y0023173D01*
X0129379Y0021975D02*
X0174900Y0021975D01*
X0174900Y0020776D02*
X0128180Y0020776D01*
X0126968Y0024372D02*
X0048300Y0024372D01*
X0048300Y0025570D02*
X0128166Y0025570D01*
X0129365Y0026769D02*
X0048300Y0026769D01*
X0048300Y0027967D02*
X0130563Y0027967D01*
X0131762Y0029166D02*
X0048846Y0029166D01*
X0054542Y0030364D02*
X0132960Y0030364D01*
X0134159Y0031563D02*
X0054965Y0031563D01*
X0054965Y0032761D02*
X0134900Y0032761D01*
X0134900Y0033960D02*
X0054965Y0033960D01*
X0054965Y0035158D02*
X0134900Y0035158D01*
X0134900Y0036357D02*
X0054887Y0036357D01*
X0054965Y0037555D02*
X0134900Y0037555D01*
X0134900Y0038754D02*
X0054965Y0038754D01*
X0054965Y0039952D02*
X0134588Y0039952D01*
X0134013Y0041151D02*
X0054965Y0041151D01*
X0054965Y0042349D02*
X0134110Y0042349D01*
X0134889Y0043548D02*
X0051235Y0043548D01*
X0048258Y0045945D02*
X0006950Y0045945D01*
X0006950Y0047143D02*
X0049200Y0047143D01*
X0049200Y0048342D02*
X0006950Y0048342D01*
X0006950Y0049540D02*
X0049200Y0049540D01*
X0049200Y0050739D02*
X0006950Y0050739D01*
X0006950Y0051937D02*
X0049200Y0051937D01*
X0049200Y0053136D02*
X0006950Y0053136D01*
X0006950Y0054334D02*
X0049200Y0054334D01*
X0049200Y0055533D02*
X0006950Y0055533D01*
X0006950Y0056732D02*
X0049200Y0056732D01*
X0049200Y0057930D02*
X0006950Y0057930D01*
X0006950Y0059129D02*
X0049200Y0059129D01*
X0049200Y0060327D02*
X0006950Y0060327D01*
X0006950Y0061526D02*
X0049200Y0061526D01*
X0049200Y0062724D02*
X0006950Y0062724D01*
X0006950Y0063923D02*
X0049200Y0063923D01*
X0049200Y0065121D02*
X0006950Y0065121D01*
X0006950Y0066320D02*
X0049200Y0066320D01*
X0049200Y0067518D02*
X0006950Y0067518D01*
X0006950Y0068717D02*
X0049200Y0068717D01*
X0049200Y0069915D02*
X0006950Y0069915D01*
X0006950Y0071114D02*
X0049200Y0071114D01*
X0049200Y0072312D02*
X0006950Y0072312D01*
X0006950Y0073511D02*
X0049200Y0073511D01*
X0049200Y0074709D02*
X0006950Y0074709D01*
X0006950Y0075908D02*
X0049200Y0075908D01*
X0049200Y0077106D02*
X0006950Y0077106D01*
X0006950Y0078305D02*
X0049200Y0078305D01*
X0049200Y0079503D02*
X0006950Y0079503D01*
X0006950Y0080702D02*
X0049200Y0080702D01*
X0049200Y0081900D02*
X0006950Y0081900D01*
X0006950Y0083099D02*
X0049200Y0083099D01*
X0049200Y0084297D02*
X0006950Y0084297D01*
X0051600Y0112520D02*
X0051600Y0116482D01*
X0051600Y0112520D01*
X0051600Y0113062D02*
X0051600Y0113062D01*
X0051600Y0114260D02*
X0051600Y0114260D01*
X0051600Y0115459D02*
X0051600Y0115459D01*
X0051600Y0116482D02*
X0051600Y0116482D01*
X0064400Y0119054D02*
X0091701Y0119054D01*
X0091233Y0120253D02*
X0064400Y0120253D01*
X0064400Y0121451D02*
X0090888Y0121451D01*
X0091109Y0122650D02*
X0064400Y0122650D01*
X0064458Y0123848D02*
X0064511Y0123848D01*
X0088061Y0117856D02*
X0090257Y0117856D01*
X0089950Y0116657D02*
X0089260Y0116657D01*
X0079725Y0100350D02*
X0079725Y0097446D01*
X0076467Y0093885D02*
X0074509Y0093885D01*
X0073310Y0092687D02*
X0076156Y0092687D01*
X0079341Y0090290D02*
X0080109Y0090290D01*
X0080109Y0089091D02*
X0079341Y0089091D01*
X0079341Y0087893D02*
X0080109Y0087893D01*
X0077831Y0079503D02*
X0077062Y0079503D01*
X0077062Y0078305D02*
X0077831Y0078305D01*
X0077831Y0071114D02*
X0077062Y0071114D01*
X0077062Y0069915D02*
X0077831Y0069915D01*
X0074362Y0065121D02*
X0054000Y0065121D01*
X0054000Y0063923D02*
X0074281Y0063923D01*
X0074281Y0061526D02*
X0054000Y0061526D01*
X0054000Y0062724D02*
X0077466Y0062724D01*
X0074281Y0060327D02*
X0054000Y0060327D01*
X0054000Y0059129D02*
X0074771Y0059129D01*
X0074681Y0057930D02*
X0054000Y0057930D01*
X0054000Y0056732D02*
X0074681Y0056732D01*
X0074681Y0055533D02*
X0054000Y0055533D01*
X0054000Y0054334D02*
X0074681Y0054334D01*
X0074681Y0053136D02*
X0054000Y0053136D01*
X0054000Y0051937D02*
X0075427Y0051937D01*
X0076050Y0050739D02*
X0054000Y0050739D01*
X0054554Y0049540D02*
X0075745Y0049540D01*
X0077092Y0048342D02*
X0078513Y0048342D01*
X0077850Y0049100D02*
X0075350Y0046600D01*
X0080038Y0046600D01*
X0077850Y0049100D01*
X0079562Y0047143D02*
X0075893Y0047143D01*
X0077850Y0046600D02*
X0077850Y0052850D01*
X0077850Y0055754D01*
X0095023Y0050739D02*
X0103150Y0050739D01*
X0103393Y0047143D02*
X0107307Y0047143D01*
X0099514Y0023173D02*
X0048300Y0023173D01*
X0048300Y0021975D02*
X0099013Y0021975D01*
X0099141Y0020776D02*
X0048300Y0020776D01*
X0048839Y0019578D02*
X0099963Y0019578D01*
X0103237Y0019578D02*
X0174900Y0019578D01*
X0174900Y0018379D02*
X0053506Y0018379D01*
X0054705Y0017181D02*
X0174900Y0017181D01*
X0174900Y0015982D02*
X0055753Y0015982D01*
X0055753Y0014784D02*
X0176012Y0014784D01*
X0176825Y0013585D02*
X0055753Y0013585D01*
X0055447Y0012387D02*
X0176933Y0012387D01*
X0177728Y0011188D02*
X0054248Y0011188D01*
X0026063Y0031563D02*
X0019965Y0031563D01*
X0019965Y0032761D02*
X0027262Y0032761D01*
X0028460Y0033960D02*
X0019965Y0033960D01*
X0019965Y0035158D02*
X0029659Y0035158D01*
X0030857Y0036357D02*
X0019328Y0036357D01*
X0020309Y0037555D02*
X0032056Y0037555D01*
X0033254Y0038754D02*
X0020365Y0038754D01*
X0020365Y0040331D02*
X0020365Y0042126D01*
X0020256Y0042533D01*
X0020046Y0042897D01*
X0019748Y0043195D01*
X0019383Y0043406D01*
X0018976Y0043515D01*
X0016984Y0043515D01*
X0016984Y0040331D01*
X0020365Y0040331D01*
X0020365Y0041151D02*
X0035651Y0041151D01*
X0034453Y0039952D02*
X0016984Y0039952D01*
X0016216Y0039952D02*
X0006950Y0039952D01*
X0006950Y0038754D02*
X0012835Y0038754D01*
X0012891Y0037555D02*
X0006950Y0037555D01*
X0006950Y0036357D02*
X0013872Y0036357D01*
X0013235Y0035158D02*
X0006950Y0035158D01*
X0006950Y0033960D02*
X0013235Y0033960D01*
X0013235Y0032761D02*
X0006950Y0032761D01*
X0006950Y0031563D02*
X0013235Y0031563D01*
X0013658Y0030364D02*
X0006950Y0030364D01*
X0006950Y0029166D02*
X0014900Y0029166D01*
X0014900Y0027967D02*
X0006950Y0027967D01*
X0006950Y0026769D02*
X0014900Y0026769D01*
X0014900Y0025570D02*
X0006950Y0025570D01*
X0006950Y0024372D02*
X0014900Y0024372D01*
X0014900Y0023173D02*
X0006950Y0023173D01*
X0006950Y0021975D02*
X0014900Y0021975D01*
X0014900Y0020776D02*
X0006950Y0020776D01*
X0006950Y0019578D02*
X0014361Y0019578D01*
X0007964Y0018379D02*
X0006950Y0018379D01*
X0006950Y0017181D02*
X0007447Y0017181D01*
X0007447Y0015982D02*
X0006950Y0015982D01*
X0006950Y0014784D02*
X0007447Y0014784D01*
X0007447Y0013585D02*
X0006950Y0013585D01*
X0006950Y0012387D02*
X0007447Y0012387D01*
X0007447Y0011188D02*
X0006950Y0011188D01*
X0006950Y0009990D02*
X0196250Y0009990D01*
X0196250Y0011188D02*
X0181097Y0011188D01*
X0181892Y0012387D02*
X0196250Y0012387D01*
X0196250Y0013585D02*
X0182000Y0013585D01*
X0181450Y0014784D02*
X0196250Y0014784D01*
X0196250Y0015982D02*
X0179622Y0015982D01*
X0178423Y0017181D02*
X0196250Y0017181D01*
X0196250Y0018379D02*
X0178300Y0018379D01*
X0178300Y0019578D02*
X0196250Y0019578D01*
X0196250Y0020776D02*
X0178300Y0020776D01*
X0178300Y0021975D02*
X0196250Y0021975D01*
X0196250Y0023173D02*
X0178300Y0023173D01*
X0178300Y0024372D02*
X0196250Y0024372D01*
X0196250Y0025570D02*
X0178300Y0025570D01*
X0178300Y0026769D02*
X0196250Y0026769D01*
X0196250Y0027967D02*
X0178300Y0027967D01*
X0178300Y0029166D02*
X0196250Y0029166D01*
X0196250Y0030364D02*
X0178300Y0030364D01*
X0178300Y0031563D02*
X0196250Y0031563D01*
X0196250Y0032761D02*
X0178300Y0032761D01*
X0178300Y0033960D02*
X0180625Y0033960D01*
X0180263Y0035158D02*
X0178300Y0035158D01*
X0178300Y0036357D02*
X0180466Y0036357D01*
X0179985Y0037555D02*
X0178300Y0037555D01*
X0178300Y0038754D02*
X0179156Y0038754D01*
X0178326Y0039952D02*
X0178300Y0039952D01*
X0184550Y0039952D02*
X0196250Y0039952D01*
X0196250Y0038754D02*
X0184550Y0038754D01*
X0184550Y0037555D02*
X0196250Y0037555D01*
X0196250Y0036357D02*
X0185234Y0036357D01*
X0185437Y0035158D02*
X0196250Y0035158D01*
X0196250Y0033960D02*
X0185075Y0033960D01*
X0184550Y0041151D02*
X0196250Y0041151D01*
X0196250Y0042349D02*
X0184550Y0042349D01*
X0184550Y0043548D02*
X0196250Y0043548D01*
X0196250Y0044746D02*
X0184550Y0044746D01*
X0184550Y0045945D02*
X0196250Y0045945D01*
X0196250Y0047143D02*
X0184550Y0047143D01*
X0184550Y0048342D02*
X0196250Y0048342D01*
X0196250Y0049540D02*
X0184550Y0049540D01*
X0184550Y0050739D02*
X0196250Y0050739D01*
X0196250Y0051937D02*
X0184292Y0051937D01*
X0183093Y0053136D02*
X0196250Y0053136D01*
X0196250Y0054334D02*
X0181895Y0054334D01*
X0180696Y0055533D02*
X0196250Y0055533D01*
X0196250Y0056732D02*
X0179498Y0056732D01*
X0178299Y0057930D02*
X0196250Y0057930D01*
X0196250Y0059129D02*
X0177101Y0059129D01*
X0175902Y0060327D02*
X0196250Y0060327D01*
X0196250Y0061526D02*
X0174704Y0061526D01*
X0173505Y0062724D02*
X0196250Y0062724D01*
X0196250Y0008791D02*
X0006950Y0008791D01*
X0006950Y0007593D02*
X0196250Y0007593D01*
X0195381Y0006394D02*
X0007819Y0006394D01*
X0019542Y0030364D02*
X0024865Y0030364D01*
X0016984Y0041151D02*
X0016216Y0041151D01*
X0016216Y0042349D02*
X0016984Y0042349D01*
X0020305Y0042349D02*
X0038235Y0042349D01*
X0045813Y0043500D02*
X0045813Y0043500D01*
X0045861Y0043548D02*
X0006950Y0043548D01*
X0006950Y0044746D02*
X0047059Y0044746D01*
X0012895Y0042349D02*
X0006950Y0042349D01*
X0006950Y0041151D02*
X0012835Y0041151D01*
X0054000Y0078305D02*
X0067388Y0078305D01*
X0067388Y0079503D02*
X0054000Y0079503D01*
D16*
X0028787Y0093162D03*
X0024100Y0093162D03*
X0019100Y0093162D03*
X0024100Y0087850D03*
X0021288Y0083163D03*
X0020350Y0102225D03*
X0025350Y0102225D03*
X0171600Y0036600D03*
X0171600Y0026600D03*
X0186600Y0059100D03*
X0186600Y0064100D03*
X0194100Y0064100D03*
X0194100Y0059100D03*
D17*
X0176600Y0047537D03*
X0171600Y0051600D03*
X0164725Y0050975D03*
X0159100Y0035975D03*
X0146600Y0031600D03*
X0149100Y0024100D03*
X0143475Y0008475D03*
X0156600Y0006600D03*
X0179412Y0013162D03*
X0186600Y0026600D03*
X0182850Y0035350D03*
X0143788Y0046600D03*
X0136600Y0041600D03*
X0115975Y0053475D03*
X0112225Y0050975D03*
X0105350Y0052850D03*
X0099725Y0052850D03*
X0093475Y0052850D03*
X0086287Y0059100D03*
X0077850Y0052850D03*
X0068475Y0055975D03*
X0062850Y0041600D03*
X0079100Y0039100D03*
X0096600Y0036600D03*
X0104725Y0031600D03*
X0106300Y0038788D03*
X0101600Y0021600D03*
X0095662Y0008475D03*
X0031600Y0041600D03*
X0010038Y0032850D03*
X0067850Y0072538D03*
X0070297Y0084448D03*
X0066600Y0095350D03*
X0053475Y0098254D03*
X0051600Y0101600D03*
X0042538Y0103162D03*
X0051600Y0110975D03*
X0066600Y0119725D03*
X0079725Y0113787D03*
X0092537Y0116600D03*
X0093475Y0121600D03*
X0094725Y0126600D03*
X0106600Y0128787D03*
X0127537Y0125350D03*
X0106600Y0113787D03*
X0124100Y0109100D03*
X0107225Y0100350D03*
X0097850Y0100350D03*
X0091600Y0100350D03*
X0085975Y0100350D03*
X0079725Y0100350D03*
X0086600Y0083788D03*
X0091600Y0083788D03*
X0115350Y0076600D03*
X0115037Y0068726D03*
X0111600Y0061600D03*
X0136600Y0071600D03*
X0151600Y0065350D03*
X0160038Y0071600D03*
X0164725Y0081600D03*
X0186600Y0081600D03*
X0186600Y0091600D03*
X0186600Y0101600D03*
X0186600Y0111600D03*
X0186600Y0121600D03*
X0183475Y0128475D03*
X0129100Y0082506D03*
X0142225Y0058787D03*
X0029100Y0116600D03*
X0029100Y0128787D03*
D18*
X0031600Y0024412D03*
X0021600Y0024412D03*
X0011600Y0024412D03*
X0021600Y0014412D03*
X0031600Y0014412D03*
X0041600Y0014412D03*
X0051600Y0014412D03*
X0051600Y0024412D03*
X0041600Y0024412D03*
D19*
X0077850Y0046600D02*
X0105350Y0046600D01*
X0105350Y0049412D01*
X0105350Y0051600D01*
X0105350Y0052850D01*
X0051600Y0110975D02*
X0051600Y0116482D01*
X0055340Y0116482D02*
X0055340Y0119422D01*
X0053475Y0121287D01*
X0050682Y0121287D01*
X0047850Y0121287D01*
X0045662Y0121287D01*
X0055340Y0126718D02*
X0061260Y0126718D01*
X0061379Y0126600D01*
D20*
X0061260Y0126718D02*
X0061600Y0126379D01*
X0047860Y0118465D02*
X0047860Y0116482D01*
X0047860Y0107306D01*
X0048254Y0106600D01*
X0054946Y0106600D02*
X0054946Y0108384D01*
X0061600Y0115037D01*
X0047860Y0118465D02*
X0045350Y0120975D01*
X0042225Y0124100D01*
X0038254Y0124100D01*
X0039100Y0124946D01*
X0038254Y0124100D02*
X0031600Y0124100D01*
X0041600Y0098475D02*
X0044256Y0095819D01*
X0044256Y0096131D01*
X0046600Y0098475D01*
X0046600Y0093475D01*
X0051600Y0088475D01*
X0066270Y0088475D01*
X0055662Y0088475D02*
X0051600Y0088475D01*
X0051600Y0084413D01*
X0055662Y0088475D01*
X0055134Y0087946D02*
X0051600Y0087946D01*
X0051600Y0088475D02*
X0051600Y0049100D01*
X0054100Y0046600D01*
X0051600Y0046600D01*
X0051600Y0049100D01*
X0051600Y0047172D02*
X0053528Y0047172D01*
X0054100Y0046600D02*
X0077850Y0046600D01*
X0052735Y0085548D02*
X0051600Y0085548D01*
X0046600Y0093475D02*
X0044256Y0095819D01*
X0109725Y0091287D02*
X0109725Y0089412D01*
X0109725Y0091287D02*
X0113162Y0094725D01*
D21*
X0116600Y0088600D02*
X0116600Y0084413D01*
X0114725Y0082538D01*
X0098787Y0082538D01*
X0097850Y0082538D01*
X0098787Y0082538D02*
X0098787Y0082225D01*
X0096912Y0080350D01*
X0096912Y0057850D01*
X0094816Y0055754D01*
X0092537Y0055754D01*
X0105350Y0052850D02*
X0108787Y0052850D01*
X0107537Y0051600D01*
X0106600Y0050662D01*
X0105350Y0049412D01*
X0106600Y0050662D02*
X0106600Y0051600D01*
X0107537Y0051600D01*
X0106600Y0051600D02*
X0105350Y0051600D01*
X0108787Y0052850D02*
X0115037Y0059100D01*
X0115037Y0068726D01*
X0113635Y0068726D01*
X0112134Y0069100D01*
X0096912Y0080350D02*
X0096912Y0084413D01*
X0096912Y0094412D01*
X0094100Y0097225D01*
X0091821Y0097225D01*
X0091600Y0097446D01*
X0102225Y0097446D02*
X0102225Y0102537D01*
X0099100Y0105662D01*
X0085038Y0105662D01*
X0079725Y0100350D01*
X0079725Y0097446D02*
X0078896Y0096618D01*
X0074413Y0096618D01*
X0067997Y0090203D01*
X0067997Y0086747D01*
X0070297Y0084448D01*
X0067997Y0086747D02*
X0066270Y0088475D01*
X0067997Y0090203D01*
X0096912Y0084413D02*
X0098787Y0082538D01*
X0052850Y0047850D02*
X0051600Y0049100D01*
X0052850Y0047850D02*
X0054100Y0046600D01*
X0105350Y0046600D02*
X0143788Y0046600D01*
X0047860Y0116482D02*
X0047860Y0121278D01*
X0047850Y0121287D01*
X0045662Y0121287D02*
X0045350Y0120975D01*
X0047860Y0118465D02*
X0050682Y0121287D01*
D22*
X0052850Y0047850D02*
X0046600Y0041600D01*
X0045065Y0040065D01*
X0041719Y0040065D01*
X0041600Y0039946D01*
X0037134Y0039946D01*
X0021600Y0024412D01*
X0045065Y0040065D02*
X0048135Y0040065D01*
X0051481Y0040065D01*
X0051600Y0039946D01*
X0048135Y0040065D02*
X0046600Y0041600D01*
D23*
X0109725Y0089412D02*
X0109725Y0094725D01*
X0113162Y0094725D01*
X0116475Y0094725D01*
X0116600Y0094600D01*
X0061600Y0115037D02*
X0061600Y0123787D01*
X0061600Y0126379D01*
X0031600Y0124100D02*
X0026600Y0124100D01*
X0036600Y0098475D02*
X0046600Y0098475D01*
X0041600Y0098475D01*
D24*
X0041600Y0098475D03*
X0036600Y0098475D03*
X0046600Y0098475D03*
X0061600Y0115037D03*
X0061600Y0119412D03*
X0061600Y0123787D03*
X0031600Y0124100D03*
X0026600Y0124100D03*
X0109725Y0094725D03*
X0109725Y0089412D03*
D25*
X0091600Y0097446D02*
X0091600Y0100350D01*
X0089725Y0113787D02*
X0086912Y0116600D01*
X0076600Y0116600D01*
X0058254Y0098254D01*
X0053475Y0098254D01*
X0089725Y0113787D02*
X0106600Y0113787D01*
X0100037Y0121287D02*
X0094725Y0126600D01*
X0093475Y0121600D02*
X0095975Y0119100D01*
X0140975Y0119100D01*
X0145975Y0114100D01*
X0145975Y0062225D01*
X0148475Y0059725D01*
X0170975Y0059725D01*
X0176600Y0054100D01*
X0176600Y0047537D01*
X0171600Y0051600D02*
X0171600Y0055975D01*
X0169725Y0057850D01*
X0147225Y0057850D01*
X0144100Y0060975D01*
X0144100Y0111600D01*
X0139100Y0116600D01*
X0092537Y0116600D01*
X0100037Y0121287D02*
X0143163Y0121287D01*
X0147850Y0116600D01*
X0147850Y0063475D01*
X0149725Y0061600D01*
X0172225Y0061600D01*
X0182850Y0050975D01*
X0182850Y0035350D01*
X0176600Y0039725D02*
X0168475Y0047850D01*
X0168475Y0052537D01*
X0165350Y0055662D01*
X0130662Y0055662D01*
X0129100Y0057225D01*
X0129100Y0082506D01*
X0160038Y0071600D02*
X0177850Y0071600D01*
X0180037Y0073788D01*
X0180037Y0081509D01*
X0179946Y0081600D01*
X0186600Y0081600D01*
X0186600Y0091600D02*
X0179946Y0091600D01*
X0179946Y0101600D02*
X0186600Y0101600D01*
X0186600Y0111600D02*
X0179946Y0111600D01*
X0179946Y0121600D02*
X0186600Y0121600D01*
X0093475Y0054816D02*
X0092537Y0055754D01*
X0093475Y0054816D02*
X0093475Y0052850D01*
X0115975Y0053475D02*
X0162225Y0053475D01*
X0164725Y0050975D01*
X0176600Y0039725D02*
X0176600Y0016600D01*
X0179412Y0013787D01*
X0179412Y0013162D01*
X0136600Y0031600D02*
X0136600Y0041600D01*
X0136600Y0031600D02*
X0126600Y0021600D01*
X0101600Y0021600D01*
X0051600Y0014412D02*
X0046600Y0019413D01*
X0046600Y0021600D01*
X0046600Y0031600D01*
X0048162Y0033163D01*
X0051509Y0033163D01*
X0051600Y0033254D01*
X0041600Y0033254D02*
X0041196Y0032850D01*
X0038788Y0032850D01*
X0036600Y0030662D01*
X0036600Y0021600D01*
X0036600Y0019413D01*
X0031600Y0014412D01*
X0036600Y0019413D02*
X0036600Y0021600D01*
X0046600Y0021600D02*
X0046600Y0019413D01*
X0016600Y0019413D02*
X0011600Y0014412D01*
X0016600Y0019413D02*
X0016600Y0033254D01*
D26*
X0011600Y0014412D03*
M02*
