G75*
%MOIN*%
%OFA0B0*%
%FSLAX25Y25*%
%IPPOS*%
%LPD*%
%AMOC8*
5,1,8,0,0,1.08239X$1,22.5*
%
%ADD10C,0.00000*%
%ADD11R,0.10000X0.05000*%
%ADD12R,0.05906X0.07874*%
%ADD13R,0.04331X0.03937*%
%ADD14R,0.05118X0.05906*%
%ADD15R,0.06299X0.03150*%
%ADD16R,0.03937X0.04331*%
%ADD17R,0.06299X0.08661*%
%ADD18R,0.03543X0.01969*%
%ADD19R,0.05906X0.02520*%
%ADD20R,0.05906X0.01260*%
%ADD21R,0.02520X0.05906*%
%ADD22R,0.01260X0.05906*%
%ADD23R,0.03937X0.01378*%
%ADD24R,0.01969X0.03543*%
%ADD25R,0.04600X0.06300*%
%ADD26C,0.01200*%
%ADD27C,0.03562*%
%ADD28C,0.02775*%
%ADD29OC8,0.05906*%
%ADD30C,0.03200*%
%ADD31C,0.01600*%
%ADD32C,0.01400*%
%ADD33C,0.03169*%
%ADD34C,0.04000*%
%ADD35C,0.02400*%
%ADD36C,0.00600*%
%ADD37C,0.01000*%
%ADD38R,0.05906X0.05906*%
D10*
X0007850Y0004100D02*
X0005350Y0006600D01*
X0005350Y0129100D01*
X0007850Y0131600D01*
X0195350Y0131600D01*
X0197850Y0129100D01*
X0197850Y0006600D01*
X0195350Y0004100D01*
X0007850Y0004100D01*
D11*
X0011600Y0089100D03*
X0011600Y0099100D03*
X0191600Y0101600D03*
X0191600Y0091600D03*
X0191600Y0081600D03*
X0191600Y0071600D03*
X0191600Y0051600D03*
X0191600Y0041600D03*
X0191600Y0031600D03*
X0191600Y0021600D03*
X0191600Y0111600D03*
X0191600Y0121600D03*
D12*
X0165006Y0041600D03*
X0153194Y0041600D03*
X0022506Y0109100D03*
X0010694Y0109100D03*
D13*
X0101600Y0016821D03*
X0101600Y0010129D03*
X0149100Y0010129D03*
X0149100Y0016821D03*
X0156066Y0031287D03*
X0162759Y0031287D03*
D14*
X0162840Y0041600D03*
X0155360Y0041600D03*
X0042528Y0109100D03*
X0035047Y0109100D03*
X0020340Y0109100D03*
X0012860Y0109100D03*
X0047860Y0126600D03*
X0055340Y0126600D03*
D15*
X0009725Y0079100D03*
X0009725Y0074100D03*
X0009725Y0069100D03*
X0009725Y0064100D03*
X0009725Y0059100D03*
X0009725Y0054100D03*
X0009725Y0049100D03*
X0009725Y0044100D03*
X0009725Y0039100D03*
D16*
X0013254Y0124100D03*
X0019946Y0124100D03*
X0135754Y0086600D03*
X0142446Y0086600D03*
X0153254Y0086600D03*
X0159946Y0086600D03*
X0159946Y0076600D03*
X0153254Y0076600D03*
X0142446Y0076600D03*
X0135754Y0076600D03*
D17*
X0022112Y0124100D03*
X0011088Y0124100D03*
D18*
X0033450Y0091324D03*
X0033450Y0088175D03*
X0033450Y0085025D03*
X0033450Y0081876D03*
X0039750Y0081876D03*
X0039750Y0085025D03*
X0039750Y0088175D03*
X0039750Y0091324D03*
X0039750Y0073824D03*
X0039750Y0070675D03*
X0039750Y0067525D03*
X0039750Y0064376D03*
X0033450Y0064376D03*
X0033450Y0067525D03*
X0033450Y0070675D03*
X0033450Y0073824D03*
X0033450Y0056324D03*
X0033450Y0053175D03*
X0033450Y0050025D03*
X0033450Y0046876D03*
X0039750Y0046876D03*
X0039750Y0050025D03*
X0039750Y0053175D03*
X0039750Y0056324D03*
X0080950Y0116876D03*
X0080950Y0120025D03*
X0080950Y0123175D03*
X0080950Y0126324D03*
X0087250Y0126324D03*
X0087250Y0123175D03*
X0087250Y0120025D03*
X0087250Y0116876D03*
X0135950Y0117525D03*
X0135950Y0120675D03*
X0135950Y0123824D03*
X0142250Y0123824D03*
X0142250Y0120675D03*
X0142250Y0117525D03*
X0142250Y0114376D03*
X0135950Y0114376D03*
X0135950Y0106324D03*
X0135950Y0103175D03*
X0135950Y0100025D03*
X0135950Y0096876D03*
X0142250Y0096876D03*
X0142250Y0100025D03*
X0142250Y0103175D03*
X0142250Y0106324D03*
X0150950Y0106324D03*
X0150950Y0103175D03*
X0150950Y0100025D03*
X0150950Y0096876D03*
X0157250Y0096876D03*
X0157250Y0100025D03*
X0157250Y0103175D03*
X0157250Y0106324D03*
X0157250Y0114376D03*
X0157250Y0117525D03*
X0157250Y0120675D03*
X0157250Y0123824D03*
X0150950Y0123824D03*
X0150950Y0120675D03*
X0150950Y0117525D03*
X0150950Y0114376D03*
X0168450Y0066324D03*
X0168450Y0063175D03*
X0168450Y0060025D03*
X0168450Y0056876D03*
X0174750Y0056876D03*
X0174750Y0060025D03*
X0174750Y0063175D03*
X0174750Y0066324D03*
D19*
X0123096Y0052348D03*
X0060104Y0052348D03*
X0060104Y0100852D03*
X0123096Y0100852D03*
D20*
X0123096Y0098254D03*
X0123096Y0096285D03*
X0123096Y0094317D03*
X0123096Y0092348D03*
X0123096Y0090380D03*
X0123096Y0088411D03*
X0123096Y0086443D03*
X0123096Y0084474D03*
X0123096Y0082506D03*
X0123096Y0080537D03*
X0123096Y0078569D03*
X0123096Y0076600D03*
X0123096Y0074631D03*
X0123096Y0072663D03*
X0123096Y0070694D03*
X0123096Y0068726D03*
X0123096Y0066757D03*
X0123096Y0064789D03*
X0123096Y0062820D03*
X0123096Y0060852D03*
X0123096Y0058883D03*
X0123096Y0056915D03*
X0123096Y0054946D03*
X0060104Y0054946D03*
X0060104Y0056915D03*
X0060104Y0058883D03*
X0060104Y0060852D03*
X0060104Y0062820D03*
X0060104Y0064789D03*
X0060104Y0066757D03*
X0060104Y0068726D03*
X0060104Y0070694D03*
X0060104Y0072663D03*
X0060104Y0074631D03*
X0060104Y0076600D03*
X0060104Y0078569D03*
X0060104Y0080537D03*
X0060104Y0082506D03*
X0060104Y0084474D03*
X0060104Y0086443D03*
X0060104Y0088411D03*
X0060104Y0090380D03*
X0060104Y0092348D03*
X0060104Y0094317D03*
X0060104Y0096285D03*
X0060104Y0098254D03*
D21*
X0067348Y0108096D03*
X0115852Y0108096D03*
X0115852Y0045104D03*
X0067348Y0045104D03*
D22*
X0069946Y0045104D03*
X0071915Y0045104D03*
X0073883Y0045104D03*
X0075852Y0045104D03*
X0077820Y0045104D03*
X0079789Y0045104D03*
X0081757Y0045104D03*
X0083726Y0045104D03*
X0085694Y0045104D03*
X0087663Y0045104D03*
X0089631Y0045104D03*
X0091600Y0045104D03*
X0093569Y0045104D03*
X0095537Y0045104D03*
X0097506Y0045104D03*
X0099474Y0045104D03*
X0101443Y0045104D03*
X0103411Y0045104D03*
X0105380Y0045104D03*
X0107348Y0045104D03*
X0109317Y0045104D03*
X0111285Y0045104D03*
X0113254Y0045104D03*
X0113254Y0108096D03*
X0111285Y0108096D03*
X0109317Y0108096D03*
X0107348Y0108096D03*
X0105380Y0108096D03*
X0103411Y0108096D03*
X0101443Y0108096D03*
X0099474Y0108096D03*
X0097506Y0108096D03*
X0095537Y0108096D03*
X0093569Y0108096D03*
X0091600Y0108096D03*
X0089631Y0108096D03*
X0087663Y0108096D03*
X0085694Y0108096D03*
X0083726Y0108096D03*
X0081757Y0108096D03*
X0079789Y0108096D03*
X0077820Y0108096D03*
X0075852Y0108096D03*
X0073883Y0108096D03*
X0071915Y0108096D03*
X0069946Y0108096D03*
D23*
X0136728Y0066465D03*
X0136728Y0063906D03*
X0136728Y0061347D03*
X0136728Y0058787D03*
X0136728Y0056228D03*
X0136728Y0053669D03*
X0136728Y0051110D03*
X0158972Y0051110D03*
X0158972Y0053669D03*
X0158972Y0056228D03*
X0158972Y0058787D03*
X0158972Y0061347D03*
X0158972Y0063906D03*
X0158972Y0066465D03*
D24*
X0138824Y0031625D03*
X0135675Y0031625D03*
X0132525Y0031625D03*
X0129376Y0031625D03*
X0129376Y0025325D03*
X0132525Y0025325D03*
X0135675Y0025325D03*
X0138824Y0025325D03*
X0138824Y0016625D03*
X0135675Y0016625D03*
X0132525Y0016625D03*
X0129376Y0016625D03*
X0121324Y0016625D03*
X0118175Y0016625D03*
X0115025Y0016625D03*
X0111876Y0016625D03*
X0111876Y0010325D03*
X0115025Y0010325D03*
X0118175Y0010325D03*
X0121324Y0010325D03*
X0129376Y0010325D03*
X0132525Y0010325D03*
X0135675Y0010325D03*
X0138824Y0010325D03*
X0121324Y0025325D03*
X0118175Y0025325D03*
X0115025Y0025325D03*
X0111876Y0025325D03*
X0111876Y0031625D03*
X0115025Y0031625D03*
X0118175Y0031625D03*
X0121324Y0031625D03*
X0091324Y0031625D03*
X0088175Y0031625D03*
X0085025Y0031625D03*
X0081876Y0031625D03*
X0081876Y0025325D03*
X0085025Y0025325D03*
X0088175Y0025325D03*
X0091324Y0025325D03*
X0091324Y0016625D03*
X0088175Y0016625D03*
X0085025Y0016625D03*
X0081876Y0016625D03*
X0073824Y0016625D03*
X0070675Y0016625D03*
X0067525Y0016625D03*
X0064376Y0016625D03*
X0064376Y0010325D03*
X0067525Y0010325D03*
X0070675Y0010325D03*
X0073824Y0010325D03*
X0081876Y0010325D03*
X0085025Y0010325D03*
X0088175Y0010325D03*
X0091324Y0010325D03*
X0073824Y0025325D03*
X0070675Y0025325D03*
X0067525Y0025325D03*
X0064376Y0025325D03*
X0064376Y0031625D03*
X0067525Y0031625D03*
X0070675Y0031625D03*
X0073824Y0031625D03*
D25*
X0185787Y0011600D03*
X0191787Y0011600D03*
X0112600Y0121600D03*
X0106600Y0121600D03*
X0100600Y0121600D03*
D26*
X0097100Y0121451D02*
X0096062Y0121451D01*
X0096062Y0121085D02*
X0096062Y0122115D01*
X0095668Y0123066D01*
X0094941Y0123793D01*
X0094412Y0124013D01*
X0095240Y0124013D01*
X0096191Y0124407D01*
X0096918Y0125134D01*
X0097312Y0126085D01*
X0097312Y0127115D01*
X0096918Y0128066D01*
X0096191Y0128793D01*
X0095240Y0129187D01*
X0094210Y0129187D01*
X0093259Y0128793D01*
X0092766Y0128300D01*
X0089727Y0128300D01*
X0089518Y0128509D01*
X0084981Y0128509D01*
X0084278Y0127806D01*
X0084278Y0124843D01*
X0084371Y0124750D01*
X0084278Y0124656D01*
X0084278Y0121693D01*
X0084371Y0121600D01*
X0084278Y0121506D01*
X0084278Y0118544D01*
X0084371Y0118450D01*
X0084278Y0118357D01*
X0084278Y0115394D01*
X0084981Y0114691D01*
X0086350Y0114691D01*
X0084990Y0113332D01*
X0083994Y0112336D01*
X0083994Y0112249D01*
X0083450Y0112249D01*
X0083370Y0112329D01*
X0083005Y0112540D01*
X0082598Y0112649D01*
X0081758Y0112649D01*
X0081758Y0108096D01*
X0081758Y0103543D01*
X0082598Y0103543D01*
X0083005Y0103652D01*
X0083370Y0103863D01*
X0083450Y0103943D01*
X0085970Y0103943D01*
X0086051Y0103863D01*
X0086415Y0103652D01*
X0086822Y0103543D01*
X0087663Y0103543D01*
X0088504Y0103543D01*
X0088910Y0103652D01*
X0089275Y0103863D01*
X0089356Y0103943D01*
X0089900Y0103943D01*
X0089900Y0102309D01*
X0089407Y0101816D01*
X0089013Y0100865D01*
X0089013Y0099835D01*
X0089407Y0098884D01*
X0090134Y0098157D01*
X0091085Y0097763D01*
X0092115Y0097763D01*
X0093066Y0098157D01*
X0093793Y0098884D01*
X0094187Y0099835D01*
X0094187Y0100865D01*
X0093793Y0101816D01*
X0093300Y0102309D01*
X0093300Y0103943D01*
X0105548Y0103943D01*
X0105548Y0102332D01*
X0105032Y0101816D01*
X0104638Y0100865D01*
X0104638Y0099835D01*
X0105032Y0098884D01*
X0105759Y0098157D01*
X0106710Y0097763D01*
X0107740Y0097763D01*
X0108691Y0098157D01*
X0109418Y0098884D01*
X0109812Y0099835D01*
X0109812Y0100865D01*
X0109418Y0101816D01*
X0109148Y0102086D01*
X0109148Y0103543D01*
X0109316Y0103543D01*
X0109316Y0108096D01*
X0109317Y0108096D01*
X0109317Y0103543D01*
X0110157Y0103543D01*
X0110564Y0103652D01*
X0110929Y0103863D01*
X0111009Y0103943D01*
X0117609Y0103943D01*
X0118312Y0104646D01*
X0118312Y0106220D01*
X0120742Y0108650D01*
X0121737Y0109646D01*
X0124767Y0112676D01*
X0133197Y0112676D01*
X0133682Y0112191D01*
X0138219Y0112191D01*
X0138715Y0112687D01*
X0139485Y0112687D01*
X0139981Y0112191D01*
X0144518Y0112191D01*
X0145003Y0112676D01*
X0148197Y0112676D01*
X0148682Y0112191D01*
X0152400Y0112191D01*
X0152400Y0108554D01*
X0152354Y0108509D01*
X0148682Y0108509D01*
X0148197Y0108024D01*
X0145003Y0108024D01*
X0144518Y0108509D01*
X0139981Y0108509D01*
X0139485Y0108012D01*
X0138715Y0108012D01*
X0138219Y0108509D01*
X0133682Y0108509D01*
X0133197Y0108024D01*
X0133120Y0108024D01*
X0132124Y0107029D01*
X0127648Y0102552D01*
X0127249Y0102552D01*
X0127249Y0102609D01*
X0126546Y0103312D01*
X0119646Y0103312D01*
X0118943Y0102609D01*
X0118943Y0082230D01*
X0118863Y0082149D01*
X0118652Y0081784D01*
X0118543Y0081378D01*
X0118543Y0080537D01*
X0118543Y0079696D01*
X0118652Y0079290D01*
X0118863Y0078925D01*
X0118943Y0078844D01*
X0118943Y0078400D01*
X0117209Y0078400D01*
X0116816Y0078793D01*
X0115865Y0079187D01*
X0114835Y0079187D01*
X0113884Y0078793D01*
X0113157Y0078066D01*
X0112763Y0077115D01*
X0112763Y0076558D01*
X0110542Y0074337D01*
X0079846Y0074337D01*
X0078600Y0075583D01*
X0078600Y0087647D01*
X0080553Y0089600D01*
X0105772Y0089600D01*
X0107214Y0088157D01*
X0107351Y0087826D01*
X0108139Y0087039D01*
X0109168Y0086612D01*
X0110282Y0086612D01*
X0111311Y0087039D01*
X0112099Y0087826D01*
X0112525Y0088856D01*
X0112525Y0095282D01*
X0112099Y0096311D01*
X0111311Y0097099D01*
X0110282Y0097525D01*
X0109168Y0097525D01*
X0108139Y0097099D01*
X0107351Y0096311D01*
X0106925Y0095282D01*
X0106925Y0094753D01*
X0105772Y0093600D01*
X0077428Y0093600D01*
X0067085Y0103943D01*
X0076128Y0103943D01*
X0076208Y0103863D01*
X0076573Y0103652D01*
X0076980Y0103543D01*
X0077820Y0103543D01*
X0077820Y0108096D01*
X0077821Y0108096D01*
X0077821Y0103543D01*
X0077989Y0103543D01*
X0077989Y0102273D01*
X0077532Y0101816D01*
X0077138Y0100865D01*
X0077138Y0099835D01*
X0077532Y0098884D01*
X0078259Y0098157D01*
X0079210Y0097763D01*
X0080240Y0097763D01*
X0081191Y0098157D01*
X0081918Y0098884D01*
X0082312Y0099835D01*
X0082312Y0100865D01*
X0081918Y0101816D01*
X0081589Y0102145D01*
X0081589Y0103543D01*
X0081757Y0103543D01*
X0081757Y0108096D01*
X0081758Y0108096D01*
X0081757Y0108096D01*
X0081757Y0112649D01*
X0080917Y0112649D01*
X0080510Y0112540D01*
X0080145Y0112329D01*
X0080065Y0112249D01*
X0079513Y0112249D01*
X0079433Y0112329D01*
X0079068Y0112540D01*
X0078661Y0112649D01*
X0077821Y0112649D01*
X0077821Y0108096D01*
X0077820Y0108096D01*
X0077820Y0112649D01*
X0076980Y0112649D01*
X0076573Y0112540D01*
X0076208Y0112329D01*
X0076128Y0112249D01*
X0073615Y0112249D01*
X0073615Y0112461D01*
X0077979Y0116825D01*
X0077979Y0115394D01*
X0078682Y0114691D01*
X0083219Y0114691D01*
X0083922Y0115394D01*
X0083922Y0118357D01*
X0083829Y0118450D01*
X0083922Y0118544D01*
X0083922Y0121506D01*
X0083829Y0121600D01*
X0083922Y0121693D01*
X0083922Y0124656D01*
X0083829Y0124750D01*
X0083922Y0124843D01*
X0083922Y0127806D01*
X0083219Y0128509D01*
X0078682Y0128509D01*
X0078197Y0128024D01*
X0078120Y0128024D01*
X0077124Y0127029D01*
X0066150Y0116054D01*
X0066150Y0112249D01*
X0065591Y0112249D01*
X0064888Y0111546D01*
X0064888Y0106140D01*
X0064000Y0107028D01*
X0064000Y0113515D01*
X0064400Y0114481D01*
X0064400Y0124344D01*
X0063974Y0125374D01*
X0063186Y0126161D01*
X0062220Y0126561D01*
X0060147Y0128635D01*
X0059265Y0129000D01*
X0059099Y0129000D01*
X0059099Y0130000D01*
X0194687Y0130000D01*
X0196250Y0128437D01*
X0196250Y0125300D01*
X0186103Y0125300D01*
X0185400Y0124597D01*
X0185400Y0123904D01*
X0185134Y0123793D01*
X0184641Y0123300D01*
X0170896Y0123300D01*
X0169900Y0122304D01*
X0167771Y0120175D01*
X0166775Y0119179D01*
X0166775Y0075896D01*
X0167771Y0074900D01*
X0173050Y0069621D01*
X0173050Y0068509D01*
X0172481Y0068509D01*
X0171985Y0068012D01*
X0171215Y0068012D01*
X0170719Y0068509D01*
X0166182Y0068509D01*
X0165838Y0068165D01*
X0161627Y0068165D01*
X0161438Y0068354D01*
X0156506Y0068354D01*
X0155804Y0067651D01*
X0155804Y0065279D01*
X0155897Y0065185D01*
X0155804Y0065092D01*
X0155804Y0062720D01*
X0155897Y0062626D01*
X0155804Y0062533D01*
X0155804Y0060161D01*
X0155897Y0060067D01*
X0155804Y0059974D01*
X0155804Y0058028D01*
X0155170Y0058028D01*
X0152417Y0055275D01*
X0151363Y0054221D01*
X0151363Y0046737D01*
X0149745Y0046737D01*
X0149042Y0046034D01*
X0149042Y0043891D01*
X0146375Y0046558D01*
X0146375Y0047115D01*
X0145981Y0048066D01*
X0145253Y0048793D01*
X0144302Y0049187D01*
X0143273Y0049187D01*
X0142322Y0048793D01*
X0141594Y0048066D01*
X0141200Y0047115D01*
X0141200Y0046085D01*
X0141594Y0045134D01*
X0142322Y0044407D01*
X0143273Y0044013D01*
X0143829Y0044013D01*
X0146988Y0040854D01*
X0148042Y0039800D01*
X0149042Y0039800D01*
X0149042Y0037166D01*
X0149745Y0036463D01*
X0152825Y0036463D01*
X0152825Y0033877D01*
X0152701Y0033753D01*
X0152701Y0028822D01*
X0153404Y0028119D01*
X0158728Y0028119D01*
X0159179Y0028569D01*
X0159313Y0028337D01*
X0159611Y0028039D01*
X0159976Y0027828D01*
X0160383Y0027719D01*
X0162375Y0027719D01*
X0162375Y0030903D01*
X0163143Y0030903D01*
X0163143Y0027719D01*
X0165135Y0027719D01*
X0165542Y0027828D01*
X0165907Y0028039D01*
X0166205Y0028337D01*
X0166415Y0028701D01*
X0166524Y0029108D01*
X0166524Y0030903D01*
X0163143Y0030903D01*
X0163143Y0031672D01*
X0162375Y0031672D01*
X0162375Y0034856D01*
X0160383Y0034856D01*
X0159976Y0034747D01*
X0159611Y0034536D01*
X0159313Y0034238D01*
X0159179Y0034006D01*
X0158728Y0034456D01*
X0156625Y0034456D01*
X0156625Y0036463D01*
X0156644Y0036463D01*
X0157244Y0037063D01*
X0160014Y0037063D01*
X0160070Y0037047D01*
X0160561Y0037047D01*
X0160562Y0037045D01*
X0160772Y0036681D01*
X0161070Y0036383D01*
X0161435Y0036172D01*
X0161842Y0036063D01*
X0164406Y0036063D01*
X0164406Y0037047D01*
X0165605Y0037047D01*
X0165605Y0036063D01*
X0168169Y0036063D01*
X0168576Y0036172D01*
X0168941Y0036383D01*
X0169239Y0036681D01*
X0169449Y0037045D01*
X0169558Y0037452D01*
X0169558Y0041000D01*
X0165606Y0041000D01*
X0165606Y0042200D01*
X0169558Y0042200D01*
X0169558Y0045748D01*
X0169449Y0046155D01*
X0169239Y0046519D01*
X0168941Y0046817D01*
X0168576Y0047028D01*
X0168169Y0047137D01*
X0165605Y0047137D01*
X0165605Y0046153D01*
X0164406Y0046153D01*
X0164406Y0047137D01*
X0161842Y0047137D01*
X0161435Y0047028D01*
X0161070Y0046817D01*
X0160772Y0046519D01*
X0160562Y0046155D01*
X0160561Y0046153D01*
X0160070Y0046153D01*
X0160014Y0046137D01*
X0157244Y0046137D01*
X0156644Y0046737D01*
X0154962Y0046737D01*
X0154962Y0052729D01*
X0155804Y0053570D01*
X0155804Y0052483D01*
X0155897Y0052390D01*
X0155804Y0052296D01*
X0155804Y0049924D01*
X0156506Y0049221D01*
X0161438Y0049221D01*
X0162141Y0049924D01*
X0162141Y0050453D01*
X0162532Y0049509D01*
X0163259Y0048782D01*
X0164210Y0048388D01*
X0165240Y0048388D01*
X0166191Y0048782D01*
X0166918Y0049509D01*
X0167312Y0050460D01*
X0167312Y0051490D01*
X0167075Y0052063D01*
X0167075Y0054691D01*
X0170719Y0054691D01*
X0171215Y0055187D01*
X0171985Y0055187D01*
X0172481Y0054691D01*
X0177018Y0054691D01*
X0177503Y0055176D01*
X0177580Y0055176D01*
X0183925Y0061521D01*
X0183925Y0078000D01*
X0186003Y0078000D01*
X0186103Y0077900D01*
X0192375Y0077900D01*
X0192375Y0075700D01*
X0192200Y0075700D01*
X0192200Y0072200D01*
X0191000Y0072200D01*
X0191000Y0075700D01*
X0186389Y0075700D01*
X0185982Y0075591D01*
X0185618Y0075380D01*
X0185320Y0075082D01*
X0185109Y0074718D01*
X0185000Y0074311D01*
X0185000Y0072200D01*
X0191000Y0072200D01*
X0191000Y0071000D01*
X0192200Y0071000D01*
X0192200Y0067500D01*
X0196250Y0067500D01*
X0196250Y0055300D01*
X0186103Y0055300D01*
X0185400Y0054597D01*
X0185400Y0053300D01*
X0173559Y0053300D01*
X0173066Y0053793D01*
X0172115Y0054187D01*
X0171085Y0054187D01*
X0170134Y0053793D01*
X0169407Y0053066D01*
X0169013Y0052115D01*
X0169013Y0051085D01*
X0169407Y0050134D01*
X0170134Y0049407D01*
X0171085Y0049013D01*
X0172053Y0049013D01*
X0180597Y0036672D01*
X0180263Y0035865D01*
X0180263Y0034835D01*
X0180657Y0033884D01*
X0181384Y0033157D01*
X0182335Y0032763D01*
X0183033Y0032763D01*
X0185400Y0030396D01*
X0185400Y0028603D01*
X0186103Y0027900D01*
X0192375Y0027900D01*
X0192375Y0025700D01*
X0192200Y0025700D01*
X0192200Y0022200D01*
X0191000Y0022200D01*
X0191000Y0025700D01*
X0186389Y0025700D01*
X0185982Y0025591D01*
X0185618Y0025380D01*
X0185320Y0025082D01*
X0185109Y0024718D01*
X0185000Y0024311D01*
X0185000Y0022200D01*
X0191000Y0022200D01*
X0191000Y0021000D01*
X0192200Y0021000D01*
X0192200Y0017500D01*
X0196250Y0017500D01*
X0196250Y0007263D01*
X0194687Y0005700D01*
X0056229Y0005700D01*
X0056425Y0005896D01*
X0060487Y0009958D01*
X0060487Y0049888D01*
X0063554Y0049888D01*
X0064257Y0050591D01*
X0064257Y0073585D01*
X0065263Y0072579D01*
X0065263Y0072023D01*
X0065657Y0071072D01*
X0066384Y0070344D01*
X0067335Y0069950D01*
X0068365Y0069950D01*
X0069316Y0070344D01*
X0069709Y0070738D01*
X0112033Y0070738D01*
X0113087Y0071792D01*
X0115308Y0074013D01*
X0115865Y0074013D01*
X0116816Y0074407D01*
X0117209Y0074800D01*
X0118943Y0074800D01*
X0118943Y0072387D01*
X0118863Y0072307D01*
X0118652Y0071942D01*
X0118543Y0071535D01*
X0118543Y0070695D01*
X0123096Y0070695D01*
X0123096Y0070694D01*
X0118543Y0070694D01*
X0118543Y0070526D01*
X0116897Y0070526D01*
X0116503Y0070919D01*
X0115552Y0071313D01*
X0114523Y0071313D01*
X0113572Y0070919D01*
X0112844Y0070192D01*
X0112450Y0069241D01*
X0112450Y0068211D01*
X0112844Y0067260D01*
X0113572Y0066532D01*
X0114523Y0066139D01*
X0115552Y0066139D01*
X0116503Y0066532D01*
X0116897Y0066926D01*
X0118943Y0066926D01*
X0118943Y0058615D01*
X0118711Y0058615D01*
X0116158Y0056062D01*
X0115460Y0056062D01*
X0114509Y0055668D01*
X0113782Y0054941D01*
X0113388Y0053990D01*
X0113388Y0052960D01*
X0113782Y0052009D01*
X0114509Y0051282D01*
X0115460Y0050888D01*
X0116490Y0050888D01*
X0117441Y0051282D01*
X0118168Y0052009D01*
X0118562Y0052960D01*
X0118562Y0053658D01*
X0118943Y0054039D01*
X0118943Y0050591D01*
X0119646Y0049888D01*
X0123650Y0049888D01*
X0123650Y0046521D01*
X0125621Y0044550D01*
X0118312Y0044550D01*
X0118312Y0048554D01*
X0117609Y0049257D01*
X0109041Y0049257D01*
X0108960Y0049337D01*
X0108596Y0049548D01*
X0108189Y0049657D01*
X0107348Y0049657D01*
X0107187Y0049657D01*
X0107180Y0050331D01*
X0107180Y0051020D01*
X0107543Y0051384D01*
X0107937Y0052335D01*
X0107937Y0053365D01*
X0107543Y0054316D01*
X0106816Y0055043D01*
X0105865Y0055437D01*
X0104835Y0055437D01*
X0103884Y0055043D01*
X0103157Y0054316D01*
X0102763Y0053365D01*
X0102763Y0052335D01*
X0103157Y0051384D01*
X0103572Y0050969D01*
X0103580Y0050310D01*
X0103580Y0049257D01*
X0095268Y0049257D01*
X0095268Y0050984D01*
X0095668Y0051384D01*
X0096062Y0052335D01*
X0096062Y0053365D01*
X0095668Y0054316D01*
X0094941Y0055043D01*
X0093990Y0055437D01*
X0092960Y0055437D01*
X0092009Y0055043D01*
X0091282Y0054316D01*
X0090888Y0053365D01*
X0090888Y0052335D01*
X0091282Y0051384D01*
X0091869Y0050797D01*
X0091869Y0049257D01*
X0091324Y0049257D01*
X0091244Y0049337D01*
X0090879Y0049548D01*
X0090472Y0049657D01*
X0089632Y0049657D01*
X0089632Y0045104D01*
X0089631Y0045104D01*
X0089631Y0049657D01*
X0088791Y0049657D01*
X0088384Y0049548D01*
X0088019Y0049337D01*
X0087939Y0049257D01*
X0081482Y0049257D01*
X0081401Y0049337D01*
X0081036Y0049548D01*
X0080630Y0049657D01*
X0079789Y0049657D01*
X0079620Y0049657D01*
X0079620Y0050310D01*
X0079628Y0050969D01*
X0080043Y0051384D01*
X0080437Y0052335D01*
X0080437Y0053365D01*
X0080043Y0054316D01*
X0079316Y0055043D01*
X0078365Y0055437D01*
X0077335Y0055437D01*
X0076384Y0055043D01*
X0075657Y0054316D01*
X0075263Y0053365D01*
X0075263Y0052335D01*
X0075657Y0051384D01*
X0076020Y0051020D01*
X0076020Y0050331D01*
X0076012Y0049596D01*
X0076020Y0049587D01*
X0076020Y0049257D01*
X0065591Y0049257D01*
X0064888Y0048554D01*
X0064888Y0041654D01*
X0065591Y0040951D01*
X0065825Y0040951D01*
X0065825Y0034928D01*
X0065570Y0034996D01*
X0064376Y0034996D01*
X0064376Y0031625D01*
X0064376Y0031625D01*
X0064376Y0034996D01*
X0063181Y0034996D01*
X0062774Y0034887D01*
X0062409Y0034677D01*
X0062111Y0034379D01*
X0061900Y0034014D01*
X0061791Y0033607D01*
X0061791Y0031625D01*
X0064375Y0031625D01*
X0064375Y0031625D01*
X0061791Y0031625D01*
X0061791Y0029642D01*
X0061900Y0029235D01*
X0062111Y0028871D01*
X0062409Y0028573D01*
X0062687Y0028412D01*
X0062687Y0028090D01*
X0062191Y0027594D01*
X0062191Y0023057D01*
X0062375Y0022873D01*
X0062375Y0019077D01*
X0062191Y0018893D01*
X0062191Y0014356D01*
X0062687Y0013860D01*
X0062687Y0013090D01*
X0062191Y0012594D01*
X0062191Y0008057D01*
X0062894Y0007354D01*
X0065857Y0007354D01*
X0065950Y0007447D01*
X0066044Y0007354D01*
X0069006Y0007354D01*
X0069100Y0007447D01*
X0069193Y0007354D01*
X0072156Y0007354D01*
X0072250Y0007447D01*
X0072343Y0007354D01*
X0075306Y0007354D01*
X0076009Y0008057D01*
X0076009Y0011729D01*
X0076054Y0011775D01*
X0079691Y0011775D01*
X0079691Y0008057D01*
X0080394Y0007354D01*
X0083357Y0007354D01*
X0083450Y0007447D01*
X0083544Y0007354D01*
X0086506Y0007354D01*
X0086600Y0007447D01*
X0086693Y0007354D01*
X0089656Y0007354D01*
X0089750Y0007447D01*
X0089843Y0007354D01*
X0092806Y0007354D01*
X0093509Y0008057D01*
X0093509Y0012594D01*
X0093024Y0013078D01*
X0093024Y0013872D01*
X0093509Y0014356D01*
X0093509Y0014925D01*
X0098235Y0014925D01*
X0098235Y0014356D01*
X0098938Y0013653D01*
X0099059Y0013653D01*
X0098817Y0013588D01*
X0098452Y0013377D01*
X0098154Y0013079D01*
X0097944Y0012715D01*
X0097835Y0012308D01*
X0097835Y0010513D01*
X0101216Y0010513D01*
X0101216Y0009744D01*
X0101984Y0009744D01*
X0101984Y0006560D01*
X0103976Y0006560D01*
X0104383Y0006669D01*
X0104748Y0006880D01*
X0105046Y0007178D01*
X0105256Y0007542D01*
X0105365Y0007949D01*
X0105365Y0009744D01*
X0101984Y0009744D01*
X0101984Y0010513D01*
X0105365Y0010513D01*
X0105365Y0012308D01*
X0105256Y0012715D01*
X0105046Y0013079D01*
X0104748Y0013377D01*
X0104383Y0013588D01*
X0104140Y0013653D01*
X0104262Y0013653D01*
X0104965Y0014356D01*
X0104965Y0019287D01*
X0104262Y0019990D01*
X0103649Y0019990D01*
X0103793Y0020134D01*
X0104187Y0021085D01*
X0104187Y0022115D01*
X0103793Y0023066D01*
X0103066Y0023793D01*
X0102115Y0024187D01*
X0101085Y0024187D01*
X0100134Y0023793D01*
X0099407Y0023066D01*
X0099013Y0022115D01*
X0099013Y0021085D01*
X0099407Y0020134D01*
X0099551Y0019990D01*
X0098938Y0019990D01*
X0098235Y0019287D01*
X0098235Y0018325D01*
X0093509Y0018325D01*
X0093509Y0018893D01*
X0093024Y0019378D01*
X0093024Y0022572D01*
X0093509Y0023057D01*
X0093509Y0027594D01*
X0093012Y0028090D01*
X0093012Y0028860D01*
X0093509Y0029356D01*
X0093509Y0033893D01*
X0093024Y0034378D01*
X0093024Y0034767D01*
X0092029Y0035763D01*
X0086840Y0040951D01*
X0087939Y0040951D01*
X0088019Y0040871D01*
X0088384Y0040660D01*
X0088791Y0040551D01*
X0089631Y0040551D01*
X0089631Y0045104D01*
X0089632Y0045104D01*
X0089632Y0040551D01*
X0090472Y0040551D01*
X0090879Y0040660D01*
X0091244Y0040871D01*
X0091324Y0040951D01*
X0099743Y0040951D01*
X0099743Y0029803D01*
X0100738Y0028807D01*
X0102771Y0026775D01*
X0109691Y0026775D01*
X0109691Y0023057D01*
X0109875Y0022873D01*
X0109875Y0019077D01*
X0109691Y0018893D01*
X0109691Y0014356D01*
X0110187Y0013860D01*
X0110187Y0013090D01*
X0109691Y0012594D01*
X0109691Y0008057D01*
X0110394Y0007354D01*
X0113357Y0007354D01*
X0113450Y0007447D01*
X0113544Y0007354D01*
X0116506Y0007354D01*
X0116600Y0007447D01*
X0116693Y0007354D01*
X0119656Y0007354D01*
X0119750Y0007447D01*
X0119843Y0007354D01*
X0122806Y0007354D01*
X0123509Y0008057D01*
X0123509Y0011729D01*
X0123554Y0011775D01*
X0127191Y0011775D01*
X0127191Y0008057D01*
X0127894Y0007354D01*
X0130857Y0007354D01*
X0130950Y0007447D01*
X0131044Y0007354D01*
X0134006Y0007354D01*
X0134100Y0007447D01*
X0134193Y0007354D01*
X0137156Y0007354D01*
X0137250Y0007447D01*
X0137343Y0007354D01*
X0140306Y0007354D01*
X0141009Y0008057D01*
X0141009Y0012594D01*
X0140524Y0013078D01*
X0140524Y0013872D01*
X0141009Y0014356D01*
X0141009Y0014925D01*
X0145735Y0014925D01*
X0145735Y0014356D01*
X0146438Y0013653D01*
X0146559Y0013653D01*
X0146317Y0013588D01*
X0145952Y0013377D01*
X0145654Y0013079D01*
X0145444Y0012715D01*
X0145335Y0012308D01*
X0145335Y0010513D01*
X0148716Y0010513D01*
X0148716Y0009744D01*
X0149484Y0009744D01*
X0149484Y0006560D01*
X0151476Y0006560D01*
X0151883Y0006669D01*
X0152248Y0006880D01*
X0152546Y0007178D01*
X0152756Y0007542D01*
X0152865Y0007949D01*
X0152865Y0009744D01*
X0149484Y0009744D01*
X0149484Y0010513D01*
X0152865Y0010513D01*
X0152865Y0012308D01*
X0152756Y0012715D01*
X0152546Y0013079D01*
X0152248Y0013377D01*
X0151883Y0013588D01*
X0151641Y0013653D01*
X0151762Y0013653D01*
X0152465Y0014356D01*
X0152465Y0019287D01*
X0151762Y0019990D01*
X0146438Y0019990D01*
X0145735Y0019287D01*
X0145735Y0018325D01*
X0141009Y0018325D01*
X0141009Y0018893D01*
X0140524Y0019378D01*
X0140524Y0022572D01*
X0141009Y0023057D01*
X0141009Y0024229D01*
X0143300Y0026521D01*
X0143300Y0042304D01*
X0142304Y0043300D01*
X0136383Y0049221D01*
X0139194Y0049221D01*
X0139896Y0049924D01*
X0139896Y0051918D01*
X0139977Y0051998D01*
X0140187Y0052363D01*
X0140296Y0052770D01*
X0140296Y0053669D01*
X0136728Y0053669D01*
X0136728Y0053669D01*
X0140296Y0053669D01*
X0140296Y0054569D01*
X0140195Y0054949D01*
X0140296Y0055329D01*
X0140296Y0056228D01*
X0136728Y0056228D01*
X0136728Y0053670D01*
X0136728Y0053670D01*
X0136728Y0055958D01*
X0136728Y0056228D01*
X0136728Y0056228D01*
X0136728Y0056228D01*
X0140296Y0056228D01*
X0140296Y0057128D01*
X0140187Y0057535D01*
X0139977Y0057900D01*
X0139896Y0057980D01*
X0139896Y0059974D01*
X0139803Y0060067D01*
X0139896Y0060161D01*
X0139896Y0062206D01*
X0140235Y0062206D01*
X0141231Y0063201D01*
X0146679Y0068650D01*
X0154179Y0068650D01*
X0155175Y0069646D01*
X0157450Y0071921D01*
X0157450Y0071085D01*
X0157844Y0070134D01*
X0158572Y0069407D01*
X0159523Y0069013D01*
X0160552Y0069013D01*
X0161503Y0069407D01*
X0162231Y0070134D01*
X0162625Y0071085D01*
X0162625Y0072115D01*
X0162231Y0073066D01*
X0162062Y0073235D01*
X0162412Y0073235D01*
X0163115Y0073938D01*
X0163115Y0079262D01*
X0162412Y0079965D01*
X0159575Y0079965D01*
X0159575Y0086216D01*
X0160331Y0086216D01*
X0160331Y0086984D01*
X0163515Y0086984D01*
X0163515Y0088976D01*
X0163406Y0089383D01*
X0163195Y0089748D01*
X0162897Y0090046D01*
X0162533Y0090256D01*
X0162126Y0090365D01*
X0160331Y0090365D01*
X0160331Y0086984D01*
X0159575Y0086984D01*
X0159575Y0089556D01*
X0159562Y0089568D01*
X0159562Y0090365D01*
X0157767Y0090365D01*
X0157360Y0090256D01*
X0157263Y0090200D01*
X0154894Y0090200D01*
X0154837Y0090142D01*
X0153958Y0091021D01*
X0152650Y0092329D01*
X0152650Y0094691D01*
X0153219Y0094691D01*
X0153703Y0095176D01*
X0154497Y0095176D01*
X0154981Y0094691D01*
X0159518Y0094691D01*
X0160221Y0095394D01*
X0160221Y0098357D01*
X0160128Y0098450D01*
X0160221Y0098544D01*
X0160221Y0101506D01*
X0160128Y0101600D01*
X0160221Y0101693D01*
X0160221Y0104656D01*
X0160128Y0104750D01*
X0160221Y0104843D01*
X0160221Y0107806D01*
X0159518Y0108509D01*
X0155800Y0108509D01*
X0155800Y0112146D01*
X0155845Y0112191D01*
X0159518Y0112191D01*
X0160221Y0112894D01*
X0160221Y0115857D01*
X0160128Y0115950D01*
X0160221Y0116044D01*
X0160221Y0119006D01*
X0160128Y0119100D01*
X0160221Y0119193D01*
X0160221Y0122156D01*
X0160128Y0122250D01*
X0160221Y0122343D01*
X0160221Y0125306D01*
X0159518Y0126009D01*
X0154981Y0126009D01*
X0154485Y0125512D01*
X0153715Y0125512D01*
X0153219Y0126009D01*
X0148682Y0126009D01*
X0148498Y0125825D01*
X0144702Y0125825D01*
X0144518Y0126009D01*
X0139981Y0126009D01*
X0139485Y0125512D01*
X0139163Y0125512D01*
X0139002Y0125791D01*
X0138704Y0126089D01*
X0138340Y0126300D01*
X0137933Y0126409D01*
X0135950Y0126409D01*
X0133968Y0126409D01*
X0133561Y0126300D01*
X0133196Y0126089D01*
X0132898Y0125791D01*
X0132688Y0125426D01*
X0132579Y0125019D01*
X0132579Y0123824D01*
X0132579Y0122630D01*
X0132647Y0122375D01*
X0122783Y0122375D01*
X0117458Y0117050D01*
X0112771Y0117050D01*
X0110581Y0114860D01*
X0109585Y0113864D01*
X0109585Y0112649D01*
X0109317Y0112649D01*
X0109317Y0108096D01*
X0109316Y0108096D01*
X0109316Y0112649D01*
X0108929Y0112649D01*
X0109187Y0113273D01*
X0109187Y0113971D01*
X0112467Y0117250D01*
X0115397Y0117250D01*
X0116100Y0117953D01*
X0116100Y0125247D01*
X0115397Y0125950D01*
X0109963Y0125950D01*
X0109882Y0126030D01*
X0109518Y0126241D01*
X0109111Y0126350D01*
X0107150Y0126350D01*
X0107150Y0122150D01*
X0106050Y0122150D01*
X0106050Y0126350D01*
X0104089Y0126350D01*
X0103682Y0126241D01*
X0103318Y0126030D01*
X0103237Y0125950D01*
X0097803Y0125950D01*
X0097100Y0125247D01*
X0097100Y0117953D01*
X0097803Y0117250D01*
X0098900Y0117250D01*
X0098900Y0115992D01*
X0098083Y0115175D01*
X0094748Y0115175D01*
X0095125Y0116085D01*
X0095125Y0117115D01*
X0094731Y0118066D01*
X0094003Y0118793D01*
X0093474Y0119013D01*
X0093990Y0119013D01*
X0094941Y0119407D01*
X0095668Y0120134D01*
X0096062Y0121085D01*
X0095717Y0120253D02*
X0097100Y0120253D01*
X0097100Y0119054D02*
X0094090Y0119054D01*
X0094818Y0117856D02*
X0097197Y0117856D01*
X0098900Y0116657D02*
X0095125Y0116657D01*
X0094865Y0115459D02*
X0098367Y0115459D01*
X0100778Y0113062D02*
X0104100Y0113062D01*
X0104013Y0113273D02*
X0104407Y0112322D01*
X0104480Y0112249D01*
X0099965Y0112249D01*
X0100487Y0112771D01*
X0102300Y0114583D01*
X0102300Y0117250D01*
X0103237Y0117250D01*
X0103318Y0117170D01*
X0103682Y0116959D01*
X0104089Y0116850D01*
X0106050Y0116850D01*
X0106050Y0121050D01*
X0107150Y0121050D01*
X0107150Y0116850D01*
X0107258Y0116850D01*
X0106783Y0116375D01*
X0106085Y0116375D01*
X0105134Y0115981D01*
X0104407Y0115253D01*
X0104013Y0114302D01*
X0104013Y0113273D01*
X0104013Y0114260D02*
X0101977Y0114260D01*
X0102300Y0115459D02*
X0104612Y0115459D01*
X0102300Y0116657D02*
X0107065Y0116657D01*
X0107150Y0117856D02*
X0106050Y0117856D01*
X0106050Y0119054D02*
X0107150Y0119054D01*
X0107150Y0120253D02*
X0106050Y0120253D01*
X0106050Y0122650D02*
X0107150Y0122650D01*
X0107150Y0123848D02*
X0106050Y0123848D01*
X0106050Y0125047D02*
X0107150Y0125047D01*
X0107150Y0126245D02*
X0106050Y0126245D01*
X0103698Y0126245D02*
X0097312Y0126245D01*
X0097176Y0127444D02*
X0196250Y0127444D01*
X0196250Y0126245D02*
X0138434Y0126245D01*
X0135950Y0126245D02*
X0135950Y0126245D01*
X0135950Y0126409D02*
X0135950Y0123825D01*
X0135950Y0123825D01*
X0135950Y0123824D02*
X0135950Y0123824D01*
X0132579Y0123824D01*
X0135950Y0123824D01*
X0135950Y0123825D02*
X0135950Y0126409D01*
X0135950Y0125047D02*
X0135950Y0125047D01*
X0135950Y0123848D02*
X0135950Y0123848D01*
X0132579Y0123848D02*
X0116100Y0123848D01*
X0116100Y0122650D02*
X0132579Y0122650D01*
X0132586Y0125047D02*
X0116100Y0125047D01*
X0116100Y0121451D02*
X0121859Y0121451D01*
X0120661Y0120253D02*
X0116100Y0120253D01*
X0116100Y0119054D02*
X0119462Y0119054D01*
X0118264Y0117856D02*
X0116003Y0117856D01*
X0112378Y0116657D02*
X0111874Y0116657D01*
X0111179Y0115459D02*
X0110675Y0115459D01*
X0109981Y0114260D02*
X0109477Y0114260D01*
X0109585Y0113062D02*
X0109100Y0113062D01*
X0109316Y0111863D02*
X0109317Y0111863D01*
X0109316Y0110665D02*
X0109317Y0110665D01*
X0109316Y0109466D02*
X0109317Y0109466D01*
X0109316Y0108268D02*
X0109317Y0108268D01*
X0109316Y0107069D02*
X0109317Y0107069D01*
X0109316Y0105870D02*
X0109317Y0105870D01*
X0109316Y0104672D02*
X0109317Y0104672D01*
X0109148Y0103473D02*
X0128569Y0103473D01*
X0129768Y0104672D02*
X0118312Y0104672D01*
X0118312Y0105870D02*
X0130966Y0105870D01*
X0132124Y0107029D02*
X0132124Y0107029D01*
X0132165Y0107069D02*
X0119161Y0107069D01*
X0120359Y0108268D02*
X0133441Y0108268D01*
X0138460Y0108268D02*
X0139740Y0108268D01*
X0144759Y0108268D02*
X0148441Y0108268D01*
X0152400Y0109466D02*
X0121558Y0109466D01*
X0121737Y0109646D02*
X0121737Y0109646D01*
X0122756Y0110665D02*
X0152400Y0110665D01*
X0152400Y0111863D02*
X0123955Y0111863D01*
X0118943Y0102275D02*
X0109148Y0102275D01*
X0109725Y0101076D02*
X0118943Y0101076D01*
X0118943Y0099878D02*
X0109812Y0099878D01*
X0109214Y0098679D02*
X0118943Y0098679D01*
X0118943Y0097481D02*
X0110388Y0097481D01*
X0109062Y0097481D02*
X0073547Y0097481D01*
X0072349Y0098679D02*
X0077736Y0098679D01*
X0077138Y0099878D02*
X0071150Y0099878D01*
X0069952Y0101076D02*
X0077225Y0101076D01*
X0077989Y0102275D02*
X0068753Y0102275D01*
X0067555Y0103473D02*
X0077989Y0103473D01*
X0077820Y0104672D02*
X0077821Y0104672D01*
X0077820Y0105870D02*
X0077821Y0105870D01*
X0077820Y0107069D02*
X0077821Y0107069D01*
X0077820Y0108268D02*
X0077821Y0108268D01*
X0077820Y0109466D02*
X0077821Y0109466D01*
X0077820Y0110665D02*
X0077821Y0110665D01*
X0077820Y0111863D02*
X0077821Y0111863D01*
X0075414Y0114260D02*
X0085918Y0114260D01*
X0084720Y0113062D02*
X0074216Y0113062D01*
X0076613Y0115459D02*
X0077979Y0115459D01*
X0077979Y0116657D02*
X0077811Y0116657D01*
X0083922Y0116657D02*
X0084278Y0116657D01*
X0084278Y0115459D02*
X0083922Y0115459D01*
X0083922Y0117856D02*
X0084278Y0117856D01*
X0084278Y0119054D02*
X0083922Y0119054D01*
X0083922Y0120253D02*
X0084278Y0120253D01*
X0084278Y0121451D02*
X0083922Y0121451D01*
X0083922Y0122650D02*
X0084278Y0122650D01*
X0084278Y0123848D02*
X0083922Y0123848D01*
X0083922Y0125047D02*
X0084278Y0125047D01*
X0084278Y0126245D02*
X0083922Y0126245D01*
X0083922Y0127444D02*
X0084278Y0127444D01*
X0077540Y0127444D02*
X0061338Y0127444D01*
X0060129Y0128642D02*
X0093108Y0128642D01*
X0096342Y0128642D02*
X0196045Y0128642D01*
X0194847Y0129841D02*
X0059099Y0129841D01*
X0062983Y0126245D02*
X0076341Y0126245D01*
X0075143Y0125047D02*
X0064109Y0125047D01*
X0064400Y0123848D02*
X0073944Y0123848D01*
X0072745Y0122650D02*
X0064400Y0122650D01*
X0064400Y0121451D02*
X0071547Y0121451D01*
X0070348Y0120253D02*
X0064400Y0120253D01*
X0064400Y0119054D02*
X0069150Y0119054D01*
X0067951Y0117856D02*
X0064400Y0117856D01*
X0064400Y0116657D02*
X0066753Y0116657D01*
X0066150Y0115459D02*
X0064400Y0115459D01*
X0064309Y0114260D02*
X0066150Y0114260D01*
X0066150Y0113062D02*
X0064000Y0113062D01*
X0064000Y0111863D02*
X0065205Y0111863D01*
X0064888Y0110665D02*
X0064000Y0110665D01*
X0064000Y0109466D02*
X0064888Y0109466D01*
X0064888Y0108268D02*
X0064000Y0108268D01*
X0064000Y0107069D02*
X0064888Y0107069D01*
X0061660Y0103712D02*
X0060134Y0103712D01*
X0060134Y0100882D01*
X0064490Y0100882D01*
X0064550Y0100822D01*
X0060134Y0100822D01*
X0060134Y0100882D01*
X0060074Y0100882D01*
X0060074Y0103712D01*
X0056941Y0103712D01*
X0056534Y0103603D01*
X0056169Y0103392D01*
X0055871Y0103094D01*
X0055660Y0102729D01*
X0055551Y0102322D01*
X0055551Y0100882D01*
X0060074Y0100882D01*
X0060074Y0100822D01*
X0055551Y0100822D01*
X0055551Y0099954D01*
X0055434Y0099954D01*
X0054941Y0100447D01*
X0053990Y0100841D01*
X0052960Y0100841D01*
X0052009Y0100447D01*
X0051282Y0099719D01*
X0050888Y0098768D01*
X0050888Y0097739D01*
X0051282Y0096788D01*
X0052009Y0096060D01*
X0052960Y0095666D01*
X0053990Y0095666D01*
X0054941Y0096060D01*
X0055434Y0096554D01*
X0055951Y0096554D01*
X0055951Y0088135D01*
X0055871Y0088055D01*
X0055660Y0087690D01*
X0055551Y0087283D01*
X0055551Y0086443D01*
X0060104Y0086443D01*
X0064657Y0086443D01*
X0064657Y0087283D01*
X0064548Y0087690D01*
X0064337Y0088055D01*
X0064257Y0088135D01*
X0064257Y0098529D01*
X0064337Y0098610D01*
X0064548Y0098975D01*
X0064657Y0099381D01*
X0064657Y0100715D01*
X0074600Y0090772D01*
X0074600Y0090553D01*
X0074600Y0075583D01*
X0073354Y0074337D01*
X0069709Y0074337D01*
X0069316Y0074731D01*
X0068365Y0075125D01*
X0067808Y0075125D01*
X0064533Y0078400D01*
X0064257Y0078400D01*
X0064257Y0078844D01*
X0064337Y0078925D01*
X0064548Y0079290D01*
X0064657Y0079696D01*
X0064657Y0080537D01*
X0064657Y0081378D01*
X0064618Y0081521D01*
X0064657Y0081665D01*
X0064657Y0082505D01*
X0063938Y0082505D01*
X0063938Y0082506D01*
X0064657Y0082506D01*
X0064657Y0082674D01*
X0068412Y0082674D01*
X0068831Y0082254D01*
X0069782Y0081860D01*
X0070812Y0081860D01*
X0071763Y0082254D01*
X0072491Y0082982D01*
X0072885Y0083933D01*
X0072885Y0084962D01*
X0072491Y0085913D01*
X0071763Y0086641D01*
X0070812Y0087035D01*
X0069782Y0087035D01*
X0068831Y0086641D01*
X0068464Y0086274D01*
X0064657Y0086274D01*
X0064657Y0086442D01*
X0060104Y0086442D01*
X0060104Y0086443D01*
X0060104Y0086442D01*
X0055551Y0086442D01*
X0055551Y0085602D01*
X0055660Y0085195D01*
X0055871Y0084830D01*
X0055951Y0084750D01*
X0055951Y0084198D01*
X0055871Y0084118D01*
X0055660Y0083753D01*
X0055551Y0083346D01*
X0055551Y0082506D01*
X0056270Y0082506D01*
X0056270Y0082505D01*
X0055551Y0082505D01*
X0055551Y0081665D01*
X0055590Y0081521D01*
X0055551Y0081378D01*
X0055551Y0080537D01*
X0055551Y0080268D01*
X0052836Y0080268D01*
X0044225Y0088879D01*
X0043229Y0089875D01*
X0042721Y0089875D01*
X0042721Y0092806D01*
X0042018Y0093509D01*
X0037481Y0093509D01*
X0036985Y0093012D01*
X0036215Y0093012D01*
X0035719Y0093509D01*
X0031182Y0093509D01*
X0030479Y0092806D01*
X0030479Y0089843D01*
X0030521Y0089801D01*
X0029600Y0088879D01*
X0021521Y0080800D01*
X0014075Y0080800D01*
X0014075Y0081172D01*
X0013372Y0081875D01*
X0010825Y0081875D01*
X0010825Y0085000D01*
X0011000Y0085000D01*
X0011000Y0088500D01*
X0012200Y0088500D01*
X0012200Y0089700D01*
X0011000Y0089700D01*
X0011000Y0093200D01*
X0010825Y0093200D01*
X0010825Y0095400D01*
X0017097Y0095400D01*
X0017800Y0096103D01*
X0017800Y0102097D01*
X0017097Y0102800D01*
X0014400Y0102800D01*
X0014400Y0104219D01*
X0014744Y0104562D01*
X0017514Y0104562D01*
X0017570Y0104547D01*
X0018061Y0104547D01*
X0018062Y0104545D01*
X0018272Y0104181D01*
X0018570Y0103883D01*
X0018935Y0103672D01*
X0019342Y0103563D01*
X0021906Y0103563D01*
X0021906Y0104547D01*
X0023105Y0104547D01*
X0023105Y0103563D01*
X0025669Y0103563D01*
X0026076Y0103672D01*
X0026441Y0103883D01*
X0026739Y0104181D01*
X0026949Y0104545D01*
X0027058Y0104952D01*
X0027058Y0108500D01*
X0023106Y0108500D01*
X0023106Y0109700D01*
X0027058Y0109700D01*
X0027058Y0113248D01*
X0026949Y0113655D01*
X0026739Y0114019D01*
X0026441Y0114317D01*
X0026076Y0114528D01*
X0025669Y0114637D01*
X0023105Y0114637D01*
X0023105Y0113653D01*
X0021906Y0113653D01*
X0021906Y0114637D01*
X0019342Y0114637D01*
X0018935Y0114528D01*
X0018570Y0114317D01*
X0018272Y0114019D01*
X0018062Y0113655D01*
X0018061Y0113653D01*
X0017570Y0113653D01*
X0017514Y0113637D01*
X0014744Y0113637D01*
X0014144Y0114237D01*
X0013494Y0114237D01*
X0013494Y0118569D01*
X0014735Y0118569D01*
X0015438Y0119272D01*
X0015438Y0120735D01*
X0015719Y0120735D01*
X0016422Y0121438D01*
X0016422Y0126762D01*
X0015719Y0127465D01*
X0015438Y0127465D01*
X0015438Y0127632D01*
X0015512Y0127707D01*
X0015512Y0130000D01*
X0043764Y0130000D01*
X0043701Y0129763D01*
X0043701Y0127200D01*
X0047260Y0127200D01*
X0047260Y0126000D01*
X0048460Y0126000D01*
X0048460Y0122047D01*
X0050630Y0122047D01*
X0051036Y0122156D01*
X0051401Y0122367D01*
X0051699Y0122665D01*
X0051834Y0122898D01*
X0052284Y0122447D01*
X0058396Y0122447D01*
X0058800Y0122851D01*
X0058800Y0114481D01*
X0059200Y0113515D01*
X0059200Y0106123D01*
X0059565Y0105241D01*
X0060241Y0104565D01*
X0061123Y0104200D01*
X0061172Y0104200D01*
X0061660Y0103712D01*
X0060134Y0103473D02*
X0060074Y0103473D01*
X0060074Y0102275D02*
X0060134Y0102275D01*
X0060134Y0101076D02*
X0060074Y0101076D01*
X0060104Y0100852D02*
X0055104Y0100852D01*
X0055551Y0101076D02*
X0047636Y0101076D01*
X0047157Y0101275D02*
X0037447Y0101275D01*
X0037447Y0104947D01*
X0038103Y0104947D01*
X0038554Y0105398D01*
X0038688Y0105165D01*
X0038986Y0104867D01*
X0039351Y0104656D01*
X0039758Y0104547D01*
X0041928Y0104547D01*
X0041928Y0108500D01*
X0043128Y0108500D01*
X0043128Y0109700D01*
X0046687Y0109700D01*
X0046687Y0112263D01*
X0046578Y0112670D01*
X0046367Y0113035D01*
X0046069Y0113333D01*
X0045704Y0113544D01*
X0045297Y0113653D01*
X0043128Y0113653D01*
X0043128Y0109700D01*
X0041928Y0109700D01*
X0041928Y0113653D01*
X0039758Y0113653D01*
X0039351Y0113544D01*
X0038986Y0113333D01*
X0038688Y0113035D01*
X0038554Y0112802D01*
X0038103Y0113253D01*
X0037847Y0113253D01*
X0037847Y0121210D01*
X0037421Y0122239D01*
X0036633Y0123026D01*
X0034713Y0124947D01*
X0034313Y0125913D01*
X0033413Y0126813D01*
X0032237Y0127300D01*
X0026461Y0127300D01*
X0026461Y0128928D01*
X0025758Y0129631D01*
X0018465Y0129631D01*
X0017762Y0128928D01*
X0017762Y0127465D01*
X0017481Y0127465D01*
X0016778Y0126762D01*
X0016778Y0121438D01*
X0017481Y0120735D01*
X0017762Y0120735D01*
X0017762Y0119272D01*
X0018465Y0118569D01*
X0025758Y0118569D01*
X0026461Y0119272D01*
X0026461Y0120900D01*
X0030840Y0120900D01*
X0032247Y0119493D01*
X0032247Y0113253D01*
X0031991Y0113253D01*
X0031288Y0112550D01*
X0031288Y0105650D01*
X0031991Y0104947D01*
X0032647Y0104947D01*
X0032647Y0099550D01*
X0033013Y0098668D01*
X0033826Y0097855D01*
X0034226Y0096889D01*
X0035014Y0096101D01*
X0036043Y0095675D01*
X0047157Y0095675D01*
X0048186Y0096101D01*
X0048974Y0096889D01*
X0049400Y0097918D01*
X0049400Y0099032D01*
X0048974Y0100061D01*
X0048186Y0100849D01*
X0047157Y0101275D01*
X0049050Y0099878D02*
X0051440Y0099878D01*
X0050888Y0098679D02*
X0049400Y0098679D01*
X0049219Y0097481D02*
X0050994Y0097481D01*
X0051787Y0096282D02*
X0048367Y0096282D01*
X0042721Y0092687D02*
X0055951Y0092687D01*
X0055951Y0093885D02*
X0010825Y0093885D01*
X0010825Y0095084D02*
X0055951Y0095084D01*
X0055951Y0096282D02*
X0055163Y0096282D01*
X0055951Y0091488D02*
X0042721Y0091488D01*
X0042721Y0090290D02*
X0055951Y0090290D01*
X0055951Y0089091D02*
X0044013Y0089091D01*
X0045211Y0087893D02*
X0055777Y0087893D01*
X0055551Y0086694D02*
X0046410Y0086694D01*
X0047608Y0085496D02*
X0055580Y0085496D01*
X0055951Y0084297D02*
X0048807Y0084297D01*
X0050005Y0083099D02*
X0055551Y0083099D01*
X0055006Y0082506D02*
X0054725Y0082225D01*
X0055006Y0082506D02*
X0060104Y0082506D01*
X0065069Y0082506D01*
X0066600Y0080975D01*
X0066354Y0080537D02*
X0060104Y0080537D01*
X0054912Y0080537D01*
X0054725Y0080350D01*
X0055551Y0080537D02*
X0056270Y0080537D01*
X0056270Y0080537D01*
X0055551Y0080537D01*
X0055551Y0080702D02*
X0052402Y0080702D01*
X0051204Y0081900D02*
X0055551Y0081900D01*
X0060104Y0081900D02*
X0060104Y0081900D01*
X0060104Y0082505D02*
X0060104Y0080537D01*
X0060104Y0080537D01*
X0060104Y0082505D01*
X0060104Y0082505D01*
X0060104Y0080702D02*
X0060104Y0080702D01*
X0063938Y0080537D02*
X0063938Y0080537D01*
X0064657Y0080537D01*
X0063938Y0080537D01*
X0064657Y0080702D02*
X0074600Y0080702D01*
X0074600Y0081900D02*
X0070908Y0081900D01*
X0069686Y0081900D02*
X0064657Y0081900D01*
X0064605Y0079503D02*
X0074600Y0079503D01*
X0074600Y0078305D02*
X0064628Y0078305D01*
X0065827Y0077106D02*
X0074600Y0077106D01*
X0074600Y0075908D02*
X0067025Y0075908D01*
X0063787Y0076600D02*
X0067850Y0072538D01*
X0075663Y0072538D01*
X0111287Y0072538D01*
X0115350Y0076600D01*
X0123096Y0076600D01*
X0127249Y0077106D02*
X0132185Y0077106D01*
X0132185Y0076984D02*
X0135369Y0076984D01*
X0135369Y0076216D01*
X0132185Y0076216D01*
X0132185Y0074224D01*
X0132294Y0073817D01*
X0132505Y0073452D01*
X0132803Y0073154D01*
X0133167Y0072944D01*
X0133574Y0072835D01*
X0135369Y0072835D01*
X0135369Y0076216D01*
X0136138Y0076216D01*
X0136138Y0072835D01*
X0137933Y0072835D01*
X0138340Y0072944D01*
X0138704Y0073154D01*
X0139002Y0073452D01*
X0139213Y0073817D01*
X0139278Y0074059D01*
X0139278Y0073938D01*
X0139981Y0073235D01*
X0140746Y0073235D01*
X0140746Y0070651D01*
X0138449Y0068354D01*
X0134262Y0068354D01*
X0133559Y0067651D01*
X0133559Y0065279D01*
X0133653Y0065185D01*
X0133559Y0065092D01*
X0133559Y0063047D01*
X0130330Y0063047D01*
X0129334Y0062051D01*
X0127400Y0060117D01*
X0127400Y0048396D01*
X0128396Y0047400D01*
X0134013Y0041783D01*
X0134013Y0041085D01*
X0134097Y0040883D01*
X0127050Y0047929D01*
X0127050Y0050392D01*
X0127249Y0050591D01*
X0127249Y0069002D01*
X0127329Y0069082D01*
X0127540Y0069447D01*
X0127649Y0069854D01*
X0127649Y0070694D01*
X0123096Y0070694D01*
X0123096Y0070695D01*
X0127649Y0070695D01*
X0127649Y0071535D01*
X0127540Y0071942D01*
X0127329Y0072307D01*
X0127249Y0072387D01*
X0127249Y0078844D01*
X0127329Y0078925D01*
X0127540Y0079290D01*
X0127649Y0079696D01*
X0127649Y0080306D01*
X0128585Y0079918D01*
X0129615Y0079918D01*
X0130566Y0080312D01*
X0131293Y0081040D01*
X0131687Y0081991D01*
X0131687Y0083020D01*
X0131293Y0083971D01*
X0130566Y0084699D01*
X0129615Y0085093D01*
X0128585Y0085093D01*
X0127634Y0084699D01*
X0127249Y0084313D01*
X0127249Y0086711D01*
X0129085Y0086711D01*
X0129900Y0085896D01*
X0130896Y0084900D01*
X0132585Y0084900D01*
X0132585Y0083938D01*
X0133288Y0083235D01*
X0136125Y0083235D01*
X0136125Y0078019D01*
X0136138Y0078007D01*
X0136138Y0076984D01*
X0135369Y0076984D01*
X0135369Y0080365D01*
X0133574Y0080365D01*
X0133167Y0080256D01*
X0132803Y0080046D01*
X0132505Y0079748D01*
X0132294Y0079383D01*
X0132185Y0078976D01*
X0132185Y0076984D01*
X0132185Y0075908D02*
X0127249Y0075908D01*
X0127249Y0074709D02*
X0132185Y0074709D01*
X0132471Y0073511D02*
X0127249Y0073511D01*
X0127324Y0072312D02*
X0140746Y0072312D01*
X0140746Y0071114D02*
X0127649Y0071114D01*
X0127649Y0069915D02*
X0140011Y0069915D01*
X0138812Y0068717D02*
X0127249Y0068717D01*
X0127249Y0067518D02*
X0133559Y0067518D01*
X0133559Y0066320D02*
X0127249Y0066320D01*
X0127249Y0065121D02*
X0133589Y0065121D01*
X0133559Y0063923D02*
X0127249Y0063923D01*
X0127249Y0062724D02*
X0130007Y0062724D01*
X0128809Y0061526D02*
X0127249Y0061526D01*
X0127249Y0060327D02*
X0127610Y0060327D01*
X0127400Y0059129D02*
X0127249Y0059129D01*
X0127249Y0057930D02*
X0127400Y0057930D01*
X0127400Y0056732D02*
X0127249Y0056732D01*
X0127249Y0055533D02*
X0127400Y0055533D01*
X0127400Y0054334D02*
X0127249Y0054334D01*
X0127249Y0053136D02*
X0127400Y0053136D01*
X0127400Y0051937D02*
X0127249Y0051937D01*
X0127249Y0050739D02*
X0127400Y0050739D01*
X0127400Y0049540D02*
X0127050Y0049540D01*
X0127050Y0048342D02*
X0127454Y0048342D01*
X0127836Y0047143D02*
X0128652Y0047143D01*
X0129034Y0045945D02*
X0129851Y0045945D01*
X0130233Y0044746D02*
X0131049Y0044746D01*
X0131431Y0043548D02*
X0132248Y0043548D01*
X0132630Y0042349D02*
X0133446Y0042349D01*
X0133828Y0041151D02*
X0134013Y0041151D01*
X0139659Y0045945D02*
X0141258Y0045945D01*
X0141212Y0047143D02*
X0138461Y0047143D01*
X0137262Y0048342D02*
X0141870Y0048342D01*
X0143788Y0046600D02*
X0148788Y0041600D01*
X0153194Y0041600D01*
X0153163Y0041632D01*
X0153163Y0053475D01*
X0155916Y0056228D01*
X0158972Y0056228D01*
X0155072Y0057930D02*
X0139947Y0057930D01*
X0139896Y0059129D02*
X0155804Y0059129D01*
X0155804Y0060327D02*
X0139896Y0060327D01*
X0139896Y0061526D02*
X0155804Y0061526D01*
X0155804Y0062724D02*
X0140753Y0062724D01*
X0141952Y0063923D02*
X0155804Y0063923D01*
X0155833Y0065121D02*
X0143150Y0065121D01*
X0144349Y0066320D02*
X0155804Y0066320D01*
X0155804Y0067518D02*
X0145547Y0067518D01*
X0154246Y0068717D02*
X0173050Y0068717D01*
X0172756Y0069915D02*
X0162012Y0069915D01*
X0162625Y0071114D02*
X0171557Y0071114D01*
X0170359Y0072312D02*
X0162543Y0072312D01*
X0162688Y0073511D02*
X0169160Y0073511D01*
X0167962Y0074709D02*
X0163115Y0074709D01*
X0163115Y0075908D02*
X0166775Y0075908D01*
X0166775Y0077106D02*
X0163115Y0077106D01*
X0163115Y0078305D02*
X0166775Y0078305D01*
X0166775Y0079503D02*
X0162874Y0079503D01*
X0162126Y0082835D02*
X0160331Y0082835D01*
X0160331Y0086216D01*
X0163515Y0086216D01*
X0163515Y0084224D01*
X0163406Y0083817D01*
X0163195Y0083452D01*
X0162897Y0083154D01*
X0162533Y0082944D01*
X0162126Y0082835D01*
X0162801Y0083099D02*
X0166775Y0083099D01*
X0166775Y0084297D02*
X0163515Y0084297D01*
X0163515Y0085496D02*
X0166775Y0085496D01*
X0166775Y0086694D02*
X0160331Y0086694D01*
X0160331Y0085496D02*
X0159575Y0085496D01*
X0159575Y0084297D02*
X0160331Y0084297D01*
X0160331Y0083099D02*
X0159575Y0083099D01*
X0159575Y0081900D02*
X0166775Y0081900D01*
X0166775Y0080702D02*
X0159575Y0080702D01*
X0159575Y0087893D02*
X0160331Y0087893D01*
X0160331Y0089091D02*
X0159575Y0089091D01*
X0159562Y0090290D02*
X0160331Y0090290D01*
X0162407Y0090290D02*
X0166775Y0090290D01*
X0166775Y0091488D02*
X0153491Y0091488D01*
X0152650Y0092687D02*
X0166775Y0092687D01*
X0166775Y0093885D02*
X0152650Y0093885D01*
X0153612Y0095084D02*
X0154588Y0095084D01*
X0159911Y0095084D02*
X0166775Y0095084D01*
X0166775Y0096282D02*
X0160221Y0096282D01*
X0160221Y0097481D02*
X0166775Y0097481D01*
X0166775Y0098679D02*
X0160221Y0098679D01*
X0160221Y0099878D02*
X0166775Y0099878D01*
X0166775Y0101076D02*
X0160221Y0101076D01*
X0160221Y0102275D02*
X0166775Y0102275D01*
X0166775Y0103473D02*
X0160221Y0103473D01*
X0160205Y0104672D02*
X0166775Y0104672D01*
X0166775Y0105870D02*
X0160221Y0105870D01*
X0160221Y0107069D02*
X0166775Y0107069D01*
X0166775Y0108268D02*
X0159759Y0108268D01*
X0155800Y0109466D02*
X0166775Y0109466D01*
X0166775Y0110665D02*
X0155800Y0110665D01*
X0155800Y0111863D02*
X0166775Y0111863D01*
X0166775Y0113062D02*
X0160221Y0113062D01*
X0160221Y0114260D02*
X0166775Y0114260D01*
X0166775Y0115459D02*
X0160221Y0115459D01*
X0160221Y0116657D02*
X0166775Y0116657D01*
X0166775Y0117856D02*
X0160221Y0117856D01*
X0160174Y0119054D02*
X0166775Y0119054D01*
X0167848Y0120253D02*
X0160221Y0120253D01*
X0160221Y0121451D02*
X0169047Y0121451D01*
X0170245Y0122650D02*
X0160221Y0122650D01*
X0160221Y0123848D02*
X0185266Y0123848D01*
X0185850Y0125047D02*
X0160221Y0125047D01*
X0133467Y0126245D02*
X0109502Y0126245D01*
X0097100Y0125047D02*
X0096831Y0125047D01*
X0097100Y0123848D02*
X0094809Y0123848D01*
X0095841Y0122650D02*
X0097100Y0122650D01*
X0081758Y0111863D02*
X0081757Y0111863D01*
X0081757Y0110665D02*
X0081758Y0110665D01*
X0081757Y0109466D02*
X0081758Y0109466D01*
X0081757Y0108268D02*
X0081758Y0108268D01*
X0081757Y0107069D02*
X0081758Y0107069D01*
X0081757Y0105870D02*
X0081758Y0105870D01*
X0081757Y0104672D02*
X0081758Y0104672D01*
X0081589Y0103473D02*
X0089900Y0103473D01*
X0089866Y0102275D02*
X0081589Y0102275D01*
X0082225Y0101076D02*
X0089100Y0101076D01*
X0089013Y0099878D02*
X0082312Y0099878D01*
X0081714Y0098679D02*
X0089611Y0098679D01*
X0093589Y0098679D02*
X0105236Y0098679D01*
X0104638Y0099878D02*
X0094187Y0099878D01*
X0094100Y0101076D02*
X0104725Y0101076D01*
X0105491Y0102275D02*
X0093334Y0102275D01*
X0093300Y0103473D02*
X0105548Y0103473D01*
X0107225Y0100350D02*
X0107348Y0099848D01*
X0107348Y0108096D01*
X0107339Y0096282D02*
X0074746Y0096282D01*
X0075945Y0095084D02*
X0106925Y0095084D01*
X0106057Y0093885D02*
X0077143Y0093885D01*
X0073883Y0091488D02*
X0064257Y0091488D01*
X0064257Y0090290D02*
X0074600Y0090290D01*
X0074600Y0089091D02*
X0064257Y0089091D01*
X0064431Y0087893D02*
X0074600Y0087893D01*
X0074600Y0086694D02*
X0071634Y0086694D01*
X0072664Y0085496D02*
X0074600Y0085496D01*
X0074600Y0084297D02*
X0072885Y0084297D01*
X0072539Y0083099D02*
X0074600Y0083099D01*
X0078600Y0083099D02*
X0118943Y0083099D01*
X0118943Y0084297D02*
X0078600Y0084297D01*
X0078600Y0085496D02*
X0118943Y0085496D01*
X0118943Y0086694D02*
X0110479Y0086694D01*
X0108971Y0086694D02*
X0078600Y0086694D01*
X0078846Y0087893D02*
X0107324Y0087893D01*
X0106280Y0089091D02*
X0080045Y0089091D01*
X0072685Y0092687D02*
X0064257Y0092687D01*
X0064257Y0093885D02*
X0071486Y0093885D01*
X0070288Y0095084D02*
X0064257Y0095084D01*
X0064257Y0096282D02*
X0069089Y0096282D01*
X0067891Y0097481D02*
X0064257Y0097481D01*
X0064377Y0098679D02*
X0066692Y0098679D01*
X0066600Y0098475D02*
X0064223Y0100852D01*
X0060104Y0100852D01*
X0056310Y0103473D02*
X0037447Y0103473D01*
X0037447Y0102275D02*
X0055551Y0102275D01*
X0060134Y0104672D02*
X0045731Y0104672D01*
X0045704Y0104656D02*
X0046069Y0104867D01*
X0046367Y0105165D01*
X0046578Y0105530D01*
X0046687Y0105937D01*
X0046687Y0108500D01*
X0043128Y0108500D01*
X0043128Y0104547D01*
X0045297Y0104547D01*
X0045704Y0104656D01*
X0046669Y0105870D02*
X0059304Y0105870D01*
X0059200Y0107069D02*
X0046687Y0107069D01*
X0046687Y0108268D02*
X0059200Y0108268D01*
X0059200Y0109466D02*
X0043128Y0109466D01*
X0043128Y0108268D02*
X0041928Y0108268D01*
X0041928Y0107069D02*
X0043128Y0107069D01*
X0043128Y0105870D02*
X0041928Y0105870D01*
X0041928Y0104672D02*
X0043128Y0104672D01*
X0039324Y0104672D02*
X0037447Y0104672D01*
X0032647Y0104672D02*
X0026983Y0104672D01*
X0027058Y0105870D02*
X0031288Y0105870D01*
X0031288Y0107069D02*
X0027058Y0107069D01*
X0027058Y0108268D02*
X0031288Y0108268D01*
X0031288Y0109466D02*
X0023106Y0109466D01*
X0021905Y0109466D02*
X0020940Y0109466D01*
X0020940Y0109700D02*
X0021905Y0109700D01*
X0021905Y0108500D01*
X0020940Y0108500D01*
X0020940Y0109700D01*
X0021906Y0114260D02*
X0023105Y0114260D01*
X0026498Y0114260D02*
X0032247Y0114260D01*
X0032247Y0115459D02*
X0013494Y0115459D01*
X0013494Y0116657D02*
X0032247Y0116657D01*
X0032247Y0117856D02*
X0013494Y0117856D01*
X0015220Y0119054D02*
X0017980Y0119054D01*
X0017762Y0120253D02*
X0015438Y0120253D01*
X0016422Y0121451D02*
X0016778Y0121451D01*
X0016778Y0122650D02*
X0016422Y0122650D01*
X0016422Y0123848D02*
X0016778Y0123848D01*
X0016778Y0125047D02*
X0016422Y0125047D01*
X0016422Y0126245D02*
X0016778Y0126245D01*
X0017459Y0127444D02*
X0015741Y0127444D01*
X0015512Y0128642D02*
X0017762Y0128642D01*
X0015512Y0129841D02*
X0043722Y0129841D01*
X0043701Y0128642D02*
X0026461Y0128642D01*
X0026461Y0127444D02*
X0043701Y0127444D01*
X0043701Y0126000D02*
X0043701Y0123437D01*
X0043810Y0123030D01*
X0044020Y0122665D01*
X0044318Y0122367D01*
X0044683Y0122156D01*
X0045090Y0122047D01*
X0047260Y0122047D01*
X0047260Y0126000D01*
X0043701Y0126000D01*
X0043701Y0125047D02*
X0034672Y0125047D01*
X0033980Y0126245D02*
X0047260Y0126245D01*
X0047260Y0125047D02*
X0048460Y0125047D01*
X0048460Y0123848D02*
X0047260Y0123848D01*
X0047260Y0122650D02*
X0048460Y0122650D01*
X0051684Y0122650D02*
X0052082Y0122650D01*
X0058599Y0122650D02*
X0058800Y0122650D01*
X0058800Y0121451D02*
X0037747Y0121451D01*
X0037847Y0120253D02*
X0058800Y0120253D01*
X0058800Y0119054D02*
X0037847Y0119054D01*
X0037847Y0117856D02*
X0058800Y0117856D01*
X0058800Y0116657D02*
X0037847Y0116657D01*
X0037847Y0115459D02*
X0058800Y0115459D01*
X0058891Y0114260D02*
X0037847Y0114260D01*
X0038295Y0113062D02*
X0038715Y0113062D01*
X0041928Y0113062D02*
X0043128Y0113062D01*
X0043128Y0111863D02*
X0041928Y0111863D01*
X0041928Y0110665D02*
X0043128Y0110665D01*
X0046687Y0110665D02*
X0059200Y0110665D01*
X0059200Y0111863D02*
X0046687Y0111863D01*
X0046341Y0113062D02*
X0059200Y0113062D01*
X0044036Y0122650D02*
X0037010Y0122650D01*
X0035812Y0123848D02*
X0043701Y0123848D01*
X0032247Y0119054D02*
X0026243Y0119054D01*
X0026461Y0120253D02*
X0031488Y0120253D01*
X0031800Y0113062D02*
X0027058Y0113062D01*
X0027058Y0111863D02*
X0031288Y0111863D01*
X0031288Y0110665D02*
X0027058Y0110665D01*
X0018513Y0114260D02*
X0013494Y0114260D01*
X0014400Y0103473D02*
X0032647Y0103473D01*
X0032647Y0102275D02*
X0017622Y0102275D01*
X0017800Y0101076D02*
X0032647Y0101076D01*
X0032647Y0099878D02*
X0017800Y0099878D01*
X0017800Y0098679D02*
X0033008Y0098679D01*
X0033981Y0097481D02*
X0017800Y0097481D01*
X0017800Y0096282D02*
X0034833Y0096282D01*
X0030479Y0092687D02*
X0017776Y0092687D01*
X0017880Y0092582D02*
X0017582Y0092880D01*
X0017218Y0093091D01*
X0016811Y0093200D01*
X0012200Y0093200D01*
X0012200Y0089700D01*
X0018200Y0089700D01*
X0018200Y0091811D01*
X0018091Y0092218D01*
X0017880Y0092582D01*
X0018200Y0091488D02*
X0030479Y0091488D01*
X0030479Y0090290D02*
X0018200Y0090290D01*
X0018200Y0088500D02*
X0012200Y0088500D01*
X0012200Y0085000D01*
X0016811Y0085000D01*
X0017218Y0085109D01*
X0017582Y0085320D01*
X0017880Y0085618D01*
X0018091Y0085982D01*
X0018200Y0086389D01*
X0018200Y0088500D01*
X0018200Y0087893D02*
X0028614Y0087893D01*
X0029812Y0089091D02*
X0012200Y0089091D01*
X0012200Y0087893D02*
X0011000Y0087893D01*
X0011000Y0086694D02*
X0012200Y0086694D01*
X0012200Y0085496D02*
X0011000Y0085496D01*
X0010825Y0084297D02*
X0025018Y0084297D01*
X0023820Y0083099D02*
X0010825Y0083099D01*
X0010825Y0081900D02*
X0022621Y0081900D01*
X0026217Y0085496D02*
X0017759Y0085496D01*
X0018200Y0086694D02*
X0027415Y0086694D01*
X0012200Y0090290D02*
X0011000Y0090290D01*
X0011000Y0091488D02*
X0012200Y0091488D01*
X0012200Y0092687D02*
X0011000Y0092687D01*
X0060104Y0084474D02*
X0070271Y0084474D01*
X0070297Y0084448D01*
X0068960Y0086694D02*
X0064657Y0086694D01*
X0063787Y0076600D02*
X0060104Y0076600D01*
X0064257Y0073511D02*
X0064331Y0073511D01*
X0064257Y0072312D02*
X0065263Y0072312D01*
X0065639Y0071114D02*
X0064257Y0071114D01*
X0064257Y0069915D02*
X0112729Y0069915D01*
X0112450Y0068717D02*
X0064257Y0068717D01*
X0064257Y0067518D02*
X0112737Y0067518D01*
X0114086Y0066320D02*
X0064257Y0066320D01*
X0064257Y0065121D02*
X0118943Y0065121D01*
X0118943Y0063923D02*
X0064257Y0063923D01*
X0064257Y0062724D02*
X0118943Y0062724D01*
X0118943Y0061526D02*
X0064257Y0061526D01*
X0064257Y0060327D02*
X0118943Y0060327D01*
X0118943Y0059129D02*
X0064257Y0059129D01*
X0064257Y0057930D02*
X0118026Y0057930D01*
X0116827Y0056732D02*
X0064257Y0056732D01*
X0064257Y0055533D02*
X0114374Y0055533D01*
X0113530Y0054334D02*
X0107525Y0054334D01*
X0107937Y0053136D02*
X0113388Y0053136D01*
X0113853Y0051937D02*
X0107773Y0051937D01*
X0107180Y0050739D02*
X0118943Y0050739D01*
X0118943Y0051937D02*
X0118097Y0051937D01*
X0118562Y0053136D02*
X0118943Y0053136D01*
X0123650Y0049540D02*
X0108608Y0049540D01*
X0107348Y0049540D02*
X0107348Y0049540D01*
X0107348Y0049657D02*
X0107348Y0045104D01*
X0107348Y0049657D01*
X0107348Y0048342D02*
X0107348Y0048342D01*
X0107348Y0047143D02*
X0107348Y0047143D01*
X0107348Y0045945D02*
X0107348Y0045945D01*
X0107348Y0045104D02*
X0107348Y0045104D01*
X0107348Y0045104D01*
X0107348Y0040551D01*
X0106507Y0040551D01*
X0106101Y0040660D01*
X0105736Y0040871D01*
X0105655Y0040951D01*
X0105111Y0040951D01*
X0105111Y0037368D01*
X0106054Y0036425D01*
X0108746Y0036425D01*
X0107617Y0037554D01*
X0107617Y0040551D01*
X0107348Y0040551D01*
X0107348Y0045104D01*
X0107348Y0044746D02*
X0107348Y0044746D01*
X0107348Y0043548D02*
X0107348Y0043548D01*
X0107348Y0042349D02*
X0107348Y0042349D01*
X0107348Y0041151D02*
X0107348Y0041151D01*
X0107617Y0039952D02*
X0105111Y0039952D01*
X0105111Y0038754D02*
X0107617Y0038754D01*
X0107617Y0037555D02*
X0105111Y0037555D01*
X0099743Y0037555D02*
X0090236Y0037555D01*
X0091435Y0036357D02*
X0099743Y0036357D01*
X0099743Y0035158D02*
X0092633Y0035158D01*
X0093442Y0033960D02*
X0099743Y0033960D01*
X0099743Y0032761D02*
X0093509Y0032761D01*
X0093509Y0031563D02*
X0099743Y0031563D01*
X0099743Y0030364D02*
X0093509Y0030364D01*
X0093319Y0029166D02*
X0100380Y0029166D01*
X0100738Y0028807D02*
X0100738Y0028807D01*
X0101579Y0027967D02*
X0093135Y0027967D01*
X0093509Y0026769D02*
X0109691Y0026769D01*
X0109691Y0025570D02*
X0093509Y0025570D01*
X0093509Y0024372D02*
X0109691Y0024372D01*
X0109691Y0023173D02*
X0103686Y0023173D01*
X0104187Y0021975D02*
X0109875Y0021975D01*
X0109875Y0020776D02*
X0104059Y0020776D01*
X0104675Y0019578D02*
X0109875Y0019578D01*
X0109691Y0018379D02*
X0104965Y0018379D01*
X0104965Y0017181D02*
X0109691Y0017181D01*
X0109691Y0015982D02*
X0104965Y0015982D01*
X0104965Y0014784D02*
X0109691Y0014784D01*
X0110187Y0013585D02*
X0104388Y0013585D01*
X0105344Y0012387D02*
X0109691Y0012387D01*
X0109691Y0011188D02*
X0105365Y0011188D01*
X0101984Y0009990D02*
X0109691Y0009990D01*
X0109691Y0008791D02*
X0105365Y0008791D01*
X0105270Y0007593D02*
X0110155Y0007593D01*
X0101984Y0007593D02*
X0101216Y0007593D01*
X0101216Y0006560D02*
X0099224Y0006560D01*
X0098817Y0006669D01*
X0098452Y0006880D01*
X0098154Y0007178D01*
X0097944Y0007542D01*
X0097835Y0007949D01*
X0097835Y0009744D01*
X0101216Y0009744D01*
X0101216Y0006560D01*
X0097930Y0007593D02*
X0093045Y0007593D01*
X0093509Y0008791D02*
X0097835Y0008791D01*
X0101216Y0008791D02*
X0101984Y0008791D01*
X0101216Y0009990D02*
X0093509Y0009990D01*
X0093509Y0011188D02*
X0097835Y0011188D01*
X0097856Y0012387D02*
X0093509Y0012387D01*
X0093024Y0013585D02*
X0098812Y0013585D01*
X0098235Y0014784D02*
X0093509Y0014784D01*
X0093509Y0018379D02*
X0098235Y0018379D01*
X0098525Y0019578D02*
X0093024Y0019578D01*
X0093024Y0020776D02*
X0099141Y0020776D01*
X0099013Y0021975D02*
X0093024Y0021975D01*
X0093509Y0023173D02*
X0099514Y0023173D01*
X0104179Y0030175D02*
X0103143Y0031212D01*
X0103143Y0034528D01*
X0103650Y0034021D01*
X0104646Y0033025D01*
X0109291Y0033025D01*
X0109291Y0031625D01*
X0111875Y0031625D01*
X0111875Y0031625D01*
X0109291Y0031625D01*
X0109291Y0030175D01*
X0104179Y0030175D01*
X0103990Y0030364D02*
X0109291Y0030364D01*
X0109291Y0031563D02*
X0103143Y0031563D01*
X0103143Y0032761D02*
X0109291Y0032761D01*
X0103711Y0033960D02*
X0103143Y0033960D01*
X0099743Y0038754D02*
X0089038Y0038754D01*
X0087839Y0039952D02*
X0099743Y0039952D01*
X0105380Y0045104D02*
X0105380Y0050320D01*
X0105350Y0052850D01*
X0102927Y0051937D02*
X0095898Y0051937D01*
X0096062Y0053136D02*
X0102763Y0053136D01*
X0103175Y0054334D02*
X0095650Y0054334D01*
X0095268Y0050739D02*
X0103575Y0050739D01*
X0103580Y0049540D02*
X0095268Y0049540D01*
X0091869Y0049540D02*
X0090891Y0049540D01*
X0089632Y0049540D02*
X0089631Y0049540D01*
X0089631Y0048342D02*
X0089632Y0048342D01*
X0089631Y0047143D02*
X0089632Y0047143D01*
X0089631Y0045945D02*
X0089632Y0045945D01*
X0089631Y0044746D02*
X0089632Y0044746D01*
X0089631Y0043548D02*
X0089632Y0043548D01*
X0089631Y0042349D02*
X0089632Y0042349D01*
X0089631Y0041151D02*
X0089632Y0041151D01*
X0083121Y0037050D02*
X0082771Y0037050D01*
X0079179Y0037050D01*
X0077552Y0038677D01*
X0077552Y0040951D01*
X0078096Y0040951D01*
X0078177Y0040871D01*
X0078541Y0040660D01*
X0078948Y0040551D01*
X0079789Y0040551D01*
X0080057Y0040551D01*
X0080057Y0040113D01*
X0083121Y0037050D01*
X0082615Y0037555D02*
X0078674Y0037555D01*
X0077552Y0038754D02*
X0081417Y0038754D01*
X0080218Y0039952D02*
X0077552Y0039952D01*
X0079789Y0040551D02*
X0079789Y0045104D01*
X0079789Y0045104D01*
X0079789Y0049657D01*
X0079789Y0045104D01*
X0079789Y0040551D01*
X0079789Y0041151D02*
X0079789Y0041151D01*
X0079789Y0042349D02*
X0079789Y0042349D01*
X0079789Y0043548D02*
X0079789Y0043548D01*
X0079789Y0044746D02*
X0079789Y0044746D01*
X0079789Y0045104D02*
X0079789Y0045104D01*
X0079789Y0045945D02*
X0079789Y0045945D01*
X0079789Y0047143D02*
X0079789Y0047143D01*
X0079789Y0048342D02*
X0079789Y0048342D01*
X0079789Y0049540D02*
X0079789Y0049540D01*
X0079625Y0050739D02*
X0091869Y0050739D01*
X0091052Y0051937D02*
X0080273Y0051937D01*
X0080437Y0053136D02*
X0090888Y0053136D01*
X0091300Y0054334D02*
X0080025Y0054334D01*
X0077850Y0052850D02*
X0077820Y0050320D01*
X0077820Y0045104D01*
X0076020Y0049540D02*
X0060487Y0049540D01*
X0060487Y0048342D02*
X0064888Y0048342D01*
X0064888Y0047143D02*
X0060487Y0047143D01*
X0060487Y0045945D02*
X0064888Y0045945D01*
X0064888Y0044746D02*
X0060487Y0044746D01*
X0060487Y0043548D02*
X0064888Y0043548D01*
X0064888Y0042349D02*
X0060487Y0042349D01*
X0060487Y0041151D02*
X0065391Y0041151D01*
X0065825Y0039952D02*
X0060487Y0039952D01*
X0060487Y0038754D02*
X0065825Y0038754D01*
X0065825Y0037555D02*
X0060487Y0037555D01*
X0060487Y0036357D02*
X0065825Y0036357D01*
X0065825Y0035158D02*
X0060487Y0035158D01*
X0060487Y0033960D02*
X0061886Y0033960D01*
X0061791Y0032761D02*
X0060487Y0032761D01*
X0060487Y0031563D02*
X0061791Y0031563D01*
X0061791Y0030364D02*
X0060487Y0030364D01*
X0060487Y0029166D02*
X0061941Y0029166D01*
X0062564Y0027967D02*
X0060487Y0027967D01*
X0060487Y0026769D02*
X0062191Y0026769D01*
X0062191Y0025570D02*
X0060487Y0025570D01*
X0060487Y0024372D02*
X0062191Y0024372D01*
X0062191Y0023173D02*
X0060487Y0023173D01*
X0060487Y0021975D02*
X0062375Y0021975D01*
X0062375Y0020776D02*
X0060487Y0020776D01*
X0060487Y0019578D02*
X0062375Y0019578D01*
X0062191Y0018379D02*
X0060487Y0018379D01*
X0060487Y0017181D02*
X0062191Y0017181D01*
X0062191Y0015982D02*
X0060487Y0015982D01*
X0060487Y0014784D02*
X0062191Y0014784D01*
X0062687Y0013585D02*
X0060487Y0013585D01*
X0060487Y0012387D02*
X0062191Y0012387D01*
X0062191Y0011188D02*
X0060487Y0011188D01*
X0060487Y0009990D02*
X0062191Y0009990D01*
X0062191Y0008791D02*
X0059320Y0008791D01*
X0058122Y0007593D02*
X0062655Y0007593D01*
X0056923Y0006394D02*
X0195381Y0006394D01*
X0195070Y0007170D02*
X0195368Y0007468D01*
X0195578Y0007832D01*
X0195687Y0008239D01*
X0195687Y0011050D01*
X0192338Y0011050D01*
X0192338Y0012150D01*
X0195687Y0012150D01*
X0195687Y0014961D01*
X0195578Y0015368D01*
X0195368Y0015732D01*
X0195070Y0016030D01*
X0194705Y0016241D01*
X0194298Y0016350D01*
X0192337Y0016350D01*
X0192337Y0012150D01*
X0191237Y0012150D01*
X0191237Y0016350D01*
X0189277Y0016350D01*
X0188870Y0016241D01*
X0188505Y0016030D01*
X0188425Y0015950D01*
X0182990Y0015950D01*
X0182287Y0015247D01*
X0182287Y0014862D01*
X0181372Y0014862D01*
X0180878Y0015356D01*
X0179927Y0015750D01*
X0178898Y0015750D01*
X0177947Y0015356D01*
X0177219Y0014628D01*
X0176825Y0013677D01*
X0176825Y0012648D01*
X0177219Y0011697D01*
X0177947Y0010969D01*
X0178898Y0010575D01*
X0179927Y0010575D01*
X0180878Y0010969D01*
X0181372Y0011462D01*
X0182287Y0011462D01*
X0182287Y0007953D01*
X0182990Y0007250D01*
X0188425Y0007250D01*
X0188505Y0007170D01*
X0188870Y0006959D01*
X0189277Y0006850D01*
X0191237Y0006850D01*
X0191237Y0011050D01*
X0192337Y0011050D01*
X0192337Y0006850D01*
X0194298Y0006850D01*
X0194705Y0006959D01*
X0195070Y0007170D01*
X0195440Y0007593D02*
X0196250Y0007593D01*
X0196250Y0008791D02*
X0195687Y0008791D01*
X0195687Y0009990D02*
X0196250Y0009990D01*
X0196250Y0011188D02*
X0192338Y0011188D01*
X0192337Y0009990D02*
X0191237Y0009990D01*
X0191237Y0008791D02*
X0192337Y0008791D01*
X0192337Y0007593D02*
X0191237Y0007593D01*
X0191237Y0012387D02*
X0192337Y0012387D01*
X0192337Y0013585D02*
X0191237Y0013585D01*
X0191237Y0014784D02*
X0192337Y0014784D01*
X0192337Y0015982D02*
X0191237Y0015982D01*
X0191000Y0017500D02*
X0191000Y0021000D01*
X0185000Y0021000D01*
X0185000Y0018889D01*
X0185109Y0018482D01*
X0185320Y0018118D01*
X0185618Y0017820D01*
X0185982Y0017609D01*
X0186389Y0017500D01*
X0191000Y0017500D01*
X0191000Y0018379D02*
X0192200Y0018379D01*
X0192200Y0019578D02*
X0191000Y0019578D01*
X0191000Y0020776D02*
X0192200Y0020776D01*
X0191000Y0021975D02*
X0140524Y0021975D01*
X0140524Y0020776D02*
X0185000Y0020776D01*
X0185000Y0019578D02*
X0152175Y0019578D01*
X0152465Y0018379D02*
X0185169Y0018379D01*
X0188457Y0015982D02*
X0152465Y0015982D01*
X0152465Y0014784D02*
X0177374Y0014784D01*
X0176825Y0013585D02*
X0151888Y0013585D01*
X0152844Y0012387D02*
X0176933Y0012387D01*
X0177728Y0011188D02*
X0152865Y0011188D01*
X0152865Y0008791D02*
X0182287Y0008791D01*
X0182287Y0009990D02*
X0149484Y0009990D01*
X0148716Y0009990D02*
X0141009Y0009990D01*
X0141009Y0011188D02*
X0145335Y0011188D01*
X0145356Y0012387D02*
X0141009Y0012387D01*
X0140524Y0013585D02*
X0146312Y0013585D01*
X0145735Y0014784D02*
X0141009Y0014784D01*
X0141009Y0018379D02*
X0145735Y0018379D01*
X0146025Y0019578D02*
X0140524Y0019578D01*
X0141009Y0023173D02*
X0185000Y0023173D01*
X0185016Y0024372D02*
X0141151Y0024372D01*
X0142349Y0025570D02*
X0185947Y0025570D01*
X0186036Y0027967D02*
X0165783Y0027967D01*
X0166524Y0029166D02*
X0185400Y0029166D01*
X0185400Y0030364D02*
X0166524Y0030364D01*
X0166524Y0031672D02*
X0163143Y0031672D01*
X0163143Y0034856D01*
X0165135Y0034856D01*
X0165542Y0034747D01*
X0165907Y0034536D01*
X0166205Y0034238D01*
X0166415Y0033874D01*
X0166524Y0033467D01*
X0166524Y0031672D01*
X0166524Y0032761D02*
X0183035Y0032761D01*
X0184233Y0031563D02*
X0163143Y0031563D01*
X0163143Y0032761D02*
X0162375Y0032761D01*
X0162375Y0033960D02*
X0163143Y0033960D01*
X0166365Y0033960D02*
X0180625Y0033960D01*
X0180263Y0035158D02*
X0156625Y0035158D01*
X0156625Y0036357D02*
X0161115Y0036357D01*
X0164406Y0036357D02*
X0165605Y0036357D01*
X0168896Y0036357D02*
X0180466Y0036357D01*
X0179985Y0037555D02*
X0169558Y0037555D01*
X0169558Y0038754D02*
X0179156Y0038754D01*
X0178326Y0039952D02*
X0169558Y0039952D01*
X0169558Y0042349D02*
X0176666Y0042349D01*
X0177496Y0041151D02*
X0165606Y0041151D01*
X0164405Y0041151D02*
X0163440Y0041151D01*
X0163440Y0041000D02*
X0163440Y0042200D01*
X0164405Y0042200D01*
X0164405Y0041000D01*
X0163440Y0041000D01*
X0169558Y0043548D02*
X0175837Y0043548D01*
X0175007Y0044746D02*
X0169558Y0044746D01*
X0169505Y0045945D02*
X0174177Y0045945D01*
X0173347Y0047143D02*
X0154962Y0047143D01*
X0154962Y0048342D02*
X0172518Y0048342D01*
X0170000Y0049540D02*
X0166931Y0049540D01*
X0167312Y0050739D02*
X0169156Y0050739D01*
X0169013Y0051937D02*
X0167127Y0051937D01*
X0167075Y0053136D02*
X0169477Y0053136D01*
X0167075Y0054334D02*
X0185400Y0054334D01*
X0181533Y0059129D02*
X0196250Y0059129D01*
X0196250Y0060327D02*
X0182731Y0060327D01*
X0183925Y0061526D02*
X0196250Y0061526D01*
X0196250Y0062724D02*
X0183925Y0062724D01*
X0183925Y0063923D02*
X0196250Y0063923D01*
X0196250Y0065121D02*
X0183925Y0065121D01*
X0183925Y0066320D02*
X0196250Y0066320D01*
X0192200Y0067518D02*
X0191000Y0067518D01*
X0191000Y0067500D02*
X0191000Y0071000D01*
X0185000Y0071000D01*
X0185000Y0068889D01*
X0185109Y0068482D01*
X0185320Y0068118D01*
X0185618Y0067820D01*
X0185982Y0067609D01*
X0186389Y0067500D01*
X0191000Y0067500D01*
X0191000Y0068717D02*
X0192200Y0068717D01*
X0192200Y0069915D02*
X0191000Y0069915D01*
X0191000Y0071114D02*
X0183925Y0071114D01*
X0183925Y0072312D02*
X0185000Y0072312D01*
X0185000Y0073511D02*
X0183925Y0073511D01*
X0183925Y0074709D02*
X0185107Y0074709D01*
X0183925Y0075908D02*
X0192375Y0075908D01*
X0192375Y0077106D02*
X0183925Y0077106D01*
X0191000Y0074709D02*
X0192200Y0074709D01*
X0192200Y0073511D02*
X0191000Y0073511D01*
X0191000Y0072312D02*
X0192200Y0072312D01*
X0185000Y0069915D02*
X0183925Y0069915D01*
X0183925Y0068717D02*
X0185046Y0068717D01*
X0183925Y0067518D02*
X0186322Y0067518D01*
X0180334Y0057930D02*
X0196250Y0057930D01*
X0196250Y0056732D02*
X0179136Y0056732D01*
X0177937Y0055533D02*
X0196250Y0055533D01*
X0162519Y0049540D02*
X0161757Y0049540D01*
X0156187Y0049540D02*
X0154962Y0049540D01*
X0154962Y0050739D02*
X0155804Y0050739D01*
X0155804Y0051937D02*
X0154962Y0051937D01*
X0155369Y0053136D02*
X0155804Y0053136D01*
X0152675Y0055533D02*
X0140296Y0055533D01*
X0140296Y0054334D02*
X0151476Y0054334D01*
X0151363Y0053136D02*
X0140296Y0053136D01*
X0139916Y0051937D02*
X0151363Y0051937D01*
X0151363Y0050739D02*
X0139896Y0050739D01*
X0139513Y0049540D02*
X0151363Y0049540D01*
X0151363Y0048342D02*
X0145705Y0048342D01*
X0146363Y0047143D02*
X0151363Y0047143D01*
X0149042Y0045945D02*
X0146988Y0045945D01*
X0148187Y0044746D02*
X0149042Y0044746D01*
X0145493Y0042349D02*
X0143255Y0042349D01*
X0143300Y0041151D02*
X0146691Y0041151D01*
X0147890Y0039952D02*
X0143300Y0039952D01*
X0143300Y0038754D02*
X0149042Y0038754D01*
X0149042Y0037555D02*
X0143300Y0037555D01*
X0143300Y0036357D02*
X0152825Y0036357D01*
X0152825Y0035158D02*
X0143300Y0035158D01*
X0143300Y0033960D02*
X0152825Y0033960D01*
X0152701Y0032761D02*
X0143300Y0032761D01*
X0143300Y0031563D02*
X0152701Y0031563D01*
X0152701Y0030364D02*
X0143300Y0030364D01*
X0143300Y0029166D02*
X0152701Y0029166D01*
X0154725Y0031287D02*
X0156066Y0031287D01*
X0159735Y0027967D02*
X0143300Y0027967D01*
X0143300Y0026769D02*
X0192375Y0026769D01*
X0192200Y0025570D02*
X0191000Y0025570D01*
X0191000Y0024372D02*
X0192200Y0024372D01*
X0192200Y0023173D02*
X0191000Y0023173D01*
X0196250Y0017181D02*
X0152465Y0017181D01*
X0148716Y0009744D02*
X0145335Y0009744D01*
X0145335Y0007949D01*
X0145444Y0007542D01*
X0145654Y0007178D01*
X0145952Y0006880D01*
X0146317Y0006669D01*
X0146724Y0006560D01*
X0148716Y0006560D01*
X0148716Y0009744D01*
X0148716Y0008791D02*
X0149484Y0008791D01*
X0149484Y0007593D02*
X0148716Y0007593D01*
X0145430Y0007593D02*
X0140545Y0007593D01*
X0141009Y0008791D02*
X0145335Y0008791D01*
X0152770Y0007593D02*
X0182648Y0007593D01*
X0182287Y0011188D02*
X0181097Y0011188D01*
X0195687Y0012387D02*
X0196250Y0012387D01*
X0196250Y0013585D02*
X0195687Y0013585D01*
X0195687Y0014784D02*
X0196250Y0014784D01*
X0196250Y0015982D02*
X0195118Y0015982D01*
X0163143Y0027967D02*
X0162375Y0027967D01*
X0162375Y0029166D02*
X0163143Y0029166D01*
X0163143Y0030364D02*
X0162375Y0030364D01*
X0144294Y0043548D02*
X0142056Y0043548D01*
X0141982Y0044746D02*
X0140858Y0044746D01*
X0136728Y0054334D02*
X0136728Y0054334D01*
X0136728Y0055533D02*
X0136728Y0055533D01*
X0140296Y0056732D02*
X0153873Y0056732D01*
X0155444Y0069915D02*
X0158063Y0069915D01*
X0157450Y0071114D02*
X0156643Y0071114D01*
X0139705Y0073511D02*
X0139036Y0073511D01*
X0136138Y0073511D02*
X0135369Y0073511D01*
X0135369Y0074709D02*
X0136138Y0074709D01*
X0136138Y0075908D02*
X0135369Y0075908D01*
X0135369Y0077106D02*
X0136138Y0077106D01*
X0136125Y0078305D02*
X0135369Y0078305D01*
X0135369Y0079503D02*
X0136125Y0079503D01*
X0136125Y0080702D02*
X0130955Y0080702D01*
X0131650Y0081900D02*
X0136125Y0081900D01*
X0136125Y0083099D02*
X0131655Y0083099D01*
X0130967Y0084297D02*
X0132585Y0084297D01*
X0130300Y0085496D02*
X0127249Y0085496D01*
X0127249Y0086694D02*
X0129102Y0086694D01*
X0123096Y0080537D02*
X0123096Y0080537D01*
X0118543Y0080537D01*
X0123096Y0080537D01*
X0118543Y0080702D02*
X0078600Y0080702D01*
X0078600Y0081900D02*
X0118719Y0081900D01*
X0118595Y0079503D02*
X0078600Y0079503D01*
X0078600Y0078305D02*
X0113396Y0078305D01*
X0112763Y0077106D02*
X0078600Y0077106D01*
X0078600Y0075908D02*
X0112112Y0075908D01*
X0110914Y0074709D02*
X0079474Y0074709D01*
X0078127Y0073511D02*
X0075073Y0073511D01*
X0075663Y0072538D02*
X0076600Y0073475D01*
X0076272Y0074709D02*
X0076928Y0074709D01*
X0076600Y0075038D02*
X0079100Y0072538D01*
X0074100Y0072538D01*
X0076600Y0075038D01*
X0073726Y0074709D02*
X0069337Y0074709D01*
X0064257Y0054334D02*
X0075675Y0054334D01*
X0075263Y0053136D02*
X0064257Y0053136D01*
X0064257Y0051937D02*
X0075427Y0051937D01*
X0076020Y0050739D02*
X0064257Y0050739D01*
X0081049Y0049540D02*
X0088372Y0049540D01*
X0064376Y0033960D02*
X0064376Y0033960D01*
X0064376Y0032761D02*
X0064376Y0032761D01*
X0042400Y0034804D02*
X0036858Y0029262D01*
X0007394Y0029262D01*
X0006950Y0028818D01*
X0006950Y0036325D01*
X0013372Y0036325D01*
X0014075Y0037028D01*
X0014075Y0037400D01*
X0020429Y0037400D01*
X0021425Y0038396D01*
X0030479Y0047450D01*
X0030479Y0045394D01*
X0031182Y0044691D01*
X0035719Y0044691D01*
X0036215Y0045187D01*
X0036985Y0045187D01*
X0037481Y0044691D01*
X0042018Y0044691D01*
X0042400Y0045073D01*
X0042400Y0034804D01*
X0042400Y0035158D02*
X0006950Y0035158D01*
X0006950Y0033960D02*
X0041556Y0033960D01*
X0040357Y0032761D02*
X0006950Y0032761D01*
X0006950Y0031563D02*
X0039159Y0031563D01*
X0037960Y0030364D02*
X0006950Y0030364D01*
X0006950Y0029166D02*
X0007298Y0029166D01*
X0013403Y0036357D02*
X0042400Y0036357D01*
X0042400Y0037555D02*
X0020584Y0037555D01*
X0021783Y0038754D02*
X0042400Y0038754D01*
X0042400Y0039952D02*
X0022982Y0039952D01*
X0024180Y0041151D02*
X0042400Y0041151D01*
X0042400Y0042349D02*
X0025379Y0042349D01*
X0026577Y0043548D02*
X0042400Y0043548D01*
X0042400Y0044746D02*
X0042073Y0044746D01*
X0037426Y0044746D02*
X0035774Y0044746D01*
X0031127Y0044746D02*
X0027776Y0044746D01*
X0028974Y0045945D02*
X0030479Y0045945D01*
X0030479Y0047143D02*
X0030173Y0047143D01*
X0076009Y0011188D02*
X0079691Y0011188D01*
X0079691Y0009990D02*
X0076009Y0009990D01*
X0076009Y0008791D02*
X0079691Y0008791D01*
X0080155Y0007593D02*
X0075545Y0007593D01*
X0123045Y0007593D02*
X0127655Y0007593D01*
X0127191Y0008791D02*
X0123509Y0008791D01*
X0123509Y0009990D02*
X0127191Y0009990D01*
X0127191Y0011188D02*
X0123509Y0011188D01*
X0125424Y0044746D02*
X0118312Y0044746D01*
X0118312Y0045945D02*
X0124226Y0045945D01*
X0123650Y0047143D02*
X0118312Y0047143D01*
X0118312Y0048342D02*
X0123650Y0048342D01*
X0118943Y0066320D02*
X0115989Y0066320D01*
X0115037Y0068726D02*
X0117476Y0068726D01*
X0115037Y0068726D02*
X0123096Y0068726D01*
X0118543Y0071114D02*
X0116034Y0071114D01*
X0114041Y0071114D02*
X0112409Y0071114D01*
X0113608Y0072312D02*
X0118868Y0072312D01*
X0118943Y0073511D02*
X0114806Y0073511D01*
X0117118Y0074709D02*
X0118943Y0074709D01*
X0127249Y0078305D02*
X0132185Y0078305D01*
X0132364Y0079503D02*
X0127597Y0079503D01*
X0118943Y0087893D02*
X0112126Y0087893D01*
X0112525Y0089091D02*
X0118943Y0089091D01*
X0118943Y0090290D02*
X0112525Y0090290D01*
X0112525Y0091488D02*
X0118943Y0091488D01*
X0118943Y0092687D02*
X0112525Y0092687D01*
X0112525Y0093885D02*
X0118943Y0093885D01*
X0118943Y0095084D02*
X0112525Y0095084D01*
X0112111Y0096282D02*
X0118943Y0096282D01*
X0087663Y0103543D02*
X0087663Y0108096D01*
X0087663Y0108096D01*
X0087663Y0103543D01*
X0087663Y0104672D02*
X0087663Y0104672D01*
X0087663Y0105870D02*
X0087663Y0105870D01*
X0087663Y0107069D02*
X0087663Y0107069D01*
X0079789Y0108096D02*
X0079789Y0100414D01*
X0079725Y0100350D01*
X0065494Y0099878D02*
X0064657Y0099878D01*
X0154689Y0090290D02*
X0157486Y0090290D01*
X0163484Y0089091D02*
X0166775Y0089091D01*
X0166775Y0087893D02*
X0163515Y0087893D01*
D27*
X0186600Y0064100D03*
X0186600Y0059100D03*
X0194100Y0059100D03*
X0194100Y0064100D03*
X0171600Y0036600D03*
X0171600Y0026600D03*
X0028787Y0093162D03*
X0024100Y0093162D03*
X0019100Y0093162D03*
X0024100Y0087850D03*
X0021288Y0083163D03*
X0020350Y0102225D03*
X0025350Y0102225D03*
D28*
X0042538Y0103162D03*
X0051600Y0101600D03*
X0053475Y0098254D03*
X0066600Y0095350D03*
X0070297Y0084448D03*
X0086600Y0083788D03*
X0091600Y0083788D03*
X0115350Y0076600D03*
X0115037Y0068726D03*
X0111600Y0061600D03*
X0115975Y0053475D03*
X0112225Y0050975D03*
X0105350Y0052850D03*
X0099725Y0052850D03*
X0093475Y0052850D03*
X0086287Y0059100D03*
X0077850Y0052850D03*
X0068475Y0055975D03*
X0062850Y0041600D03*
X0079100Y0039100D03*
X0096600Y0036600D03*
X0104725Y0031600D03*
X0106300Y0038788D03*
X0101600Y0021600D03*
X0095662Y0008475D03*
X0143475Y0008475D03*
X0156600Y0006600D03*
X0179412Y0013162D03*
X0186600Y0026600D03*
X0182850Y0035350D03*
X0176600Y0047537D03*
X0171600Y0051600D03*
X0164725Y0050975D03*
X0159100Y0035975D03*
X0146600Y0031600D03*
X0149100Y0024100D03*
X0136600Y0041600D03*
X0143788Y0046600D03*
X0142225Y0058787D03*
X0151600Y0065350D03*
X0160038Y0071600D03*
X0164725Y0081600D03*
X0186600Y0081600D03*
X0186600Y0091600D03*
X0186600Y0101600D03*
X0186600Y0111600D03*
X0186600Y0121600D03*
X0183475Y0128475D03*
X0127537Y0125350D03*
X0106600Y0128787D03*
X0094725Y0126600D03*
X0093475Y0121600D03*
X0092537Y0116600D03*
X0079725Y0113787D03*
X0066600Y0119725D03*
X0051600Y0110975D03*
X0029100Y0116600D03*
X0029100Y0128787D03*
X0079725Y0100350D03*
X0085975Y0100350D03*
X0091600Y0100350D03*
X0097850Y0100350D03*
X0107225Y0100350D03*
X0124100Y0109100D03*
X0106600Y0113787D03*
X0129100Y0082506D03*
X0136600Y0071600D03*
X0067850Y0072538D03*
X0031600Y0041600D03*
X0010038Y0032850D03*
D29*
X0011600Y0024412D03*
X0021600Y0024412D03*
X0031600Y0024412D03*
X0041600Y0024412D03*
X0051600Y0024412D03*
X0051600Y0014412D03*
X0041600Y0014412D03*
X0031600Y0014412D03*
X0021600Y0014412D03*
D30*
X0109725Y0089412D02*
X0109725Y0091600D01*
X0109725Y0094725D01*
X0061600Y0115037D02*
X0061600Y0121600D01*
X0061600Y0123787D01*
X0035047Y0120653D02*
X0035047Y0109100D01*
X0028162Y0108787D02*
X0027850Y0109100D01*
X0022506Y0109100D01*
X0022506Y0115943D01*
X0022537Y0115975D01*
X0022506Y0109100D02*
X0022506Y0103194D01*
X0022537Y0103162D01*
X0011600Y0099100D02*
X0011600Y0108194D01*
X0010694Y0109100D02*
X0010694Y0123706D01*
X0022112Y0124100D02*
X0026600Y0124100D01*
X0031600Y0124100D02*
X0035047Y0120653D01*
X0036600Y0098475D02*
X0046600Y0098475D01*
X0165006Y0046881D02*
X0165006Y0041600D01*
X0169725Y0041600D01*
X0165006Y0041600D02*
X0165006Y0036007D01*
X0165038Y0035975D01*
X0165006Y0046881D02*
X0165038Y0046912D01*
D31*
X0109725Y0089412D02*
X0108787Y0089412D01*
X0106600Y0091600D01*
X0109725Y0091600D01*
X0106600Y0091600D02*
X0109725Y0094725D01*
X0106600Y0091600D02*
X0079725Y0091600D01*
X0078475Y0091600D01*
X0076600Y0089725D01*
X0076600Y0088475D01*
X0076600Y0073475D01*
X0076600Y0088475D02*
X0079725Y0091600D01*
X0078475Y0091600D02*
X0076600Y0091600D01*
X0061600Y0106600D01*
X0076600Y0091600D02*
X0076600Y0089725D01*
X0022112Y0124100D02*
X0019946Y0124100D01*
X0013254Y0124100D02*
X0011088Y0124100D01*
X0010694Y0123706D01*
X0010694Y0109100D02*
X0012860Y0109100D01*
X0011600Y0108194D02*
X0010694Y0109100D01*
D32*
X0153194Y0041600D02*
X0154725Y0040069D01*
X0154725Y0031287D01*
D33*
X0109725Y0089412D03*
X0109725Y0094725D03*
X0061600Y0115037D03*
X0061600Y0119412D03*
X0061600Y0123787D03*
X0031600Y0124100D03*
X0026600Y0124100D03*
X0036600Y0098475D03*
X0041600Y0098475D03*
X0046600Y0098475D03*
D34*
X0031600Y0124100D02*
X0026600Y0124100D01*
D35*
X0035047Y0109100D02*
X0035047Y0100028D01*
X0036600Y0098475D01*
X0061600Y0106600D02*
X0061600Y0115037D01*
X0061600Y0123787D02*
X0058787Y0126600D01*
X0055340Y0126600D01*
D36*
X0061600Y0121600D02*
X0061600Y0119412D01*
X0153194Y0041600D02*
X0155360Y0041600D01*
D37*
X0164725Y0050975D02*
X0162031Y0053669D01*
X0158972Y0053669D01*
X0164413Y0058787D02*
X0166324Y0056876D01*
X0168450Y0056876D01*
X0168450Y0060025D02*
X0166300Y0060025D01*
X0164978Y0061347D01*
X0158972Y0061347D01*
X0158972Y0063906D02*
X0165544Y0063906D01*
X0166275Y0063175D01*
X0168450Y0063175D01*
X0168450Y0066324D02*
X0168310Y0066465D01*
X0158972Y0066465D01*
X0160038Y0071600D02*
X0160038Y0076600D01*
X0159946Y0076600D01*
X0156600Y0073475D02*
X0153475Y0070350D01*
X0145975Y0070350D01*
X0139531Y0063906D01*
X0136728Y0063906D01*
X0136728Y0066465D02*
X0138965Y0066465D01*
X0142446Y0069946D01*
X0142446Y0076600D01*
X0142446Y0086600D01*
X0145975Y0090975D02*
X0147850Y0089100D01*
X0147850Y0078475D01*
X0149725Y0076600D01*
X0153254Y0076600D01*
X0156600Y0073475D02*
X0156600Y0080350D01*
X0153254Y0083696D01*
X0153254Y0086600D01*
X0153254Y0089321D01*
X0150950Y0091625D01*
X0150950Y0096876D01*
X0142250Y0096876D01*
X0142250Y0100025D02*
X0150950Y0100025D01*
X0152525Y0100025D01*
X0155675Y0103175D01*
X0157250Y0103175D01*
X0157250Y0106324D02*
X0155699Y0106324D01*
X0152550Y0103175D01*
X0150950Y0103175D01*
X0142250Y0103175D01*
X0142250Y0106324D02*
X0150950Y0106324D01*
X0152574Y0106324D01*
X0154100Y0107850D01*
X0154100Y0112850D01*
X0155626Y0114376D01*
X0157250Y0114376D01*
X0155650Y0117525D02*
X0152501Y0114376D01*
X0150950Y0114376D01*
X0142250Y0114376D01*
X0142250Y0117525D02*
X0150950Y0117525D01*
X0152525Y0117525D01*
X0155675Y0120675D01*
X0157250Y0120675D01*
X0157250Y0117525D02*
X0155650Y0117525D01*
X0150950Y0120675D02*
X0142250Y0120675D01*
X0142250Y0123824D01*
X0135950Y0120675D02*
X0123487Y0120675D01*
X0118162Y0115350D01*
X0113475Y0115350D01*
X0111285Y0113160D01*
X0111285Y0108096D01*
X0113254Y0108096D02*
X0113254Y0111691D01*
X0114725Y0113162D01*
X0119412Y0113162D01*
X0123775Y0117525D01*
X0135950Y0117525D01*
X0135950Y0114376D02*
X0124063Y0114376D01*
X0117784Y0108096D01*
X0115852Y0108096D01*
X0115350Y0108441D02*
X0118128Y0108441D01*
X0119127Y0109439D02*
X0115350Y0109439D01*
X0115350Y0110350D02*
X0120037Y0110350D01*
X0115350Y0105662D01*
X0115350Y0110350D01*
X0115350Y0107442D02*
X0117130Y0107442D01*
X0116131Y0106444D02*
X0115350Y0106444D01*
X0123096Y0100852D02*
X0128352Y0100852D01*
X0133824Y0106324D01*
X0135950Y0106324D01*
X0135950Y0103175D02*
X0133800Y0103175D01*
X0128879Y0098254D01*
X0123096Y0098254D01*
X0123096Y0096285D02*
X0130035Y0096285D01*
X0133775Y0100025D01*
X0135950Y0100025D01*
X0135950Y0096876D02*
X0133751Y0096876D01*
X0131192Y0094317D01*
X0123096Y0094317D01*
X0123096Y0088411D02*
X0129789Y0088411D01*
X0131600Y0086600D01*
X0135754Y0086600D01*
X0135754Y0089504D01*
X0137225Y0090975D01*
X0145975Y0090975D01*
X0150950Y0096876D02*
X0157250Y0096876D01*
X0157250Y0100025D01*
X0170350Y0107225D02*
X0170350Y0077850D01*
X0178475Y0069725D01*
X0178475Y0064725D01*
X0176925Y0063175D01*
X0174750Y0063175D01*
X0174750Y0066324D02*
X0174750Y0070325D01*
X0168475Y0076600D01*
X0168475Y0118475D01*
X0171600Y0121600D01*
X0186600Y0121600D01*
X0191600Y0121600D01*
X0191600Y0111600D02*
X0186600Y0111600D01*
X0174725Y0111600D01*
X0170350Y0107225D01*
X0180350Y0098475D02*
X0183475Y0101600D01*
X0186600Y0101600D01*
X0191600Y0101600D01*
X0180350Y0098475D02*
X0180350Y0063475D01*
X0176900Y0060025D01*
X0174750Y0060025D01*
X0174750Y0056876D02*
X0176876Y0056876D01*
X0182225Y0062225D01*
X0182225Y0089725D01*
X0184100Y0091600D01*
X0186600Y0091600D01*
X0191600Y0091600D01*
X0191600Y0081600D02*
X0186600Y0081600D01*
X0164413Y0058787D02*
X0158972Y0058787D01*
X0171600Y0051600D02*
X0191600Y0051600D01*
X0191600Y0041600D02*
X0182537Y0041600D01*
X0176600Y0047537D01*
X0182850Y0035350D02*
X0186600Y0031600D01*
X0191600Y0031600D01*
X0184100Y0013162D02*
X0179412Y0013162D01*
X0184100Y0013162D02*
X0185662Y0011600D01*
X0185787Y0011600D01*
X0149100Y0016821D02*
X0148903Y0016625D01*
X0138824Y0016625D01*
X0138824Y0010325D01*
X0135675Y0010325D01*
X0132525Y0010325D02*
X0132525Y0011900D01*
X0135675Y0015050D01*
X0135675Y0016625D01*
X0135675Y0025325D01*
X0132525Y0025325D02*
X0132525Y0016625D01*
X0132525Y0015025D01*
X0129376Y0011876D01*
X0129376Y0010325D01*
X0127850Y0013475D02*
X0129376Y0015001D01*
X0129376Y0016625D01*
X0129376Y0025325D01*
X0129376Y0031625D02*
X0129376Y0033824D01*
X0124725Y0038475D01*
X0113475Y0038475D01*
X0111285Y0040665D01*
X0111285Y0045104D01*
X0109317Y0045104D02*
X0109317Y0038258D01*
X0110975Y0036600D01*
X0118475Y0036600D01*
X0121324Y0033751D01*
X0121324Y0031625D01*
X0118175Y0031625D02*
X0118175Y0033775D01*
X0117225Y0034725D01*
X0105350Y0034725D01*
X0103411Y0036664D01*
X0103411Y0045104D01*
X0101443Y0045104D02*
X0101443Y0030507D01*
X0103475Y0028475D01*
X0114100Y0028475D01*
X0115025Y0029400D01*
X0115025Y0031625D01*
X0115025Y0025325D02*
X0111876Y0025325D01*
X0115025Y0025325D02*
X0115025Y0016625D01*
X0118175Y0016625D02*
X0118175Y0015050D01*
X0115025Y0011900D01*
X0115025Y0010325D01*
X0118175Y0010325D02*
X0118175Y0011925D01*
X0121324Y0015074D01*
X0121324Y0016625D01*
X0121324Y0025325D01*
X0118175Y0025325D02*
X0118175Y0016625D01*
X0122850Y0013475D02*
X0127850Y0013475D01*
X0122850Y0013475D02*
X0121324Y0011949D01*
X0121324Y0010325D01*
X0138824Y0016625D02*
X0138824Y0025325D01*
X0139700Y0025325D01*
X0141600Y0027225D01*
X0141600Y0041600D01*
X0131600Y0051600D01*
X0131600Y0057225D01*
X0133163Y0058787D01*
X0136728Y0058787D01*
X0136728Y0061347D02*
X0131034Y0061347D01*
X0129100Y0059412D01*
X0129100Y0049100D01*
X0136600Y0041600D01*
X0135675Y0033775D02*
X0126600Y0042850D01*
X0115975Y0042850D01*
X0115852Y0042973D01*
X0115852Y0045104D01*
X0113254Y0045104D02*
X0113254Y0041821D01*
X0114725Y0040350D01*
X0125975Y0040350D01*
X0132525Y0033800D01*
X0132525Y0031625D01*
X0135675Y0031625D02*
X0135675Y0033775D01*
X0138824Y0033751D02*
X0138824Y0031625D01*
X0138824Y0033751D02*
X0125350Y0047225D01*
X0125350Y0052225D01*
X0125227Y0052348D01*
X0123096Y0052348D01*
X0119415Y0056915D02*
X0115975Y0053475D01*
X0119415Y0056915D02*
X0123096Y0056915D01*
X0093569Y0052756D02*
X0093569Y0045104D01*
X0083726Y0045104D02*
X0083726Y0041662D01*
X0091324Y0034063D01*
X0091324Y0031625D01*
X0088175Y0031625D02*
X0088175Y0034400D01*
X0081757Y0040818D01*
X0081757Y0045104D01*
X0075852Y0045104D02*
X0075852Y0037973D01*
X0078475Y0035350D01*
X0083475Y0035350D01*
X0085025Y0033800D01*
X0085025Y0031625D01*
X0081876Y0031625D02*
X0081851Y0031600D01*
X0079100Y0031600D01*
X0073883Y0036817D01*
X0073883Y0045104D01*
X0071915Y0045104D02*
X0071915Y0035660D01*
X0073824Y0033751D01*
X0073824Y0031625D01*
X0070675Y0031625D02*
X0070675Y0033775D01*
X0069946Y0034504D01*
X0069946Y0045104D01*
X0067525Y0044927D02*
X0067348Y0045104D01*
X0067525Y0044927D02*
X0067525Y0031625D01*
X0067525Y0025325D02*
X0064376Y0025325D01*
X0067525Y0025325D02*
X0067525Y0016625D01*
X0070675Y0016625D02*
X0070675Y0015050D01*
X0067525Y0011900D01*
X0067525Y0010325D01*
X0070675Y0010325D02*
X0070675Y0011925D01*
X0073824Y0015074D01*
X0073824Y0016625D01*
X0073824Y0025325D01*
X0070675Y0025325D02*
X0070675Y0016625D01*
X0075350Y0013475D02*
X0080350Y0013475D01*
X0081876Y0015001D01*
X0081876Y0016625D01*
X0081876Y0025325D01*
X0085025Y0025325D02*
X0085025Y0016625D01*
X0085025Y0015025D01*
X0081876Y0011876D01*
X0081876Y0010325D01*
X0085025Y0010325D02*
X0085025Y0011900D01*
X0088175Y0015050D01*
X0088175Y0016625D01*
X0088175Y0025325D01*
X0091324Y0025325D02*
X0091324Y0016625D01*
X0101403Y0016625D01*
X0101600Y0016821D01*
X0101600Y0021600D01*
X0091324Y0016625D02*
X0091324Y0010325D01*
X0088175Y0010325D01*
X0075350Y0013475D02*
X0073824Y0011949D01*
X0073824Y0010325D01*
X0058787Y0010663D02*
X0054725Y0006600D01*
X0025037Y0006600D01*
X0021600Y0010038D01*
X0021600Y0014412D01*
X0026600Y0016600D02*
X0026600Y0011600D01*
X0029100Y0009100D01*
X0054412Y0009100D01*
X0056600Y0011287D01*
X0056600Y0026600D01*
X0052850Y0030350D01*
X0052850Y0050975D01*
X0056821Y0054946D01*
X0060104Y0054946D01*
X0058787Y0052537D02*
X0058787Y0010663D01*
X0051600Y0014412D02*
X0046600Y0019413D01*
X0046600Y0047850D01*
X0055665Y0056915D01*
X0060104Y0056915D01*
X0060104Y0058883D02*
X0054508Y0058883D01*
X0044100Y0048475D01*
X0044100Y0034100D01*
X0036600Y0026600D01*
X0036600Y0019413D01*
X0031600Y0014412D01*
X0026600Y0016600D02*
X0023787Y0019413D01*
X0016600Y0019413D01*
X0011600Y0014412D01*
X0009725Y0039100D02*
X0019725Y0039100D01*
X0030650Y0050025D01*
X0033450Y0050025D01*
X0033450Y0053175D02*
X0030675Y0053175D01*
X0021600Y0044100D01*
X0009725Y0044100D01*
X0009725Y0049100D02*
X0023475Y0049100D01*
X0030699Y0056324D01*
X0033450Y0056324D01*
X0039750Y0056324D02*
X0042574Y0056324D01*
X0051039Y0064789D01*
X0060104Y0064789D01*
X0060104Y0062820D02*
X0052195Y0062820D01*
X0042550Y0053175D01*
X0039750Y0053175D01*
X0039750Y0050025D02*
X0042525Y0050025D01*
X0053352Y0060852D01*
X0060104Y0060852D01*
X0060104Y0066757D02*
X0047068Y0066757D01*
X0044686Y0064376D01*
X0039750Y0064376D01*
X0039750Y0067525D02*
X0045025Y0067525D01*
X0046226Y0068726D01*
X0060104Y0068726D01*
X0060104Y0070694D02*
X0039769Y0070694D01*
X0039750Y0070675D01*
X0033450Y0070675D02*
X0031300Y0070675D01*
X0024725Y0064100D01*
X0009725Y0064100D01*
X0009725Y0059100D02*
X0022850Y0059100D01*
X0031275Y0067525D01*
X0033450Y0067525D01*
X0033450Y0064376D02*
X0031251Y0064376D01*
X0020975Y0054100D01*
X0009725Y0054100D01*
X0009725Y0069100D02*
X0018475Y0069100D01*
X0031251Y0081876D01*
X0033450Y0081876D01*
X0033450Y0085025D02*
X0031275Y0085025D01*
X0020350Y0074100D01*
X0009725Y0074100D01*
X0009725Y0079100D02*
X0022225Y0079100D01*
X0031300Y0088175D01*
X0033450Y0088175D01*
X0039750Y0088175D02*
X0042525Y0088175D01*
X0052131Y0078569D01*
X0060104Y0078569D01*
X0060104Y0074631D02*
X0052944Y0074631D01*
X0042550Y0085025D01*
X0039750Y0085025D01*
X0039750Y0081876D02*
X0042574Y0081876D01*
X0051787Y0072663D01*
X0060104Y0072663D01*
X0058787Y0052537D02*
X0058352Y0052348D01*
X0060104Y0052348D01*
X0093475Y0052850D02*
X0093569Y0052756D01*
X0123096Y0082506D02*
X0129100Y0082506D01*
X0091600Y0100350D02*
X0091600Y0108096D01*
X0085694Y0108096D02*
X0085694Y0111632D01*
X0087537Y0113475D01*
X0098787Y0113475D01*
X0100600Y0115287D01*
X0100600Y0121600D01*
X0093475Y0121600D02*
X0091900Y0123175D01*
X0087250Y0123175D01*
X0087250Y0126324D02*
X0087525Y0126600D01*
X0094725Y0126600D01*
X0089112Y0120025D02*
X0087250Y0120025D01*
X0089112Y0120025D02*
X0092537Y0116600D01*
X0080950Y0120025D02*
X0078775Y0120025D01*
X0071915Y0113165D01*
X0071915Y0108096D01*
X0069946Y0108096D02*
X0069946Y0114321D01*
X0078800Y0123175D01*
X0080950Y0123175D01*
X0080950Y0126324D02*
X0078824Y0126324D01*
X0067850Y0115350D01*
X0067850Y0108162D01*
X0067471Y0108096D01*
X0067348Y0108096D01*
X0060104Y0098254D02*
X0053475Y0098254D01*
X0106600Y0113787D02*
X0110975Y0118162D01*
X0110975Y0119412D01*
X0112600Y0121037D01*
X0112600Y0121600D01*
D38*
X0011600Y0014412D03*
M02*
