%
M48
M72
T01C0.0157
T02C0.0197
T03C0.0236
T04C0.0394
%
T01
X2910Y12879
X5160Y11098
X6660Y11973
X8598Y10035
X9973Y5285
X10473Y3160
X1004Y3285
X9566Y848
X14348Y848
X15660Y660
X10630Y3879
X14910Y2410
X13660Y7160
X16473Y8160
X12754Y12535
X15910Y3598
X9660Y3660
X5160Y10160
X6660Y9535
X4254Y10316
X7910Y3910
X11160Y6160
X18348Y12848
X10660Y12879
X15160Y6535
X3160Y4160
X12410Y10910
X6285Y4160
X9785Y10035
X14660Y3160
X6848Y5598
X14223Y5879
X18660Y2660
X7973Y11379
X2910Y11660
X11223Y5098
X8660Y8379
X9160Y8379
X8629Y5910
X11504Y6873
X10723Y10035
X7973Y10035
X14379Y4660
X7785Y5285
X10535Y5285
X7030Y8445
X18660Y11160
X18660Y10160
X18660Y9160
X18660Y12160
X18660Y8160
X16004Y7160
X11535Y7660
X6785Y7254
X13660Y4160
X10160Y2160
X11598Y5348
X16473Y5098
X18285Y3535
X9473Y12660
X17660Y4754
X9348Y12160
X9254Y11660
X17160Y5160
X17941Y1316
X12910Y8251
X10660Y11379
X5348Y9825
X9160Y10035
X9348Y5285
T02
X3160Y12410
X2660Y12410
X3660Y9848
X4160Y9848
X4660Y9848
X10973Y9473
X6160Y12379
X6160Y11504
X6160Y11941
X10973Y8941
T03
X2879Y9316
X1910Y9316
X2410Y9316
X2035Y10223
X2129Y8316
X17160Y2660
X18660Y6410
X19410Y6410
X18660Y5910
X19410Y5910
X2410Y8785
X17160Y3660
X2535Y10223
T04
X1160Y2441
X5160Y2441
X2160Y2441
X2160Y1441
X1160Y1441
X5160Y1441
X3160Y1441
X4160Y1441
X3160Y2441
X4160Y2441
M30
