G75*
%MOIN*%
%OFA0B0*%
%FSLAX25Y25*%
%IPPOS*%
%LPD*%
%AMOC8*
5,1,8,0,0,1.08239X$1,22.5*
%
%ADD10C,0.00000*%
%ADD11C,0.00500*%
%ADD12C,0.00600*%
D10*
X0003100Y0006600D02*
X0008100Y0001600D01*
X0226100Y0001600D01*
X0230100Y0005600D01*
X0234100Y0005600D01*
X0238100Y0001600D01*
X0239600Y0001600D01*
X0243600Y0005600D01*
X0247100Y0005600D01*
X0251100Y0001600D01*
X0252100Y0001600D01*
X0257100Y0006600D01*
X0257100Y0106600D01*
X0237600Y0126100D01*
X0237600Y0147600D01*
X0235100Y0150100D01*
X0015600Y0150100D01*
X0003100Y0137600D01*
X0003100Y0006600D01*
D11*
X0020757Y0006018D02*
X0020757Y0005434D01*
X0021341Y0004850D01*
X0022509Y0004850D01*
X0023093Y0005434D01*
X0024441Y0004850D02*
X0026776Y0004850D01*
X0024441Y0007185D01*
X0024441Y0007769D01*
X0025024Y0008353D01*
X0026192Y0008353D01*
X0026776Y0007769D01*
X0028124Y0007769D02*
X0028708Y0008353D01*
X0029875Y0008353D01*
X0030459Y0007769D01*
X0030459Y0007185D01*
X0029875Y0006601D01*
X0028124Y0006601D01*
X0028124Y0005434D02*
X0028124Y0007769D01*
X0028124Y0005434D02*
X0028708Y0004850D01*
X0029875Y0004850D01*
X0030459Y0005434D01*
X0031807Y0005434D02*
X0032391Y0004850D01*
X0033558Y0004850D01*
X0034142Y0005434D01*
X0031807Y0007769D01*
X0031807Y0005434D01*
X0034142Y0005434D02*
X0034142Y0007769D01*
X0033558Y0008353D01*
X0032391Y0008353D01*
X0031807Y0007769D01*
X0035490Y0007769D02*
X0037825Y0005434D01*
X0037825Y0004850D01*
X0039173Y0004850D02*
X0041508Y0004850D01*
X0040341Y0004850D02*
X0040341Y0008353D01*
X0041508Y0007185D01*
X0042856Y0007769D02*
X0042856Y0005434D01*
X0043440Y0004850D01*
X0044608Y0004850D01*
X0045192Y0005434D01*
X0042856Y0007769D01*
X0043440Y0008353D01*
X0044608Y0008353D01*
X0045192Y0007769D01*
X0045192Y0005434D01*
X0046539Y0004850D02*
X0048875Y0004850D01*
X0046539Y0007185D01*
X0046539Y0007769D01*
X0047123Y0008353D01*
X0048291Y0008353D01*
X0048875Y0007769D01*
X0053906Y0007185D02*
X0053906Y0004850D01*
X0052558Y0004266D02*
X0050223Y0004266D01*
X0053906Y0006601D02*
X0056241Y0006601D01*
X0056241Y0007185D02*
X0055073Y0008353D01*
X0053906Y0007185D01*
X0056241Y0007185D02*
X0056241Y0004850D01*
X0058173Y0004850D02*
X0058173Y0008353D01*
X0059924Y0006601D01*
X0057589Y0006601D01*
X0061272Y0006018D02*
X0061856Y0006601D01*
X0063607Y0006601D01*
X0063607Y0005434D01*
X0063023Y0004850D01*
X0061856Y0004850D01*
X0061272Y0005434D01*
X0061272Y0006018D01*
X0062440Y0007769D02*
X0063607Y0006601D01*
X0062440Y0007769D02*
X0061272Y0008353D01*
X0064955Y0008353D02*
X0064955Y0004850D01*
X0067290Y0008353D01*
X0067290Y0004850D01*
X0086630Y0006668D02*
X0086948Y0006349D01*
X0087585Y0006349D01*
X0087585Y0005712D01*
X0087904Y0005394D01*
X0088541Y0005394D01*
X0089177Y0006031D01*
X0089177Y0006668D01*
X0090306Y0007159D02*
X0091579Y0008433D01*
X0089032Y0008433D01*
X0088713Y0008751D01*
X0088713Y0009388D01*
X0089350Y0010025D01*
X0089987Y0010025D01*
X0091115Y0011790D02*
X0093026Y0009880D01*
X0093663Y0010516D02*
X0092389Y0009243D01*
X0092389Y0011790D02*
X0091115Y0011790D01*
X0092880Y0012918D02*
X0092880Y0013555D01*
X0093517Y0014192D01*
X0094154Y0014192D01*
X0095428Y0012918D01*
X0095428Y0012282D01*
X0094791Y0011645D01*
X0094154Y0011645D01*
X0099448Y0012123D02*
X0101359Y0010213D01*
X0101996Y0010849D02*
X0100722Y0009576D01*
X0100722Y0012123D02*
X0099448Y0012123D01*
X0101850Y0012614D02*
X0103124Y0013888D01*
X0101213Y0013888D01*
X0103124Y0011978D01*
X0104889Y0013743D02*
X0106163Y0015016D01*
X0105526Y0014380D02*
X0103615Y0016290D01*
X0104889Y0016290D01*
X0105380Y0017418D02*
X0105380Y0018055D01*
X0106017Y0018692D01*
X0106654Y0018692D01*
X0107928Y0017418D01*
X0107928Y0016782D01*
X0107291Y0016145D01*
X0106654Y0016145D01*
X0112110Y0008552D02*
X0112110Y0005850D01*
X0113010Y0005850D02*
X0111209Y0005850D01*
X0113010Y0007652D02*
X0112110Y0008552D01*
X0114155Y0008102D02*
X0114155Y0007652D01*
X0114606Y0007201D01*
X0114155Y0006751D01*
X0114155Y0006300D01*
X0114606Y0005850D01*
X0115507Y0005850D01*
X0115957Y0006300D01*
X0117102Y0005850D02*
X0118903Y0005850D01*
X0118003Y0005850D02*
X0118003Y0008552D01*
X0118903Y0007652D01*
X0120048Y0008102D02*
X0120499Y0008552D01*
X0121400Y0008552D01*
X0121850Y0008102D01*
X0121850Y0006300D01*
X0121400Y0005850D01*
X0120499Y0005850D01*
X0120048Y0006300D01*
X0115957Y0008102D02*
X0115507Y0008552D01*
X0114606Y0008552D01*
X0114155Y0008102D01*
X0114606Y0007201D02*
X0115056Y0007201D01*
X0087904Y0006668D02*
X0087585Y0006349D01*
X0086630Y0006668D02*
X0086630Y0007305D01*
X0087267Y0007942D01*
X0087904Y0007942D01*
X0080350Y0017850D02*
X0080350Y0020552D01*
X0078999Y0020552D01*
X0078548Y0020102D01*
X0078548Y0019201D01*
X0078999Y0018751D01*
X0080350Y0018751D01*
X0079449Y0018751D02*
X0078548Y0017850D01*
X0077403Y0017850D02*
X0075602Y0017850D01*
X0076503Y0017850D02*
X0076503Y0020552D01*
X0077403Y0019652D01*
X0074457Y0020102D02*
X0074007Y0020552D01*
X0073106Y0020552D01*
X0072655Y0020102D01*
X0072655Y0019652D01*
X0073106Y0019201D01*
X0072655Y0018751D01*
X0072655Y0018300D01*
X0073106Y0017850D01*
X0074007Y0017850D01*
X0074457Y0018300D01*
X0073556Y0019201D02*
X0073106Y0019201D01*
X0086130Y0024168D02*
X0086448Y0023849D01*
X0087085Y0023849D01*
X0087085Y0023212D01*
X0087404Y0022894D01*
X0088041Y0022894D01*
X0088677Y0023531D01*
X0088677Y0024168D01*
X0089487Y0024978D02*
X0090124Y0024978D01*
X0090761Y0025614D01*
X0090761Y0026251D01*
X0088213Y0026251D01*
X0089487Y0024978D01*
X0088213Y0026251D02*
X0088213Y0026888D01*
X0088850Y0027525D01*
X0089487Y0027525D01*
X0090761Y0026251D01*
X0091889Y0026743D02*
X0093163Y0028016D01*
X0092526Y0027380D02*
X0090615Y0029290D01*
X0091889Y0029290D01*
X0092380Y0030418D02*
X0092380Y0031055D01*
X0093017Y0031692D01*
X0093654Y0031692D01*
X0094928Y0030418D01*
X0094928Y0029782D01*
X0094291Y0029145D01*
X0093654Y0029145D01*
X0087404Y0025442D02*
X0086767Y0025442D01*
X0086130Y0024805D01*
X0086130Y0024168D01*
X0087085Y0023849D02*
X0087404Y0024168D01*
X0077496Y0035349D02*
X0076222Y0034076D01*
X0074948Y0035349D02*
X0074630Y0035668D01*
X0074630Y0036305D01*
X0075267Y0036942D01*
X0075904Y0036942D01*
X0076713Y0037751D02*
X0077987Y0036478D01*
X0078624Y0036478D01*
X0079261Y0037114D01*
X0079261Y0037751D01*
X0076713Y0037751D01*
X0076713Y0038388D01*
X0077350Y0039025D01*
X0077987Y0039025D01*
X0079261Y0037751D01*
X0080389Y0038243D02*
X0081663Y0039516D01*
X0081026Y0038880D02*
X0079115Y0040790D01*
X0080389Y0040790D01*
X0080880Y0041918D02*
X0080880Y0042555D01*
X0081517Y0043192D01*
X0082154Y0043192D01*
X0083428Y0041918D01*
X0083428Y0041282D01*
X0082791Y0040645D01*
X0082154Y0040645D01*
X0077496Y0035349D02*
X0074948Y0035349D01*
X0055850Y0044350D02*
X0055850Y0047052D01*
X0054499Y0047052D01*
X0054048Y0046602D01*
X0054048Y0045701D01*
X0054499Y0045251D01*
X0055850Y0045251D01*
X0054949Y0045251D02*
X0054048Y0044350D01*
X0052903Y0044800D02*
X0052453Y0044350D01*
X0051552Y0044350D01*
X0051102Y0044800D01*
X0051102Y0045701D01*
X0051552Y0046152D01*
X0052003Y0046152D01*
X0052903Y0045701D01*
X0052903Y0047052D01*
X0051102Y0047052D01*
X0049957Y0046152D02*
X0049056Y0047052D01*
X0049056Y0044350D01*
X0049957Y0044350D02*
X0048155Y0044350D01*
X0048155Y0050350D02*
X0049957Y0050350D01*
X0048155Y0052152D01*
X0048155Y0052602D01*
X0048606Y0053052D01*
X0049507Y0053052D01*
X0049957Y0052602D01*
X0051102Y0053052D02*
X0052903Y0053052D01*
X0052903Y0051701D01*
X0052003Y0052152D01*
X0051552Y0052152D01*
X0051102Y0051701D01*
X0051102Y0050800D01*
X0051552Y0050350D01*
X0052453Y0050350D01*
X0052903Y0050800D01*
X0054048Y0050350D02*
X0054949Y0051251D01*
X0054499Y0051251D02*
X0055850Y0051251D01*
X0055850Y0050350D02*
X0055850Y0053052D01*
X0054499Y0053052D01*
X0054048Y0052602D01*
X0054048Y0051701D01*
X0054499Y0051251D01*
X0054048Y0059350D02*
X0054949Y0060251D01*
X0054499Y0060251D02*
X0055850Y0060251D01*
X0055850Y0059350D02*
X0055850Y0062052D01*
X0054499Y0062052D01*
X0054048Y0061602D01*
X0054048Y0060701D01*
X0054499Y0060251D01*
X0052903Y0060701D02*
X0052003Y0061152D01*
X0051552Y0061152D01*
X0051102Y0060701D01*
X0051102Y0059800D01*
X0051552Y0059350D01*
X0052453Y0059350D01*
X0052903Y0059800D01*
X0052903Y0060701D02*
X0052903Y0062052D01*
X0051102Y0062052D01*
X0049957Y0061602D02*
X0049507Y0062052D01*
X0048606Y0062052D01*
X0048155Y0061602D01*
X0048155Y0061152D01*
X0048606Y0060701D01*
X0048155Y0060251D01*
X0048155Y0059800D01*
X0048606Y0059350D01*
X0049507Y0059350D01*
X0049957Y0059800D01*
X0049056Y0060701D02*
X0048606Y0060701D01*
X0059209Y0062350D02*
X0061010Y0062350D01*
X0059209Y0064152D01*
X0059209Y0064602D01*
X0059659Y0065052D01*
X0060560Y0065052D01*
X0061010Y0064602D01*
X0062155Y0064602D02*
X0062606Y0065052D01*
X0063507Y0065052D01*
X0063957Y0064602D01*
X0062155Y0064602D02*
X0062155Y0064152D01*
X0063957Y0062350D01*
X0062155Y0062350D01*
X0065102Y0062350D02*
X0066903Y0062350D01*
X0066003Y0062350D02*
X0066003Y0065052D01*
X0066903Y0064152D01*
X0068048Y0064602D02*
X0068499Y0065052D01*
X0069400Y0065052D01*
X0069850Y0064602D01*
X0069850Y0062800D01*
X0069400Y0062350D01*
X0068499Y0062350D01*
X0068048Y0062800D01*
X0082743Y0071811D02*
X0084017Y0070537D01*
X0083380Y0071174D02*
X0085290Y0073085D01*
X0085290Y0071811D01*
X0086418Y0071320D02*
X0087055Y0071320D01*
X0087692Y0070683D01*
X0087692Y0070046D01*
X0086418Y0068772D01*
X0085782Y0068772D01*
X0085145Y0069409D01*
X0085145Y0070046D01*
X0081933Y0072621D02*
X0080659Y0073894D01*
X0081296Y0073257D02*
X0083207Y0075168D01*
X0083207Y0073894D01*
X0081442Y0076296D02*
X0081442Y0076933D01*
X0080805Y0077570D01*
X0080168Y0077570D01*
X0079850Y0077252D01*
X0079850Y0076615D01*
X0079213Y0076615D01*
X0078894Y0076296D01*
X0078894Y0075659D01*
X0079531Y0075023D01*
X0080168Y0075023D01*
X0080168Y0076296D02*
X0079850Y0076615D01*
X0093359Y0086594D02*
X0094633Y0085321D01*
X0094633Y0087868D01*
X0094951Y0088187D01*
X0095588Y0088187D01*
X0096225Y0087550D01*
X0096225Y0086913D01*
X0097990Y0085785D02*
X0096080Y0083874D01*
X0096717Y0083237D02*
X0095443Y0084511D01*
X0097990Y0084511D02*
X0097990Y0085785D01*
X0099118Y0084020D02*
X0099755Y0084020D01*
X0100392Y0083383D01*
X0100392Y0082746D01*
X0099118Y0081472D01*
X0098482Y0081472D01*
X0097845Y0082109D01*
X0097845Y0082746D01*
X0092868Y0087723D02*
X0092231Y0087723D01*
X0091594Y0088359D01*
X0091594Y0088996D01*
X0092868Y0090270D01*
X0093505Y0090270D01*
X0094142Y0089633D01*
X0094142Y0088996D01*
X0093823Y0088678D01*
X0093186Y0088678D01*
X0092231Y0089633D01*
X0098476Y0095878D02*
X0099750Y0094604D01*
X0099750Y0097152D01*
X0100068Y0097470D01*
X0100705Y0097470D01*
X0101342Y0096833D01*
X0101342Y0096196D01*
X0103107Y0095068D02*
X0103107Y0093794D01*
X0103107Y0095068D02*
X0101196Y0093157D01*
X0101833Y0092521D02*
X0100559Y0093794D01*
X0103280Y0091074D02*
X0105190Y0092985D01*
X0105190Y0091711D01*
X0106318Y0091220D02*
X0106955Y0091220D01*
X0107592Y0090583D01*
X0107592Y0089946D01*
X0106318Y0088672D01*
X0105682Y0088672D01*
X0105045Y0089309D01*
X0105045Y0089946D01*
X0103917Y0090437D02*
X0102643Y0091711D01*
X0132630Y0098168D02*
X0133904Y0096894D01*
X0134541Y0096894D01*
X0135177Y0097531D01*
X0135177Y0098168D01*
X0134222Y0098486D02*
X0133267Y0097531D01*
X0132630Y0098168D02*
X0132630Y0098805D01*
X0133267Y0099442D01*
X0133904Y0099442D01*
X0134222Y0099123D01*
X0134222Y0098486D01*
X0134713Y0100251D02*
X0135987Y0098978D01*
X0136624Y0098978D01*
X0137261Y0099614D01*
X0137261Y0100251D01*
X0134713Y0100251D01*
X0134713Y0100888D01*
X0135350Y0101525D01*
X0135987Y0101525D01*
X0137261Y0100251D01*
X0138389Y0100743D02*
X0139663Y0102016D01*
X0139026Y0101380D02*
X0137115Y0103290D01*
X0138389Y0103290D01*
X0138880Y0104418D02*
X0138880Y0105055D01*
X0139517Y0105692D01*
X0140154Y0105692D01*
X0141428Y0104418D01*
X0141428Y0103782D01*
X0140791Y0103145D01*
X0140154Y0103145D01*
X0126663Y0114516D02*
X0125389Y0113243D01*
X0126026Y0113880D02*
X0124115Y0115790D01*
X0125389Y0115790D01*
X0125880Y0116918D02*
X0125880Y0117555D01*
X0126517Y0118192D01*
X0127154Y0118192D01*
X0128428Y0116918D01*
X0128428Y0116282D01*
X0127791Y0115645D01*
X0127154Y0115645D01*
X0124579Y0112433D02*
X0122032Y0112433D01*
X0121713Y0112751D01*
X0121713Y0113388D01*
X0122350Y0114025D01*
X0122987Y0114025D01*
X0124579Y0112433D02*
X0123306Y0111159D01*
X0122496Y0110349D02*
X0122177Y0110668D01*
X0119630Y0110668D01*
X0119311Y0110986D01*
X0120585Y0112260D01*
X0106918Y0128772D02*
X0106282Y0128772D01*
X0105645Y0129409D01*
X0105645Y0130046D01*
X0104517Y0130537D02*
X0103243Y0131811D01*
X0103880Y0131174D02*
X0105790Y0133085D01*
X0105790Y0131811D01*
X0106918Y0131320D02*
X0107555Y0131320D01*
X0108192Y0130683D01*
X0108192Y0130046D01*
X0106918Y0128772D01*
X0102433Y0132621D02*
X0102433Y0135168D01*
X0102751Y0135487D01*
X0103388Y0135487D01*
X0104025Y0134850D01*
X0104025Y0134213D01*
X0102433Y0132621D02*
X0101159Y0133894D01*
X0100668Y0135023D02*
X0100986Y0135341D01*
X0100986Y0135978D01*
X0100350Y0136615D01*
X0099713Y0136615D01*
X0099394Y0136296D01*
X0099394Y0135659D01*
X0100031Y0135023D01*
X0100668Y0135023D01*
X0100986Y0135978D02*
X0101623Y0135978D01*
X0101942Y0136296D01*
X0101942Y0136933D01*
X0101305Y0137570D01*
X0100668Y0137570D01*
X0100350Y0137252D01*
X0100350Y0136615D01*
X0109478Y0141576D02*
X0110115Y0140939D01*
X0110751Y0140939D01*
X0111243Y0139811D02*
X0112517Y0138537D01*
X0111880Y0139174D02*
X0113790Y0141085D01*
X0113790Y0139811D01*
X0114918Y0139320D02*
X0115555Y0139320D01*
X0116192Y0138683D01*
X0116192Y0138046D01*
X0114918Y0136772D01*
X0114282Y0136772D01*
X0113645Y0137409D01*
X0113645Y0138046D01*
X0112025Y0142213D02*
X0112025Y0142850D01*
X0111388Y0143487D01*
X0110751Y0143487D01*
X0110433Y0143168D01*
X0110433Y0142531D01*
X0109796Y0142531D01*
X0109478Y0142213D01*
X0109478Y0141576D01*
X0110433Y0142531D02*
X0110751Y0142213D01*
X0108350Y0142704D02*
X0108350Y0145252D01*
X0108668Y0145570D01*
X0109305Y0145570D01*
X0109942Y0144933D01*
X0109942Y0144296D01*
X0108350Y0142704D02*
X0107076Y0143978D01*
X0087790Y0133085D02*
X0085880Y0131174D01*
X0086517Y0130537D02*
X0085243Y0131811D01*
X0084433Y0132621D02*
X0083159Y0133894D01*
X0083796Y0133257D02*
X0085707Y0135168D01*
X0085707Y0133894D01*
X0087790Y0133085D02*
X0087790Y0131811D01*
X0088918Y0131320D02*
X0089555Y0131320D01*
X0090192Y0130683D01*
X0090192Y0130046D01*
X0088918Y0128772D01*
X0088282Y0128772D01*
X0087645Y0129409D01*
X0087645Y0130046D01*
X0084055Y0125820D02*
X0084692Y0125183D01*
X0084692Y0124546D01*
X0083418Y0123272D01*
X0082782Y0123272D01*
X0082145Y0123909D01*
X0082145Y0124546D01*
X0081017Y0125037D02*
X0079743Y0126311D01*
X0080380Y0125674D02*
X0082290Y0127585D01*
X0082290Y0126311D01*
X0083418Y0125820D02*
X0084055Y0125820D01*
X0080207Y0128394D02*
X0080207Y0129668D01*
X0078296Y0127757D01*
X0078933Y0127121D02*
X0077659Y0128394D01*
X0076850Y0129204D02*
X0075576Y0130478D01*
X0076213Y0129841D02*
X0078123Y0131752D01*
X0078123Y0130478D01*
X0082031Y0135023D02*
X0081394Y0135659D01*
X0081394Y0136296D01*
X0082668Y0137570D01*
X0082668Y0135023D01*
X0082031Y0135023D01*
X0082668Y0135023D02*
X0083942Y0136296D01*
X0083942Y0136933D01*
X0083305Y0137570D01*
X0082668Y0137570D01*
X0046350Y0133102D02*
X0046350Y0131300D01*
X0045900Y0130850D01*
X0044999Y0130850D01*
X0044548Y0131300D01*
X0043403Y0130850D02*
X0041602Y0130850D01*
X0042503Y0130850D02*
X0042503Y0133552D01*
X0043403Y0132652D01*
X0044548Y0133102D02*
X0044999Y0133552D01*
X0045900Y0133552D01*
X0046350Y0133102D01*
X0040457Y0133102D02*
X0040457Y0131300D01*
X0038655Y0133102D01*
X0038655Y0131300D01*
X0039106Y0130850D01*
X0040007Y0130850D01*
X0040457Y0131300D01*
X0040457Y0133102D02*
X0040007Y0133552D01*
X0039106Y0133552D01*
X0038655Y0133102D01*
X0037510Y0132652D02*
X0036610Y0133552D01*
X0036610Y0130850D01*
X0037510Y0130850D02*
X0035709Y0130850D01*
X0036110Y0081052D02*
X0036110Y0078350D01*
X0037010Y0078350D02*
X0035209Y0078350D01*
X0037010Y0080152D02*
X0036110Y0081052D01*
X0038155Y0080602D02*
X0038155Y0078800D01*
X0038606Y0078350D01*
X0039507Y0078350D01*
X0039957Y0078800D01*
X0038155Y0080602D01*
X0038606Y0081052D01*
X0039507Y0081052D01*
X0039957Y0080602D01*
X0039957Y0078800D01*
X0041102Y0078800D02*
X0041552Y0078350D01*
X0042453Y0078350D01*
X0042903Y0078800D01*
X0042903Y0079701D02*
X0042003Y0080152D01*
X0041552Y0080152D01*
X0041102Y0079701D01*
X0041102Y0078800D01*
X0042903Y0079701D02*
X0042903Y0081052D01*
X0041102Y0081052D01*
X0044048Y0080602D02*
X0044499Y0081052D01*
X0045400Y0081052D01*
X0045850Y0080602D01*
X0045850Y0078800D01*
X0045400Y0078350D01*
X0044499Y0078350D01*
X0044048Y0078800D01*
X0121031Y0038933D02*
X0122305Y0037659D01*
X0122305Y0039570D01*
X0120394Y0037659D01*
X0122159Y0035894D02*
X0123433Y0034621D01*
X0123433Y0037168D01*
X0123751Y0037487D01*
X0124388Y0037487D01*
X0125025Y0036850D01*
X0125025Y0036213D01*
X0126790Y0035085D02*
X0124880Y0033174D01*
X0125517Y0032537D02*
X0124243Y0033811D01*
X0126790Y0033811D02*
X0126790Y0035085D01*
X0127918Y0033320D02*
X0128555Y0033320D01*
X0129192Y0032683D01*
X0129192Y0032046D01*
X0127918Y0030772D01*
X0127282Y0030772D01*
X0126645Y0031409D01*
X0126645Y0032046D01*
X0134394Y0029659D02*
X0136305Y0031570D01*
X0136305Y0029659D01*
X0135031Y0030933D01*
X0137751Y0029487D02*
X0136478Y0028213D01*
X0136478Y0027576D01*
X0137115Y0026939D01*
X0137751Y0026939D01*
X0137751Y0029487D01*
X0138388Y0029487D01*
X0139025Y0028850D01*
X0139025Y0028213D01*
X0137751Y0026939D01*
X0138243Y0025811D02*
X0139517Y0024537D01*
X0138880Y0025174D02*
X0140790Y0027085D01*
X0140790Y0025811D01*
X0141918Y0025320D02*
X0142555Y0025320D01*
X0143192Y0024683D01*
X0143192Y0024046D01*
X0141918Y0022772D01*
X0141282Y0022772D01*
X0140645Y0023409D01*
X0140645Y0024046D01*
X0140782Y0042772D02*
X0140145Y0043409D01*
X0140145Y0044046D01*
X0139017Y0044537D02*
X0137743Y0045811D01*
X0138380Y0045174D02*
X0140290Y0047085D01*
X0140290Y0045811D01*
X0141418Y0045320D02*
X0142055Y0045320D01*
X0142692Y0044683D01*
X0142692Y0044046D01*
X0141418Y0042772D01*
X0140782Y0042772D01*
X0137251Y0046939D02*
X0136615Y0046939D01*
X0135978Y0047576D01*
X0135978Y0048213D01*
X0137251Y0049487D01*
X0137251Y0046939D01*
X0138525Y0048213D01*
X0138525Y0048850D01*
X0137888Y0049487D01*
X0137251Y0049487D01*
X0136760Y0050615D02*
X0135805Y0049659D01*
X0135486Y0050615D01*
X0135168Y0050933D01*
X0134531Y0050933D01*
X0133894Y0050296D01*
X0133894Y0049659D01*
X0134531Y0049023D01*
X0135168Y0049023D01*
X0136760Y0050615D02*
X0135486Y0051889D01*
X0147478Y0060076D02*
X0148115Y0059439D01*
X0148751Y0059439D01*
X0148751Y0061987D01*
X0147478Y0060713D01*
X0147478Y0060076D01*
X0148751Y0059439D02*
X0150025Y0060713D01*
X0150025Y0061350D01*
X0149388Y0061987D01*
X0148751Y0061987D01*
X0147305Y0062159D02*
X0146350Y0063115D01*
X0145713Y0063115D01*
X0145394Y0062796D01*
X0145394Y0062159D01*
X0146031Y0061523D01*
X0146668Y0061523D01*
X0147305Y0062159D01*
X0147305Y0063433D01*
X0146986Y0064389D01*
X0151894Y0069159D02*
X0152531Y0068523D01*
X0153168Y0068523D01*
X0153805Y0069159D02*
X0153486Y0070115D01*
X0153168Y0070433D01*
X0152531Y0070433D01*
X0151894Y0069796D01*
X0151894Y0069159D01*
X0153805Y0069159D02*
X0154760Y0070115D01*
X0153486Y0071389D01*
X0155251Y0068987D02*
X0155888Y0068987D01*
X0156525Y0068350D01*
X0156525Y0067713D01*
X0155251Y0068987D02*
X0154933Y0068668D01*
X0154933Y0066121D01*
X0153659Y0067394D01*
X0155743Y0065311D02*
X0157017Y0064037D01*
X0156380Y0064674D02*
X0158290Y0066585D01*
X0158290Y0065311D01*
X0159418Y0064820D02*
X0160055Y0064820D01*
X0160692Y0064183D01*
X0160692Y0063546D01*
X0159418Y0062272D01*
X0158782Y0062272D01*
X0158145Y0062909D01*
X0158145Y0063546D01*
X0151790Y0059585D02*
X0149880Y0057674D01*
X0150517Y0057037D02*
X0149243Y0058311D01*
X0151790Y0058311D02*
X0151790Y0059585D01*
X0152918Y0057820D02*
X0153555Y0057820D01*
X0154192Y0057183D01*
X0154192Y0056546D01*
X0152918Y0055272D01*
X0152282Y0055272D01*
X0151645Y0055909D01*
X0151645Y0056546D01*
X0172350Y0053204D02*
X0172668Y0053523D01*
X0172668Y0056070D01*
X0172986Y0056389D01*
X0174260Y0055115D01*
X0174751Y0053987D02*
X0174751Y0051439D01*
X0174115Y0051439D01*
X0173478Y0052076D01*
X0173478Y0052713D01*
X0174751Y0053987D01*
X0175388Y0053987D01*
X0176025Y0053350D01*
X0176025Y0052713D01*
X0174751Y0051439D01*
X0175243Y0050311D02*
X0176517Y0049037D01*
X0175880Y0049674D02*
X0177790Y0051585D01*
X0177790Y0050311D01*
X0178918Y0049820D02*
X0179555Y0049820D01*
X0180192Y0049183D01*
X0180192Y0048546D01*
X0178918Y0047272D01*
X0178282Y0047272D01*
X0177645Y0047909D01*
X0177645Y0048546D01*
X0181709Y0047350D02*
X0183510Y0047350D01*
X0182610Y0047350D02*
X0182610Y0050052D01*
X0183510Y0049152D01*
X0184655Y0049602D02*
X0186457Y0047800D01*
X0186007Y0047350D01*
X0185106Y0047350D01*
X0184655Y0047800D01*
X0184655Y0049602D01*
X0185106Y0050052D01*
X0186007Y0050052D01*
X0186457Y0049602D01*
X0186457Y0047800D01*
X0187602Y0047350D02*
X0189403Y0047350D01*
X0187602Y0049152D01*
X0187602Y0049602D01*
X0188052Y0050052D01*
X0188953Y0050052D01*
X0189403Y0049602D01*
X0190548Y0049602D02*
X0190999Y0050052D01*
X0191900Y0050052D01*
X0192350Y0049602D01*
X0192350Y0047800D01*
X0191900Y0047350D01*
X0190999Y0047350D01*
X0190548Y0047800D01*
X0190999Y0055350D02*
X0190548Y0055800D01*
X0190999Y0055350D02*
X0191900Y0055350D01*
X0192350Y0055800D01*
X0192350Y0057602D01*
X0191900Y0058052D01*
X0190999Y0058052D01*
X0190548Y0057602D01*
X0189403Y0057602D02*
X0188953Y0058052D01*
X0188052Y0058052D01*
X0187602Y0057602D01*
X0187602Y0057152D01*
X0189403Y0055350D01*
X0187602Y0055350D01*
X0186457Y0055800D02*
X0184655Y0057602D01*
X0184655Y0055800D01*
X0185106Y0055350D01*
X0186007Y0055350D01*
X0186457Y0055800D01*
X0186457Y0057602D01*
X0186007Y0058052D01*
X0185106Y0058052D01*
X0184655Y0057602D01*
X0183510Y0057602D02*
X0183060Y0058052D01*
X0182159Y0058052D01*
X0181709Y0057602D01*
X0181709Y0057152D01*
X0183510Y0055350D01*
X0181709Y0055350D01*
X0197155Y0075350D02*
X0198957Y0075350D01*
X0198056Y0075350D02*
X0198056Y0078052D01*
X0198957Y0077152D01*
X0200102Y0077152D02*
X0201903Y0075350D01*
X0200102Y0075350D01*
X0200102Y0077152D02*
X0200102Y0077602D01*
X0200552Y0078052D01*
X0201453Y0078052D01*
X0201903Y0077602D01*
X0203048Y0077602D02*
X0203048Y0076701D01*
X0203499Y0076251D01*
X0204850Y0076251D01*
X0203949Y0076251D02*
X0203048Y0075350D01*
X0204850Y0075350D02*
X0204850Y0078052D01*
X0203499Y0078052D01*
X0203048Y0077602D01*
X0219209Y0068552D02*
X0220110Y0068102D01*
X0221010Y0067201D01*
X0219659Y0067201D01*
X0219209Y0066751D01*
X0219209Y0066300D01*
X0219659Y0065850D01*
X0220560Y0065850D01*
X0221010Y0066300D01*
X0221010Y0067201D01*
X0222155Y0066300D02*
X0222606Y0065850D01*
X0223507Y0065850D01*
X0223957Y0066300D01*
X0222155Y0068102D01*
X0222155Y0066300D01*
X0222155Y0068102D02*
X0222606Y0068552D01*
X0223507Y0068552D01*
X0223957Y0068102D01*
X0223957Y0066300D01*
X0225102Y0065850D02*
X0226903Y0065850D01*
X0225102Y0067652D01*
X0225102Y0068102D01*
X0225552Y0068552D01*
X0226453Y0068552D01*
X0226903Y0068102D01*
X0228048Y0068102D02*
X0228499Y0068552D01*
X0229400Y0068552D01*
X0229850Y0068102D01*
X0229850Y0066300D01*
X0229400Y0065850D01*
X0228499Y0065850D01*
X0228048Y0066300D01*
X0228499Y0060552D02*
X0229400Y0060552D01*
X0229850Y0060102D01*
X0229850Y0058300D01*
X0229400Y0057850D01*
X0228499Y0057850D01*
X0228048Y0058300D01*
X0226903Y0057850D02*
X0225102Y0057850D01*
X0223957Y0058300D02*
X0222155Y0060102D01*
X0222155Y0058300D01*
X0222606Y0057850D01*
X0223507Y0057850D01*
X0223957Y0058300D01*
X0223957Y0060102D01*
X0223507Y0060552D01*
X0222606Y0060552D01*
X0222155Y0060102D01*
X0221010Y0060552D02*
X0221010Y0059201D01*
X0220110Y0059652D01*
X0219659Y0059652D01*
X0219209Y0059201D01*
X0219209Y0058300D01*
X0219659Y0057850D01*
X0220560Y0057850D01*
X0221010Y0058300D01*
X0221010Y0060552D02*
X0219209Y0060552D01*
X0225102Y0060102D02*
X0225102Y0059652D01*
X0226903Y0057850D01*
X0226903Y0060102D02*
X0226453Y0060552D01*
X0225552Y0060552D01*
X0225102Y0060102D01*
X0228048Y0060102D02*
X0228499Y0060552D01*
X0228499Y0051552D02*
X0229400Y0051552D01*
X0229850Y0051102D01*
X0229850Y0049300D01*
X0229400Y0048850D01*
X0228499Y0048850D01*
X0228048Y0049300D01*
X0226903Y0048850D02*
X0225102Y0048850D01*
X0223957Y0049300D02*
X0222155Y0051102D01*
X0222155Y0049300D01*
X0222606Y0048850D01*
X0223507Y0048850D01*
X0223957Y0049300D01*
X0223957Y0051102D01*
X0223507Y0051552D01*
X0222606Y0051552D01*
X0222155Y0051102D01*
X0221010Y0050201D02*
X0219209Y0050201D01*
X0219659Y0048850D02*
X0219659Y0051552D01*
X0221010Y0050201D01*
X0225102Y0050652D02*
X0225102Y0051102D01*
X0225552Y0051552D01*
X0226453Y0051552D01*
X0226903Y0051102D01*
X0228048Y0051102D02*
X0228499Y0051552D01*
X0226903Y0048850D02*
X0225102Y0050652D01*
X0225552Y0043552D02*
X0226453Y0043552D01*
X0226903Y0043102D01*
X0228048Y0043102D02*
X0228499Y0043552D01*
X0229400Y0043552D01*
X0229850Y0043102D01*
X0229850Y0041300D01*
X0229400Y0040850D01*
X0228499Y0040850D01*
X0228048Y0041300D01*
X0226903Y0040850D02*
X0225102Y0042652D01*
X0225102Y0043102D01*
X0225552Y0043552D01*
X0223957Y0043102D02*
X0223507Y0043552D01*
X0222606Y0043552D01*
X0222155Y0043102D01*
X0223957Y0041300D01*
X0223507Y0040850D01*
X0222606Y0040850D01*
X0222155Y0041300D01*
X0222155Y0043102D01*
X0221010Y0043102D02*
X0220560Y0043552D01*
X0219659Y0043552D01*
X0219209Y0043102D01*
X0219209Y0042652D01*
X0219659Y0042201D01*
X0219209Y0041751D01*
X0219209Y0041300D01*
X0219659Y0040850D01*
X0220560Y0040850D01*
X0221010Y0041300D01*
X0220110Y0042201D02*
X0219659Y0042201D01*
X0223957Y0041300D02*
X0223957Y0043102D01*
X0225102Y0040850D02*
X0226903Y0040850D01*
X0171177Y0081031D02*
X0170541Y0080394D01*
X0169904Y0080394D01*
X0169585Y0080713D01*
X0169585Y0081349D01*
X0170541Y0082305D01*
X0171177Y0081668D01*
X0171177Y0081031D01*
X0170541Y0082305D02*
X0169267Y0082305D01*
X0168311Y0081986D01*
X0170713Y0083751D02*
X0170713Y0084388D01*
X0171350Y0085025D01*
X0171987Y0085025D01*
X0170713Y0083751D02*
X0171032Y0083433D01*
X0173579Y0083433D01*
X0172306Y0082159D01*
X0174389Y0084243D02*
X0175663Y0085516D01*
X0175026Y0084880D02*
X0173115Y0086790D01*
X0174389Y0086790D01*
X0174880Y0087918D02*
X0174880Y0088555D01*
X0175517Y0089192D01*
X0176154Y0089192D01*
X0177428Y0087918D01*
X0177428Y0087282D01*
X0176791Y0086645D01*
X0176154Y0086645D01*
X0169663Y0091516D02*
X0168389Y0090243D01*
X0169026Y0090880D02*
X0167115Y0092790D01*
X0168389Y0092790D01*
X0168880Y0093918D02*
X0168880Y0094555D01*
X0169517Y0095192D01*
X0170154Y0095192D01*
X0171428Y0093918D01*
X0171428Y0093282D01*
X0170791Y0092645D01*
X0170154Y0092645D01*
X0167261Y0089751D02*
X0165987Y0091025D01*
X0165350Y0091025D01*
X0164713Y0090388D01*
X0164713Y0089751D01*
X0167261Y0089751D01*
X0167261Y0089114D01*
X0166624Y0088478D01*
X0165987Y0088478D01*
X0164713Y0089751D01*
X0163904Y0088942D02*
X0164222Y0088623D01*
X0164222Y0087986D01*
X0163585Y0087349D01*
X0163585Y0086712D01*
X0163904Y0086394D01*
X0164541Y0086394D01*
X0165177Y0087031D01*
X0165177Y0087668D01*
X0164859Y0087986D01*
X0164222Y0087986D01*
X0163585Y0087349D02*
X0162948Y0087349D01*
X0162630Y0087668D01*
X0162630Y0088305D01*
X0163267Y0088942D01*
X0163904Y0088942D01*
X0215850Y0094350D02*
X0218552Y0094350D01*
X0218552Y0095701D01*
X0218102Y0096152D01*
X0217201Y0096152D01*
X0216751Y0095701D01*
X0216751Y0094350D01*
X0216751Y0095251D02*
X0215850Y0096152D01*
X0215850Y0097297D02*
X0217652Y0099098D01*
X0218102Y0099098D01*
X0218552Y0098648D01*
X0218552Y0097747D01*
X0218102Y0097297D01*
X0215850Y0097297D02*
X0215850Y0099098D01*
X0215850Y0100243D02*
X0217652Y0102045D01*
X0218102Y0102045D01*
X0218552Y0101594D01*
X0218552Y0100693D01*
X0218102Y0100243D01*
X0215850Y0100243D02*
X0215850Y0102045D01*
X0224350Y0102045D02*
X0224350Y0100243D01*
X0226152Y0102045D01*
X0226602Y0102045D01*
X0227052Y0101594D01*
X0227052Y0100693D01*
X0226602Y0100243D01*
X0226602Y0099098D02*
X0226152Y0099098D01*
X0224350Y0097297D01*
X0224350Y0099098D01*
X0226602Y0099098D02*
X0227052Y0098648D01*
X0227052Y0097747D01*
X0226602Y0097297D01*
X0226602Y0096152D02*
X0227052Y0095701D01*
X0227052Y0094800D01*
X0226602Y0094350D01*
X0224800Y0094350D01*
X0224350Y0094800D01*
X0224350Y0095701D01*
X0224800Y0096152D01*
X0232350Y0095701D02*
X0232350Y0094800D01*
X0232800Y0094350D01*
X0234602Y0094350D01*
X0235052Y0094800D01*
X0235052Y0095701D01*
X0234602Y0096152D01*
X0234602Y0097297D02*
X0235052Y0097747D01*
X0235052Y0098648D01*
X0234602Y0099098D01*
X0234152Y0099098D01*
X0232350Y0097297D01*
X0232350Y0099098D01*
X0232350Y0100243D02*
X0232350Y0102045D01*
X0232350Y0101144D02*
X0235052Y0101144D01*
X0234152Y0100243D01*
X0232800Y0096152D02*
X0232350Y0095701D01*
X0196400Y0136850D02*
X0195499Y0136850D01*
X0195048Y0137300D01*
X0196400Y0136850D02*
X0196850Y0137300D01*
X0196850Y0139102D01*
X0196400Y0139552D01*
X0195499Y0139552D01*
X0195048Y0139102D01*
X0193903Y0138201D02*
X0192552Y0139552D01*
X0192552Y0136850D01*
X0192102Y0138201D02*
X0193903Y0138201D01*
X0190957Y0137300D02*
X0189155Y0139102D01*
X0189155Y0137300D01*
X0189606Y0136850D01*
X0190507Y0136850D01*
X0190957Y0137300D01*
X0190957Y0139102D01*
X0190507Y0139552D01*
X0189606Y0139552D01*
X0189155Y0139102D01*
X0188010Y0138652D02*
X0187110Y0139552D01*
X0187110Y0136850D01*
X0188010Y0136850D02*
X0186209Y0136850D01*
X0142428Y0142282D02*
X0141791Y0141645D01*
X0141154Y0141645D01*
X0140663Y0140516D02*
X0139389Y0139243D01*
X0140026Y0139880D02*
X0138115Y0141790D01*
X0139389Y0141790D01*
X0139880Y0142918D02*
X0139880Y0143555D01*
X0140517Y0144192D01*
X0141154Y0144192D01*
X0142428Y0142918D01*
X0142428Y0142282D01*
X0137624Y0139388D02*
X0136350Y0138114D01*
X0137624Y0137478D02*
X0135713Y0139388D01*
X0137624Y0139388D01*
X0134904Y0137942D02*
X0134267Y0137942D01*
X0133630Y0137305D01*
X0133630Y0136668D01*
X0133948Y0136349D01*
X0136496Y0136349D01*
X0135222Y0135076D01*
X0014350Y0030552D02*
X0012999Y0030552D01*
X0012548Y0030102D01*
X0012548Y0029201D01*
X0012999Y0028751D01*
X0014350Y0028751D01*
X0013449Y0028751D02*
X0012548Y0027850D01*
X0011403Y0027850D02*
X0009602Y0027850D01*
X0010503Y0027850D02*
X0010503Y0030552D01*
X0011403Y0029652D01*
X0008457Y0029652D02*
X0007556Y0030552D01*
X0007556Y0027850D01*
X0008457Y0027850D02*
X0006655Y0027850D01*
X0014350Y0027850D02*
X0014350Y0030552D01*
X0014350Y0020552D02*
X0012999Y0020552D01*
X0012548Y0020102D01*
X0012548Y0019201D01*
X0012999Y0018751D01*
X0014350Y0018751D01*
X0013449Y0018751D02*
X0012548Y0017850D01*
X0011403Y0017850D02*
X0009602Y0017850D01*
X0010503Y0017850D02*
X0010503Y0020552D01*
X0011403Y0019652D01*
X0008457Y0020102D02*
X0008007Y0020552D01*
X0007106Y0020552D01*
X0006655Y0020102D01*
X0006655Y0019652D01*
X0008457Y0017850D01*
X0006655Y0017850D01*
X0014350Y0017850D02*
X0014350Y0020552D01*
X0021341Y0008353D02*
X0020757Y0007769D01*
X0020757Y0007185D01*
X0021341Y0006601D01*
X0020757Y0006018D01*
X0021341Y0006601D02*
X0021925Y0006601D01*
X0023093Y0007769D02*
X0022509Y0008353D01*
X0021341Y0008353D01*
X0035490Y0008353D02*
X0035490Y0007769D01*
X0035490Y0008353D02*
X0037825Y0008353D01*
D12*
X0011850Y0013037D02*
X0009350Y0013037D01*
X0009350Y0016162D02*
X0011850Y0016162D01*
X0011850Y0023037D02*
X0009350Y0023037D01*
X0009350Y0026162D02*
X0011850Y0026162D01*
X0040350Y0044537D02*
X0042850Y0044537D01*
X0042850Y0047662D02*
X0040350Y0047662D01*
X0040350Y0052537D02*
X0042850Y0052537D01*
X0042850Y0055662D02*
X0040350Y0055662D01*
X0040350Y0060537D02*
X0042850Y0060537D01*
X0042850Y0063662D02*
X0040350Y0063662D01*
X0033746Y0066277D02*
X0033746Y0053710D01*
X0014454Y0053710D01*
X0014454Y0066277D01*
X0033746Y0066277D01*
X0040350Y0073038D02*
X0042850Y0073038D01*
X0042850Y0076163D02*
X0040350Y0076163D01*
X0063350Y0060662D02*
X0065850Y0060662D01*
X0065850Y0057537D02*
X0063350Y0057537D01*
X0084611Y0076379D02*
X0086379Y0074611D01*
X0088589Y0076821D02*
X0086821Y0078589D01*
X0090711Y0082379D02*
X0092479Y0080611D01*
X0094689Y0082821D02*
X0092921Y0084589D01*
X0097611Y0089379D02*
X0099379Y0087611D01*
X0101589Y0089821D02*
X0099821Y0091589D01*
X0127821Y0108611D02*
X0129589Y0110379D01*
X0127379Y0112589D02*
X0125611Y0110821D01*
X0138611Y0098321D02*
X0140379Y0100089D01*
X0142589Y0097879D02*
X0140821Y0096111D01*
X0155111Y0081321D02*
X0156879Y0083089D01*
X0159089Y0080879D02*
X0157321Y0079111D01*
X0161111Y0075321D02*
X0162879Y0077089D01*
X0165089Y0074879D02*
X0163321Y0073111D01*
X0155089Y0063321D02*
X0153321Y0065089D01*
X0151111Y0062879D02*
X0152879Y0061111D01*
X0148589Y0056821D02*
X0146821Y0058589D01*
X0144611Y0056379D02*
X0146379Y0054611D01*
X0136089Y0044321D02*
X0134321Y0046089D01*
X0132111Y0043879D02*
X0133879Y0042111D01*
X0130589Y0038821D02*
X0128821Y0040589D01*
X0126611Y0038379D02*
X0128379Y0036611D01*
X0135821Y0025589D02*
X0137589Y0023821D01*
X0135379Y0021611D02*
X0133611Y0023379D01*
X0130350Y0010663D02*
X0127850Y0010663D01*
X0127850Y0007537D02*
X0130350Y0007537D01*
X0109089Y0010879D02*
X0107321Y0009111D01*
X0105111Y0011321D02*
X0106879Y0013089D01*
X0101589Y0018379D02*
X0099821Y0016611D01*
X0097611Y0018821D02*
X0099379Y0020589D01*
X0096089Y0023879D02*
X0094321Y0022111D01*
X0092111Y0024321D02*
X0093879Y0026089D01*
X0084589Y0035379D02*
X0082821Y0033611D01*
X0080611Y0035821D02*
X0082379Y0037589D01*
X0077850Y0016162D02*
X0075350Y0016162D01*
X0075350Y0013037D02*
X0077850Y0013037D01*
X0033746Y0050923D02*
X0014454Y0050923D01*
X0014454Y0053710D01*
X0012803Y0063900D02*
X0009967Y0063900D01*
X0009400Y0064467D01*
X0009400Y0065601D01*
X0009967Y0066169D01*
X0012803Y0066169D01*
X0012803Y0067583D02*
X0011101Y0067583D01*
X0011669Y0068717D01*
X0011669Y0069285D01*
X0011101Y0069852D01*
X0009967Y0069852D01*
X0009400Y0069285D01*
X0009400Y0068150D01*
X0009967Y0067583D01*
X0012803Y0067583D02*
X0012803Y0069852D01*
X0033746Y0053710D02*
X0033746Y0050923D01*
X0088879Y0117111D02*
X0087111Y0118879D01*
X0089321Y0121089D02*
X0091089Y0119321D01*
X0094379Y0122611D02*
X0092611Y0124379D01*
X0094821Y0126589D02*
X0096589Y0124821D01*
X0099879Y0128111D02*
X0098111Y0129879D01*
X0100321Y0132089D02*
X0102089Y0130321D01*
X0107915Y0136076D02*
X0106147Y0137843D01*
X0108357Y0140053D02*
X0110124Y0138285D01*
X0139611Y0136821D02*
X0141379Y0138589D01*
X0143589Y0136379D02*
X0141821Y0134611D01*
X0190350Y0141538D02*
X0192850Y0141538D01*
X0192850Y0144663D02*
X0190350Y0144663D01*
X0216037Y0088850D02*
X0216037Y0086350D01*
X0219162Y0086350D02*
X0219162Y0088850D01*
X0224037Y0088850D02*
X0224037Y0086350D01*
X0227162Y0086350D02*
X0227162Y0088850D01*
X0232037Y0088850D02*
X0232037Y0086350D01*
X0235162Y0086350D02*
X0235162Y0088850D01*
X0212850Y0078163D02*
X0210350Y0078163D01*
X0210350Y0075038D02*
X0212850Y0075038D01*
X0213850Y0069163D02*
X0211350Y0069163D01*
X0211350Y0066038D02*
X0213850Y0066038D01*
X0213850Y0061162D02*
X0211350Y0061162D01*
X0211350Y0058037D02*
X0213850Y0058037D01*
X0213850Y0052162D02*
X0211350Y0052162D01*
X0211350Y0049037D02*
X0213850Y0049037D01*
X0213850Y0044162D02*
X0211350Y0044162D01*
X0211350Y0041038D02*
X0213850Y0041038D01*
X0199350Y0047037D02*
X0196850Y0047037D01*
X0196850Y0050162D02*
X0199350Y0050162D01*
X0199350Y0055037D02*
X0196850Y0055037D01*
X0196850Y0058162D02*
X0199350Y0058162D01*
X0176089Y0046821D02*
X0174321Y0048589D01*
X0172111Y0046379D02*
X0173879Y0044611D01*
X0042600Y0124100D02*
X0039600Y0124100D01*
X0039600Y0129100D02*
X0042600Y0129100D01*
M02*
