%
M48
M72
T01C0.0157
T02C0.0197
T03C0.0236
T04C0.0394
T05C0.1260
%
T01
X7110Y5910
X10410Y2310
X13310Y3410
X15760Y5860
X16710Y7910
X13210Y11510
X8860Y8660
X10510Y12310
X11460Y13310
X9860Y7310
X12560Y2310
X9360Y11460
X9910Y12010
X9510Y9410
X8210Y8110
X8710Y4010
X9860Y2860
X14010Y1910
X15060Y5160
X13860Y3960
X16960Y5110
X14510Y10260
X16160Y8560
X3510Y7460
X5060Y5860
X5760Y4310
X16160Y11960
X12973Y12010
X11360Y1760
X13660Y13160
X14060Y10660
X8010Y960
X11810Y1460
X12410Y8110
X11710Y7410
X12410Y6710
X13110Y7410
X12060Y7760
X12060Y7060
X12760Y7060
X12760Y7760
X5460Y6710
X14910Y14410
X9910Y510
X9410Y3410
X18810Y4060
X14610Y6960
X15660Y9010
X12160Y11510
X8060Y11810
X9060Y13810
X12360Y13460
X5860Y14160
X16410Y12910
X18910Y9860
X22910Y9760
X23910Y7160
X18660Y7160
X21910Y510
X13410Y10410
X14910Y8910
X7910Y1960
X21760Y2360
X17810Y9260
X910Y10910
X12410Y8810
X12060Y8460
X11710Y8110
X11360Y7760
X11010Y7410
X11360Y7060
X11710Y6710
X12060Y6360
X12410Y6010
X12760Y6360
X13110Y6710
X13460Y7060
X12760Y8460
X13110Y8110
X13460Y7760
X13810Y7410
X14660Y13160
X6660Y9960
X20160Y6410
X16160Y4535
X16710Y10560
X8960Y11060
X8760Y5860
X10860Y10860
X7760Y7860
X14810Y11760
X19510Y4560
X21560Y5710
X21160Y9110
X19410Y12160
X18510Y14310
X21560Y5310
X21160Y8410
X22060Y7860
X22560Y7660
X7610Y2460
X9560Y5060
X6510Y4860
X2360Y5660
X9160Y5360
X5910Y7110
X3160Y5560
X22410Y7160
X10360Y4960
X4160Y9160
X24460Y1410
X2510Y10660
X23160Y1410
X1910Y10660
X21860Y1410
X2510Y10010
X10760Y3910
X2760Y3660
X11160Y3510
X5960Y4960
T02
X8510Y11610
X7910Y11010
X4910Y14710
X4360Y14160
X4360Y13610
X4910Y11660
X4360Y11660
X4910Y11110
X4360Y11110
X25110Y1860
X23810Y1860
X24460Y1860
X4360Y14710
X4910Y13610
X5460Y11110
X5460Y11660
X4910Y14160
X9160Y14510
X9660Y14510
X5860Y12460
X2660Y11660
X2160Y12160
X2160Y11160
X3160Y11160
X3160Y12160
X1710Y5660
X1560Y3660
X960Y3660
X7110Y3660
X22860Y5560
X25160Y6910
X25160Y6160
X24160Y4910
X21510Y12760
X22260Y12510
X24960Y10760
X23360Y12260
X21860Y10960
X2160Y3660
X22960Y4560
X910Y5660
X1660Y14160
X23410Y10960
X24360Y3360
X22510Y3710
X22860Y3360
X23610Y3360
X6660Y11660
X6160Y11160
T03
X12410Y7410
T04
X2360Y1460
X2360Y2460
X3360Y1460
X3360Y2460
X4360Y1460
X4360Y2460
X5360Y1460
X5360Y2460
X6360Y1460
X6360Y2460
T05
X16260Y1360
M30
