G75*
%MOIN*%
%OFA0B0*%
%FSLAX25Y25*%
%IPPOS*%
%LPD*%
%AMOC8*
5,1,8,0,0,1.08239X$1,22.5*
%
%ADD10C,0.00000*%
%ADD11C,0.00800*%
%ADD12R,0.05118X0.05906*%
%ADD13R,0.04331X0.03937*%
%ADD14R,0.03937X0.04331*%
%ADD15C,0.05937*%
%ADD16R,0.02500X0.08500*%
%ADD17C,0.01000*%
%ADD18C,0.02775*%
%ADD19C,0.03169*%
%ADD20C,0.03200*%
%ADD21C,0.01200*%
%ADD22C,0.01600*%
%ADD23C,0.21654*%
%ADD24C,0.03562*%
D10*
X0003100Y0006842D02*
X0008100Y0001842D01*
X0226100Y0001842D01*
X0230100Y0005842D01*
X0234100Y0005842D01*
X0238100Y0001842D01*
X0239600Y0001842D01*
X0243600Y0005842D01*
X0247100Y0005842D01*
X0251100Y0001842D01*
X0252100Y0001842D01*
X0257100Y0006842D01*
X0257100Y0106842D01*
X0237600Y0126342D01*
X0237600Y0147842D01*
X0235100Y0150342D01*
X0015600Y0150342D01*
X0003100Y0137842D01*
X0003100Y0006842D01*
D11*
X0013946Y0012496D02*
X0018600Y0007842D01*
X0036600Y0007842D01*
X0043600Y0014842D01*
X0048100Y0019342D01*
X0070600Y0019342D01*
X0076100Y0024842D01*
X0073254Y0014842D02*
X0063600Y0014842D01*
X0059100Y0036842D02*
X0027600Y0036842D01*
X0028600Y0039842D02*
X0036100Y0039842D01*
X0038254Y0041996D01*
X0038254Y0046342D01*
X0040100Y0050342D02*
X0038254Y0052189D01*
X0038254Y0054342D01*
X0038254Y0056689D01*
X0036100Y0058842D01*
X0029600Y0058842D01*
X0021600Y0050842D01*
X0021600Y0046142D01*
X0026600Y0046142D02*
X0026600Y0041842D01*
X0028600Y0039842D01*
X0031600Y0046142D02*
X0031600Y0055842D01*
X0028600Y0062342D02*
X0026600Y0064342D01*
X0026600Y0071542D01*
X0021600Y0071542D02*
X0021600Y0058842D01*
X0023600Y0056842D01*
X0028600Y0062342D02*
X0038254Y0062342D01*
X0038254Y0064496D01*
X0040100Y0066342D01*
X0048100Y0066342D01*
X0053600Y0060842D01*
X0053600Y0057842D01*
X0055600Y0055842D01*
X0069600Y0055842D01*
X0071600Y0053842D01*
X0091600Y0053842D01*
X0095600Y0050842D02*
X0071600Y0050842D01*
X0068600Y0053842D01*
X0053600Y0053842D01*
X0050100Y0050342D01*
X0040100Y0050342D01*
X0044946Y0046342D02*
X0062600Y0046342D01*
X0065100Y0048842D01*
X0066600Y0051842D02*
X0061600Y0051842D01*
X0059600Y0049842D01*
X0066600Y0051842D02*
X0069600Y0048842D01*
X0091600Y0048842D01*
X0097600Y0042842D01*
X0109600Y0042842D01*
X0111600Y0040842D01*
X0111600Y0035342D01*
X0107600Y0039342D02*
X0097100Y0039342D01*
X0090100Y0046342D01*
X0068600Y0046342D01*
X0059100Y0036842D01*
X0049100Y0054342D02*
X0044946Y0054342D01*
X0049100Y0054342D02*
X0050600Y0055842D01*
X0050600Y0058842D01*
X0050600Y0060842D01*
X0049100Y0062342D01*
X0044946Y0062342D01*
X0059100Y0071342D02*
X0050600Y0079842D01*
X0019600Y0079842D01*
X0016600Y0076842D01*
X0016600Y0071542D01*
X0041600Y0091842D02*
X0050100Y0091842D01*
X0080100Y0061842D01*
X0094600Y0061842D01*
X0103600Y0052842D01*
X0103600Y0049842D01*
X0106600Y0052842D02*
X0137100Y0052842D01*
X0156100Y0033842D01*
X0208600Y0033842D01*
X0218600Y0023842D01*
X0218600Y0014342D01*
X0208601Y0010445D02*
X0207000Y0008844D01*
X0209135Y0008844D01*
X0208601Y0010445D02*
X0208601Y0007242D01*
X0231600Y0014342D02*
X0210100Y0035842D01*
X0157100Y0035842D01*
X0138100Y0054842D01*
X0107600Y0054842D01*
X0096600Y0065842D01*
X0083100Y0065842D01*
X0052100Y0096842D01*
X0033600Y0096842D01*
X0027100Y0103342D01*
X0022600Y0103342D01*
X0019100Y0106842D01*
X0025100Y0106842D02*
X0027600Y0106842D01*
X0035600Y0098842D01*
X0053100Y0098842D01*
X0084100Y0067842D01*
X0097600Y0067842D01*
X0108600Y0056842D01*
X0139100Y0056842D01*
X0158100Y0037842D01*
X0212600Y0037842D01*
X0236100Y0014342D01*
X0244600Y0014342D01*
X0226600Y0071842D02*
X0224100Y0071842D01*
X0226600Y0071842D02*
X0233600Y0078842D01*
X0233600Y0084496D01*
X0225600Y0084496D02*
X0225600Y0076842D01*
X0217600Y0084496D02*
X0215254Y0084496D01*
X0214958Y0084496D01*
X0106600Y0052842D02*
X0095600Y0063842D01*
X0082100Y0063842D01*
X0051100Y0094842D01*
X0030600Y0094842D01*
X0025100Y0100342D01*
X0088600Y0086842D02*
X0090334Y0085209D01*
X0105100Y0123342D02*
X0105100Y0125342D01*
X0102466Y0127976D01*
X0013946Y0024842D02*
X0014100Y0024689D01*
X0014100Y0021842D01*
X0015600Y0020342D01*
X0018100Y0020342D01*
X0023600Y0014842D01*
X0013946Y0014842D02*
X0013946Y0012496D01*
D12*
X0037360Y0126842D03*
X0044840Y0126842D03*
D13*
G36*
X0086595Y0124631D02*
X0089656Y0121570D01*
X0086873Y0118787D01*
X0083812Y0121848D01*
X0086595Y0124631D01*
G37*
G36*
X0092095Y0130131D02*
X0095156Y0127070D01*
X0092373Y0124287D01*
X0089312Y0127348D01*
X0092095Y0130131D01*
G37*
G36*
X0097595Y0135631D02*
X0100656Y0132570D01*
X0097873Y0129787D01*
X0094812Y0132848D01*
X0097595Y0135631D01*
G37*
G36*
X0105630Y0143595D02*
X0108691Y0140534D01*
X0105908Y0137751D01*
X0102847Y0140812D01*
X0105630Y0143595D01*
G37*
G36*
X0110363Y0138863D02*
X0113424Y0135802D01*
X0110641Y0133019D01*
X0107580Y0136080D01*
X0110363Y0138863D01*
G37*
G36*
X0102327Y0130898D02*
X0105388Y0127837D01*
X0102605Y0125054D01*
X0099544Y0128115D01*
X0102327Y0130898D01*
G37*
G36*
X0096827Y0125398D02*
X0099888Y0122337D01*
X0097105Y0119554D01*
X0094044Y0122615D01*
X0096827Y0125398D01*
G37*
G36*
X0091327Y0119898D02*
X0094388Y0116837D01*
X0091605Y0114054D01*
X0088544Y0117115D01*
X0091327Y0119898D01*
G37*
G36*
X0122312Y0108337D02*
X0125373Y0111398D01*
X0128156Y0108615D01*
X0125095Y0105554D01*
X0122312Y0108337D01*
G37*
G36*
X0127044Y0113070D02*
X0130105Y0116131D01*
X0132888Y0113348D01*
X0129827Y0110287D01*
X0127044Y0113070D01*
G37*
G36*
X0140044Y0100570D02*
X0143105Y0103631D01*
X0145888Y0100848D01*
X0142827Y0097787D01*
X0140044Y0100570D01*
G37*
G36*
X0135312Y0095837D02*
X0138373Y0098898D01*
X0141156Y0096115D01*
X0138095Y0093054D01*
X0135312Y0095837D01*
G37*
G36*
X0156544Y0083570D02*
X0159605Y0086631D01*
X0162388Y0083848D01*
X0159327Y0080787D01*
X0156544Y0083570D01*
G37*
G36*
X0151812Y0078837D02*
X0154873Y0081898D01*
X0157656Y0079115D01*
X0154595Y0076054D01*
X0151812Y0078837D01*
G37*
G36*
X0157812Y0072837D02*
X0160873Y0075898D01*
X0163656Y0073115D01*
X0160595Y0070054D01*
X0157812Y0072837D01*
G37*
G36*
X0162544Y0077570D02*
X0165605Y0080631D01*
X0168388Y0077848D01*
X0165327Y0074787D01*
X0162544Y0077570D01*
G37*
G36*
X0150595Y0068631D02*
X0153656Y0065570D01*
X0150873Y0062787D01*
X0147812Y0065848D01*
X0150595Y0068631D01*
G37*
G36*
X0155327Y0063898D02*
X0158388Y0060837D01*
X0155605Y0058054D01*
X0152544Y0061115D01*
X0155327Y0063898D01*
G37*
G36*
X0144095Y0062131D02*
X0147156Y0059070D01*
X0144373Y0056287D01*
X0141312Y0059348D01*
X0144095Y0062131D01*
G37*
G36*
X0148827Y0057398D02*
X0151888Y0054337D01*
X0149105Y0051554D01*
X0146044Y0054615D01*
X0148827Y0057398D01*
G37*
G36*
X0131595Y0049631D02*
X0134656Y0046570D01*
X0131873Y0043787D01*
X0128812Y0046848D01*
X0131595Y0049631D01*
G37*
G36*
X0136327Y0044898D02*
X0139388Y0041837D01*
X0136605Y0039054D01*
X0133544Y0042115D01*
X0136327Y0044898D01*
G37*
G36*
X0126095Y0044131D02*
X0129156Y0041070D01*
X0126373Y0038287D01*
X0123312Y0041348D01*
X0126095Y0044131D01*
G37*
G36*
X0130827Y0039398D02*
X0133888Y0036337D01*
X0131105Y0033554D01*
X0128044Y0036615D01*
X0130827Y0039398D01*
G37*
G36*
X0133095Y0029131D02*
X0136156Y0026070D01*
X0133373Y0023287D01*
X0130312Y0026348D01*
X0133095Y0029131D01*
G37*
G36*
X0137827Y0024398D02*
X0140888Y0021337D01*
X0138105Y0018554D01*
X0135044Y0021615D01*
X0137827Y0024398D01*
G37*
G36*
X0126873Y0016787D02*
X0123812Y0019848D01*
X0126595Y0022631D01*
X0129656Y0019570D01*
X0126873Y0016787D01*
G37*
G36*
X0131605Y0012054D02*
X0128544Y0015115D01*
X0131327Y0017898D01*
X0134388Y0014837D01*
X0131605Y0012054D01*
G37*
G36*
X0106544Y0013570D02*
X0109605Y0016631D01*
X0112388Y0013848D01*
X0109327Y0010787D01*
X0106544Y0013570D01*
G37*
G36*
X0101812Y0008837D02*
X0104873Y0011898D01*
X0107656Y0009115D01*
X0104595Y0006054D01*
X0101812Y0008837D01*
G37*
G36*
X0094312Y0016337D02*
X0097373Y0019398D01*
X0100156Y0016615D01*
X0097095Y0013554D01*
X0094312Y0016337D01*
G37*
G36*
X0099044Y0021070D02*
X0102105Y0024131D01*
X0104888Y0021348D01*
X0101827Y0018287D01*
X0099044Y0021070D01*
G37*
G36*
X0088812Y0021837D02*
X0091873Y0024898D01*
X0094656Y0022115D01*
X0091595Y0019054D01*
X0088812Y0021837D01*
G37*
G36*
X0093544Y0026570D02*
X0096605Y0029631D01*
X0099388Y0026848D01*
X0096327Y0023787D01*
X0093544Y0026570D01*
G37*
G36*
X0077312Y0033337D02*
X0080373Y0036398D01*
X0083156Y0033615D01*
X0080095Y0030554D01*
X0077312Y0033337D01*
G37*
G36*
X0082044Y0038070D02*
X0085105Y0041131D01*
X0087888Y0038348D01*
X0084827Y0035287D01*
X0082044Y0038070D01*
G37*
X0067946Y0059342D03*
X0061254Y0059342D03*
X0044946Y0074842D03*
X0038254Y0074842D03*
G36*
X0084373Y0076287D02*
X0081312Y0079348D01*
X0084095Y0082131D01*
X0087156Y0079070D01*
X0084373Y0076287D01*
G37*
G36*
X0089105Y0071554D02*
X0086044Y0074615D01*
X0088827Y0077398D01*
X0091888Y0074337D01*
X0089105Y0071554D01*
G37*
G36*
X0095205Y0077554D02*
X0092144Y0080615D01*
X0094927Y0083398D01*
X0097988Y0080337D01*
X0095205Y0077554D01*
G37*
G36*
X0090473Y0082287D02*
X0087412Y0085348D01*
X0090195Y0088131D01*
X0093256Y0085070D01*
X0090473Y0082287D01*
G37*
G36*
X0102105Y0084554D02*
X0099044Y0087615D01*
X0101827Y0090398D01*
X0104888Y0087337D01*
X0102105Y0084554D01*
G37*
G36*
X0097373Y0089287D02*
X0094312Y0092348D01*
X0097095Y0095131D01*
X0100156Y0092070D01*
X0097373Y0089287D01*
G37*
G36*
X0142156Y0134615D02*
X0139095Y0131554D01*
X0136312Y0134337D01*
X0139373Y0137398D01*
X0142156Y0134615D01*
G37*
G36*
X0146888Y0139348D02*
X0143827Y0136287D01*
X0141044Y0139070D01*
X0144105Y0142131D01*
X0146888Y0139348D01*
G37*
X0188254Y0143342D03*
X0194946Y0143342D03*
X0217600Y0091189D03*
X0217600Y0084496D03*
X0215946Y0067842D03*
X0209254Y0067842D03*
X0209254Y0059842D03*
X0215946Y0059842D03*
X0215946Y0050842D03*
X0209254Y0050842D03*
X0201446Y0048842D03*
X0194754Y0048842D03*
X0194754Y0056842D03*
X0201446Y0056842D03*
G36*
X0176605Y0041554D02*
X0173544Y0044615D01*
X0176327Y0047398D01*
X0179388Y0044337D01*
X0176605Y0041554D01*
G37*
G36*
X0171873Y0046287D02*
X0168812Y0049348D01*
X0171595Y0052131D01*
X0174656Y0049070D01*
X0171873Y0046287D01*
G37*
X0209254Y0042842D03*
X0215946Y0042842D03*
D14*
X0225600Y0084496D03*
X0233600Y0084496D03*
X0233600Y0091189D03*
X0225600Y0091189D03*
X0079946Y0014842D03*
X0073254Y0014842D03*
X0044946Y0046342D03*
X0038254Y0046342D03*
X0038254Y0054342D03*
X0044946Y0054342D03*
X0044946Y0062342D03*
X0038254Y0062342D03*
X0013946Y0024842D03*
X0007254Y0024842D03*
X0007254Y0014842D03*
X0013946Y0014842D03*
D15*
X0023600Y0014842D03*
X0033600Y0014842D03*
X0043600Y0014842D03*
X0053600Y0014842D03*
X0063600Y0014842D03*
X0063600Y0024842D03*
X0053600Y0024842D03*
X0043600Y0024842D03*
X0033600Y0024842D03*
X0023600Y0024842D03*
D16*
X0021600Y0046142D03*
X0016600Y0046142D03*
X0026600Y0046142D03*
X0031600Y0046142D03*
X0031600Y0071542D03*
X0026600Y0071542D03*
X0021600Y0071542D03*
X0016600Y0071542D03*
D17*
X0014063Y0071738D02*
X0004387Y0071738D01*
X0004387Y0070740D02*
X0014063Y0070740D01*
X0014063Y0069741D02*
X0004387Y0069741D01*
X0004387Y0068743D02*
X0014063Y0068743D01*
X0014063Y0067744D02*
X0004387Y0067744D01*
X0004387Y0066746D02*
X0014076Y0066746D01*
X0014063Y0066759D02*
X0014817Y0066005D01*
X0018383Y0066005D01*
X0019100Y0066722D01*
X0019817Y0066005D01*
X0019913Y0066005D01*
X0019913Y0058144D01*
X0020925Y0057131D01*
X0020925Y0056310D01*
X0021332Y0055327D01*
X0022085Y0054575D01*
X0022694Y0054323D01*
X0020901Y0052530D01*
X0020051Y0051680D01*
X0019817Y0051680D01*
X0019197Y0051060D01*
X0019050Y0051313D01*
X0018771Y0051593D01*
X0018429Y0051790D01*
X0018047Y0051892D01*
X0016725Y0051892D01*
X0016725Y0046268D01*
X0016475Y0046268D01*
X0016475Y0051892D01*
X0015153Y0051892D01*
X0014771Y0051790D01*
X0014429Y0051593D01*
X0014150Y0051313D01*
X0013952Y0050971D01*
X0013850Y0050590D01*
X0013850Y0046267D01*
X0016475Y0046267D01*
X0016475Y0046017D01*
X0016725Y0046017D01*
X0016725Y0040392D01*
X0018047Y0040392D01*
X0018429Y0040495D01*
X0018771Y0040692D01*
X0019050Y0040971D01*
X0019197Y0041225D01*
X0019817Y0040605D01*
X0023383Y0040605D01*
X0024100Y0041322D01*
X0024817Y0040605D01*
X0025451Y0040605D01*
X0025901Y0040155D01*
X0026694Y0039362D01*
X0026085Y0039110D01*
X0025332Y0038358D01*
X0024925Y0037375D01*
X0024925Y0036310D01*
X0025332Y0035327D01*
X0026085Y0034575D01*
X0027068Y0034168D01*
X0028132Y0034168D01*
X0029115Y0034575D01*
X0029695Y0035155D01*
X0059799Y0035155D01*
X0060787Y0036144D01*
X0069299Y0044655D01*
X0089401Y0044655D01*
X0095413Y0038644D01*
X0095413Y0038644D01*
X0096401Y0037655D01*
X0105505Y0037655D01*
X0106085Y0037075D01*
X0107068Y0036668D01*
X0108132Y0036668D01*
X0109115Y0037075D01*
X0109868Y0037827D01*
X0109913Y0037936D01*
X0109913Y0037438D01*
X0109332Y0036858D01*
X0108925Y0035875D01*
X0108925Y0034810D01*
X0109332Y0033827D01*
X0110085Y0033075D01*
X0111068Y0032668D01*
X0112132Y0032668D01*
X0113115Y0033075D01*
X0113868Y0033827D01*
X0114275Y0034810D01*
X0114275Y0035875D01*
X0113868Y0036858D01*
X0113287Y0037438D01*
X0113287Y0041541D01*
X0110299Y0044530D01*
X0098299Y0044530D01*
X0094373Y0048455D01*
X0095068Y0048168D01*
X0096132Y0048168D01*
X0097115Y0048575D01*
X0097868Y0049327D01*
X0098275Y0050310D01*
X0098275Y0051375D01*
X0097868Y0052358D01*
X0097115Y0053110D01*
X0096132Y0053517D01*
X0095068Y0053517D01*
X0094214Y0053164D01*
X0094275Y0053310D01*
X0094275Y0054375D01*
X0093868Y0055358D01*
X0093115Y0056110D01*
X0092132Y0056517D01*
X0091068Y0056517D01*
X0090085Y0056110D01*
X0089505Y0055530D01*
X0072299Y0055530D01*
X0071194Y0056635D01*
X0071226Y0056668D01*
X0071632Y0056668D01*
X0072615Y0057075D01*
X0073368Y0057827D01*
X0073775Y0058810D01*
X0073775Y0059875D01*
X0073368Y0060858D01*
X0072615Y0061610D01*
X0071632Y0062017D01*
X0071226Y0062017D01*
X0070645Y0062598D01*
X0065248Y0062598D01*
X0064715Y0062066D01*
X0064619Y0062232D01*
X0064340Y0062511D01*
X0063998Y0062709D01*
X0063616Y0062811D01*
X0061738Y0062811D01*
X0061738Y0059827D01*
X0060769Y0059827D01*
X0060769Y0058858D01*
X0057588Y0058858D01*
X0057588Y0057530D01*
X0056299Y0057530D01*
X0055287Y0058541D01*
X0055287Y0061541D01*
X0049787Y0067041D01*
X0048799Y0068030D01*
X0039401Y0068030D01*
X0037166Y0065795D01*
X0035752Y0065795D01*
X0034998Y0065041D01*
X0034998Y0064030D01*
X0029299Y0064030D01*
X0028287Y0065041D01*
X0028287Y0066005D01*
X0028383Y0066005D01*
X0029100Y0066722D01*
X0029817Y0066005D01*
X0033383Y0066005D01*
X0034137Y0066759D01*
X0034137Y0071552D01*
X0034753Y0072168D01*
X0034974Y0072168D01*
X0035555Y0071587D01*
X0040952Y0071587D01*
X0041485Y0072119D01*
X0041581Y0071953D01*
X0041860Y0071674D01*
X0042202Y0071476D01*
X0042584Y0071374D01*
X0044462Y0071374D01*
X0044462Y0074358D01*
X0045431Y0074358D01*
X0045431Y0075327D01*
X0048612Y0075327D01*
X0048612Y0077008D01*
X0048510Y0077390D01*
X0048312Y0077732D01*
X0048033Y0078011D01*
X0047784Y0078155D01*
X0049901Y0078155D01*
X0056425Y0071631D01*
X0056425Y0070810D01*
X0056832Y0069827D01*
X0057585Y0069075D01*
X0058568Y0068668D01*
X0059632Y0068668D01*
X0060615Y0069075D01*
X0061368Y0069827D01*
X0061775Y0070810D01*
X0061775Y0071875D01*
X0061368Y0072858D01*
X0060615Y0073610D01*
X0059632Y0074017D01*
X0058812Y0074017D01*
X0051299Y0081530D01*
X0018901Y0081530D01*
X0017913Y0080541D01*
X0015901Y0078530D01*
X0014913Y0077541D01*
X0014913Y0077080D01*
X0014817Y0077080D01*
X0014063Y0076326D01*
X0014063Y0066759D01*
X0019913Y0065747D02*
X0004387Y0065747D01*
X0004387Y0064749D02*
X0019913Y0064749D01*
X0019913Y0063750D02*
X0004387Y0063750D01*
X0004387Y0062752D02*
X0019913Y0062752D01*
X0019913Y0061753D02*
X0004387Y0061753D01*
X0004387Y0060755D02*
X0019913Y0060755D01*
X0019913Y0059756D02*
X0004387Y0059756D01*
X0004387Y0058758D02*
X0019913Y0058758D01*
X0020297Y0057759D02*
X0004387Y0057759D01*
X0004387Y0056761D02*
X0020925Y0056761D01*
X0021152Y0055762D02*
X0004387Y0055762D01*
X0004387Y0054764D02*
X0021896Y0054764D01*
X0022136Y0053765D02*
X0004387Y0053765D01*
X0004387Y0052767D02*
X0021138Y0052767D01*
X0020139Y0051768D02*
X0018467Y0051768D01*
X0016725Y0051768D02*
X0016475Y0051768D01*
X0016475Y0050770D02*
X0016725Y0050770D01*
X0016725Y0049771D02*
X0016475Y0049771D01*
X0016475Y0048773D02*
X0016725Y0048773D01*
X0016725Y0047774D02*
X0016475Y0047774D01*
X0016475Y0046775D02*
X0016725Y0046775D01*
X0016475Y0046017D02*
X0013850Y0046017D01*
X0013850Y0041695D01*
X0013952Y0041313D01*
X0014150Y0040971D01*
X0014429Y0040692D01*
X0014771Y0040495D01*
X0015153Y0040392D01*
X0016475Y0040392D01*
X0016475Y0046017D01*
X0016475Y0045777D02*
X0016725Y0045777D01*
X0016725Y0044778D02*
X0016475Y0044778D01*
X0016475Y0043780D02*
X0016725Y0043780D01*
X0016725Y0042781D02*
X0016475Y0042781D01*
X0016475Y0041783D02*
X0016725Y0041783D01*
X0016725Y0040784D02*
X0016475Y0040784D01*
X0014337Y0040784D02*
X0004387Y0040784D01*
X0004387Y0039786D02*
X0026270Y0039786D01*
X0025762Y0038787D02*
X0004387Y0038787D01*
X0004387Y0037789D02*
X0025097Y0037789D01*
X0024925Y0036790D02*
X0004387Y0036790D01*
X0004387Y0035792D02*
X0025140Y0035792D01*
X0025866Y0034793D02*
X0004387Y0034793D01*
X0004387Y0033795D02*
X0075880Y0033795D01*
X0075913Y0033916D02*
X0075811Y0033534D01*
X0075811Y0033139D01*
X0075913Y0032758D01*
X0076110Y0032416D01*
X0077299Y0031227D01*
X0079549Y0033476D01*
X0080234Y0032791D01*
X0080919Y0033476D01*
X0083029Y0031366D01*
X0084357Y0032694D01*
X0084555Y0033036D01*
X0084657Y0033418D01*
X0084657Y0033813D01*
X0084607Y0033998D01*
X0085360Y0033998D01*
X0089177Y0037815D01*
X0089177Y0038637D01*
X0089368Y0038827D01*
X0089775Y0039810D01*
X0089775Y0040875D01*
X0089368Y0041858D01*
X0088615Y0042610D01*
X0087632Y0043017D01*
X0086568Y0043017D01*
X0085585Y0042610D01*
X0085394Y0042419D01*
X0084572Y0042419D01*
X0080756Y0038603D01*
X0080756Y0037850D01*
X0080570Y0037899D01*
X0080175Y0037899D01*
X0079794Y0037797D01*
X0079452Y0037600D01*
X0078124Y0036271D01*
X0080234Y0034161D01*
X0079549Y0033476D01*
X0077439Y0035586D01*
X0076110Y0034258D01*
X0075913Y0033916D01*
X0075903Y0032796D02*
X0004387Y0032796D01*
X0004387Y0031798D02*
X0076728Y0031798D01*
X0077870Y0031798D02*
X0079240Y0031798D01*
X0078869Y0032796D02*
X0080229Y0032796D01*
X0080234Y0032791D02*
X0077984Y0030542D01*
X0079173Y0029353D01*
X0079516Y0029155D01*
X0079897Y0029053D01*
X0080292Y0029053D01*
X0080673Y0029155D01*
X0081016Y0029353D01*
X0082344Y0030681D01*
X0080234Y0032791D01*
X0080239Y0032796D02*
X0081598Y0032796D01*
X0081227Y0031798D02*
X0082597Y0031798D01*
X0083461Y0031798D02*
X0132254Y0031798D01*
X0132568Y0031668D02*
X0133632Y0031668D01*
X0134615Y0032075D01*
X0135368Y0032827D01*
X0135775Y0033810D01*
X0135775Y0034875D01*
X0135368Y0035858D01*
X0135177Y0036048D01*
X0135177Y0036870D01*
X0131360Y0040687D01*
X0130607Y0040687D01*
X0130657Y0040872D01*
X0130657Y0041267D01*
X0130555Y0041649D01*
X0130357Y0041991D01*
X0129029Y0043319D01*
X0126919Y0041209D01*
X0126234Y0041894D01*
X0128344Y0044004D01*
X0127016Y0045332D01*
X0126673Y0045530D01*
X0126292Y0045632D01*
X0125897Y0045632D01*
X0125516Y0045530D01*
X0125173Y0045332D01*
X0123984Y0044143D01*
X0126234Y0041894D01*
X0125549Y0041209D01*
X0123299Y0043458D01*
X0122110Y0042269D01*
X0121913Y0041927D01*
X0121811Y0041545D01*
X0121811Y0041150D01*
X0121913Y0040769D01*
X0122110Y0040427D01*
X0123439Y0039099D01*
X0125549Y0041209D01*
X0126234Y0040524D01*
X0124124Y0038414D01*
X0125452Y0037085D01*
X0125794Y0036888D01*
X0126175Y0036786D01*
X0126570Y0036786D01*
X0126756Y0036835D01*
X0126756Y0036082D01*
X0130572Y0032266D01*
X0131394Y0032266D01*
X0131585Y0032075D01*
X0132568Y0031668D01*
X0132897Y0030632D02*
X0132516Y0030530D01*
X0132173Y0030332D01*
X0130984Y0029143D01*
X0133234Y0026894D01*
X0135344Y0029004D01*
X0134016Y0030332D01*
X0133673Y0030530D01*
X0133292Y0030632D01*
X0132897Y0030632D01*
X0131642Y0029801D02*
X0101098Y0029801D01*
X0101275Y0029375D02*
X0100868Y0030358D01*
X0100115Y0031110D01*
X0099132Y0031517D01*
X0098068Y0031517D01*
X0097085Y0031110D01*
X0096894Y0030919D01*
X0096072Y0030919D01*
X0092256Y0027103D01*
X0092256Y0026350D01*
X0092070Y0026399D01*
X0091675Y0026399D01*
X0091294Y0026297D01*
X0090952Y0026100D01*
X0089624Y0024771D01*
X0091734Y0022661D01*
X0091049Y0021976D01*
X0091734Y0021291D01*
X0092419Y0021976D01*
X0094529Y0019866D01*
X0095857Y0021194D01*
X0096055Y0021536D01*
X0096157Y0021918D01*
X0096157Y0022313D01*
X0096107Y0022498D01*
X0096860Y0022498D01*
X0100677Y0026315D01*
X0100677Y0027137D01*
X0100868Y0027327D01*
X0101275Y0028310D01*
X0101275Y0029375D01*
X0101275Y0028802D02*
X0131325Y0028802D01*
X0130954Y0027804D02*
X0132324Y0027804D01*
X0131952Y0026805D02*
X0133145Y0026805D01*
X0133234Y0026894D02*
X0132549Y0026209D01*
X0130299Y0028458D01*
X0129110Y0027269D01*
X0128913Y0026927D01*
X0128811Y0026545D01*
X0128811Y0026150D01*
X0128913Y0025769D01*
X0129110Y0025427D01*
X0130439Y0024099D01*
X0132549Y0026209D01*
X0133234Y0025524D01*
X0131124Y0023414D01*
X0132452Y0022085D01*
X0132794Y0021888D01*
X0133175Y0021786D01*
X0133570Y0021786D01*
X0133756Y0021835D01*
X0133756Y0021082D01*
X0137572Y0017266D01*
X0138394Y0017266D01*
X0138585Y0017075D01*
X0139568Y0016668D01*
X0140632Y0016668D01*
X0141615Y0017075D01*
X0142368Y0017827D01*
X0142775Y0018810D01*
X0142775Y0019875D01*
X0142368Y0020858D01*
X0142177Y0021048D01*
X0142177Y0021870D01*
X0138360Y0025687D01*
X0137607Y0025687D01*
X0137657Y0025872D01*
X0137657Y0026267D01*
X0137555Y0026649D01*
X0137357Y0026991D01*
X0136029Y0028319D01*
X0133919Y0026209D01*
X0133234Y0026894D01*
X0133322Y0026805D02*
X0134515Y0026805D01*
X0134144Y0027804D02*
X0135514Y0027804D01*
X0136544Y0027804D02*
X0212252Y0027804D01*
X0211254Y0028802D02*
X0135142Y0028802D01*
X0134547Y0029801D02*
X0210255Y0029801D01*
X0209257Y0030799D02*
X0100426Y0030799D01*
X0098600Y0028842D02*
X0096466Y0026709D01*
X0093955Y0028802D02*
X0065671Y0028802D01*
X0065942Y0028664D02*
X0065315Y0028984D01*
X0064646Y0029201D01*
X0064084Y0029290D01*
X0064084Y0025327D01*
X0063116Y0025327D01*
X0063116Y0029290D01*
X0062554Y0029201D01*
X0061885Y0028984D01*
X0061258Y0028664D01*
X0060689Y0028251D01*
X0060192Y0027754D01*
X0059778Y0027184D01*
X0059459Y0026558D01*
X0059242Y0025889D01*
X0059152Y0025327D01*
X0063116Y0025327D01*
X0063116Y0024358D01*
X0059152Y0024358D01*
X0059242Y0023796D01*
X0059459Y0023127D01*
X0059778Y0022500D01*
X0060192Y0021931D01*
X0060689Y0021434D01*
X0061245Y0021030D01*
X0055517Y0021030D01*
X0056011Y0021234D01*
X0057208Y0022432D01*
X0057856Y0023996D01*
X0057856Y0025689D01*
X0057208Y0027253D01*
X0056011Y0028450D01*
X0054447Y0029098D01*
X0052753Y0029098D01*
X0051189Y0028450D01*
X0049992Y0027253D01*
X0049344Y0025689D01*
X0049344Y0023996D01*
X0049992Y0022432D01*
X0051189Y0021234D01*
X0051683Y0021030D01*
X0047401Y0021030D01*
X0045170Y0018799D01*
X0044447Y0019098D01*
X0042753Y0019098D01*
X0041189Y0018450D01*
X0039992Y0017253D01*
X0039344Y0015689D01*
X0039344Y0013996D01*
X0039644Y0013273D01*
X0035901Y0009530D01*
X0019299Y0009530D01*
X0016944Y0011885D01*
X0017202Y0012144D01*
X0017202Y0017541D01*
X0016448Y0018295D01*
X0011445Y0018295D01*
X0010691Y0017541D01*
X0010691Y0012144D01*
X0011445Y0011390D01*
X0012666Y0011390D01*
X0016426Y0007630D01*
X0012840Y0007630D01*
X0009080Y0011390D01*
X0009755Y0011390D01*
X0010509Y0012144D01*
X0010509Y0017541D01*
X0009755Y0018295D01*
X0004752Y0018295D01*
X0004387Y0017931D01*
X0004387Y0021463D01*
X0004706Y0021279D01*
X0005088Y0021177D01*
X0006769Y0021177D01*
X0006769Y0024358D01*
X0007738Y0024358D01*
X0007738Y0021177D01*
X0009420Y0021177D01*
X0009801Y0021279D01*
X0010143Y0021477D01*
X0010422Y0021756D01*
X0010620Y0022098D01*
X0010691Y0022362D01*
X0010691Y0022144D01*
X0011445Y0021390D01*
X0012413Y0021390D01*
X0012413Y0021144D01*
X0013401Y0020155D01*
X0014901Y0018655D01*
X0017401Y0018655D01*
X0019644Y0016412D01*
X0019344Y0015689D01*
X0019344Y0013996D01*
X0019992Y0012432D01*
X0021189Y0011234D01*
X0022753Y0010587D01*
X0024447Y0010587D01*
X0026011Y0011234D01*
X0027208Y0012432D01*
X0027856Y0013996D01*
X0027856Y0015689D01*
X0027208Y0017253D01*
X0026011Y0018450D01*
X0024447Y0019098D01*
X0022753Y0019098D01*
X0022030Y0018799D01*
X0019787Y0021041D01*
X0018799Y0022030D01*
X0017088Y0022030D01*
X0017202Y0022144D01*
X0017202Y0027541D01*
X0016448Y0028295D01*
X0011445Y0028295D01*
X0010691Y0027541D01*
X0010691Y0027323D01*
X0010620Y0027587D01*
X0010422Y0027929D01*
X0010143Y0028208D01*
X0009801Y0028406D01*
X0009420Y0028508D01*
X0007738Y0028508D01*
X0007738Y0025327D01*
X0006769Y0025327D01*
X0006769Y0028508D01*
X0005088Y0028508D01*
X0004706Y0028406D01*
X0004387Y0028222D01*
X0004387Y0137309D01*
X0016133Y0149055D01*
X0039713Y0149055D01*
X0039713Y0131295D01*
X0037860Y0131295D01*
X0037860Y0127343D01*
X0036860Y0127343D01*
X0036860Y0131295D01*
X0034603Y0131295D01*
X0034222Y0131193D01*
X0033880Y0130996D01*
X0033600Y0130716D01*
X0033403Y0130374D01*
X0033301Y0129993D01*
X0033301Y0127342D01*
X0036860Y0127342D01*
X0036860Y0126342D01*
X0037860Y0126342D01*
X0037860Y0122390D01*
X0039713Y0122390D01*
X0039713Y0108561D01*
X0040818Y0107455D01*
X0057382Y0107455D01*
X0058487Y0108561D01*
X0058487Y0129624D01*
X0052987Y0135124D01*
X0052987Y0149055D01*
X0234567Y0149055D01*
X0236313Y0147309D01*
X0236313Y0125809D01*
X0255813Y0106309D01*
X0255813Y0007376D01*
X0251600Y0003163D01*
X0248387Y0006376D01*
X0247633Y0007130D01*
X0243067Y0007130D01*
X0239067Y0003130D01*
X0238633Y0003130D01*
X0235387Y0006376D01*
X0234633Y0007130D01*
X0229567Y0007130D01*
X0225567Y0003130D01*
X0008633Y0003130D01*
X0004387Y0007376D01*
X0004387Y0011754D01*
X0004752Y0011390D01*
X0005313Y0011390D01*
X0005313Y0010102D01*
X0011360Y0004055D01*
X0076840Y0004055D01*
X0079953Y0007168D01*
X0080632Y0007168D01*
X0081615Y0007575D01*
X0082368Y0008327D01*
X0082775Y0009310D01*
X0082775Y0010375D01*
X0082368Y0011358D01*
X0082335Y0011390D01*
X0082448Y0011390D01*
X0083202Y0012144D01*
X0083202Y0017541D01*
X0082448Y0018295D01*
X0077445Y0018295D01*
X0076691Y0017541D01*
X0076691Y0012144D01*
X0077445Y0011390D01*
X0077865Y0011390D01*
X0077832Y0011358D01*
X0077425Y0010375D01*
X0077425Y0009695D01*
X0075360Y0007630D01*
X0038774Y0007630D01*
X0042030Y0010886D01*
X0042753Y0010587D01*
X0044447Y0010587D01*
X0046011Y0011234D01*
X0047208Y0012432D01*
X0047856Y0013996D01*
X0047856Y0015689D01*
X0047556Y0016412D01*
X0048799Y0017655D01*
X0050394Y0017655D01*
X0049992Y0017253D01*
X0049344Y0015689D01*
X0049344Y0013996D01*
X0049992Y0012432D01*
X0051189Y0011234D01*
X0052753Y0010587D01*
X0054447Y0010587D01*
X0056011Y0011234D01*
X0057208Y0012432D01*
X0057856Y0013996D01*
X0057856Y0015689D01*
X0057208Y0017253D01*
X0056806Y0017655D01*
X0060394Y0017655D01*
X0059992Y0017253D01*
X0059344Y0015689D01*
X0059344Y0013996D01*
X0059992Y0012432D01*
X0061189Y0011234D01*
X0062753Y0010587D01*
X0064447Y0010587D01*
X0066011Y0011234D01*
X0067208Y0012432D01*
X0067508Y0013155D01*
X0069998Y0013155D01*
X0069998Y0012144D01*
X0070752Y0011390D01*
X0075755Y0011390D01*
X0076509Y0012144D01*
X0076509Y0017541D01*
X0075755Y0018295D01*
X0071939Y0018295D01*
X0072287Y0018644D01*
X0075812Y0022168D01*
X0076632Y0022168D01*
X0077615Y0022575D01*
X0078368Y0023327D01*
X0078775Y0024310D01*
X0078775Y0025375D01*
X0078368Y0026358D01*
X0077615Y0027110D01*
X0076632Y0027517D01*
X0075568Y0027517D01*
X0074585Y0027110D01*
X0073832Y0026358D01*
X0073425Y0025375D01*
X0073425Y0024554D01*
X0069901Y0021030D01*
X0065955Y0021030D01*
X0066511Y0021434D01*
X0067008Y0021931D01*
X0067422Y0022500D01*
X0067741Y0023127D01*
X0067958Y0023796D01*
X0068047Y0024358D01*
X0064084Y0024358D01*
X0064084Y0025327D01*
X0068047Y0025327D01*
X0067958Y0025889D01*
X0067741Y0026558D01*
X0067422Y0027184D01*
X0067008Y0027754D01*
X0066511Y0028251D01*
X0065942Y0028664D01*
X0066958Y0027804D02*
X0092957Y0027804D01*
X0092256Y0026805D02*
X0077920Y0026805D01*
X0078596Y0025807D02*
X0090659Y0025807D01*
X0089661Y0024808D02*
X0078775Y0024808D01*
X0078567Y0023810D02*
X0088662Y0023810D01*
X0088939Y0024086D02*
X0087610Y0022758D01*
X0087413Y0022416D01*
X0087311Y0022034D01*
X0087311Y0021639D01*
X0087413Y0021258D01*
X0087610Y0020916D01*
X0088799Y0019727D01*
X0091049Y0021976D01*
X0088939Y0024086D01*
X0089215Y0023810D02*
X0090585Y0023810D01*
X0090214Y0022811D02*
X0091583Y0022811D01*
X0091212Y0021813D02*
X0090885Y0021813D01*
X0091734Y0021291D02*
X0089484Y0019042D01*
X0090673Y0017853D01*
X0091016Y0017655D01*
X0091397Y0017553D01*
X0091792Y0017553D01*
X0092173Y0017655D01*
X0092516Y0017853D01*
X0093844Y0019181D01*
X0091734Y0021291D01*
X0092211Y0020814D02*
X0093580Y0020814D01*
X0093209Y0019816D02*
X0095668Y0019816D01*
X0095124Y0019271D02*
X0097234Y0017161D01*
X0096549Y0016476D01*
X0097234Y0015791D01*
X0097919Y0016476D01*
X0100029Y0014366D01*
X0101357Y0015694D01*
X0101555Y0016036D01*
X0101657Y0016418D01*
X0101657Y0016813D01*
X0101607Y0016998D01*
X0102360Y0016998D01*
X0106177Y0020815D01*
X0106177Y0021637D01*
X0106368Y0021827D01*
X0106775Y0022810D01*
X0106775Y0023875D01*
X0106368Y0024858D01*
X0105615Y0025610D01*
X0104632Y0026017D01*
X0103568Y0026017D01*
X0102585Y0025610D01*
X0102394Y0025419D01*
X0101572Y0025419D01*
X0097756Y0021603D01*
X0097756Y0020850D01*
X0097570Y0020899D01*
X0097175Y0020899D01*
X0096794Y0020797D01*
X0096452Y0020600D01*
X0095124Y0019271D01*
X0095578Y0018817D02*
X0093480Y0018817D01*
X0094439Y0018586D02*
X0093110Y0017258D01*
X0092913Y0016916D01*
X0092811Y0016534D01*
X0092811Y0016139D01*
X0092913Y0015758D01*
X0093110Y0015416D01*
X0094299Y0014227D01*
X0096549Y0016476D01*
X0094439Y0018586D01*
X0095206Y0017819D02*
X0096576Y0017819D01*
X0096893Y0016820D02*
X0096205Y0016820D01*
X0095894Y0015822D02*
X0097203Y0015822D01*
X0097234Y0015791D02*
X0094984Y0013542D01*
X0096173Y0012353D01*
X0096516Y0012155D01*
X0096897Y0012053D01*
X0097292Y0012053D01*
X0097673Y0012155D01*
X0098016Y0012353D01*
X0099344Y0013681D01*
X0097234Y0015791D01*
X0097264Y0015822D02*
X0098573Y0015822D01*
X0098202Y0014823D02*
X0099572Y0014823D01*
X0100486Y0014823D02*
X0105976Y0014823D01*
X0105256Y0014103D02*
X0105256Y0013350D01*
X0105070Y0013399D01*
X0104675Y0013399D01*
X0104294Y0013297D01*
X0103952Y0013100D01*
X0102624Y0011771D01*
X0104734Y0009661D01*
X0104049Y0008976D01*
X0104734Y0008291D01*
X0105419Y0008976D01*
X0107529Y0006866D01*
X0108857Y0008194D01*
X0109055Y0008536D01*
X0109157Y0008918D01*
X0109157Y0009313D01*
X0109107Y0009498D01*
X0109860Y0009498D01*
X0113677Y0013315D01*
X0113677Y0014381D01*
X0113172Y0014886D01*
X0113453Y0015168D01*
X0114132Y0015168D01*
X0115115Y0015575D01*
X0115868Y0016327D01*
X0116275Y0017310D01*
X0116275Y0018375D01*
X0115868Y0019358D01*
X0115115Y0020110D01*
X0114132Y0020517D01*
X0113068Y0020517D01*
X0112085Y0020110D01*
X0111332Y0019358D01*
X0110925Y0018375D01*
X0110925Y0017695D01*
X0110644Y0017414D01*
X0110139Y0017919D01*
X0109072Y0017919D01*
X0105256Y0014103D01*
X0105256Y0013825D02*
X0099200Y0013825D01*
X0098489Y0012826D02*
X0103678Y0012826D01*
X0102680Y0011828D02*
X0082886Y0011828D01*
X0082587Y0010829D02*
X0101681Y0010829D01*
X0101939Y0011086D02*
X0100610Y0009758D01*
X0100413Y0009416D01*
X0100311Y0009034D01*
X0100311Y0008639D01*
X0100413Y0008258D01*
X0100610Y0007916D01*
X0101799Y0006727D01*
X0104049Y0008976D01*
X0101939Y0011086D01*
X0102196Y0010829D02*
X0103566Y0010829D01*
X0103194Y0009831D02*
X0104564Y0009831D01*
X0104193Y0008832D02*
X0103905Y0008832D01*
X0104734Y0008291D02*
X0102484Y0006042D01*
X0103673Y0004853D01*
X0104016Y0004655D01*
X0104397Y0004553D01*
X0104792Y0004553D01*
X0105173Y0004655D01*
X0105516Y0004853D01*
X0106844Y0006181D01*
X0104734Y0008291D01*
X0105191Y0007834D02*
X0106561Y0007834D01*
X0106190Y0006835D02*
X0189800Y0006835D01*
X0189800Y0005870D02*
X0190327Y0005342D01*
X0190627Y0005042D01*
X0210473Y0005042D01*
X0211300Y0005870D01*
X0211300Y0011815D01*
X0210773Y0012342D01*
X0210473Y0012642D01*
X0190627Y0012642D01*
X0190100Y0012115D01*
X0189800Y0011815D01*
X0189800Y0005870D01*
X0189833Y0005837D02*
X0106499Y0005837D01*
X0105490Y0004838D02*
X0227275Y0004838D01*
X0228273Y0005837D02*
X0211267Y0005837D01*
X0211300Y0006835D02*
X0229272Y0006835D01*
X0226276Y0003840D02*
X0007924Y0003840D01*
X0006925Y0004838D02*
X0010577Y0004838D01*
X0009578Y0005837D02*
X0005927Y0005837D01*
X0004928Y0006835D02*
X0008580Y0006835D01*
X0007581Y0007834D02*
X0004387Y0007834D01*
X0004387Y0008832D02*
X0006583Y0008832D01*
X0005584Y0009831D02*
X0004387Y0009831D01*
X0004387Y0010829D02*
X0005313Y0010829D01*
X0007100Y0010842D02*
X0007100Y0014689D01*
X0007254Y0014842D01*
X0010509Y0014823D02*
X0010691Y0014823D01*
X0010691Y0013825D02*
X0010509Y0013825D01*
X0010509Y0012826D02*
X0010691Y0012826D01*
X0011007Y0011828D02*
X0010193Y0011828D01*
X0009641Y0010829D02*
X0013227Y0010829D01*
X0014226Y0009831D02*
X0010640Y0009831D01*
X0011638Y0008832D02*
X0015224Y0008832D01*
X0016223Y0007834D02*
X0012637Y0007834D01*
X0012100Y0005842D02*
X0007100Y0010842D01*
X0010509Y0015822D02*
X0010691Y0015822D01*
X0010691Y0016820D02*
X0010509Y0016820D01*
X0010232Y0017819D02*
X0010968Y0017819D01*
X0013740Y0019816D02*
X0004387Y0019816D01*
X0004387Y0020814D02*
X0012742Y0020814D01*
X0011022Y0021813D02*
X0010455Y0021813D01*
X0007738Y0021813D02*
X0006769Y0021813D01*
X0006769Y0022811D02*
X0007738Y0022811D01*
X0007738Y0023810D02*
X0006769Y0023810D01*
X0007254Y0024842D02*
X0007254Y0029996D01*
X0009600Y0032342D01*
X0009600Y0036842D01*
X0013850Y0041783D02*
X0004387Y0041783D01*
X0004387Y0042781D02*
X0013850Y0042781D01*
X0013850Y0043780D02*
X0004387Y0043780D01*
X0004387Y0044778D02*
X0013850Y0044778D01*
X0013850Y0045777D02*
X0004387Y0045777D01*
X0004387Y0046775D02*
X0013850Y0046775D01*
X0013850Y0047774D02*
X0004387Y0047774D01*
X0004387Y0048773D02*
X0013850Y0048773D01*
X0013850Y0049771D02*
X0004387Y0049771D01*
X0004387Y0050770D02*
X0013898Y0050770D01*
X0014733Y0051768D02*
X0004387Y0051768D01*
X0018863Y0040784D02*
X0019637Y0040784D01*
X0023563Y0040784D02*
X0024637Y0040784D01*
X0029334Y0034793D02*
X0076646Y0034793D01*
X0078232Y0034793D02*
X0079601Y0034793D01*
X0079867Y0033795D02*
X0079230Y0033795D01*
X0078603Y0035792D02*
X0060436Y0035792D01*
X0061434Y0036790D02*
X0078643Y0036790D01*
X0079780Y0037789D02*
X0062433Y0037789D01*
X0063431Y0038787D02*
X0080940Y0038787D01*
X0081939Y0039786D02*
X0064430Y0039786D01*
X0065428Y0040784D02*
X0082937Y0040784D01*
X0083936Y0041783D02*
X0066427Y0041783D01*
X0067425Y0042781D02*
X0085999Y0042781D01*
X0088201Y0042781D02*
X0091275Y0042781D01*
X0092273Y0041783D02*
X0089399Y0041783D01*
X0089775Y0040784D02*
X0093272Y0040784D01*
X0094270Y0039786D02*
X0089765Y0039786D01*
X0089328Y0038787D02*
X0095269Y0038787D01*
X0096267Y0037789D02*
X0089151Y0037789D01*
X0088152Y0036790D02*
X0106772Y0036790D01*
X0108428Y0036790D02*
X0109305Y0036790D01*
X0108925Y0035792D02*
X0087154Y0035792D01*
X0086155Y0034793D02*
X0108932Y0034793D01*
X0109365Y0033795D02*
X0084657Y0033795D01*
X0084416Y0032796D02*
X0110757Y0032796D01*
X0112443Y0032796D02*
X0130042Y0032796D01*
X0129043Y0033795D02*
X0113835Y0033795D01*
X0114268Y0034793D02*
X0128045Y0034793D01*
X0127046Y0035792D02*
X0114275Y0035792D01*
X0113895Y0036790D02*
X0126158Y0036790D01*
X0126588Y0036790D02*
X0126756Y0036790D01*
X0124748Y0037789D02*
X0113287Y0037789D01*
X0113287Y0038787D02*
X0124497Y0038787D01*
X0124126Y0039786D02*
X0125496Y0039786D01*
X0125124Y0040784D02*
X0125973Y0040784D01*
X0126123Y0041783D02*
X0124975Y0041783D01*
X0125346Y0042781D02*
X0123976Y0042781D01*
X0124347Y0043780D02*
X0111049Y0043780D01*
X0112047Y0042781D02*
X0122623Y0042781D01*
X0121874Y0041783D02*
X0113046Y0041783D01*
X0113287Y0040784D02*
X0121909Y0040784D01*
X0122751Y0039786D02*
X0113287Y0039786D01*
X0109913Y0037789D02*
X0109829Y0037789D01*
X0098050Y0044778D02*
X0124620Y0044778D01*
X0127569Y0044778D02*
X0128759Y0044778D01*
X0128939Y0044599D02*
X0127610Y0045927D01*
X0127413Y0046269D01*
X0127311Y0046650D01*
X0127311Y0047045D01*
X0127413Y0047427D01*
X0127610Y0047769D01*
X0128799Y0048958D01*
X0131049Y0046709D01*
X0131734Y0047394D01*
X0133844Y0049504D01*
X0132516Y0050832D01*
X0132173Y0051030D01*
X0131792Y0051132D01*
X0131397Y0051132D01*
X0131016Y0051030D01*
X0130673Y0050832D01*
X0129484Y0049643D01*
X0131734Y0047394D01*
X0132419Y0046709D01*
X0134529Y0048819D01*
X0135857Y0047491D01*
X0136055Y0047149D01*
X0136157Y0046767D01*
X0136157Y0046372D01*
X0136107Y0046187D01*
X0136860Y0046187D01*
X0140677Y0042370D01*
X0140677Y0041548D01*
X0140868Y0041358D01*
X0141275Y0040375D01*
X0141275Y0039310D01*
X0140868Y0038327D01*
X0140115Y0037575D01*
X0139132Y0037168D01*
X0138068Y0037168D01*
X0137085Y0037575D01*
X0136894Y0037766D01*
X0136072Y0037766D01*
X0132256Y0041582D01*
X0132256Y0042335D01*
X0132070Y0042286D01*
X0131675Y0042286D01*
X0131294Y0042388D01*
X0130952Y0042585D01*
X0129624Y0043914D01*
X0131734Y0046024D01*
X0131049Y0046709D01*
X0128939Y0044599D01*
X0129119Y0044778D02*
X0130488Y0044778D01*
X0130117Y0045777D02*
X0131487Y0045777D01*
X0131115Y0046775D02*
X0130982Y0046775D01*
X0131353Y0047774D02*
X0129984Y0047774D01*
X0130355Y0048773D02*
X0128985Y0048773D01*
X0128614Y0048773D02*
X0106052Y0048773D01*
X0105868Y0048327D02*
X0106275Y0049310D01*
X0106275Y0050375D01*
X0105951Y0051155D01*
X0136401Y0051155D01*
X0155401Y0032155D01*
X0207901Y0032155D01*
X0216913Y0023144D01*
X0216913Y0016438D01*
X0216332Y0015858D01*
X0215925Y0014875D01*
X0215925Y0013810D01*
X0216332Y0012827D01*
X0217085Y0012075D01*
X0218068Y0011668D01*
X0219132Y0011668D01*
X0220115Y0012075D01*
X0220868Y0012827D01*
X0221275Y0013810D01*
X0221275Y0014875D01*
X0220868Y0015858D01*
X0220287Y0016438D01*
X0220287Y0023269D01*
X0228925Y0014631D01*
X0228925Y0013810D01*
X0229332Y0012827D01*
X0230085Y0012075D01*
X0231068Y0011668D01*
X0232132Y0011668D01*
X0233115Y0012075D01*
X0233868Y0012827D01*
X0234266Y0013790D01*
X0235401Y0012655D01*
X0242505Y0012655D01*
X0243085Y0012075D01*
X0244068Y0011668D01*
X0245132Y0011668D01*
X0246115Y0012075D01*
X0246868Y0012827D01*
X0247275Y0013810D01*
X0247275Y0014875D01*
X0246868Y0015858D01*
X0246272Y0016453D01*
X0247034Y0017216D01*
X0247472Y0018271D01*
X0247472Y0019414D01*
X0247034Y0020469D01*
X0246227Y0021277D01*
X0245171Y0021714D01*
X0244029Y0021714D01*
X0242973Y0021277D01*
X0242166Y0020469D01*
X0241728Y0019414D01*
X0241728Y0018271D01*
X0242166Y0017216D01*
X0242928Y0016453D01*
X0242505Y0016030D01*
X0238814Y0016030D01*
X0239727Y0016408D01*
X0240534Y0017216D01*
X0240972Y0018271D01*
X0240972Y0019414D01*
X0240534Y0020469D01*
X0239727Y0021277D01*
X0238671Y0021714D01*
X0237529Y0021714D01*
X0236473Y0021277D01*
X0235666Y0020469D01*
X0235228Y0019414D01*
X0235228Y0018271D01*
X0235666Y0017216D01*
X0236473Y0016408D01*
X0237386Y0016030D01*
X0236799Y0016030D01*
X0213299Y0039530D01*
X0212091Y0039530D01*
X0212340Y0039674D01*
X0212619Y0039953D01*
X0212715Y0040119D01*
X0213248Y0039587D01*
X0218645Y0039587D01*
X0219399Y0040341D01*
X0219399Y0045344D01*
X0218645Y0046098D01*
X0218034Y0046098D01*
X0218034Y0047587D01*
X0218645Y0047587D01*
X0219399Y0048341D01*
X0219399Y0053344D01*
X0218645Y0054098D01*
X0218182Y0054098D01*
X0217868Y0054858D01*
X0217383Y0055342D01*
X0217868Y0055827D01*
X0218182Y0056587D01*
X0218645Y0056587D01*
X0219399Y0057341D01*
X0219399Y0062344D01*
X0218645Y0063098D01*
X0218034Y0063098D01*
X0218034Y0064587D01*
X0218645Y0064587D01*
X0219399Y0065341D01*
X0219399Y0070344D01*
X0218645Y0071098D01*
X0213248Y0071098D01*
X0212715Y0070566D01*
X0212619Y0070732D01*
X0212340Y0071011D01*
X0211998Y0071209D01*
X0211616Y0071311D01*
X0209738Y0071311D01*
X0209738Y0068327D01*
X0208769Y0068327D01*
X0208769Y0067358D01*
X0205588Y0067358D01*
X0205588Y0065676D01*
X0205690Y0065295D01*
X0205888Y0064953D01*
X0206167Y0064674D01*
X0206509Y0064476D01*
X0206891Y0064374D01*
X0208769Y0064374D01*
X0208769Y0067358D01*
X0209738Y0067358D01*
X0209738Y0064374D01*
X0211616Y0064374D01*
X0211998Y0064476D01*
X0212340Y0064674D01*
X0212619Y0064953D01*
X0212715Y0065119D01*
X0213248Y0064587D01*
X0213859Y0064587D01*
X0213859Y0063098D01*
X0213248Y0063098D01*
X0212715Y0062566D01*
X0212619Y0062732D01*
X0212340Y0063011D01*
X0211998Y0063209D01*
X0211616Y0063311D01*
X0209738Y0063311D01*
X0209738Y0060327D01*
X0208769Y0060327D01*
X0208769Y0059358D01*
X0205588Y0059358D01*
X0205588Y0057676D01*
X0205690Y0057295D01*
X0205888Y0056953D01*
X0206167Y0056674D01*
X0206509Y0056476D01*
X0206891Y0056374D01*
X0208769Y0056374D01*
X0208769Y0059358D01*
X0209738Y0059358D01*
X0209738Y0056374D01*
X0211616Y0056374D01*
X0211998Y0056476D01*
X0212340Y0056674D01*
X0212619Y0056953D01*
X0212715Y0057119D01*
X0212925Y0056909D01*
X0212925Y0056810D01*
X0213332Y0055827D01*
X0213817Y0055342D01*
X0213332Y0054858D01*
X0212925Y0053875D01*
X0212925Y0053776D01*
X0212715Y0053566D01*
X0212619Y0053732D01*
X0212340Y0054011D01*
X0211998Y0054209D01*
X0211616Y0054311D01*
X0209738Y0054311D01*
X0209738Y0051327D01*
X0208769Y0051327D01*
X0208769Y0050358D01*
X0205588Y0050358D01*
X0205588Y0048676D01*
X0205690Y0048295D01*
X0205888Y0047953D01*
X0206167Y0047674D01*
X0206509Y0047476D01*
X0206891Y0047374D01*
X0208769Y0047374D01*
X0208769Y0050358D01*
X0209738Y0050358D01*
X0209738Y0047374D01*
X0211616Y0047374D01*
X0211998Y0047476D01*
X0212340Y0047674D01*
X0212619Y0047953D01*
X0212715Y0048119D01*
X0213248Y0047587D01*
X0213859Y0047587D01*
X0213859Y0046098D01*
X0213248Y0046098D01*
X0212715Y0045566D01*
X0212619Y0045732D01*
X0212340Y0046011D01*
X0211998Y0046209D01*
X0211616Y0046311D01*
X0209738Y0046311D01*
X0209738Y0043327D01*
X0208769Y0043327D01*
X0208769Y0042358D01*
X0205588Y0042358D01*
X0205588Y0040676D01*
X0205690Y0040295D01*
X0205888Y0039953D01*
X0206167Y0039674D01*
X0206416Y0039530D01*
X0158799Y0039530D01*
X0140787Y0057541D01*
X0140787Y0057541D01*
X0139799Y0058530D01*
X0109299Y0058530D01*
X0099287Y0068541D01*
X0098299Y0069530D01*
X0084799Y0069530D01*
X0053799Y0100530D01*
X0036299Y0100530D01*
X0029287Y0107541D01*
X0028299Y0108530D01*
X0027195Y0108530D01*
X0026615Y0109110D01*
X0025632Y0109517D01*
X0024568Y0109517D01*
X0023585Y0109110D01*
X0022832Y0108358D01*
X0022425Y0107375D01*
X0022425Y0106310D01*
X0022713Y0105616D01*
X0021775Y0106554D01*
X0021775Y0107375D01*
X0021368Y0108358D01*
X0020615Y0109110D01*
X0019632Y0109517D01*
X0018568Y0109517D01*
X0017585Y0109110D01*
X0016832Y0108358D01*
X0016425Y0107375D01*
X0016425Y0106310D01*
X0016832Y0105327D01*
X0017585Y0104575D01*
X0018568Y0104168D01*
X0019388Y0104168D01*
X0020913Y0102644D01*
X0021901Y0101655D01*
X0022749Y0101655D01*
X0022425Y0100875D01*
X0022425Y0099810D01*
X0022832Y0098827D01*
X0023585Y0098075D01*
X0024568Y0097668D01*
X0025388Y0097668D01*
X0029901Y0093155D01*
X0039249Y0093155D01*
X0038925Y0092375D01*
X0038925Y0091310D01*
X0039332Y0090327D01*
X0040085Y0089575D01*
X0041068Y0089168D01*
X0042132Y0089168D01*
X0043115Y0089575D01*
X0043695Y0090155D01*
X0049401Y0090155D01*
X0078413Y0061144D01*
X0079401Y0060155D01*
X0093901Y0060155D01*
X0101913Y0052144D01*
X0101913Y0051938D01*
X0101332Y0051358D01*
X0100925Y0050375D01*
X0100925Y0049310D01*
X0101332Y0048327D01*
X0102085Y0047575D01*
X0103068Y0047168D01*
X0104132Y0047168D01*
X0105115Y0047575D01*
X0105868Y0048327D01*
X0105314Y0047774D02*
X0127615Y0047774D01*
X0127311Y0046775D02*
X0096053Y0046775D01*
X0097052Y0045777D02*
X0127760Y0045777D01*
X0128120Y0043780D02*
X0129757Y0043780D01*
X0129566Y0042781D02*
X0130756Y0042781D01*
X0130477Y0041783D02*
X0132256Y0041783D01*
X0133054Y0040784D02*
X0130633Y0040784D01*
X0132261Y0039786D02*
X0134052Y0039786D01*
X0133260Y0038787D02*
X0135051Y0038787D01*
X0134258Y0037789D02*
X0136049Y0037789D01*
X0135177Y0036790D02*
X0150766Y0036790D01*
X0151764Y0035792D02*
X0135395Y0035792D01*
X0135775Y0034793D02*
X0152763Y0034793D01*
X0153761Y0033795D02*
X0135768Y0033795D01*
X0135337Y0032796D02*
X0154760Y0032796D01*
X0149767Y0037789D02*
X0140329Y0037789D01*
X0141058Y0038787D02*
X0148769Y0038787D01*
X0147770Y0039786D02*
X0141275Y0039786D01*
X0141105Y0040784D02*
X0146772Y0040784D01*
X0145773Y0041783D02*
X0140677Y0041783D01*
X0140266Y0042781D02*
X0144775Y0042781D01*
X0143776Y0043780D02*
X0139267Y0043780D01*
X0138269Y0044778D02*
X0142778Y0044778D01*
X0141779Y0045777D02*
X0137270Y0045777D01*
X0136155Y0046775D02*
X0140781Y0046775D01*
X0139782Y0047774D02*
X0135574Y0047774D01*
X0134575Y0048773D02*
X0138784Y0048773D01*
X0137785Y0049771D02*
X0133577Y0049771D01*
X0133113Y0048773D02*
X0134482Y0048773D01*
X0133484Y0047774D02*
X0132114Y0047774D01*
X0132352Y0046775D02*
X0132485Y0046775D01*
X0129612Y0049771D02*
X0106275Y0049771D01*
X0106111Y0050770D02*
X0130611Y0050770D01*
X0132578Y0050770D02*
X0136787Y0050770D01*
X0142567Y0055762D02*
X0142775Y0055762D01*
X0142124Y0056414D02*
X0143452Y0055085D01*
X0143794Y0054888D01*
X0144175Y0054786D01*
X0144570Y0054786D01*
X0144756Y0054835D01*
X0144756Y0054082D01*
X0148206Y0050632D01*
X0148332Y0050327D01*
X0149085Y0049575D01*
X0150068Y0049168D01*
X0151132Y0049168D01*
X0152115Y0049575D01*
X0152868Y0050327D01*
X0153275Y0051310D01*
X0153275Y0052375D01*
X0152868Y0053358D01*
X0152799Y0053426D01*
X0153177Y0053804D01*
X0153177Y0054870D01*
X0149360Y0058687D01*
X0148607Y0058687D01*
X0148657Y0058872D01*
X0148657Y0059267D01*
X0148555Y0059649D01*
X0148357Y0059991D01*
X0147029Y0061319D01*
X0144919Y0059209D01*
X0144234Y0059894D01*
X0146344Y0062004D01*
X0145016Y0063332D01*
X0144673Y0063530D01*
X0144292Y0063632D01*
X0143897Y0063632D01*
X0143516Y0063530D01*
X0143173Y0063332D01*
X0141984Y0062143D01*
X0144234Y0059894D01*
X0143549Y0059209D01*
X0141299Y0061458D01*
X0140110Y0060269D01*
X0139913Y0059927D01*
X0139811Y0059545D01*
X0139811Y0059150D01*
X0139913Y0058769D01*
X0140110Y0058427D01*
X0141439Y0057099D01*
X0143549Y0059209D01*
X0144234Y0058524D01*
X0142124Y0056414D01*
X0142470Y0056761D02*
X0141568Y0056761D01*
X0142099Y0057759D02*
X0143469Y0057759D01*
X0143098Y0058758D02*
X0144000Y0058758D01*
X0144096Y0059756D02*
X0143001Y0059756D01*
X0143373Y0060755D02*
X0142003Y0060755D01*
X0142374Y0061753D02*
X0106076Y0061753D01*
X0107074Y0060755D02*
X0140596Y0060755D01*
X0139867Y0059756D02*
X0108073Y0059756D01*
X0109071Y0058758D02*
X0139919Y0058758D01*
X0140570Y0057759D02*
X0140778Y0057759D01*
X0144371Y0059756D02*
X0145466Y0059756D01*
X0145095Y0060755D02*
X0146464Y0060755D01*
X0146093Y0061753D02*
X0149784Y0061753D01*
X0149952Y0061585D02*
X0150294Y0061388D01*
X0150675Y0061286D01*
X0151070Y0061286D01*
X0151256Y0061335D01*
X0151256Y0060582D01*
X0155072Y0056766D01*
X0155894Y0056766D01*
X0156085Y0056575D01*
X0157068Y0056168D01*
X0158132Y0056168D01*
X0159115Y0056575D01*
X0159868Y0057327D01*
X0160275Y0058310D01*
X0160275Y0059375D01*
X0159868Y0060358D01*
X0159677Y0060548D01*
X0159677Y0061370D01*
X0155860Y0065187D01*
X0155107Y0065187D01*
X0155157Y0065372D01*
X0155157Y0065767D01*
X0155055Y0066149D01*
X0154857Y0066491D01*
X0153529Y0067819D01*
X0151419Y0065709D01*
X0150734Y0066394D01*
X0152844Y0068504D01*
X0151516Y0069832D01*
X0151173Y0070030D01*
X0150792Y0070132D01*
X0150397Y0070132D01*
X0150016Y0070030D01*
X0149673Y0069832D01*
X0148484Y0068643D01*
X0150734Y0066394D01*
X0150049Y0065709D01*
X0147799Y0067958D01*
X0146610Y0066769D01*
X0146413Y0066427D01*
X0146311Y0066045D01*
X0146311Y0065650D01*
X0146413Y0065269D01*
X0146610Y0064927D01*
X0147939Y0063599D01*
X0150049Y0065709D01*
X0150734Y0065024D01*
X0148624Y0062914D01*
X0149952Y0061585D01*
X0151256Y0060755D02*
X0147593Y0060755D01*
X0148492Y0059756D02*
X0152082Y0059756D01*
X0153080Y0058758D02*
X0148626Y0058758D01*
X0150288Y0057759D02*
X0154079Y0057759D01*
X0155899Y0056761D02*
X0151286Y0056761D01*
X0152285Y0055762D02*
X0191301Y0055762D01*
X0191301Y0054764D02*
X0153177Y0054764D01*
X0153138Y0053765D02*
X0168459Y0053765D01*
X0168085Y0053610D02*
X0169068Y0054017D01*
X0170132Y0054017D01*
X0171115Y0053610D01*
X0171306Y0053419D01*
X0172128Y0053419D01*
X0175944Y0049603D01*
X0175944Y0048850D01*
X0176130Y0048899D01*
X0176525Y0048899D01*
X0176906Y0048797D01*
X0177248Y0048600D01*
X0178576Y0047271D01*
X0176466Y0045161D01*
X0177151Y0044476D01*
X0179401Y0042227D01*
X0180590Y0043416D01*
X0180787Y0043758D01*
X0180889Y0044139D01*
X0180889Y0044534D01*
X0180787Y0044916D01*
X0180590Y0045258D01*
X0179261Y0046586D01*
X0177151Y0044476D01*
X0176466Y0043791D01*
X0174356Y0041681D01*
X0175684Y0040353D01*
X0176027Y0040155D01*
X0176408Y0040053D01*
X0176803Y0040053D01*
X0177184Y0040155D01*
X0177527Y0040353D01*
X0178716Y0041542D01*
X0176466Y0043791D01*
X0175781Y0044476D01*
X0173671Y0042366D01*
X0172343Y0043694D01*
X0172145Y0044036D01*
X0172043Y0044418D01*
X0172043Y0044813D01*
X0172093Y0044998D01*
X0171340Y0044998D01*
X0167523Y0048815D01*
X0167523Y0049637D01*
X0167332Y0049827D01*
X0166925Y0050810D01*
X0166925Y0051875D01*
X0167332Y0052858D01*
X0168085Y0053610D01*
X0167295Y0052767D02*
X0153112Y0052767D01*
X0153275Y0051768D02*
X0166925Y0051768D01*
X0166942Y0050770D02*
X0153051Y0050770D01*
X0152311Y0049771D02*
X0167389Y0049771D01*
X0167565Y0048773D02*
X0149556Y0048773D01*
X0148889Y0049771D02*
X0148558Y0049771D01*
X0148068Y0050770D02*
X0147559Y0050770D01*
X0147070Y0051768D02*
X0146561Y0051768D01*
X0146071Y0052767D02*
X0145562Y0052767D01*
X0145073Y0053765D02*
X0144564Y0053765D01*
X0144756Y0054764D02*
X0143565Y0054764D01*
X0148966Y0054476D02*
X0150600Y0051842D01*
X0150555Y0047774D02*
X0168564Y0047774D01*
X0169562Y0046775D02*
X0151553Y0046775D01*
X0152552Y0045777D02*
X0170561Y0045777D01*
X0172043Y0044778D02*
X0153550Y0044778D01*
X0154549Y0043780D02*
X0172294Y0043780D01*
X0173256Y0042781D02*
X0155547Y0042781D01*
X0156546Y0041783D02*
X0174458Y0041783D01*
X0174087Y0042781D02*
X0175456Y0042781D01*
X0175085Y0043780D02*
X0176455Y0043780D01*
X0176478Y0043780D02*
X0177847Y0043780D01*
X0177476Y0042781D02*
X0178846Y0042781D01*
X0178475Y0041783D02*
X0205588Y0041783D01*
X0205588Y0040784D02*
X0177958Y0040784D01*
X0175253Y0040784D02*
X0157544Y0040784D01*
X0158543Y0039786D02*
X0206055Y0039786D01*
X0208769Y0042781D02*
X0179955Y0042781D01*
X0180793Y0043780D02*
X0193380Y0043780D01*
X0193585Y0043575D02*
X0194568Y0043168D01*
X0195632Y0043168D01*
X0196615Y0043575D01*
X0197368Y0044327D01*
X0197775Y0045310D01*
X0197775Y0045909D01*
X0197985Y0046119D01*
X0198081Y0045953D01*
X0198360Y0045674D01*
X0198702Y0045476D01*
X0199084Y0045374D01*
X0200962Y0045374D01*
X0200962Y0048358D01*
X0201931Y0048358D01*
X0201931Y0049327D01*
X0200962Y0049327D01*
X0200962Y0052311D01*
X0199084Y0052311D01*
X0198702Y0052209D01*
X0198360Y0052011D01*
X0198081Y0051732D01*
X0197985Y0051566D01*
X0197452Y0052098D01*
X0196841Y0052098D01*
X0196841Y0053587D01*
X0197452Y0053587D01*
X0197985Y0054119D01*
X0198081Y0053953D01*
X0198360Y0053674D01*
X0198702Y0053476D01*
X0199084Y0053374D01*
X0200962Y0053374D01*
X0200962Y0056358D01*
X0201931Y0056358D01*
X0201931Y0057327D01*
X0205112Y0057327D01*
X0205112Y0059008D01*
X0205010Y0059390D01*
X0204812Y0059732D01*
X0204533Y0060011D01*
X0204191Y0060209D01*
X0203809Y0060311D01*
X0201931Y0060311D01*
X0201931Y0057327D01*
X0200962Y0057327D01*
X0200962Y0060311D01*
X0199084Y0060311D01*
X0198702Y0060209D01*
X0198360Y0060011D01*
X0198081Y0059732D01*
X0197985Y0059566D01*
X0197452Y0060098D01*
X0192055Y0060098D01*
X0191301Y0059344D01*
X0191301Y0054341D01*
X0192055Y0053587D01*
X0192666Y0053587D01*
X0192666Y0052098D01*
X0192055Y0052098D01*
X0191301Y0051344D01*
X0191301Y0046341D01*
X0192055Y0045587D01*
X0192425Y0045587D01*
X0192425Y0045310D01*
X0192832Y0044327D01*
X0193585Y0043575D01*
X0192646Y0044778D02*
X0180824Y0044778D01*
X0180071Y0045777D02*
X0191865Y0045777D01*
X0191301Y0046775D02*
X0178081Y0046775D01*
X0178074Y0047774D02*
X0191301Y0047774D01*
X0191301Y0048773D02*
X0176949Y0048773D01*
X0175776Y0049771D02*
X0191301Y0049771D01*
X0191301Y0050770D02*
X0174777Y0050770D01*
X0173779Y0051768D02*
X0191725Y0051768D01*
X0192666Y0052767D02*
X0172780Y0052767D01*
X0170741Y0053765D02*
X0191876Y0053765D01*
X0191301Y0056761D02*
X0159301Y0056761D01*
X0160046Y0057759D02*
X0191301Y0057759D01*
X0191301Y0058758D02*
X0160275Y0058758D01*
X0160117Y0059756D02*
X0191713Y0059756D01*
X0197794Y0059756D02*
X0198105Y0059756D01*
X0200962Y0059756D02*
X0201931Y0059756D01*
X0201931Y0058758D02*
X0200962Y0058758D01*
X0200962Y0057759D02*
X0201931Y0057759D01*
X0201931Y0056761D02*
X0206080Y0056761D01*
X0205112Y0056358D02*
X0205112Y0054676D01*
X0205010Y0054295D01*
X0204812Y0053953D01*
X0204533Y0053674D01*
X0204191Y0053476D01*
X0203809Y0053374D01*
X0201931Y0053374D01*
X0201931Y0056358D01*
X0205112Y0056358D01*
X0205112Y0055762D02*
X0213398Y0055762D01*
X0213293Y0054764D02*
X0205112Y0054764D01*
X0204624Y0053765D02*
X0205921Y0053765D01*
X0205888Y0053732D02*
X0205690Y0053390D01*
X0205588Y0053008D01*
X0205588Y0051327D01*
X0208769Y0051327D01*
X0208769Y0054311D01*
X0206891Y0054311D01*
X0206509Y0054209D01*
X0206167Y0054011D01*
X0205888Y0053732D01*
X0205588Y0052767D02*
X0196841Y0052767D01*
X0197631Y0053765D02*
X0198269Y0053765D01*
X0200962Y0053765D02*
X0201931Y0053765D01*
X0201931Y0054764D02*
X0200962Y0054764D01*
X0200962Y0055762D02*
X0201931Y0055762D01*
X0205112Y0057759D02*
X0205588Y0057759D01*
X0205588Y0058758D02*
X0205112Y0058758D01*
X0204788Y0059756D02*
X0208769Y0059756D01*
X0208769Y0060327D02*
X0205588Y0060327D01*
X0205588Y0062008D01*
X0205690Y0062390D01*
X0205888Y0062732D01*
X0206167Y0063011D01*
X0206509Y0063209D01*
X0206891Y0063311D01*
X0208769Y0063311D01*
X0208769Y0060327D01*
X0208769Y0060755D02*
X0209738Y0060755D01*
X0209738Y0061753D02*
X0208769Y0061753D01*
X0208769Y0062752D02*
X0209738Y0062752D01*
X0212600Y0062752D02*
X0212901Y0062752D01*
X0213859Y0063750D02*
X0157297Y0063750D01*
X0158295Y0062752D02*
X0205908Y0062752D01*
X0205588Y0061753D02*
X0159294Y0061753D01*
X0159677Y0060755D02*
X0205588Y0060755D01*
X0208769Y0058758D02*
X0209738Y0058758D01*
X0209738Y0057759D02*
X0208769Y0057759D01*
X0208769Y0056761D02*
X0209738Y0056761D01*
X0212427Y0056761D02*
X0212946Y0056761D01*
X0215446Y0057496D02*
X0215600Y0057342D01*
X0215446Y0057496D02*
X0215946Y0059842D01*
X0219399Y0059756D02*
X0255813Y0059756D01*
X0255813Y0058758D02*
X0219399Y0058758D01*
X0219399Y0057759D02*
X0255813Y0057759D01*
X0255813Y0056761D02*
X0218819Y0056761D01*
X0217802Y0055762D02*
X0255813Y0055762D01*
X0255813Y0054764D02*
X0217907Y0054764D01*
X0218978Y0053765D02*
X0255813Y0053765D01*
X0255813Y0052767D02*
X0219399Y0052767D01*
X0219399Y0051768D02*
X0255813Y0051768D01*
X0255813Y0050770D02*
X0219399Y0050770D01*
X0219399Y0049771D02*
X0255813Y0049771D01*
X0255813Y0048773D02*
X0219399Y0048773D01*
X0218832Y0047774D02*
X0255813Y0047774D01*
X0255813Y0046775D02*
X0218034Y0046775D01*
X0218966Y0045777D02*
X0255813Y0045777D01*
X0255813Y0044778D02*
X0219399Y0044778D01*
X0219399Y0043780D02*
X0255813Y0043780D01*
X0255813Y0042781D02*
X0219399Y0042781D01*
X0219399Y0041783D02*
X0255813Y0041783D01*
X0255813Y0040784D02*
X0219399Y0040784D01*
X0218844Y0039786D02*
X0223495Y0039786D01*
X0223473Y0039777D02*
X0222666Y0038969D01*
X0222228Y0037914D01*
X0222228Y0036771D01*
X0222666Y0035716D01*
X0223473Y0034908D01*
X0224529Y0034471D01*
X0225671Y0034471D01*
X0225769Y0034511D01*
X0225728Y0034414D01*
X0225728Y0033271D01*
X0226166Y0032216D01*
X0226973Y0031408D01*
X0228029Y0030971D01*
X0229171Y0030971D01*
X0230227Y0031408D01*
X0231034Y0032216D01*
X0231472Y0033271D01*
X0231472Y0034414D01*
X0231034Y0035469D01*
X0230227Y0036277D01*
X0229171Y0036714D01*
X0228029Y0036714D01*
X0227931Y0036674D01*
X0227972Y0036771D01*
X0227972Y0037914D01*
X0227534Y0038969D01*
X0226727Y0039777D01*
X0225671Y0040214D01*
X0224529Y0040214D01*
X0223473Y0039777D01*
X0222590Y0038787D02*
X0214041Y0038787D01*
X0213048Y0039786D02*
X0212452Y0039786D01*
X0215040Y0037789D02*
X0222228Y0037789D01*
X0222228Y0036790D02*
X0216038Y0036790D01*
X0217037Y0035792D02*
X0222634Y0035792D01*
X0223750Y0034793D02*
X0218035Y0034793D01*
X0219034Y0033795D02*
X0225728Y0033795D01*
X0225925Y0032796D02*
X0220032Y0032796D01*
X0221031Y0031798D02*
X0226584Y0031798D01*
X0230616Y0031798D02*
X0234084Y0031798D01*
X0234473Y0031408D02*
X0233666Y0032216D01*
X0233228Y0033271D01*
X0233228Y0034414D01*
X0233666Y0035469D01*
X0234473Y0036277D01*
X0235529Y0036714D01*
X0236671Y0036714D01*
X0237727Y0036277D01*
X0238534Y0035469D01*
X0238972Y0034414D01*
X0238972Y0033271D01*
X0238534Y0032216D01*
X0237727Y0031408D01*
X0236671Y0030971D01*
X0235529Y0030971D01*
X0234473Y0031408D01*
X0233425Y0032796D02*
X0231275Y0032796D01*
X0231472Y0033795D02*
X0233228Y0033795D01*
X0233386Y0034793D02*
X0231314Y0034793D01*
X0230712Y0035792D02*
X0233988Y0035792D01*
X0238212Y0035792D02*
X0241488Y0035792D01*
X0241166Y0035469D02*
X0240728Y0034414D01*
X0240728Y0033271D01*
X0241166Y0032216D01*
X0241973Y0031408D01*
X0243029Y0030971D01*
X0244171Y0030971D01*
X0245227Y0031408D01*
X0246034Y0032216D01*
X0246472Y0033271D01*
X0246472Y0034414D01*
X0246034Y0035469D01*
X0245227Y0036277D01*
X0244171Y0036714D01*
X0243029Y0036714D01*
X0241973Y0036277D01*
X0241166Y0035469D01*
X0240886Y0034793D02*
X0238814Y0034793D01*
X0238972Y0033795D02*
X0240728Y0033795D01*
X0240925Y0032796D02*
X0238775Y0032796D01*
X0238116Y0031798D02*
X0241584Y0031798D01*
X0245616Y0031798D02*
X0255813Y0031798D01*
X0255813Y0032796D02*
X0246275Y0032796D01*
X0246472Y0033795D02*
X0255813Y0033795D01*
X0255813Y0034793D02*
X0246314Y0034793D01*
X0245712Y0035792D02*
X0255813Y0035792D01*
X0255813Y0036790D02*
X0227972Y0036790D01*
X0227972Y0037789D02*
X0255813Y0037789D01*
X0255813Y0038787D02*
X0227610Y0038787D01*
X0226705Y0039786D02*
X0255813Y0039786D01*
X0255813Y0030799D02*
X0222030Y0030799D01*
X0223028Y0029801D02*
X0255813Y0029801D01*
X0255813Y0028802D02*
X0224027Y0028802D01*
X0225025Y0027804D02*
X0255813Y0027804D01*
X0255813Y0026805D02*
X0226024Y0026805D01*
X0227022Y0025807D02*
X0255813Y0025807D01*
X0255813Y0024808D02*
X0228021Y0024808D01*
X0229019Y0023810D02*
X0255813Y0023810D01*
X0255813Y0022811D02*
X0230018Y0022811D01*
X0231016Y0021813D02*
X0255813Y0021813D01*
X0255813Y0020814D02*
X0253189Y0020814D01*
X0253534Y0020469D02*
X0252727Y0021277D01*
X0251671Y0021714D01*
X0250529Y0021714D01*
X0249473Y0021277D01*
X0248666Y0020469D01*
X0248228Y0019414D01*
X0248228Y0018271D01*
X0248666Y0017216D01*
X0249473Y0016408D01*
X0250529Y0015971D01*
X0251671Y0015971D01*
X0252727Y0016408D01*
X0253534Y0017216D01*
X0253972Y0018271D01*
X0253972Y0019414D01*
X0253534Y0020469D01*
X0253805Y0019816D02*
X0255813Y0019816D01*
X0255813Y0018817D02*
X0253972Y0018817D01*
X0253784Y0017819D02*
X0255813Y0017819D01*
X0255813Y0016820D02*
X0253139Y0016820D01*
X0255813Y0015822D02*
X0246882Y0015822D01*
X0246639Y0016820D02*
X0249061Y0016820D01*
X0248416Y0017819D02*
X0247284Y0017819D01*
X0247472Y0018817D02*
X0248228Y0018817D01*
X0248395Y0019816D02*
X0247305Y0019816D01*
X0246689Y0020814D02*
X0249011Y0020814D01*
X0242511Y0020814D02*
X0240189Y0020814D01*
X0240805Y0019816D02*
X0241895Y0019816D01*
X0241728Y0018817D02*
X0240972Y0018817D01*
X0240784Y0017819D02*
X0241916Y0017819D01*
X0242561Y0016820D02*
X0240139Y0016820D01*
X0236061Y0016820D02*
X0236009Y0016820D01*
X0235416Y0017819D02*
X0235010Y0017819D01*
X0235228Y0018817D02*
X0234012Y0018817D01*
X0233013Y0019816D02*
X0235395Y0019816D01*
X0236011Y0020814D02*
X0232015Y0020814D01*
X0227734Y0015822D02*
X0220882Y0015822D01*
X0221275Y0014823D02*
X0228733Y0014823D01*
X0228925Y0013825D02*
X0221275Y0013825D01*
X0220866Y0012826D02*
X0229334Y0012826D01*
X0230682Y0011828D02*
X0219518Y0011828D01*
X0217682Y0011828D02*
X0211288Y0011828D01*
X0211300Y0010829D02*
X0255813Y0010829D01*
X0255813Y0009831D02*
X0211300Y0009831D01*
X0211300Y0008832D02*
X0255813Y0008832D01*
X0255813Y0007834D02*
X0211300Y0007834D01*
X0216334Y0012826D02*
X0134500Y0012826D01*
X0134401Y0012727D02*
X0135590Y0013916D01*
X0135787Y0014258D01*
X0135889Y0014639D01*
X0135889Y0015034D01*
X0135787Y0015416D01*
X0135590Y0015758D01*
X0134261Y0017086D01*
X0132151Y0014976D01*
X0134401Y0012727D01*
X0134301Y0012826D02*
X0132931Y0012826D01*
X0133303Y0013825D02*
X0131933Y0013825D01*
X0131466Y0014291D02*
X0132151Y0014976D01*
X0131466Y0015661D01*
X0133576Y0017771D01*
X0132248Y0019100D01*
X0131906Y0019297D01*
X0131525Y0019399D01*
X0131130Y0019399D01*
X0130944Y0019350D01*
X0130944Y0020103D01*
X0128264Y0022783D01*
X0128275Y0022810D01*
X0128275Y0023875D01*
X0127868Y0024858D01*
X0127115Y0025610D01*
X0126132Y0026017D01*
X0125068Y0026017D01*
X0124085Y0025610D01*
X0123332Y0024858D01*
X0122925Y0023875D01*
X0122925Y0022810D01*
X0123332Y0021827D01*
X0123651Y0021509D01*
X0122523Y0020381D01*
X0122523Y0019315D01*
X0126340Y0015498D01*
X0127093Y0015498D01*
X0127043Y0015313D01*
X0127043Y0014918D01*
X0127145Y0014536D01*
X0127343Y0014194D01*
X0128671Y0012866D01*
X0130781Y0014976D01*
X0131466Y0014291D01*
X0129356Y0012181D01*
X0130684Y0010853D01*
X0131027Y0010655D01*
X0131408Y0010553D01*
X0131803Y0010553D01*
X0132184Y0010655D01*
X0132527Y0010853D01*
X0133716Y0012042D01*
X0131466Y0014291D01*
X0131000Y0013825D02*
X0129630Y0013825D01*
X0130001Y0012826D02*
X0113188Y0012826D01*
X0113677Y0013825D02*
X0127713Y0013825D01*
X0127069Y0014823D02*
X0113235Y0014823D01*
X0115362Y0015822D02*
X0126016Y0015822D01*
X0125018Y0016820D02*
X0116072Y0016820D01*
X0116275Y0017819D02*
X0124019Y0017819D01*
X0123021Y0018817D02*
X0116091Y0018817D01*
X0115410Y0019816D02*
X0122523Y0019816D01*
X0122956Y0020814D02*
X0106176Y0020814D01*
X0106353Y0021813D02*
X0123347Y0021813D01*
X0122925Y0022811D02*
X0106775Y0022811D01*
X0106775Y0023810D02*
X0122925Y0023810D01*
X0123312Y0024808D02*
X0106388Y0024808D01*
X0105140Y0025807D02*
X0124560Y0025807D01*
X0126640Y0025807D02*
X0128903Y0025807D01*
X0128880Y0026805D02*
X0100677Y0026805D01*
X0101065Y0027804D02*
X0129645Y0027804D01*
X0129729Y0024808D02*
X0127888Y0024808D01*
X0128275Y0023810D02*
X0131520Y0023810D01*
X0131726Y0022811D02*
X0128275Y0022811D01*
X0129234Y0021813D02*
X0133075Y0021813D01*
X0133671Y0021813D02*
X0133756Y0021813D01*
X0134024Y0020814D02*
X0130233Y0020814D01*
X0130944Y0019816D02*
X0135022Y0019816D01*
X0136021Y0018817D02*
X0132530Y0018817D01*
X0133529Y0017819D02*
X0137019Y0017819D01*
X0139200Y0016820D02*
X0134527Y0016820D01*
X0133995Y0016820D02*
X0132625Y0016820D01*
X0132997Y0015822D02*
X0131627Y0015822D01*
X0131998Y0014823D02*
X0132304Y0014823D01*
X0130934Y0014823D02*
X0130628Y0014823D01*
X0129710Y0011828D02*
X0112190Y0011828D01*
X0111191Y0010829D02*
X0130726Y0010829D01*
X0132485Y0010829D02*
X0189800Y0010829D01*
X0189800Y0009831D02*
X0110193Y0009831D01*
X0109134Y0008832D02*
X0189800Y0008832D01*
X0189800Y0007834D02*
X0108496Y0007834D01*
X0105563Y0008832D02*
X0105275Y0008832D01*
X0104276Y0007834D02*
X0102906Y0007834D01*
X0103277Y0006835D02*
X0101908Y0006835D01*
X0101691Y0006835D02*
X0079620Y0006835D01*
X0078622Y0005837D02*
X0102690Y0005837D01*
X0103699Y0004838D02*
X0077623Y0004838D01*
X0076100Y0005842D02*
X0012100Y0005842D01*
X0018998Y0009831D02*
X0036202Y0009831D01*
X0037200Y0010829D02*
X0035032Y0010829D01*
X0034447Y0010587D02*
X0036011Y0011234D01*
X0037208Y0012432D01*
X0037856Y0013996D01*
X0037856Y0015689D01*
X0037208Y0017253D01*
X0036011Y0018450D01*
X0034447Y0019098D01*
X0032753Y0019098D01*
X0031189Y0018450D01*
X0029992Y0017253D01*
X0029344Y0015689D01*
X0029344Y0013996D01*
X0029992Y0012432D01*
X0031189Y0011234D01*
X0032753Y0010587D01*
X0034447Y0010587D01*
X0032168Y0010829D02*
X0025032Y0010829D01*
X0026604Y0011828D02*
X0030596Y0011828D01*
X0029829Y0012826D02*
X0027371Y0012826D01*
X0027785Y0013825D02*
X0029415Y0013825D01*
X0029344Y0014823D02*
X0027856Y0014823D01*
X0027801Y0015822D02*
X0029399Y0015822D01*
X0029813Y0016820D02*
X0027387Y0016820D01*
X0026643Y0017819D02*
X0030557Y0017819D01*
X0032075Y0018817D02*
X0025125Y0018817D01*
X0024646Y0020484D02*
X0025315Y0020701D01*
X0025942Y0021021D01*
X0026511Y0021434D01*
X0027008Y0021931D01*
X0027422Y0022500D01*
X0027741Y0023127D01*
X0027958Y0023796D01*
X0028047Y0024358D01*
X0024084Y0024358D01*
X0024084Y0020395D01*
X0024646Y0020484D01*
X0024084Y0020814D02*
X0023116Y0020814D01*
X0023116Y0020395D02*
X0023116Y0024358D01*
X0024084Y0024358D01*
X0024084Y0025327D01*
X0023116Y0025327D01*
X0023116Y0029290D01*
X0022554Y0029201D01*
X0021885Y0028984D01*
X0021258Y0028664D01*
X0020689Y0028251D01*
X0020192Y0027754D01*
X0019778Y0027184D01*
X0019459Y0026558D01*
X0019242Y0025889D01*
X0019152Y0025327D01*
X0023116Y0025327D01*
X0023116Y0024358D01*
X0019152Y0024358D01*
X0019242Y0023796D01*
X0019459Y0023127D01*
X0019778Y0022500D01*
X0020192Y0021931D01*
X0020689Y0021434D01*
X0021258Y0021021D01*
X0021885Y0020701D01*
X0022554Y0020484D01*
X0023116Y0020395D01*
X0023116Y0021813D02*
X0024084Y0021813D01*
X0024084Y0022811D02*
X0023116Y0022811D01*
X0023116Y0023810D02*
X0024084Y0023810D01*
X0024084Y0024808D02*
X0029344Y0024808D01*
X0029344Y0023996D02*
X0029344Y0025689D01*
X0029992Y0027253D01*
X0031189Y0028450D01*
X0032753Y0029098D01*
X0034447Y0029098D01*
X0036011Y0028450D01*
X0037208Y0027253D01*
X0037856Y0025689D01*
X0037856Y0023996D01*
X0037208Y0022432D01*
X0036011Y0021234D01*
X0034447Y0020587D01*
X0032753Y0020587D01*
X0031189Y0021234D01*
X0029992Y0022432D01*
X0029344Y0023996D01*
X0029421Y0023810D02*
X0027961Y0023810D01*
X0027580Y0022811D02*
X0029835Y0022811D01*
X0030611Y0021813D02*
X0026890Y0021813D01*
X0025537Y0020814D02*
X0032204Y0020814D01*
X0034996Y0020814D02*
X0042204Y0020814D01*
X0042753Y0020587D02*
X0044447Y0020587D01*
X0046011Y0021234D01*
X0047208Y0022432D01*
X0047856Y0023996D01*
X0047856Y0025689D01*
X0047208Y0027253D01*
X0046011Y0028450D01*
X0044447Y0029098D01*
X0042753Y0029098D01*
X0041189Y0028450D01*
X0039992Y0027253D01*
X0039344Y0025689D01*
X0039344Y0023996D01*
X0039992Y0022432D01*
X0041189Y0021234D01*
X0042753Y0020587D01*
X0042075Y0018817D02*
X0035125Y0018817D01*
X0036643Y0017819D02*
X0040557Y0017819D01*
X0039813Y0016820D02*
X0037387Y0016820D01*
X0037801Y0015822D02*
X0039399Y0015822D01*
X0039344Y0014823D02*
X0037856Y0014823D01*
X0037785Y0013825D02*
X0039415Y0013825D01*
X0039197Y0012826D02*
X0037371Y0012826D01*
X0036604Y0011828D02*
X0038199Y0011828D01*
X0040974Y0009831D02*
X0077425Y0009831D01*
X0077613Y0010829D02*
X0065032Y0010829D01*
X0066604Y0011828D02*
X0070314Y0011828D01*
X0069998Y0012826D02*
X0067371Y0012826D01*
X0062168Y0010829D02*
X0055032Y0010829D01*
X0056604Y0011828D02*
X0060596Y0011828D01*
X0059829Y0012826D02*
X0057371Y0012826D01*
X0057785Y0013825D02*
X0059415Y0013825D01*
X0059344Y0014823D02*
X0057856Y0014823D01*
X0057801Y0015822D02*
X0059399Y0015822D01*
X0059813Y0016820D02*
X0057387Y0016820D01*
X0049813Y0016820D02*
X0047964Y0016820D01*
X0047801Y0015822D02*
X0049399Y0015822D01*
X0049344Y0014823D02*
X0047856Y0014823D01*
X0047785Y0013825D02*
X0049415Y0013825D01*
X0049829Y0012826D02*
X0047371Y0012826D01*
X0046604Y0011828D02*
X0050596Y0011828D01*
X0052168Y0010829D02*
X0045032Y0010829D01*
X0042168Y0010829D02*
X0041973Y0010829D01*
X0039976Y0008832D02*
X0076562Y0008832D01*
X0075563Y0007834D02*
X0038977Y0007834D01*
X0022168Y0010829D02*
X0018000Y0010829D01*
X0017001Y0011828D02*
X0020596Y0011828D01*
X0019829Y0012826D02*
X0017202Y0012826D01*
X0017202Y0013825D02*
X0019415Y0013825D01*
X0019344Y0014823D02*
X0017202Y0014823D01*
X0017202Y0015822D02*
X0019399Y0015822D01*
X0019236Y0016820D02*
X0017202Y0016820D01*
X0016925Y0017819D02*
X0018237Y0017819D01*
X0021013Y0019816D02*
X0046187Y0019816D01*
X0047185Y0020814D02*
X0044996Y0020814D01*
X0046589Y0021813D02*
X0050611Y0021813D01*
X0049835Y0022811D02*
X0047365Y0022811D01*
X0047779Y0023810D02*
X0049421Y0023810D01*
X0049344Y0024808D02*
X0047856Y0024808D01*
X0047807Y0025807D02*
X0049393Y0025807D01*
X0049806Y0026805D02*
X0047394Y0026805D01*
X0046657Y0027804D02*
X0050543Y0027804D01*
X0052039Y0028802D02*
X0045161Y0028802D01*
X0042039Y0028802D02*
X0035161Y0028802D01*
X0036657Y0027804D02*
X0040543Y0027804D01*
X0039806Y0026805D02*
X0037394Y0026805D01*
X0037807Y0025807D02*
X0039393Y0025807D01*
X0039344Y0024808D02*
X0037856Y0024808D01*
X0037779Y0023810D02*
X0039421Y0023810D01*
X0039835Y0022811D02*
X0037365Y0022811D01*
X0036589Y0021813D02*
X0040611Y0021813D01*
X0045125Y0018817D02*
X0045188Y0018817D01*
X0056589Y0021813D02*
X0060310Y0021813D01*
X0059620Y0022811D02*
X0057365Y0022811D01*
X0057779Y0023810D02*
X0059239Y0023810D01*
X0057856Y0024808D02*
X0063116Y0024808D01*
X0064084Y0024808D02*
X0073425Y0024808D01*
X0073604Y0025807D02*
X0067971Y0025807D01*
X0067615Y0026805D02*
X0074280Y0026805D01*
X0072681Y0023810D02*
X0067961Y0023810D01*
X0067580Y0022811D02*
X0071682Y0022811D01*
X0070684Y0021813D02*
X0066890Y0021813D01*
X0064084Y0025807D02*
X0063116Y0025807D01*
X0063116Y0026805D02*
X0064084Y0026805D01*
X0064084Y0027804D02*
X0063116Y0027804D01*
X0063116Y0028802D02*
X0064084Y0028802D01*
X0061529Y0028802D02*
X0055161Y0028802D01*
X0056657Y0027804D02*
X0060242Y0027804D01*
X0059585Y0026805D02*
X0057394Y0026805D01*
X0057807Y0025807D02*
X0059229Y0025807D01*
X0072287Y0018644D02*
X0072287Y0018644D01*
X0072461Y0018817D02*
X0089709Y0018817D01*
X0090258Y0019816D02*
X0088888Y0019816D01*
X0088711Y0019816D02*
X0073460Y0019816D01*
X0074458Y0020814D02*
X0087712Y0020814D01*
X0087311Y0021813D02*
X0075457Y0021813D01*
X0077851Y0022811D02*
X0087664Y0022811D01*
X0089887Y0020814D02*
X0091257Y0020814D01*
X0092255Y0021813D02*
X0092582Y0021813D01*
X0095477Y0020814D02*
X0096858Y0020814D01*
X0096129Y0021813D02*
X0097966Y0021813D01*
X0097173Y0022811D02*
X0098964Y0022811D01*
X0098172Y0023810D02*
X0099963Y0023810D01*
X0099170Y0024808D02*
X0100961Y0024808D01*
X0100169Y0025807D02*
X0103060Y0025807D01*
X0104100Y0023342D02*
X0104100Y0023342D01*
X0101966Y0021209D01*
X0104179Y0018817D02*
X0111109Y0018817D01*
X0110925Y0017819D02*
X0110239Y0017819D01*
X0108972Y0017819D02*
X0103181Y0017819D01*
X0101655Y0016820D02*
X0107973Y0016820D01*
X0106975Y0015822D02*
X0101431Y0015822D01*
X0096266Y0014823D02*
X0094896Y0014823D01*
X0095267Y0013825D02*
X0083202Y0013825D01*
X0083202Y0014823D02*
X0093703Y0014823D01*
X0092896Y0015822D02*
X0083202Y0015822D01*
X0083202Y0016820D02*
X0092887Y0016820D01*
X0092456Y0017819D02*
X0093671Y0017819D01*
X0090733Y0017819D02*
X0082925Y0017819D01*
X0079946Y0014842D02*
X0080100Y0014689D01*
X0080100Y0009842D01*
X0076100Y0005842D01*
X0081874Y0007834D02*
X0100693Y0007834D01*
X0100311Y0008832D02*
X0082577Y0008832D01*
X0082775Y0009831D02*
X0100683Y0009831D01*
X0095700Y0012826D02*
X0083202Y0012826D01*
X0077007Y0011828D02*
X0076193Y0011828D01*
X0076509Y0012826D02*
X0076691Y0012826D01*
X0076691Y0013825D02*
X0076509Y0013825D01*
X0076509Y0014823D02*
X0076691Y0014823D01*
X0076691Y0015822D02*
X0076509Y0015822D01*
X0076509Y0016820D02*
X0076691Y0016820D01*
X0076968Y0017819D02*
X0076232Y0017819D01*
X0078725Y0029801D02*
X0004387Y0029801D01*
X0004387Y0030799D02*
X0078242Y0030799D01*
X0081464Y0029801D02*
X0094954Y0029801D01*
X0095952Y0030799D02*
X0082226Y0030799D01*
X0084966Y0038209D02*
X0087100Y0040342D01*
X0087100Y0040342D01*
X0090276Y0043780D02*
X0068424Y0043780D01*
X0072067Y0055762D02*
X0089737Y0055762D01*
X0093463Y0055762D02*
X0098294Y0055762D01*
X0099293Y0054764D02*
X0094114Y0054764D01*
X0094275Y0053765D02*
X0100291Y0053765D01*
X0101290Y0052767D02*
X0097459Y0052767D01*
X0098112Y0051768D02*
X0101743Y0051768D01*
X0101089Y0050770D02*
X0098275Y0050770D01*
X0098051Y0049771D02*
X0100925Y0049771D01*
X0101148Y0048773D02*
X0097313Y0048773D01*
X0095055Y0047774D02*
X0101886Y0047774D01*
X0097296Y0056761D02*
X0071856Y0056761D01*
X0073299Y0057759D02*
X0096297Y0057759D01*
X0095298Y0058758D02*
X0073753Y0058758D01*
X0073775Y0059756D02*
X0094300Y0059756D01*
X0102082Y0065747D02*
X0146311Y0065747D01*
X0146597Y0066746D02*
X0101083Y0066746D01*
X0100085Y0067744D02*
X0147586Y0067744D01*
X0148013Y0067744D02*
X0149383Y0067744D01*
X0149012Y0066746D02*
X0150382Y0066746D01*
X0151086Y0066746D02*
X0152455Y0066746D01*
X0152084Y0067744D02*
X0153454Y0067744D01*
X0153603Y0067744D02*
X0208769Y0067744D01*
X0208769Y0068327D02*
X0205588Y0068327D01*
X0205588Y0070008D01*
X0205690Y0070390D01*
X0205888Y0070732D01*
X0206167Y0071011D01*
X0206509Y0071209D01*
X0206891Y0071311D01*
X0208769Y0071311D01*
X0208769Y0068327D01*
X0208769Y0068743D02*
X0209738Y0068743D01*
X0209738Y0069741D02*
X0208769Y0069741D01*
X0208769Y0070740D02*
X0209738Y0070740D01*
X0212611Y0070740D02*
X0212889Y0070740D01*
X0205896Y0070740D02*
X0162285Y0070740D01*
X0162844Y0070181D02*
X0161516Y0068853D01*
X0161173Y0068655D01*
X0160792Y0068553D01*
X0160397Y0068553D01*
X0160016Y0068655D01*
X0159673Y0068853D01*
X0158484Y0070042D01*
X0160734Y0072291D01*
X0161419Y0072976D01*
X0163529Y0070866D01*
X0164857Y0072194D01*
X0165055Y0072536D01*
X0165157Y0072918D01*
X0165157Y0073313D01*
X0165107Y0073498D01*
X0165860Y0073498D01*
X0169677Y0077315D01*
X0169677Y0078381D01*
X0169620Y0078438D01*
X0169775Y0078810D01*
X0169775Y0079875D01*
X0169368Y0080858D01*
X0168615Y0081610D01*
X0167632Y0082017D01*
X0166568Y0082017D01*
X0166195Y0081863D01*
X0166139Y0081919D01*
X0165072Y0081919D01*
X0161256Y0078103D01*
X0161256Y0077350D01*
X0161070Y0077399D01*
X0160675Y0077399D01*
X0160294Y0077297D01*
X0159952Y0077100D01*
X0158624Y0075771D01*
X0160734Y0073661D01*
X0160049Y0072976D01*
X0160734Y0072291D01*
X0162844Y0070181D01*
X0162404Y0069741D02*
X0205588Y0069741D01*
X0205588Y0068743D02*
X0161325Y0068743D01*
X0159864Y0068743D02*
X0152605Y0068743D01*
X0151606Y0069741D02*
X0158785Y0069741D01*
X0159182Y0070740D02*
X0157812Y0070740D01*
X0157799Y0070727D02*
X0160049Y0072976D01*
X0157939Y0075086D01*
X0156610Y0073758D01*
X0156413Y0073416D01*
X0156311Y0073034D01*
X0156311Y0072639D01*
X0156413Y0072258D01*
X0156610Y0071916D01*
X0157799Y0070727D01*
X0157787Y0070740D02*
X0099306Y0070740D01*
X0099132Y0070668D02*
X0100115Y0071075D01*
X0100868Y0071827D01*
X0101275Y0072810D01*
X0101275Y0073065D01*
X0116687Y0088478D01*
X0116687Y0131647D01*
X0116868Y0131827D01*
X0117275Y0132810D01*
X0117275Y0133875D01*
X0116868Y0134858D01*
X0116115Y0135610D01*
X0115132Y0136017D01*
X0114712Y0136017D01*
X0114712Y0136335D01*
X0110896Y0140151D01*
X0110143Y0140151D01*
X0110192Y0140337D01*
X0110192Y0140732D01*
X0110090Y0141113D01*
X0109893Y0141455D01*
X0108564Y0142783D01*
X0106454Y0140673D01*
X0105769Y0141358D01*
X0105084Y0140673D01*
X0105769Y0139988D01*
X0103659Y0137878D01*
X0104987Y0136550D01*
X0105329Y0136352D01*
X0105711Y0136250D01*
X0106106Y0136250D01*
X0106291Y0136300D01*
X0106291Y0135547D01*
X0110108Y0131730D01*
X0111174Y0131730D01*
X0112022Y0132578D01*
X0112332Y0131827D01*
X0112513Y0131647D01*
X0112513Y0090207D01*
X0098323Y0076017D01*
X0098068Y0076017D01*
X0097085Y0075610D01*
X0096332Y0074858D01*
X0095925Y0073875D01*
X0095925Y0072810D01*
X0096332Y0071827D01*
X0097085Y0071075D01*
X0098068Y0070668D01*
X0099132Y0070668D01*
X0097894Y0070740D02*
X0090413Y0070740D01*
X0090027Y0070353D02*
X0091216Y0071542D01*
X0088966Y0073791D01*
X0086856Y0071681D01*
X0088184Y0070353D01*
X0088527Y0070155D01*
X0088908Y0070053D01*
X0089303Y0070053D01*
X0089684Y0070155D01*
X0090027Y0070353D01*
X0091019Y0071738D02*
X0096421Y0071738D01*
X0095956Y0072737D02*
X0092410Y0072737D01*
X0091901Y0072227D02*
X0093090Y0073416D01*
X0093287Y0073758D01*
X0093389Y0074139D01*
X0093389Y0074534D01*
X0093287Y0074916D01*
X0093090Y0075258D01*
X0091761Y0076586D01*
X0089651Y0074476D01*
X0091901Y0072227D01*
X0091391Y0072737D02*
X0090021Y0072737D01*
X0090392Y0073735D02*
X0089022Y0073735D01*
X0088966Y0073791D02*
X0089651Y0074476D01*
X0088966Y0075161D01*
X0091076Y0077271D01*
X0089748Y0078600D01*
X0089406Y0078797D01*
X0089025Y0078899D01*
X0088630Y0078899D01*
X0088444Y0078850D01*
X0088444Y0079603D01*
X0084628Y0083419D01*
X0083806Y0083419D01*
X0083615Y0083610D01*
X0082632Y0084017D01*
X0081568Y0084017D01*
X0080585Y0083610D01*
X0079832Y0082858D01*
X0079425Y0081875D01*
X0079425Y0080810D01*
X0079832Y0079827D01*
X0080023Y0079637D01*
X0080023Y0078815D01*
X0083840Y0074998D01*
X0084593Y0074998D01*
X0084543Y0074813D01*
X0084543Y0074418D01*
X0084645Y0074036D01*
X0084843Y0073694D01*
X0086171Y0072366D01*
X0088281Y0074476D01*
X0088966Y0073791D01*
X0088910Y0073735D02*
X0087541Y0073735D01*
X0087912Y0072737D02*
X0086542Y0072737D01*
X0085800Y0072737D02*
X0081592Y0072737D01*
X0080594Y0073735D02*
X0084819Y0073735D01*
X0084543Y0074734D02*
X0079595Y0074734D01*
X0078596Y0075732D02*
X0083106Y0075732D01*
X0082107Y0076731D02*
X0077598Y0076731D01*
X0076599Y0077729D02*
X0081109Y0077729D01*
X0080110Y0078728D02*
X0075601Y0078728D01*
X0074602Y0079726D02*
X0079933Y0079726D01*
X0079461Y0080725D02*
X0073604Y0080725D01*
X0072605Y0081723D02*
X0079425Y0081723D01*
X0079776Y0082722D02*
X0071607Y0082722D01*
X0070608Y0083720D02*
X0080851Y0083720D01*
X0083349Y0083720D02*
X0087218Y0083720D01*
X0088216Y0082722D02*
X0085325Y0082722D01*
X0086324Y0081723D02*
X0089215Y0081723D01*
X0089940Y0080998D02*
X0090693Y0080998D01*
X0090643Y0080813D01*
X0090643Y0080418D01*
X0090745Y0080036D01*
X0090943Y0079694D01*
X0092271Y0078366D01*
X0094381Y0080476D01*
X0095066Y0079791D01*
X0092956Y0077681D01*
X0094284Y0076353D01*
X0094627Y0076155D01*
X0095008Y0076053D01*
X0095403Y0076053D01*
X0095784Y0076155D01*
X0096127Y0076353D01*
X0097316Y0077542D01*
X0095066Y0079791D01*
X0095751Y0080476D01*
X0098001Y0078227D01*
X0099190Y0079416D01*
X0099387Y0079758D01*
X0099489Y0080139D01*
X0099489Y0080534D01*
X0099387Y0080916D01*
X0099190Y0081258D01*
X0097861Y0082586D01*
X0095751Y0080476D01*
X0095066Y0081161D01*
X0097176Y0083271D01*
X0095848Y0084600D01*
X0095506Y0084797D01*
X0095125Y0084899D01*
X0094730Y0084899D01*
X0094544Y0084850D01*
X0094544Y0085603D01*
X0090728Y0089419D01*
X0089661Y0089419D01*
X0089576Y0089334D01*
X0089132Y0089517D01*
X0088068Y0089517D01*
X0087085Y0089110D01*
X0086332Y0088358D01*
X0085925Y0087375D01*
X0085925Y0086310D01*
X0086123Y0085832D01*
X0086123Y0084815D01*
X0089940Y0080998D01*
X0090643Y0080725D02*
X0087322Y0080725D01*
X0088321Y0079726D02*
X0090924Y0079726D01*
X0091909Y0078728D02*
X0089526Y0078728D01*
X0090618Y0077729D02*
X0093004Y0077729D01*
X0092633Y0078728D02*
X0094003Y0078728D01*
X0093632Y0079726D02*
X0095001Y0079726D01*
X0095131Y0079726D02*
X0096501Y0079726D01*
X0096130Y0078728D02*
X0097499Y0078728D01*
X0098502Y0078728D02*
X0101033Y0078728D01*
X0100035Y0077729D02*
X0097128Y0077729D01*
X0096505Y0076731D02*
X0099036Y0076731D01*
X0097380Y0075732D02*
X0092615Y0075732D01*
X0093336Y0074734D02*
X0096281Y0074734D01*
X0095925Y0073735D02*
X0093274Y0073735D01*
X0090907Y0075732D02*
X0089538Y0075732D01*
X0089394Y0074734D02*
X0089909Y0074734D01*
X0090536Y0076731D02*
X0093906Y0076731D01*
X0095503Y0080725D02*
X0096000Y0080725D01*
X0095629Y0081723D02*
X0096998Y0081723D01*
X0096627Y0082722D02*
X0105027Y0082722D01*
X0104029Y0081723D02*
X0098724Y0081723D01*
X0099438Y0080725D02*
X0103030Y0080725D01*
X0102032Y0079726D02*
X0099369Y0079726D01*
X0103942Y0075732D02*
X0152794Y0075732D01*
X0152484Y0076042D02*
X0153673Y0074853D01*
X0154016Y0074655D01*
X0154397Y0074553D01*
X0154792Y0074553D01*
X0155173Y0074655D01*
X0155516Y0074853D01*
X0156844Y0076181D01*
X0154734Y0078291D01*
X0155419Y0078976D01*
X0157529Y0076866D01*
X0158857Y0078194D01*
X0159055Y0078536D01*
X0159157Y0078918D01*
X0159157Y0079313D01*
X0159107Y0079498D01*
X0159860Y0079498D01*
X0163677Y0083315D01*
X0163677Y0084137D01*
X0163868Y0084327D01*
X0164275Y0085310D01*
X0164275Y0086375D01*
X0163868Y0087358D01*
X0163115Y0088110D01*
X0162132Y0088517D01*
X0161068Y0088517D01*
X0160085Y0088110D01*
X0159894Y0087919D01*
X0159072Y0087919D01*
X0155256Y0084103D01*
X0155256Y0083350D01*
X0155070Y0083399D01*
X0154675Y0083399D01*
X0154294Y0083297D01*
X0153952Y0083100D01*
X0152624Y0081771D01*
X0154734Y0079661D01*
X0154049Y0078976D01*
X0154734Y0078291D01*
X0152484Y0076042D01*
X0151799Y0076727D02*
X0154049Y0078976D01*
X0151939Y0081086D01*
X0150610Y0079758D01*
X0150413Y0079416D01*
X0150311Y0079034D01*
X0150311Y0078639D01*
X0150413Y0078258D01*
X0150610Y0077916D01*
X0151799Y0076727D01*
X0151795Y0076731D02*
X0104940Y0076731D01*
X0105939Y0077729D02*
X0150797Y0077729D01*
X0150311Y0078728D02*
X0106937Y0078728D01*
X0107936Y0079726D02*
X0150592Y0079726D01*
X0151577Y0080725D02*
X0108934Y0080725D01*
X0109933Y0081723D02*
X0152671Y0081723D01*
X0152300Y0080725D02*
X0153670Y0080725D01*
X0153299Y0079726D02*
X0154668Y0079726D01*
X0154297Y0078728D02*
X0153801Y0078728D01*
X0154172Y0077729D02*
X0152802Y0077729D01*
X0153173Y0076731D02*
X0151803Y0076731D01*
X0155170Y0078728D02*
X0155667Y0078728D01*
X0155296Y0077729D02*
X0156665Y0077729D01*
X0156294Y0076731D02*
X0159583Y0076731D01*
X0158662Y0075732D02*
X0156395Y0075732D01*
X0155309Y0074734D02*
X0157586Y0074734D01*
X0158291Y0074734D02*
X0159661Y0074734D01*
X0159290Y0073735D02*
X0160659Y0073735D01*
X0160288Y0072737D02*
X0159809Y0072737D01*
X0160181Y0071738D02*
X0158811Y0071738D01*
X0156788Y0071738D02*
X0100779Y0071738D01*
X0101244Y0072737D02*
X0156311Y0072737D01*
X0156597Y0073735D02*
X0101945Y0073735D01*
X0102943Y0074734D02*
X0153880Y0074734D01*
X0158392Y0077729D02*
X0161256Y0077729D01*
X0161881Y0078728D02*
X0159106Y0078728D01*
X0160088Y0079726D02*
X0162879Y0079726D01*
X0163878Y0080725D02*
X0161087Y0080725D01*
X0162085Y0081723D02*
X0164876Y0081723D01*
X0163084Y0082722D02*
X0212950Y0082722D01*
X0212691Y0082981D02*
X0213443Y0082228D01*
X0214245Y0081896D01*
X0214901Y0081240D01*
X0220299Y0081240D01*
X0221053Y0081994D01*
X0221053Y0086998D01*
X0220299Y0087752D01*
X0214901Y0087752D01*
X0214245Y0087096D01*
X0213443Y0086764D01*
X0212691Y0086011D01*
X0212283Y0085028D01*
X0212283Y0083964D01*
X0212691Y0082981D01*
X0212384Y0083720D02*
X0163677Y0083720D01*
X0164030Y0084719D02*
X0212283Y0084719D01*
X0212569Y0085717D02*
X0164275Y0085717D01*
X0164133Y0086716D02*
X0213395Y0086716D01*
X0214864Y0087714D02*
X0163511Y0087714D01*
X0161600Y0085842D02*
X0161600Y0085342D01*
X0159466Y0083709D01*
X0156870Y0085717D02*
X0113927Y0085717D01*
X0112928Y0084719D02*
X0155872Y0084719D01*
X0155256Y0083720D02*
X0111930Y0083720D01*
X0110931Y0082722D02*
X0153574Y0082722D01*
X0157869Y0086716D02*
X0114925Y0086716D01*
X0115924Y0087714D02*
X0158867Y0087714D01*
X0168342Y0081723D02*
X0214418Y0081723D01*
X0220782Y0081723D02*
X0222418Y0081723D01*
X0222344Y0081797D02*
X0223098Y0081043D01*
X0223913Y0081043D01*
X0223913Y0078938D01*
X0223332Y0078358D01*
X0222925Y0077375D01*
X0222925Y0076310D01*
X0223332Y0075327D01*
X0224085Y0074575D01*
X0224224Y0074517D01*
X0223568Y0074517D01*
X0222585Y0074110D01*
X0221832Y0073358D01*
X0221425Y0072375D01*
X0221425Y0071310D01*
X0221832Y0070327D01*
X0222585Y0069575D01*
X0223568Y0069168D01*
X0224632Y0069168D01*
X0225615Y0069575D01*
X0226195Y0070155D01*
X0227299Y0070155D01*
X0235287Y0078144D01*
X0235287Y0079541D01*
X0235287Y0081043D01*
X0236102Y0081043D01*
X0236856Y0081797D01*
X0236856Y0087195D01*
X0236208Y0087842D01*
X0236856Y0088490D01*
X0236856Y0093888D01*
X0236102Y0094642D01*
X0231098Y0094642D01*
X0230344Y0093888D01*
X0230344Y0093130D01*
X0228856Y0093130D01*
X0228856Y0093888D01*
X0228102Y0094642D01*
X0223098Y0094642D01*
X0222344Y0093888D01*
X0222344Y0093130D01*
X0221053Y0093130D01*
X0221053Y0093691D01*
X0220299Y0094445D01*
X0214901Y0094445D01*
X0214147Y0093691D01*
X0214147Y0093130D01*
X0213595Y0093130D01*
X0213115Y0093610D01*
X0212132Y0094017D01*
X0211068Y0094017D01*
X0210085Y0093610D01*
X0209332Y0092858D01*
X0208925Y0091875D01*
X0208925Y0090810D01*
X0209332Y0089827D01*
X0210085Y0089075D01*
X0211068Y0088668D01*
X0212132Y0088668D01*
X0213115Y0089075D01*
X0213595Y0089555D01*
X0214147Y0089555D01*
X0214147Y0088687D01*
X0214901Y0087933D01*
X0220299Y0087933D01*
X0221053Y0088687D01*
X0221053Y0089555D01*
X0222344Y0089555D01*
X0222344Y0088490D01*
X0222992Y0087842D01*
X0222344Y0087195D01*
X0222344Y0081797D01*
X0222344Y0082722D02*
X0221053Y0082722D01*
X0221053Y0083720D02*
X0222344Y0083720D01*
X0222344Y0084719D02*
X0221053Y0084719D01*
X0221053Y0085717D02*
X0222344Y0085717D01*
X0222344Y0086716D02*
X0221053Y0086716D01*
X0220336Y0087714D02*
X0222864Y0087714D01*
X0222344Y0088713D02*
X0221053Y0088713D01*
X0217600Y0091189D02*
X0217600Y0091323D01*
X0217620Y0091342D01*
X0211600Y0091342D01*
X0209448Y0089711D02*
X0116687Y0089711D01*
X0116687Y0088713D02*
X0210959Y0088713D01*
X0212241Y0088713D02*
X0214147Y0088713D01*
X0217620Y0091342D02*
X0225655Y0091342D01*
X0225600Y0091287D01*
X0225600Y0091189D01*
X0225655Y0091342D02*
X0233446Y0091342D01*
X0233600Y0091189D01*
X0236856Y0090710D02*
X0255813Y0090710D01*
X0255813Y0091709D02*
X0236856Y0091709D01*
X0236856Y0092707D02*
X0255813Y0092707D01*
X0255813Y0093706D02*
X0236856Y0093706D01*
X0230344Y0093706D02*
X0228856Y0093706D01*
X0222344Y0093706D02*
X0221038Y0093706D01*
X0214162Y0093706D02*
X0212885Y0093706D01*
X0210315Y0093706D02*
X0139819Y0093706D01*
X0140344Y0093181D02*
X0138234Y0095291D01*
X0138919Y0095976D01*
X0141029Y0093866D01*
X0142357Y0095194D01*
X0142555Y0095536D01*
X0142657Y0095918D01*
X0142657Y0096313D01*
X0142607Y0096498D01*
X0143360Y0096498D01*
X0147177Y0100315D01*
X0147177Y0101137D01*
X0147368Y0101327D01*
X0147775Y0102310D01*
X0147775Y0103375D01*
X0147368Y0104358D01*
X0146615Y0105110D01*
X0145632Y0105517D01*
X0144568Y0105517D01*
X0143585Y0105110D01*
X0143394Y0104919D01*
X0142572Y0104919D01*
X0138756Y0101103D01*
X0138756Y0100350D01*
X0138570Y0100399D01*
X0138175Y0100399D01*
X0137794Y0100297D01*
X0137452Y0100100D01*
X0136124Y0098771D01*
X0138234Y0096661D01*
X0137549Y0095976D01*
X0138234Y0095291D01*
X0135984Y0093042D01*
X0137173Y0091853D01*
X0137516Y0091655D01*
X0137897Y0091553D01*
X0138292Y0091553D01*
X0138673Y0091655D01*
X0139016Y0091853D01*
X0140344Y0093181D01*
X0139870Y0092707D02*
X0209270Y0092707D01*
X0208925Y0091709D02*
X0138766Y0091709D01*
X0137423Y0091709D02*
X0116687Y0091709D01*
X0116687Y0092707D02*
X0136319Y0092707D01*
X0136648Y0093706D02*
X0116687Y0093706D01*
X0116687Y0094704D02*
X0134322Y0094704D01*
X0134110Y0094916D02*
X0135299Y0093727D01*
X0137549Y0095976D01*
X0135439Y0098086D01*
X0134110Y0096758D01*
X0133913Y0096416D01*
X0133811Y0096034D01*
X0133811Y0095639D01*
X0133913Y0095258D01*
X0134110Y0094916D01*
X0133811Y0095703D02*
X0116687Y0095703D01*
X0116687Y0096701D02*
X0134077Y0096701D01*
X0135052Y0097700D02*
X0116687Y0097700D01*
X0116687Y0098698D02*
X0136197Y0098698D01*
X0135825Y0097700D02*
X0137195Y0097700D01*
X0136824Y0096701D02*
X0138194Y0096701D01*
X0137822Y0095703D02*
X0137275Y0095703D01*
X0137646Y0094704D02*
X0136277Y0094704D01*
X0138821Y0094704D02*
X0140191Y0094704D01*
X0139192Y0095703D02*
X0138645Y0095703D01*
X0141867Y0094704D02*
X0255813Y0094704D01*
X0255813Y0095703D02*
X0142599Y0095703D01*
X0143563Y0096701D02*
X0255813Y0096701D01*
X0255813Y0097700D02*
X0144562Y0097700D01*
X0145560Y0098698D02*
X0255813Y0098698D01*
X0255813Y0099697D02*
X0146559Y0099697D01*
X0147177Y0100695D02*
X0255813Y0100695D01*
X0255813Y0101694D02*
X0147519Y0101694D01*
X0147775Y0102692D02*
X0255813Y0102692D01*
X0255813Y0103691D02*
X0147644Y0103691D01*
X0147036Y0104689D02*
X0255813Y0104689D01*
X0255813Y0105688D02*
X0143017Y0105688D01*
X0142868Y0105327D02*
X0143275Y0106310D01*
X0143275Y0107375D01*
X0142868Y0108358D01*
X0142115Y0109110D01*
X0141132Y0109517D01*
X0140068Y0109517D01*
X0139085Y0109110D01*
X0138332Y0108358D01*
X0137925Y0107375D01*
X0137925Y0106310D01*
X0138332Y0105327D01*
X0139085Y0104575D01*
X0140068Y0104168D01*
X0141132Y0104168D01*
X0142115Y0104575D01*
X0142868Y0105327D01*
X0142342Y0104689D02*
X0142229Y0104689D01*
X0141344Y0103691D02*
X0116687Y0103691D01*
X0116687Y0104689D02*
X0123837Y0104689D01*
X0124173Y0104353D02*
X0124516Y0104155D01*
X0124897Y0104053D01*
X0125292Y0104053D01*
X0125673Y0104155D01*
X0126016Y0104353D01*
X0127344Y0105681D01*
X0125234Y0107791D01*
X0125919Y0108476D01*
X0128029Y0106366D01*
X0129357Y0107694D01*
X0129555Y0108036D01*
X0129657Y0108418D01*
X0129657Y0108813D01*
X0129607Y0108998D01*
X0130360Y0108998D01*
X0134177Y0112815D01*
X0134177Y0113637D01*
X0134368Y0113827D01*
X0134775Y0114810D01*
X0134775Y0115875D01*
X0134368Y0116858D01*
X0133615Y0117610D01*
X0132632Y0118017D01*
X0131568Y0118017D01*
X0130585Y0117610D01*
X0130394Y0117419D01*
X0129572Y0117419D01*
X0125756Y0113603D01*
X0125756Y0112850D01*
X0125570Y0112899D01*
X0125175Y0112899D01*
X0124794Y0112797D01*
X0124452Y0112600D01*
X0123124Y0111271D01*
X0125234Y0109161D01*
X0124549Y0108476D01*
X0125234Y0107791D01*
X0122984Y0105542D01*
X0124173Y0104353D01*
X0123130Y0105688D02*
X0116687Y0105688D01*
X0116687Y0106686D02*
X0121840Y0106686D01*
X0122299Y0106227D02*
X0124549Y0108476D01*
X0122439Y0110586D01*
X0121110Y0109258D01*
X0120913Y0108916D01*
X0120811Y0108534D01*
X0120811Y0108139D01*
X0120913Y0107758D01*
X0121110Y0107416D01*
X0122299Y0106227D01*
X0122759Y0106686D02*
X0124129Y0106686D01*
X0123757Y0107685D02*
X0125127Y0107685D01*
X0125340Y0107685D02*
X0126710Y0107685D01*
X0126339Y0106686D02*
X0127709Y0106686D01*
X0128349Y0106686D02*
X0137925Y0106686D01*
X0138054Y0107685D02*
X0129347Y0107685D01*
X0129657Y0108683D02*
X0138658Y0108683D01*
X0138183Y0105688D02*
X0127337Y0105688D01*
X0126352Y0104689D02*
X0138971Y0104689D01*
X0140345Y0102692D02*
X0116687Y0102692D01*
X0116687Y0101694D02*
X0139347Y0101694D01*
X0138756Y0100695D02*
X0116687Y0100695D01*
X0116687Y0099697D02*
X0137049Y0099697D01*
X0142966Y0100709D02*
X0144600Y0102342D01*
X0145100Y0102842D01*
X0143275Y0106686D02*
X0255436Y0106686D01*
X0254437Y0107685D02*
X0143146Y0107685D01*
X0142542Y0108683D02*
X0253439Y0108683D01*
X0252440Y0109682D02*
X0131044Y0109682D01*
X0132042Y0110680D02*
X0251442Y0110680D01*
X0250443Y0111679D02*
X0133041Y0111679D01*
X0134039Y0112677D02*
X0249445Y0112677D01*
X0248446Y0113676D02*
X0134216Y0113676D01*
X0134718Y0114674D02*
X0247448Y0114674D01*
X0246449Y0115673D02*
X0134775Y0115673D01*
X0134445Y0116671D02*
X0245451Y0116671D01*
X0244452Y0117670D02*
X0163210Y0117670D01*
X0163115Y0117575D02*
X0163868Y0118327D01*
X0164275Y0119310D01*
X0164275Y0120375D01*
X0163868Y0121358D01*
X0163115Y0122110D01*
X0162132Y0122517D01*
X0161068Y0122517D01*
X0160085Y0122110D01*
X0159332Y0121358D01*
X0158925Y0120375D01*
X0158925Y0119310D01*
X0159332Y0118327D01*
X0160085Y0117575D01*
X0161068Y0117168D01*
X0162132Y0117168D01*
X0163115Y0117575D01*
X0164009Y0118668D02*
X0243454Y0118668D01*
X0242455Y0119667D02*
X0195707Y0119667D01*
X0195615Y0119575D02*
X0196368Y0120327D01*
X0196775Y0121310D01*
X0196775Y0122375D01*
X0196368Y0123358D01*
X0195615Y0124110D01*
X0194632Y0124517D01*
X0193568Y0124517D01*
X0192585Y0124110D01*
X0191832Y0123358D01*
X0191425Y0122375D01*
X0191425Y0121310D01*
X0191832Y0120327D01*
X0192585Y0119575D01*
X0193568Y0119168D01*
X0194632Y0119168D01*
X0195615Y0119575D01*
X0196508Y0120665D02*
X0241456Y0120665D01*
X0240458Y0121664D02*
X0196775Y0121664D01*
X0196656Y0122662D02*
X0239459Y0122662D01*
X0238461Y0123661D02*
X0196064Y0123661D01*
X0192136Y0123661D02*
X0116687Y0123661D01*
X0116687Y0124659D02*
X0237462Y0124659D01*
X0236464Y0125658D02*
X0116687Y0125658D01*
X0116687Y0126656D02*
X0236313Y0126656D01*
X0236313Y0127655D02*
X0116687Y0127655D01*
X0116687Y0128653D02*
X0236313Y0128653D01*
X0236313Y0129652D02*
X0138192Y0129652D01*
X0138115Y0129575D02*
X0138806Y0130266D01*
X0139628Y0130266D01*
X0143444Y0134082D01*
X0143444Y0134835D01*
X0143630Y0134786D01*
X0144025Y0134786D01*
X0144406Y0134888D01*
X0144748Y0135085D01*
X0146076Y0136414D01*
X0143966Y0138524D01*
X0144651Y0139209D01*
X0143966Y0139894D01*
X0143281Y0139209D01*
X0141171Y0141319D01*
X0139843Y0139991D01*
X0139645Y0139649D01*
X0139543Y0139267D01*
X0139543Y0138872D01*
X0139593Y0138687D01*
X0138840Y0138687D01*
X0135023Y0134870D01*
X0135023Y0134048D01*
X0134332Y0133358D01*
X0133925Y0132375D01*
X0133925Y0131310D01*
X0134332Y0130327D01*
X0135085Y0129575D01*
X0136068Y0129168D01*
X0137132Y0129168D01*
X0138115Y0129575D01*
X0140013Y0130650D02*
X0236313Y0130650D01*
X0236313Y0131649D02*
X0141011Y0131649D01*
X0142010Y0132647D02*
X0236313Y0132647D01*
X0236313Y0133646D02*
X0143008Y0133646D01*
X0143444Y0134644D02*
X0236313Y0134644D01*
X0236313Y0135643D02*
X0145306Y0135643D01*
X0145849Y0136642D02*
X0236313Y0136642D01*
X0236313Y0137640D02*
X0147303Y0137640D01*
X0146761Y0137099D02*
X0148090Y0138427D01*
X0148287Y0138769D01*
X0148389Y0139150D01*
X0148389Y0139545D01*
X0148287Y0139927D01*
X0148090Y0140269D01*
X0146901Y0141458D01*
X0144651Y0139209D01*
X0146761Y0137099D01*
X0146220Y0137640D02*
X0144850Y0137640D01*
X0145221Y0138639D02*
X0144081Y0138639D01*
X0144223Y0139637D02*
X0145079Y0139637D01*
X0144708Y0140636D02*
X0146078Y0140636D01*
X0145707Y0141634D02*
X0183026Y0141634D01*
X0182832Y0141827D02*
X0183585Y0141075D01*
X0184568Y0140668D01*
X0184974Y0140668D01*
X0185555Y0140087D01*
X0190952Y0140087D01*
X0191485Y0140619D01*
X0191581Y0140453D01*
X0191860Y0140174D01*
X0192202Y0139976D01*
X0192584Y0139874D01*
X0194462Y0139874D01*
X0194462Y0142858D01*
X0195431Y0142858D01*
X0195431Y0143827D01*
X0198612Y0143827D01*
X0198612Y0145508D01*
X0198510Y0145890D01*
X0198312Y0146232D01*
X0198033Y0146511D01*
X0197691Y0146709D01*
X0197309Y0146811D01*
X0195431Y0146811D01*
X0195431Y0143827D01*
X0194462Y0143827D01*
X0194462Y0146811D01*
X0192584Y0146811D01*
X0192202Y0146709D01*
X0191860Y0146511D01*
X0191581Y0146232D01*
X0191485Y0146066D01*
X0190952Y0146598D01*
X0185555Y0146598D01*
X0184974Y0146017D01*
X0184568Y0146017D01*
X0183585Y0145610D01*
X0182832Y0144858D01*
X0182425Y0143875D01*
X0182425Y0142810D01*
X0182832Y0141827D01*
X0182499Y0142633D02*
X0145726Y0142633D01*
X0146216Y0142143D02*
X0145027Y0143332D01*
X0144684Y0143530D01*
X0144303Y0143632D01*
X0143908Y0143632D01*
X0143527Y0143530D01*
X0143184Y0143332D01*
X0141856Y0142004D01*
X0143966Y0139894D01*
X0146216Y0142143D01*
X0147723Y0140636D02*
X0185006Y0140636D01*
X0185100Y0143342D02*
X0188254Y0143342D01*
X0192060Y0146627D02*
X0099176Y0146627D01*
X0099034Y0146969D02*
X0098227Y0147777D01*
X0097171Y0148214D01*
X0096029Y0148214D01*
X0094973Y0147777D01*
X0094166Y0146969D01*
X0094100Y0146811D01*
X0094034Y0146969D01*
X0093227Y0147777D01*
X0092171Y0148214D01*
X0091029Y0148214D01*
X0089973Y0147777D01*
X0089166Y0146969D01*
X0088728Y0145914D01*
X0088728Y0144771D01*
X0089166Y0143716D01*
X0089973Y0142908D01*
X0091029Y0142471D01*
X0092171Y0142471D01*
X0093227Y0142908D01*
X0094034Y0143716D01*
X0094100Y0143874D01*
X0094166Y0143716D01*
X0094973Y0142908D01*
X0096029Y0142471D01*
X0097171Y0142471D01*
X0098227Y0142908D01*
X0099034Y0143716D01*
X0099472Y0144771D01*
X0099472Y0145914D01*
X0099034Y0146969D01*
X0098378Y0147625D02*
X0235997Y0147625D01*
X0236313Y0146627D02*
X0197833Y0146627D01*
X0198580Y0145628D02*
X0236313Y0145628D01*
X0236313Y0144630D02*
X0198612Y0144630D01*
X0198612Y0142858D02*
X0195431Y0142858D01*
X0195431Y0139874D01*
X0197309Y0139874D01*
X0197691Y0139976D01*
X0198033Y0140174D01*
X0198312Y0140453D01*
X0198510Y0140795D01*
X0198612Y0141176D01*
X0198612Y0142858D01*
X0198612Y0142633D02*
X0236313Y0142633D01*
X0236313Y0143631D02*
X0195431Y0143631D01*
X0195431Y0142633D02*
X0194462Y0142633D01*
X0194462Y0141634D02*
X0195431Y0141634D01*
X0195431Y0140636D02*
X0194462Y0140636D01*
X0198418Y0140636D02*
X0236313Y0140636D01*
X0236313Y0141634D02*
X0198612Y0141634D01*
X0195431Y0144630D02*
X0194462Y0144630D01*
X0194462Y0145628D02*
X0195431Y0145628D01*
X0195431Y0146627D02*
X0194462Y0146627D01*
X0183628Y0145628D02*
X0099472Y0145628D01*
X0099413Y0144630D02*
X0104542Y0144630D01*
X0104709Y0144797D02*
X0103520Y0143607D01*
X0105769Y0141358D01*
X0107879Y0143468D01*
X0106551Y0144797D01*
X0106209Y0144994D01*
X0105828Y0145096D01*
X0105433Y0145096D01*
X0105051Y0144994D01*
X0104709Y0144797D01*
X0103544Y0143631D02*
X0098950Y0143631D01*
X0097562Y0142633D02*
X0102545Y0142633D01*
X0102835Y0142923D02*
X0101646Y0141733D01*
X0101448Y0141391D01*
X0101346Y0141010D01*
X0101346Y0140615D01*
X0101448Y0140233D01*
X0101646Y0139891D01*
X0102974Y0138563D01*
X0105084Y0140673D01*
X0102835Y0142923D01*
X0103125Y0142633D02*
X0104495Y0142633D01*
X0104124Y0141634D02*
X0105493Y0141634D01*
X0106045Y0141634D02*
X0107415Y0141634D01*
X0107044Y0142633D02*
X0108413Y0142633D01*
X0108715Y0142633D02*
X0142485Y0142633D01*
X0142226Y0141634D02*
X0109714Y0141634D01*
X0110192Y0140636D02*
X0140488Y0140636D01*
X0139642Y0139637D02*
X0111410Y0139637D01*
X0112408Y0138639D02*
X0138792Y0138639D01*
X0137793Y0137640D02*
X0113407Y0137640D01*
X0114405Y0136642D02*
X0136795Y0136642D01*
X0135796Y0135643D02*
X0116036Y0135643D01*
X0116956Y0134644D02*
X0135023Y0134644D01*
X0134621Y0133646D02*
X0117275Y0133646D01*
X0117207Y0132647D02*
X0134038Y0132647D01*
X0133925Y0131649D02*
X0116689Y0131649D01*
X0116687Y0130650D02*
X0134199Y0130650D01*
X0135008Y0129652D02*
X0116687Y0129652D01*
X0112513Y0129652D02*
X0105395Y0129652D01*
X0104397Y0130650D02*
X0112513Y0130650D01*
X0112511Y0131649D02*
X0103398Y0131649D01*
X0102860Y0132187D02*
X0102107Y0132187D01*
X0102157Y0132372D01*
X0102157Y0132767D01*
X0102055Y0133149D01*
X0101857Y0133491D01*
X0100529Y0134819D01*
X0098419Y0132709D01*
X0097734Y0133394D01*
X0099844Y0135504D01*
X0098516Y0136832D01*
X0098173Y0137030D01*
X0097792Y0137132D01*
X0097397Y0137132D01*
X0097016Y0137030D01*
X0096673Y0136832D01*
X0095484Y0135643D01*
X0097734Y0133394D01*
X0097049Y0132709D01*
X0094799Y0134958D01*
X0093610Y0133769D01*
X0093413Y0133427D01*
X0093311Y0133045D01*
X0093311Y0132650D01*
X0093413Y0132269D01*
X0093610Y0131927D01*
X0094939Y0130599D01*
X0097049Y0132709D01*
X0097734Y0132024D01*
X0095624Y0129914D01*
X0096952Y0128585D01*
X0097294Y0128388D01*
X0097675Y0128286D01*
X0098070Y0128286D01*
X0098256Y0128335D01*
X0098256Y0127582D01*
X0102072Y0123766D01*
X0102425Y0123766D01*
X0102425Y0122810D01*
X0102832Y0121827D01*
X0103585Y0121075D01*
X0104568Y0120668D01*
X0105632Y0120668D01*
X0106615Y0121075D01*
X0107368Y0121827D01*
X0107775Y0122810D01*
X0107775Y0123875D01*
X0107368Y0124858D01*
X0106787Y0125438D01*
X0106787Y0126041D01*
X0106101Y0126728D01*
X0106677Y0127304D01*
X0106677Y0128370D01*
X0102860Y0132187D01*
X0102157Y0132647D02*
X0109190Y0132647D01*
X0108192Y0133646D02*
X0101702Y0133646D01*
X0100703Y0134644D02*
X0107193Y0134644D01*
X0106291Y0135643D02*
X0099705Y0135643D01*
X0100354Y0134644D02*
X0098985Y0134644D01*
X0099356Y0133646D02*
X0097986Y0133646D01*
X0097481Y0133646D02*
X0096112Y0133646D01*
X0096483Y0134644D02*
X0095113Y0134644D01*
X0094486Y0134644D02*
X0053467Y0134644D01*
X0052987Y0135643D02*
X0095484Y0135643D01*
X0096483Y0136642D02*
X0052987Y0136642D01*
X0052987Y0137640D02*
X0103897Y0137640D01*
X0104419Y0138639D02*
X0103050Y0138639D01*
X0102899Y0138639D02*
X0052987Y0138639D01*
X0052987Y0139637D02*
X0101900Y0139637D01*
X0101346Y0140636D02*
X0052987Y0140636D01*
X0052987Y0141634D02*
X0101588Y0141634D01*
X0104048Y0139637D02*
X0105418Y0139637D01*
X0105122Y0140636D02*
X0105047Y0140636D01*
X0104896Y0136642D02*
X0098706Y0136642D01*
X0093539Y0133646D02*
X0054466Y0133646D01*
X0055464Y0132647D02*
X0093311Y0132647D01*
X0093888Y0131649D02*
X0056463Y0131649D01*
X0057461Y0130650D02*
X0090492Y0130650D01*
X0089984Y0130143D02*
X0091173Y0131332D01*
X0091516Y0131530D01*
X0091897Y0131632D01*
X0092292Y0131632D01*
X0092673Y0131530D01*
X0093016Y0131332D01*
X0094344Y0130004D01*
X0092234Y0127894D01*
X0092919Y0127209D01*
X0095029Y0129319D01*
X0096357Y0127991D01*
X0096555Y0127649D01*
X0096657Y0127267D01*
X0096657Y0126872D01*
X0096607Y0126687D01*
X0097360Y0126687D01*
X0101177Y0122870D01*
X0101177Y0122048D01*
X0101368Y0121858D01*
X0101775Y0120875D01*
X0101775Y0119810D01*
X0101368Y0118827D01*
X0100615Y0118075D01*
X0099632Y0117668D01*
X0098568Y0117668D01*
X0097585Y0118075D01*
X0097394Y0118266D01*
X0096572Y0118266D01*
X0092756Y0122082D01*
X0092756Y0122835D01*
X0092570Y0122786D01*
X0092175Y0122786D01*
X0091794Y0122888D01*
X0091452Y0123085D01*
X0090124Y0124414D01*
X0092234Y0126524D01*
X0091549Y0127209D01*
X0089299Y0129458D01*
X0088110Y0128269D01*
X0087913Y0127927D01*
X0087811Y0127545D01*
X0087811Y0127150D01*
X0087913Y0126769D01*
X0088110Y0126427D01*
X0089439Y0125099D01*
X0091549Y0127209D01*
X0092234Y0127894D01*
X0089984Y0130143D01*
X0090475Y0129652D02*
X0058460Y0129652D01*
X0058487Y0128653D02*
X0088495Y0128653D01*
X0087840Y0127655D02*
X0058487Y0127655D01*
X0058487Y0126656D02*
X0087978Y0126656D01*
X0087516Y0125832D02*
X0087173Y0126030D01*
X0086792Y0126132D01*
X0086397Y0126132D01*
X0086016Y0126030D01*
X0085673Y0125832D01*
X0084484Y0124643D01*
X0086734Y0122394D01*
X0088844Y0124504D01*
X0087516Y0125832D01*
X0087690Y0125658D02*
X0088879Y0125658D01*
X0088688Y0124659D02*
X0090369Y0124659D01*
X0089998Y0125658D02*
X0091368Y0125658D01*
X0090996Y0126656D02*
X0092101Y0126656D01*
X0091995Y0127655D02*
X0091103Y0127655D01*
X0091474Y0128653D02*
X0090104Y0128653D01*
X0092473Y0127655D02*
X0093365Y0127655D01*
X0092993Y0128653D02*
X0094363Y0128653D01*
X0093992Y0129652D02*
X0095885Y0129652D01*
X0095694Y0128653D02*
X0096884Y0128653D01*
X0096551Y0127655D02*
X0098256Y0127655D01*
X0097391Y0126656D02*
X0099182Y0126656D01*
X0098389Y0125658D02*
X0100180Y0125658D01*
X0099388Y0124659D02*
X0101179Y0124659D01*
X0100386Y0123661D02*
X0102425Y0123661D01*
X0102487Y0122662D02*
X0101177Y0122662D01*
X0101448Y0121664D02*
X0102996Y0121664D01*
X0101775Y0120665D02*
X0112513Y0120665D01*
X0112513Y0119667D02*
X0101715Y0119667D01*
X0101209Y0118668D02*
X0112513Y0118668D01*
X0112513Y0117670D02*
X0099637Y0117670D01*
X0098563Y0117670D02*
X0095377Y0117670D01*
X0095677Y0117370D02*
X0091860Y0121187D01*
X0091107Y0121187D01*
X0091157Y0121372D01*
X0091157Y0121767D01*
X0091055Y0122149D01*
X0090857Y0122491D01*
X0089529Y0123819D01*
X0087419Y0121709D01*
X0086734Y0122394D01*
X0086049Y0121709D01*
X0083799Y0123958D01*
X0082610Y0122769D01*
X0082413Y0122427D01*
X0082311Y0122045D01*
X0082311Y0121650D01*
X0082413Y0121269D01*
X0082610Y0120927D01*
X0083939Y0119599D01*
X0086049Y0121709D01*
X0086734Y0121024D01*
X0084940Y0119230D01*
X0084526Y0119230D01*
X0083464Y0118790D01*
X0076652Y0111978D01*
X0076213Y0110917D01*
X0076213Y0109768D01*
X0076652Y0108707D01*
X0077464Y0107895D01*
X0078526Y0107455D01*
X0079674Y0107455D01*
X0080736Y0107895D01*
X0087548Y0114707D01*
X0087987Y0115768D01*
X0087987Y0115851D01*
X0091072Y0112766D01*
X0091894Y0112766D01*
X0092085Y0112575D01*
X0093068Y0112168D01*
X0094132Y0112168D01*
X0095115Y0112575D01*
X0095868Y0113327D01*
X0096275Y0114310D01*
X0096275Y0115375D01*
X0095868Y0116358D01*
X0095677Y0116548D01*
X0095677Y0117370D01*
X0095677Y0116671D02*
X0112513Y0116671D01*
X0112513Y0115673D02*
X0096151Y0115673D01*
X0096275Y0114674D02*
X0112513Y0114674D01*
X0112513Y0113676D02*
X0096012Y0113676D01*
X0095217Y0112677D02*
X0112513Y0112677D01*
X0112513Y0111679D02*
X0084520Y0111679D01*
X0085518Y0112677D02*
X0091982Y0112677D01*
X0090162Y0113676D02*
X0086517Y0113676D01*
X0087515Y0114674D02*
X0089164Y0114674D01*
X0088165Y0115673D02*
X0087948Y0115673D01*
X0091466Y0116976D02*
X0093600Y0114842D01*
X0094379Y0118668D02*
X0096170Y0118668D01*
X0095171Y0119667D02*
X0093380Y0119667D01*
X0094173Y0120665D02*
X0092382Y0120665D01*
X0093174Y0121664D02*
X0091157Y0121664D01*
X0090685Y0122662D02*
X0092756Y0122662D01*
X0090876Y0123661D02*
X0089687Y0123661D01*
X0089371Y0123661D02*
X0088001Y0123661D01*
X0088372Y0122662D02*
X0087002Y0122662D01*
X0086465Y0122662D02*
X0085095Y0122662D01*
X0085466Y0123661D02*
X0084097Y0123661D01*
X0083502Y0123661D02*
X0058487Y0123661D01*
X0058487Y0124659D02*
X0084501Y0124659D01*
X0085499Y0125658D02*
X0058487Y0125658D01*
X0058487Y0122662D02*
X0082549Y0122662D01*
X0082311Y0121664D02*
X0058487Y0121664D01*
X0058487Y0120665D02*
X0082872Y0120665D01*
X0083870Y0119667D02*
X0067285Y0119667D01*
X0067171Y0119714D02*
X0068227Y0119277D01*
X0069034Y0118469D01*
X0069472Y0117414D01*
X0069472Y0116271D01*
X0069034Y0115216D01*
X0068227Y0114408D01*
X0067171Y0113971D01*
X0066029Y0113971D01*
X0064973Y0114408D01*
X0064166Y0115216D01*
X0063728Y0116271D01*
X0063728Y0117414D01*
X0064166Y0118469D01*
X0064973Y0119277D01*
X0066029Y0119714D01*
X0067171Y0119714D01*
X0065915Y0119667D02*
X0058487Y0119667D01*
X0058487Y0118668D02*
X0064365Y0118668D01*
X0063834Y0117670D02*
X0058487Y0117670D01*
X0058487Y0116671D02*
X0063728Y0116671D01*
X0063976Y0115673D02*
X0058487Y0115673D01*
X0058487Y0114674D02*
X0060933Y0114674D01*
X0061029Y0114714D02*
X0059973Y0114277D01*
X0059166Y0113469D01*
X0058728Y0112414D01*
X0058728Y0111271D01*
X0059166Y0110216D01*
X0059973Y0109408D01*
X0061029Y0108971D01*
X0062171Y0108971D01*
X0063227Y0109408D01*
X0064034Y0110216D01*
X0064472Y0111271D01*
X0064472Y0112414D01*
X0064034Y0113469D01*
X0063227Y0114277D01*
X0062171Y0114714D01*
X0061029Y0114714D01*
X0062267Y0114674D02*
X0064707Y0114674D01*
X0063828Y0113676D02*
X0078350Y0113676D01*
X0079348Y0114674D02*
X0068493Y0114674D01*
X0069224Y0115673D02*
X0080347Y0115673D01*
X0081345Y0116671D02*
X0069472Y0116671D01*
X0069366Y0117670D02*
X0082344Y0117670D01*
X0083342Y0118668D02*
X0068835Y0118668D01*
X0064362Y0112677D02*
X0077351Y0112677D01*
X0076528Y0111679D02*
X0064472Y0111679D01*
X0064227Y0110680D02*
X0076213Y0110680D01*
X0076248Y0109682D02*
X0063500Y0109682D01*
X0059700Y0109682D02*
X0058487Y0109682D01*
X0058487Y0110680D02*
X0058973Y0110680D01*
X0058728Y0111679D02*
X0058487Y0111679D01*
X0058487Y0112677D02*
X0058838Y0112677D01*
X0058487Y0113676D02*
X0059372Y0113676D01*
X0058487Y0108683D02*
X0076676Y0108683D01*
X0077971Y0107685D02*
X0057611Y0107685D01*
X0054632Y0099697D02*
X0112513Y0099697D01*
X0112513Y0100695D02*
X0036134Y0100695D01*
X0035135Y0101694D02*
X0112513Y0101694D01*
X0112513Y0102692D02*
X0034137Y0102692D01*
X0033138Y0103691D02*
X0112513Y0103691D01*
X0112513Y0104689D02*
X0032140Y0104689D01*
X0031141Y0105688D02*
X0112513Y0105688D01*
X0112513Y0106686D02*
X0030143Y0106686D01*
X0029144Y0107685D02*
X0040589Y0107685D01*
X0039713Y0108683D02*
X0027042Y0108683D01*
X0023158Y0108683D02*
X0021042Y0108683D01*
X0021646Y0107685D02*
X0022554Y0107685D01*
X0022425Y0106686D02*
X0021775Y0106686D01*
X0022641Y0105688D02*
X0022683Y0105688D01*
X0019865Y0103691D02*
X0004387Y0103691D01*
X0004387Y0104689D02*
X0017471Y0104689D01*
X0016683Y0105688D02*
X0004387Y0105688D01*
X0004387Y0106686D02*
X0016425Y0106686D01*
X0016554Y0107685D02*
X0004387Y0107685D01*
X0004387Y0108683D02*
X0017158Y0108683D01*
X0020864Y0102692D02*
X0004387Y0102692D01*
X0004387Y0101694D02*
X0021863Y0101694D01*
X0022425Y0100695D02*
X0004387Y0100695D01*
X0004387Y0099697D02*
X0022472Y0099697D01*
X0022962Y0098698D02*
X0004387Y0098698D01*
X0004387Y0097700D02*
X0024491Y0097700D01*
X0026355Y0096701D02*
X0004387Y0096701D01*
X0004387Y0095703D02*
X0027354Y0095703D01*
X0028352Y0094704D02*
X0004387Y0094704D01*
X0004387Y0093706D02*
X0029351Y0093706D01*
X0039063Y0092707D02*
X0004387Y0092707D01*
X0004387Y0091709D02*
X0038925Y0091709D01*
X0039174Y0090710D02*
X0004387Y0090710D01*
X0004387Y0089711D02*
X0039948Y0089711D01*
X0043252Y0089711D02*
X0049845Y0089711D01*
X0050843Y0088713D02*
X0004387Y0088713D01*
X0004387Y0087714D02*
X0051842Y0087714D01*
X0052840Y0086716D02*
X0004387Y0086716D01*
X0004387Y0085717D02*
X0053839Y0085717D01*
X0054837Y0084719D02*
X0004387Y0084719D01*
X0004387Y0083720D02*
X0055836Y0083720D01*
X0056834Y0082722D02*
X0004387Y0082722D01*
X0004387Y0081723D02*
X0057833Y0081723D01*
X0058831Y0080725D02*
X0052104Y0080725D01*
X0053102Y0079726D02*
X0059830Y0079726D01*
X0060828Y0078728D02*
X0054101Y0078728D01*
X0055099Y0077729D02*
X0061827Y0077729D01*
X0062825Y0076731D02*
X0056098Y0076731D01*
X0057096Y0075732D02*
X0063824Y0075732D01*
X0064822Y0074734D02*
X0058095Y0074734D01*
X0060313Y0073735D02*
X0065821Y0073735D01*
X0066819Y0072737D02*
X0061418Y0072737D01*
X0061775Y0071738D02*
X0067818Y0071738D01*
X0068816Y0070740D02*
X0061746Y0070740D01*
X0061282Y0069741D02*
X0069815Y0069741D01*
X0070813Y0068743D02*
X0059813Y0068743D01*
X0058387Y0068743D02*
X0034137Y0068743D01*
X0034137Y0069741D02*
X0056918Y0069741D01*
X0056454Y0070740D02*
X0034137Y0070740D01*
X0034324Y0071738D02*
X0035403Y0071738D01*
X0034900Y0074842D02*
X0031600Y0071542D01*
X0031600Y0072942D01*
X0033500Y0074842D01*
X0035100Y0074842D01*
X0034900Y0074842D01*
X0035100Y0074842D02*
X0038254Y0074842D01*
X0041104Y0071738D02*
X0041795Y0071738D01*
X0044462Y0071738D02*
X0045431Y0071738D01*
X0045431Y0071374D02*
X0047309Y0071374D01*
X0047691Y0071476D01*
X0048033Y0071674D01*
X0048312Y0071953D01*
X0048510Y0072295D01*
X0048612Y0072676D01*
X0048612Y0074358D01*
X0045431Y0074358D01*
X0045431Y0071374D01*
X0045431Y0072737D02*
X0044462Y0072737D01*
X0044462Y0073735D02*
X0045431Y0073735D01*
X0045431Y0074734D02*
X0053322Y0074734D01*
X0052324Y0075732D02*
X0048612Y0075732D01*
X0048612Y0076731D02*
X0051325Y0076731D01*
X0050327Y0077729D02*
X0048314Y0077729D01*
X0048612Y0073735D02*
X0054321Y0073735D01*
X0055319Y0072737D02*
X0048612Y0072737D01*
X0048097Y0071738D02*
X0056318Y0071738D01*
X0050083Y0066746D02*
X0072810Y0066746D01*
X0071812Y0067744D02*
X0049085Y0067744D01*
X0051082Y0065747D02*
X0073809Y0065747D01*
X0074807Y0064749D02*
X0052080Y0064749D01*
X0053079Y0063750D02*
X0075806Y0063750D01*
X0076804Y0062752D02*
X0063838Y0062752D01*
X0061738Y0062752D02*
X0060769Y0062752D01*
X0060769Y0062811D02*
X0058891Y0062811D01*
X0058509Y0062709D01*
X0058167Y0062511D01*
X0057888Y0062232D01*
X0057690Y0061890D01*
X0057588Y0061508D01*
X0057588Y0059827D01*
X0060769Y0059827D01*
X0060769Y0062811D01*
X0060769Y0061753D02*
X0061738Y0061753D01*
X0061738Y0060755D02*
X0060769Y0060755D01*
X0060769Y0059756D02*
X0055287Y0059756D01*
X0055287Y0058758D02*
X0057588Y0058758D01*
X0057588Y0057759D02*
X0056070Y0057759D01*
X0055287Y0060755D02*
X0057588Y0060755D01*
X0057654Y0061753D02*
X0055076Y0061753D01*
X0054077Y0062752D02*
X0058669Y0062752D01*
X0067946Y0059342D02*
X0071100Y0059342D01*
X0073410Y0060755D02*
X0078801Y0060755D01*
X0077803Y0061753D02*
X0072270Y0061753D01*
X0084588Y0069741D02*
X0149583Y0069741D01*
X0148584Y0068743D02*
X0099086Y0068743D01*
X0103080Y0064749D02*
X0146789Y0064749D01*
X0147787Y0063750D02*
X0104079Y0063750D01*
X0105077Y0062752D02*
X0142593Y0062752D01*
X0145596Y0062752D02*
X0148786Y0062752D01*
X0149460Y0063750D02*
X0148090Y0063750D01*
X0149089Y0064749D02*
X0150458Y0064749D01*
X0150087Y0065747D02*
X0150010Y0065747D01*
X0151380Y0065747D02*
X0151457Y0065747D01*
X0154602Y0066746D02*
X0205588Y0066746D01*
X0205588Y0065747D02*
X0155157Y0065747D01*
X0156298Y0064749D02*
X0206092Y0064749D01*
X0208769Y0064749D02*
X0209738Y0064749D01*
X0209738Y0065747D02*
X0208769Y0065747D01*
X0208769Y0066746D02*
X0209738Y0066746D01*
X0212415Y0064749D02*
X0213086Y0064749D01*
X0218034Y0063750D02*
X0255813Y0063750D01*
X0255813Y0062752D02*
X0218992Y0062752D01*
X0219399Y0061753D02*
X0255813Y0061753D01*
X0255813Y0060755D02*
X0219399Y0060755D01*
X0218807Y0064749D02*
X0255813Y0064749D01*
X0255813Y0065747D02*
X0219399Y0065747D01*
X0219399Y0066746D02*
X0255813Y0066746D01*
X0255813Y0067744D02*
X0219399Y0067744D01*
X0219399Y0068743D02*
X0255813Y0068743D01*
X0255813Y0069741D02*
X0225782Y0069741D01*
X0227884Y0070740D02*
X0255813Y0070740D01*
X0255813Y0071738D02*
X0228882Y0071738D01*
X0229881Y0072737D02*
X0255813Y0072737D01*
X0255813Y0073735D02*
X0230879Y0073735D01*
X0231878Y0074734D02*
X0255813Y0074734D01*
X0255813Y0075732D02*
X0232876Y0075732D01*
X0233875Y0076731D02*
X0255813Y0076731D01*
X0255813Y0077729D02*
X0234873Y0077729D01*
X0235287Y0078728D02*
X0255813Y0078728D01*
X0255813Y0079726D02*
X0235287Y0079726D01*
X0235287Y0080725D02*
X0255813Y0080725D01*
X0255813Y0081723D02*
X0236782Y0081723D01*
X0236856Y0082722D02*
X0255813Y0082722D01*
X0255813Y0083720D02*
X0236856Y0083720D01*
X0236856Y0084719D02*
X0255813Y0084719D01*
X0255813Y0085717D02*
X0236856Y0085717D01*
X0236856Y0086716D02*
X0255813Y0086716D01*
X0255813Y0087714D02*
X0236336Y0087714D01*
X0236856Y0088713D02*
X0255813Y0088713D01*
X0255813Y0089711D02*
X0236856Y0089711D01*
X0223913Y0080725D02*
X0169423Y0080725D01*
X0169775Y0079726D02*
X0223913Y0079726D01*
X0223703Y0078728D02*
X0169741Y0078728D01*
X0169677Y0077729D02*
X0223072Y0077729D01*
X0222925Y0076731D02*
X0169093Y0076731D01*
X0168094Y0075732D02*
X0223165Y0075732D01*
X0223926Y0074734D02*
X0167096Y0074734D01*
X0166097Y0073735D02*
X0222210Y0073735D01*
X0221575Y0072737D02*
X0165108Y0072737D01*
X0164401Y0071738D02*
X0221425Y0071738D01*
X0221662Y0070740D02*
X0219004Y0070740D01*
X0219399Y0069741D02*
X0222418Y0069741D01*
X0212915Y0053765D02*
X0212586Y0053765D01*
X0209738Y0053765D02*
X0208769Y0053765D01*
X0208769Y0052767D02*
X0209738Y0052767D01*
X0209738Y0051768D02*
X0208769Y0051768D01*
X0208769Y0050770D02*
X0205112Y0050770D01*
X0205112Y0051008D02*
X0205010Y0051390D01*
X0204812Y0051732D01*
X0204533Y0052011D01*
X0204191Y0052209D01*
X0203809Y0052311D01*
X0201931Y0052311D01*
X0201931Y0049327D01*
X0205112Y0049327D01*
X0205112Y0051008D01*
X0204776Y0051768D02*
X0205588Y0051768D01*
X0205588Y0049771D02*
X0205112Y0049771D01*
X0205588Y0048773D02*
X0201931Y0048773D01*
X0201931Y0048358D02*
X0205112Y0048358D01*
X0205112Y0046676D01*
X0205010Y0046295D01*
X0204812Y0045953D01*
X0204533Y0045674D01*
X0204191Y0045476D01*
X0203809Y0045374D01*
X0201931Y0045374D01*
X0201931Y0048358D01*
X0201931Y0047774D02*
X0200962Y0047774D01*
X0200962Y0046775D02*
X0201931Y0046775D01*
X0201931Y0045777D02*
X0200962Y0045777D01*
X0198257Y0045777D02*
X0197775Y0045777D01*
X0197554Y0044778D02*
X0205588Y0044778D01*
X0205588Y0045008D02*
X0205588Y0043327D01*
X0208769Y0043327D01*
X0208769Y0046311D01*
X0206891Y0046311D01*
X0206509Y0046209D01*
X0206167Y0046011D01*
X0205888Y0045732D01*
X0205690Y0045390D01*
X0205588Y0045008D01*
X0205933Y0045777D02*
X0204636Y0045777D01*
X0205112Y0046775D02*
X0213859Y0046775D01*
X0213060Y0047774D02*
X0212440Y0047774D01*
X0209738Y0047774D02*
X0208769Y0047774D01*
X0208769Y0048773D02*
X0209738Y0048773D01*
X0209738Y0049771D02*
X0208769Y0049771D01*
X0206067Y0047774D02*
X0205112Y0047774D01*
X0201931Y0049771D02*
X0200962Y0049771D01*
X0200962Y0050770D02*
X0201931Y0050770D01*
X0201931Y0051768D02*
X0200962Y0051768D01*
X0198117Y0051768D02*
X0197782Y0051768D01*
X0194754Y0048842D02*
X0195754Y0045996D01*
X0195100Y0045842D01*
X0196820Y0043780D02*
X0205588Y0043780D01*
X0208769Y0043780D02*
X0209738Y0043780D01*
X0209738Y0044778D02*
X0208769Y0044778D01*
X0208769Y0045777D02*
X0209738Y0045777D01*
X0212574Y0045777D02*
X0212926Y0045777D01*
X0214946Y0050689D02*
X0215600Y0053342D01*
X0215946Y0050842D02*
X0214946Y0050689D01*
X0208258Y0031798D02*
X0133946Y0031798D01*
X0133100Y0034342D02*
X0130966Y0036476D01*
X0136466Y0041976D02*
X0138600Y0039842D01*
X0128491Y0042781D02*
X0127122Y0042781D01*
X0127493Y0041783D02*
X0126344Y0041783D01*
X0137464Y0026805D02*
X0213251Y0026805D01*
X0214249Y0025807D02*
X0137639Y0025807D01*
X0139239Y0024808D02*
X0215248Y0024808D01*
X0216246Y0023810D02*
X0140237Y0023810D01*
X0141236Y0022811D02*
X0216913Y0022811D01*
X0216913Y0021813D02*
X0142177Y0021813D01*
X0142386Y0020814D02*
X0216913Y0020814D01*
X0216913Y0019816D02*
X0142775Y0019816D01*
X0142775Y0018817D02*
X0216913Y0018817D01*
X0216913Y0017819D02*
X0142359Y0017819D01*
X0141000Y0016820D02*
X0216913Y0016820D01*
X0216318Y0015822D02*
X0135526Y0015822D01*
X0135889Y0014823D02*
X0215925Y0014823D01*
X0215925Y0013825D02*
X0135498Y0013825D01*
X0133501Y0011828D02*
X0189812Y0011828D01*
X0220287Y0016820D02*
X0226736Y0016820D01*
X0225737Y0017819D02*
X0220287Y0017819D01*
X0220287Y0018817D02*
X0224739Y0018817D01*
X0223740Y0019816D02*
X0220287Y0019816D01*
X0220287Y0020814D02*
X0222742Y0020814D01*
X0221743Y0021813D02*
X0220287Y0021813D01*
X0220287Y0022811D02*
X0220745Y0022811D01*
X0233866Y0012826D02*
X0235230Y0012826D01*
X0232518Y0011828D02*
X0243682Y0011828D01*
X0245518Y0011828D02*
X0255813Y0011828D01*
X0255813Y0012826D02*
X0246866Y0012826D01*
X0247275Y0013825D02*
X0255813Y0013825D01*
X0255813Y0014823D02*
X0247275Y0014823D01*
X0247928Y0006835D02*
X0255272Y0006835D01*
X0254273Y0005837D02*
X0248927Y0005837D01*
X0249925Y0004838D02*
X0253275Y0004838D01*
X0252276Y0003840D02*
X0250924Y0003840D01*
X0242772Y0006835D02*
X0234928Y0006835D01*
X0235927Y0005837D02*
X0241773Y0005837D01*
X0240775Y0004838D02*
X0236925Y0004838D01*
X0237924Y0003840D02*
X0239776Y0003840D01*
X0178452Y0045777D02*
X0177082Y0045777D01*
X0176849Y0044778D02*
X0177453Y0044778D01*
X0171734Y0049209D02*
X0169600Y0051342D01*
X0157600Y0058842D02*
X0155466Y0060976D01*
X0161287Y0071738D02*
X0162656Y0071738D01*
X0161658Y0072737D02*
X0161179Y0072737D01*
X0116687Y0090710D02*
X0208967Y0090710D01*
X0192493Y0119667D02*
X0164275Y0119667D01*
X0164154Y0120665D02*
X0191692Y0120665D01*
X0191425Y0121664D02*
X0163561Y0121664D01*
X0159639Y0121664D02*
X0132082Y0121664D01*
X0132001Y0121858D02*
X0131249Y0122610D01*
X0130266Y0123017D01*
X0129202Y0123017D01*
X0128219Y0122610D01*
X0127466Y0121858D01*
X0127059Y0120875D01*
X0127059Y0119810D01*
X0127466Y0118827D01*
X0128219Y0118075D01*
X0129202Y0117668D01*
X0130266Y0117668D01*
X0131249Y0118075D01*
X0132001Y0118827D01*
X0132408Y0119810D01*
X0132408Y0120875D01*
X0132001Y0121858D01*
X0131123Y0122662D02*
X0191544Y0122662D01*
X0159990Y0117670D02*
X0133471Y0117670D01*
X0131842Y0118668D02*
X0159191Y0118668D01*
X0158925Y0119667D02*
X0132349Y0119667D01*
X0132408Y0120665D02*
X0159046Y0120665D01*
X0139234Y0134476D02*
X0136600Y0131842D01*
X0136600Y0131842D01*
X0148212Y0138639D02*
X0236313Y0138639D01*
X0236313Y0139637D02*
X0148365Y0139637D01*
X0143710Y0139637D02*
X0142853Y0139637D01*
X0143224Y0140636D02*
X0141855Y0140636D01*
X0143905Y0143631D02*
X0107717Y0143631D01*
X0106718Y0144630D02*
X0182738Y0144630D01*
X0182425Y0143631D02*
X0144306Y0143631D01*
X0114600Y0133342D02*
X0112002Y0135941D01*
X0110502Y0135941D01*
X0112513Y0128653D02*
X0106394Y0128653D01*
X0106677Y0127655D02*
X0112513Y0127655D01*
X0112513Y0126656D02*
X0106172Y0126656D01*
X0106787Y0125658D02*
X0112513Y0125658D01*
X0112513Y0124659D02*
X0107450Y0124659D01*
X0107775Y0123661D02*
X0112513Y0123661D01*
X0112513Y0122662D02*
X0107713Y0122662D01*
X0107204Y0121664D02*
X0112513Y0121664D01*
X0116687Y0121664D02*
X0127386Y0121664D01*
X0127059Y0120665D02*
X0116687Y0120665D01*
X0116687Y0119667D02*
X0127118Y0119667D01*
X0127625Y0118668D02*
X0116687Y0118668D01*
X0116687Y0117670D02*
X0129196Y0117670D01*
X0128824Y0116671D02*
X0116687Y0116671D01*
X0116687Y0115673D02*
X0127826Y0115673D01*
X0126827Y0114674D02*
X0116687Y0114674D01*
X0116687Y0113676D02*
X0125829Y0113676D01*
X0124586Y0112677D02*
X0116687Y0112677D01*
X0116687Y0111679D02*
X0123531Y0111679D01*
X0123714Y0110680D02*
X0116687Y0110680D01*
X0116687Y0109682D02*
X0121534Y0109682D01*
X0120850Y0108683D02*
X0116687Y0108683D01*
X0116687Y0107685D02*
X0120955Y0107685D01*
X0123343Y0109682D02*
X0124713Y0109682D01*
X0124756Y0108683D02*
X0124342Y0108683D01*
X0129966Y0113209D02*
X0132100Y0115342D01*
X0132100Y0115342D01*
X0130729Y0117670D02*
X0130271Y0117670D01*
X0128345Y0122662D02*
X0116687Y0122662D01*
X0112513Y0110680D02*
X0083521Y0110680D01*
X0082523Y0109682D02*
X0112513Y0109682D01*
X0112513Y0108683D02*
X0081524Y0108683D01*
X0080229Y0107685D02*
X0112513Y0107685D01*
X0112513Y0098698D02*
X0055631Y0098698D01*
X0056629Y0097700D02*
X0112513Y0097700D01*
X0112513Y0096701D02*
X0096395Y0096701D01*
X0096615Y0096610D02*
X0095632Y0097017D01*
X0094568Y0097017D01*
X0093585Y0096610D01*
X0092832Y0095858D01*
X0092425Y0094875D01*
X0092425Y0093810D01*
X0092832Y0092827D01*
X0093023Y0092637D01*
X0093023Y0091815D01*
X0096840Y0087998D01*
X0097593Y0087998D01*
X0097543Y0087813D01*
X0097543Y0087418D01*
X0097645Y0087036D01*
X0097843Y0086694D01*
X0099171Y0085366D01*
X0101281Y0087476D01*
X0101966Y0086791D01*
X0099856Y0084681D01*
X0101184Y0083353D01*
X0101527Y0083155D01*
X0101908Y0083053D01*
X0102303Y0083053D01*
X0102684Y0083155D01*
X0103027Y0083353D01*
X0104216Y0084542D01*
X0101966Y0086791D01*
X0102651Y0087476D01*
X0104901Y0085227D01*
X0106090Y0086416D01*
X0106287Y0086758D01*
X0106389Y0087139D01*
X0106389Y0087534D01*
X0106287Y0087916D01*
X0106090Y0088258D01*
X0104761Y0089586D01*
X0102651Y0087476D01*
X0101966Y0088161D01*
X0104076Y0090271D01*
X0102748Y0091600D01*
X0102406Y0091797D01*
X0102025Y0091899D01*
X0101630Y0091899D01*
X0101444Y0091850D01*
X0101444Y0092603D01*
X0097628Y0096419D01*
X0096806Y0096419D01*
X0096615Y0096610D01*
X0098344Y0095703D02*
X0112513Y0095703D01*
X0112513Y0094704D02*
X0099343Y0094704D01*
X0100341Y0093706D02*
X0112513Y0093706D01*
X0112513Y0092707D02*
X0101340Y0092707D01*
X0102559Y0091709D02*
X0112513Y0091709D01*
X0112513Y0090710D02*
X0103638Y0090710D01*
X0103517Y0089711D02*
X0112017Y0089711D01*
X0111018Y0088713D02*
X0105635Y0088713D01*
X0106341Y0087714D02*
X0110020Y0087714D01*
X0109021Y0086716D02*
X0106263Y0086716D01*
X0105391Y0085717D02*
X0108023Y0085717D01*
X0107024Y0084719D02*
X0104039Y0084719D01*
X0104410Y0085717D02*
X0103040Y0085717D01*
X0103411Y0086716D02*
X0102042Y0086716D01*
X0101891Y0086716D02*
X0100521Y0086716D01*
X0100892Y0085717D02*
X0099523Y0085717D01*
X0098820Y0085717D02*
X0094430Y0085717D01*
X0093431Y0086716D02*
X0097830Y0086716D01*
X0097543Y0087714D02*
X0092433Y0087714D01*
X0091434Y0088713D02*
X0096125Y0088713D01*
X0095126Y0089711D02*
X0064617Y0089711D01*
X0065616Y0088713D02*
X0086688Y0088713D01*
X0086066Y0087714D02*
X0066614Y0087714D01*
X0067613Y0086716D02*
X0085925Y0086716D01*
X0086123Y0085717D02*
X0068611Y0085717D01*
X0069610Y0084719D02*
X0086219Y0084719D01*
X0082100Y0081342D02*
X0084234Y0079209D01*
X0095641Y0084719D02*
X0099894Y0084719D01*
X0100817Y0083720D02*
X0096727Y0083720D01*
X0103394Y0083720D02*
X0106026Y0083720D01*
X0102889Y0087714D02*
X0102413Y0087714D01*
X0102518Y0088713D02*
X0103888Y0088713D01*
X0097234Y0092209D02*
X0095100Y0094342D01*
X0092953Y0092707D02*
X0061622Y0092707D01*
X0062620Y0091709D02*
X0093129Y0091709D01*
X0094128Y0090710D02*
X0063619Y0090710D01*
X0060623Y0093706D02*
X0092469Y0093706D01*
X0092425Y0094704D02*
X0059625Y0094704D01*
X0058626Y0095703D02*
X0092768Y0095703D01*
X0093805Y0096701D02*
X0057628Y0096701D01*
X0039713Y0109682D02*
X0004387Y0109682D01*
X0004387Y0110680D02*
X0039713Y0110680D01*
X0039713Y0111679D02*
X0004387Y0111679D01*
X0004387Y0112677D02*
X0039713Y0112677D01*
X0039713Y0113676D02*
X0004387Y0113676D01*
X0004387Y0114674D02*
X0039713Y0114674D01*
X0039713Y0115673D02*
X0004387Y0115673D01*
X0004387Y0116671D02*
X0039713Y0116671D01*
X0039713Y0117670D02*
X0004387Y0117670D01*
X0004387Y0118668D02*
X0039713Y0118668D01*
X0039713Y0119667D02*
X0004387Y0119667D01*
X0004387Y0120665D02*
X0039713Y0120665D01*
X0039713Y0121664D02*
X0004387Y0121664D01*
X0004387Y0122662D02*
X0033927Y0122662D01*
X0033880Y0122689D02*
X0034222Y0122492D01*
X0034603Y0122390D01*
X0036860Y0122390D01*
X0036860Y0126342D01*
X0033301Y0126342D01*
X0033301Y0123692D01*
X0033403Y0123311D01*
X0033600Y0122969D01*
X0033880Y0122689D01*
X0033309Y0123661D02*
X0004387Y0123661D01*
X0004387Y0124659D02*
X0033301Y0124659D01*
X0033301Y0125658D02*
X0004387Y0125658D01*
X0004387Y0126656D02*
X0036860Y0126656D01*
X0036860Y0125658D02*
X0037860Y0125658D01*
X0037860Y0124659D02*
X0036860Y0124659D01*
X0036860Y0123661D02*
X0037860Y0123661D01*
X0037860Y0122662D02*
X0036860Y0122662D01*
X0036860Y0127655D02*
X0037860Y0127655D01*
X0037860Y0128653D02*
X0036860Y0128653D01*
X0036860Y0129652D02*
X0037860Y0129652D01*
X0037860Y0130650D02*
X0036860Y0130650D01*
X0039713Y0131649D02*
X0004387Y0131649D01*
X0004387Y0132647D02*
X0039713Y0132647D01*
X0039713Y0133646D02*
X0004387Y0133646D01*
X0004387Y0134644D02*
X0039713Y0134644D01*
X0039713Y0135643D02*
X0004387Y0135643D01*
X0004387Y0136642D02*
X0039713Y0136642D01*
X0039713Y0137640D02*
X0004718Y0137640D01*
X0005717Y0138639D02*
X0039713Y0138639D01*
X0039713Y0139637D02*
X0006715Y0139637D01*
X0007714Y0140636D02*
X0039713Y0140636D01*
X0039713Y0141634D02*
X0008712Y0141634D01*
X0009711Y0142633D02*
X0039713Y0142633D01*
X0039713Y0143631D02*
X0010709Y0143631D01*
X0011708Y0144630D02*
X0039713Y0144630D01*
X0039713Y0145628D02*
X0012706Y0145628D01*
X0013705Y0146627D02*
X0039713Y0146627D01*
X0039713Y0147625D02*
X0014703Y0147625D01*
X0015702Y0148624D02*
X0039713Y0148624D01*
X0052987Y0148624D02*
X0234998Y0148624D01*
X0099100Y0120342D02*
X0096966Y0122476D01*
X0086375Y0120665D02*
X0085005Y0120665D01*
X0085377Y0119667D02*
X0084007Y0119667D01*
X0086004Y0121664D02*
X0086094Y0121664D01*
X0093697Y0130650D02*
X0094887Y0130650D01*
X0094990Y0130650D02*
X0096360Y0130650D01*
X0095989Y0131649D02*
X0097359Y0131649D01*
X0097110Y0132647D02*
X0096988Y0132647D01*
X0095638Y0142633D02*
X0092562Y0142633D01*
X0093950Y0143631D02*
X0094250Y0143631D01*
X0090638Y0142633D02*
X0052987Y0142633D01*
X0052987Y0143631D02*
X0089250Y0143631D01*
X0088787Y0144630D02*
X0052987Y0144630D01*
X0052987Y0145628D02*
X0088728Y0145628D01*
X0089024Y0146627D02*
X0052987Y0146627D01*
X0052987Y0147625D02*
X0089822Y0147625D01*
X0093378Y0147625D02*
X0094822Y0147625D01*
X0033563Y0130650D02*
X0004387Y0130650D01*
X0004387Y0129652D02*
X0033301Y0129652D01*
X0033301Y0128653D02*
X0004387Y0128653D01*
X0004387Y0127655D02*
X0033301Y0127655D01*
X0018096Y0080725D02*
X0004387Y0080725D01*
X0004387Y0079726D02*
X0017098Y0079726D01*
X0016099Y0078728D02*
X0004387Y0078728D01*
X0004387Y0077729D02*
X0015101Y0077729D01*
X0014468Y0076731D02*
X0004387Y0076731D01*
X0004387Y0075732D02*
X0014063Y0075732D01*
X0014063Y0074734D02*
X0004387Y0074734D01*
X0004387Y0073735D02*
X0014063Y0073735D01*
X0014063Y0072737D02*
X0004387Y0072737D01*
X0028287Y0065747D02*
X0035704Y0065747D01*
X0034998Y0064749D02*
X0028580Y0064749D01*
X0034124Y0066746D02*
X0038117Y0066746D01*
X0039115Y0067744D02*
X0034137Y0067744D01*
X0031600Y0071542D02*
X0031600Y0074842D01*
X0033500Y0074842D01*
X0082591Y0071738D02*
X0086913Y0071738D01*
X0087798Y0070740D02*
X0083589Y0070740D01*
X0025315Y0028984D02*
X0024646Y0029201D01*
X0024084Y0029290D01*
X0024084Y0025327D01*
X0028047Y0025327D01*
X0027958Y0025889D01*
X0027741Y0026558D01*
X0027422Y0027184D01*
X0027008Y0027754D01*
X0026511Y0028251D01*
X0025942Y0028664D01*
X0025315Y0028984D01*
X0025671Y0028802D02*
X0032039Y0028802D01*
X0030543Y0027804D02*
X0026958Y0027804D01*
X0027615Y0026805D02*
X0029806Y0026805D01*
X0029393Y0025807D02*
X0027971Y0025807D01*
X0024084Y0025807D02*
X0023116Y0025807D01*
X0023116Y0026805D02*
X0024084Y0026805D01*
X0024084Y0027804D02*
X0023116Y0027804D01*
X0023116Y0028802D02*
X0024084Y0028802D01*
X0021529Y0028802D02*
X0004387Y0028802D01*
X0006769Y0027804D02*
X0007738Y0027804D01*
X0007738Y0026805D02*
X0006769Y0026805D01*
X0006769Y0025807D02*
X0007738Y0025807D01*
X0010495Y0027804D02*
X0010953Y0027804D01*
X0016940Y0027804D02*
X0020242Y0027804D01*
X0019585Y0026805D02*
X0017202Y0026805D01*
X0017202Y0025807D02*
X0019229Y0025807D01*
X0019239Y0023810D02*
X0017202Y0023810D01*
X0017202Y0024808D02*
X0023116Y0024808D01*
X0019620Y0022811D02*
X0017202Y0022811D01*
X0019016Y0021813D02*
X0020310Y0021813D01*
X0020015Y0020814D02*
X0021663Y0020814D01*
X0022012Y0018817D02*
X0022075Y0018817D01*
X0014739Y0018817D02*
X0004387Y0018817D01*
X0105178Y0019816D02*
X0111790Y0019816D01*
X0113600Y0017842D02*
X0113600Y0017842D01*
X0109466Y0013709D01*
X0131148Y0024808D02*
X0132518Y0024808D01*
X0132147Y0025807D02*
X0132951Y0025807D01*
X0137966Y0021476D02*
X0140100Y0019342D01*
D18*
X0140100Y0019342D03*
X0125600Y0023342D03*
X0113600Y0017842D03*
X0118100Y0014842D03*
X0104100Y0023342D03*
X0098600Y0028842D03*
X0094100Y0034342D03*
X0087100Y0040342D03*
X0103600Y0049842D03*
X0095600Y0050842D03*
X0091600Y0053842D03*
X0087600Y0058842D03*
X0071100Y0059342D03*
X0059600Y0049842D03*
X0065100Y0048842D03*
X0057600Y0043342D03*
X0031600Y0055842D03*
X0023600Y0056842D03*
X0035100Y0074842D03*
X0054600Y0067342D03*
X0059100Y0071342D03*
X0077600Y0078842D03*
X0082100Y0081342D03*
X0088600Y0086842D03*
X0095100Y0094342D03*
X0117100Y0081342D03*
X0120600Y0084842D03*
X0124100Y0081342D03*
X0127600Y0084842D03*
X0131100Y0081342D03*
X0127600Y0077842D03*
X0131100Y0074342D03*
X0127600Y0070842D03*
X0124100Y0067342D03*
X0120600Y0063842D03*
X0124100Y0060342D03*
X0127600Y0063842D03*
X0131100Y0067342D03*
X0134600Y0070842D03*
X0138100Y0074342D03*
X0134600Y0077842D03*
X0146100Y0069842D03*
X0157600Y0058842D03*
X0150600Y0051842D03*
X0161600Y0045592D03*
X0169600Y0051342D03*
X0188100Y0040842D03*
X0195100Y0045842D03*
X0215600Y0053342D03*
X0215600Y0057342D03*
X0201600Y0064342D03*
X0186600Y0071842D03*
X0167100Y0079342D03*
X0161600Y0085842D03*
X0156600Y0090342D03*
X0149100Y0089342D03*
X0145100Y0102842D03*
X0140600Y0106842D03*
X0134100Y0104342D03*
X0132100Y0115342D03*
X0129734Y0120342D03*
X0121600Y0115342D03*
X0108600Y0108842D03*
X0093600Y0114842D03*
X0089600Y0110842D03*
X0080600Y0118342D03*
X0099100Y0120342D03*
X0105100Y0123342D03*
X0114600Y0133342D03*
X0123600Y0134842D03*
X0136600Y0131842D03*
X0146600Y0131842D03*
X0164100Y0129342D03*
X0161600Y0119842D03*
X0148100Y0117842D03*
X0167100Y0105842D03*
X0178100Y0092842D03*
X0189100Y0098842D03*
X0211600Y0091342D03*
X0214958Y0084496D03*
X0225600Y0076842D03*
X0224100Y0071842D03*
X0239100Y0071842D03*
X0229100Y0097842D03*
X0194100Y0121842D03*
X0185100Y0143342D03*
X0149100Y0144342D03*
X0090600Y0138342D03*
X0058600Y0141842D03*
X0009100Y0109342D03*
X0019100Y0106842D03*
X0025100Y0106842D03*
X0025100Y0100342D03*
X0041600Y0091842D03*
X0066600Y0099842D03*
X0110100Y0074342D03*
X0113600Y0070842D03*
X0117100Y0074342D03*
X0120600Y0070842D03*
X0117100Y0067342D03*
X0113600Y0077842D03*
X0120600Y0077842D03*
X0124100Y0088342D03*
X0098600Y0073342D03*
X0050600Y0058842D03*
X0027600Y0036842D03*
X0076100Y0024842D03*
X0079100Y0019842D03*
X0080100Y0009842D03*
X0099100Y0005342D03*
X0133100Y0034342D03*
X0138600Y0039842D03*
X0111600Y0035342D03*
X0107600Y0039342D03*
X0215100Y0021842D03*
X0222600Y0017842D03*
X0218600Y0014342D03*
X0231600Y0014342D03*
X0244600Y0014342D03*
X0219100Y0005342D03*
D19*
X0238100Y0018842D03*
X0244600Y0018842D03*
X0251100Y0018842D03*
X0243600Y0033842D03*
X0236100Y0033842D03*
X0228600Y0033842D03*
X0225100Y0037342D03*
X0229600Y0045842D03*
X0241600Y0049342D03*
X0228600Y0055842D03*
X0251600Y0061842D03*
X0251600Y0069342D03*
X0249600Y0107842D03*
X0234100Y0109842D03*
X0218600Y0109842D03*
X0233600Y0122842D03*
X0222600Y0125342D03*
X0215100Y0127842D03*
X0096600Y0145342D03*
X0091600Y0145342D03*
X0058600Y0124842D03*
X0054600Y0116842D03*
X0049100Y0116842D03*
X0043600Y0116842D03*
X0043600Y0111342D03*
X0049100Y0111342D03*
X0054600Y0111342D03*
X0061600Y0111842D03*
X0066600Y0116842D03*
X0079100Y0110342D03*
X0085100Y0116342D03*
X0049100Y0136342D03*
X0043600Y0136342D03*
X0043600Y0141842D03*
X0049100Y0141842D03*
X0049100Y0147342D03*
X0043600Y0147342D03*
X0016600Y0141842D03*
X0021600Y0121842D03*
X0026600Y0116842D03*
X0031600Y0121842D03*
X0031600Y0111842D03*
X0021600Y0111842D03*
X0017100Y0056842D03*
X0009100Y0056842D03*
X0009600Y0036842D03*
X0015600Y0036842D03*
X0021600Y0036842D03*
X0071100Y0036842D03*
D20*
X0079100Y0110342D02*
X0085100Y0116342D01*
D21*
X0056600Y0116900D02*
X0041600Y0116900D01*
X0041600Y0118098D02*
X0056600Y0118098D01*
X0056600Y0119297D02*
X0041600Y0119297D01*
X0041600Y0120495D02*
X0056600Y0120495D01*
X0056600Y0121694D02*
X0041600Y0121694D01*
X0041664Y0122399D02*
X0042070Y0122290D01*
X0044240Y0122290D01*
X0044240Y0126242D01*
X0045440Y0126242D01*
X0045440Y0122290D01*
X0047610Y0122290D01*
X0048017Y0122399D01*
X0048382Y0122609D01*
X0048680Y0122907D01*
X0048890Y0123272D01*
X0048999Y0123679D01*
X0048999Y0126242D01*
X0045440Y0126242D01*
X0045440Y0127442D01*
X0048999Y0127442D01*
X0048999Y0130006D01*
X0048890Y0130413D01*
X0048680Y0130778D01*
X0048382Y0131076D01*
X0048017Y0131286D01*
X0047610Y0131395D01*
X0045440Y0131395D01*
X0045440Y0127443D01*
X0044240Y0127443D01*
X0044240Y0131395D01*
X0042070Y0131395D01*
X0041664Y0131286D01*
X0041600Y0131250D01*
X0041600Y0148955D01*
X0051100Y0148955D01*
X0051100Y0134342D01*
X0056600Y0128842D01*
X0056600Y0127045D01*
X0056081Y0126526D01*
X0055628Y0125434D01*
X0055628Y0124251D01*
X0056081Y0123159D01*
X0056600Y0122640D01*
X0056600Y0109342D01*
X0041600Y0109342D01*
X0041600Y0122435D01*
X0041664Y0122399D01*
X0044240Y0122892D02*
X0045440Y0122892D01*
X0045440Y0124091D02*
X0044240Y0124091D01*
X0044240Y0125289D02*
X0045440Y0125289D01*
X0045440Y0126488D02*
X0056065Y0126488D01*
X0055628Y0125289D02*
X0048999Y0125289D01*
X0048999Y0124091D02*
X0055695Y0124091D01*
X0056348Y0122892D02*
X0048664Y0122892D01*
X0048999Y0127686D02*
X0056600Y0127686D01*
X0056558Y0128885D02*
X0048999Y0128885D01*
X0048978Y0130083D02*
X0055359Y0130083D01*
X0054161Y0131282D02*
X0048025Y0131282D01*
X0045440Y0131282D02*
X0044240Y0131282D01*
X0044240Y0130083D02*
X0045440Y0130083D01*
X0045440Y0128885D02*
X0044240Y0128885D01*
X0044240Y0127686D02*
X0045440Y0127686D01*
X0041656Y0131282D02*
X0041600Y0131282D01*
X0041600Y0132480D02*
X0052962Y0132480D01*
X0051764Y0133679D02*
X0041600Y0133679D01*
X0041600Y0134877D02*
X0051100Y0134877D01*
X0051100Y0136076D02*
X0041600Y0136076D01*
X0041600Y0137274D02*
X0051100Y0137274D01*
X0051100Y0138473D02*
X0041600Y0138473D01*
X0041600Y0139671D02*
X0051100Y0139671D01*
X0051100Y0140870D02*
X0041600Y0140870D01*
X0041600Y0142068D02*
X0051100Y0142068D01*
X0051100Y0143267D02*
X0041600Y0143267D01*
X0041600Y0144465D02*
X0051100Y0144465D01*
X0051100Y0145664D02*
X0041600Y0145664D01*
X0041600Y0146862D02*
X0051100Y0146862D01*
X0051100Y0148061D02*
X0041600Y0148061D01*
X0041600Y0115701D02*
X0056600Y0115701D01*
X0056600Y0114503D02*
X0041600Y0114503D01*
X0041600Y0113304D02*
X0056600Y0113304D01*
X0056600Y0112106D02*
X0041600Y0112106D01*
X0041600Y0110907D02*
X0056600Y0110907D01*
X0056600Y0109709D02*
X0041600Y0109709D01*
X0165466Y0077709D02*
X0167100Y0079342D01*
X0125600Y0023342D02*
X0125600Y0020842D01*
X0126734Y0019709D01*
D22*
X0194754Y0048842D02*
X0194754Y0056842D01*
X0215946Y0059842D02*
X0215946Y0067842D01*
X0215946Y0050842D02*
X0215946Y0042842D01*
X0114600Y0089342D02*
X0098600Y0073342D01*
X0114600Y0089342D02*
X0114600Y0133342D01*
D23*
X0162600Y0013842D03*
D24*
X0124100Y0074342D03*
M02*
