G75*
%MOIN*%
%OFA0B0*%
%FSLAX25Y25*%
%IPPOS*%
%LPD*%
%AMOC8*
5,1,8,0,0,1.08239X$1,22.5*
%
%ADD10C,0.00000*%
%ADD11C,0.00800*%
%ADD12C,0.05937*%
%ADD13C,0.02775*%
%ADD14C,0.03169*%
%ADD15C,0.01600*%
%ADD16C,0.01200*%
%ADD17C,0.01500*%
%ADD18C,0.04000*%
%ADD19C,0.01000*%
%ADD20C,0.16598*%
%ADD21C,0.03562*%
D10*
X0003100Y0006842D02*
X0008100Y0001842D01*
X0226100Y0001842D01*
X0230100Y0005842D01*
X0234100Y0005842D01*
X0238100Y0001842D01*
X0239600Y0001842D01*
X0243600Y0005842D01*
X0247100Y0005842D01*
X0251100Y0001842D01*
X0252100Y0001842D01*
X0257100Y0006842D01*
X0257100Y0106842D01*
X0237600Y0126342D01*
X0237600Y0147842D01*
X0235100Y0150342D01*
X0015600Y0150342D01*
X0003100Y0137842D01*
X0003100Y0006842D01*
D11*
X0202000Y0007776D02*
X0202534Y0007242D01*
X0203601Y0007242D01*
X0204135Y0007776D01*
X0204135Y0008310D01*
X0203601Y0008844D01*
X0203068Y0008844D01*
X0203601Y0008844D02*
X0204135Y0009378D01*
X0204135Y0009911D01*
X0203601Y0010445D01*
X0202534Y0010445D01*
X0202000Y0009911D01*
D12*
X0063600Y0014842D03*
X0053600Y0014842D03*
X0043600Y0014842D03*
X0033600Y0014842D03*
X0023600Y0014842D03*
X0023600Y0024842D03*
X0033600Y0024842D03*
X0043600Y0024842D03*
X0053600Y0024842D03*
X0063600Y0024842D03*
D13*
X0076100Y0024842D03*
X0079100Y0019842D03*
X0080100Y0009842D03*
X0099100Y0005342D03*
X0118100Y0014842D03*
X0113600Y0017842D03*
X0104100Y0023342D03*
X0098600Y0028842D03*
X0094100Y0034342D03*
X0087100Y0040342D03*
X0103600Y0049842D03*
X0095600Y0050842D03*
X0091600Y0053842D03*
X0087600Y0058842D03*
X0071100Y0059342D03*
X0059600Y0049842D03*
X0065100Y0048842D03*
X0057600Y0043342D03*
X0031600Y0055842D03*
X0023600Y0056842D03*
X0035100Y0074842D03*
X0054600Y0067342D03*
X0059100Y0071342D03*
X0077600Y0078842D03*
X0082100Y0081342D03*
X0088600Y0086842D03*
X0095100Y0094342D03*
X0117100Y0081342D03*
X0120600Y0084842D03*
X0124100Y0081342D03*
X0127600Y0084842D03*
X0131100Y0081342D03*
X0127600Y0077842D03*
X0131100Y0074342D03*
X0127600Y0070842D03*
X0124100Y0067342D03*
X0120600Y0063842D03*
X0124100Y0060342D03*
X0127600Y0063842D03*
X0131100Y0067342D03*
X0134600Y0070842D03*
X0138100Y0074342D03*
X0134600Y0077842D03*
X0146100Y0069842D03*
X0157600Y0058842D03*
X0150600Y0051842D03*
X0161600Y0045592D03*
X0169600Y0051342D03*
X0188100Y0040842D03*
X0195100Y0045842D03*
X0215600Y0053342D03*
X0215600Y0057342D03*
X0201600Y0064342D03*
X0186600Y0071842D03*
X0167100Y0079342D03*
X0161600Y0085842D03*
X0156600Y0090342D03*
X0149100Y0089342D03*
X0145100Y0102842D03*
X0140600Y0106842D03*
X0134100Y0104342D03*
X0132100Y0115342D03*
X0129734Y0120342D03*
X0121600Y0115342D03*
X0108600Y0108842D03*
X0093600Y0114842D03*
X0089600Y0110842D03*
X0080600Y0118342D03*
X0099100Y0120342D03*
X0105100Y0123342D03*
X0114600Y0133342D03*
X0123600Y0134842D03*
X0136600Y0131842D03*
X0146600Y0131842D03*
X0164100Y0129342D03*
X0161600Y0119842D03*
X0148100Y0117842D03*
X0167100Y0105842D03*
X0178100Y0092842D03*
X0189100Y0098842D03*
X0211600Y0091342D03*
X0214958Y0084496D03*
X0225600Y0076842D03*
X0224100Y0071842D03*
X0239100Y0071842D03*
X0229100Y0097842D03*
X0194100Y0121842D03*
X0185100Y0143342D03*
X0149100Y0144342D03*
X0090600Y0138342D03*
X0058600Y0141842D03*
X0009100Y0109342D03*
X0019100Y0106842D03*
X0025100Y0106842D03*
X0025100Y0100342D03*
X0041600Y0091842D03*
X0066600Y0099842D03*
X0110100Y0074342D03*
X0113600Y0070842D03*
X0117100Y0074342D03*
X0120600Y0070842D03*
X0117100Y0067342D03*
X0113600Y0077842D03*
X0120600Y0077842D03*
X0124100Y0088342D03*
X0098600Y0073342D03*
X0050600Y0058842D03*
X0027600Y0036842D03*
X0107600Y0039342D03*
X0111600Y0035342D03*
X0125600Y0023342D03*
X0140100Y0019342D03*
X0133100Y0034342D03*
X0138600Y0039842D03*
X0215100Y0021842D03*
X0222600Y0017842D03*
X0218600Y0014342D03*
X0231600Y0014342D03*
X0244600Y0014342D03*
X0219100Y0005342D03*
D14*
X0238100Y0018842D03*
X0244600Y0018842D03*
X0251100Y0018842D03*
X0243600Y0033842D03*
X0236100Y0033842D03*
X0228600Y0033842D03*
X0225100Y0037342D03*
X0229600Y0045842D03*
X0241600Y0049342D03*
X0228600Y0055842D03*
X0251600Y0061842D03*
X0251600Y0069342D03*
X0249600Y0107842D03*
X0234100Y0109842D03*
X0218600Y0109842D03*
X0233600Y0122842D03*
X0222600Y0125342D03*
X0215100Y0127842D03*
X0096600Y0145342D03*
X0091600Y0145342D03*
X0058600Y0124842D03*
X0054600Y0116842D03*
X0049100Y0116842D03*
X0043600Y0116842D03*
X0043600Y0111342D03*
X0049100Y0111342D03*
X0054600Y0111342D03*
X0061600Y0111842D03*
X0066600Y0116842D03*
X0079100Y0110342D03*
X0085100Y0116342D03*
X0049100Y0136342D03*
X0043600Y0136342D03*
X0043600Y0141842D03*
X0049100Y0141842D03*
X0049100Y0147342D03*
X0043600Y0147342D03*
X0016600Y0141842D03*
X0021600Y0121842D03*
X0026600Y0116842D03*
X0031600Y0121842D03*
X0031600Y0111842D03*
X0021600Y0111842D03*
X0017100Y0056842D03*
X0009100Y0056842D03*
X0009600Y0036842D03*
X0015600Y0036842D03*
X0021600Y0036842D03*
X0071100Y0036842D03*
D15*
X0071100Y0059342D02*
X0088600Y0076842D01*
X0088600Y0086842D01*
X0079100Y0096342D01*
X0079100Y0110342D01*
X0085100Y0116342D02*
X0092100Y0123342D01*
X0105100Y0123342D01*
X0121100Y0107342D01*
X0122100Y0106342D01*
X0124100Y0106342D01*
X0124100Y0104342D01*
X0122100Y0106342D01*
X0121100Y0107342D02*
X0125100Y0107342D01*
X0125100Y0103342D01*
X0156100Y0072342D01*
X0157100Y0071342D01*
X0159600Y0071342D01*
X0159600Y0068842D01*
X0157100Y0071342D01*
X0156100Y0072342D02*
X0160600Y0072342D01*
X0160600Y0067842D01*
X0160600Y0061842D01*
X0157600Y0058842D01*
X0160600Y0067842D02*
X0159600Y0068842D01*
X0179600Y0051842D02*
X0155100Y0027342D01*
X0123100Y0027342D01*
X0113600Y0017842D01*
X0179600Y0051842D02*
X0179600Y0085842D01*
X0158600Y0106842D01*
X0144600Y0106842D01*
X0142600Y0108842D01*
X0142350Y0109092D01*
X0140600Y0107342D01*
X0140600Y0106842D01*
X0144600Y0106842D01*
X0142600Y0106842D02*
X0142600Y0108842D01*
X0142350Y0109092D02*
X0140600Y0110842D01*
X0140600Y0106842D01*
X0140600Y0110842D02*
X0140600Y0127842D01*
X0136600Y0131842D01*
X0123100Y0145342D01*
X0096600Y0145342D01*
X0124100Y0104342D02*
X0125100Y0103342D01*
D16*
X0096553Y0004240D02*
X0007665Y0004240D01*
X0008675Y0003230D02*
X0004487Y0007417D01*
X0004487Y0137268D01*
X0016175Y0148955D01*
X0040100Y0148955D01*
X0040100Y0132842D01*
X0052600Y0132842D01*
X0052600Y0148955D01*
X0154613Y0148955D01*
X0154613Y0132019D01*
X0157613Y0129019D01*
X0158777Y0127855D01*
X0161713Y0127855D01*
X0161748Y0127771D01*
X0162528Y0126990D01*
X0163548Y0126568D01*
X0164652Y0126568D01*
X0165672Y0126990D01*
X0166452Y0127771D01*
X0166487Y0127855D01*
X0178777Y0127855D01*
X0179613Y0127019D01*
X0179613Y0105019D01*
X0180777Y0103855D01*
X0181613Y0103019D01*
X0182777Y0101855D01*
X0189777Y0101855D01*
X0190271Y0101361D01*
X0189652Y0101617D01*
X0188548Y0101617D01*
X0187528Y0101195D01*
X0186748Y0100414D01*
X0186325Y0099394D01*
X0186325Y0098291D01*
X0186748Y0097271D01*
X0187528Y0096490D01*
X0188548Y0096068D01*
X0189652Y0096068D01*
X0190672Y0096490D01*
X0191452Y0097271D01*
X0191875Y0098291D01*
X0191875Y0099394D01*
X0191618Y0100014D01*
X0208613Y0083019D01*
X0208613Y0072666D01*
X0207777Y0071830D01*
X0193777Y0071830D01*
X0191777Y0069830D01*
X0190613Y0068666D01*
X0190613Y0044019D01*
X0192613Y0042019D01*
X0193777Y0040855D01*
X0216777Y0040855D01*
X0217613Y0040019D01*
X0217613Y0025019D01*
X0220613Y0022019D01*
X0221777Y0020855D01*
X0255713Y0020855D01*
X0255713Y0007417D01*
X0251600Y0003305D01*
X0248487Y0006417D01*
X0247675Y0007230D01*
X0243025Y0007230D01*
X0239025Y0003230D01*
X0238675Y0003230D01*
X0235487Y0006417D01*
X0234675Y0007230D01*
X0229525Y0007230D01*
X0225525Y0003230D01*
X0220912Y0003230D01*
X0221452Y0003771D01*
X0221875Y0004791D01*
X0221875Y0005894D01*
X0221452Y0006914D01*
X0220672Y0007695D01*
X0219652Y0008117D01*
X0218548Y0008117D01*
X0217528Y0007695D01*
X0216748Y0006914D01*
X0216325Y0005894D01*
X0216325Y0004791D01*
X0216748Y0003771D01*
X0217288Y0003230D01*
X0100912Y0003230D01*
X0101452Y0003771D01*
X0101875Y0004791D01*
X0101875Y0005894D01*
X0101452Y0006914D01*
X0100672Y0007695D01*
X0099652Y0008117D01*
X0098548Y0008117D01*
X0097528Y0007695D01*
X0096748Y0006914D01*
X0096325Y0005894D01*
X0096325Y0004791D01*
X0096748Y0003771D01*
X0097288Y0003230D01*
X0008675Y0003230D01*
X0006467Y0005438D02*
X0096325Y0005438D01*
X0096633Y0006637D02*
X0005268Y0006637D01*
X0004487Y0007835D02*
X0078183Y0007835D01*
X0078528Y0007490D02*
X0077748Y0008271D01*
X0077325Y0009291D01*
X0077325Y0010394D01*
X0077748Y0011414D01*
X0078528Y0012195D01*
X0079548Y0012617D01*
X0080206Y0012617D01*
X0081818Y0014230D01*
X0107318Y0014230D01*
X0110825Y0017737D01*
X0110825Y0018394D01*
X0111248Y0019414D01*
X0112028Y0020195D01*
X0113048Y0020617D01*
X0113281Y0020617D01*
X0122194Y0029530D01*
X0154194Y0029530D01*
X0177413Y0052749D01*
X0177413Y0084936D01*
X0157694Y0104655D01*
X0142337Y0104655D01*
X0142172Y0104490D01*
X0141152Y0104068D01*
X0140048Y0104068D01*
X0139028Y0104490D01*
X0138248Y0105271D01*
X0137825Y0106291D01*
X0137825Y0107394D01*
X0138248Y0108414D01*
X0138413Y0108579D01*
X0138413Y0126936D01*
X0136281Y0129068D01*
X0136048Y0129068D01*
X0135028Y0129490D01*
X0134248Y0130271D01*
X0133825Y0131291D01*
X0133825Y0131524D01*
X0122194Y0143155D01*
X0098615Y0143155D01*
X0098283Y0142823D01*
X0097191Y0142371D01*
X0096009Y0142371D01*
X0094917Y0142823D01*
X0094100Y0143640D01*
X0093283Y0142823D01*
X0092191Y0142371D01*
X0091009Y0142371D01*
X0089917Y0142823D01*
X0089081Y0143659D01*
X0088628Y0144751D01*
X0088628Y0145934D01*
X0089081Y0147026D01*
X0089917Y0147862D01*
X0091009Y0148314D01*
X0092191Y0148314D01*
X0093283Y0147862D01*
X0094100Y0147045D01*
X0094917Y0147862D01*
X0096009Y0148314D01*
X0097191Y0148314D01*
X0098283Y0147862D01*
X0098615Y0147530D01*
X0124006Y0147530D01*
X0136919Y0134617D01*
X0137152Y0134617D01*
X0138172Y0134195D01*
X0138952Y0133414D01*
X0139375Y0132394D01*
X0139375Y0132161D01*
X0141506Y0130030D01*
X0142787Y0128749D01*
X0142787Y0111749D01*
X0143256Y0111280D01*
X0143256Y0111280D01*
X0143506Y0111030D01*
X0143506Y0111030D01*
X0145506Y0109030D01*
X0159506Y0109030D01*
X0175325Y0093211D01*
X0175325Y0093394D01*
X0175748Y0094414D01*
X0176528Y0095195D01*
X0177548Y0095617D01*
X0178652Y0095617D01*
X0179672Y0095195D01*
X0180452Y0094414D01*
X0180875Y0093394D01*
X0180875Y0092291D01*
X0180452Y0091271D01*
X0179672Y0090490D01*
X0178652Y0090068D01*
X0178468Y0090068D01*
X0180506Y0088030D01*
X0180506Y0088030D01*
X0181787Y0086749D01*
X0181787Y0050936D01*
X0157287Y0026436D01*
X0156006Y0025155D01*
X0127712Y0025155D01*
X0127952Y0024914D01*
X0128375Y0023894D01*
X0128375Y0022791D01*
X0127952Y0021771D01*
X0127172Y0020990D01*
X0126152Y0020568D01*
X0125048Y0020568D01*
X0124028Y0020990D01*
X0123248Y0021771D01*
X0122825Y0022791D01*
X0122825Y0023894D01*
X0122882Y0024031D01*
X0116375Y0017524D01*
X0116375Y0017291D01*
X0116199Y0016865D01*
X0116528Y0017195D01*
X0117548Y0017617D01*
X0118652Y0017617D01*
X0119672Y0017195D01*
X0120452Y0016414D01*
X0120875Y0015394D01*
X0120875Y0014291D01*
X0120452Y0013271D01*
X0119672Y0012490D01*
X0118652Y0012068D01*
X0117548Y0012068D01*
X0116528Y0012490D01*
X0115748Y0013271D01*
X0115325Y0014291D01*
X0115325Y0015394D01*
X0115501Y0015820D01*
X0115172Y0015490D01*
X0114152Y0015068D01*
X0113494Y0015068D01*
X0109987Y0011561D01*
X0108882Y0010455D01*
X0083382Y0010455D01*
X0082875Y0009948D01*
X0082875Y0009291D01*
X0082452Y0008271D01*
X0081672Y0007490D01*
X0080652Y0007068D01*
X0079548Y0007068D01*
X0078528Y0007490D01*
X0077432Y0009034D02*
X0004487Y0009034D01*
X0004487Y0010232D02*
X0077325Y0010232D01*
X0077764Y0011431D02*
X0066348Y0011431D01*
X0066067Y0011150D02*
X0067293Y0012375D01*
X0067956Y0013976D01*
X0067956Y0015709D01*
X0067293Y0017310D01*
X0066067Y0018535D01*
X0064466Y0019198D01*
X0062734Y0019198D01*
X0061133Y0018535D01*
X0059907Y0017310D01*
X0059244Y0015709D01*
X0059244Y0013976D01*
X0059907Y0012375D01*
X0061133Y0011150D01*
X0062734Y0010487D01*
X0064466Y0010487D01*
X0066067Y0011150D01*
X0067398Y0012629D02*
X0080217Y0012629D01*
X0081416Y0013828D02*
X0067894Y0013828D01*
X0067956Y0015026D02*
X0108114Y0015026D01*
X0109313Y0016225D02*
X0067742Y0016225D01*
X0067180Y0017423D02*
X0077690Y0017423D01*
X0077528Y0017490D02*
X0078548Y0017068D01*
X0079652Y0017068D01*
X0080672Y0017490D01*
X0081452Y0018271D01*
X0081875Y0019291D01*
X0081875Y0020394D01*
X0081452Y0021414D01*
X0080672Y0022195D01*
X0079652Y0022617D01*
X0078548Y0022617D01*
X0077528Y0022195D01*
X0076748Y0021414D01*
X0076325Y0020394D01*
X0076325Y0019291D01*
X0076748Y0018271D01*
X0077528Y0017490D01*
X0076602Y0018622D02*
X0065859Y0018622D01*
X0064466Y0020487D02*
X0066067Y0021150D01*
X0067293Y0022375D01*
X0067956Y0023976D01*
X0067956Y0025709D01*
X0067293Y0027310D01*
X0066067Y0028535D01*
X0064466Y0029198D01*
X0062734Y0029198D01*
X0061133Y0028535D01*
X0059907Y0027310D01*
X0059244Y0025709D01*
X0059244Y0023976D01*
X0059907Y0022375D01*
X0061133Y0021150D01*
X0062734Y0020487D01*
X0064466Y0020487D01*
X0065751Y0021019D02*
X0076584Y0021019D01*
X0076652Y0022068D02*
X0075548Y0022068D01*
X0074528Y0022490D01*
X0073748Y0023271D01*
X0073325Y0024291D01*
X0073325Y0025394D01*
X0073748Y0026414D01*
X0074528Y0027195D01*
X0075548Y0027617D01*
X0076652Y0027617D01*
X0077672Y0027195D01*
X0078452Y0026414D01*
X0078875Y0025394D01*
X0078875Y0024291D01*
X0078452Y0023271D01*
X0077672Y0022490D01*
X0076652Y0022068D01*
X0077013Y0022217D02*
X0077582Y0022217D01*
X0078512Y0023416D02*
X0093504Y0023416D01*
X0092306Y0024614D02*
X0078875Y0024614D01*
X0078702Y0025813D02*
X0091107Y0025813D01*
X0089909Y0027011D02*
X0077855Y0027011D01*
X0074345Y0027011D02*
X0067416Y0027011D01*
X0067913Y0025813D02*
X0073498Y0025813D01*
X0073325Y0024614D02*
X0067956Y0024614D01*
X0067724Y0023416D02*
X0073688Y0023416D01*
X0075187Y0022217D02*
X0067135Y0022217D01*
X0061449Y0021019D02*
X0055751Y0021019D01*
X0056067Y0021150D02*
X0057293Y0022375D01*
X0057956Y0023976D01*
X0057956Y0025709D01*
X0057293Y0027310D01*
X0056067Y0028535D01*
X0054466Y0029198D01*
X0052734Y0029198D01*
X0051133Y0028535D01*
X0049907Y0027310D01*
X0049244Y0025709D01*
X0049244Y0023976D01*
X0049907Y0022375D01*
X0051133Y0021150D01*
X0052734Y0020487D01*
X0054466Y0020487D01*
X0056067Y0021150D01*
X0057135Y0022217D02*
X0060065Y0022217D01*
X0059476Y0023416D02*
X0057724Y0023416D01*
X0057956Y0024614D02*
X0059244Y0024614D01*
X0059287Y0025813D02*
X0057913Y0025813D01*
X0057416Y0027011D02*
X0059784Y0027011D01*
X0060807Y0028210D02*
X0056393Y0028210D01*
X0050807Y0028210D02*
X0046393Y0028210D01*
X0046067Y0028535D02*
X0044466Y0029198D01*
X0042734Y0029198D01*
X0041133Y0028535D01*
X0039907Y0027310D01*
X0039244Y0025709D01*
X0039244Y0023976D01*
X0039907Y0022375D01*
X0041133Y0021150D01*
X0042734Y0020487D01*
X0044466Y0020487D01*
X0046067Y0021150D01*
X0047293Y0022375D01*
X0047956Y0023976D01*
X0047956Y0025709D01*
X0047293Y0027310D01*
X0046067Y0028535D01*
X0047416Y0027011D02*
X0049784Y0027011D01*
X0049287Y0025813D02*
X0047913Y0025813D01*
X0047956Y0024614D02*
X0049244Y0024614D01*
X0049476Y0023416D02*
X0047724Y0023416D01*
X0047135Y0022217D02*
X0050065Y0022217D01*
X0051449Y0021019D02*
X0045751Y0021019D01*
X0044466Y0019198D02*
X0042734Y0019198D01*
X0041133Y0018535D01*
X0039907Y0017310D01*
X0039244Y0015709D01*
X0039244Y0013976D01*
X0039907Y0012375D01*
X0041133Y0011150D01*
X0042734Y0010487D01*
X0044466Y0010487D01*
X0046067Y0011150D01*
X0047293Y0012375D01*
X0047956Y0013976D01*
X0047956Y0015709D01*
X0047293Y0017310D01*
X0046067Y0018535D01*
X0044466Y0019198D01*
X0045859Y0018622D02*
X0051341Y0018622D01*
X0051133Y0018535D02*
X0049907Y0017310D01*
X0049244Y0015709D01*
X0049244Y0013976D01*
X0049907Y0012375D01*
X0051133Y0011150D01*
X0052734Y0010487D01*
X0054466Y0010487D01*
X0056067Y0011150D01*
X0057293Y0012375D01*
X0057956Y0013976D01*
X0057956Y0015709D01*
X0057293Y0017310D01*
X0056067Y0018535D01*
X0054466Y0019198D01*
X0052734Y0019198D01*
X0051133Y0018535D01*
X0050020Y0017423D02*
X0047180Y0017423D01*
X0047742Y0016225D02*
X0049458Y0016225D01*
X0049244Y0015026D02*
X0047956Y0015026D01*
X0047894Y0013828D02*
X0049306Y0013828D01*
X0049802Y0012629D02*
X0047398Y0012629D01*
X0046348Y0011431D02*
X0050852Y0011431D01*
X0056348Y0011431D02*
X0060852Y0011431D01*
X0059802Y0012629D02*
X0057398Y0012629D01*
X0057894Y0013828D02*
X0059306Y0013828D01*
X0059244Y0015026D02*
X0057956Y0015026D01*
X0057742Y0016225D02*
X0059458Y0016225D01*
X0060020Y0017423D02*
X0057180Y0017423D01*
X0055859Y0018622D02*
X0061341Y0018622D01*
X0076325Y0019820D02*
X0004487Y0019820D01*
X0004487Y0018622D02*
X0021341Y0018622D01*
X0021133Y0018535D02*
X0019907Y0017310D01*
X0019244Y0015709D01*
X0019244Y0013976D01*
X0019907Y0012375D01*
X0021133Y0011150D01*
X0022734Y0010487D01*
X0024466Y0010487D01*
X0026067Y0011150D01*
X0027293Y0012375D01*
X0027956Y0013976D01*
X0027956Y0015709D01*
X0027293Y0017310D01*
X0026067Y0018535D01*
X0024466Y0019198D01*
X0022734Y0019198D01*
X0021133Y0018535D01*
X0020020Y0017423D02*
X0004487Y0017423D01*
X0004487Y0016225D02*
X0019458Y0016225D01*
X0019244Y0015026D02*
X0004487Y0015026D01*
X0004487Y0013828D02*
X0019306Y0013828D01*
X0019802Y0012629D02*
X0004487Y0012629D01*
X0004487Y0011431D02*
X0020852Y0011431D01*
X0026348Y0011431D02*
X0030852Y0011431D01*
X0031133Y0011150D02*
X0032734Y0010487D01*
X0034466Y0010487D01*
X0036067Y0011150D01*
X0037293Y0012375D01*
X0037956Y0013976D01*
X0037956Y0015709D01*
X0037293Y0017310D01*
X0036067Y0018535D01*
X0034466Y0019198D01*
X0032734Y0019198D01*
X0031133Y0018535D01*
X0029907Y0017310D01*
X0029244Y0015709D01*
X0029244Y0013976D01*
X0029907Y0012375D01*
X0031133Y0011150D01*
X0029802Y0012629D02*
X0027398Y0012629D01*
X0027894Y0013828D02*
X0029306Y0013828D01*
X0029244Y0015026D02*
X0027956Y0015026D01*
X0027742Y0016225D02*
X0029458Y0016225D01*
X0030020Y0017423D02*
X0027180Y0017423D01*
X0025859Y0018622D02*
X0031341Y0018622D01*
X0031846Y0020609D02*
X0031206Y0020935D01*
X0030624Y0021358D01*
X0030115Y0021866D01*
X0029693Y0022448D01*
X0029366Y0023089D01*
X0029144Y0023773D01*
X0029035Y0024458D01*
X0033216Y0024458D01*
X0033984Y0024458D01*
X0033984Y0020278D01*
X0034670Y0020386D01*
X0035354Y0020609D01*
X0035994Y0020935D01*
X0036576Y0021358D01*
X0037085Y0021866D01*
X0037507Y0022448D01*
X0037834Y0023089D01*
X0038056Y0023773D01*
X0038165Y0024458D01*
X0033984Y0024458D01*
X0033984Y0025227D01*
X0033216Y0025227D01*
X0033216Y0029407D01*
X0032530Y0029298D01*
X0031846Y0029076D01*
X0031206Y0028750D01*
X0030624Y0028327D01*
X0030115Y0027819D01*
X0029693Y0027237D01*
X0029366Y0026596D01*
X0029144Y0025912D01*
X0029035Y0025227D01*
X0033216Y0025227D01*
X0033216Y0024458D01*
X0033216Y0020278D01*
X0032530Y0020386D01*
X0031846Y0020609D01*
X0031091Y0021019D02*
X0025751Y0021019D01*
X0026067Y0021150D02*
X0027293Y0022375D01*
X0027956Y0023976D01*
X0027956Y0025709D01*
X0027293Y0027310D01*
X0026067Y0028535D01*
X0024466Y0029198D01*
X0022734Y0029198D01*
X0021133Y0028535D01*
X0019907Y0027310D01*
X0019244Y0025709D01*
X0019244Y0023976D01*
X0019907Y0022375D01*
X0021133Y0021150D01*
X0022734Y0020487D01*
X0024466Y0020487D01*
X0026067Y0021150D01*
X0027135Y0022217D02*
X0029860Y0022217D01*
X0029260Y0023416D02*
X0027724Y0023416D01*
X0027956Y0024614D02*
X0033216Y0024614D01*
X0033984Y0024614D02*
X0039244Y0024614D01*
X0039287Y0025813D02*
X0038072Y0025813D01*
X0038056Y0025912D02*
X0037834Y0026596D01*
X0037507Y0027237D01*
X0037085Y0027819D01*
X0036576Y0028327D01*
X0035994Y0028750D01*
X0035354Y0029076D01*
X0034670Y0029298D01*
X0033984Y0029407D01*
X0033984Y0025227D01*
X0038165Y0025227D01*
X0038056Y0025912D01*
X0037622Y0027011D02*
X0039784Y0027011D01*
X0040807Y0028210D02*
X0036694Y0028210D01*
X0033984Y0028210D02*
X0033216Y0028210D01*
X0033216Y0027011D02*
X0033984Y0027011D01*
X0033984Y0025813D02*
X0033216Y0025813D01*
X0033216Y0023416D02*
X0033984Y0023416D01*
X0033984Y0022217D02*
X0033216Y0022217D01*
X0033216Y0021019D02*
X0033984Y0021019D01*
X0036109Y0021019D02*
X0041449Y0021019D01*
X0040065Y0022217D02*
X0037340Y0022217D01*
X0037940Y0023416D02*
X0039476Y0023416D01*
X0041341Y0018622D02*
X0035859Y0018622D01*
X0037180Y0017423D02*
X0040020Y0017423D01*
X0039458Y0016225D02*
X0037742Y0016225D01*
X0037956Y0015026D02*
X0039244Y0015026D01*
X0039306Y0013828D02*
X0037894Y0013828D01*
X0037398Y0012629D02*
X0039802Y0012629D01*
X0040852Y0011431D02*
X0036348Y0011431D01*
X0021449Y0021019D02*
X0004487Y0021019D01*
X0004487Y0022217D02*
X0020065Y0022217D01*
X0019476Y0023416D02*
X0004487Y0023416D01*
X0004487Y0024614D02*
X0019244Y0024614D01*
X0019287Y0025813D02*
X0004487Y0025813D01*
X0004487Y0027011D02*
X0019784Y0027011D01*
X0020807Y0028210D02*
X0004487Y0028210D01*
X0004487Y0029408D02*
X0087511Y0029408D01*
X0086313Y0030607D02*
X0004487Y0030607D01*
X0004487Y0031805D02*
X0085114Y0031805D01*
X0083916Y0033004D02*
X0004487Y0033004D01*
X0004487Y0034202D02*
X0008209Y0034202D01*
X0007917Y0034323D02*
X0009009Y0033871D01*
X0010191Y0033871D01*
X0011283Y0034323D01*
X0012119Y0035159D01*
X0012572Y0036251D01*
X0012572Y0037434D01*
X0012119Y0038526D01*
X0011283Y0039362D01*
X0010191Y0039814D01*
X0009009Y0039814D01*
X0007917Y0039362D01*
X0007081Y0038526D01*
X0006628Y0037434D01*
X0006628Y0036251D01*
X0007081Y0035159D01*
X0007917Y0034323D01*
X0006981Y0035401D02*
X0004487Y0035401D01*
X0004487Y0036599D02*
X0006628Y0036599D01*
X0006779Y0037798D02*
X0004487Y0037798D01*
X0004487Y0038996D02*
X0007551Y0038996D01*
X0004487Y0040195D02*
X0076725Y0040195D01*
X0075526Y0041393D02*
X0004487Y0041393D01*
X0004487Y0042592D02*
X0074328Y0042592D01*
X0073129Y0043790D02*
X0004487Y0043790D01*
X0004487Y0044989D02*
X0071931Y0044989D01*
X0070732Y0046187D02*
X0065941Y0046187D01*
X0065652Y0046068D02*
X0066672Y0046490D01*
X0067452Y0047271D01*
X0067875Y0048291D01*
X0067875Y0049394D01*
X0067452Y0050414D01*
X0066672Y0051195D01*
X0065652Y0051617D01*
X0064548Y0051617D01*
X0063528Y0051195D01*
X0062748Y0050414D01*
X0062375Y0049514D01*
X0062375Y0050394D01*
X0061952Y0051414D01*
X0061172Y0052195D01*
X0060152Y0052617D01*
X0059048Y0052617D01*
X0058028Y0052195D01*
X0057248Y0051414D01*
X0056825Y0050394D01*
X0056825Y0049291D01*
X0057248Y0048271D01*
X0058028Y0047490D01*
X0059048Y0047068D01*
X0060152Y0047068D01*
X0061172Y0047490D01*
X0061952Y0048271D01*
X0062325Y0049171D01*
X0062325Y0048291D01*
X0062748Y0047271D01*
X0063528Y0046490D01*
X0064548Y0046068D01*
X0065652Y0046068D01*
X0064259Y0046187D02*
X0004487Y0046187D01*
X0004487Y0047386D02*
X0058280Y0047386D01*
X0057118Y0048584D02*
X0004487Y0048584D01*
X0004487Y0049783D02*
X0056825Y0049783D01*
X0057068Y0050981D02*
X0004487Y0050981D01*
X0004487Y0052180D02*
X0058013Y0052180D01*
X0061187Y0052180D02*
X0068963Y0052180D01*
X0068963Y0053378D02*
X0032902Y0053378D01*
X0033172Y0053490D02*
X0033952Y0054271D01*
X0034375Y0055291D01*
X0034375Y0056394D01*
X0033952Y0057414D01*
X0033172Y0058195D01*
X0032152Y0058617D01*
X0031048Y0058617D01*
X0030028Y0058195D01*
X0029248Y0057414D01*
X0028825Y0056394D01*
X0028825Y0055291D01*
X0029248Y0054271D01*
X0030028Y0053490D01*
X0031048Y0053068D01*
X0032152Y0053068D01*
X0033172Y0053490D01*
X0034079Y0054577D02*
X0068963Y0054577D01*
X0068963Y0055775D02*
X0034375Y0055775D01*
X0034135Y0056974D02*
X0068963Y0056974D01*
X0068963Y0057556D02*
X0068963Y0047957D01*
X0095715Y0021205D01*
X0102313Y0021205D01*
X0102528Y0020990D01*
X0103548Y0020568D01*
X0104652Y0020568D01*
X0105672Y0020990D01*
X0106452Y0021771D01*
X0106875Y0022791D01*
X0106875Y0023894D01*
X0106452Y0024914D01*
X0105672Y0025695D01*
X0104652Y0026117D01*
X0103548Y0026117D01*
X0102528Y0025695D01*
X0102313Y0025480D01*
X0097485Y0025480D01*
X0073237Y0049728D01*
X0073237Y0057556D01*
X0073452Y0057771D01*
X0073875Y0058791D01*
X0073875Y0059024D01*
X0089506Y0074655D01*
X0090787Y0075936D01*
X0090787Y0085106D01*
X0090952Y0085271D01*
X0091375Y0086291D01*
X0091375Y0087394D01*
X0090952Y0088414D01*
X0090172Y0089195D01*
X0089152Y0089617D01*
X0088919Y0089617D01*
X0081287Y0097249D01*
X0081287Y0108327D01*
X0081619Y0108659D01*
X0082072Y0109751D01*
X0082072Y0110934D01*
X0081619Y0112026D01*
X0080783Y0112862D01*
X0079691Y0113314D01*
X0078509Y0113314D01*
X0077417Y0112862D01*
X0076581Y0112026D01*
X0076128Y0110934D01*
X0076128Y0109751D01*
X0076581Y0108659D01*
X0076913Y0108327D01*
X0076913Y0095436D01*
X0085825Y0086524D01*
X0085825Y0086291D01*
X0086248Y0085271D01*
X0086413Y0085106D01*
X0086413Y0077749D01*
X0070781Y0062117D01*
X0070548Y0062117D01*
X0069528Y0061695D01*
X0068748Y0060914D01*
X0068325Y0059894D01*
X0068325Y0058791D01*
X0068748Y0057771D01*
X0068963Y0057556D01*
X0068581Y0058173D02*
X0033194Y0058173D01*
X0030006Y0058173D02*
X0026052Y0058173D01*
X0025952Y0058414D02*
X0025172Y0059195D01*
X0024152Y0059617D01*
X0023048Y0059617D01*
X0022028Y0059195D01*
X0021248Y0058414D01*
X0020825Y0057394D01*
X0020825Y0056291D01*
X0021248Y0055271D01*
X0022028Y0054490D01*
X0023048Y0054068D01*
X0024152Y0054068D01*
X0025172Y0054490D01*
X0025952Y0055271D01*
X0026375Y0056291D01*
X0026375Y0057394D01*
X0025952Y0058414D01*
X0026375Y0056974D02*
X0029065Y0056974D01*
X0028825Y0055775D02*
X0026161Y0055775D01*
X0025259Y0054577D02*
X0029121Y0054577D01*
X0030298Y0053378D02*
X0004487Y0053378D01*
X0004487Y0054577D02*
X0007163Y0054577D01*
X0007417Y0054323D02*
X0008509Y0053871D01*
X0009691Y0053871D01*
X0010783Y0054323D01*
X0011619Y0055159D01*
X0012072Y0056251D01*
X0012072Y0057434D01*
X0011619Y0058526D01*
X0010783Y0059362D01*
X0009691Y0059814D01*
X0008509Y0059814D01*
X0007417Y0059362D01*
X0006581Y0058526D01*
X0006128Y0057434D01*
X0006128Y0056251D01*
X0006581Y0055159D01*
X0007417Y0054323D01*
X0006325Y0055775D02*
X0004487Y0055775D01*
X0004487Y0056974D02*
X0006128Y0056974D01*
X0006434Y0058173D02*
X0004487Y0058173D01*
X0004487Y0059371D02*
X0007439Y0059371D01*
X0004487Y0060570D02*
X0068605Y0060570D01*
X0068325Y0059371D02*
X0024746Y0059371D01*
X0022454Y0059371D02*
X0018761Y0059371D01*
X0018783Y0059362D02*
X0017691Y0059814D01*
X0016509Y0059814D01*
X0015417Y0059362D01*
X0014581Y0058526D01*
X0014128Y0057434D01*
X0014128Y0056251D01*
X0014581Y0055159D01*
X0015417Y0054323D01*
X0016509Y0053871D01*
X0017691Y0053871D01*
X0018783Y0054323D01*
X0019619Y0055159D01*
X0020072Y0056251D01*
X0020072Y0057434D01*
X0019619Y0058526D01*
X0018783Y0059362D01*
X0019766Y0058173D02*
X0021148Y0058173D01*
X0020825Y0056974D02*
X0020072Y0056974D01*
X0019875Y0055775D02*
X0021039Y0055775D01*
X0021941Y0054577D02*
X0019037Y0054577D01*
X0015163Y0054577D02*
X0011037Y0054577D01*
X0011875Y0055775D02*
X0014325Y0055775D01*
X0014128Y0056974D02*
X0012072Y0056974D01*
X0011766Y0058173D02*
X0014434Y0058173D01*
X0015439Y0059371D02*
X0010761Y0059371D01*
X0004487Y0061768D02*
X0069705Y0061768D01*
X0071631Y0062967D02*
X0004487Y0062967D01*
X0004487Y0064165D02*
X0072829Y0064165D01*
X0074028Y0065364D02*
X0056545Y0065364D01*
X0056172Y0064990D02*
X0056952Y0065771D01*
X0057375Y0066791D01*
X0057375Y0067894D01*
X0056952Y0068914D01*
X0056172Y0069695D01*
X0055152Y0070117D01*
X0054048Y0070117D01*
X0053028Y0069695D01*
X0052248Y0068914D01*
X0051825Y0067894D01*
X0051825Y0066791D01*
X0052248Y0065771D01*
X0053028Y0064990D01*
X0054048Y0064568D01*
X0055152Y0064568D01*
X0056172Y0064990D01*
X0057280Y0066562D02*
X0075226Y0066562D01*
X0076425Y0067761D02*
X0057375Y0067761D01*
X0057603Y0068959D02*
X0056908Y0068959D01*
X0057528Y0068990D02*
X0058548Y0068568D01*
X0059652Y0068568D01*
X0060672Y0068990D01*
X0061452Y0069771D01*
X0061875Y0070791D01*
X0061875Y0071894D01*
X0061452Y0072914D01*
X0060672Y0073695D01*
X0059652Y0074117D01*
X0058548Y0074117D01*
X0057528Y0073695D01*
X0056748Y0072914D01*
X0056325Y0071894D01*
X0056325Y0070791D01*
X0056748Y0069771D01*
X0057528Y0068990D01*
X0056587Y0070158D02*
X0004487Y0070158D01*
X0004487Y0071356D02*
X0056325Y0071356D01*
X0056599Y0072555D02*
X0004487Y0072555D01*
X0004487Y0073753D02*
X0057669Y0073753D01*
X0060531Y0073753D02*
X0082417Y0073753D01*
X0081219Y0072555D02*
X0061601Y0072555D01*
X0061875Y0071356D02*
X0080020Y0071356D01*
X0078822Y0070158D02*
X0061613Y0070158D01*
X0060597Y0068959D02*
X0077623Y0068959D01*
X0081413Y0066562D02*
X0114420Y0066562D01*
X0114325Y0066791D02*
X0114748Y0065771D01*
X0115528Y0064990D01*
X0116548Y0064568D01*
X0117652Y0064568D01*
X0117948Y0064690D01*
X0117825Y0064394D01*
X0117825Y0063291D01*
X0118248Y0062271D01*
X0119028Y0061490D01*
X0120048Y0061068D01*
X0121152Y0061068D01*
X0121448Y0061190D01*
X0121325Y0060894D01*
X0121325Y0059791D01*
X0121748Y0058771D01*
X0122528Y0057990D01*
X0123548Y0057568D01*
X0124652Y0057568D01*
X0125672Y0057990D01*
X0126452Y0058771D01*
X0126875Y0059791D01*
X0126875Y0060894D01*
X0126752Y0061190D01*
X0127048Y0061068D01*
X0128152Y0061068D01*
X0129172Y0061490D01*
X0129952Y0062271D01*
X0130375Y0063291D01*
X0130375Y0064394D01*
X0130252Y0064690D01*
X0130548Y0064568D01*
X0131652Y0064568D01*
X0132672Y0064990D01*
X0133452Y0065771D01*
X0133875Y0066791D01*
X0133875Y0067894D01*
X0133752Y0068190D01*
X0134048Y0068068D01*
X0135152Y0068068D01*
X0136172Y0068490D01*
X0136952Y0069271D01*
X0137375Y0070291D01*
X0137375Y0071394D01*
X0137252Y0071690D01*
X0137548Y0071568D01*
X0138652Y0071568D01*
X0139672Y0071990D01*
X0140452Y0072771D01*
X0140875Y0073791D01*
X0140875Y0074894D01*
X0140452Y0075914D01*
X0139672Y0076695D01*
X0138652Y0077117D01*
X0137548Y0077117D01*
X0137252Y0076995D01*
X0137375Y0077291D01*
X0137375Y0078394D01*
X0136952Y0079414D01*
X0136172Y0080195D01*
X0135152Y0080617D01*
X0134048Y0080617D01*
X0133752Y0080495D01*
X0133875Y0080791D01*
X0133875Y0081894D01*
X0133452Y0082914D01*
X0132672Y0083695D01*
X0131652Y0084117D01*
X0130548Y0084117D01*
X0130252Y0083995D01*
X0130375Y0084291D01*
X0130375Y0085394D01*
X0129952Y0086414D01*
X0129172Y0087195D01*
X0128152Y0087617D01*
X0127048Y0087617D01*
X0126752Y0087495D01*
X0126875Y0087791D01*
X0126875Y0088894D01*
X0126452Y0089914D01*
X0125672Y0090695D01*
X0124652Y0091117D01*
X0123548Y0091117D01*
X0122528Y0090695D01*
X0121748Y0089914D01*
X0121325Y0088894D01*
X0121325Y0087791D01*
X0121448Y0087495D01*
X0121152Y0087617D01*
X0120048Y0087617D01*
X0119028Y0087195D01*
X0118248Y0086414D01*
X0117825Y0085394D01*
X0117825Y0084291D01*
X0117948Y0083995D01*
X0117652Y0084117D01*
X0116548Y0084117D01*
X0115528Y0083695D01*
X0114748Y0082914D01*
X0114325Y0081894D01*
X0114325Y0080791D01*
X0114448Y0080495D01*
X0114152Y0080617D01*
X0113048Y0080617D01*
X0112028Y0080195D01*
X0111248Y0079414D01*
X0110825Y0078394D01*
X0110825Y0077291D01*
X0110948Y0076995D01*
X0110652Y0077117D01*
X0109548Y0077117D01*
X0108528Y0076695D01*
X0107748Y0075914D01*
X0107325Y0074894D01*
X0107325Y0073791D01*
X0107748Y0072771D01*
X0108528Y0071990D01*
X0109548Y0071568D01*
X0110652Y0071568D01*
X0110948Y0071690D01*
X0110825Y0071394D01*
X0110825Y0070291D01*
X0111248Y0069271D01*
X0112028Y0068490D01*
X0113048Y0068068D01*
X0114152Y0068068D01*
X0114448Y0068190D01*
X0114325Y0067894D01*
X0114325Y0066791D01*
X0114325Y0067761D02*
X0082612Y0067761D01*
X0083810Y0068959D02*
X0111559Y0068959D01*
X0110880Y0070158D02*
X0085009Y0070158D01*
X0086207Y0071356D02*
X0096662Y0071356D01*
X0097028Y0070990D02*
X0098048Y0070568D01*
X0099152Y0070568D01*
X0100172Y0070990D01*
X0100952Y0071771D01*
X0101375Y0072791D01*
X0101375Y0073894D01*
X0100952Y0074914D01*
X0100172Y0075695D01*
X0099152Y0076117D01*
X0098048Y0076117D01*
X0097028Y0075695D01*
X0096248Y0074914D01*
X0095825Y0073894D01*
X0095825Y0072791D01*
X0096248Y0071771D01*
X0097028Y0070990D01*
X0095923Y0072555D02*
X0087406Y0072555D01*
X0088604Y0073753D02*
X0095825Y0073753D01*
X0096285Y0074952D02*
X0089803Y0074952D01*
X0090787Y0076150D02*
X0107984Y0076150D01*
X0107349Y0074952D02*
X0100915Y0074952D01*
X0101375Y0073753D02*
X0107341Y0073753D01*
X0107964Y0072555D02*
X0101277Y0072555D01*
X0100538Y0071356D02*
X0110825Y0071356D01*
X0110825Y0077349D02*
X0090787Y0077349D01*
X0090787Y0078547D02*
X0110888Y0078547D01*
X0111579Y0079746D02*
X0090787Y0079746D01*
X0090787Y0080944D02*
X0114325Y0080944D01*
X0114428Y0082143D02*
X0090787Y0082143D01*
X0090787Y0083341D02*
X0115175Y0083341D01*
X0117825Y0084540D02*
X0090787Y0084540D01*
X0091146Y0085738D02*
X0117968Y0085738D01*
X0118770Y0086937D02*
X0091375Y0086937D01*
X0091068Y0088135D02*
X0121325Y0088135D01*
X0121507Y0089334D02*
X0089836Y0089334D01*
X0088004Y0090532D02*
X0122366Y0090532D01*
X0125834Y0090532D02*
X0134817Y0090532D01*
X0136015Y0089334D02*
X0126693Y0089334D01*
X0126875Y0088135D02*
X0137214Y0088135D01*
X0138412Y0086937D02*
X0129430Y0086937D01*
X0130232Y0085738D02*
X0139611Y0085738D01*
X0140809Y0084540D02*
X0130375Y0084540D01*
X0133025Y0083341D02*
X0142008Y0083341D01*
X0143206Y0082143D02*
X0133772Y0082143D01*
X0133875Y0080944D02*
X0144405Y0080944D01*
X0145603Y0079746D02*
X0136621Y0079746D01*
X0137312Y0078547D02*
X0146802Y0078547D01*
X0148000Y0077349D02*
X0137375Y0077349D01*
X0140216Y0076150D02*
X0149199Y0076150D01*
X0150397Y0074952D02*
X0140851Y0074952D01*
X0140859Y0073753D02*
X0151596Y0073753D01*
X0152794Y0072555D02*
X0146803Y0072555D01*
X0146652Y0072617D02*
X0145548Y0072617D01*
X0144528Y0072195D01*
X0143748Y0071414D01*
X0143325Y0070394D01*
X0143325Y0069291D01*
X0143748Y0068271D01*
X0144528Y0067490D01*
X0145548Y0067068D01*
X0146652Y0067068D01*
X0147672Y0067490D01*
X0148452Y0068271D01*
X0148875Y0069291D01*
X0148875Y0070394D01*
X0148452Y0071414D01*
X0147672Y0072195D01*
X0146652Y0072617D01*
X0145397Y0072555D02*
X0140236Y0072555D01*
X0137375Y0071356D02*
X0143724Y0071356D01*
X0143325Y0070158D02*
X0137320Y0070158D01*
X0136641Y0068959D02*
X0143462Y0068959D01*
X0144258Y0067761D02*
X0133875Y0067761D01*
X0133780Y0066562D02*
X0158413Y0066562D01*
X0158413Y0066936D02*
X0158413Y0062749D01*
X0157281Y0061617D01*
X0157048Y0061617D01*
X0156028Y0061195D01*
X0155248Y0060414D01*
X0154825Y0059394D01*
X0154825Y0058291D01*
X0155248Y0057271D01*
X0155463Y0057056D01*
X0155463Y0050728D01*
X0141215Y0036480D01*
X0134887Y0036480D01*
X0134672Y0036695D01*
X0133652Y0037117D01*
X0132548Y0037117D01*
X0131528Y0036695D01*
X0130748Y0035914D01*
X0130325Y0034894D01*
X0130325Y0033791D01*
X0130748Y0032771D01*
X0131528Y0031990D01*
X0132548Y0031568D01*
X0133652Y0031568D01*
X0134672Y0031990D01*
X0134887Y0032205D01*
X0142985Y0032205D01*
X0144237Y0033457D01*
X0159737Y0048957D01*
X0159737Y0057056D01*
X0159952Y0057271D01*
X0160375Y0058291D01*
X0160375Y0058524D01*
X0162787Y0060936D01*
X0162787Y0071719D01*
X0166537Y0075469D01*
X0166696Y0075491D01*
X0167105Y0076037D01*
X0167587Y0076519D01*
X0167587Y0076568D01*
X0167652Y0076568D01*
X0168672Y0076990D01*
X0169452Y0077771D01*
X0169875Y0078791D01*
X0169875Y0079894D01*
X0169452Y0080914D01*
X0168672Y0081695D01*
X0167652Y0082117D01*
X0166548Y0082117D01*
X0165528Y0081695D01*
X0164748Y0080914D01*
X0164325Y0079894D01*
X0164325Y0078955D01*
X0164095Y0078648D01*
X0159977Y0074530D01*
X0157006Y0074530D01*
X0127287Y0104249D01*
X0127287Y0106824D01*
X0132313Y0112568D01*
X0132652Y0112568D01*
X0133672Y0112990D01*
X0134452Y0113771D01*
X0134875Y0114791D01*
X0134875Y0115894D01*
X0134452Y0116914D01*
X0133672Y0117695D01*
X0132652Y0118117D01*
X0131548Y0118117D01*
X0130528Y0117695D01*
X0129748Y0116914D01*
X0129325Y0115894D01*
X0129325Y0115189D01*
X0124373Y0109530D01*
X0122006Y0109530D01*
X0107875Y0123661D01*
X0107875Y0123894D01*
X0107452Y0124914D01*
X0106672Y0125695D01*
X0105652Y0126117D01*
X0104548Y0126117D01*
X0103528Y0125695D01*
X0103363Y0125530D01*
X0091194Y0125530D01*
X0089913Y0124249D01*
X0084978Y0119314D01*
X0084509Y0119314D01*
X0083417Y0118862D01*
X0083375Y0118820D01*
X0083375Y0118894D01*
X0082952Y0119914D01*
X0082172Y0120695D01*
X0081152Y0121117D01*
X0080048Y0121117D01*
X0079028Y0120695D01*
X0078248Y0119914D01*
X0077825Y0118894D01*
X0077825Y0117791D01*
X0078248Y0116771D01*
X0079028Y0115990D01*
X0080048Y0115568D01*
X0081152Y0115568D01*
X0082128Y0115972D01*
X0082128Y0115751D01*
X0082581Y0114659D01*
X0083417Y0113823D01*
X0084509Y0113371D01*
X0085691Y0113371D01*
X0086783Y0113823D01*
X0087619Y0114659D01*
X0088072Y0115751D01*
X0088072Y0116221D01*
X0093006Y0121155D01*
X0103363Y0121155D01*
X0103528Y0120990D01*
X0104548Y0120568D01*
X0104781Y0120568D01*
X0118913Y0106436D01*
X0119913Y0105436D01*
X0121194Y0104155D01*
X0121913Y0103436D01*
X0122913Y0102436D01*
X0153913Y0071436D01*
X0156194Y0069155D01*
X0158413Y0066936D01*
X0157588Y0067761D02*
X0147942Y0067761D01*
X0148738Y0068959D02*
X0156390Y0068959D01*
X0155191Y0070158D02*
X0148875Y0070158D01*
X0148476Y0071356D02*
X0153993Y0071356D01*
X0156584Y0074952D02*
X0160399Y0074952D01*
X0161597Y0076150D02*
X0155386Y0076150D01*
X0154187Y0077349D02*
X0162796Y0077349D01*
X0163994Y0078547D02*
X0152989Y0078547D01*
X0151790Y0079746D02*
X0164325Y0079746D01*
X0164778Y0080944D02*
X0150592Y0080944D01*
X0149393Y0082143D02*
X0177413Y0082143D01*
X0177413Y0083341D02*
X0148195Y0083341D01*
X0146996Y0084540D02*
X0177413Y0084540D01*
X0176611Y0085738D02*
X0145798Y0085738D01*
X0144599Y0086937D02*
X0147657Y0086937D01*
X0147528Y0086990D02*
X0148548Y0086568D01*
X0149652Y0086568D01*
X0150672Y0086990D01*
X0151452Y0087771D01*
X0151875Y0088791D01*
X0151875Y0089894D01*
X0151452Y0090914D01*
X0150672Y0091695D01*
X0149652Y0092117D01*
X0148548Y0092117D01*
X0147528Y0091695D01*
X0146748Y0090914D01*
X0146325Y0089894D01*
X0146325Y0088791D01*
X0146748Y0087771D01*
X0147528Y0086990D01*
X0146597Y0088135D02*
X0143401Y0088135D01*
X0142202Y0089334D02*
X0146325Y0089334D01*
X0146589Y0090532D02*
X0141004Y0090532D01*
X0139805Y0091731D02*
X0147615Y0091731D01*
X0150585Y0091731D02*
X0154172Y0091731D01*
X0154248Y0091914D02*
X0153825Y0090894D01*
X0153825Y0089791D01*
X0154248Y0088771D01*
X0155028Y0087990D01*
X0156048Y0087568D01*
X0157152Y0087568D01*
X0158172Y0087990D01*
X0158952Y0088771D01*
X0159375Y0089791D01*
X0159375Y0090894D01*
X0158952Y0091914D01*
X0158172Y0092695D01*
X0157152Y0093117D01*
X0156048Y0093117D01*
X0155028Y0092695D01*
X0154248Y0091914D01*
X0153825Y0090532D02*
X0151611Y0090532D01*
X0151875Y0089334D02*
X0154014Y0089334D01*
X0154883Y0088135D02*
X0151603Y0088135D01*
X0150543Y0086937D02*
X0175412Y0086937D01*
X0174214Y0088135D02*
X0158317Y0088135D01*
X0159186Y0089334D02*
X0173015Y0089334D01*
X0171817Y0090532D02*
X0159375Y0090532D01*
X0159028Y0091731D02*
X0170618Y0091731D01*
X0169420Y0092929D02*
X0157606Y0092929D01*
X0155594Y0092929D02*
X0138607Y0092929D01*
X0137408Y0094128D02*
X0168221Y0094128D01*
X0167023Y0095326D02*
X0136210Y0095326D01*
X0135011Y0096525D02*
X0165824Y0096525D01*
X0164626Y0097723D02*
X0133813Y0097723D01*
X0132614Y0098922D02*
X0163427Y0098922D01*
X0162229Y0100120D02*
X0131416Y0100120D01*
X0130217Y0101319D02*
X0161030Y0101319D01*
X0159832Y0102517D02*
X0136199Y0102517D01*
X0136452Y0102771D02*
X0136875Y0103791D01*
X0136875Y0104894D01*
X0136452Y0105914D01*
X0135672Y0106695D01*
X0134652Y0107117D01*
X0133548Y0107117D01*
X0132528Y0106695D01*
X0131748Y0105914D01*
X0131325Y0104894D01*
X0131325Y0103791D01*
X0131748Y0102771D01*
X0132528Y0101990D01*
X0133548Y0101568D01*
X0134652Y0101568D01*
X0135672Y0101990D01*
X0136452Y0102771D01*
X0136844Y0103716D02*
X0158633Y0103716D01*
X0161224Y0107311D02*
X0164705Y0107311D01*
X0164748Y0107414D02*
X0164325Y0106394D01*
X0164325Y0105291D01*
X0164748Y0104271D01*
X0165528Y0103490D01*
X0166548Y0103068D01*
X0167652Y0103068D01*
X0168672Y0103490D01*
X0169452Y0104271D01*
X0169875Y0105291D01*
X0169875Y0106394D01*
X0169452Y0107414D01*
X0168672Y0108195D01*
X0167652Y0108617D01*
X0166548Y0108617D01*
X0165528Y0108195D01*
X0164748Y0107414D01*
X0164325Y0106113D02*
X0162423Y0106113D01*
X0163621Y0104914D02*
X0164481Y0104914D01*
X0164820Y0103716D02*
X0165302Y0103716D01*
X0166018Y0102517D02*
X0182114Y0102517D01*
X0181613Y0103019D02*
X0181613Y0103019D01*
X0180916Y0103716D02*
X0168898Y0103716D01*
X0169719Y0104914D02*
X0179717Y0104914D01*
X0179613Y0106113D02*
X0169875Y0106113D01*
X0169495Y0107311D02*
X0179613Y0107311D01*
X0179613Y0108510D02*
X0167911Y0108510D01*
X0166289Y0108510D02*
X0160026Y0108510D01*
X0167217Y0101319D02*
X0187828Y0101319D01*
X0186626Y0100120D02*
X0168416Y0100120D01*
X0169614Y0098922D02*
X0186325Y0098922D01*
X0186560Y0097723D02*
X0170813Y0097723D01*
X0172011Y0096525D02*
X0187493Y0096525D01*
X0190707Y0096525D02*
X0195107Y0096525D01*
X0193908Y0097723D02*
X0191640Y0097723D01*
X0191875Y0098922D02*
X0192710Y0098922D01*
X0194322Y0100120D02*
X0227454Y0100120D01*
X0227528Y0100195D02*
X0226748Y0099414D01*
X0226325Y0098394D01*
X0226325Y0097291D01*
X0226748Y0096271D01*
X0227528Y0095490D01*
X0228548Y0095068D01*
X0229652Y0095068D01*
X0230672Y0095490D01*
X0231452Y0096271D01*
X0231875Y0097291D01*
X0231875Y0098394D01*
X0231452Y0099414D01*
X0230672Y0100195D01*
X0229652Y0100617D01*
X0228548Y0100617D01*
X0227528Y0100195D01*
X0226544Y0098922D02*
X0195521Y0098922D01*
X0196719Y0097723D02*
X0226325Y0097723D01*
X0226642Y0096525D02*
X0197918Y0096525D01*
X0199116Y0095326D02*
X0227924Y0095326D01*
X0230276Y0095326D02*
X0255713Y0095326D01*
X0255713Y0094128D02*
X0200315Y0094128D01*
X0201513Y0092929D02*
X0255713Y0092929D01*
X0255713Y0091731D02*
X0202712Y0091731D01*
X0203910Y0090532D02*
X0255713Y0090532D01*
X0255713Y0089334D02*
X0205109Y0089334D01*
X0206307Y0088135D02*
X0255713Y0088135D01*
X0255713Y0086937D02*
X0216317Y0086937D01*
X0216530Y0086848D02*
X0215510Y0087271D01*
X0214406Y0087271D01*
X0213386Y0086848D01*
X0212606Y0086068D01*
X0212183Y0085048D01*
X0212183Y0083944D01*
X0212606Y0082924D01*
X0213386Y0082144D01*
X0214406Y0081721D01*
X0215510Y0081721D01*
X0216530Y0082144D01*
X0217311Y0082924D01*
X0217733Y0083944D01*
X0217733Y0085048D01*
X0217311Y0086068D01*
X0216530Y0086848D01*
X0217447Y0085738D02*
X0255713Y0085738D01*
X0255713Y0084540D02*
X0217733Y0084540D01*
X0217483Y0083341D02*
X0255713Y0083341D01*
X0255713Y0082143D02*
X0216528Y0082143D01*
X0213389Y0082143D02*
X0210600Y0082143D01*
X0210600Y0083341D02*
X0212433Y0083341D01*
X0212183Y0084540D02*
X0209903Y0084540D01*
X0210600Y0083842D02*
X0190600Y0103842D01*
X0183600Y0103842D01*
X0181600Y0105842D01*
X0181600Y0127842D01*
X0179600Y0129842D01*
X0166875Y0129842D01*
X0166875Y0129894D01*
X0166452Y0130914D01*
X0165672Y0131695D01*
X0164652Y0132117D01*
X0163548Y0132117D01*
X0162528Y0131695D01*
X0161748Y0130914D01*
X0161325Y0129894D01*
X0161325Y0129842D01*
X0159600Y0129842D01*
X0156600Y0132842D01*
X0156600Y0148955D01*
X0234525Y0148955D01*
X0236213Y0147268D01*
X0236213Y0125768D01*
X0255713Y0106268D01*
X0255713Y0022842D01*
X0222600Y0022842D01*
X0219600Y0025842D01*
X0219600Y0040842D01*
X0217600Y0042842D01*
X0194600Y0042842D01*
X0192600Y0044842D01*
X0192600Y0067842D01*
X0194600Y0069842D01*
X0208600Y0069842D01*
X0210600Y0071842D01*
X0210600Y0083842D01*
X0208291Y0083341D02*
X0181787Y0083341D01*
X0181787Y0082143D02*
X0208613Y0082143D01*
X0208613Y0080944D02*
X0181787Y0080944D01*
X0181787Y0079746D02*
X0208613Y0079746D01*
X0208613Y0078547D02*
X0181787Y0078547D01*
X0181787Y0077349D02*
X0208613Y0077349D01*
X0208613Y0076150D02*
X0181787Y0076150D01*
X0181787Y0074952D02*
X0208613Y0074952D01*
X0208613Y0073753D02*
X0188613Y0073753D01*
X0188952Y0073414D02*
X0188172Y0074195D01*
X0187152Y0074617D01*
X0186048Y0074617D01*
X0185028Y0074195D01*
X0184248Y0073414D01*
X0183825Y0072394D01*
X0183825Y0071291D01*
X0184248Y0070271D01*
X0185028Y0069490D01*
X0186048Y0069068D01*
X0187152Y0069068D01*
X0188172Y0069490D01*
X0188952Y0070271D01*
X0189375Y0071291D01*
X0189375Y0072394D01*
X0188952Y0073414D01*
X0189308Y0072555D02*
X0208502Y0072555D01*
X0210114Y0071356D02*
X0221325Y0071356D01*
X0221325Y0071291D02*
X0221748Y0070271D01*
X0222528Y0069490D01*
X0223548Y0069068D01*
X0224652Y0069068D01*
X0225672Y0069490D01*
X0226452Y0070271D01*
X0226875Y0071291D01*
X0226875Y0072394D01*
X0226452Y0073414D01*
X0225799Y0074068D01*
X0226152Y0074068D01*
X0227172Y0074490D01*
X0227952Y0075271D01*
X0228375Y0076291D01*
X0228375Y0077394D01*
X0227952Y0078414D01*
X0227172Y0079195D01*
X0226152Y0079617D01*
X0225048Y0079617D01*
X0224028Y0079195D01*
X0223248Y0078414D01*
X0222825Y0077394D01*
X0222825Y0076291D01*
X0223248Y0075271D01*
X0223901Y0074617D01*
X0223548Y0074617D01*
X0222528Y0074195D01*
X0221748Y0073414D01*
X0221325Y0072394D01*
X0221325Y0071291D01*
X0221861Y0070158D02*
X0208915Y0070158D01*
X0210600Y0072555D02*
X0221392Y0072555D01*
X0222087Y0073753D02*
X0210600Y0073753D01*
X0210600Y0074952D02*
X0223567Y0074952D01*
X0222883Y0076150D02*
X0210600Y0076150D01*
X0210600Y0077349D02*
X0222825Y0077349D01*
X0223381Y0078547D02*
X0210600Y0078547D01*
X0210600Y0079746D02*
X0255713Y0079746D01*
X0255713Y0080944D02*
X0210600Y0080944D01*
X0207092Y0084540D02*
X0181787Y0084540D01*
X0181787Y0085738D02*
X0205894Y0085738D01*
X0204695Y0086937D02*
X0181599Y0086937D01*
X0180401Y0088135D02*
X0203497Y0088135D01*
X0202298Y0089334D02*
X0179202Y0089334D01*
X0179714Y0090532D02*
X0201100Y0090532D01*
X0199901Y0091731D02*
X0180643Y0091731D01*
X0180875Y0092929D02*
X0198703Y0092929D01*
X0197504Y0094128D02*
X0180571Y0094128D01*
X0179354Y0095326D02*
X0196305Y0095326D01*
X0193124Y0101319D02*
X0255713Y0101319D01*
X0255713Y0102517D02*
X0191925Y0102517D01*
X0190727Y0103716D02*
X0255713Y0103716D01*
X0255713Y0104914D02*
X0250296Y0104914D01*
X0250191Y0104871D02*
X0251283Y0105323D01*
X0252119Y0106159D01*
X0252572Y0107251D01*
X0252572Y0108434D01*
X0252119Y0109526D01*
X0251283Y0110362D01*
X0250191Y0110814D01*
X0249009Y0110814D01*
X0247917Y0110362D01*
X0247081Y0109526D01*
X0246628Y0108434D01*
X0246628Y0107251D01*
X0247081Y0106159D01*
X0247917Y0105323D01*
X0249009Y0104871D01*
X0250191Y0104871D01*
X0248904Y0104914D02*
X0182528Y0104914D01*
X0181600Y0106113D02*
X0247127Y0106113D01*
X0246628Y0107311D02*
X0235755Y0107311D01*
X0235783Y0107323D02*
X0236619Y0108159D01*
X0237072Y0109251D01*
X0237072Y0110434D01*
X0236619Y0111526D01*
X0235783Y0112362D01*
X0234691Y0112814D01*
X0233509Y0112814D01*
X0232417Y0112362D01*
X0231581Y0111526D01*
X0231128Y0110434D01*
X0231128Y0109251D01*
X0231581Y0108159D01*
X0232417Y0107323D01*
X0233509Y0106871D01*
X0234691Y0106871D01*
X0235783Y0107323D01*
X0236765Y0108510D02*
X0246660Y0108510D01*
X0247263Y0109709D02*
X0237072Y0109709D01*
X0236876Y0110907D02*
X0251073Y0110907D01*
X0251937Y0109709D02*
X0252272Y0109709D01*
X0252540Y0108510D02*
X0253470Y0108510D01*
X0252572Y0107311D02*
X0254669Y0107311D01*
X0255713Y0106113D02*
X0252073Y0106113D01*
X0249875Y0112106D02*
X0236039Y0112106D01*
X0232160Y0112106D02*
X0220539Y0112106D01*
X0220283Y0112362D02*
X0219191Y0112814D01*
X0218009Y0112814D01*
X0216917Y0112362D01*
X0216081Y0111526D01*
X0215628Y0110434D01*
X0215628Y0109251D01*
X0216081Y0108159D01*
X0216917Y0107323D01*
X0218009Y0106871D01*
X0219191Y0106871D01*
X0220283Y0107323D01*
X0221119Y0108159D01*
X0221572Y0109251D01*
X0221572Y0110434D01*
X0221119Y0111526D01*
X0220283Y0112362D01*
X0221376Y0110907D02*
X0231324Y0110907D01*
X0231128Y0109709D02*
X0221572Y0109709D01*
X0221265Y0108510D02*
X0231435Y0108510D01*
X0232445Y0107311D02*
X0220255Y0107311D01*
X0216945Y0107311D02*
X0181600Y0107311D01*
X0181600Y0108510D02*
X0215935Y0108510D01*
X0215628Y0109709D02*
X0181600Y0109709D01*
X0181600Y0110907D02*
X0215824Y0110907D01*
X0216660Y0112106D02*
X0181600Y0112106D01*
X0181600Y0113304D02*
X0248676Y0113304D01*
X0247478Y0114503D02*
X0181600Y0114503D01*
X0181600Y0115701D02*
X0246279Y0115701D01*
X0245081Y0116900D02*
X0181600Y0116900D01*
X0181600Y0118098D02*
X0243882Y0118098D01*
X0242684Y0119297D02*
X0181600Y0119297D01*
X0181600Y0120495D02*
X0231745Y0120495D01*
X0231917Y0120323D02*
X0233009Y0119871D01*
X0234191Y0119871D01*
X0235283Y0120323D01*
X0236119Y0121159D01*
X0236572Y0122251D01*
X0236572Y0123434D01*
X0236119Y0124526D01*
X0235283Y0125362D01*
X0234191Y0125814D01*
X0233009Y0125814D01*
X0231917Y0125362D01*
X0231081Y0124526D01*
X0230628Y0123434D01*
X0230628Y0122251D01*
X0231081Y0121159D01*
X0231917Y0120323D01*
X0230859Y0121694D02*
X0181600Y0121694D01*
X0181600Y0122892D02*
X0220848Y0122892D01*
X0220917Y0122823D02*
X0222009Y0122371D01*
X0223191Y0122371D01*
X0224283Y0122823D01*
X0225119Y0123659D01*
X0225572Y0124751D01*
X0225572Y0125934D01*
X0225119Y0127026D01*
X0224283Y0127862D01*
X0223191Y0128314D01*
X0222009Y0128314D01*
X0220917Y0127862D01*
X0220081Y0127026D01*
X0219628Y0125934D01*
X0219628Y0124751D01*
X0220081Y0123659D01*
X0220917Y0122823D01*
X0219902Y0124091D02*
X0181600Y0124091D01*
X0181600Y0125289D02*
X0213499Y0125289D01*
X0213417Y0125323D02*
X0214509Y0124871D01*
X0215691Y0124871D01*
X0216783Y0125323D01*
X0217619Y0126159D01*
X0218072Y0127251D01*
X0218072Y0128434D01*
X0217619Y0129526D01*
X0216783Y0130362D01*
X0215691Y0130814D01*
X0214509Y0130814D01*
X0213417Y0130362D01*
X0212581Y0129526D01*
X0212128Y0128434D01*
X0212128Y0127251D01*
X0212581Y0126159D01*
X0213417Y0125323D01*
X0212445Y0126488D02*
X0181600Y0126488D01*
X0181600Y0127686D02*
X0212128Y0127686D01*
X0212315Y0128885D02*
X0180558Y0128885D01*
X0178946Y0127686D02*
X0166368Y0127686D01*
X0166797Y0130083D02*
X0213138Y0130083D01*
X0217062Y0130083D02*
X0236213Y0130083D01*
X0236213Y0128885D02*
X0217885Y0128885D01*
X0218072Y0127686D02*
X0220741Y0127686D01*
X0219858Y0126488D02*
X0217755Y0126488D01*
X0216701Y0125289D02*
X0219628Y0125289D01*
X0224352Y0122892D02*
X0230628Y0122892D01*
X0230901Y0124091D02*
X0225298Y0124091D01*
X0225572Y0125289D02*
X0231844Y0125289D01*
X0235356Y0125289D02*
X0236691Y0125289D01*
X0236299Y0124091D02*
X0237890Y0124091D01*
X0239088Y0122892D02*
X0236572Y0122892D01*
X0236341Y0121694D02*
X0240287Y0121694D01*
X0241485Y0120495D02*
X0235455Y0120495D01*
X0236213Y0126488D02*
X0225342Y0126488D01*
X0224459Y0127686D02*
X0236213Y0127686D01*
X0236213Y0131282D02*
X0166085Y0131282D01*
X0162115Y0131282D02*
X0158161Y0131282D01*
X0156962Y0132480D02*
X0236213Y0132480D01*
X0236213Y0133679D02*
X0156600Y0133679D01*
X0156600Y0134877D02*
X0236213Y0134877D01*
X0236213Y0136076D02*
X0156600Y0136076D01*
X0156600Y0137274D02*
X0236213Y0137274D01*
X0236213Y0138473D02*
X0156600Y0138473D01*
X0156600Y0139671D02*
X0236213Y0139671D01*
X0236213Y0140870D02*
X0156600Y0140870D01*
X0156600Y0142068D02*
X0236213Y0142068D01*
X0236213Y0143267D02*
X0156600Y0143267D01*
X0156600Y0144465D02*
X0236213Y0144465D01*
X0236213Y0145664D02*
X0156600Y0145664D01*
X0156600Y0146862D02*
X0236213Y0146862D01*
X0235420Y0148061D02*
X0156600Y0148061D01*
X0154613Y0148061D02*
X0097803Y0148061D01*
X0095397Y0148061D02*
X0092803Y0148061D01*
X0090397Y0148061D02*
X0052600Y0148061D01*
X0052600Y0146862D02*
X0089013Y0146862D01*
X0088628Y0145664D02*
X0052600Y0145664D01*
X0052600Y0144465D02*
X0057681Y0144465D01*
X0058048Y0144617D02*
X0057028Y0144195D01*
X0056248Y0143414D01*
X0055825Y0142394D01*
X0055825Y0141291D01*
X0056248Y0140271D01*
X0057028Y0139490D01*
X0058048Y0139068D01*
X0059152Y0139068D01*
X0060172Y0139490D01*
X0060952Y0140271D01*
X0061375Y0141291D01*
X0061375Y0142394D01*
X0060952Y0143414D01*
X0060172Y0144195D01*
X0059152Y0144617D01*
X0058048Y0144617D01*
X0059519Y0144465D02*
X0088747Y0144465D01*
X0089473Y0143267D02*
X0061013Y0143267D01*
X0061375Y0142068D02*
X0123281Y0142068D01*
X0124479Y0140870D02*
X0091749Y0140870D01*
X0092172Y0140695D02*
X0091152Y0141117D01*
X0090048Y0141117D01*
X0089028Y0140695D01*
X0088248Y0139914D01*
X0087825Y0138894D01*
X0087825Y0137791D01*
X0088248Y0136771D01*
X0089028Y0135990D01*
X0090048Y0135568D01*
X0091152Y0135568D01*
X0092172Y0135990D01*
X0092952Y0136771D01*
X0093375Y0137791D01*
X0093375Y0138894D01*
X0092952Y0139914D01*
X0092172Y0140695D01*
X0093053Y0139671D02*
X0125678Y0139671D01*
X0126876Y0138473D02*
X0093375Y0138473D01*
X0093161Y0137274D02*
X0122220Y0137274D01*
X0122028Y0137195D02*
X0121248Y0136414D01*
X0120825Y0135394D01*
X0120825Y0134291D01*
X0121248Y0133271D01*
X0122028Y0132490D01*
X0123048Y0132068D01*
X0124152Y0132068D01*
X0125172Y0132490D01*
X0125952Y0133271D01*
X0126375Y0134291D01*
X0126375Y0135394D01*
X0125952Y0136414D01*
X0125172Y0137195D01*
X0124152Y0137617D01*
X0123048Y0137617D01*
X0122028Y0137195D01*
X0121107Y0136076D02*
X0115252Y0136076D01*
X0115152Y0136117D02*
X0114048Y0136117D01*
X0113028Y0135695D01*
X0112248Y0134914D01*
X0111825Y0133894D01*
X0111825Y0132791D01*
X0112248Y0131771D01*
X0113028Y0130990D01*
X0114048Y0130568D01*
X0115152Y0130568D01*
X0116172Y0130990D01*
X0116952Y0131771D01*
X0117375Y0132791D01*
X0117375Y0133894D01*
X0116952Y0134914D01*
X0116172Y0135695D01*
X0115152Y0136117D01*
X0113948Y0136076D02*
X0092257Y0136076D01*
X0088943Y0136076D02*
X0052600Y0136076D01*
X0052600Y0137274D02*
X0088039Y0137274D01*
X0087825Y0138473D02*
X0052600Y0138473D01*
X0052600Y0139671D02*
X0056847Y0139671D01*
X0055999Y0140870D02*
X0052600Y0140870D01*
X0052600Y0142068D02*
X0055825Y0142068D01*
X0056187Y0143267D02*
X0052600Y0143267D01*
X0060353Y0139671D02*
X0088147Y0139671D01*
X0089451Y0140870D02*
X0061201Y0140870D01*
X0052600Y0134877D02*
X0112232Y0134877D01*
X0111825Y0133679D02*
X0052600Y0133679D01*
X0056917Y0127362D02*
X0056081Y0126526D01*
X0055628Y0125434D01*
X0055628Y0124251D01*
X0056081Y0123159D01*
X0056917Y0122323D01*
X0058009Y0121871D01*
X0059191Y0121871D01*
X0060283Y0122323D01*
X0061119Y0123159D01*
X0061572Y0124251D01*
X0061572Y0125434D01*
X0061119Y0126526D01*
X0060283Y0127362D01*
X0059191Y0127814D01*
X0058009Y0127814D01*
X0056917Y0127362D01*
X0057700Y0127686D02*
X0004487Y0127686D01*
X0004487Y0126488D02*
X0056065Y0126488D01*
X0055628Y0125289D02*
X0004487Y0125289D01*
X0004487Y0124091D02*
X0019646Y0124091D01*
X0019917Y0124362D02*
X0019081Y0123526D01*
X0018628Y0122434D01*
X0018628Y0121251D01*
X0019081Y0120159D01*
X0019917Y0119323D01*
X0021009Y0118871D01*
X0022191Y0118871D01*
X0023283Y0119323D01*
X0024119Y0120159D01*
X0024572Y0121251D01*
X0024572Y0122434D01*
X0024119Y0123526D01*
X0023283Y0124362D01*
X0022191Y0124814D01*
X0021009Y0124814D01*
X0019917Y0124362D01*
X0018818Y0122892D02*
X0004487Y0122892D01*
X0004487Y0121694D02*
X0018628Y0121694D01*
X0018942Y0120495D02*
X0004487Y0120495D01*
X0004487Y0119297D02*
X0019981Y0119297D01*
X0023219Y0119297D02*
X0024852Y0119297D01*
X0024917Y0119362D02*
X0024081Y0118526D01*
X0023628Y0117434D01*
X0023628Y0116251D01*
X0024081Y0115159D01*
X0024917Y0114323D01*
X0026009Y0113871D01*
X0027191Y0113871D01*
X0028283Y0114323D01*
X0029119Y0115159D01*
X0029572Y0116251D01*
X0029572Y0117434D01*
X0029119Y0118526D01*
X0028283Y0119362D01*
X0027191Y0119814D01*
X0026009Y0119814D01*
X0024917Y0119362D01*
X0024258Y0120495D02*
X0028942Y0120495D01*
X0029081Y0120159D02*
X0028628Y0121251D01*
X0028628Y0122434D01*
X0029081Y0123526D01*
X0029917Y0124362D01*
X0031009Y0124814D01*
X0032191Y0124814D01*
X0033283Y0124362D01*
X0034119Y0123526D01*
X0034572Y0122434D01*
X0034572Y0121251D01*
X0034119Y0120159D01*
X0033283Y0119323D01*
X0032191Y0118871D01*
X0031009Y0118871D01*
X0029917Y0119323D01*
X0029081Y0120159D01*
X0028348Y0119297D02*
X0029981Y0119297D01*
X0029296Y0118098D02*
X0063904Y0118098D01*
X0064081Y0118526D02*
X0063628Y0117434D01*
X0063628Y0116251D01*
X0064081Y0115159D01*
X0064917Y0114323D01*
X0066009Y0113871D01*
X0067191Y0113871D01*
X0068283Y0114323D01*
X0069119Y0115159D01*
X0069572Y0116251D01*
X0069572Y0117434D01*
X0069119Y0118526D01*
X0068283Y0119362D01*
X0067191Y0119814D01*
X0066009Y0119814D01*
X0064917Y0119362D01*
X0064081Y0118526D01*
X0064852Y0119297D02*
X0033219Y0119297D01*
X0034258Y0120495D02*
X0078828Y0120495D01*
X0077992Y0119297D02*
X0068348Y0119297D01*
X0069296Y0118098D02*
X0077825Y0118098D01*
X0078194Y0116900D02*
X0069572Y0116900D01*
X0069344Y0115701D02*
X0079726Y0115701D01*
X0081474Y0115701D02*
X0082149Y0115701D01*
X0082737Y0114503D02*
X0068463Y0114503D01*
X0064737Y0114503D02*
X0062943Y0114503D01*
X0063283Y0114362D02*
X0062191Y0114814D01*
X0061009Y0114814D01*
X0059917Y0114362D01*
X0059081Y0113526D01*
X0058628Y0112434D01*
X0058628Y0111251D01*
X0059081Y0110159D01*
X0059917Y0109323D01*
X0061009Y0108871D01*
X0062191Y0108871D01*
X0063283Y0109323D01*
X0064119Y0110159D01*
X0064572Y0111251D01*
X0064572Y0112434D01*
X0064119Y0113526D01*
X0063283Y0114362D01*
X0064211Y0113304D02*
X0078485Y0113304D01*
X0079715Y0113304D02*
X0088292Y0113304D01*
X0088028Y0113195D02*
X0087248Y0112414D01*
X0086825Y0111394D01*
X0086825Y0110291D01*
X0087248Y0109271D01*
X0088028Y0108490D01*
X0089048Y0108068D01*
X0090152Y0108068D01*
X0091172Y0108490D01*
X0091952Y0109271D01*
X0092375Y0110291D01*
X0092375Y0111394D01*
X0091952Y0112414D01*
X0091172Y0113195D01*
X0090152Y0113617D01*
X0089048Y0113617D01*
X0088028Y0113195D01*
X0087120Y0112106D02*
X0081539Y0112106D01*
X0082072Y0110907D02*
X0086825Y0110907D01*
X0087066Y0109709D02*
X0082054Y0109709D01*
X0081470Y0108510D02*
X0088008Y0108510D01*
X0091192Y0108510D02*
X0105825Y0108510D01*
X0105825Y0108291D02*
X0106248Y0107271D01*
X0107028Y0106490D01*
X0108048Y0106068D01*
X0109152Y0106068D01*
X0110172Y0106490D01*
X0110952Y0107271D01*
X0111375Y0108291D01*
X0111375Y0109394D01*
X0110952Y0110414D01*
X0110172Y0111195D01*
X0109152Y0111617D01*
X0108048Y0111617D01*
X0107028Y0111195D01*
X0106248Y0110414D01*
X0105825Y0109394D01*
X0105825Y0108291D01*
X0106231Y0107311D02*
X0081287Y0107311D01*
X0081287Y0106113D02*
X0107939Y0106113D01*
X0109261Y0106113D02*
X0119236Y0106113D01*
X0118038Y0107311D02*
X0110969Y0107311D01*
X0111375Y0108510D02*
X0116839Y0108510D01*
X0115641Y0109709D02*
X0111245Y0109709D01*
X0110460Y0110907D02*
X0114442Y0110907D01*
X0113244Y0112106D02*
X0092080Y0112106D01*
X0092375Y0110907D02*
X0106740Y0110907D01*
X0105955Y0109709D02*
X0092134Y0109709D01*
X0090908Y0113304D02*
X0112045Y0113304D01*
X0110846Y0114503D02*
X0087463Y0114503D01*
X0088051Y0115701D02*
X0109648Y0115701D01*
X0108449Y0116900D02*
X0088751Y0116900D01*
X0089949Y0118098D02*
X0107251Y0118098D01*
X0106052Y0119297D02*
X0091148Y0119297D01*
X0092346Y0120495D02*
X0104854Y0120495D01*
X0108644Y0122892D02*
X0138413Y0122892D01*
X0138413Y0121694D02*
X0109842Y0121694D01*
X0111041Y0120495D02*
X0138413Y0120495D01*
X0138413Y0119297D02*
X0112239Y0119297D01*
X0113438Y0118098D02*
X0121002Y0118098D01*
X0121048Y0118117D02*
X0120028Y0117695D01*
X0119248Y0116914D01*
X0118825Y0115894D01*
X0118825Y0114791D01*
X0119248Y0113771D01*
X0120028Y0112990D01*
X0121048Y0112568D01*
X0122152Y0112568D01*
X0123172Y0112990D01*
X0123952Y0113771D01*
X0124375Y0114791D01*
X0124375Y0115894D01*
X0123952Y0116914D01*
X0123172Y0117695D01*
X0122152Y0118117D01*
X0121048Y0118117D01*
X0122198Y0118098D02*
X0131502Y0118098D01*
X0132698Y0118098D02*
X0138413Y0118098D01*
X0138413Y0116900D02*
X0134458Y0116900D01*
X0134875Y0115701D02*
X0138413Y0115701D01*
X0138413Y0114503D02*
X0134755Y0114503D01*
X0133986Y0113304D02*
X0138413Y0113304D01*
X0138413Y0112106D02*
X0131908Y0112106D01*
X0130860Y0110907D02*
X0138413Y0110907D01*
X0138413Y0109709D02*
X0129811Y0109709D01*
X0128762Y0108510D02*
X0138343Y0108510D01*
X0137825Y0107311D02*
X0127714Y0107311D01*
X0127287Y0106113D02*
X0131946Y0106113D01*
X0131334Y0104914D02*
X0127287Y0104914D01*
X0127820Y0103716D02*
X0131356Y0103716D01*
X0132001Y0102517D02*
X0129018Y0102517D01*
X0126427Y0098922D02*
X0081287Y0098922D01*
X0081287Y0100120D02*
X0125229Y0100120D01*
X0124030Y0101319D02*
X0081287Y0101319D01*
X0081287Y0102517D02*
X0122832Y0102517D01*
X0121633Y0103716D02*
X0081287Y0103716D01*
X0081287Y0104914D02*
X0120435Y0104914D01*
X0125100Y0107342D02*
X0132100Y0115342D01*
X0129325Y0115701D02*
X0124375Y0115701D01*
X0124255Y0114503D02*
X0128724Y0114503D01*
X0127676Y0113304D02*
X0123486Y0113304D01*
X0125578Y0110907D02*
X0120629Y0110907D01*
X0121827Y0109709D02*
X0124529Y0109709D01*
X0126627Y0112106D02*
X0119430Y0112106D01*
X0119714Y0113304D02*
X0118232Y0113304D01*
X0118944Y0114503D02*
X0117033Y0114503D01*
X0115835Y0115701D02*
X0118825Y0115701D01*
X0119242Y0116900D02*
X0114636Y0116900D01*
X0123958Y0116900D02*
X0129742Y0116900D01*
X0138413Y0124091D02*
X0107794Y0124091D01*
X0107077Y0125289D02*
X0138413Y0125289D01*
X0138413Y0126488D02*
X0061135Y0126488D01*
X0061572Y0125289D02*
X0090953Y0125289D01*
X0089755Y0124091D02*
X0061505Y0124091D01*
X0060852Y0122892D02*
X0088556Y0122892D01*
X0087358Y0121694D02*
X0034572Y0121694D01*
X0034382Y0122892D02*
X0056348Y0122892D01*
X0055695Y0124091D02*
X0033554Y0124091D01*
X0029646Y0124091D02*
X0023554Y0124091D01*
X0024382Y0122892D02*
X0028818Y0122892D01*
X0028628Y0121694D02*
X0024572Y0121694D01*
X0023904Y0118098D02*
X0004487Y0118098D01*
X0004487Y0116900D02*
X0023628Y0116900D01*
X0023856Y0115701D02*
X0004487Y0115701D01*
X0004487Y0114503D02*
X0020257Y0114503D01*
X0019917Y0114362D02*
X0019081Y0113526D01*
X0018628Y0112434D01*
X0018628Y0111251D01*
X0019081Y0110159D01*
X0019623Y0109617D01*
X0018548Y0109617D01*
X0017528Y0109195D01*
X0016748Y0108414D01*
X0016325Y0107394D01*
X0016325Y0106291D01*
X0016748Y0105271D01*
X0017528Y0104490D01*
X0018548Y0104068D01*
X0019652Y0104068D01*
X0020672Y0104490D01*
X0021452Y0105271D01*
X0021875Y0106291D01*
X0021875Y0107394D01*
X0021452Y0108414D01*
X0020986Y0108880D01*
X0021009Y0108871D01*
X0022191Y0108871D01*
X0023283Y0109323D01*
X0024119Y0110159D01*
X0024572Y0111251D01*
X0024572Y0112434D01*
X0024119Y0113526D01*
X0023283Y0114362D01*
X0022191Y0114814D01*
X0021009Y0114814D01*
X0019917Y0114362D01*
X0018989Y0113304D02*
X0004487Y0113304D01*
X0004487Y0112106D02*
X0008520Y0112106D01*
X0008548Y0112117D02*
X0007528Y0111695D01*
X0006748Y0110914D01*
X0006325Y0109894D01*
X0006325Y0108791D01*
X0006748Y0107771D01*
X0007528Y0106990D01*
X0008548Y0106568D01*
X0009652Y0106568D01*
X0010672Y0106990D01*
X0011452Y0107771D01*
X0011875Y0108791D01*
X0011875Y0109894D01*
X0011452Y0110914D01*
X0010672Y0111695D01*
X0009652Y0112117D01*
X0008548Y0112117D01*
X0009680Y0112106D02*
X0018628Y0112106D01*
X0018771Y0110907D02*
X0011455Y0110907D01*
X0011875Y0109709D02*
X0019531Y0109709D01*
X0021357Y0108510D02*
X0022843Y0108510D01*
X0022748Y0108414D02*
X0022325Y0107394D01*
X0022325Y0106291D01*
X0022748Y0105271D01*
X0023528Y0104490D01*
X0024548Y0104068D01*
X0025652Y0104068D01*
X0026672Y0104490D01*
X0027452Y0105271D01*
X0027875Y0106291D01*
X0027875Y0107394D01*
X0027452Y0108414D01*
X0026672Y0109195D01*
X0025652Y0109617D01*
X0024548Y0109617D01*
X0023528Y0109195D01*
X0022748Y0108414D01*
X0022325Y0107311D02*
X0021875Y0107311D01*
X0021801Y0106113D02*
X0022399Y0106113D01*
X0023104Y0104914D02*
X0021096Y0104914D01*
X0023528Y0102695D02*
X0024548Y0103117D01*
X0025652Y0103117D01*
X0026672Y0102695D01*
X0027452Y0101914D01*
X0027875Y0100894D01*
X0027875Y0099791D01*
X0027452Y0098771D01*
X0026672Y0097990D01*
X0025652Y0097568D01*
X0024548Y0097568D01*
X0023528Y0097990D01*
X0022748Y0098771D01*
X0022325Y0099791D01*
X0022325Y0100894D01*
X0022748Y0101914D01*
X0023528Y0102695D01*
X0023351Y0102517D02*
X0004487Y0102517D01*
X0004487Y0101319D02*
X0022501Y0101319D01*
X0022325Y0100120D02*
X0004487Y0100120D01*
X0004487Y0098922D02*
X0022685Y0098922D01*
X0024172Y0097723D02*
X0004487Y0097723D01*
X0004487Y0096525D02*
X0076913Y0096525D01*
X0076913Y0097723D02*
X0068405Y0097723D01*
X0068172Y0097490D02*
X0068952Y0098271D01*
X0069375Y0099291D01*
X0069375Y0100394D01*
X0068952Y0101414D01*
X0068172Y0102195D01*
X0067152Y0102617D01*
X0066048Y0102617D01*
X0065028Y0102195D01*
X0064248Y0101414D01*
X0063825Y0100394D01*
X0063825Y0099291D01*
X0064248Y0098271D01*
X0065028Y0097490D01*
X0066048Y0097068D01*
X0067152Y0097068D01*
X0068172Y0097490D01*
X0069222Y0098922D02*
X0076913Y0098922D01*
X0076913Y0100120D02*
X0069375Y0100120D01*
X0068992Y0101319D02*
X0076913Y0101319D01*
X0076913Y0102517D02*
X0067393Y0102517D01*
X0065807Y0102517D02*
X0026849Y0102517D01*
X0027699Y0101319D02*
X0064208Y0101319D01*
X0063825Y0100120D02*
X0027875Y0100120D01*
X0027515Y0098922D02*
X0063978Y0098922D01*
X0064795Y0097723D02*
X0026028Y0097723D01*
X0027096Y0104914D02*
X0076913Y0104914D01*
X0076913Y0103716D02*
X0004487Y0103716D01*
X0004487Y0104914D02*
X0017104Y0104914D01*
X0016399Y0106113D02*
X0004487Y0106113D01*
X0004487Y0107311D02*
X0007207Y0107311D01*
X0006441Y0108510D02*
X0004487Y0108510D01*
X0004487Y0109709D02*
X0006325Y0109709D01*
X0006745Y0110907D02*
X0004487Y0110907D01*
X0010993Y0107311D02*
X0016325Y0107311D01*
X0016843Y0108510D02*
X0011759Y0108510D01*
X0023669Y0109709D02*
X0029531Y0109709D01*
X0029917Y0109323D02*
X0031009Y0108871D01*
X0032191Y0108871D01*
X0033283Y0109323D01*
X0034119Y0110159D01*
X0034572Y0111251D01*
X0034572Y0112434D01*
X0034119Y0113526D01*
X0033283Y0114362D01*
X0032191Y0114814D01*
X0031009Y0114814D01*
X0029917Y0114362D01*
X0029081Y0113526D01*
X0028628Y0112434D01*
X0028628Y0111251D01*
X0029081Y0110159D01*
X0029917Y0109323D01*
X0028771Y0110907D02*
X0024429Y0110907D01*
X0024572Y0112106D02*
X0028628Y0112106D01*
X0028989Y0113304D02*
X0024211Y0113304D01*
X0024737Y0114503D02*
X0022943Y0114503D01*
X0028463Y0114503D02*
X0030257Y0114503D01*
X0029344Y0115701D02*
X0063856Y0115701D01*
X0063628Y0116900D02*
X0029572Y0116900D01*
X0032943Y0114503D02*
X0060257Y0114503D01*
X0058989Y0113304D02*
X0034211Y0113304D01*
X0034572Y0112106D02*
X0058628Y0112106D01*
X0058771Y0110907D02*
X0034429Y0110907D01*
X0033669Y0109709D02*
X0059531Y0109709D01*
X0063669Y0109709D02*
X0076146Y0109709D01*
X0076128Y0110907D02*
X0064429Y0110907D01*
X0064572Y0112106D02*
X0076660Y0112106D01*
X0076730Y0108510D02*
X0027357Y0108510D01*
X0027875Y0107311D02*
X0076913Y0107311D01*
X0076913Y0106113D02*
X0027801Y0106113D01*
X0039961Y0094128D02*
X0004487Y0094128D01*
X0004487Y0095326D02*
X0077023Y0095326D01*
X0078221Y0094128D02*
X0043239Y0094128D01*
X0043172Y0094195D02*
X0042152Y0094617D01*
X0041048Y0094617D01*
X0040028Y0094195D01*
X0039248Y0093414D01*
X0038825Y0092394D01*
X0038825Y0091291D01*
X0039248Y0090271D01*
X0040028Y0089490D01*
X0041048Y0089068D01*
X0042152Y0089068D01*
X0043172Y0089490D01*
X0043952Y0090271D01*
X0044375Y0091291D01*
X0044375Y0092394D01*
X0043952Y0093414D01*
X0043172Y0094195D01*
X0044153Y0092929D02*
X0079420Y0092929D01*
X0080618Y0091731D02*
X0044375Y0091731D01*
X0044061Y0090532D02*
X0081817Y0090532D01*
X0083015Y0089334D02*
X0042794Y0089334D01*
X0040406Y0089334D02*
X0004487Y0089334D01*
X0004487Y0090532D02*
X0039139Y0090532D01*
X0038825Y0091731D02*
X0004487Y0091731D01*
X0004487Y0092929D02*
X0039047Y0092929D01*
X0004487Y0088135D02*
X0084214Y0088135D01*
X0085412Y0086937D02*
X0004487Y0086937D01*
X0004487Y0085738D02*
X0086054Y0085738D01*
X0086413Y0084540D02*
X0004487Y0084540D01*
X0004487Y0083341D02*
X0086413Y0083341D01*
X0086413Y0082143D02*
X0004487Y0082143D01*
X0004487Y0080944D02*
X0075778Y0080944D01*
X0076028Y0081195D02*
X0075248Y0080414D01*
X0074825Y0079394D01*
X0074825Y0078291D01*
X0075248Y0077271D01*
X0076028Y0076490D01*
X0077048Y0076068D01*
X0078152Y0076068D01*
X0079172Y0076490D01*
X0079952Y0077271D01*
X0080375Y0078291D01*
X0080375Y0079394D01*
X0079952Y0080414D01*
X0079172Y0081195D01*
X0078152Y0081617D01*
X0077048Y0081617D01*
X0076028Y0081195D01*
X0074971Y0079746D02*
X0004487Y0079746D01*
X0004487Y0078547D02*
X0074825Y0078547D01*
X0075215Y0077349D02*
X0004487Y0077349D01*
X0004487Y0076150D02*
X0076849Y0076150D01*
X0078351Y0076150D02*
X0084814Y0076150D01*
X0083616Y0074952D02*
X0004487Y0074952D01*
X0004487Y0068959D02*
X0052292Y0068959D01*
X0051825Y0067761D02*
X0004487Y0067761D01*
X0004487Y0066562D02*
X0051920Y0066562D01*
X0052655Y0065364D02*
X0004487Y0065364D01*
X0011649Y0038996D02*
X0013551Y0038996D01*
X0013917Y0039362D02*
X0013081Y0038526D01*
X0012628Y0037434D01*
X0012628Y0036251D01*
X0013081Y0035159D01*
X0013917Y0034323D01*
X0015009Y0033871D01*
X0016191Y0033871D01*
X0017283Y0034323D01*
X0018119Y0035159D01*
X0018572Y0036251D01*
X0018572Y0037434D01*
X0018119Y0038526D01*
X0017283Y0039362D01*
X0016191Y0039814D01*
X0015009Y0039814D01*
X0013917Y0039362D01*
X0012779Y0037798D02*
X0012421Y0037798D01*
X0012572Y0036599D02*
X0012628Y0036599D01*
X0012981Y0035401D02*
X0012219Y0035401D01*
X0010991Y0034202D02*
X0014209Y0034202D01*
X0016991Y0034202D02*
X0020209Y0034202D01*
X0019917Y0034323D02*
X0021009Y0033871D01*
X0022191Y0033871D01*
X0023283Y0034323D01*
X0024119Y0035159D01*
X0024572Y0036251D01*
X0024572Y0037434D01*
X0024119Y0038526D01*
X0023283Y0039362D01*
X0022191Y0039814D01*
X0021009Y0039814D01*
X0019917Y0039362D01*
X0019081Y0038526D01*
X0018628Y0037434D01*
X0018628Y0036251D01*
X0019081Y0035159D01*
X0019917Y0034323D01*
X0018981Y0035401D02*
X0018219Y0035401D01*
X0018572Y0036599D02*
X0018628Y0036599D01*
X0018779Y0037798D02*
X0018421Y0037798D01*
X0017649Y0038996D02*
X0019551Y0038996D01*
X0023649Y0038996D02*
X0025830Y0038996D01*
X0026028Y0039195D02*
X0025248Y0038414D01*
X0024825Y0037394D01*
X0024825Y0036291D01*
X0025248Y0035271D01*
X0026028Y0034490D01*
X0027048Y0034068D01*
X0028152Y0034068D01*
X0029172Y0034490D01*
X0029952Y0035271D01*
X0030375Y0036291D01*
X0030375Y0037394D01*
X0029952Y0038414D01*
X0029172Y0039195D01*
X0028152Y0039617D01*
X0027048Y0039617D01*
X0026028Y0039195D01*
X0024992Y0037798D02*
X0024421Y0037798D01*
X0024572Y0036599D02*
X0024825Y0036599D01*
X0025194Y0035401D02*
X0024219Y0035401D01*
X0022991Y0034202D02*
X0026723Y0034202D01*
X0028477Y0034202D02*
X0069709Y0034202D01*
X0069417Y0034323D02*
X0070509Y0033871D01*
X0071691Y0033871D01*
X0072783Y0034323D01*
X0073619Y0035159D01*
X0074072Y0036251D01*
X0074072Y0037434D01*
X0073619Y0038526D01*
X0072783Y0039362D01*
X0071691Y0039814D01*
X0070509Y0039814D01*
X0069417Y0039362D01*
X0068581Y0038526D01*
X0068128Y0037434D01*
X0068128Y0036251D01*
X0068581Y0035159D01*
X0069417Y0034323D01*
X0068481Y0035401D02*
X0030006Y0035401D01*
X0030375Y0036599D02*
X0068128Y0036599D01*
X0068279Y0037798D02*
X0030208Y0037798D01*
X0029370Y0038996D02*
X0069051Y0038996D01*
X0073149Y0038996D02*
X0077923Y0038996D01*
X0079122Y0037798D02*
X0073921Y0037798D01*
X0074072Y0036599D02*
X0080320Y0036599D01*
X0081519Y0035401D02*
X0073719Y0035401D01*
X0072491Y0034202D02*
X0082717Y0034202D01*
X0086366Y0036599D02*
X0092433Y0036599D01*
X0092528Y0036695D02*
X0091748Y0035914D01*
X0091325Y0034894D01*
X0091325Y0033791D01*
X0091748Y0032771D01*
X0092528Y0031990D01*
X0093548Y0031568D01*
X0094652Y0031568D01*
X0095672Y0031990D01*
X0096452Y0032771D01*
X0096875Y0033791D01*
X0096875Y0034894D01*
X0096452Y0035914D01*
X0095672Y0036695D01*
X0094652Y0037117D01*
X0093548Y0037117D01*
X0092528Y0036695D01*
X0091535Y0035401D02*
X0087564Y0035401D01*
X0088763Y0034202D02*
X0091325Y0034202D01*
X0091651Y0033004D02*
X0089961Y0033004D01*
X0091160Y0031805D02*
X0092974Y0031805D01*
X0092358Y0030607D02*
X0155271Y0030607D01*
X0156469Y0031805D02*
X0134226Y0031805D01*
X0131974Y0031805D02*
X0095226Y0031805D01*
X0096549Y0033004D02*
X0110015Y0033004D01*
X0110028Y0032990D02*
X0111048Y0032568D01*
X0112152Y0032568D01*
X0113172Y0032990D01*
X0113952Y0033771D01*
X0114375Y0034791D01*
X0114375Y0035894D01*
X0113952Y0036914D01*
X0113172Y0037695D01*
X0112152Y0038117D01*
X0111048Y0038117D01*
X0110028Y0037695D01*
X0109248Y0036914D01*
X0108825Y0035894D01*
X0108825Y0034791D01*
X0109248Y0033771D01*
X0110028Y0032990D01*
X0109069Y0034202D02*
X0096875Y0034202D01*
X0096665Y0035401D02*
X0108825Y0035401D01*
X0109117Y0036599D02*
X0108228Y0036599D01*
X0108152Y0036568D02*
X0109172Y0036990D01*
X0109952Y0037771D01*
X0110375Y0038791D01*
X0110375Y0039894D01*
X0109952Y0040914D01*
X0109172Y0041695D01*
X0108152Y0042117D01*
X0107048Y0042117D01*
X0106028Y0041695D01*
X0105248Y0040914D01*
X0104825Y0039894D01*
X0104825Y0038791D01*
X0105248Y0037771D01*
X0106028Y0036990D01*
X0107048Y0036568D01*
X0108152Y0036568D01*
X0106972Y0036599D02*
X0095767Y0036599D01*
X0104825Y0038996D02*
X0083969Y0038996D01*
X0085167Y0037798D02*
X0105236Y0037798D01*
X0104950Y0040195D02*
X0082770Y0040195D01*
X0081572Y0041393D02*
X0105727Y0041393D01*
X0109473Y0041393D02*
X0146128Y0041393D01*
X0144930Y0040195D02*
X0110250Y0040195D01*
X0110375Y0038996D02*
X0143731Y0038996D01*
X0142533Y0037798D02*
X0112923Y0037798D01*
X0114083Y0036599D02*
X0131433Y0036599D01*
X0130535Y0035401D02*
X0114375Y0035401D01*
X0114131Y0034202D02*
X0130325Y0034202D01*
X0130651Y0033004D02*
X0113185Y0033004D01*
X0110277Y0037798D02*
X0109964Y0037798D01*
X0122072Y0029408D02*
X0093557Y0029408D01*
X0094755Y0028210D02*
X0120874Y0028210D01*
X0119675Y0027011D02*
X0095954Y0027011D01*
X0097152Y0025813D02*
X0102813Y0025813D01*
X0105387Y0025813D02*
X0118477Y0025813D01*
X0117278Y0024614D02*
X0106577Y0024614D01*
X0106875Y0023416D02*
X0116080Y0023416D01*
X0114881Y0022217D02*
X0106637Y0022217D01*
X0105700Y0021019D02*
X0113683Y0021019D01*
X0111654Y0019820D02*
X0081875Y0019820D01*
X0081616Y0021019D02*
X0102500Y0021019D01*
X0094703Y0022217D02*
X0080618Y0022217D01*
X0081598Y0018622D02*
X0110919Y0018622D01*
X0110511Y0017423D02*
X0080510Y0017423D01*
X0083159Y0010232D02*
X0153611Y0010232D01*
X0154107Y0009034D02*
X0082768Y0009034D01*
X0082017Y0007835D02*
X0097867Y0007835D01*
X0100333Y0007835D02*
X0154908Y0007835D01*
X0154388Y0008355D02*
X0157113Y0005631D01*
X0160673Y0004156D01*
X0164527Y0004156D01*
X0168087Y0005631D01*
X0170812Y0008355D01*
X0172287Y0011916D01*
X0172287Y0015769D01*
X0170812Y0019330D01*
X0168087Y0022054D01*
X0164527Y0023529D01*
X0160673Y0023529D01*
X0157113Y0022054D01*
X0154388Y0019330D01*
X0152913Y0015769D01*
X0152913Y0011916D01*
X0154388Y0008355D01*
X0156107Y0006637D02*
X0101567Y0006637D01*
X0101875Y0005438D02*
X0157578Y0005438D01*
X0160471Y0004240D02*
X0101647Y0004240D01*
X0109857Y0011431D02*
X0153114Y0011431D01*
X0152913Y0012629D02*
X0119811Y0012629D01*
X0120683Y0013828D02*
X0152913Y0013828D01*
X0152913Y0015026D02*
X0120875Y0015026D01*
X0120531Y0016225D02*
X0153102Y0016225D01*
X0153598Y0017423D02*
X0119121Y0017423D01*
X0117473Y0018622D02*
X0154095Y0018622D01*
X0154879Y0019820D02*
X0118671Y0019820D01*
X0119870Y0021019D02*
X0124000Y0021019D01*
X0123063Y0022217D02*
X0121068Y0022217D01*
X0122267Y0023416D02*
X0122825Y0023416D01*
X0127200Y0021019D02*
X0156077Y0021019D01*
X0157506Y0022217D02*
X0128137Y0022217D01*
X0128375Y0023416D02*
X0160399Y0023416D01*
X0156664Y0025813D02*
X0217613Y0025813D01*
X0217613Y0027011D02*
X0157862Y0027011D01*
X0159061Y0028210D02*
X0217613Y0028210D01*
X0217613Y0029408D02*
X0160259Y0029408D01*
X0161458Y0030607D02*
X0217613Y0030607D01*
X0217613Y0031805D02*
X0162656Y0031805D01*
X0163855Y0033004D02*
X0217613Y0033004D01*
X0217613Y0034202D02*
X0165053Y0034202D01*
X0166252Y0035401D02*
X0217613Y0035401D01*
X0217613Y0036599D02*
X0167450Y0036599D01*
X0168649Y0037798D02*
X0217613Y0037798D01*
X0217613Y0038996D02*
X0190178Y0038996D01*
X0190452Y0039271D02*
X0190875Y0040291D01*
X0190875Y0041394D01*
X0190452Y0042414D01*
X0189672Y0043195D01*
X0188652Y0043617D01*
X0187548Y0043617D01*
X0186528Y0043195D01*
X0185748Y0042414D01*
X0185325Y0041394D01*
X0185325Y0040291D01*
X0185748Y0039271D01*
X0186528Y0038490D01*
X0187548Y0038068D01*
X0188652Y0038068D01*
X0189672Y0038490D01*
X0190452Y0039271D01*
X0190835Y0040195D02*
X0217437Y0040195D01*
X0219049Y0041393D02*
X0255713Y0041393D01*
X0255713Y0040195D02*
X0219600Y0040195D01*
X0219600Y0038996D02*
X0255713Y0038996D01*
X0255713Y0037798D02*
X0219600Y0037798D01*
X0219600Y0036599D02*
X0255713Y0036599D01*
X0255713Y0035401D02*
X0219600Y0035401D01*
X0219600Y0034202D02*
X0255713Y0034202D01*
X0255713Y0033004D02*
X0219600Y0033004D01*
X0219600Y0031805D02*
X0255713Y0031805D01*
X0255713Y0030607D02*
X0219600Y0030607D01*
X0219600Y0029408D02*
X0255713Y0029408D01*
X0255713Y0028210D02*
X0219600Y0028210D01*
X0219600Y0027011D02*
X0255713Y0027011D01*
X0255713Y0025813D02*
X0219630Y0025813D01*
X0220828Y0024614D02*
X0255713Y0024614D01*
X0255713Y0023416D02*
X0222027Y0023416D01*
X0220415Y0022217D02*
X0217875Y0022217D01*
X0217875Y0022394D02*
X0217452Y0023414D01*
X0216672Y0024195D01*
X0215652Y0024617D01*
X0214548Y0024617D01*
X0213528Y0024195D01*
X0212748Y0023414D01*
X0212325Y0022394D01*
X0212325Y0021291D01*
X0212748Y0020271D01*
X0213528Y0019490D01*
X0214548Y0019068D01*
X0215652Y0019068D01*
X0216672Y0019490D01*
X0217452Y0020271D01*
X0217875Y0021291D01*
X0217875Y0022394D01*
X0217451Y0023416D02*
X0219216Y0023416D01*
X0218018Y0024614D02*
X0215659Y0024614D01*
X0214541Y0024614D02*
X0128077Y0024614D01*
X0117079Y0017423D02*
X0116375Y0017423D01*
X0115325Y0015026D02*
X0113453Y0015026D01*
X0112254Y0013828D02*
X0115517Y0013828D01*
X0116389Y0012629D02*
X0111056Y0012629D01*
X0088710Y0028210D02*
X0066393Y0028210D01*
X0080373Y0042592D02*
X0147327Y0042592D01*
X0148525Y0043790D02*
X0079175Y0043790D01*
X0077976Y0044989D02*
X0149724Y0044989D01*
X0150922Y0046187D02*
X0076778Y0046187D01*
X0075579Y0047386D02*
X0102280Y0047386D01*
X0102028Y0047490D02*
X0103048Y0047068D01*
X0104152Y0047068D01*
X0105172Y0047490D01*
X0105952Y0048271D01*
X0106375Y0049291D01*
X0106375Y0050394D01*
X0105952Y0051414D01*
X0105172Y0052195D01*
X0104152Y0052617D01*
X0103048Y0052617D01*
X0102028Y0052195D01*
X0101248Y0051414D01*
X0100825Y0050394D01*
X0100825Y0049291D01*
X0101248Y0048271D01*
X0102028Y0047490D01*
X0101118Y0048584D02*
X0097266Y0048584D01*
X0097172Y0048490D02*
X0097952Y0049271D01*
X0098375Y0050291D01*
X0098375Y0051394D01*
X0097952Y0052414D01*
X0097172Y0053195D01*
X0096152Y0053617D01*
X0095048Y0053617D01*
X0094375Y0053338D01*
X0094375Y0054394D01*
X0093952Y0055414D01*
X0093172Y0056195D01*
X0092152Y0056617D01*
X0091048Y0056617D01*
X0090028Y0056195D01*
X0089248Y0055414D01*
X0088825Y0054394D01*
X0088825Y0053291D01*
X0089248Y0052271D01*
X0090028Y0051490D01*
X0091048Y0051068D01*
X0092152Y0051068D01*
X0092825Y0051347D01*
X0092825Y0050291D01*
X0093248Y0049271D01*
X0094028Y0048490D01*
X0095048Y0048068D01*
X0096152Y0048068D01*
X0097172Y0048490D01*
X0098165Y0049783D02*
X0100825Y0049783D01*
X0101068Y0050981D02*
X0098375Y0050981D01*
X0098049Y0052180D02*
X0102013Y0052180D01*
X0105187Y0052180D02*
X0155463Y0052180D01*
X0155463Y0053378D02*
X0096728Y0053378D01*
X0094472Y0053378D02*
X0094375Y0053378D01*
X0094299Y0054577D02*
X0155463Y0054577D01*
X0155463Y0055775D02*
X0093591Y0055775D01*
X0089952Y0057271D02*
X0090375Y0058291D01*
X0090375Y0059394D01*
X0089952Y0060414D01*
X0089172Y0061195D01*
X0088152Y0061617D01*
X0087048Y0061617D01*
X0086028Y0061195D01*
X0085248Y0060414D01*
X0084825Y0059394D01*
X0084825Y0058291D01*
X0085248Y0057271D01*
X0086028Y0056490D01*
X0087048Y0056068D01*
X0088152Y0056068D01*
X0089172Y0056490D01*
X0089952Y0057271D01*
X0089656Y0056974D02*
X0155463Y0056974D01*
X0154874Y0058173D02*
X0125854Y0058173D01*
X0126701Y0059371D02*
X0154825Y0059371D01*
X0155403Y0060570D02*
X0126875Y0060570D01*
X0129450Y0061768D02*
X0157432Y0061768D01*
X0158413Y0062967D02*
X0130241Y0062967D01*
X0130375Y0064165D02*
X0158413Y0064165D01*
X0158413Y0065364D02*
X0133045Y0065364D01*
X0121325Y0060570D02*
X0089797Y0060570D01*
X0090375Y0059371D02*
X0121499Y0059371D01*
X0122346Y0058173D02*
X0090326Y0058173D01*
X0089609Y0055775D02*
X0073237Y0055775D01*
X0073237Y0054577D02*
X0088901Y0054577D01*
X0088825Y0053378D02*
X0073237Y0053378D01*
X0073237Y0052180D02*
X0089338Y0052180D01*
X0092825Y0050981D02*
X0073237Y0050981D01*
X0073237Y0049783D02*
X0093035Y0049783D01*
X0093934Y0048584D02*
X0074381Y0048584D01*
X0069534Y0047386D02*
X0067500Y0047386D01*
X0067875Y0048584D02*
X0068963Y0048584D01*
X0068963Y0049783D02*
X0067714Y0049783D01*
X0066885Y0050981D02*
X0068963Y0050981D01*
X0063315Y0050981D02*
X0062132Y0050981D01*
X0062375Y0049783D02*
X0062486Y0049783D01*
X0062325Y0048584D02*
X0062082Y0048584D01*
X0062700Y0047386D02*
X0060920Y0047386D01*
X0073237Y0056974D02*
X0085544Y0056974D01*
X0084874Y0058173D02*
X0073619Y0058173D01*
X0074222Y0059371D02*
X0084825Y0059371D01*
X0085403Y0060570D02*
X0075420Y0060570D01*
X0076619Y0061768D02*
X0118750Y0061768D01*
X0117959Y0062967D02*
X0077818Y0062967D01*
X0079016Y0064165D02*
X0117825Y0064165D01*
X0115155Y0065364D02*
X0080215Y0065364D01*
X0079985Y0077349D02*
X0086013Y0077349D01*
X0086413Y0078547D02*
X0080375Y0078547D01*
X0080229Y0079746D02*
X0086413Y0079746D01*
X0086413Y0080944D02*
X0079422Y0080944D01*
X0086805Y0091731D02*
X0133618Y0091731D01*
X0132420Y0092929D02*
X0085607Y0092929D01*
X0084408Y0094128D02*
X0131221Y0094128D01*
X0130023Y0095326D02*
X0083210Y0095326D01*
X0082011Y0096525D02*
X0128824Y0096525D01*
X0127626Y0097723D02*
X0081287Y0097723D01*
X0083208Y0119297D02*
X0084467Y0119297D01*
X0086159Y0120495D02*
X0082372Y0120495D01*
X0059500Y0127686D02*
X0137663Y0127686D01*
X0136464Y0128885D02*
X0004487Y0128885D01*
X0004487Y0130083D02*
X0134435Y0130083D01*
X0133829Y0131282D02*
X0116463Y0131282D01*
X0117246Y0132480D02*
X0122052Y0132480D01*
X0121079Y0133679D02*
X0117375Y0133679D01*
X0116968Y0134877D02*
X0120825Y0134877D01*
X0124980Y0137274D02*
X0128075Y0137274D01*
X0129273Y0136076D02*
X0126093Y0136076D01*
X0126375Y0134877D02*
X0130472Y0134877D01*
X0131670Y0133679D02*
X0126121Y0133679D01*
X0125148Y0132480D02*
X0132869Y0132480D01*
X0136659Y0134877D02*
X0154613Y0134877D01*
X0154613Y0133679D02*
X0148688Y0133679D01*
X0148952Y0133414D02*
X0148172Y0134195D01*
X0147152Y0134617D01*
X0146048Y0134617D01*
X0145028Y0134195D01*
X0144248Y0133414D01*
X0143825Y0132394D01*
X0143825Y0131291D01*
X0144248Y0130271D01*
X0145028Y0129490D01*
X0146048Y0129068D01*
X0147152Y0129068D01*
X0148172Y0129490D01*
X0148952Y0130271D01*
X0149375Y0131291D01*
X0149375Y0132394D01*
X0148952Y0133414D01*
X0149339Y0132480D02*
X0154613Y0132480D01*
X0155350Y0131282D02*
X0149371Y0131282D01*
X0148765Y0130083D02*
X0156549Y0130083D01*
X0157747Y0128885D02*
X0142651Y0128885D01*
X0142787Y0127686D02*
X0161832Y0127686D01*
X0161403Y0130083D02*
X0159359Y0130083D01*
X0154613Y0136076D02*
X0135460Y0136076D01*
X0134262Y0137274D02*
X0154613Y0137274D01*
X0154613Y0138473D02*
X0133063Y0138473D01*
X0131865Y0139671D02*
X0154613Y0139671D01*
X0154613Y0140870D02*
X0130666Y0140870D01*
X0129468Y0142068D02*
X0147450Y0142068D01*
X0147528Y0141990D02*
X0148548Y0141568D01*
X0149652Y0141568D01*
X0150672Y0141990D01*
X0151452Y0142771D01*
X0151875Y0143791D01*
X0151875Y0144894D01*
X0151452Y0145914D01*
X0150672Y0146695D01*
X0149652Y0147117D01*
X0148548Y0147117D01*
X0147528Y0146695D01*
X0146748Y0145914D01*
X0146325Y0144894D01*
X0146325Y0143791D01*
X0146748Y0142771D01*
X0147528Y0141990D01*
X0146542Y0143267D02*
X0128269Y0143267D01*
X0127071Y0144465D02*
X0146325Y0144465D01*
X0146644Y0145664D02*
X0125872Y0145664D01*
X0124674Y0146862D02*
X0147933Y0146862D01*
X0150267Y0146862D02*
X0154613Y0146862D01*
X0154613Y0145664D02*
X0151556Y0145664D01*
X0151875Y0144465D02*
X0154613Y0144465D01*
X0154613Y0143267D02*
X0151658Y0143267D01*
X0150750Y0142068D02*
X0154613Y0142068D01*
X0144512Y0133679D02*
X0138688Y0133679D01*
X0139339Y0132480D02*
X0143861Y0132480D01*
X0143829Y0131282D02*
X0140254Y0131282D01*
X0141453Y0130083D02*
X0144435Y0130083D01*
X0142787Y0126488D02*
X0179613Y0126488D01*
X0179613Y0125289D02*
X0142787Y0125289D01*
X0142787Y0124091D02*
X0179613Y0124091D01*
X0179613Y0122892D02*
X0142787Y0122892D01*
X0142787Y0121694D02*
X0179613Y0121694D01*
X0179613Y0120495D02*
X0148947Y0120495D01*
X0148652Y0120617D02*
X0147548Y0120617D01*
X0146528Y0120195D01*
X0145748Y0119414D01*
X0145325Y0118394D01*
X0145325Y0117291D01*
X0145748Y0116271D01*
X0146528Y0115490D01*
X0147548Y0115068D01*
X0148652Y0115068D01*
X0149672Y0115490D01*
X0150452Y0116271D01*
X0150875Y0117291D01*
X0150875Y0118394D01*
X0150452Y0119414D01*
X0149672Y0120195D01*
X0148652Y0120617D01*
X0147253Y0120495D02*
X0142787Y0120495D01*
X0142787Y0119297D02*
X0145699Y0119297D01*
X0145325Y0118098D02*
X0142787Y0118098D01*
X0142787Y0116900D02*
X0145487Y0116900D01*
X0146317Y0115701D02*
X0142787Y0115701D01*
X0142787Y0114503D02*
X0179613Y0114503D01*
X0179613Y0115701D02*
X0149883Y0115701D01*
X0150713Y0116900D02*
X0179613Y0116900D01*
X0179613Y0118098D02*
X0150875Y0118098D01*
X0150501Y0119297D02*
X0179613Y0119297D01*
X0179613Y0113304D02*
X0142787Y0113304D01*
X0142787Y0112106D02*
X0179613Y0112106D01*
X0179613Y0110907D02*
X0143629Y0110907D01*
X0144827Y0109709D02*
X0179613Y0109709D01*
X0180777Y0103855D02*
X0180777Y0103855D01*
X0176846Y0095326D02*
X0173210Y0095326D01*
X0174408Y0094128D02*
X0175629Y0094128D01*
X0177413Y0080944D02*
X0169422Y0080944D01*
X0169875Y0079746D02*
X0177413Y0079746D01*
X0177413Y0078547D02*
X0169774Y0078547D01*
X0169030Y0077349D02*
X0177413Y0077349D01*
X0177413Y0076150D02*
X0167218Y0076150D01*
X0166020Y0074952D02*
X0177413Y0074952D01*
X0177413Y0073753D02*
X0164821Y0073753D01*
X0163623Y0072555D02*
X0177413Y0072555D01*
X0177413Y0071356D02*
X0162787Y0071356D01*
X0162787Y0070158D02*
X0177413Y0070158D01*
X0177413Y0068959D02*
X0162787Y0068959D01*
X0162787Y0067761D02*
X0177413Y0067761D01*
X0177413Y0066562D02*
X0162787Y0066562D01*
X0162787Y0065364D02*
X0177413Y0065364D01*
X0177413Y0064165D02*
X0162787Y0064165D01*
X0162787Y0062967D02*
X0177413Y0062967D01*
X0177413Y0061768D02*
X0162787Y0061768D01*
X0162420Y0060570D02*
X0177413Y0060570D01*
X0177413Y0059371D02*
X0161222Y0059371D01*
X0160326Y0058173D02*
X0177413Y0058173D01*
X0177413Y0056974D02*
X0159737Y0056974D01*
X0159737Y0055775D02*
X0177413Y0055775D01*
X0177413Y0054577D02*
X0159737Y0054577D01*
X0159737Y0053378D02*
X0177413Y0053378D01*
X0176844Y0052180D02*
X0159737Y0052180D01*
X0159737Y0050981D02*
X0175646Y0050981D01*
X0174447Y0049783D02*
X0159737Y0049783D01*
X0159365Y0048584D02*
X0173248Y0048584D01*
X0172050Y0047386D02*
X0163731Y0047386D01*
X0163952Y0047164D02*
X0163172Y0047945D01*
X0162152Y0048367D01*
X0161048Y0048367D01*
X0160028Y0047945D01*
X0159248Y0047164D01*
X0158825Y0046144D01*
X0158825Y0045041D01*
X0159248Y0044021D01*
X0160028Y0043240D01*
X0161048Y0042818D01*
X0162152Y0042818D01*
X0163172Y0043240D01*
X0163952Y0044021D01*
X0164375Y0045041D01*
X0164375Y0046144D01*
X0163952Y0047164D01*
X0164357Y0046187D02*
X0170851Y0046187D01*
X0169653Y0044989D02*
X0164353Y0044989D01*
X0163722Y0043790D02*
X0168454Y0043790D01*
X0167256Y0042592D02*
X0153372Y0042592D01*
X0154571Y0043790D02*
X0159478Y0043790D01*
X0158847Y0044989D02*
X0155769Y0044989D01*
X0156968Y0046187D02*
X0158843Y0046187D01*
X0159469Y0047386D02*
X0158166Y0047386D01*
X0154518Y0049783D02*
X0106375Y0049783D01*
X0106132Y0050981D02*
X0155463Y0050981D01*
X0153319Y0048584D02*
X0106082Y0048584D01*
X0104920Y0047386D02*
X0152121Y0047386D01*
X0152174Y0041393D02*
X0166057Y0041393D01*
X0164859Y0040195D02*
X0150975Y0040195D01*
X0149777Y0038996D02*
X0163660Y0038996D01*
X0162462Y0037798D02*
X0148578Y0037798D01*
X0147380Y0036599D02*
X0161263Y0036599D01*
X0160065Y0035401D02*
X0146181Y0035401D01*
X0144983Y0034202D02*
X0158866Y0034202D01*
X0157668Y0033004D02*
X0143784Y0033004D01*
X0141334Y0036599D02*
X0134767Y0036599D01*
X0164801Y0023416D02*
X0212749Y0023416D01*
X0212325Y0022217D02*
X0167694Y0022217D01*
X0169123Y0021019D02*
X0212438Y0021019D01*
X0213198Y0019820D02*
X0170321Y0019820D01*
X0171105Y0018622D02*
X0219919Y0018622D01*
X0219825Y0018394D02*
X0220248Y0019414D01*
X0221028Y0020195D01*
X0222048Y0020617D01*
X0223152Y0020617D01*
X0224172Y0020195D01*
X0224952Y0019414D01*
X0225375Y0018394D01*
X0225375Y0017291D01*
X0224952Y0016271D01*
X0224172Y0015490D01*
X0223152Y0015068D01*
X0222048Y0015068D01*
X0221149Y0015440D01*
X0221375Y0014894D01*
X0221375Y0013791D01*
X0220952Y0012771D01*
X0220172Y0011990D01*
X0219152Y0011568D01*
X0218048Y0011568D01*
X0217028Y0011990D01*
X0216248Y0012771D01*
X0215825Y0013791D01*
X0215825Y0014894D01*
X0216248Y0015914D01*
X0217028Y0016695D01*
X0218048Y0017117D01*
X0219152Y0017117D01*
X0220051Y0016745D01*
X0219825Y0017291D01*
X0219825Y0018394D01*
X0219825Y0017423D02*
X0171602Y0017423D01*
X0172098Y0016225D02*
X0216558Y0016225D01*
X0215880Y0015026D02*
X0172287Y0015026D01*
X0172287Y0013828D02*
X0215825Y0013828D01*
X0216389Y0012629D02*
X0210900Y0012629D01*
X0210599Y0012930D02*
X0190501Y0012930D01*
X0189513Y0011941D01*
X0189513Y0005744D01*
X0190501Y0004755D01*
X0191899Y0004755D01*
X0209201Y0004755D01*
X0210599Y0004755D01*
X0211587Y0005744D01*
X0211587Y0011941D01*
X0210599Y0012930D01*
X0211587Y0011431D02*
X0255713Y0011431D01*
X0255713Y0012629D02*
X0246811Y0012629D01*
X0246952Y0012771D02*
X0247375Y0013791D01*
X0247375Y0014894D01*
X0246952Y0015914D01*
X0246172Y0016695D01*
X0245152Y0017117D01*
X0244048Y0017117D01*
X0243028Y0016695D01*
X0242248Y0015914D01*
X0241825Y0014894D01*
X0241825Y0013791D01*
X0242248Y0012771D01*
X0243028Y0011990D01*
X0244048Y0011568D01*
X0245152Y0011568D01*
X0246172Y0011990D01*
X0246952Y0012771D01*
X0247375Y0013828D02*
X0255713Y0013828D01*
X0255713Y0015026D02*
X0247320Y0015026D01*
X0246642Y0016225D02*
X0255713Y0016225D01*
X0255713Y0017423D02*
X0225375Y0017423D01*
X0225281Y0018622D02*
X0255713Y0018622D01*
X0255713Y0019820D02*
X0224546Y0019820D01*
X0221613Y0021019D02*
X0217762Y0021019D01*
X0217002Y0019820D02*
X0220654Y0019820D01*
X0224906Y0016225D02*
X0229558Y0016225D01*
X0229248Y0015914D02*
X0228825Y0014894D01*
X0228825Y0013791D01*
X0229248Y0012771D01*
X0230028Y0011990D01*
X0231048Y0011568D01*
X0232152Y0011568D01*
X0233172Y0011990D01*
X0233952Y0012771D01*
X0234375Y0013791D01*
X0234375Y0014894D01*
X0233952Y0015914D01*
X0233172Y0016695D01*
X0232152Y0017117D01*
X0231048Y0017117D01*
X0230028Y0016695D01*
X0229248Y0015914D01*
X0228880Y0015026D02*
X0221320Y0015026D01*
X0221375Y0013828D02*
X0228825Y0013828D01*
X0229389Y0012629D02*
X0220811Y0012629D01*
X0220333Y0007835D02*
X0255713Y0007835D01*
X0255713Y0009034D02*
X0211587Y0009034D01*
X0211587Y0010232D02*
X0255713Y0010232D01*
X0254932Y0006637D02*
X0248268Y0006637D01*
X0249467Y0005438D02*
X0253733Y0005438D01*
X0252535Y0004240D02*
X0250665Y0004240D01*
X0242432Y0006637D02*
X0235268Y0006637D01*
X0236467Y0005438D02*
X0241233Y0005438D01*
X0240035Y0004240D02*
X0237665Y0004240D01*
X0228932Y0006637D02*
X0221567Y0006637D01*
X0221875Y0005438D02*
X0227733Y0005438D01*
X0226535Y0004240D02*
X0221647Y0004240D01*
X0216553Y0004240D02*
X0164729Y0004240D01*
X0167622Y0005438D02*
X0189818Y0005438D01*
X0189513Y0006637D02*
X0169093Y0006637D01*
X0170291Y0007835D02*
X0189513Y0007835D01*
X0189513Y0009034D02*
X0171093Y0009034D01*
X0171589Y0010232D02*
X0189513Y0010232D01*
X0189513Y0011431D02*
X0172086Y0011431D01*
X0172287Y0012629D02*
X0190200Y0012629D01*
X0211587Y0007835D02*
X0217867Y0007835D01*
X0216633Y0006637D02*
X0211587Y0006637D01*
X0211282Y0005438D02*
X0216325Y0005438D01*
X0233811Y0012629D02*
X0242389Y0012629D01*
X0241825Y0013828D02*
X0234375Y0013828D01*
X0234320Y0015026D02*
X0241880Y0015026D01*
X0242558Y0016225D02*
X0233642Y0016225D01*
X0193239Y0041393D02*
X0190875Y0041393D01*
X0190275Y0042592D02*
X0192040Y0042592D01*
X0190841Y0043790D02*
X0174641Y0043790D01*
X0173443Y0042592D02*
X0185925Y0042592D01*
X0185325Y0041393D02*
X0172244Y0041393D01*
X0171046Y0040195D02*
X0185365Y0040195D01*
X0186022Y0038996D02*
X0169847Y0038996D01*
X0175840Y0044989D02*
X0190613Y0044989D01*
X0190613Y0046187D02*
X0177038Y0046187D01*
X0178237Y0047386D02*
X0190613Y0047386D01*
X0190613Y0048584D02*
X0179435Y0048584D01*
X0180634Y0049783D02*
X0190613Y0049783D01*
X0190613Y0050981D02*
X0181787Y0050981D01*
X0181787Y0052180D02*
X0190613Y0052180D01*
X0190613Y0053378D02*
X0181787Y0053378D01*
X0181787Y0054577D02*
X0190613Y0054577D01*
X0190613Y0055775D02*
X0181787Y0055775D01*
X0181787Y0056974D02*
X0190613Y0056974D01*
X0190613Y0058173D02*
X0181787Y0058173D01*
X0181787Y0059371D02*
X0190613Y0059371D01*
X0190613Y0060570D02*
X0181787Y0060570D01*
X0181787Y0061768D02*
X0190613Y0061768D01*
X0190613Y0062967D02*
X0181787Y0062967D01*
X0181787Y0064165D02*
X0190613Y0064165D01*
X0190613Y0065364D02*
X0181787Y0065364D01*
X0181787Y0066562D02*
X0190613Y0066562D01*
X0190613Y0067761D02*
X0181787Y0067761D01*
X0181787Y0068959D02*
X0190906Y0068959D01*
X0192105Y0070158D02*
X0188839Y0070158D01*
X0189375Y0071356D02*
X0193303Y0071356D01*
X0193717Y0068959D02*
X0248628Y0068959D01*
X0248628Y0068751D02*
X0249081Y0067659D01*
X0249917Y0066823D01*
X0251009Y0066371D01*
X0252191Y0066371D01*
X0253283Y0066823D01*
X0254119Y0067659D01*
X0254572Y0068751D01*
X0254572Y0069934D01*
X0254119Y0071026D01*
X0253283Y0071862D01*
X0252191Y0072314D01*
X0251009Y0072314D01*
X0249917Y0071862D01*
X0249081Y0071026D01*
X0248628Y0069934D01*
X0248628Y0068751D01*
X0249039Y0067761D02*
X0192600Y0067761D01*
X0192600Y0066562D02*
X0199895Y0066562D01*
X0200028Y0066695D02*
X0199248Y0065914D01*
X0198825Y0064894D01*
X0198825Y0063791D01*
X0199248Y0062771D01*
X0200028Y0061990D01*
X0201048Y0061568D01*
X0202152Y0061568D01*
X0203172Y0061990D01*
X0203952Y0062771D01*
X0204375Y0063791D01*
X0204375Y0064894D01*
X0203952Y0065914D01*
X0203172Y0066695D01*
X0202152Y0067117D01*
X0201048Y0067117D01*
X0200028Y0066695D01*
X0199020Y0065364D02*
X0192600Y0065364D01*
X0192600Y0064165D02*
X0198825Y0064165D01*
X0199166Y0062967D02*
X0192600Y0062967D01*
X0192600Y0061768D02*
X0200564Y0061768D01*
X0202636Y0061768D02*
X0248628Y0061768D01*
X0248628Y0061251D02*
X0248628Y0062434D01*
X0249081Y0063526D01*
X0249917Y0064362D01*
X0251009Y0064814D01*
X0252191Y0064814D01*
X0253283Y0064362D01*
X0254119Y0063526D01*
X0254572Y0062434D01*
X0254572Y0061251D01*
X0254119Y0060159D01*
X0253283Y0059323D01*
X0252191Y0058871D01*
X0251009Y0058871D01*
X0249917Y0059323D01*
X0249081Y0060159D01*
X0248628Y0061251D01*
X0248911Y0060570D02*
X0192600Y0060570D01*
X0192600Y0059371D02*
X0249869Y0059371D01*
X0253331Y0059371D02*
X0255713Y0059371D01*
X0255713Y0058173D02*
X0230473Y0058173D01*
X0230283Y0058362D02*
X0231119Y0057526D01*
X0231572Y0056434D01*
X0231572Y0055251D01*
X0231119Y0054159D01*
X0230283Y0053323D01*
X0229191Y0052871D01*
X0228009Y0052871D01*
X0226917Y0053323D01*
X0226081Y0054159D01*
X0225628Y0055251D01*
X0225628Y0056434D01*
X0226081Y0057526D01*
X0226917Y0058362D01*
X0228009Y0058814D01*
X0229191Y0058814D01*
X0230283Y0058362D01*
X0231348Y0056974D02*
X0255713Y0056974D01*
X0255713Y0055775D02*
X0231572Y0055775D01*
X0231292Y0054577D02*
X0255713Y0054577D01*
X0255713Y0053378D02*
X0230339Y0053378D01*
X0226861Y0053378D02*
X0192600Y0053378D01*
X0192600Y0052180D02*
X0240685Y0052180D01*
X0241009Y0052314D02*
X0239917Y0051862D01*
X0239081Y0051026D01*
X0238628Y0049934D01*
X0238628Y0048751D01*
X0239081Y0047659D01*
X0239917Y0046823D01*
X0241009Y0046371D01*
X0242191Y0046371D01*
X0243283Y0046823D01*
X0244119Y0047659D01*
X0244572Y0048751D01*
X0244572Y0049934D01*
X0244119Y0051026D01*
X0243283Y0051862D01*
X0242191Y0052314D01*
X0241009Y0052314D01*
X0242515Y0052180D02*
X0255713Y0052180D01*
X0255713Y0050981D02*
X0244138Y0050981D01*
X0244572Y0049783D02*
X0255713Y0049783D01*
X0255713Y0048584D02*
X0244502Y0048584D01*
X0243846Y0047386D02*
X0255713Y0047386D01*
X0255713Y0046187D02*
X0232572Y0046187D01*
X0232572Y0046434D02*
X0232119Y0047526D01*
X0231283Y0048362D01*
X0230191Y0048814D01*
X0229009Y0048814D01*
X0227917Y0048362D01*
X0227081Y0047526D01*
X0226628Y0046434D01*
X0226628Y0045251D01*
X0227081Y0044159D01*
X0227917Y0043323D01*
X0229009Y0042871D01*
X0230191Y0042871D01*
X0231283Y0043323D01*
X0232119Y0044159D01*
X0232572Y0045251D01*
X0232572Y0046434D01*
X0232177Y0047386D02*
X0239354Y0047386D01*
X0238697Y0048584D02*
X0230746Y0048584D01*
X0228454Y0048584D02*
X0192600Y0048584D01*
X0192600Y0047386D02*
X0227023Y0047386D01*
X0226628Y0046187D02*
X0192600Y0046187D01*
X0192600Y0044989D02*
X0226737Y0044989D01*
X0227450Y0043790D02*
X0193652Y0043790D01*
X0192600Y0049783D02*
X0238628Y0049783D01*
X0239062Y0050981D02*
X0192600Y0050981D01*
X0192600Y0054577D02*
X0225908Y0054577D01*
X0225628Y0055775D02*
X0192600Y0055775D01*
X0192600Y0056974D02*
X0225852Y0056974D01*
X0226727Y0058173D02*
X0192600Y0058173D01*
X0204033Y0062967D02*
X0248849Y0062967D01*
X0249720Y0064165D02*
X0204375Y0064165D01*
X0204180Y0065364D02*
X0255713Y0065364D01*
X0255713Y0066562D02*
X0252653Y0066562D01*
X0254161Y0067761D02*
X0255713Y0067761D01*
X0255713Y0068959D02*
X0254572Y0068959D01*
X0254479Y0070158D02*
X0255713Y0070158D01*
X0255713Y0071356D02*
X0253789Y0071356D01*
X0255713Y0072555D02*
X0241808Y0072555D01*
X0241875Y0072394D02*
X0241452Y0073414D01*
X0240672Y0074195D01*
X0239652Y0074617D01*
X0238548Y0074617D01*
X0237528Y0074195D01*
X0236748Y0073414D01*
X0236325Y0072394D01*
X0236325Y0071291D01*
X0236748Y0070271D01*
X0237528Y0069490D01*
X0238548Y0069068D01*
X0239652Y0069068D01*
X0240672Y0069490D01*
X0241452Y0070271D01*
X0241875Y0071291D01*
X0241875Y0072394D01*
X0241875Y0071356D02*
X0249411Y0071356D01*
X0248721Y0070158D02*
X0241339Y0070158D01*
X0236861Y0070158D02*
X0226339Y0070158D01*
X0226875Y0071356D02*
X0236325Y0071356D01*
X0236392Y0072555D02*
X0226808Y0072555D01*
X0226113Y0073753D02*
X0237087Y0073753D01*
X0241113Y0073753D02*
X0255713Y0073753D01*
X0255713Y0074952D02*
X0227633Y0074952D01*
X0228317Y0076150D02*
X0255713Y0076150D01*
X0255713Y0077349D02*
X0228375Y0077349D01*
X0227819Y0078547D02*
X0255713Y0078547D01*
X0250547Y0066562D02*
X0203305Y0066562D01*
X0184361Y0070158D02*
X0181787Y0070158D01*
X0181787Y0071356D02*
X0183825Y0071356D01*
X0183892Y0072555D02*
X0181787Y0072555D01*
X0181787Y0073753D02*
X0184587Y0073753D01*
X0167100Y0079342D02*
X0165600Y0077342D01*
X0160600Y0072342D01*
X0207506Y0086937D02*
X0213600Y0086937D01*
X0212469Y0085738D02*
X0208704Y0085738D01*
X0231558Y0096525D02*
X0255713Y0096525D01*
X0255713Y0097723D02*
X0231875Y0097723D01*
X0231656Y0098922D02*
X0255713Y0098922D01*
X0255713Y0100120D02*
X0230746Y0100120D01*
X0253480Y0064165D02*
X0255713Y0064165D01*
X0255713Y0062967D02*
X0254351Y0062967D01*
X0254572Y0061768D02*
X0255713Y0061768D01*
X0255713Y0060570D02*
X0254289Y0060570D01*
X0255713Y0044989D02*
X0232463Y0044989D01*
X0231750Y0043790D02*
X0255713Y0043790D01*
X0255713Y0042592D02*
X0217851Y0042592D01*
X0138604Y0104914D02*
X0136866Y0104914D01*
X0136254Y0106113D02*
X0137899Y0106113D01*
X0112737Y0131282D02*
X0004487Y0131282D01*
X0004487Y0132480D02*
X0111954Y0132480D01*
X0094473Y0143267D02*
X0093727Y0143267D01*
X0040100Y0143267D02*
X0019227Y0143267D01*
X0019119Y0143526D02*
X0018283Y0144362D01*
X0017191Y0144814D01*
X0016009Y0144814D01*
X0014917Y0144362D01*
X0014081Y0143526D01*
X0013628Y0142434D01*
X0013628Y0141251D01*
X0014081Y0140159D01*
X0014917Y0139323D01*
X0016009Y0138871D01*
X0017191Y0138871D01*
X0018283Y0139323D01*
X0019119Y0140159D01*
X0019572Y0141251D01*
X0019572Y0142434D01*
X0019119Y0143526D01*
X0018033Y0144465D02*
X0040100Y0144465D01*
X0040100Y0145664D02*
X0012883Y0145664D01*
X0011685Y0144465D02*
X0015167Y0144465D01*
X0013973Y0143267D02*
X0010486Y0143267D01*
X0009288Y0142068D02*
X0013628Y0142068D01*
X0013786Y0140870D02*
X0008089Y0140870D01*
X0006891Y0139671D02*
X0014569Y0139671D01*
X0018631Y0139671D02*
X0040100Y0139671D01*
X0040100Y0138473D02*
X0005692Y0138473D01*
X0004494Y0137274D02*
X0040100Y0137274D01*
X0040100Y0136076D02*
X0004487Y0136076D01*
X0004487Y0134877D02*
X0040100Y0134877D01*
X0040100Y0133679D02*
X0004487Y0133679D01*
X0019414Y0140870D02*
X0040100Y0140870D01*
X0040100Y0142068D02*
X0019572Y0142068D01*
X0014082Y0146862D02*
X0040100Y0146862D01*
X0040100Y0148061D02*
X0015280Y0148061D01*
X0026393Y0028210D02*
X0030506Y0028210D01*
X0029578Y0027011D02*
X0027416Y0027011D01*
X0027913Y0025813D02*
X0029128Y0025813D01*
D17*
X0071100Y0048842D02*
X0096600Y0023342D01*
X0104100Y0023342D01*
X0133100Y0034342D02*
X0142100Y0034342D01*
X0157600Y0049842D01*
X0157600Y0058842D01*
X0071100Y0059342D02*
X0071100Y0048842D01*
D18*
X0238100Y0018842D02*
X0251100Y0018842D01*
D19*
X0113600Y0017842D02*
X0108100Y0012342D01*
X0082600Y0012342D01*
X0080100Y0009842D01*
D20*
X0162600Y0013842D03*
D21*
X0124100Y0074342D03*
M02*
