G75*
%MOIN*%
%OFA0B0*%
%FSLAX25Y25*%
%IPPOS*%
%LPD*%
%AMOC8*
5,1,8,0,0,1.08239X$1,22.5*
%
%ADD10C,0.00000*%
%ADD11C,0.00800*%
%ADD12R,0.10400X0.05400*%
%ADD13R,0.05518X0.06306*%
%ADD14R,0.04731X0.04337*%
%ADD15R,0.06699X0.11030*%
%ADD16R,0.06699X0.07487*%
%ADD17R,0.04337X0.04731*%
%ADD18R,0.06699X0.03550*%
%ADD19R,0.05000X0.06700*%
%ADD20R,0.06700X0.05000*%
%ADD21R,0.07200X0.00600*%
%ADD22R,0.05400X0.10400*%
%ADD23R,0.03937X0.02362*%
%ADD24R,0.26778X0.26778*%
%ADD25R,0.04429X0.02756*%
%ADD26R,0.04429X0.01575*%
%ADD27R,0.02756X0.04429*%
%ADD28R,0.04337X0.02762*%
%ADD29R,0.04337X0.01581*%
%ADD30R,0.02762X0.04337*%
%ADD31R,0.01581X0.04337*%
%ADD32R,0.01975X0.04534*%
%ADD33R,0.06699X0.01581*%
%ADD34R,0.05124X0.02565*%
%ADD35C,0.06337*%
%ADD36R,0.05518X0.04731*%
%ADD37C,0.22054*%
%ADD38C,0.03175*%
%ADD39C,0.03962*%
D10*
X0003100Y0006600D02*
X0008100Y0001600D01*
X0226100Y0001600D01*
X0230100Y0005600D01*
X0234100Y0005600D01*
X0238100Y0001600D01*
X0239600Y0001600D01*
X0243600Y0005600D01*
X0247100Y0005600D01*
X0251100Y0001600D01*
X0252100Y0001600D01*
X0257100Y0006600D01*
X0257100Y0106600D01*
X0237600Y0126100D01*
X0237600Y0147600D01*
X0235100Y0150100D01*
X0015600Y0150100D01*
X0003100Y0137600D01*
X0003100Y0006600D01*
D11*
X0189900Y0006391D02*
X0211200Y0006391D01*
X0211200Y0005593D02*
X0189900Y0005593D01*
X0189900Y0004900D02*
X0189900Y0012300D01*
X0211200Y0012300D01*
X0211200Y0004900D01*
X0189900Y0004900D01*
X0189900Y0007190D02*
X0211200Y0007190D01*
X0211200Y0007988D02*
X0189900Y0007988D01*
X0189900Y0008787D02*
X0211200Y0008787D01*
X0211200Y0009585D02*
X0189900Y0009585D01*
X0189900Y0010384D02*
X0211200Y0010384D01*
X0211200Y0011182D02*
X0189900Y0011182D01*
X0189900Y0011981D02*
X0211200Y0011981D01*
D12*
X0251100Y0039100D03*
X0251100Y0049100D03*
X0251100Y0076600D03*
X0251100Y0084100D03*
X0251100Y0091600D03*
X0251100Y0101600D03*
X0231100Y0129100D03*
X0231100Y0136600D03*
X0231100Y0144100D03*
X0009100Y0131600D03*
X0009100Y0119100D03*
X0009100Y0049100D03*
D13*
X0095360Y0129100D03*
X0102840Y0129100D03*
X0035340Y0141600D03*
X0027860Y0141600D03*
X0199860Y0128100D03*
X0207340Y0128100D03*
X0227860Y0026100D03*
X0235340Y0026100D03*
D14*
X0157100Y0113254D03*
X0157100Y0119946D03*
X0182754Y0121600D03*
X0189446Y0121600D03*
X0051600Y0047446D03*
X0051600Y0040754D03*
D15*
X0200588Y0116100D03*
X0211612Y0116100D03*
D16*
X0211612Y0103600D03*
X0200588Y0103600D03*
D17*
X0222754Y0103600D03*
X0229446Y0103600D03*
X0174446Y0111600D03*
X0167754Y0111600D03*
X0167754Y0121600D03*
X0174446Y0121600D03*
X0102446Y0137100D03*
X0095754Y0137100D03*
X0084100Y0138254D03*
X0084100Y0144946D03*
X0084100Y0129946D03*
X0084100Y0123254D03*
X0054100Y0123254D03*
X0054100Y0129946D03*
X0054100Y0137754D03*
X0054100Y0144446D03*
X0033946Y0131600D03*
X0027254Y0131600D03*
X0054254Y0058600D03*
X0060946Y0058600D03*
X0043600Y0047446D03*
X0043600Y0040754D03*
X0061754Y0043100D03*
X0068446Y0043100D03*
X0233254Y0039100D03*
X0239946Y0039100D03*
D18*
X0007600Y0061600D03*
X0007600Y0066600D03*
X0007600Y0071600D03*
X0007600Y0076600D03*
X0007600Y0081600D03*
X0007600Y0086600D03*
X0007600Y0091600D03*
X0007600Y0096600D03*
X0007600Y0101600D03*
D19*
X0117600Y0142100D03*
X0123600Y0142100D03*
X0129600Y0142100D03*
X0130600Y0009100D03*
X0136600Y0009100D03*
X0142600Y0009100D03*
X0117600Y0009100D03*
X0111600Y0009100D03*
X0105600Y0009100D03*
D20*
X0091600Y0008600D03*
X0091600Y0014600D03*
X0091600Y0020600D03*
X0251100Y0023600D03*
X0251100Y0029600D03*
D21*
X0251100Y0026600D03*
D22*
G36*
X0255686Y0006833D02*
X0251867Y0003014D01*
X0244514Y0010367D01*
X0248333Y0014186D01*
X0255686Y0006833D01*
G37*
G36*
X0242686Y0006833D02*
X0238867Y0003014D01*
X0231514Y0010367D01*
X0235333Y0014186D01*
X0242686Y0006833D01*
G37*
G36*
X0229686Y0006833D02*
X0225867Y0003014D01*
X0218514Y0010367D01*
X0222333Y0014186D01*
X0229686Y0006833D01*
G37*
G36*
X0246686Y0110833D02*
X0242867Y0107014D01*
X0235514Y0114367D01*
X0239333Y0118186D01*
X0246686Y0110833D01*
G37*
G36*
X0249186Y0113333D02*
X0245367Y0109514D01*
X0238014Y0116867D01*
X0241833Y0120686D01*
X0249186Y0113333D01*
G37*
D23*
X0201250Y0136376D03*
X0201250Y0139525D03*
X0201250Y0142675D03*
X0201250Y0145824D03*
X0194950Y0145824D03*
X0194950Y0142675D03*
X0194950Y0139525D03*
X0194950Y0136376D03*
X0233450Y0065824D03*
X0233450Y0062675D03*
X0233450Y0059525D03*
X0233450Y0056376D03*
X0239750Y0056376D03*
X0239750Y0059525D03*
X0239750Y0062675D03*
X0239750Y0065824D03*
X0037250Y0065025D03*
X0037250Y0061876D03*
X0030950Y0061876D03*
X0030950Y0065025D03*
X0030950Y0068175D03*
X0030950Y0071324D03*
X0037250Y0071324D03*
X0037250Y0068175D03*
X0037250Y0079376D03*
X0037250Y0082525D03*
X0037250Y0085675D03*
X0037250Y0088824D03*
X0030950Y0088824D03*
X0030950Y0085675D03*
X0030950Y0082525D03*
X0030950Y0079376D03*
X0030950Y0096876D03*
X0030950Y0100025D03*
X0030950Y0103175D03*
X0030950Y0106324D03*
X0037250Y0106324D03*
X0037250Y0103175D03*
X0037250Y0100025D03*
X0037250Y0096876D03*
D24*
G36*
X0143034Y0074100D02*
X0124100Y0055166D01*
X0105166Y0074100D01*
X0124100Y0093034D01*
X0143034Y0074100D01*
G37*
D25*
G36*
X0181377Y0079876D02*
X0178247Y0076746D01*
X0176299Y0078694D01*
X0179429Y0081824D01*
X0181377Y0079876D01*
G37*
G36*
X0131824Y0129429D02*
X0128694Y0126299D01*
X0126746Y0128247D01*
X0129876Y0131377D01*
X0131824Y0129429D01*
G37*
G36*
X0071901Y0069506D02*
X0068771Y0066376D01*
X0066823Y0068324D01*
X0069953Y0071454D01*
X0071901Y0069506D01*
G37*
G36*
X0121454Y0019953D02*
X0118324Y0016823D01*
X0116376Y0018771D01*
X0119506Y0021901D01*
X0121454Y0019953D01*
G37*
D26*
G36*
X0119227Y0022180D02*
X0116096Y0019049D01*
X0114983Y0020162D01*
X0118114Y0023293D01*
X0119227Y0022180D01*
G37*
G36*
X0117836Y0023572D02*
X0114705Y0020441D01*
X0113592Y0021554D01*
X0116723Y0024685D01*
X0117836Y0023572D01*
G37*
G36*
X0116444Y0024964D02*
X0113313Y0021833D01*
X0112200Y0022946D01*
X0115331Y0026077D01*
X0116444Y0024964D01*
G37*
G36*
X0115052Y0026356D02*
X0111921Y0023225D01*
X0110808Y0024338D01*
X0113939Y0027469D01*
X0115052Y0026356D01*
G37*
G36*
X0113660Y0027748D02*
X0110529Y0024617D01*
X0109416Y0025730D01*
X0112547Y0028861D01*
X0113660Y0027748D01*
G37*
G36*
X0112268Y0029140D02*
X0109137Y0026009D01*
X0108024Y0027122D01*
X0111155Y0030253D01*
X0112268Y0029140D01*
G37*
G36*
X0110876Y0030532D02*
X0107745Y0027401D01*
X0106632Y0028514D01*
X0109763Y0031645D01*
X0110876Y0030532D01*
G37*
G36*
X0109484Y0031924D02*
X0106353Y0028793D01*
X0105240Y0029906D01*
X0108371Y0033037D01*
X0109484Y0031924D01*
G37*
G36*
X0108092Y0033316D02*
X0104961Y0030185D01*
X0103848Y0031298D01*
X0106979Y0034429D01*
X0108092Y0033316D01*
G37*
G36*
X0106700Y0034708D02*
X0103569Y0031577D01*
X0102456Y0032690D01*
X0105587Y0035821D01*
X0106700Y0034708D01*
G37*
G36*
X0105308Y0036100D02*
X0102177Y0032969D01*
X0101064Y0034082D01*
X0104195Y0037213D01*
X0105308Y0036100D01*
G37*
G36*
X0103916Y0037492D02*
X0100785Y0034361D01*
X0099672Y0035474D01*
X0102803Y0038605D01*
X0103916Y0037492D01*
G37*
G36*
X0102524Y0038884D02*
X0099393Y0035753D01*
X0098280Y0036866D01*
X0101411Y0039997D01*
X0102524Y0038884D01*
G37*
G36*
X0101132Y0040276D02*
X0098001Y0037145D01*
X0096888Y0038258D01*
X0100019Y0041389D01*
X0101132Y0040276D01*
G37*
G36*
X0099740Y0041668D02*
X0096609Y0038537D01*
X0095496Y0039650D01*
X0098627Y0042781D01*
X0099740Y0041668D01*
G37*
G36*
X0098348Y0043060D02*
X0095217Y0039929D01*
X0094104Y0041042D01*
X0097235Y0044173D01*
X0098348Y0043060D01*
G37*
G36*
X0096956Y0044451D02*
X0093825Y0041320D01*
X0092712Y0042433D01*
X0095843Y0045564D01*
X0096956Y0044451D01*
G37*
G36*
X0095564Y0045843D02*
X0092433Y0042712D01*
X0091320Y0043825D01*
X0094451Y0046956D01*
X0095564Y0045843D01*
G37*
G36*
X0094173Y0047235D02*
X0091042Y0044104D01*
X0089929Y0045217D01*
X0093060Y0048348D01*
X0094173Y0047235D01*
G37*
G36*
X0092781Y0048627D02*
X0089650Y0045496D01*
X0088537Y0046609D01*
X0091668Y0049740D01*
X0092781Y0048627D01*
G37*
G36*
X0091389Y0050019D02*
X0088258Y0046888D01*
X0087145Y0048001D01*
X0090276Y0051132D01*
X0091389Y0050019D01*
G37*
G36*
X0089997Y0051411D02*
X0086866Y0048280D01*
X0085753Y0049393D01*
X0088884Y0052524D01*
X0089997Y0051411D01*
G37*
G36*
X0088605Y0052803D02*
X0085474Y0049672D01*
X0084361Y0050785D01*
X0087492Y0053916D01*
X0088605Y0052803D01*
G37*
G36*
X0087213Y0054195D02*
X0084082Y0051064D01*
X0082969Y0052177D01*
X0086100Y0055308D01*
X0087213Y0054195D01*
G37*
G36*
X0085821Y0055587D02*
X0082690Y0052456D01*
X0081577Y0053569D01*
X0084708Y0056700D01*
X0085821Y0055587D01*
G37*
G36*
X0084429Y0056979D02*
X0081298Y0053848D01*
X0080185Y0054961D01*
X0083316Y0058092D01*
X0084429Y0056979D01*
G37*
G36*
X0083037Y0058371D02*
X0079906Y0055240D01*
X0078793Y0056353D01*
X0081924Y0059484D01*
X0083037Y0058371D01*
G37*
G36*
X0081645Y0059763D02*
X0078514Y0056632D01*
X0077401Y0057745D01*
X0080532Y0060876D01*
X0081645Y0059763D01*
G37*
G36*
X0080253Y0061155D02*
X0077122Y0058024D01*
X0076009Y0059137D01*
X0079140Y0062268D01*
X0080253Y0061155D01*
G37*
G36*
X0078861Y0062547D02*
X0075730Y0059416D01*
X0074617Y0060529D01*
X0077748Y0063660D01*
X0078861Y0062547D01*
G37*
G36*
X0077469Y0063939D02*
X0074338Y0060808D01*
X0073225Y0061921D01*
X0076356Y0065052D01*
X0077469Y0063939D01*
G37*
G36*
X0076077Y0065331D02*
X0072946Y0062200D01*
X0071833Y0063313D01*
X0074964Y0066444D01*
X0076077Y0065331D01*
G37*
G36*
X0074685Y0066723D02*
X0071554Y0063592D01*
X0070441Y0064705D01*
X0073572Y0067836D01*
X0074685Y0066723D01*
G37*
G36*
X0073293Y0068114D02*
X0070162Y0064983D01*
X0069049Y0066096D01*
X0072180Y0069227D01*
X0073293Y0068114D01*
G37*
G36*
X0072180Y0078973D02*
X0069049Y0082104D01*
X0070162Y0083217D01*
X0073293Y0080086D01*
X0072180Y0078973D01*
G37*
G36*
X0073572Y0080364D02*
X0070441Y0083495D01*
X0071554Y0084608D01*
X0074685Y0081477D01*
X0073572Y0080364D01*
G37*
G36*
X0074964Y0081756D02*
X0071833Y0084887D01*
X0072946Y0086000D01*
X0076077Y0082869D01*
X0074964Y0081756D01*
G37*
G36*
X0076356Y0083148D02*
X0073225Y0086279D01*
X0074338Y0087392D01*
X0077469Y0084261D01*
X0076356Y0083148D01*
G37*
G36*
X0077748Y0084540D02*
X0074617Y0087671D01*
X0075730Y0088784D01*
X0078861Y0085653D01*
X0077748Y0084540D01*
G37*
G36*
X0079140Y0085932D02*
X0076009Y0089063D01*
X0077122Y0090176D01*
X0080253Y0087045D01*
X0079140Y0085932D01*
G37*
G36*
X0080532Y0087324D02*
X0077401Y0090455D01*
X0078514Y0091568D01*
X0081645Y0088437D01*
X0080532Y0087324D01*
G37*
G36*
X0081924Y0088716D02*
X0078793Y0091847D01*
X0079906Y0092960D01*
X0083037Y0089829D01*
X0081924Y0088716D01*
G37*
G36*
X0083316Y0090108D02*
X0080185Y0093239D01*
X0081298Y0094352D01*
X0084429Y0091221D01*
X0083316Y0090108D01*
G37*
G36*
X0084708Y0091500D02*
X0081577Y0094631D01*
X0082690Y0095744D01*
X0085821Y0092613D01*
X0084708Y0091500D01*
G37*
G36*
X0086100Y0092892D02*
X0082969Y0096023D01*
X0084082Y0097136D01*
X0087213Y0094005D01*
X0086100Y0092892D01*
G37*
G36*
X0087492Y0094284D02*
X0084361Y0097415D01*
X0085474Y0098528D01*
X0088605Y0095397D01*
X0087492Y0094284D01*
G37*
G36*
X0088884Y0095676D02*
X0085753Y0098807D01*
X0086866Y0099920D01*
X0089997Y0096789D01*
X0088884Y0095676D01*
G37*
G36*
X0090276Y0097068D02*
X0087145Y0100199D01*
X0088258Y0101312D01*
X0091389Y0098181D01*
X0090276Y0097068D01*
G37*
G36*
X0091668Y0098460D02*
X0088537Y0101591D01*
X0089650Y0102704D01*
X0092781Y0099573D01*
X0091668Y0098460D01*
G37*
G36*
X0093060Y0099852D02*
X0089929Y0102983D01*
X0091042Y0104096D01*
X0094173Y0100965D01*
X0093060Y0099852D01*
G37*
G36*
X0094451Y0101244D02*
X0091320Y0104375D01*
X0092433Y0105488D01*
X0095564Y0102357D01*
X0094451Y0101244D01*
G37*
G36*
X0095843Y0102636D02*
X0092712Y0105767D01*
X0093825Y0106880D01*
X0096956Y0103749D01*
X0095843Y0102636D01*
G37*
G36*
X0097235Y0104027D02*
X0094104Y0107158D01*
X0095217Y0108271D01*
X0098348Y0105140D01*
X0097235Y0104027D01*
G37*
G36*
X0098627Y0105419D02*
X0095496Y0108550D01*
X0096609Y0109663D01*
X0099740Y0106532D01*
X0098627Y0105419D01*
G37*
G36*
X0100019Y0106811D02*
X0096888Y0109942D01*
X0098001Y0111055D01*
X0101132Y0107924D01*
X0100019Y0106811D01*
G37*
G36*
X0101411Y0108203D02*
X0098280Y0111334D01*
X0099393Y0112447D01*
X0102524Y0109316D01*
X0101411Y0108203D01*
G37*
G36*
X0102803Y0109595D02*
X0099672Y0112726D01*
X0100785Y0113839D01*
X0103916Y0110708D01*
X0102803Y0109595D01*
G37*
G36*
X0104195Y0110987D02*
X0101064Y0114118D01*
X0102177Y0115231D01*
X0105308Y0112100D01*
X0104195Y0110987D01*
G37*
G36*
X0105587Y0112379D02*
X0102456Y0115510D01*
X0103569Y0116623D01*
X0106700Y0113492D01*
X0105587Y0112379D01*
G37*
G36*
X0106979Y0113771D02*
X0103848Y0116902D01*
X0104961Y0118015D01*
X0108092Y0114884D01*
X0106979Y0113771D01*
G37*
G36*
X0108371Y0115163D02*
X0105240Y0118294D01*
X0106353Y0119407D01*
X0109484Y0116276D01*
X0108371Y0115163D01*
G37*
G36*
X0109763Y0116555D02*
X0106632Y0119686D01*
X0107745Y0120799D01*
X0110876Y0117668D01*
X0109763Y0116555D01*
G37*
G36*
X0111155Y0117947D02*
X0108024Y0121078D01*
X0109137Y0122191D01*
X0112268Y0119060D01*
X0111155Y0117947D01*
G37*
G36*
X0112547Y0119339D02*
X0109416Y0122470D01*
X0110529Y0123583D01*
X0113660Y0120452D01*
X0112547Y0119339D01*
G37*
G36*
X0113939Y0120731D02*
X0110808Y0123862D01*
X0111921Y0124975D01*
X0115052Y0121844D01*
X0113939Y0120731D01*
G37*
G36*
X0115331Y0122123D02*
X0112200Y0125254D01*
X0113313Y0126367D01*
X0116444Y0123236D01*
X0115331Y0122123D01*
G37*
G36*
X0116723Y0123515D02*
X0113592Y0126646D01*
X0114705Y0127759D01*
X0117836Y0124628D01*
X0116723Y0123515D01*
G37*
G36*
X0118114Y0124907D02*
X0114983Y0128038D01*
X0116096Y0129151D01*
X0119227Y0126020D01*
X0118114Y0124907D01*
G37*
G36*
X0128973Y0126020D02*
X0132104Y0129151D01*
X0133217Y0128038D01*
X0130086Y0124907D01*
X0128973Y0126020D01*
G37*
G36*
X0130364Y0124628D02*
X0133495Y0127759D01*
X0134608Y0126646D01*
X0131477Y0123515D01*
X0130364Y0124628D01*
G37*
G36*
X0131756Y0123236D02*
X0134887Y0126367D01*
X0136000Y0125254D01*
X0132869Y0122123D01*
X0131756Y0123236D01*
G37*
G36*
X0133148Y0121844D02*
X0136279Y0124975D01*
X0137392Y0123862D01*
X0134261Y0120731D01*
X0133148Y0121844D01*
G37*
G36*
X0134540Y0120452D02*
X0137671Y0123583D01*
X0138784Y0122470D01*
X0135653Y0119339D01*
X0134540Y0120452D01*
G37*
G36*
X0135932Y0119060D02*
X0139063Y0122191D01*
X0140176Y0121078D01*
X0137045Y0117947D01*
X0135932Y0119060D01*
G37*
G36*
X0137324Y0117668D02*
X0140455Y0120799D01*
X0141568Y0119686D01*
X0138437Y0116555D01*
X0137324Y0117668D01*
G37*
G36*
X0138716Y0116276D02*
X0141847Y0119407D01*
X0142960Y0118294D01*
X0139829Y0115163D01*
X0138716Y0116276D01*
G37*
G36*
X0140108Y0114884D02*
X0143239Y0118015D01*
X0144352Y0116902D01*
X0141221Y0113771D01*
X0140108Y0114884D01*
G37*
G36*
X0141500Y0113492D02*
X0144631Y0116623D01*
X0145744Y0115510D01*
X0142613Y0112379D01*
X0141500Y0113492D01*
G37*
G36*
X0142892Y0112100D02*
X0146023Y0115231D01*
X0147136Y0114118D01*
X0144005Y0110987D01*
X0142892Y0112100D01*
G37*
G36*
X0144284Y0110708D02*
X0147415Y0113839D01*
X0148528Y0112726D01*
X0145397Y0109595D01*
X0144284Y0110708D01*
G37*
G36*
X0145676Y0109316D02*
X0148807Y0112447D01*
X0149920Y0111334D01*
X0146789Y0108203D01*
X0145676Y0109316D01*
G37*
G36*
X0147068Y0107924D02*
X0150199Y0111055D01*
X0151312Y0109942D01*
X0148181Y0106811D01*
X0147068Y0107924D01*
G37*
G36*
X0148460Y0106532D02*
X0151591Y0109663D01*
X0152704Y0108550D01*
X0149573Y0105419D01*
X0148460Y0106532D01*
G37*
G36*
X0149852Y0105140D02*
X0152983Y0108271D01*
X0154096Y0107158D01*
X0150965Y0104027D01*
X0149852Y0105140D01*
G37*
G36*
X0151244Y0103749D02*
X0154375Y0106880D01*
X0155488Y0105767D01*
X0152357Y0102636D01*
X0151244Y0103749D01*
G37*
G36*
X0152636Y0102357D02*
X0155767Y0105488D01*
X0156880Y0104375D01*
X0153749Y0101244D01*
X0152636Y0102357D01*
G37*
G36*
X0154027Y0100965D02*
X0157158Y0104096D01*
X0158271Y0102983D01*
X0155140Y0099852D01*
X0154027Y0100965D01*
G37*
G36*
X0155419Y0099573D02*
X0158550Y0102704D01*
X0159663Y0101591D01*
X0156532Y0098460D01*
X0155419Y0099573D01*
G37*
G36*
X0156811Y0098181D02*
X0159942Y0101312D01*
X0161055Y0100199D01*
X0157924Y0097068D01*
X0156811Y0098181D01*
G37*
G36*
X0158203Y0096789D02*
X0161334Y0099920D01*
X0162447Y0098807D01*
X0159316Y0095676D01*
X0158203Y0096789D01*
G37*
G36*
X0159595Y0095397D02*
X0162726Y0098528D01*
X0163839Y0097415D01*
X0160708Y0094284D01*
X0159595Y0095397D01*
G37*
G36*
X0160987Y0094005D02*
X0164118Y0097136D01*
X0165231Y0096023D01*
X0162100Y0092892D01*
X0160987Y0094005D01*
G37*
G36*
X0162379Y0092613D02*
X0165510Y0095744D01*
X0166623Y0094631D01*
X0163492Y0091500D01*
X0162379Y0092613D01*
G37*
G36*
X0163771Y0091221D02*
X0166902Y0094352D01*
X0168015Y0093239D01*
X0164884Y0090108D01*
X0163771Y0091221D01*
G37*
G36*
X0165163Y0089829D02*
X0168294Y0092960D01*
X0169407Y0091847D01*
X0166276Y0088716D01*
X0165163Y0089829D01*
G37*
G36*
X0166555Y0088437D02*
X0169686Y0091568D01*
X0170799Y0090455D01*
X0167668Y0087324D01*
X0166555Y0088437D01*
G37*
G36*
X0167947Y0087045D02*
X0171078Y0090176D01*
X0172191Y0089063D01*
X0169060Y0085932D01*
X0167947Y0087045D01*
G37*
G36*
X0169339Y0085653D02*
X0172470Y0088784D01*
X0173583Y0087671D01*
X0170452Y0084540D01*
X0169339Y0085653D01*
G37*
G36*
X0170731Y0084261D02*
X0173862Y0087392D01*
X0174975Y0086279D01*
X0171844Y0083148D01*
X0170731Y0084261D01*
G37*
G36*
X0172123Y0082869D02*
X0175254Y0086000D01*
X0176367Y0084887D01*
X0173236Y0081756D01*
X0172123Y0082869D01*
G37*
G36*
X0173515Y0081477D02*
X0176646Y0084608D01*
X0177759Y0083495D01*
X0174628Y0080364D01*
X0173515Y0081477D01*
G37*
G36*
X0174907Y0080086D02*
X0178038Y0083217D01*
X0179151Y0082104D01*
X0176020Y0078973D01*
X0174907Y0080086D01*
G37*
G36*
X0176020Y0069227D02*
X0179151Y0066096D01*
X0178038Y0064983D01*
X0174907Y0068114D01*
X0176020Y0069227D01*
G37*
G36*
X0174628Y0067836D02*
X0177759Y0064705D01*
X0176646Y0063592D01*
X0173515Y0066723D01*
X0174628Y0067836D01*
G37*
G36*
X0173236Y0066444D02*
X0176367Y0063313D01*
X0175254Y0062200D01*
X0172123Y0065331D01*
X0173236Y0066444D01*
G37*
G36*
X0171844Y0065052D02*
X0174975Y0061921D01*
X0173862Y0060808D01*
X0170731Y0063939D01*
X0171844Y0065052D01*
G37*
G36*
X0170452Y0063660D02*
X0173583Y0060529D01*
X0172470Y0059416D01*
X0169339Y0062547D01*
X0170452Y0063660D01*
G37*
G36*
X0169060Y0062268D02*
X0172191Y0059137D01*
X0171078Y0058024D01*
X0167947Y0061155D01*
X0169060Y0062268D01*
G37*
G36*
X0167668Y0060876D02*
X0170799Y0057745D01*
X0169686Y0056632D01*
X0166555Y0059763D01*
X0167668Y0060876D01*
G37*
G36*
X0166276Y0059484D02*
X0169407Y0056353D01*
X0168294Y0055240D01*
X0165163Y0058371D01*
X0166276Y0059484D01*
G37*
G36*
X0164884Y0058092D02*
X0168015Y0054961D01*
X0166902Y0053848D01*
X0163771Y0056979D01*
X0164884Y0058092D01*
G37*
G36*
X0163492Y0056700D02*
X0166623Y0053569D01*
X0165510Y0052456D01*
X0162379Y0055587D01*
X0163492Y0056700D01*
G37*
G36*
X0162100Y0055308D02*
X0165231Y0052177D01*
X0164118Y0051064D01*
X0160987Y0054195D01*
X0162100Y0055308D01*
G37*
G36*
X0160708Y0053916D02*
X0163839Y0050785D01*
X0162726Y0049672D01*
X0159595Y0052803D01*
X0160708Y0053916D01*
G37*
G36*
X0159316Y0052524D02*
X0162447Y0049393D01*
X0161334Y0048280D01*
X0158203Y0051411D01*
X0159316Y0052524D01*
G37*
G36*
X0157924Y0051132D02*
X0161055Y0048001D01*
X0159942Y0046888D01*
X0156811Y0050019D01*
X0157924Y0051132D01*
G37*
G36*
X0156532Y0049740D02*
X0159663Y0046609D01*
X0158550Y0045496D01*
X0155419Y0048627D01*
X0156532Y0049740D01*
G37*
G36*
X0155140Y0048348D02*
X0158271Y0045217D01*
X0157158Y0044104D01*
X0154027Y0047235D01*
X0155140Y0048348D01*
G37*
G36*
X0153749Y0046956D02*
X0156880Y0043825D01*
X0155767Y0042712D01*
X0152636Y0045843D01*
X0153749Y0046956D01*
G37*
G36*
X0152357Y0045564D02*
X0155488Y0042433D01*
X0154375Y0041320D01*
X0151244Y0044451D01*
X0152357Y0045564D01*
G37*
G36*
X0150965Y0044173D02*
X0154096Y0041042D01*
X0152983Y0039929D01*
X0149852Y0043060D01*
X0150965Y0044173D01*
G37*
G36*
X0149573Y0042781D02*
X0152704Y0039650D01*
X0151591Y0038537D01*
X0148460Y0041668D01*
X0149573Y0042781D01*
G37*
G36*
X0148181Y0041389D02*
X0151312Y0038258D01*
X0150199Y0037145D01*
X0147068Y0040276D01*
X0148181Y0041389D01*
G37*
G36*
X0146789Y0039997D02*
X0149920Y0036866D01*
X0148807Y0035753D01*
X0145676Y0038884D01*
X0146789Y0039997D01*
G37*
G36*
X0145397Y0038605D02*
X0148528Y0035474D01*
X0147415Y0034361D01*
X0144284Y0037492D01*
X0145397Y0038605D01*
G37*
G36*
X0144005Y0037213D02*
X0147136Y0034082D01*
X0146023Y0032969D01*
X0142892Y0036100D01*
X0144005Y0037213D01*
G37*
G36*
X0142613Y0035821D02*
X0145744Y0032690D01*
X0144631Y0031577D01*
X0141500Y0034708D01*
X0142613Y0035821D01*
G37*
G36*
X0141221Y0034429D02*
X0144352Y0031298D01*
X0143239Y0030185D01*
X0140108Y0033316D01*
X0141221Y0034429D01*
G37*
G36*
X0139829Y0033037D02*
X0142960Y0029906D01*
X0141847Y0028793D01*
X0138716Y0031924D01*
X0139829Y0033037D01*
G37*
G36*
X0138437Y0031645D02*
X0141568Y0028514D01*
X0140455Y0027401D01*
X0137324Y0030532D01*
X0138437Y0031645D01*
G37*
G36*
X0137045Y0030253D02*
X0140176Y0027122D01*
X0139063Y0026009D01*
X0135932Y0029140D01*
X0137045Y0030253D01*
G37*
G36*
X0135653Y0028861D02*
X0138784Y0025730D01*
X0137671Y0024617D01*
X0134540Y0027748D01*
X0135653Y0028861D01*
G37*
G36*
X0134261Y0027469D02*
X0137392Y0024338D01*
X0136279Y0023225D01*
X0133148Y0026356D01*
X0134261Y0027469D01*
G37*
G36*
X0132869Y0026077D02*
X0136000Y0022946D01*
X0134887Y0021833D01*
X0131756Y0024964D01*
X0132869Y0026077D01*
G37*
G36*
X0131477Y0024685D02*
X0134608Y0021554D01*
X0133495Y0020441D01*
X0130364Y0023572D01*
X0131477Y0024685D01*
G37*
G36*
X0130086Y0023293D02*
X0133217Y0020162D01*
X0132104Y0019049D01*
X0128973Y0022180D01*
X0130086Y0023293D01*
G37*
D27*
G36*
X0131824Y0018771D02*
X0129876Y0016823D01*
X0126746Y0019953D01*
X0128694Y0021901D01*
X0131824Y0018771D01*
G37*
G36*
X0181377Y0068324D02*
X0179429Y0066376D01*
X0176299Y0069506D01*
X0178247Y0071454D01*
X0181377Y0068324D01*
G37*
G36*
X0121454Y0128247D02*
X0119506Y0126299D01*
X0116376Y0129429D01*
X0118324Y0131377D01*
X0121454Y0128247D01*
G37*
G36*
X0071901Y0078694D02*
X0069953Y0076746D01*
X0066823Y0079876D01*
X0068771Y0081824D01*
X0071901Y0078694D01*
G37*
D28*
X0189368Y0068017D03*
X0222832Y0068017D03*
X0222832Y0045183D03*
X0189368Y0045183D03*
D29*
X0189368Y0047742D03*
X0189368Y0049710D03*
X0189368Y0051679D03*
X0189368Y0053647D03*
X0189368Y0055616D03*
X0189368Y0057584D03*
X0189368Y0059553D03*
X0189368Y0061521D03*
X0189368Y0063490D03*
X0189368Y0065458D03*
X0222832Y0065458D03*
X0222832Y0063490D03*
X0222832Y0061521D03*
X0222832Y0059553D03*
X0222832Y0057584D03*
X0222832Y0055616D03*
X0222832Y0053647D03*
X0222832Y0051679D03*
X0222832Y0049710D03*
X0222832Y0047742D03*
D30*
X0217517Y0039868D03*
X0194683Y0039868D03*
X0194683Y0073332D03*
X0217517Y0073332D03*
D31*
X0214958Y0073332D03*
X0212990Y0073332D03*
X0211021Y0073332D03*
X0209053Y0073332D03*
X0207084Y0073332D03*
X0205116Y0073332D03*
X0203147Y0073332D03*
X0201179Y0073332D03*
X0199210Y0073332D03*
X0197242Y0073332D03*
X0197242Y0039868D03*
X0199210Y0039868D03*
X0201179Y0039868D03*
X0203147Y0039868D03*
X0205116Y0039868D03*
X0207084Y0039868D03*
X0209053Y0039868D03*
X0211021Y0039868D03*
X0212990Y0039868D03*
X0214958Y0039868D03*
D32*
X0188659Y0107958D03*
X0186100Y0107958D03*
X0183541Y0107958D03*
X0183541Y0115242D03*
X0186100Y0115242D03*
X0188659Y0115242D03*
D33*
X0177793Y0135261D03*
X0177793Y0137820D03*
X0177793Y0140380D03*
X0177793Y0142939D03*
X0164407Y0142939D03*
X0164407Y0140380D03*
X0164407Y0137820D03*
X0164407Y0135261D03*
D34*
X0074219Y0137860D03*
X0074219Y0130340D03*
X0063981Y0130340D03*
X0063981Y0126600D03*
X0063981Y0122860D03*
X0074219Y0122860D03*
X0063981Y0137860D03*
X0063981Y0141600D03*
X0063981Y0145340D03*
X0074219Y0145340D03*
D35*
X0063600Y0024600D03*
X0053600Y0024600D03*
X0043600Y0024600D03*
X0033600Y0024600D03*
X0023600Y0024600D03*
X0023600Y0014600D03*
X0033600Y0014600D03*
X0043600Y0014600D03*
X0053600Y0014600D03*
X0063600Y0014600D03*
D36*
X0036128Y0040557D03*
X0027072Y0040557D03*
X0027072Y0047643D03*
X0036128Y0047643D03*
D37*
X0162600Y0013600D03*
D38*
X0124100Y0060100D03*
X0120600Y0063600D03*
X0117100Y0067100D03*
X0113600Y0070600D03*
X0110100Y0074100D03*
X0113600Y0077600D03*
X0117100Y0074100D03*
X0120600Y0070600D03*
X0124100Y0067100D03*
X0127600Y0063600D03*
X0131100Y0067100D03*
X0127600Y0070600D03*
X0131100Y0074100D03*
X0127600Y0077600D03*
X0124100Y0081100D03*
X0120600Y0077600D03*
X0117100Y0081100D03*
X0120600Y0084600D03*
X0124100Y0088100D03*
X0127600Y0084600D03*
X0131100Y0081100D03*
X0134600Y0077600D03*
X0138100Y0074100D03*
X0134600Y0070600D03*
D39*
X0124100Y0074100D03*
M02*
