G75*
%MOIN*%
%OFA0B0*%
%FSLAX25Y25*%
%IPPOS*%
%LPD*%
%AMOC8*
5,1,8,0,0,1.08239X$1,22.5*
%
%ADD10C,0.00000*%
%ADD11C,0.00800*%
%ADD12R,0.05518X0.06306*%
%ADD13R,0.04731X0.04337*%
%ADD14R,0.04337X0.04731*%
%ADD15C,0.06337*%
%ADD16R,0.02900X0.08900*%
%ADD17C,0.22054*%
%ADD18C,0.03175*%
%ADD19C,0.03962*%
D10*
X0003100Y0006600D02*
X0008100Y0001600D01*
X0226100Y0001600D01*
X0230100Y0005600D01*
X0234100Y0005600D01*
X0238100Y0001600D01*
X0239600Y0001600D01*
X0243600Y0005600D01*
X0247100Y0005600D01*
X0251100Y0001600D01*
X0252100Y0001600D01*
X0257100Y0006600D01*
X0257100Y0106600D01*
X0237600Y0126100D01*
X0237600Y0147600D01*
X0235100Y0150100D01*
X0015600Y0150100D01*
X0003100Y0137600D01*
X0003100Y0006600D01*
D11*
X0189900Y0006391D02*
X0211200Y0006391D01*
X0211200Y0005593D02*
X0189900Y0005593D01*
X0189900Y0004900D02*
X0189900Y0012300D01*
X0211200Y0012300D01*
X0211200Y0004900D01*
X0189900Y0004900D01*
X0189900Y0007190D02*
X0211200Y0007190D01*
X0211200Y0007988D02*
X0189900Y0007988D01*
X0189900Y0008787D02*
X0211200Y0008787D01*
X0211200Y0009585D02*
X0189900Y0009585D01*
X0189900Y0010384D02*
X0211200Y0010384D01*
X0211200Y0011182D02*
X0189900Y0011182D01*
X0189900Y0011981D02*
X0211200Y0011981D01*
D12*
X0044840Y0126600D03*
X0037360Y0126600D03*
D13*
G36*
X0086595Y0124671D02*
X0089939Y0121327D01*
X0086873Y0118261D01*
X0083529Y0121605D01*
X0086595Y0124671D01*
G37*
G36*
X0092095Y0130171D02*
X0095439Y0126827D01*
X0092373Y0123761D01*
X0089029Y0127105D01*
X0092095Y0130171D01*
G37*
G36*
X0097595Y0135671D02*
X0100939Y0132327D01*
X0097873Y0129261D01*
X0094529Y0132605D01*
X0097595Y0135671D01*
G37*
G36*
X0105630Y0143636D02*
X0108974Y0140292D01*
X0105908Y0137226D01*
X0102564Y0140570D01*
X0105630Y0143636D01*
G37*
G36*
X0110363Y0138903D02*
X0113707Y0135559D01*
X0110641Y0132493D01*
X0107297Y0135837D01*
X0110363Y0138903D01*
G37*
G36*
X0102327Y0130939D02*
X0105671Y0127595D01*
X0102605Y0124529D01*
X0099261Y0127873D01*
X0102327Y0130939D01*
G37*
G36*
X0096827Y0125439D02*
X0100171Y0122095D01*
X0097105Y0119029D01*
X0093761Y0122373D01*
X0096827Y0125439D01*
G37*
G36*
X0091327Y0119939D02*
X0094671Y0116595D01*
X0091605Y0113529D01*
X0088261Y0116873D01*
X0091327Y0119939D01*
G37*
G36*
X0122029Y0108095D02*
X0125373Y0111439D01*
X0128439Y0108373D01*
X0125095Y0105029D01*
X0122029Y0108095D01*
G37*
G36*
X0126761Y0112827D02*
X0130105Y0116171D01*
X0133171Y0113105D01*
X0129827Y0109761D01*
X0126761Y0112827D01*
G37*
G36*
X0139761Y0100327D02*
X0143105Y0103671D01*
X0146171Y0100605D01*
X0142827Y0097261D01*
X0139761Y0100327D01*
G37*
G36*
X0135029Y0095595D02*
X0138373Y0098939D01*
X0141439Y0095873D01*
X0138095Y0092529D01*
X0135029Y0095595D01*
G37*
G36*
X0156261Y0083327D02*
X0159605Y0086671D01*
X0162671Y0083605D01*
X0159327Y0080261D01*
X0156261Y0083327D01*
G37*
G36*
X0151529Y0078595D02*
X0154873Y0081939D01*
X0157939Y0078873D01*
X0154595Y0075529D01*
X0151529Y0078595D01*
G37*
G36*
X0157529Y0072595D02*
X0160873Y0075939D01*
X0163939Y0072873D01*
X0160595Y0069529D01*
X0157529Y0072595D01*
G37*
G36*
X0162261Y0077327D02*
X0165605Y0080671D01*
X0168671Y0077605D01*
X0165327Y0074261D01*
X0162261Y0077327D01*
G37*
G36*
X0150595Y0068671D02*
X0153939Y0065327D01*
X0150873Y0062261D01*
X0147529Y0065605D01*
X0150595Y0068671D01*
G37*
G36*
X0155327Y0063939D02*
X0158671Y0060595D01*
X0155605Y0057529D01*
X0152261Y0060873D01*
X0155327Y0063939D01*
G37*
G36*
X0144095Y0062171D02*
X0147439Y0058827D01*
X0144373Y0055761D01*
X0141029Y0059105D01*
X0144095Y0062171D01*
G37*
G36*
X0148827Y0057439D02*
X0152171Y0054095D01*
X0149105Y0051029D01*
X0145761Y0054373D01*
X0148827Y0057439D01*
G37*
G36*
X0131595Y0049671D02*
X0134939Y0046327D01*
X0131873Y0043261D01*
X0128529Y0046605D01*
X0131595Y0049671D01*
G37*
G36*
X0136327Y0044939D02*
X0139671Y0041595D01*
X0136605Y0038529D01*
X0133261Y0041873D01*
X0136327Y0044939D01*
G37*
G36*
X0126095Y0044171D02*
X0129439Y0040827D01*
X0126373Y0037761D01*
X0123029Y0041105D01*
X0126095Y0044171D01*
G37*
G36*
X0130827Y0039439D02*
X0134171Y0036095D01*
X0131105Y0033029D01*
X0127761Y0036373D01*
X0130827Y0039439D01*
G37*
G36*
X0133095Y0029171D02*
X0136439Y0025827D01*
X0133373Y0022761D01*
X0130029Y0026105D01*
X0133095Y0029171D01*
G37*
G36*
X0137827Y0024439D02*
X0141171Y0021095D01*
X0138105Y0018029D01*
X0134761Y0021373D01*
X0137827Y0024439D01*
G37*
G36*
X0126873Y0016261D02*
X0123529Y0019605D01*
X0126595Y0022671D01*
X0129939Y0019327D01*
X0126873Y0016261D01*
G37*
G36*
X0131605Y0011529D02*
X0128261Y0014873D01*
X0131327Y0017939D01*
X0134671Y0014595D01*
X0131605Y0011529D01*
G37*
G36*
X0106261Y0013327D02*
X0109605Y0016671D01*
X0112671Y0013605D01*
X0109327Y0010261D01*
X0106261Y0013327D01*
G37*
G36*
X0101529Y0008595D02*
X0104873Y0011939D01*
X0107939Y0008873D01*
X0104595Y0005529D01*
X0101529Y0008595D01*
G37*
G36*
X0094029Y0016095D02*
X0097373Y0019439D01*
X0100439Y0016373D01*
X0097095Y0013029D01*
X0094029Y0016095D01*
G37*
G36*
X0098761Y0020827D02*
X0102105Y0024171D01*
X0105171Y0021105D01*
X0101827Y0017761D01*
X0098761Y0020827D01*
G37*
G36*
X0088529Y0021595D02*
X0091873Y0024939D01*
X0094939Y0021873D01*
X0091595Y0018529D01*
X0088529Y0021595D01*
G37*
G36*
X0093261Y0026327D02*
X0096605Y0029671D01*
X0099671Y0026605D01*
X0096327Y0023261D01*
X0093261Y0026327D01*
G37*
G36*
X0077029Y0033095D02*
X0080373Y0036439D01*
X0083439Y0033373D01*
X0080095Y0030029D01*
X0077029Y0033095D01*
G37*
G36*
X0081761Y0037827D02*
X0085105Y0041171D01*
X0088171Y0038105D01*
X0084827Y0034761D01*
X0081761Y0037827D01*
G37*
X0067946Y0059100D03*
X0061254Y0059100D03*
X0044946Y0074600D03*
X0038254Y0074600D03*
G36*
X0084373Y0075761D02*
X0081029Y0079105D01*
X0084095Y0082171D01*
X0087439Y0078827D01*
X0084373Y0075761D01*
G37*
G36*
X0089105Y0071029D02*
X0085761Y0074373D01*
X0088827Y0077439D01*
X0092171Y0074095D01*
X0089105Y0071029D01*
G37*
G36*
X0095205Y0077029D02*
X0091861Y0080373D01*
X0094927Y0083439D01*
X0098271Y0080095D01*
X0095205Y0077029D01*
G37*
G36*
X0090473Y0081761D02*
X0087129Y0085105D01*
X0090195Y0088171D01*
X0093539Y0084827D01*
X0090473Y0081761D01*
G37*
G36*
X0102105Y0084029D02*
X0098761Y0087373D01*
X0101827Y0090439D01*
X0105171Y0087095D01*
X0102105Y0084029D01*
G37*
G36*
X0097373Y0088761D02*
X0094029Y0092105D01*
X0097095Y0095171D01*
X0100439Y0091827D01*
X0097373Y0088761D01*
G37*
G36*
X0171873Y0045761D02*
X0168529Y0049105D01*
X0171595Y0052171D01*
X0174939Y0048827D01*
X0171873Y0045761D01*
G37*
G36*
X0176605Y0041029D02*
X0173261Y0044373D01*
X0176327Y0047439D01*
X0179671Y0044095D01*
X0176605Y0041029D01*
G37*
X0194754Y0048600D03*
X0201446Y0048600D03*
X0209254Y0050600D03*
X0215946Y0050600D03*
X0215946Y0059600D03*
X0209254Y0059600D03*
X0201446Y0056600D03*
X0194754Y0056600D03*
X0209254Y0067600D03*
X0215946Y0067600D03*
X0217600Y0084254D03*
X0217600Y0090946D03*
G36*
X0142439Y0134373D02*
X0139095Y0131029D01*
X0136029Y0134095D01*
X0139373Y0137439D01*
X0142439Y0134373D01*
G37*
G36*
X0147171Y0139105D02*
X0143827Y0135761D01*
X0140761Y0138827D01*
X0144105Y0142171D01*
X0147171Y0139105D01*
G37*
X0188254Y0143100D03*
X0194946Y0143100D03*
X0209254Y0042600D03*
X0215946Y0042600D03*
D14*
X0214946Y0076600D03*
X0208254Y0076600D03*
X0225600Y0084254D03*
X0233600Y0084254D03*
X0233600Y0090946D03*
X0225600Y0090946D03*
X0079946Y0014600D03*
X0073254Y0014600D03*
X0044946Y0046100D03*
X0038254Y0046100D03*
X0038254Y0054100D03*
X0044946Y0054100D03*
X0044946Y0062100D03*
X0038254Y0062100D03*
X0013946Y0024600D03*
X0007254Y0024600D03*
X0007254Y0014600D03*
X0013946Y0014600D03*
D15*
X0023600Y0014600D03*
X0033600Y0014600D03*
X0043600Y0014600D03*
X0053600Y0014600D03*
X0063600Y0014600D03*
X0063600Y0024600D03*
X0053600Y0024600D03*
X0043600Y0024600D03*
X0033600Y0024600D03*
X0023600Y0024600D03*
D16*
X0021600Y0045900D03*
X0016600Y0045900D03*
X0026600Y0045900D03*
X0031600Y0045900D03*
X0031600Y0071300D03*
X0026600Y0071300D03*
X0021600Y0071300D03*
X0016600Y0071300D03*
D17*
X0162600Y0013600D03*
D18*
X0124100Y0060100D03*
X0120600Y0063600D03*
X0117100Y0067100D03*
X0113600Y0070600D03*
X0110100Y0074100D03*
X0113600Y0077600D03*
X0117100Y0074100D03*
X0120600Y0070600D03*
X0124100Y0067100D03*
X0127600Y0063600D03*
X0131100Y0067100D03*
X0127600Y0070600D03*
X0131100Y0074100D03*
X0127600Y0077600D03*
X0124100Y0081100D03*
X0120600Y0077600D03*
X0117100Y0081100D03*
X0120600Y0084600D03*
X0124100Y0088100D03*
X0127600Y0084600D03*
X0131100Y0081100D03*
X0134600Y0077600D03*
X0138100Y0074100D03*
X0134600Y0070600D03*
D19*
X0124100Y0074100D03*
M02*
