G75*
%MOIN*%
%OFA0B0*%
%FSLAX25Y25*%
%IPPOS*%
%LPD*%
%AMOC8*
5,1,8,0,0,1.08239X$1,22.5*
%
%ADD10C,0.00000*%
%ADD11C,0.00800*%
%ADD12R,0.05118X0.05906*%
%ADD13R,0.04331X0.03937*%
%ADD14R,0.03937X0.04331*%
%ADD15C,0.05937*%
%ADD16R,0.02500X0.08500*%
%ADD17C,0.01000*%
%ADD18C,0.02775*%
%ADD19C,0.03169*%
%ADD20C,0.03200*%
%ADD21C,0.01200*%
%ADD22C,0.01600*%
%ADD23C,0.21654*%
%ADD24C,0.03562*%
D10*
X0003100Y0006600D02*
X0008100Y0001600D01*
X0226100Y0001600D01*
X0230100Y0005600D01*
X0234100Y0005600D01*
X0238100Y0001600D01*
X0239600Y0001600D01*
X0243600Y0005600D01*
X0247100Y0005600D01*
X0251100Y0001600D01*
X0252100Y0001600D01*
X0257100Y0006600D01*
X0257100Y0106600D01*
X0237600Y0126100D01*
X0237600Y0147600D01*
X0235100Y0150100D01*
X0015600Y0150100D01*
X0003100Y0137600D01*
X0003100Y0006600D01*
D11*
X0013946Y0012254D02*
X0018600Y0007600D01*
X0036600Y0007600D01*
X0043600Y0014600D01*
X0048100Y0019100D01*
X0070600Y0019100D01*
X0076100Y0024600D01*
X0073254Y0014600D02*
X0063600Y0014600D01*
X0059100Y0036600D02*
X0027600Y0036600D01*
X0028600Y0039600D02*
X0036100Y0039600D01*
X0038254Y0041754D01*
X0038254Y0046100D01*
X0040100Y0050100D02*
X0038254Y0051946D01*
X0038254Y0054100D01*
X0038254Y0056446D01*
X0036100Y0058600D01*
X0029600Y0058600D01*
X0021600Y0050600D01*
X0021600Y0045900D01*
X0026600Y0045900D02*
X0026600Y0041600D01*
X0028600Y0039600D01*
X0031600Y0045900D02*
X0031600Y0055600D01*
X0028600Y0062100D02*
X0026600Y0064100D01*
X0026600Y0071300D01*
X0021600Y0071300D02*
X0021600Y0058600D01*
X0023600Y0056600D01*
X0028600Y0062100D02*
X0038254Y0062100D01*
X0038254Y0064254D01*
X0040100Y0066100D01*
X0048100Y0066100D01*
X0053600Y0060600D01*
X0053600Y0057600D01*
X0055600Y0055600D01*
X0069600Y0055600D01*
X0071600Y0053600D01*
X0091600Y0053600D01*
X0095600Y0050600D02*
X0071600Y0050600D01*
X0068600Y0053600D01*
X0053600Y0053600D01*
X0050100Y0050100D01*
X0040100Y0050100D01*
X0044946Y0046100D02*
X0062600Y0046100D01*
X0065100Y0048600D01*
X0066600Y0051600D02*
X0061600Y0051600D01*
X0059600Y0049600D01*
X0066600Y0051600D02*
X0069600Y0048600D01*
X0091600Y0048600D01*
X0097600Y0042600D01*
X0109600Y0042600D01*
X0111600Y0040600D01*
X0111600Y0035100D01*
X0107600Y0039100D02*
X0097100Y0039100D01*
X0090100Y0046100D01*
X0068600Y0046100D01*
X0059100Y0036600D01*
X0049100Y0054100D02*
X0044946Y0054100D01*
X0049100Y0054100D02*
X0050600Y0055600D01*
X0050600Y0058600D01*
X0050600Y0060600D01*
X0049100Y0062100D01*
X0044946Y0062100D01*
X0059100Y0071100D02*
X0050600Y0079600D01*
X0019600Y0079600D01*
X0016600Y0076600D01*
X0016600Y0071300D01*
X0041600Y0091600D02*
X0050100Y0091600D01*
X0081100Y0061600D01*
X0094600Y0061600D01*
X0103600Y0052600D01*
X0103600Y0049600D01*
X0106600Y0052600D02*
X0137100Y0052600D01*
X0163100Y0026600D01*
X0206100Y0026600D01*
X0218600Y0014100D01*
X0208601Y0010203D02*
X0207000Y0008601D01*
X0209135Y0008601D01*
X0208601Y0007000D02*
X0208601Y0010203D01*
X0217100Y0028600D02*
X0231600Y0014100D01*
X0236100Y0014100D02*
X0219600Y0030600D01*
X0165100Y0030600D01*
X0139850Y0055850D01*
X0139100Y0056600D01*
X0108600Y0056600D01*
X0097600Y0067600D01*
X0084100Y0067600D01*
X0053100Y0098600D01*
X0035600Y0098600D01*
X0027600Y0106600D01*
X0025100Y0106600D01*
X0027100Y0103100D02*
X0022600Y0103100D01*
X0019100Y0106600D01*
X0027100Y0103100D02*
X0033600Y0096600D01*
X0051600Y0096600D01*
X0052100Y0096600D01*
X0083100Y0065600D01*
X0096600Y0065600D01*
X0107600Y0054600D01*
X0138100Y0054600D01*
X0164100Y0028600D01*
X0217100Y0028600D01*
X0236100Y0014100D02*
X0244600Y0014100D01*
X0226600Y0071600D02*
X0224100Y0071600D01*
X0226600Y0071600D02*
X0233600Y0078600D01*
X0233600Y0084254D01*
X0225600Y0084254D02*
X0225600Y0076600D01*
X0220600Y0078600D02*
X0217600Y0081600D01*
X0217600Y0084254D01*
X0214946Y0080754D02*
X0214946Y0076600D01*
X0214946Y0080754D02*
X0211600Y0084100D01*
X0129100Y0029100D02*
X0125600Y0025600D01*
X0125600Y0015100D01*
X0106600Y0052600D02*
X0095600Y0063600D01*
X0082100Y0063600D01*
X0051100Y0094600D01*
X0030600Y0094600D01*
X0025100Y0100100D01*
X0088600Y0086600D02*
X0090334Y0084966D01*
X0105100Y0123100D02*
X0105100Y0125100D01*
X0102466Y0127734D01*
X0013946Y0024600D02*
X0014100Y0024446D01*
X0014100Y0021600D01*
X0015600Y0020100D01*
X0018100Y0020100D01*
X0023600Y0014600D01*
X0013946Y0014600D02*
X0013946Y0012254D01*
D12*
X0037360Y0126600D03*
X0044840Y0126600D03*
D13*
G36*
X0086595Y0124388D02*
X0089656Y0121327D01*
X0086873Y0118544D01*
X0083812Y0121605D01*
X0086595Y0124388D01*
G37*
G36*
X0092095Y0129888D02*
X0095156Y0126827D01*
X0092373Y0124044D01*
X0089312Y0127105D01*
X0092095Y0129888D01*
G37*
G36*
X0097595Y0135388D02*
X0100656Y0132327D01*
X0097873Y0129544D01*
X0094812Y0132605D01*
X0097595Y0135388D01*
G37*
G36*
X0105630Y0143353D02*
X0108691Y0140292D01*
X0105908Y0137509D01*
X0102847Y0140570D01*
X0105630Y0143353D01*
G37*
G36*
X0110363Y0138620D02*
X0113424Y0135559D01*
X0110641Y0132776D01*
X0107580Y0135837D01*
X0110363Y0138620D01*
G37*
G36*
X0102327Y0130656D02*
X0105388Y0127595D01*
X0102605Y0124812D01*
X0099544Y0127873D01*
X0102327Y0130656D01*
G37*
G36*
X0096827Y0125156D02*
X0099888Y0122095D01*
X0097105Y0119312D01*
X0094044Y0122373D01*
X0096827Y0125156D01*
G37*
G36*
X0091327Y0119656D02*
X0094388Y0116595D01*
X0091605Y0113812D01*
X0088544Y0116873D01*
X0091327Y0119656D01*
G37*
G36*
X0122312Y0108095D02*
X0125373Y0111156D01*
X0128156Y0108373D01*
X0125095Y0105312D01*
X0122312Y0108095D01*
G37*
G36*
X0127044Y0112827D02*
X0130105Y0115888D01*
X0132888Y0113105D01*
X0129827Y0110044D01*
X0127044Y0112827D01*
G37*
G36*
X0140044Y0100327D02*
X0143105Y0103388D01*
X0145888Y0100605D01*
X0142827Y0097544D01*
X0140044Y0100327D01*
G37*
G36*
X0135312Y0095595D02*
X0138373Y0098656D01*
X0141156Y0095873D01*
X0138095Y0092812D01*
X0135312Y0095595D01*
G37*
G36*
X0156544Y0083327D02*
X0159605Y0086388D01*
X0162388Y0083605D01*
X0159327Y0080544D01*
X0156544Y0083327D01*
G37*
G36*
X0151812Y0078595D02*
X0154873Y0081656D01*
X0157656Y0078873D01*
X0154595Y0075812D01*
X0151812Y0078595D01*
G37*
G36*
X0157812Y0072595D02*
X0160873Y0075656D01*
X0163656Y0072873D01*
X0160595Y0069812D01*
X0157812Y0072595D01*
G37*
G36*
X0162544Y0077327D02*
X0165605Y0080388D01*
X0168388Y0077605D01*
X0165327Y0074544D01*
X0162544Y0077327D01*
G37*
G36*
X0150595Y0068388D02*
X0153656Y0065327D01*
X0150873Y0062544D01*
X0147812Y0065605D01*
X0150595Y0068388D01*
G37*
G36*
X0155327Y0063656D02*
X0158388Y0060595D01*
X0155605Y0057812D01*
X0152544Y0060873D01*
X0155327Y0063656D01*
G37*
G36*
X0144095Y0061888D02*
X0147156Y0058827D01*
X0144373Y0056044D01*
X0141312Y0059105D01*
X0144095Y0061888D01*
G37*
G36*
X0148827Y0057156D02*
X0151888Y0054095D01*
X0149105Y0051312D01*
X0146044Y0054373D01*
X0148827Y0057156D01*
G37*
G36*
X0131595Y0049388D02*
X0134656Y0046327D01*
X0131873Y0043544D01*
X0128812Y0046605D01*
X0131595Y0049388D01*
G37*
G36*
X0136327Y0044656D02*
X0139388Y0041595D01*
X0136605Y0038812D01*
X0133544Y0041873D01*
X0136327Y0044656D01*
G37*
G36*
X0126095Y0043888D02*
X0129156Y0040827D01*
X0126373Y0038044D01*
X0123312Y0041105D01*
X0126095Y0043888D01*
G37*
G36*
X0130827Y0039156D02*
X0133888Y0036095D01*
X0131105Y0033312D01*
X0128044Y0036373D01*
X0130827Y0039156D01*
G37*
G36*
X0133095Y0028888D02*
X0136156Y0025827D01*
X0133373Y0023044D01*
X0130312Y0026105D01*
X0133095Y0028888D01*
G37*
G36*
X0137827Y0024156D02*
X0140888Y0021095D01*
X0138105Y0018312D01*
X0135044Y0021373D01*
X0137827Y0024156D01*
G37*
X0132446Y0009100D03*
X0125754Y0009100D03*
G36*
X0106544Y0013327D02*
X0109605Y0016388D01*
X0112388Y0013605D01*
X0109327Y0010544D01*
X0106544Y0013327D01*
G37*
G36*
X0101812Y0008595D02*
X0104873Y0011656D01*
X0107656Y0008873D01*
X0104595Y0005812D01*
X0101812Y0008595D01*
G37*
G36*
X0094312Y0016095D02*
X0097373Y0019156D01*
X0100156Y0016373D01*
X0097095Y0013312D01*
X0094312Y0016095D01*
G37*
G36*
X0099044Y0020827D02*
X0102105Y0023888D01*
X0104888Y0021105D01*
X0101827Y0018044D01*
X0099044Y0020827D01*
G37*
G36*
X0088812Y0021595D02*
X0091873Y0024656D01*
X0094656Y0021873D01*
X0091595Y0018812D01*
X0088812Y0021595D01*
G37*
G36*
X0093544Y0026327D02*
X0096605Y0029388D01*
X0099388Y0026605D01*
X0096327Y0023544D01*
X0093544Y0026327D01*
G37*
G36*
X0077312Y0033095D02*
X0080373Y0036156D01*
X0083156Y0033373D01*
X0080095Y0030312D01*
X0077312Y0033095D01*
G37*
G36*
X0082044Y0037827D02*
X0085105Y0040888D01*
X0087888Y0038105D01*
X0084827Y0035044D01*
X0082044Y0037827D01*
G37*
X0067946Y0059100D03*
X0061254Y0059100D03*
X0044946Y0074600D03*
X0038254Y0074600D03*
G36*
X0084373Y0076044D02*
X0081312Y0079105D01*
X0084095Y0081888D01*
X0087156Y0078827D01*
X0084373Y0076044D01*
G37*
G36*
X0089105Y0071312D02*
X0086044Y0074373D01*
X0088827Y0077156D01*
X0091888Y0074095D01*
X0089105Y0071312D01*
G37*
G36*
X0095205Y0077312D02*
X0092144Y0080373D01*
X0094927Y0083156D01*
X0097988Y0080095D01*
X0095205Y0077312D01*
G37*
G36*
X0090473Y0082044D02*
X0087412Y0085105D01*
X0090195Y0087888D01*
X0093256Y0084827D01*
X0090473Y0082044D01*
G37*
G36*
X0102105Y0084312D02*
X0099044Y0087373D01*
X0101827Y0090156D01*
X0104888Y0087095D01*
X0102105Y0084312D01*
G37*
G36*
X0097373Y0089044D02*
X0094312Y0092105D01*
X0097095Y0094888D01*
X0100156Y0091827D01*
X0097373Y0089044D01*
G37*
G36*
X0142156Y0134373D02*
X0139095Y0131312D01*
X0136312Y0134095D01*
X0139373Y0137156D01*
X0142156Y0134373D01*
G37*
G36*
X0146888Y0139105D02*
X0143827Y0136044D01*
X0141044Y0138827D01*
X0144105Y0141888D01*
X0146888Y0139105D01*
G37*
X0188254Y0143100D03*
X0194946Y0143100D03*
X0217600Y0090946D03*
X0217600Y0084254D03*
X0215946Y0067600D03*
X0209254Y0067600D03*
X0209254Y0059600D03*
X0215946Y0059600D03*
X0215946Y0050600D03*
X0209254Y0050600D03*
X0201446Y0048600D03*
X0194754Y0048600D03*
X0194754Y0056600D03*
X0201446Y0056600D03*
X0209254Y0042600D03*
X0215946Y0042600D03*
G36*
X0176605Y0041312D02*
X0173544Y0044373D01*
X0176327Y0047156D01*
X0179388Y0044095D01*
X0176605Y0041312D01*
G37*
G36*
X0171873Y0046044D02*
X0168812Y0049105D01*
X0171595Y0051888D01*
X0174656Y0048827D01*
X0171873Y0046044D01*
G37*
D14*
X0208254Y0076600D03*
X0214946Y0076600D03*
X0225600Y0084254D03*
X0233600Y0084254D03*
X0233600Y0090946D03*
X0225600Y0090946D03*
X0079946Y0014600D03*
X0073254Y0014600D03*
X0044946Y0046100D03*
X0038254Y0046100D03*
X0038254Y0054100D03*
X0044946Y0054100D03*
X0044946Y0062100D03*
X0038254Y0062100D03*
X0013946Y0024600D03*
X0007254Y0024600D03*
X0007254Y0014600D03*
X0013946Y0014600D03*
D15*
X0023600Y0014600D03*
X0033600Y0014600D03*
X0043600Y0014600D03*
X0053600Y0014600D03*
X0063600Y0014600D03*
X0063600Y0024600D03*
X0053600Y0024600D03*
X0043600Y0024600D03*
X0033600Y0024600D03*
X0023600Y0024600D03*
D16*
X0021600Y0045900D03*
X0016600Y0045900D03*
X0026600Y0045900D03*
X0031600Y0045900D03*
X0031600Y0071300D03*
X0026600Y0071300D03*
X0021600Y0071300D03*
X0016600Y0071300D03*
D17*
X0010577Y0004596D02*
X0006925Y0004596D01*
X0005927Y0005594D02*
X0009578Y0005594D01*
X0010313Y0004860D02*
X0011360Y0003813D01*
X0076840Y0003813D01*
X0077887Y0004860D01*
X0079953Y0006925D01*
X0080632Y0006925D01*
X0081615Y0007332D01*
X0082368Y0008085D01*
X0082775Y0009068D01*
X0082775Y0010132D01*
X0082368Y0011115D01*
X0082335Y0011147D01*
X0082448Y0011147D01*
X0083202Y0011901D01*
X0083202Y0017299D01*
X0082448Y0018053D01*
X0077445Y0018053D01*
X0076691Y0017299D01*
X0076691Y0011901D01*
X0077445Y0011147D01*
X0077865Y0011147D01*
X0077832Y0011115D01*
X0077425Y0010132D01*
X0077425Y0009453D01*
X0075360Y0007387D01*
X0038774Y0007387D01*
X0042030Y0010644D01*
X0042753Y0010344D01*
X0044447Y0010344D01*
X0046011Y0010992D01*
X0047208Y0012189D01*
X0047856Y0013753D01*
X0047856Y0015447D01*
X0047556Y0016170D01*
X0048799Y0017413D01*
X0050394Y0017413D01*
X0049992Y0017011D01*
X0049344Y0015447D01*
X0049344Y0013753D01*
X0049992Y0012189D01*
X0051189Y0010992D01*
X0052753Y0010344D01*
X0054447Y0010344D01*
X0056011Y0010992D01*
X0057208Y0012189D01*
X0057856Y0013753D01*
X0057856Y0015447D01*
X0057208Y0017011D01*
X0056806Y0017413D01*
X0060394Y0017413D01*
X0059992Y0017011D01*
X0059344Y0015447D01*
X0059344Y0013753D01*
X0059992Y0012189D01*
X0061189Y0010992D01*
X0062753Y0010344D01*
X0064447Y0010344D01*
X0066011Y0010992D01*
X0067208Y0012189D01*
X0067508Y0012913D01*
X0069998Y0012913D01*
X0069998Y0011901D01*
X0070752Y0011147D01*
X0075755Y0011147D01*
X0076509Y0011901D01*
X0076509Y0017299D01*
X0075755Y0018053D01*
X0071939Y0018053D01*
X0072287Y0018401D01*
X0075812Y0021925D01*
X0076632Y0021925D01*
X0077615Y0022332D01*
X0078368Y0023085D01*
X0078775Y0024068D01*
X0078775Y0025132D01*
X0078368Y0026115D01*
X0077615Y0026868D01*
X0076632Y0027275D01*
X0075568Y0027275D01*
X0074585Y0026868D01*
X0073832Y0026115D01*
X0073425Y0025132D01*
X0073425Y0024312D01*
X0069901Y0020787D01*
X0065955Y0020787D01*
X0066511Y0021192D01*
X0067008Y0021689D01*
X0067422Y0022258D01*
X0067741Y0022885D01*
X0067958Y0023554D01*
X0068047Y0024116D01*
X0064084Y0024116D01*
X0064084Y0025084D01*
X0063116Y0025084D01*
X0063116Y0024116D01*
X0059152Y0024116D01*
X0059242Y0023554D01*
X0059459Y0022885D01*
X0059778Y0022258D01*
X0060192Y0021689D01*
X0060689Y0021192D01*
X0061245Y0020787D01*
X0055517Y0020787D01*
X0056011Y0020992D01*
X0057208Y0022189D01*
X0057856Y0023753D01*
X0057856Y0025447D01*
X0057208Y0027011D01*
X0056011Y0028208D01*
X0054447Y0028856D01*
X0052753Y0028856D01*
X0051189Y0028208D01*
X0049992Y0027011D01*
X0049344Y0025447D01*
X0049344Y0023753D01*
X0049992Y0022189D01*
X0051189Y0020992D01*
X0051683Y0020787D01*
X0047401Y0020787D01*
X0045170Y0018556D01*
X0044447Y0018856D01*
X0042753Y0018856D01*
X0041189Y0018208D01*
X0039992Y0017011D01*
X0039344Y0015447D01*
X0039344Y0013753D01*
X0039644Y0013030D01*
X0035901Y0009287D01*
X0019299Y0009287D01*
X0016944Y0011643D01*
X0017202Y0011901D01*
X0017202Y0017299D01*
X0016448Y0018053D01*
X0011445Y0018053D01*
X0010691Y0017299D01*
X0010691Y0011901D01*
X0011445Y0011147D01*
X0012666Y0011147D01*
X0016426Y0007387D01*
X0012840Y0007387D01*
X0009080Y0011147D01*
X0009755Y0011147D01*
X0010509Y0011901D01*
X0010509Y0017299D01*
X0009755Y0018053D01*
X0004752Y0018053D01*
X0004387Y0017688D01*
X0004387Y0021221D01*
X0004706Y0021037D01*
X0005088Y0020935D01*
X0006769Y0020935D01*
X0006769Y0024116D01*
X0007738Y0024116D01*
X0007738Y0020935D01*
X0009420Y0020935D01*
X0009801Y0021037D01*
X0010143Y0021234D01*
X0010422Y0021514D01*
X0010620Y0021856D01*
X0010691Y0022120D01*
X0010691Y0021901D01*
X0011445Y0021147D01*
X0012413Y0021147D01*
X0012413Y0020901D01*
X0013401Y0019913D01*
X0014901Y0018413D01*
X0017401Y0018413D01*
X0019644Y0016170D01*
X0019344Y0015447D01*
X0019344Y0013753D01*
X0019992Y0012189D01*
X0021189Y0010992D01*
X0022753Y0010344D01*
X0024447Y0010344D01*
X0026011Y0010992D01*
X0027208Y0012189D01*
X0027856Y0013753D01*
X0027856Y0015447D01*
X0027208Y0017011D01*
X0026011Y0018208D01*
X0024447Y0018856D01*
X0022753Y0018856D01*
X0022030Y0018556D01*
X0019787Y0020799D01*
X0018799Y0021787D01*
X0017088Y0021787D01*
X0017202Y0021901D01*
X0017202Y0027299D01*
X0016448Y0028053D01*
X0011445Y0028053D01*
X0010691Y0027299D01*
X0010691Y0027080D01*
X0010620Y0027344D01*
X0010422Y0027686D01*
X0010143Y0027966D01*
X0009801Y0028163D01*
X0009420Y0028265D01*
X0007738Y0028265D01*
X0007738Y0025084D01*
X0006769Y0025084D01*
X0006769Y0028265D01*
X0005088Y0028265D01*
X0004706Y0028163D01*
X0004387Y0027979D01*
X0004387Y0137067D01*
X0016133Y0148813D01*
X0039713Y0148813D01*
X0039713Y0131053D01*
X0037860Y0131053D01*
X0037860Y0127100D01*
X0036860Y0127100D01*
X0036860Y0131053D01*
X0034603Y0131053D01*
X0034222Y0130951D01*
X0033880Y0130753D01*
X0033600Y0130474D01*
X0033403Y0130132D01*
X0033301Y0129750D01*
X0033301Y0127100D01*
X0036860Y0127100D01*
X0036860Y0126100D01*
X0037860Y0126100D01*
X0037860Y0122147D01*
X0039713Y0122147D01*
X0039713Y0108318D01*
X0040818Y0107213D01*
X0057382Y0107213D01*
X0058487Y0108318D01*
X0058487Y0129382D01*
X0052987Y0134882D01*
X0052987Y0148813D01*
X0234567Y0148813D01*
X0236313Y0147067D01*
X0236313Y0125567D01*
X0255813Y0106067D01*
X0255813Y0007133D01*
X0251600Y0002921D01*
X0248387Y0006133D01*
X0247633Y0006887D01*
X0243067Y0006887D01*
X0239067Y0002887D01*
X0238633Y0002887D01*
X0235387Y0006133D01*
X0234633Y0006887D01*
X0229567Y0006887D01*
X0225567Y0002887D01*
X0008633Y0002887D01*
X0004387Y0007133D01*
X0004387Y0011512D01*
X0004752Y0011147D01*
X0005313Y0011147D01*
X0005313Y0009860D01*
X0006360Y0008813D01*
X0010313Y0004860D01*
X0012100Y0005600D02*
X0076100Y0005600D01*
X0080100Y0009600D01*
X0080100Y0014446D01*
X0079946Y0014600D01*
X0076691Y0014581D02*
X0076509Y0014581D01*
X0076509Y0015579D02*
X0076691Y0015579D01*
X0076691Y0016578D02*
X0076509Y0016578D01*
X0076232Y0017576D02*
X0076968Y0017576D01*
X0074458Y0020572D02*
X0087712Y0020572D01*
X0087610Y0020673D02*
X0088799Y0019484D01*
X0091049Y0021734D01*
X0088939Y0023844D01*
X0087610Y0022516D01*
X0087413Y0022173D01*
X0087311Y0021792D01*
X0087311Y0021397D01*
X0087413Y0021016D01*
X0087610Y0020673D01*
X0087311Y0021570D02*
X0075457Y0021570D01*
X0077851Y0022569D02*
X0087664Y0022569D01*
X0088662Y0023567D02*
X0078567Y0023567D01*
X0078775Y0024566D02*
X0089661Y0024566D01*
X0089624Y0024529D02*
X0091734Y0022419D01*
X0091049Y0021734D01*
X0091734Y0021049D01*
X0092419Y0021734D01*
X0094529Y0019624D01*
X0095857Y0020952D01*
X0096055Y0021294D01*
X0096157Y0021675D01*
X0096157Y0022070D01*
X0096107Y0022256D01*
X0096860Y0022256D01*
X0100677Y0026072D01*
X0100677Y0026894D01*
X0100868Y0027085D01*
X0101275Y0028068D01*
X0101275Y0029132D01*
X0100868Y0030115D01*
X0100115Y0030868D01*
X0099132Y0031275D01*
X0098068Y0031275D01*
X0097085Y0030868D01*
X0096894Y0030677D01*
X0096072Y0030677D01*
X0092256Y0026860D01*
X0092256Y0026107D01*
X0092070Y0026157D01*
X0091675Y0026157D01*
X0091294Y0026055D01*
X0090952Y0025857D01*
X0089624Y0024529D01*
X0089215Y0023567D02*
X0090585Y0023567D01*
X0090214Y0022569D02*
X0091583Y0022569D01*
X0091212Y0021570D02*
X0090885Y0021570D01*
X0091734Y0021049D02*
X0089484Y0018799D01*
X0090673Y0017610D01*
X0091016Y0017413D01*
X0091397Y0017311D01*
X0091792Y0017311D01*
X0092173Y0017413D01*
X0092516Y0017610D01*
X0093844Y0018939D01*
X0091734Y0021049D01*
X0092211Y0020572D02*
X0093580Y0020572D01*
X0093209Y0019573D02*
X0095668Y0019573D01*
X0095124Y0019029D02*
X0097234Y0016919D01*
X0096549Y0016234D01*
X0094439Y0018344D01*
X0093110Y0017016D01*
X0092913Y0016673D01*
X0092811Y0016292D01*
X0092811Y0015897D01*
X0092913Y0015516D01*
X0093110Y0015173D01*
X0094299Y0013984D01*
X0096549Y0016234D01*
X0097234Y0015549D01*
X0097919Y0016234D01*
X0100029Y0014124D01*
X0101357Y0015452D01*
X0101555Y0015794D01*
X0101657Y0016175D01*
X0101657Y0016570D01*
X0101607Y0016756D01*
X0102360Y0016756D01*
X0106177Y0020572D01*
X0106177Y0021394D01*
X0106368Y0021585D01*
X0106775Y0022568D01*
X0106775Y0023632D01*
X0106368Y0024615D01*
X0105615Y0025368D01*
X0104632Y0025775D01*
X0103568Y0025775D01*
X0102585Y0025368D01*
X0102394Y0025177D01*
X0101572Y0025177D01*
X0097756Y0021360D01*
X0097756Y0020607D01*
X0097570Y0020657D01*
X0097175Y0020657D01*
X0096794Y0020555D01*
X0096452Y0020357D01*
X0095124Y0019029D01*
X0095578Y0018575D02*
X0093480Y0018575D01*
X0093671Y0017576D02*
X0092456Y0017576D01*
X0092887Y0016578D02*
X0083202Y0016578D01*
X0083202Y0015579D02*
X0092896Y0015579D01*
X0093703Y0014581D02*
X0083202Y0014581D01*
X0083202Y0013582D02*
X0095267Y0013582D01*
X0094984Y0013299D02*
X0096173Y0012110D01*
X0096516Y0011913D01*
X0096897Y0011811D01*
X0097292Y0011811D01*
X0097673Y0011913D01*
X0098016Y0012110D01*
X0099344Y0013439D01*
X0097234Y0015549D01*
X0094984Y0013299D01*
X0095700Y0012584D02*
X0083202Y0012584D01*
X0082886Y0011585D02*
X0102680Y0011585D01*
X0102624Y0011529D02*
X0104734Y0009419D01*
X0104049Y0008734D01*
X0101939Y0010844D01*
X0100610Y0009516D01*
X0100413Y0009173D01*
X0100311Y0008792D01*
X0100311Y0008397D01*
X0100413Y0008016D01*
X0100610Y0007673D01*
X0101799Y0006484D01*
X0104049Y0008734D01*
X0104734Y0008049D01*
X0105419Y0008734D01*
X0107529Y0006624D01*
X0108857Y0007952D01*
X0109055Y0008294D01*
X0109157Y0008675D01*
X0109157Y0009070D01*
X0109107Y0009256D01*
X0109860Y0009256D01*
X0113677Y0013072D01*
X0113677Y0014139D01*
X0113172Y0014644D01*
X0113453Y0014925D01*
X0114132Y0014925D01*
X0115115Y0015332D01*
X0115868Y0016085D01*
X0116275Y0017068D01*
X0116275Y0018132D01*
X0115868Y0019115D01*
X0115115Y0019868D01*
X0114132Y0020275D01*
X0113068Y0020275D01*
X0112085Y0019868D01*
X0111332Y0019115D01*
X0110925Y0018132D01*
X0110925Y0017453D01*
X0110644Y0017172D01*
X0110139Y0017677D01*
X0109072Y0017677D01*
X0105256Y0013860D01*
X0105256Y0013107D01*
X0105070Y0013157D01*
X0104675Y0013157D01*
X0104294Y0013055D01*
X0103952Y0012857D01*
X0102624Y0011529D01*
X0102196Y0010587D02*
X0103566Y0010587D01*
X0103194Y0009588D02*
X0104564Y0009588D01*
X0104193Y0008590D02*
X0103905Y0008590D01*
X0104734Y0008049D02*
X0102484Y0005799D01*
X0103673Y0004610D01*
X0104016Y0004413D01*
X0104397Y0004311D01*
X0104792Y0004311D01*
X0105173Y0004413D01*
X0105516Y0004610D01*
X0106844Y0005939D01*
X0104734Y0008049D01*
X0105191Y0007591D02*
X0106561Y0007591D01*
X0106190Y0006593D02*
X0122180Y0006593D01*
X0122190Y0006553D02*
X0122388Y0006210D01*
X0122667Y0005931D01*
X0123009Y0005734D01*
X0123391Y0005631D01*
X0125269Y0005631D01*
X0125269Y0008616D01*
X0122088Y0008616D01*
X0122088Y0006934D01*
X0122190Y0006553D01*
X0122088Y0007591D02*
X0108496Y0007591D01*
X0109134Y0008590D02*
X0122088Y0008590D01*
X0122088Y0009584D02*
X0125269Y0009584D01*
X0125269Y0008616D01*
X0126238Y0008616D01*
X0126238Y0005631D01*
X0128116Y0005631D01*
X0128498Y0005734D01*
X0128840Y0005931D01*
X0129119Y0006210D01*
X0129215Y0006377D01*
X0129748Y0005844D01*
X0135145Y0005844D01*
X0135899Y0006598D01*
X0135899Y0011602D01*
X0135145Y0012356D01*
X0134387Y0012356D01*
X0134387Y0014605D01*
X0134868Y0015085D01*
X0135275Y0016068D01*
X0135275Y0017132D01*
X0134868Y0018115D01*
X0134115Y0018868D01*
X0133132Y0019275D01*
X0132068Y0019275D01*
X0131085Y0018868D01*
X0130332Y0018115D01*
X0129925Y0017132D01*
X0129925Y0016068D01*
X0130332Y0015085D01*
X0130813Y0014605D01*
X0130813Y0012356D01*
X0129748Y0012356D01*
X0129215Y0011823D01*
X0129119Y0011990D01*
X0128840Y0012269D01*
X0128498Y0012466D01*
X0128116Y0012568D01*
X0126478Y0012568D01*
X0127115Y0012832D01*
X0127868Y0013585D01*
X0128275Y0014568D01*
X0128275Y0015632D01*
X0127868Y0016615D01*
X0127287Y0017195D01*
X0127287Y0024901D01*
X0128812Y0026425D01*
X0128843Y0026425D01*
X0128811Y0026303D01*
X0128811Y0025908D01*
X0128913Y0025527D01*
X0129110Y0025184D01*
X0130439Y0023856D01*
X0132549Y0025966D01*
X0133234Y0025281D01*
X0131124Y0023171D01*
X0132452Y0021843D01*
X0132794Y0021645D01*
X0133175Y0021543D01*
X0133570Y0021543D01*
X0133756Y0021593D01*
X0133756Y0020840D01*
X0137572Y0017023D01*
X0138394Y0017023D01*
X0138585Y0016832D01*
X0139568Y0016425D01*
X0140632Y0016425D01*
X0141615Y0016832D01*
X0142368Y0017585D01*
X0142775Y0018568D01*
X0142775Y0019632D01*
X0142368Y0020615D01*
X0142177Y0020806D01*
X0142177Y0021628D01*
X0138360Y0025444D01*
X0137607Y0025444D01*
X0137657Y0025630D01*
X0137657Y0026025D01*
X0137555Y0026406D01*
X0137357Y0026748D01*
X0136029Y0028076D01*
X0133919Y0025966D01*
X0133234Y0026651D01*
X0135344Y0028761D01*
X0134016Y0030090D01*
X0133673Y0030287D01*
X0133292Y0030389D01*
X0132897Y0030389D01*
X0132516Y0030287D01*
X0132173Y0030090D01*
X0131758Y0029674D01*
X0131368Y0030615D01*
X0130615Y0031368D01*
X0129632Y0031775D01*
X0128568Y0031775D01*
X0127585Y0031368D01*
X0126832Y0030615D01*
X0126425Y0029632D01*
X0126425Y0028812D01*
X0123913Y0026299D01*
X0123913Y0017195D01*
X0123332Y0016615D01*
X0122925Y0015632D01*
X0122925Y0014568D01*
X0123332Y0013585D01*
X0124085Y0012832D01*
X0124722Y0012568D01*
X0123391Y0012568D01*
X0123009Y0012466D01*
X0122667Y0012269D01*
X0122388Y0011990D01*
X0122190Y0011647D01*
X0122088Y0011266D01*
X0122088Y0009584D01*
X0122088Y0009588D02*
X0110193Y0009588D01*
X0111191Y0010587D02*
X0122088Y0010587D01*
X0122174Y0011585D02*
X0112190Y0011585D01*
X0113188Y0012584D02*
X0124685Y0012584D01*
X0123335Y0013582D02*
X0113677Y0013582D01*
X0113235Y0014581D02*
X0122925Y0014581D01*
X0122925Y0015579D02*
X0115362Y0015579D01*
X0116072Y0016578D02*
X0123317Y0016578D01*
X0123913Y0017576D02*
X0116275Y0017576D01*
X0116091Y0018575D02*
X0123913Y0018575D01*
X0123913Y0019573D02*
X0115410Y0019573D01*
X0113600Y0017600D02*
X0113600Y0017600D01*
X0109466Y0013466D01*
X0105976Y0014581D02*
X0100486Y0014581D01*
X0099572Y0014581D02*
X0098202Y0014581D01*
X0098573Y0015579D02*
X0097264Y0015579D01*
X0097203Y0015579D02*
X0095894Y0015579D01*
X0096205Y0016578D02*
X0096893Y0016578D01*
X0096576Y0017576D02*
X0095206Y0017576D01*
X0095477Y0020572D02*
X0096858Y0020572D01*
X0096129Y0021570D02*
X0097966Y0021570D01*
X0097173Y0022569D02*
X0098964Y0022569D01*
X0098172Y0023567D02*
X0099963Y0023567D01*
X0099170Y0024566D02*
X0100961Y0024566D01*
X0100169Y0025564D02*
X0103060Y0025564D01*
X0105140Y0025564D02*
X0123913Y0025564D01*
X0123913Y0024566D02*
X0106388Y0024566D01*
X0106775Y0023567D02*
X0123913Y0023567D01*
X0123913Y0022569D02*
X0106775Y0022569D01*
X0106353Y0021570D02*
X0123913Y0021570D01*
X0123913Y0020572D02*
X0106176Y0020572D01*
X0105178Y0019573D02*
X0111790Y0019573D01*
X0111109Y0018575D02*
X0104179Y0018575D01*
X0103181Y0017576D02*
X0108972Y0017576D01*
X0110239Y0017576D02*
X0110925Y0017576D01*
X0107973Y0016578D02*
X0101655Y0016578D01*
X0101431Y0015579D02*
X0106975Y0015579D01*
X0105256Y0013582D02*
X0099200Y0013582D01*
X0098489Y0012584D02*
X0103678Y0012584D01*
X0101681Y0010587D02*
X0082587Y0010587D01*
X0082775Y0009588D02*
X0100683Y0009588D01*
X0100311Y0008590D02*
X0082577Y0008590D01*
X0081874Y0007591D02*
X0100693Y0007591D01*
X0101691Y0006593D02*
X0079620Y0006593D01*
X0078622Y0005594D02*
X0102690Y0005594D01*
X0103277Y0006593D02*
X0101908Y0006593D01*
X0102906Y0007591D02*
X0104276Y0007591D01*
X0105275Y0008590D02*
X0105563Y0008590D01*
X0106499Y0005594D02*
X0189833Y0005594D01*
X0189800Y0005627D02*
X0190327Y0005100D01*
X0190627Y0004800D01*
X0210473Y0004800D01*
X0211300Y0005627D01*
X0211300Y0011573D01*
X0210773Y0012100D01*
X0210473Y0012400D01*
X0190627Y0012400D01*
X0190100Y0011873D01*
X0189800Y0011573D01*
X0189800Y0005627D01*
X0189800Y0006593D02*
X0135894Y0006593D01*
X0135899Y0007591D02*
X0189800Y0007591D01*
X0189800Y0008590D02*
X0135899Y0008590D01*
X0135899Y0009588D02*
X0189800Y0009588D01*
X0189800Y0010587D02*
X0135899Y0010587D01*
X0135899Y0011585D02*
X0189812Y0011585D01*
X0207745Y0022569D02*
X0141236Y0022569D01*
X0142177Y0021570D02*
X0208743Y0021570D01*
X0209742Y0020572D02*
X0142386Y0020572D01*
X0142775Y0019573D02*
X0210740Y0019573D01*
X0211739Y0018575D02*
X0142775Y0018575D01*
X0142359Y0017576D02*
X0212737Y0017576D01*
X0213736Y0016578D02*
X0141000Y0016578D01*
X0139200Y0016578D02*
X0135275Y0016578D01*
X0135091Y0017576D02*
X0137019Y0017576D01*
X0136021Y0018575D02*
X0134408Y0018575D01*
X0135022Y0019573D02*
X0127287Y0019573D01*
X0127287Y0018575D02*
X0130792Y0018575D01*
X0130109Y0017576D02*
X0127287Y0017576D01*
X0127883Y0016578D02*
X0129925Y0016578D01*
X0130128Y0015579D02*
X0128275Y0015579D01*
X0128275Y0014581D02*
X0130813Y0014581D01*
X0130813Y0013582D02*
X0127865Y0013582D01*
X0126515Y0012584D02*
X0130813Y0012584D01*
X0134387Y0012584D02*
X0216334Y0012584D01*
X0216332Y0012585D02*
X0217085Y0011832D01*
X0218068Y0011425D01*
X0219132Y0011425D01*
X0220115Y0011832D01*
X0220868Y0012585D01*
X0221275Y0013568D01*
X0221275Y0014632D01*
X0220868Y0015615D01*
X0220115Y0016368D01*
X0219132Y0016775D01*
X0218312Y0016775D01*
X0208174Y0026913D01*
X0216401Y0026913D01*
X0228925Y0014388D01*
X0228925Y0013568D01*
X0229332Y0012585D01*
X0230085Y0011832D01*
X0231068Y0011425D01*
X0232132Y0011425D01*
X0233115Y0011832D01*
X0233868Y0012585D01*
X0234266Y0013547D01*
X0235401Y0012413D01*
X0242505Y0012413D01*
X0243085Y0011832D01*
X0244068Y0011425D01*
X0245132Y0011425D01*
X0246115Y0011832D01*
X0246868Y0012585D01*
X0247275Y0013568D01*
X0247275Y0014632D01*
X0246868Y0015615D01*
X0246272Y0016211D01*
X0247034Y0016973D01*
X0247472Y0018029D01*
X0247472Y0019171D01*
X0247034Y0020227D01*
X0246227Y0021034D01*
X0245171Y0021472D01*
X0244029Y0021472D01*
X0242973Y0021034D01*
X0242166Y0020227D01*
X0241728Y0019171D01*
X0241728Y0018029D01*
X0242166Y0016973D01*
X0242928Y0016211D01*
X0242505Y0015787D01*
X0238814Y0015787D01*
X0239727Y0016166D01*
X0240534Y0016973D01*
X0240972Y0018029D01*
X0240972Y0019171D01*
X0240534Y0020227D01*
X0239727Y0021034D01*
X0238671Y0021472D01*
X0237529Y0021472D01*
X0236473Y0021034D01*
X0235666Y0020227D01*
X0235228Y0019171D01*
X0235228Y0018029D01*
X0235666Y0016973D01*
X0236473Y0016166D01*
X0237386Y0015787D01*
X0236799Y0015787D01*
X0220299Y0032287D01*
X0165799Y0032287D01*
X0141537Y0056549D01*
X0139799Y0058287D01*
X0109299Y0058287D01*
X0099287Y0068299D01*
X0098299Y0069287D01*
X0084799Y0069287D01*
X0053799Y0100287D01*
X0036299Y0100287D01*
X0029287Y0107299D01*
X0028299Y0108287D01*
X0027195Y0108287D01*
X0026615Y0108868D01*
X0025632Y0109275D01*
X0024568Y0109275D01*
X0023585Y0108868D01*
X0022832Y0108115D01*
X0022425Y0107132D01*
X0022425Y0106068D01*
X0022713Y0105373D01*
X0021775Y0106312D01*
X0021775Y0107132D01*
X0021368Y0108115D01*
X0020615Y0108868D01*
X0019632Y0109275D01*
X0018568Y0109275D01*
X0017585Y0108868D01*
X0016832Y0108115D01*
X0016425Y0107132D01*
X0016425Y0106068D01*
X0016832Y0105085D01*
X0017585Y0104332D01*
X0018568Y0103925D01*
X0019388Y0103925D01*
X0020913Y0102401D01*
X0021901Y0101413D01*
X0022749Y0101413D01*
X0022425Y0100632D01*
X0022425Y0099568D01*
X0022832Y0098585D01*
X0023585Y0097832D01*
X0024568Y0097425D01*
X0025388Y0097425D01*
X0029901Y0092913D01*
X0039249Y0092913D01*
X0038925Y0092132D01*
X0038925Y0091068D01*
X0039332Y0090085D01*
X0040085Y0089332D01*
X0041068Y0088925D01*
X0042132Y0088925D01*
X0043115Y0089332D01*
X0043695Y0089913D01*
X0049417Y0089913D01*
X0079917Y0060397D01*
X0080401Y0059913D01*
X0080417Y0059913D01*
X0080429Y0059901D01*
X0081114Y0059913D01*
X0093901Y0059913D01*
X0101913Y0051901D01*
X0101913Y0051695D01*
X0101332Y0051115D01*
X0100925Y0050132D01*
X0100925Y0049068D01*
X0101332Y0048085D01*
X0102085Y0047332D01*
X0103068Y0046925D01*
X0104132Y0046925D01*
X0105115Y0047332D01*
X0105868Y0048085D01*
X0106275Y0049068D01*
X0106275Y0050132D01*
X0105951Y0050913D01*
X0136401Y0050913D01*
X0162401Y0024913D01*
X0205401Y0024913D01*
X0215925Y0014388D01*
X0215925Y0013568D01*
X0216332Y0012585D01*
X0215925Y0013582D02*
X0134387Y0013582D01*
X0134387Y0014581D02*
X0215733Y0014581D01*
X0214734Y0015579D02*
X0135072Y0015579D01*
X0132600Y0016600D02*
X0132600Y0009254D01*
X0132446Y0009100D01*
X0126238Y0008590D02*
X0125269Y0008590D01*
X0125269Y0007591D02*
X0126238Y0007591D01*
X0126238Y0006593D02*
X0125269Y0006593D01*
X0105490Y0004596D02*
X0227275Y0004596D01*
X0228273Y0005594D02*
X0211267Y0005594D01*
X0211300Y0006593D02*
X0229272Y0006593D01*
X0226276Y0003597D02*
X0007924Y0003597D01*
X0012100Y0005600D02*
X0007100Y0010600D01*
X0007100Y0014446D01*
X0007254Y0014600D01*
X0010509Y0014581D02*
X0010691Y0014581D01*
X0010691Y0015579D02*
X0010509Y0015579D01*
X0010509Y0016578D02*
X0010691Y0016578D01*
X0010968Y0017576D02*
X0010232Y0017576D01*
X0012742Y0020572D02*
X0004387Y0020572D01*
X0004387Y0019573D02*
X0013740Y0019573D01*
X0014739Y0018575D02*
X0004387Y0018575D01*
X0006769Y0021570D02*
X0007738Y0021570D01*
X0007738Y0022569D02*
X0006769Y0022569D01*
X0006769Y0023567D02*
X0007738Y0023567D01*
X0007254Y0024600D02*
X0007254Y0029754D01*
X0009600Y0032100D01*
X0009600Y0036600D01*
X0004387Y0036548D02*
X0024925Y0036548D01*
X0024925Y0036068D02*
X0025332Y0035085D01*
X0026085Y0034332D01*
X0027068Y0033925D01*
X0028132Y0033925D01*
X0029115Y0034332D01*
X0029695Y0034913D01*
X0059799Y0034913D01*
X0060787Y0035901D01*
X0069299Y0044413D01*
X0089401Y0044413D01*
X0095413Y0038401D01*
X0096401Y0037413D01*
X0105505Y0037413D01*
X0106085Y0036832D01*
X0107068Y0036425D01*
X0108132Y0036425D01*
X0109115Y0036832D01*
X0109868Y0037585D01*
X0109913Y0037694D01*
X0109913Y0037195D01*
X0109332Y0036615D01*
X0108925Y0035632D01*
X0108925Y0034568D01*
X0109332Y0033585D01*
X0110085Y0032832D01*
X0111068Y0032425D01*
X0112132Y0032425D01*
X0113115Y0032832D01*
X0113868Y0033585D01*
X0114275Y0034568D01*
X0114275Y0035632D01*
X0113868Y0036615D01*
X0113287Y0037195D01*
X0113287Y0041299D01*
X0112299Y0042287D01*
X0111287Y0043299D01*
X0110299Y0044287D01*
X0098299Y0044287D01*
X0094373Y0048213D01*
X0095068Y0047925D01*
X0096132Y0047925D01*
X0097115Y0048332D01*
X0097868Y0049085D01*
X0098275Y0050068D01*
X0098275Y0051132D01*
X0097868Y0052115D01*
X0097115Y0052868D01*
X0096132Y0053275D01*
X0095068Y0053275D01*
X0094214Y0052921D01*
X0094275Y0053068D01*
X0094275Y0054132D01*
X0093868Y0055115D01*
X0093115Y0055868D01*
X0092132Y0056275D01*
X0091068Y0056275D01*
X0090085Y0055868D01*
X0089505Y0055287D01*
X0072299Y0055287D01*
X0071194Y0056393D01*
X0071226Y0056425D01*
X0071632Y0056425D01*
X0072615Y0056832D01*
X0073368Y0057585D01*
X0073775Y0058568D01*
X0073775Y0059632D01*
X0073368Y0060615D01*
X0072615Y0061368D01*
X0071632Y0061775D01*
X0071226Y0061775D01*
X0070645Y0062356D01*
X0065248Y0062356D01*
X0064715Y0061823D01*
X0064619Y0061990D01*
X0064340Y0062269D01*
X0063998Y0062466D01*
X0063616Y0062568D01*
X0061738Y0062568D01*
X0061738Y0059584D01*
X0060769Y0059584D01*
X0060769Y0058616D01*
X0057588Y0058616D01*
X0057588Y0057287D01*
X0056299Y0057287D01*
X0055287Y0058299D01*
X0055287Y0061299D01*
X0049787Y0066799D01*
X0048799Y0067787D01*
X0039401Y0067787D01*
X0037166Y0065553D01*
X0035752Y0065553D01*
X0034998Y0064799D01*
X0034998Y0063787D01*
X0029299Y0063787D01*
X0028287Y0064799D01*
X0028287Y0065763D01*
X0028383Y0065763D01*
X0029100Y0066479D01*
X0029817Y0065763D01*
X0033383Y0065763D01*
X0034137Y0066517D01*
X0034137Y0071310D01*
X0034753Y0071925D01*
X0034974Y0071925D01*
X0035555Y0071344D01*
X0040952Y0071344D01*
X0041485Y0071877D01*
X0041581Y0071710D01*
X0041860Y0071431D01*
X0042202Y0071234D01*
X0042584Y0071131D01*
X0044462Y0071131D01*
X0044462Y0074116D01*
X0045431Y0074116D01*
X0045431Y0075084D01*
X0048612Y0075084D01*
X0048612Y0076766D01*
X0048510Y0077147D01*
X0048312Y0077490D01*
X0048033Y0077769D01*
X0047784Y0077913D01*
X0049901Y0077913D01*
X0056425Y0071388D01*
X0056425Y0070568D01*
X0056832Y0069585D01*
X0057585Y0068832D01*
X0058568Y0068425D01*
X0059632Y0068425D01*
X0060615Y0068832D01*
X0061368Y0069585D01*
X0061775Y0070568D01*
X0061775Y0071632D01*
X0061368Y0072615D01*
X0060615Y0073368D01*
X0059632Y0073775D01*
X0058812Y0073775D01*
X0051299Y0081287D01*
X0018901Y0081287D01*
X0017913Y0080299D01*
X0014913Y0077299D01*
X0014913Y0076837D01*
X0014817Y0076837D01*
X0014063Y0076083D01*
X0014063Y0066517D01*
X0014817Y0065763D01*
X0018383Y0065763D01*
X0019100Y0066479D01*
X0019817Y0065763D01*
X0019913Y0065763D01*
X0019913Y0057901D01*
X0020901Y0056913D01*
X0020925Y0056888D01*
X0020925Y0056068D01*
X0021332Y0055085D01*
X0022085Y0054332D01*
X0022694Y0054080D01*
X0020051Y0051437D01*
X0019817Y0051437D01*
X0019197Y0050817D01*
X0019050Y0051071D01*
X0018771Y0051350D01*
X0018429Y0051548D01*
X0018047Y0051650D01*
X0016725Y0051650D01*
X0016725Y0046025D01*
X0016475Y0046025D01*
X0016475Y0051650D01*
X0015153Y0051650D01*
X0014771Y0051548D01*
X0014429Y0051350D01*
X0014150Y0051071D01*
X0013952Y0050729D01*
X0013850Y0050347D01*
X0013850Y0046025D01*
X0016475Y0046025D01*
X0016475Y0045775D01*
X0016725Y0045775D01*
X0016725Y0040150D01*
X0018047Y0040150D01*
X0018429Y0040252D01*
X0018771Y0040450D01*
X0019050Y0040729D01*
X0019197Y0040983D01*
X0019817Y0040363D01*
X0023383Y0040363D01*
X0024100Y0041079D01*
X0024817Y0040363D01*
X0025451Y0040363D01*
X0025901Y0039913D01*
X0026694Y0039120D01*
X0026085Y0038868D01*
X0025332Y0038115D01*
X0024925Y0037132D01*
X0024925Y0036068D01*
X0025140Y0035549D02*
X0004387Y0035549D01*
X0004387Y0034551D02*
X0025866Y0034551D01*
X0025097Y0037546D02*
X0004387Y0037546D01*
X0004387Y0038545D02*
X0025762Y0038545D01*
X0026270Y0039543D02*
X0004387Y0039543D01*
X0004387Y0040542D02*
X0014337Y0040542D01*
X0014429Y0040450D02*
X0014771Y0040252D01*
X0015153Y0040150D01*
X0016475Y0040150D01*
X0016475Y0045775D01*
X0013850Y0045775D01*
X0013850Y0041453D01*
X0013952Y0041071D01*
X0014150Y0040729D01*
X0014429Y0040450D01*
X0013850Y0041540D02*
X0004387Y0041540D01*
X0004387Y0042539D02*
X0013850Y0042539D01*
X0013850Y0043537D02*
X0004387Y0043537D01*
X0004387Y0044536D02*
X0013850Y0044536D01*
X0013850Y0045534D02*
X0004387Y0045534D01*
X0004387Y0046533D02*
X0013850Y0046533D01*
X0013850Y0047532D02*
X0004387Y0047532D01*
X0004387Y0048530D02*
X0013850Y0048530D01*
X0013850Y0049529D02*
X0004387Y0049529D01*
X0004387Y0050527D02*
X0013898Y0050527D01*
X0014733Y0051526D02*
X0004387Y0051526D01*
X0004387Y0052524D02*
X0021138Y0052524D01*
X0022136Y0053523D02*
X0004387Y0053523D01*
X0004387Y0054521D02*
X0021896Y0054521D01*
X0021152Y0055520D02*
X0004387Y0055520D01*
X0004387Y0056518D02*
X0020925Y0056518D01*
X0020297Y0057517D02*
X0004387Y0057517D01*
X0004387Y0058515D02*
X0019913Y0058515D01*
X0019913Y0059514D02*
X0004387Y0059514D01*
X0004387Y0060512D02*
X0019913Y0060512D01*
X0019913Y0061511D02*
X0004387Y0061511D01*
X0004387Y0062509D02*
X0019913Y0062509D01*
X0019913Y0063508D02*
X0004387Y0063508D01*
X0004387Y0064506D02*
X0019913Y0064506D01*
X0019913Y0065505D02*
X0004387Y0065505D01*
X0004387Y0066503D02*
X0014076Y0066503D01*
X0014063Y0067502D02*
X0004387Y0067502D01*
X0004387Y0068500D02*
X0014063Y0068500D01*
X0014063Y0069499D02*
X0004387Y0069499D01*
X0004387Y0070497D02*
X0014063Y0070497D01*
X0014063Y0071496D02*
X0004387Y0071496D01*
X0004387Y0072494D02*
X0014063Y0072494D01*
X0014063Y0073493D02*
X0004387Y0073493D01*
X0004387Y0074491D02*
X0014063Y0074491D01*
X0014063Y0075490D02*
X0004387Y0075490D01*
X0004387Y0076488D02*
X0014468Y0076488D01*
X0015101Y0077487D02*
X0004387Y0077487D01*
X0004387Y0078485D02*
X0016099Y0078485D01*
X0017098Y0079484D02*
X0004387Y0079484D01*
X0004387Y0080482D02*
X0018096Y0080482D01*
X0004387Y0081481D02*
X0058130Y0081481D01*
X0057098Y0082479D02*
X0004387Y0082479D01*
X0004387Y0083478D02*
X0056066Y0083478D01*
X0055035Y0084476D02*
X0004387Y0084476D01*
X0004387Y0085475D02*
X0054003Y0085475D01*
X0052971Y0086473D02*
X0004387Y0086473D01*
X0004387Y0087472D02*
X0051939Y0087472D01*
X0050907Y0088470D02*
X0004387Y0088470D01*
X0004387Y0089469D02*
X0039948Y0089469D01*
X0039174Y0090468D02*
X0004387Y0090468D01*
X0004387Y0091466D02*
X0038925Y0091466D01*
X0039063Y0092465D02*
X0004387Y0092465D01*
X0004387Y0093463D02*
X0029351Y0093463D01*
X0028352Y0094462D02*
X0004387Y0094462D01*
X0004387Y0095460D02*
X0027354Y0095460D01*
X0026355Y0096459D02*
X0004387Y0096459D01*
X0004387Y0097457D02*
X0024491Y0097457D01*
X0022962Y0098456D02*
X0004387Y0098456D01*
X0004387Y0099454D02*
X0022472Y0099454D01*
X0022425Y0100453D02*
X0004387Y0100453D01*
X0004387Y0101451D02*
X0021863Y0101451D01*
X0020913Y0102401D02*
X0020913Y0102401D01*
X0020864Y0102450D02*
X0004387Y0102450D01*
X0004387Y0103448D02*
X0019866Y0103448D01*
X0017471Y0104447D02*
X0004387Y0104447D01*
X0004387Y0105445D02*
X0016683Y0105445D01*
X0016425Y0106444D02*
X0004387Y0106444D01*
X0004387Y0107442D02*
X0016554Y0107442D01*
X0017158Y0108441D02*
X0004387Y0108441D01*
X0004387Y0109439D02*
X0039713Y0109439D01*
X0039713Y0108441D02*
X0027042Y0108441D01*
X0029144Y0107442D02*
X0040589Y0107442D01*
X0039713Y0110438D02*
X0004387Y0110438D01*
X0004387Y0111436D02*
X0039713Y0111436D01*
X0039713Y0112435D02*
X0004387Y0112435D01*
X0004387Y0113433D02*
X0039713Y0113433D01*
X0039713Y0114432D02*
X0004387Y0114432D01*
X0004387Y0115430D02*
X0039713Y0115430D01*
X0039713Y0116429D02*
X0004387Y0116429D01*
X0004387Y0117427D02*
X0039713Y0117427D01*
X0039713Y0118426D02*
X0004387Y0118426D01*
X0004387Y0119424D02*
X0039713Y0119424D01*
X0039713Y0120423D02*
X0004387Y0120423D01*
X0004387Y0121421D02*
X0039713Y0121421D01*
X0037860Y0122420D02*
X0036860Y0122420D01*
X0036860Y0122147D02*
X0036860Y0126100D01*
X0033301Y0126100D01*
X0033301Y0123450D01*
X0033403Y0123068D01*
X0033600Y0122726D01*
X0033880Y0122447D01*
X0034222Y0122249D01*
X0034603Y0122147D01*
X0036860Y0122147D01*
X0036860Y0123418D02*
X0037860Y0123418D01*
X0037860Y0124417D02*
X0036860Y0124417D01*
X0036860Y0125415D02*
X0037860Y0125415D01*
X0036860Y0126414D02*
X0004387Y0126414D01*
X0004387Y0127412D02*
X0033301Y0127412D01*
X0033301Y0128411D02*
X0004387Y0128411D01*
X0004387Y0129409D02*
X0033301Y0129409D01*
X0033563Y0130408D02*
X0004387Y0130408D01*
X0004387Y0131406D02*
X0039713Y0131406D01*
X0039713Y0132405D02*
X0004387Y0132405D01*
X0004387Y0133403D02*
X0039713Y0133403D01*
X0039713Y0134402D02*
X0004387Y0134402D01*
X0004387Y0135401D02*
X0039713Y0135401D01*
X0039713Y0136399D02*
X0004387Y0136399D01*
X0004718Y0137398D02*
X0039713Y0137398D01*
X0039713Y0138396D02*
X0005717Y0138396D01*
X0006715Y0139395D02*
X0039713Y0139395D01*
X0039713Y0140393D02*
X0007714Y0140393D01*
X0008712Y0141392D02*
X0039713Y0141392D01*
X0039713Y0142390D02*
X0009711Y0142390D01*
X0010709Y0143389D02*
X0039713Y0143389D01*
X0039713Y0144387D02*
X0011708Y0144387D01*
X0012706Y0145386D02*
X0039713Y0145386D01*
X0039713Y0146384D02*
X0013705Y0146384D01*
X0014703Y0147383D02*
X0039713Y0147383D01*
X0039713Y0148381D02*
X0015702Y0148381D01*
X0036860Y0130408D02*
X0037860Y0130408D01*
X0037860Y0129409D02*
X0036860Y0129409D01*
X0036860Y0128411D02*
X0037860Y0128411D01*
X0037860Y0127412D02*
X0036860Y0127412D01*
X0033301Y0125415D02*
X0004387Y0125415D01*
X0004387Y0124417D02*
X0033301Y0124417D01*
X0033309Y0123418D02*
X0004387Y0123418D01*
X0004387Y0122420D02*
X0033927Y0122420D01*
X0053467Y0134402D02*
X0094486Y0134402D01*
X0094799Y0134716D02*
X0093610Y0133527D01*
X0093413Y0133184D01*
X0093311Y0132803D01*
X0093311Y0132408D01*
X0093413Y0132027D01*
X0093610Y0131684D01*
X0094939Y0130356D01*
X0097049Y0132466D01*
X0097734Y0131781D01*
X0095624Y0129671D01*
X0096952Y0128343D01*
X0097294Y0128145D01*
X0097675Y0128043D01*
X0098070Y0128043D01*
X0098256Y0128093D01*
X0098256Y0127340D01*
X0102072Y0123523D01*
X0102425Y0123523D01*
X0102425Y0122568D01*
X0102832Y0121585D01*
X0103585Y0120832D01*
X0104568Y0120425D01*
X0105632Y0120425D01*
X0106615Y0120832D01*
X0107368Y0121585D01*
X0107775Y0122568D01*
X0107775Y0123632D01*
X0107368Y0124615D01*
X0106787Y0125195D01*
X0106787Y0125799D01*
X0106101Y0126485D01*
X0106677Y0127061D01*
X0106677Y0128128D01*
X0102860Y0131944D01*
X0102107Y0131944D01*
X0102157Y0132130D01*
X0102157Y0132525D01*
X0102055Y0132906D01*
X0101857Y0133248D01*
X0100529Y0134576D01*
X0098419Y0132466D01*
X0097734Y0133151D01*
X0099844Y0135261D01*
X0098516Y0136590D01*
X0098173Y0136787D01*
X0097792Y0136889D01*
X0097397Y0136889D01*
X0097016Y0136787D01*
X0096673Y0136590D01*
X0095484Y0135401D01*
X0052987Y0135401D01*
X0052987Y0136399D02*
X0096483Y0136399D01*
X0095484Y0135401D02*
X0097734Y0133151D01*
X0097049Y0132466D01*
X0094799Y0134716D01*
X0095113Y0134402D02*
X0096483Y0134402D01*
X0096112Y0133403D02*
X0097481Y0133403D01*
X0097986Y0133403D02*
X0099356Y0133403D01*
X0098985Y0134402D02*
X0100354Y0134402D01*
X0100703Y0134402D02*
X0107193Y0134402D01*
X0106291Y0135304D02*
X0110108Y0131488D01*
X0111174Y0131488D01*
X0112022Y0132335D01*
X0112332Y0131585D01*
X0112513Y0131405D01*
X0112513Y0088965D01*
X0098323Y0074775D01*
X0098068Y0074775D01*
X0097085Y0074368D01*
X0096332Y0073615D01*
X0095925Y0072632D01*
X0095925Y0071568D01*
X0096332Y0070585D01*
X0097085Y0069832D01*
X0098068Y0069425D01*
X0099132Y0069425D01*
X0100115Y0069832D01*
X0100868Y0070585D01*
X0101275Y0071568D01*
X0101275Y0071823D01*
X0116687Y0087235D01*
X0116687Y0131405D01*
X0116868Y0131585D01*
X0117275Y0132568D01*
X0117275Y0133632D01*
X0116868Y0134615D01*
X0116115Y0135368D01*
X0115132Y0135775D01*
X0114712Y0135775D01*
X0114712Y0136092D01*
X0110896Y0139909D01*
X0110143Y0139909D01*
X0110192Y0140094D01*
X0110192Y0140489D01*
X0110090Y0140871D01*
X0109893Y0141213D01*
X0108564Y0142541D01*
X0106454Y0140431D01*
X0105769Y0141116D01*
X0105084Y0140431D01*
X0102835Y0142680D01*
X0101646Y0141491D01*
X0101448Y0141149D01*
X0101346Y0140767D01*
X0101346Y0140372D01*
X0101448Y0139991D01*
X0101646Y0139649D01*
X0102974Y0138321D01*
X0105084Y0140431D01*
X0105769Y0139746D01*
X0103659Y0137636D01*
X0104987Y0136307D01*
X0105329Y0136110D01*
X0105711Y0136008D01*
X0106106Y0136008D01*
X0106291Y0136057D01*
X0106291Y0135304D01*
X0106291Y0135401D02*
X0099705Y0135401D01*
X0098706Y0136399D02*
X0104896Y0136399D01*
X0103897Y0137398D02*
X0052987Y0137398D01*
X0052987Y0138396D02*
X0102899Y0138396D01*
X0103050Y0138396D02*
X0104419Y0138396D01*
X0104048Y0139395D02*
X0105418Y0139395D01*
X0105122Y0140393D02*
X0105047Y0140393D01*
X0105769Y0141116D02*
X0103520Y0143365D01*
X0104709Y0144554D01*
X0105051Y0144752D01*
X0105433Y0144854D01*
X0105828Y0144854D01*
X0106209Y0144752D01*
X0106551Y0144554D01*
X0107879Y0143226D01*
X0105769Y0141116D01*
X0105493Y0141392D02*
X0104124Y0141392D01*
X0104495Y0142390D02*
X0103125Y0142390D01*
X0102545Y0142390D02*
X0097562Y0142390D01*
X0097171Y0142228D02*
X0098227Y0142666D01*
X0099034Y0143473D01*
X0099472Y0144529D01*
X0099472Y0145671D01*
X0099034Y0146727D01*
X0098227Y0147534D01*
X0097171Y0147972D01*
X0096029Y0147972D01*
X0094973Y0147534D01*
X0094166Y0146727D01*
X0094100Y0146568D01*
X0094034Y0146727D01*
X0093227Y0147534D01*
X0092171Y0147972D01*
X0091029Y0147972D01*
X0089973Y0147534D01*
X0089166Y0146727D01*
X0088728Y0145671D01*
X0088728Y0144529D01*
X0089166Y0143473D01*
X0089973Y0142666D01*
X0091029Y0142228D01*
X0092171Y0142228D01*
X0093227Y0142666D01*
X0094034Y0143473D01*
X0094100Y0143632D01*
X0094166Y0143473D01*
X0094973Y0142666D01*
X0096029Y0142228D01*
X0097171Y0142228D01*
X0095638Y0142390D02*
X0092562Y0142390D01*
X0093950Y0143389D02*
X0094250Y0143389D01*
X0090638Y0142390D02*
X0052987Y0142390D01*
X0052987Y0141392D02*
X0101588Y0141392D01*
X0101346Y0140393D02*
X0052987Y0140393D01*
X0052987Y0139395D02*
X0101900Y0139395D01*
X0106045Y0141392D02*
X0107415Y0141392D01*
X0107044Y0142390D02*
X0108413Y0142390D01*
X0108715Y0142390D02*
X0142485Y0142390D01*
X0141856Y0141761D02*
X0143966Y0139651D01*
X0143281Y0138966D01*
X0141171Y0141076D01*
X0139843Y0139748D01*
X0139645Y0139406D01*
X0139543Y0139025D01*
X0139543Y0138630D01*
X0139593Y0138444D01*
X0138840Y0138444D01*
X0135023Y0134628D01*
X0135023Y0133806D01*
X0134332Y0133115D01*
X0133925Y0132132D01*
X0133925Y0131068D01*
X0134332Y0130085D01*
X0135085Y0129332D01*
X0136068Y0128925D01*
X0137132Y0128925D01*
X0138115Y0129332D01*
X0138806Y0130023D01*
X0139628Y0130023D01*
X0143444Y0133840D01*
X0143444Y0134593D01*
X0143630Y0134543D01*
X0144025Y0134543D01*
X0144406Y0134645D01*
X0144748Y0134843D01*
X0146076Y0136171D01*
X0143966Y0138281D01*
X0144651Y0138966D01*
X0146761Y0136856D01*
X0148090Y0138184D01*
X0148287Y0138527D01*
X0148389Y0138908D01*
X0148389Y0139303D01*
X0148287Y0139684D01*
X0148090Y0140027D01*
X0146901Y0141216D01*
X0144651Y0138966D01*
X0143966Y0139651D01*
X0146216Y0141900D01*
X0145027Y0143090D01*
X0144684Y0143287D01*
X0144303Y0143389D01*
X0143908Y0143389D01*
X0143527Y0143287D01*
X0143184Y0143090D01*
X0141856Y0141761D01*
X0142226Y0141392D02*
X0109714Y0141392D01*
X0110192Y0140393D02*
X0140488Y0140393D01*
X0139642Y0139395D02*
X0111410Y0139395D01*
X0112408Y0138396D02*
X0138792Y0138396D01*
X0137793Y0137398D02*
X0113407Y0137398D01*
X0114405Y0136399D02*
X0136795Y0136399D01*
X0135796Y0135401D02*
X0116036Y0135401D01*
X0116956Y0134402D02*
X0135023Y0134402D01*
X0134621Y0133403D02*
X0117275Y0133403D01*
X0117207Y0132405D02*
X0134038Y0132405D01*
X0133925Y0131406D02*
X0116689Y0131406D01*
X0116687Y0130408D02*
X0134199Y0130408D01*
X0135008Y0129409D02*
X0116687Y0129409D01*
X0116687Y0128411D02*
X0236313Y0128411D01*
X0236313Y0129409D02*
X0138192Y0129409D01*
X0140013Y0130408D02*
X0236313Y0130408D01*
X0236313Y0131406D02*
X0141011Y0131406D01*
X0142010Y0132405D02*
X0236313Y0132405D01*
X0236313Y0133403D02*
X0143008Y0133403D01*
X0143444Y0134402D02*
X0236313Y0134402D01*
X0236313Y0135401D02*
X0145306Y0135401D01*
X0145849Y0136399D02*
X0236313Y0136399D01*
X0236313Y0137398D02*
X0147303Y0137398D01*
X0146220Y0137398D02*
X0144850Y0137398D01*
X0145221Y0138396D02*
X0144081Y0138396D01*
X0144223Y0139395D02*
X0145079Y0139395D01*
X0144708Y0140393D02*
X0146078Y0140393D01*
X0145707Y0141392D02*
X0183026Y0141392D01*
X0182832Y0141585D02*
X0183585Y0140832D01*
X0184568Y0140425D01*
X0184974Y0140425D01*
X0185555Y0139844D01*
X0190952Y0139844D01*
X0191485Y0140377D01*
X0191581Y0140210D01*
X0191860Y0139931D01*
X0192202Y0139734D01*
X0192584Y0139631D01*
X0194462Y0139631D01*
X0194462Y0142616D01*
X0195431Y0142616D01*
X0195431Y0143584D01*
X0198612Y0143584D01*
X0198612Y0145266D01*
X0198510Y0145647D01*
X0198312Y0145990D01*
X0198033Y0146269D01*
X0197691Y0146466D01*
X0197309Y0146568D01*
X0195431Y0146568D01*
X0195431Y0143584D01*
X0194462Y0143584D01*
X0194462Y0146568D01*
X0192584Y0146568D01*
X0192202Y0146466D01*
X0191860Y0146269D01*
X0191581Y0145990D01*
X0191485Y0145823D01*
X0190952Y0146356D01*
X0185555Y0146356D01*
X0184974Y0145775D01*
X0184568Y0145775D01*
X0183585Y0145368D01*
X0182832Y0144615D01*
X0182425Y0143632D01*
X0182425Y0142568D01*
X0182832Y0141585D01*
X0182499Y0142390D02*
X0145726Y0142390D01*
X0144306Y0143389D02*
X0182425Y0143389D01*
X0182738Y0144387D02*
X0106718Y0144387D01*
X0107717Y0143389D02*
X0143905Y0143389D01*
X0143224Y0140393D02*
X0141855Y0140393D01*
X0142853Y0139395D02*
X0143710Y0139395D01*
X0147723Y0140393D02*
X0185006Y0140393D01*
X0185100Y0143100D02*
X0188254Y0143100D01*
X0192060Y0146384D02*
X0099176Y0146384D01*
X0099472Y0145386D02*
X0183628Y0145386D01*
X0194462Y0145386D02*
X0195431Y0145386D01*
X0195431Y0146384D02*
X0194462Y0146384D01*
X0194462Y0144387D02*
X0195431Y0144387D01*
X0195431Y0143389D02*
X0236313Y0143389D01*
X0236313Y0144387D02*
X0198612Y0144387D01*
X0198580Y0145386D02*
X0236313Y0145386D01*
X0236313Y0146384D02*
X0197833Y0146384D01*
X0198612Y0142616D02*
X0195431Y0142616D01*
X0195431Y0139631D01*
X0197309Y0139631D01*
X0197691Y0139734D01*
X0198033Y0139931D01*
X0198312Y0140210D01*
X0198510Y0140553D01*
X0198612Y0140934D01*
X0198612Y0142616D01*
X0198612Y0142390D02*
X0236313Y0142390D01*
X0236313Y0141392D02*
X0198612Y0141392D01*
X0198418Y0140393D02*
X0236313Y0140393D01*
X0236313Y0139395D02*
X0148365Y0139395D01*
X0148212Y0138396D02*
X0236313Y0138396D01*
X0235997Y0147383D02*
X0098378Y0147383D01*
X0094822Y0147383D02*
X0093378Y0147383D01*
X0089822Y0147383D02*
X0052987Y0147383D01*
X0052987Y0148381D02*
X0234998Y0148381D01*
X0236313Y0127412D02*
X0116687Y0127412D01*
X0116687Y0126414D02*
X0236313Y0126414D01*
X0236464Y0125415D02*
X0116687Y0125415D01*
X0116687Y0124417D02*
X0237462Y0124417D01*
X0238461Y0123418D02*
X0196064Y0123418D01*
X0196368Y0123115D02*
X0195615Y0123868D01*
X0194632Y0124275D01*
X0193568Y0124275D01*
X0192585Y0123868D01*
X0191832Y0123115D01*
X0191425Y0122132D01*
X0191425Y0121068D01*
X0191832Y0120085D01*
X0192585Y0119332D01*
X0193568Y0118925D01*
X0194632Y0118925D01*
X0195615Y0119332D01*
X0196368Y0120085D01*
X0196775Y0121068D01*
X0196775Y0122132D01*
X0196368Y0123115D01*
X0196656Y0122420D02*
X0239459Y0122420D01*
X0240458Y0121421D02*
X0196775Y0121421D01*
X0196508Y0120423D02*
X0241456Y0120423D01*
X0242455Y0119424D02*
X0195707Y0119424D01*
X0192493Y0119424D02*
X0154275Y0119424D01*
X0154275Y0119632D02*
X0154275Y0118568D01*
X0153868Y0117585D01*
X0153115Y0116832D01*
X0152132Y0116425D01*
X0151068Y0116425D01*
X0150085Y0116832D01*
X0149332Y0117585D01*
X0148925Y0118568D01*
X0148925Y0119632D01*
X0149332Y0120615D01*
X0150085Y0121368D01*
X0151068Y0121775D01*
X0152132Y0121775D01*
X0153115Y0121368D01*
X0153868Y0120615D01*
X0154275Y0119632D01*
X0153947Y0120423D02*
X0191692Y0120423D01*
X0191425Y0121421D02*
X0152985Y0121421D01*
X0150215Y0121421D02*
X0116687Y0121421D01*
X0116687Y0120423D02*
X0149253Y0120423D01*
X0148925Y0119424D02*
X0116687Y0119424D01*
X0116687Y0118426D02*
X0148984Y0118426D01*
X0149490Y0117427D02*
X0133471Y0117427D01*
X0133615Y0117368D02*
X0132632Y0117775D01*
X0131568Y0117775D01*
X0130585Y0117368D01*
X0130394Y0117177D01*
X0129572Y0117177D01*
X0125756Y0113360D01*
X0125756Y0112607D01*
X0125570Y0112657D01*
X0125175Y0112657D01*
X0124794Y0112555D01*
X0124452Y0112357D01*
X0123124Y0111029D01*
X0125234Y0108919D01*
X0124549Y0108234D01*
X0122439Y0110344D01*
X0121110Y0109016D01*
X0120913Y0108673D01*
X0120811Y0108292D01*
X0120811Y0107897D01*
X0120913Y0107516D01*
X0121110Y0107173D01*
X0122299Y0105984D01*
X0124549Y0108234D01*
X0125234Y0107549D01*
X0125919Y0108234D01*
X0128029Y0106124D01*
X0129357Y0107452D01*
X0129555Y0107794D01*
X0129657Y0108175D01*
X0129657Y0108570D01*
X0129607Y0108756D01*
X0130360Y0108756D01*
X0134177Y0112572D01*
X0134177Y0113394D01*
X0134368Y0113585D01*
X0134775Y0114568D01*
X0134775Y0115632D01*
X0134368Y0116615D01*
X0133615Y0117368D01*
X0134445Y0116429D02*
X0151059Y0116429D01*
X0152141Y0116429D02*
X0245451Y0116429D01*
X0246449Y0115430D02*
X0134775Y0115430D01*
X0134718Y0114432D02*
X0247448Y0114432D01*
X0248446Y0113433D02*
X0134216Y0113433D01*
X0134039Y0112435D02*
X0249445Y0112435D01*
X0250443Y0111436D02*
X0133041Y0111436D01*
X0132042Y0110438D02*
X0251442Y0110438D01*
X0252440Y0109439D02*
X0131044Y0109439D01*
X0129657Y0108441D02*
X0138658Y0108441D01*
X0138332Y0108115D02*
X0137925Y0107132D01*
X0137925Y0106068D01*
X0138332Y0105085D01*
X0139085Y0104332D01*
X0140068Y0103925D01*
X0141132Y0103925D01*
X0142115Y0104332D01*
X0142868Y0105085D01*
X0143275Y0106068D01*
X0143275Y0107132D01*
X0142868Y0108115D01*
X0142115Y0108868D01*
X0141132Y0109275D01*
X0140068Y0109275D01*
X0139085Y0108868D01*
X0138332Y0108115D01*
X0138054Y0107442D02*
X0129347Y0107442D01*
X0128349Y0106444D02*
X0137925Y0106444D01*
X0138183Y0105445D02*
X0127337Y0105445D01*
X0127344Y0105439D02*
X0126016Y0104110D01*
X0125673Y0103913D01*
X0125292Y0103811D01*
X0124897Y0103811D01*
X0124516Y0103913D01*
X0124173Y0104110D01*
X0122984Y0105299D01*
X0125234Y0107549D01*
X0127344Y0105439D01*
X0127709Y0106444D02*
X0126339Y0106444D01*
X0126710Y0107442D02*
X0125340Y0107442D01*
X0125127Y0107442D02*
X0123757Y0107442D01*
X0124129Y0106444D02*
X0122759Y0106444D01*
X0121840Y0106444D02*
X0116687Y0106444D01*
X0116687Y0107442D02*
X0120955Y0107442D01*
X0120850Y0108441D02*
X0116687Y0108441D01*
X0116687Y0109439D02*
X0121534Y0109439D01*
X0123343Y0109439D02*
X0124713Y0109439D01*
X0124756Y0108441D02*
X0124342Y0108441D01*
X0123714Y0110438D02*
X0116687Y0110438D01*
X0116687Y0111436D02*
X0123531Y0111436D01*
X0124586Y0112435D02*
X0116687Y0112435D01*
X0116687Y0113433D02*
X0125829Y0113433D01*
X0126827Y0114432D02*
X0116687Y0114432D01*
X0116687Y0115430D02*
X0127826Y0115430D01*
X0128824Y0116429D02*
X0116687Y0116429D01*
X0116687Y0117427D02*
X0130729Y0117427D01*
X0132100Y0115100D02*
X0132100Y0115100D01*
X0129966Y0112966D01*
X0126352Y0104447D02*
X0138971Y0104447D01*
X0141344Y0103448D02*
X0116687Y0103448D01*
X0116687Y0102450D02*
X0140345Y0102450D01*
X0139347Y0101451D02*
X0116687Y0101451D01*
X0116687Y0100453D02*
X0138756Y0100453D01*
X0138756Y0100107D02*
X0138570Y0100157D01*
X0138175Y0100157D01*
X0137794Y0100055D01*
X0137452Y0099857D01*
X0136124Y0098529D01*
X0138234Y0096419D01*
X0137549Y0095734D01*
X0135439Y0097844D01*
X0134110Y0096516D01*
X0133913Y0096173D01*
X0133811Y0095792D01*
X0133811Y0095397D01*
X0133913Y0095016D01*
X0134110Y0094673D01*
X0135299Y0093484D01*
X0137549Y0095734D01*
X0138234Y0095049D01*
X0138919Y0095734D01*
X0141029Y0093624D01*
X0142357Y0094952D01*
X0142555Y0095294D01*
X0142657Y0095675D01*
X0142657Y0096070D01*
X0142607Y0096256D01*
X0143360Y0096256D01*
X0147177Y0100072D01*
X0147177Y0100894D01*
X0147368Y0101085D01*
X0147775Y0102068D01*
X0147775Y0103132D01*
X0147368Y0104115D01*
X0146615Y0104868D01*
X0145632Y0105275D01*
X0144568Y0105275D01*
X0143585Y0104868D01*
X0143394Y0104677D01*
X0142572Y0104677D01*
X0138756Y0100860D01*
X0138756Y0100107D01*
X0137049Y0099454D02*
X0116687Y0099454D01*
X0116687Y0098456D02*
X0136197Y0098456D01*
X0135825Y0097457D02*
X0137195Y0097457D01*
X0136824Y0096459D02*
X0138194Y0096459D01*
X0137822Y0095460D02*
X0137275Y0095460D01*
X0138234Y0095049D02*
X0135984Y0092799D01*
X0137173Y0091610D01*
X0137516Y0091413D01*
X0137897Y0091311D01*
X0138292Y0091311D01*
X0138673Y0091413D01*
X0139016Y0091610D01*
X0140344Y0092939D01*
X0138234Y0095049D01*
X0138645Y0095460D02*
X0139192Y0095460D01*
X0138821Y0094462D02*
X0140191Y0094462D01*
X0139819Y0093463D02*
X0210315Y0093463D01*
X0210085Y0093368D02*
X0209332Y0092615D01*
X0208925Y0091632D01*
X0208925Y0090568D01*
X0209332Y0089585D01*
X0210085Y0088832D01*
X0211068Y0088425D01*
X0212132Y0088425D01*
X0213115Y0088832D01*
X0213595Y0089313D01*
X0214147Y0089313D01*
X0214147Y0088445D01*
X0214901Y0087691D01*
X0220299Y0087691D01*
X0221053Y0088445D01*
X0221053Y0089313D01*
X0222344Y0089313D01*
X0222344Y0088248D01*
X0222992Y0087600D01*
X0222344Y0086952D01*
X0222344Y0081555D01*
X0223098Y0080801D01*
X0223913Y0080801D01*
X0223913Y0078695D01*
X0223332Y0078115D01*
X0222925Y0077132D01*
X0222925Y0076068D01*
X0223332Y0075085D01*
X0224085Y0074332D01*
X0224224Y0074275D01*
X0223568Y0074275D01*
X0222585Y0073868D01*
X0221832Y0073115D01*
X0221425Y0072132D01*
X0221425Y0071068D01*
X0221832Y0070085D01*
X0222585Y0069332D01*
X0223568Y0068925D01*
X0224632Y0068925D01*
X0225615Y0069332D01*
X0226195Y0069913D01*
X0227299Y0069913D01*
X0235287Y0077901D01*
X0235287Y0079299D01*
X0235287Y0080801D01*
X0236102Y0080801D01*
X0236856Y0081555D01*
X0236856Y0086952D01*
X0236208Y0087600D01*
X0236856Y0088248D01*
X0236856Y0093645D01*
X0236102Y0094399D01*
X0231098Y0094399D01*
X0230344Y0093645D01*
X0230344Y0092887D01*
X0228856Y0092887D01*
X0228856Y0093645D01*
X0228102Y0094399D01*
X0223098Y0094399D01*
X0222344Y0093645D01*
X0222344Y0092887D01*
X0221053Y0092887D01*
X0221053Y0093448D01*
X0220299Y0094202D01*
X0214901Y0094202D01*
X0214147Y0093448D01*
X0214147Y0092887D01*
X0213595Y0092887D01*
X0213115Y0093368D01*
X0212132Y0093775D01*
X0211068Y0093775D01*
X0210085Y0093368D01*
X0209270Y0092465D02*
X0139870Y0092465D01*
X0138766Y0091466D02*
X0208925Y0091466D01*
X0208967Y0090468D02*
X0116687Y0090468D01*
X0116687Y0091466D02*
X0137423Y0091466D01*
X0136319Y0092465D02*
X0116687Y0092465D01*
X0116687Y0093463D02*
X0136648Y0093463D01*
X0136277Y0094462D02*
X0137646Y0094462D01*
X0134322Y0094462D02*
X0116687Y0094462D01*
X0116687Y0095460D02*
X0133811Y0095460D01*
X0134077Y0096459D02*
X0116687Y0096459D01*
X0116687Y0097457D02*
X0135052Y0097457D01*
X0141867Y0094462D02*
X0255813Y0094462D01*
X0255813Y0095460D02*
X0142599Y0095460D01*
X0143563Y0096459D02*
X0255813Y0096459D01*
X0255813Y0097457D02*
X0144562Y0097457D01*
X0145560Y0098456D02*
X0255813Y0098456D01*
X0255813Y0099454D02*
X0146559Y0099454D01*
X0147177Y0100453D02*
X0255813Y0100453D01*
X0255813Y0101451D02*
X0147519Y0101451D01*
X0147775Y0102450D02*
X0255813Y0102450D01*
X0255813Y0103448D02*
X0147644Y0103448D01*
X0147036Y0104447D02*
X0255813Y0104447D01*
X0255813Y0105445D02*
X0143017Y0105445D01*
X0143275Y0106444D02*
X0255436Y0106444D01*
X0254437Y0107442D02*
X0143146Y0107442D01*
X0142542Y0108441D02*
X0253439Y0108441D01*
X0244452Y0117427D02*
X0153710Y0117427D01*
X0154216Y0118426D02*
X0243454Y0118426D01*
X0236856Y0093463D02*
X0255813Y0093463D01*
X0255813Y0092465D02*
X0236856Y0092465D01*
X0236856Y0091466D02*
X0255813Y0091466D01*
X0255813Y0090468D02*
X0236856Y0090468D01*
X0236856Y0089469D02*
X0255813Y0089469D01*
X0255813Y0088470D02*
X0236856Y0088470D01*
X0236336Y0087472D02*
X0255813Y0087472D01*
X0255813Y0086473D02*
X0236856Y0086473D01*
X0236856Y0085475D02*
X0255813Y0085475D01*
X0255813Y0084476D02*
X0236856Y0084476D01*
X0236856Y0083478D02*
X0255813Y0083478D01*
X0255813Y0082479D02*
X0236856Y0082479D01*
X0236782Y0081481D02*
X0255813Y0081481D01*
X0255813Y0080482D02*
X0235287Y0080482D01*
X0235287Y0079484D02*
X0255813Y0079484D01*
X0255813Y0078485D02*
X0235287Y0078485D01*
X0234873Y0077487D02*
X0255813Y0077487D01*
X0255813Y0076488D02*
X0233875Y0076488D01*
X0232876Y0075490D02*
X0255813Y0075490D01*
X0255813Y0074491D02*
X0231878Y0074491D01*
X0230879Y0073493D02*
X0255813Y0073493D01*
X0255813Y0072494D02*
X0229881Y0072494D01*
X0228882Y0071496D02*
X0255813Y0071496D01*
X0255813Y0070497D02*
X0227884Y0070497D01*
X0225781Y0069499D02*
X0255813Y0069499D01*
X0255813Y0068500D02*
X0219399Y0068500D01*
X0219399Y0067502D02*
X0255813Y0067502D01*
X0255813Y0066503D02*
X0219399Y0066503D01*
X0219399Y0065505D02*
X0255813Y0065505D01*
X0255813Y0064506D02*
X0218807Y0064506D01*
X0218645Y0064344D02*
X0219399Y0065098D01*
X0219399Y0070102D01*
X0218645Y0070856D01*
X0213248Y0070856D01*
X0212715Y0070323D01*
X0212619Y0070490D01*
X0212340Y0070769D01*
X0211998Y0070966D01*
X0211616Y0071068D01*
X0209738Y0071068D01*
X0209738Y0068084D01*
X0208769Y0068084D01*
X0208769Y0067116D01*
X0205588Y0067116D01*
X0205588Y0065434D01*
X0205690Y0065053D01*
X0205888Y0064710D01*
X0206167Y0064431D01*
X0206509Y0064234D01*
X0206891Y0064131D01*
X0208769Y0064131D01*
X0208769Y0067116D01*
X0209738Y0067116D01*
X0209738Y0064131D01*
X0211616Y0064131D01*
X0211998Y0064234D01*
X0212340Y0064431D01*
X0212619Y0064710D01*
X0212715Y0064877D01*
X0213248Y0064344D01*
X0213859Y0064344D01*
X0213859Y0062856D01*
X0213248Y0062856D01*
X0212715Y0062323D01*
X0212619Y0062490D01*
X0212340Y0062769D01*
X0211998Y0062966D01*
X0211616Y0063068D01*
X0209738Y0063068D01*
X0209738Y0060084D01*
X0208769Y0060084D01*
X0208769Y0059116D01*
X0205588Y0059116D01*
X0205588Y0057434D01*
X0205690Y0057053D01*
X0205888Y0056710D01*
X0206167Y0056431D01*
X0206509Y0056234D01*
X0206891Y0056131D01*
X0208769Y0056131D01*
X0208769Y0059116D01*
X0209738Y0059116D01*
X0209738Y0056131D01*
X0211616Y0056131D01*
X0211998Y0056234D01*
X0212340Y0056431D01*
X0212619Y0056710D01*
X0212715Y0056877D01*
X0212925Y0056667D01*
X0212925Y0056568D01*
X0213332Y0055585D01*
X0213817Y0055100D01*
X0213332Y0054615D01*
X0212925Y0053632D01*
X0212925Y0053533D01*
X0212715Y0053323D01*
X0212619Y0053490D01*
X0212340Y0053769D01*
X0211998Y0053966D01*
X0211616Y0054068D01*
X0209738Y0054068D01*
X0209738Y0051084D01*
X0208769Y0051084D01*
X0208769Y0050116D01*
X0205588Y0050116D01*
X0205588Y0048434D01*
X0205690Y0048053D01*
X0205888Y0047710D01*
X0206167Y0047431D01*
X0206509Y0047234D01*
X0206891Y0047131D01*
X0208769Y0047131D01*
X0208769Y0050116D01*
X0209738Y0050116D01*
X0209738Y0047131D01*
X0211616Y0047131D01*
X0211998Y0047234D01*
X0212340Y0047431D01*
X0212619Y0047710D01*
X0212715Y0047877D01*
X0213248Y0047344D01*
X0213859Y0047344D01*
X0213859Y0045856D01*
X0213248Y0045856D01*
X0212715Y0045323D01*
X0212619Y0045490D01*
X0212340Y0045769D01*
X0211998Y0045966D01*
X0211616Y0046068D01*
X0209738Y0046068D01*
X0209738Y0043084D01*
X0208769Y0043084D01*
X0208769Y0042116D01*
X0205588Y0042116D01*
X0205588Y0040434D01*
X0205690Y0040053D01*
X0205888Y0039710D01*
X0206167Y0039431D01*
X0206509Y0039234D01*
X0206891Y0039131D01*
X0208769Y0039131D01*
X0208769Y0042116D01*
X0209738Y0042116D01*
X0209738Y0039131D01*
X0211616Y0039131D01*
X0211998Y0039234D01*
X0212340Y0039431D01*
X0212619Y0039710D01*
X0212715Y0039877D01*
X0213248Y0039344D01*
X0218645Y0039344D01*
X0219399Y0040098D01*
X0219399Y0045102D01*
X0218645Y0045856D01*
X0218034Y0045856D01*
X0218034Y0047344D01*
X0218645Y0047344D01*
X0219399Y0048098D01*
X0219399Y0053102D01*
X0218645Y0053856D01*
X0218182Y0053856D01*
X0217868Y0054615D01*
X0217383Y0055100D01*
X0217868Y0055585D01*
X0218182Y0056344D01*
X0218645Y0056344D01*
X0219399Y0057098D01*
X0219399Y0062102D01*
X0218645Y0062856D01*
X0218034Y0062856D01*
X0218034Y0064344D01*
X0218645Y0064344D01*
X0218034Y0063508D02*
X0255813Y0063508D01*
X0255813Y0062509D02*
X0218992Y0062509D01*
X0219399Y0061511D02*
X0255813Y0061511D01*
X0255813Y0060512D02*
X0219399Y0060512D01*
X0219399Y0059514D02*
X0255813Y0059514D01*
X0255813Y0058515D02*
X0219399Y0058515D01*
X0219399Y0057517D02*
X0255813Y0057517D01*
X0255813Y0056518D02*
X0218819Y0056518D01*
X0217802Y0055520D02*
X0255813Y0055520D01*
X0255813Y0054521D02*
X0217907Y0054521D01*
X0218978Y0053523D02*
X0255813Y0053523D01*
X0255813Y0052524D02*
X0219399Y0052524D01*
X0219399Y0051526D02*
X0255813Y0051526D01*
X0255813Y0050527D02*
X0219399Y0050527D01*
X0219399Y0049529D02*
X0255813Y0049529D01*
X0255813Y0048530D02*
X0219399Y0048530D01*
X0218832Y0047532D02*
X0255813Y0047532D01*
X0255813Y0046533D02*
X0218034Y0046533D01*
X0218966Y0045534D02*
X0255813Y0045534D01*
X0255813Y0044536D02*
X0219399Y0044536D01*
X0219399Y0043537D02*
X0255813Y0043537D01*
X0255813Y0042539D02*
X0219399Y0042539D01*
X0219399Y0041540D02*
X0255813Y0041540D01*
X0255813Y0040542D02*
X0219399Y0040542D01*
X0218844Y0039543D02*
X0223495Y0039543D01*
X0223473Y0039534D02*
X0222666Y0038727D01*
X0222228Y0037671D01*
X0222228Y0036529D01*
X0222666Y0035473D01*
X0223473Y0034666D01*
X0224529Y0034228D01*
X0225671Y0034228D01*
X0225769Y0034269D01*
X0225728Y0034171D01*
X0225728Y0033029D01*
X0226166Y0031973D01*
X0226973Y0031166D01*
X0228029Y0030728D01*
X0229171Y0030728D01*
X0230227Y0031166D01*
X0231034Y0031973D01*
X0231472Y0033029D01*
X0231472Y0034171D01*
X0231034Y0035227D01*
X0230227Y0036034D01*
X0229171Y0036472D01*
X0228029Y0036472D01*
X0227931Y0036431D01*
X0227972Y0036529D01*
X0227972Y0037671D01*
X0227534Y0038727D01*
X0226727Y0039534D01*
X0225671Y0039972D01*
X0224529Y0039972D01*
X0223473Y0039534D01*
X0222590Y0038545D02*
X0159541Y0038545D01*
X0158543Y0039543D02*
X0206055Y0039543D01*
X0205588Y0040542D02*
X0177958Y0040542D01*
X0177527Y0040110D02*
X0178716Y0041299D01*
X0176466Y0043549D01*
X0174356Y0041439D01*
X0175684Y0040110D01*
X0176027Y0039913D01*
X0176408Y0039811D01*
X0176803Y0039811D01*
X0177184Y0039913D01*
X0177527Y0040110D01*
X0178475Y0041540D02*
X0205588Y0041540D01*
X0205588Y0043084D02*
X0208769Y0043084D01*
X0208769Y0046068D01*
X0206891Y0046068D01*
X0206509Y0045966D01*
X0206167Y0045769D01*
X0205888Y0045490D01*
X0205690Y0045147D01*
X0205588Y0044766D01*
X0205588Y0043084D01*
X0205588Y0043537D02*
X0196820Y0043537D01*
X0196615Y0043332D02*
X0197368Y0044085D01*
X0197775Y0045068D01*
X0197775Y0045667D01*
X0197985Y0045877D01*
X0198081Y0045710D01*
X0198360Y0045431D01*
X0198702Y0045234D01*
X0199084Y0045131D01*
X0200962Y0045131D01*
X0200962Y0048116D01*
X0201931Y0048116D01*
X0201931Y0049084D01*
X0205112Y0049084D01*
X0205112Y0050766D01*
X0205010Y0051147D01*
X0204812Y0051490D01*
X0204533Y0051769D01*
X0204191Y0051966D01*
X0203809Y0052068D01*
X0201931Y0052068D01*
X0201931Y0049084D01*
X0200962Y0049084D01*
X0200962Y0052068D01*
X0199084Y0052068D01*
X0198702Y0051966D01*
X0198360Y0051769D01*
X0198081Y0051490D01*
X0197985Y0051323D01*
X0197452Y0051856D01*
X0196841Y0051856D01*
X0196841Y0053344D01*
X0197452Y0053344D01*
X0197985Y0053877D01*
X0198081Y0053710D01*
X0198360Y0053431D01*
X0198702Y0053234D01*
X0199084Y0053131D01*
X0200962Y0053131D01*
X0200962Y0056116D01*
X0201931Y0056116D01*
X0201931Y0057084D01*
X0205112Y0057084D01*
X0205112Y0058766D01*
X0205010Y0059147D01*
X0204812Y0059490D01*
X0204533Y0059769D01*
X0204191Y0059966D01*
X0203809Y0060068D01*
X0201931Y0060068D01*
X0201931Y0057084D01*
X0200962Y0057084D01*
X0200962Y0060068D01*
X0199084Y0060068D01*
X0198702Y0059966D01*
X0198360Y0059769D01*
X0198081Y0059490D01*
X0197985Y0059323D01*
X0197452Y0059856D01*
X0192055Y0059856D01*
X0191301Y0059102D01*
X0191301Y0054098D01*
X0192055Y0053344D01*
X0192666Y0053344D01*
X0192666Y0051856D01*
X0192055Y0051856D01*
X0191301Y0051102D01*
X0191301Y0046098D01*
X0192055Y0045344D01*
X0192425Y0045344D01*
X0192425Y0045068D01*
X0192832Y0044085D01*
X0193585Y0043332D01*
X0194568Y0042925D01*
X0195632Y0042925D01*
X0196615Y0043332D01*
X0197554Y0044536D02*
X0205588Y0044536D01*
X0205933Y0045534D02*
X0204636Y0045534D01*
X0204533Y0045431D02*
X0204812Y0045710D01*
X0205010Y0046053D01*
X0205112Y0046434D01*
X0205112Y0048116D01*
X0201931Y0048116D01*
X0201931Y0045131D01*
X0203809Y0045131D01*
X0204191Y0045234D01*
X0204533Y0045431D01*
X0205112Y0046533D02*
X0213859Y0046533D01*
X0213060Y0047532D02*
X0212440Y0047532D01*
X0209738Y0047532D02*
X0208769Y0047532D01*
X0208769Y0048530D02*
X0209738Y0048530D01*
X0209738Y0049529D02*
X0208769Y0049529D01*
X0208769Y0050527D02*
X0205112Y0050527D01*
X0205588Y0051084D02*
X0208769Y0051084D01*
X0208769Y0054068D01*
X0206891Y0054068D01*
X0206509Y0053966D01*
X0206167Y0053769D01*
X0205888Y0053490D01*
X0205690Y0053147D01*
X0205588Y0052766D01*
X0205588Y0051084D01*
X0205588Y0051526D02*
X0204776Y0051526D01*
X0205588Y0052524D02*
X0196841Y0052524D01*
X0197631Y0053523D02*
X0198269Y0053523D01*
X0198117Y0051526D02*
X0197782Y0051526D01*
X0200962Y0051526D02*
X0201931Y0051526D01*
X0201931Y0050527D02*
X0200962Y0050527D01*
X0200962Y0049529D02*
X0201931Y0049529D01*
X0201931Y0048530D02*
X0205588Y0048530D01*
X0205588Y0049529D02*
X0205112Y0049529D01*
X0205112Y0047532D02*
X0206067Y0047532D01*
X0208769Y0045534D02*
X0209738Y0045534D01*
X0209738Y0044536D02*
X0208769Y0044536D01*
X0208769Y0043537D02*
X0209738Y0043537D01*
X0208769Y0042539D02*
X0179955Y0042539D01*
X0179401Y0041984D02*
X0180590Y0043173D01*
X0180787Y0043516D01*
X0180889Y0043897D01*
X0180889Y0044292D01*
X0180787Y0044673D01*
X0180590Y0045016D01*
X0179261Y0046344D01*
X0177151Y0044234D01*
X0176466Y0044919D01*
X0178576Y0047029D01*
X0177248Y0048357D01*
X0176906Y0048555D01*
X0176525Y0048657D01*
X0176130Y0048657D01*
X0175944Y0048607D01*
X0175944Y0049360D01*
X0172128Y0053177D01*
X0171306Y0053177D01*
X0171115Y0053368D01*
X0170132Y0053775D01*
X0169068Y0053775D01*
X0168085Y0053368D01*
X0167332Y0052615D01*
X0166925Y0051632D01*
X0166925Y0050568D01*
X0167332Y0049585D01*
X0167523Y0049394D01*
X0167523Y0048572D01*
X0171340Y0044756D01*
X0172093Y0044756D01*
X0172043Y0044570D01*
X0172043Y0044175D01*
X0172145Y0043794D01*
X0172343Y0043452D01*
X0173671Y0042124D01*
X0175781Y0044234D01*
X0176466Y0043549D01*
X0177151Y0044234D01*
X0179401Y0041984D01*
X0178846Y0042539D02*
X0177476Y0042539D01*
X0177847Y0043537D02*
X0176478Y0043537D01*
X0176455Y0043537D02*
X0175085Y0043537D01*
X0175456Y0042539D02*
X0174087Y0042539D01*
X0173256Y0042539D02*
X0155547Y0042539D01*
X0154549Y0043537D02*
X0172294Y0043537D01*
X0172043Y0044536D02*
X0153550Y0044536D01*
X0152552Y0045534D02*
X0170561Y0045534D01*
X0169562Y0046533D02*
X0151553Y0046533D01*
X0150555Y0047532D02*
X0168564Y0047532D01*
X0167565Y0048530D02*
X0149556Y0048530D01*
X0150068Y0048925D02*
X0149085Y0049332D01*
X0148332Y0050085D01*
X0148206Y0050389D01*
X0144756Y0053840D01*
X0144756Y0054593D01*
X0144570Y0054543D01*
X0144175Y0054543D01*
X0143794Y0054645D01*
X0143452Y0054843D01*
X0142124Y0056171D01*
X0144234Y0058281D01*
X0143549Y0058966D01*
X0141439Y0056856D01*
X0140110Y0058184D01*
X0139913Y0058527D01*
X0139811Y0058908D01*
X0139811Y0059303D01*
X0139913Y0059684D01*
X0140110Y0060027D01*
X0141299Y0061216D01*
X0143549Y0058966D01*
X0144234Y0059651D01*
X0146344Y0061761D01*
X0145016Y0063090D01*
X0144673Y0063287D01*
X0144292Y0063389D01*
X0143897Y0063389D01*
X0143516Y0063287D01*
X0143173Y0063090D01*
X0141984Y0061901D01*
X0144234Y0059651D01*
X0144919Y0058966D01*
X0147029Y0061076D01*
X0148357Y0059748D01*
X0148555Y0059406D01*
X0148657Y0059025D01*
X0148657Y0058630D01*
X0148607Y0058444D01*
X0149360Y0058444D01*
X0153177Y0054628D01*
X0153177Y0053561D01*
X0152799Y0053184D01*
X0152868Y0053115D01*
X0153275Y0052132D01*
X0153275Y0051068D01*
X0152868Y0050085D01*
X0152115Y0049332D01*
X0151132Y0048925D01*
X0150068Y0048925D01*
X0148889Y0049529D02*
X0148558Y0049529D01*
X0148068Y0050527D02*
X0147559Y0050527D01*
X0147070Y0051526D02*
X0146561Y0051526D01*
X0146071Y0052524D02*
X0145562Y0052524D01*
X0145073Y0053523D02*
X0144564Y0053523D01*
X0144756Y0054521D02*
X0143565Y0054521D01*
X0142775Y0055520D02*
X0142567Y0055520D01*
X0142470Y0056518D02*
X0141568Y0056518D01*
X0141537Y0056549D02*
X0141537Y0056549D01*
X0142099Y0057517D02*
X0143469Y0057517D01*
X0143098Y0058515D02*
X0144000Y0058515D01*
X0144096Y0059514D02*
X0143001Y0059514D01*
X0143373Y0060512D02*
X0142003Y0060512D01*
X0142374Y0061511D02*
X0106076Y0061511D01*
X0107074Y0060512D02*
X0140596Y0060512D01*
X0139867Y0059514D02*
X0108073Y0059514D01*
X0109071Y0058515D02*
X0139919Y0058515D01*
X0140570Y0057517D02*
X0140778Y0057517D01*
X0144371Y0059514D02*
X0145466Y0059514D01*
X0145095Y0060512D02*
X0146464Y0060512D01*
X0146093Y0061511D02*
X0149784Y0061511D01*
X0149952Y0061343D02*
X0150294Y0061145D01*
X0150675Y0061043D01*
X0151070Y0061043D01*
X0151256Y0061093D01*
X0151256Y0060340D01*
X0155072Y0056523D01*
X0155894Y0056523D01*
X0156085Y0056332D01*
X0157068Y0055925D01*
X0158132Y0055925D01*
X0159115Y0056332D01*
X0159868Y0057085D01*
X0160275Y0058068D01*
X0160275Y0059132D01*
X0159868Y0060115D01*
X0159677Y0060306D01*
X0159677Y0061128D01*
X0155860Y0064944D01*
X0155107Y0064944D01*
X0155157Y0065130D01*
X0155157Y0065525D01*
X0155055Y0065906D01*
X0154857Y0066248D01*
X0153529Y0067576D01*
X0151419Y0065466D01*
X0150734Y0066151D01*
X0152844Y0068261D01*
X0151516Y0069590D01*
X0151173Y0069787D01*
X0150792Y0069889D01*
X0150397Y0069889D01*
X0150016Y0069787D01*
X0149673Y0069590D01*
X0148484Y0068401D01*
X0150734Y0066151D01*
X0150049Y0065466D01*
X0150734Y0064781D01*
X0148624Y0062671D01*
X0149952Y0061343D01*
X0151256Y0060512D02*
X0147593Y0060512D01*
X0148492Y0059514D02*
X0152082Y0059514D01*
X0153080Y0058515D02*
X0148626Y0058515D01*
X0150288Y0057517D02*
X0154079Y0057517D01*
X0155899Y0056518D02*
X0151286Y0056518D01*
X0152285Y0055520D02*
X0191301Y0055520D01*
X0191301Y0056518D02*
X0159301Y0056518D01*
X0160046Y0057517D02*
X0191301Y0057517D01*
X0191301Y0058515D02*
X0160275Y0058515D01*
X0160117Y0059514D02*
X0191713Y0059514D01*
X0191301Y0054521D02*
X0153177Y0054521D01*
X0153138Y0053523D02*
X0168459Y0053523D01*
X0167295Y0052524D02*
X0153112Y0052524D01*
X0153275Y0051526D02*
X0166925Y0051526D01*
X0166942Y0050527D02*
X0153051Y0050527D01*
X0152311Y0049529D02*
X0167389Y0049529D01*
X0169600Y0051100D02*
X0171734Y0048966D01*
X0174777Y0050527D02*
X0191301Y0050527D01*
X0191301Y0049529D02*
X0175776Y0049529D01*
X0176949Y0048530D02*
X0191301Y0048530D01*
X0191301Y0047532D02*
X0178074Y0047532D01*
X0178081Y0046533D02*
X0191301Y0046533D01*
X0191865Y0045534D02*
X0180071Y0045534D01*
X0180824Y0044536D02*
X0192646Y0044536D01*
X0193380Y0043537D02*
X0180793Y0043537D01*
X0178452Y0045534D02*
X0177082Y0045534D01*
X0176849Y0044536D02*
X0177453Y0044536D01*
X0174458Y0041540D02*
X0156546Y0041540D01*
X0157544Y0040542D02*
X0175253Y0040542D01*
X0163535Y0034551D02*
X0223750Y0034551D01*
X0222634Y0035549D02*
X0162537Y0035549D01*
X0161538Y0036548D02*
X0222228Y0036548D01*
X0222228Y0037546D02*
X0160540Y0037546D01*
X0152763Y0034551D02*
X0135775Y0034551D01*
X0135775Y0034632D02*
X0135368Y0035615D01*
X0135177Y0035806D01*
X0135177Y0036628D01*
X0131360Y0040444D01*
X0130607Y0040444D01*
X0130657Y0040630D01*
X0130657Y0041025D01*
X0130555Y0041406D01*
X0130357Y0041748D01*
X0129029Y0043076D01*
X0126919Y0040966D01*
X0126234Y0041651D01*
X0128344Y0043761D01*
X0127016Y0045090D01*
X0126673Y0045287D01*
X0126292Y0045389D01*
X0125897Y0045389D01*
X0125516Y0045287D01*
X0125173Y0045090D01*
X0123984Y0043901D01*
X0126234Y0041651D01*
X0125549Y0040966D01*
X0126234Y0040281D01*
X0124124Y0038171D01*
X0125452Y0036843D01*
X0125794Y0036645D01*
X0126175Y0036543D01*
X0126570Y0036543D01*
X0126756Y0036593D01*
X0126756Y0035840D01*
X0130572Y0032023D01*
X0131394Y0032023D01*
X0131585Y0031832D01*
X0132568Y0031425D01*
X0133632Y0031425D01*
X0134615Y0031832D01*
X0135368Y0032585D01*
X0135775Y0033568D01*
X0135775Y0034632D01*
X0135395Y0035549D02*
X0151764Y0035549D01*
X0150766Y0036548D02*
X0135177Y0036548D01*
X0136072Y0037523D02*
X0136894Y0037523D01*
X0137085Y0037332D01*
X0138068Y0036925D01*
X0139132Y0036925D01*
X0140115Y0037332D01*
X0140868Y0038085D01*
X0141275Y0039068D01*
X0141275Y0040132D01*
X0140868Y0041115D01*
X0140677Y0041306D01*
X0140677Y0042128D01*
X0136860Y0045944D01*
X0136107Y0045944D01*
X0136157Y0046130D01*
X0136157Y0046525D01*
X0136055Y0046906D01*
X0135857Y0047248D01*
X0134529Y0048576D01*
X0132419Y0046466D01*
X0131734Y0047151D01*
X0133844Y0049261D01*
X0132516Y0050590D01*
X0132173Y0050787D01*
X0131792Y0050889D01*
X0131397Y0050889D01*
X0131016Y0050787D01*
X0130673Y0050590D01*
X0129484Y0049401D01*
X0131734Y0047151D01*
X0131049Y0046466D01*
X0131734Y0045781D01*
X0129624Y0043671D01*
X0130952Y0042343D01*
X0131294Y0042145D01*
X0131675Y0042043D01*
X0132070Y0042043D01*
X0132256Y0042093D01*
X0132256Y0041340D01*
X0136072Y0037523D01*
X0136049Y0037546D02*
X0134258Y0037546D01*
X0135051Y0038545D02*
X0133260Y0038545D01*
X0134052Y0039543D02*
X0132261Y0039543D01*
X0133054Y0040542D02*
X0130633Y0040542D01*
X0130477Y0041540D02*
X0132256Y0041540D01*
X0130756Y0042539D02*
X0129566Y0042539D01*
X0129757Y0043537D02*
X0128120Y0043537D01*
X0128491Y0042539D02*
X0127122Y0042539D01*
X0127493Y0041540D02*
X0126344Y0041540D01*
X0126123Y0041540D02*
X0124975Y0041540D01*
X0125549Y0040966D02*
X0123299Y0043216D01*
X0122110Y0042027D01*
X0121913Y0041684D01*
X0121811Y0041303D01*
X0121811Y0040908D01*
X0121913Y0040527D01*
X0122110Y0040184D01*
X0123439Y0038856D01*
X0125549Y0040966D01*
X0125973Y0040542D02*
X0125124Y0040542D01*
X0125496Y0039543D02*
X0124126Y0039543D01*
X0124497Y0038545D02*
X0113287Y0038545D01*
X0113287Y0039543D02*
X0122751Y0039543D01*
X0121909Y0040542D02*
X0113287Y0040542D01*
X0113046Y0041540D02*
X0121874Y0041540D01*
X0122623Y0042539D02*
X0112047Y0042539D01*
X0112299Y0042287D02*
X0112299Y0042287D01*
X0111287Y0043299D02*
X0111287Y0043299D01*
X0111049Y0043537D02*
X0124347Y0043537D01*
X0124620Y0044536D02*
X0098050Y0044536D01*
X0097052Y0045534D02*
X0127760Y0045534D01*
X0127610Y0045684D02*
X0128939Y0044356D01*
X0131049Y0046466D01*
X0128799Y0048716D01*
X0127610Y0047527D01*
X0127413Y0047184D01*
X0127311Y0046803D01*
X0127311Y0046408D01*
X0127413Y0046027D01*
X0127610Y0045684D01*
X0127311Y0046533D02*
X0096053Y0046533D01*
X0095055Y0047532D02*
X0101886Y0047532D01*
X0101148Y0048530D02*
X0097313Y0048530D01*
X0098051Y0049529D02*
X0100925Y0049529D01*
X0101089Y0050527D02*
X0098275Y0050527D01*
X0098112Y0051526D02*
X0101743Y0051526D01*
X0101290Y0052524D02*
X0097459Y0052524D01*
X0099293Y0054521D02*
X0094114Y0054521D01*
X0094275Y0053523D02*
X0100291Y0053523D01*
X0098294Y0055520D02*
X0093463Y0055520D01*
X0096297Y0057517D02*
X0073299Y0057517D01*
X0073753Y0058515D02*
X0095298Y0058515D01*
X0094300Y0059514D02*
X0073775Y0059514D01*
X0073410Y0060512D02*
X0079798Y0060512D01*
X0078766Y0061511D02*
X0072270Y0061511D01*
X0071100Y0059100D02*
X0067946Y0059100D01*
X0071856Y0056518D02*
X0097296Y0056518D01*
X0089737Y0055520D02*
X0072067Y0055520D01*
X0077734Y0062509D02*
X0063838Y0062509D01*
X0061738Y0062509D02*
X0060769Y0062509D01*
X0060769Y0062568D02*
X0058891Y0062568D01*
X0058509Y0062466D01*
X0058167Y0062269D01*
X0057888Y0061990D01*
X0057690Y0061647D01*
X0057588Y0061266D01*
X0057588Y0059584D01*
X0060769Y0059584D01*
X0060769Y0062568D01*
X0060769Y0061511D02*
X0061738Y0061511D01*
X0061738Y0060512D02*
X0060769Y0060512D01*
X0060769Y0059514D02*
X0055287Y0059514D01*
X0055287Y0060512D02*
X0057588Y0060512D01*
X0057654Y0061511D02*
X0055076Y0061511D01*
X0054077Y0062509D02*
X0058669Y0062509D01*
X0057588Y0058515D02*
X0055287Y0058515D01*
X0056070Y0057517D02*
X0057588Y0057517D01*
X0053079Y0063508D02*
X0076702Y0063508D01*
X0075670Y0064506D02*
X0052080Y0064506D01*
X0051082Y0065505D02*
X0074639Y0065505D01*
X0073607Y0066503D02*
X0050083Y0066503D01*
X0049085Y0067502D02*
X0072575Y0067502D01*
X0071543Y0068500D02*
X0059813Y0068500D01*
X0058387Y0068500D02*
X0034137Y0068500D01*
X0034137Y0067502D02*
X0039115Y0067502D01*
X0038117Y0066503D02*
X0034124Y0066503D01*
X0035704Y0065505D02*
X0028287Y0065505D01*
X0028580Y0064506D02*
X0034998Y0064506D01*
X0034137Y0069499D02*
X0056918Y0069499D01*
X0056454Y0070497D02*
X0034137Y0070497D01*
X0034324Y0071496D02*
X0035403Y0071496D01*
X0034900Y0074600D02*
X0031600Y0071300D01*
X0031600Y0072700D01*
X0033500Y0074600D01*
X0035100Y0074600D01*
X0034900Y0074600D01*
X0035100Y0074600D02*
X0038254Y0074600D01*
X0041104Y0071496D02*
X0041795Y0071496D01*
X0044462Y0071496D02*
X0045431Y0071496D01*
X0045431Y0071131D02*
X0047309Y0071131D01*
X0047691Y0071234D01*
X0048033Y0071431D01*
X0048312Y0071710D01*
X0048510Y0072053D01*
X0048612Y0072434D01*
X0048612Y0074116D01*
X0045431Y0074116D01*
X0045431Y0071131D01*
X0045431Y0072494D02*
X0044462Y0072494D01*
X0044462Y0073493D02*
X0045431Y0073493D01*
X0045431Y0074491D02*
X0053322Y0074491D01*
X0054321Y0073493D02*
X0048612Y0073493D01*
X0048612Y0072494D02*
X0055319Y0072494D01*
X0056318Y0071496D02*
X0048097Y0071496D01*
X0048612Y0075490D02*
X0052324Y0075490D01*
X0051325Y0076488D02*
X0048612Y0076488D01*
X0048314Y0077487D02*
X0050327Y0077487D01*
X0053102Y0079484D02*
X0060194Y0079484D01*
X0061225Y0078485D02*
X0054101Y0078485D01*
X0055099Y0077487D02*
X0062257Y0077487D01*
X0063289Y0076488D02*
X0056098Y0076488D01*
X0057096Y0075490D02*
X0064321Y0075490D01*
X0065353Y0074491D02*
X0058095Y0074491D01*
X0060313Y0073493D02*
X0066384Y0073493D01*
X0067416Y0072494D02*
X0061418Y0072494D01*
X0061775Y0071496D02*
X0068448Y0071496D01*
X0069480Y0070497D02*
X0061746Y0070497D01*
X0061282Y0069499D02*
X0070511Y0069499D01*
X0077598Y0076488D02*
X0082107Y0076488D01*
X0083106Y0075490D02*
X0078596Y0075490D01*
X0079595Y0074491D02*
X0084543Y0074491D01*
X0084543Y0074570D02*
X0084543Y0074175D01*
X0084645Y0073794D01*
X0084843Y0073452D01*
X0086171Y0072124D01*
X0088281Y0074234D01*
X0088966Y0073549D01*
X0086856Y0071439D01*
X0088184Y0070110D01*
X0088527Y0069913D01*
X0088908Y0069811D01*
X0089303Y0069811D01*
X0089684Y0069913D01*
X0090027Y0070110D01*
X0091216Y0071299D01*
X0088966Y0073549D01*
X0089651Y0074234D01*
X0088966Y0074919D01*
X0091076Y0077029D01*
X0089748Y0078357D01*
X0089406Y0078555D01*
X0089025Y0078657D01*
X0088630Y0078657D01*
X0088444Y0078607D01*
X0088444Y0079360D01*
X0084628Y0083177D01*
X0083806Y0083177D01*
X0083615Y0083368D01*
X0082632Y0083775D01*
X0081568Y0083775D01*
X0080585Y0083368D01*
X0079832Y0082615D01*
X0079425Y0081632D01*
X0079425Y0080568D01*
X0079832Y0079585D01*
X0080023Y0079394D01*
X0080023Y0078572D01*
X0083840Y0074756D01*
X0084593Y0074756D01*
X0084543Y0074570D01*
X0084819Y0073493D02*
X0080594Y0073493D01*
X0081592Y0072494D02*
X0085800Y0072494D01*
X0086542Y0072494D02*
X0087912Y0072494D01*
X0087541Y0073493D02*
X0088910Y0073493D01*
X0089022Y0073493D02*
X0090392Y0073493D01*
X0089651Y0074234D02*
X0091901Y0071984D01*
X0093090Y0073173D01*
X0093287Y0073516D01*
X0093389Y0073897D01*
X0093389Y0074292D01*
X0093287Y0074673D01*
X0093090Y0075016D01*
X0091761Y0076344D01*
X0089651Y0074234D01*
X0089394Y0074491D02*
X0089909Y0074491D01*
X0089538Y0075490D02*
X0090907Y0075490D01*
X0090536Y0076488D02*
X0093906Y0076488D01*
X0094284Y0076110D02*
X0094627Y0075913D01*
X0095008Y0075811D01*
X0095403Y0075811D01*
X0095784Y0075913D01*
X0096127Y0076110D01*
X0097316Y0077299D01*
X0095066Y0079549D01*
X0092956Y0077439D01*
X0094284Y0076110D01*
X0092615Y0075490D02*
X0099038Y0075490D01*
X0100036Y0076488D02*
X0096505Y0076488D01*
X0097128Y0077487D02*
X0101035Y0077487D01*
X0102033Y0078485D02*
X0098502Y0078485D01*
X0098001Y0077984D02*
X0099190Y0079173D01*
X0099387Y0079516D01*
X0099489Y0079897D01*
X0099489Y0080292D01*
X0099387Y0080673D01*
X0099190Y0081016D01*
X0097861Y0082344D01*
X0095751Y0080234D01*
X0095066Y0080919D01*
X0097176Y0083029D01*
X0095848Y0084357D01*
X0095506Y0084555D01*
X0095125Y0084657D01*
X0094730Y0084657D01*
X0094544Y0084607D01*
X0094544Y0085360D01*
X0090728Y0089177D01*
X0089661Y0089177D01*
X0089576Y0089091D01*
X0089132Y0089275D01*
X0088068Y0089275D01*
X0087085Y0088868D01*
X0086332Y0088115D01*
X0085925Y0087132D01*
X0085925Y0086068D01*
X0086123Y0085590D01*
X0086123Y0084572D01*
X0089940Y0080756D01*
X0090693Y0080756D01*
X0090643Y0080570D01*
X0090643Y0080175D01*
X0090745Y0079794D01*
X0090943Y0079452D01*
X0092271Y0078124D01*
X0094381Y0080234D01*
X0095066Y0079549D01*
X0095751Y0080234D01*
X0098001Y0077984D01*
X0097499Y0078485D02*
X0096130Y0078485D01*
X0096501Y0079484D02*
X0095131Y0079484D01*
X0095001Y0079484D02*
X0093632Y0079484D01*
X0094003Y0078485D02*
X0092633Y0078485D01*
X0091909Y0078485D02*
X0089526Y0078485D01*
X0090618Y0077487D02*
X0093004Y0077487D01*
X0090924Y0079484D02*
X0088321Y0079484D01*
X0087322Y0080482D02*
X0090643Y0080482D01*
X0089215Y0081481D02*
X0086324Y0081481D01*
X0085325Y0082479D02*
X0088216Y0082479D01*
X0087218Y0083478D02*
X0083349Y0083478D01*
X0080851Y0083478D02*
X0070608Y0083478D01*
X0069610Y0084476D02*
X0086219Y0084476D01*
X0086123Y0085475D02*
X0068611Y0085475D01*
X0067613Y0086473D02*
X0085925Y0086473D01*
X0086066Y0087472D02*
X0066614Y0087472D01*
X0065616Y0088470D02*
X0086688Y0088470D01*
X0091434Y0088470D02*
X0096125Y0088470D01*
X0096840Y0087756D02*
X0097593Y0087756D01*
X0097543Y0087570D01*
X0097543Y0087175D01*
X0097645Y0086794D01*
X0097843Y0086452D01*
X0099171Y0085124D01*
X0101281Y0087234D01*
X0101966Y0086549D01*
X0099856Y0084439D01*
X0101184Y0083110D01*
X0101527Y0082913D01*
X0101908Y0082811D01*
X0102303Y0082811D01*
X0102684Y0082913D01*
X0103027Y0083110D01*
X0104216Y0084299D01*
X0101966Y0086549D01*
X0102651Y0087234D01*
X0101966Y0087919D01*
X0104076Y0090029D01*
X0102748Y0091357D01*
X0102406Y0091555D01*
X0102025Y0091657D01*
X0101630Y0091657D01*
X0101444Y0091607D01*
X0101444Y0092360D01*
X0097628Y0096177D01*
X0096806Y0096177D01*
X0096615Y0096368D01*
X0095632Y0096775D01*
X0094568Y0096775D01*
X0093585Y0096368D01*
X0092832Y0095615D01*
X0092425Y0094632D01*
X0092425Y0093568D01*
X0092832Y0092585D01*
X0093023Y0092394D01*
X0093023Y0091572D01*
X0096840Y0087756D01*
X0097543Y0087472D02*
X0092433Y0087472D01*
X0093431Y0086473D02*
X0097830Y0086473D01*
X0098820Y0085475D02*
X0094430Y0085475D01*
X0095641Y0084476D02*
X0099894Y0084476D01*
X0099523Y0085475D02*
X0100892Y0085475D01*
X0100521Y0086473D02*
X0101891Y0086473D01*
X0102042Y0086473D02*
X0103411Y0086473D01*
X0103040Y0085475D02*
X0104410Y0085475D01*
X0104901Y0084984D02*
X0106090Y0086173D01*
X0106287Y0086516D01*
X0106389Y0086897D01*
X0106389Y0087292D01*
X0106287Y0087673D01*
X0106090Y0088016D01*
X0104761Y0089344D01*
X0102651Y0087234D01*
X0104901Y0084984D01*
X0105391Y0085475D02*
X0109023Y0085475D01*
X0110021Y0086473D02*
X0106263Y0086473D01*
X0106341Y0087472D02*
X0111020Y0087472D01*
X0112018Y0088470D02*
X0105635Y0088470D01*
X0103888Y0088470D02*
X0102518Y0088470D01*
X0102413Y0087472D02*
X0102889Y0087472D01*
X0103517Y0089469D02*
X0112513Y0089469D01*
X0112513Y0090468D02*
X0103638Y0090468D01*
X0102559Y0091466D02*
X0112513Y0091466D01*
X0112513Y0092465D02*
X0101340Y0092465D01*
X0100341Y0093463D02*
X0112513Y0093463D01*
X0112513Y0094462D02*
X0099343Y0094462D01*
X0098344Y0095460D02*
X0112513Y0095460D01*
X0112513Y0096459D02*
X0096395Y0096459D01*
X0093805Y0096459D02*
X0057628Y0096459D01*
X0056629Y0097457D02*
X0112513Y0097457D01*
X0112513Y0098456D02*
X0055631Y0098456D01*
X0054632Y0099454D02*
X0112513Y0099454D01*
X0112513Y0100453D02*
X0036134Y0100453D01*
X0035135Y0101451D02*
X0112513Y0101451D01*
X0112513Y0102450D02*
X0034137Y0102450D01*
X0033138Y0103448D02*
X0112513Y0103448D01*
X0112513Y0104447D02*
X0032140Y0104447D01*
X0031141Y0105445D02*
X0112513Y0105445D01*
X0112513Y0106444D02*
X0030143Y0106444D01*
X0023158Y0108441D02*
X0021042Y0108441D01*
X0021646Y0107442D02*
X0022554Y0107442D01*
X0022425Y0106444D02*
X0021775Y0106444D01*
X0022641Y0105445D02*
X0022683Y0105445D01*
X0043252Y0089469D02*
X0049876Y0089469D01*
X0058626Y0095460D02*
X0092768Y0095460D01*
X0092425Y0094462D02*
X0059625Y0094462D01*
X0060623Y0093463D02*
X0092469Y0093463D01*
X0092953Y0092465D02*
X0061622Y0092465D01*
X0062620Y0091466D02*
X0093129Y0091466D01*
X0094128Y0090468D02*
X0063619Y0090468D01*
X0064617Y0089469D02*
X0095126Y0089469D01*
X0097234Y0091966D02*
X0095100Y0094100D01*
X0104039Y0084476D02*
X0108024Y0084476D01*
X0107026Y0083478D02*
X0103394Y0083478D01*
X0100817Y0083478D02*
X0096727Y0083478D01*
X0096627Y0082479D02*
X0106027Y0082479D01*
X0105029Y0081481D02*
X0098724Y0081481D01*
X0099438Y0080482D02*
X0104030Y0080482D01*
X0103032Y0079484D02*
X0099369Y0079484D01*
X0096000Y0080482D02*
X0095503Y0080482D01*
X0095629Y0081481D02*
X0096998Y0081481D01*
X0104942Y0075490D02*
X0152794Y0075490D01*
X0152484Y0075799D02*
X0153673Y0074610D01*
X0154016Y0074413D01*
X0154397Y0074311D01*
X0154792Y0074311D01*
X0155173Y0074413D01*
X0155516Y0074610D01*
X0156844Y0075939D01*
X0154734Y0078049D01*
X0155419Y0078734D01*
X0157529Y0076624D01*
X0158857Y0077952D01*
X0159055Y0078294D01*
X0159157Y0078675D01*
X0159157Y0079070D01*
X0159107Y0079256D01*
X0159860Y0079256D01*
X0163677Y0083072D01*
X0163677Y0083894D01*
X0163868Y0084085D01*
X0164275Y0085068D01*
X0164275Y0086132D01*
X0163868Y0087115D01*
X0163115Y0087868D01*
X0162132Y0088275D01*
X0161068Y0088275D01*
X0160085Y0087868D01*
X0159894Y0087677D01*
X0159072Y0087677D01*
X0155256Y0083860D01*
X0155256Y0083107D01*
X0155070Y0083157D01*
X0154675Y0083157D01*
X0154294Y0083055D01*
X0153952Y0082857D01*
X0152624Y0081529D01*
X0154734Y0079419D01*
X0154049Y0078734D01*
X0151939Y0080844D01*
X0150610Y0079516D01*
X0150413Y0079173D01*
X0150311Y0078792D01*
X0150311Y0078397D01*
X0150413Y0078016D01*
X0150610Y0077673D01*
X0151799Y0076484D01*
X0154049Y0078734D01*
X0154734Y0078049D01*
X0152484Y0075799D01*
X0151803Y0076488D02*
X0153173Y0076488D01*
X0152802Y0077487D02*
X0154172Y0077487D01*
X0154297Y0078485D02*
X0153801Y0078485D01*
X0153299Y0079484D02*
X0154668Y0079484D01*
X0155170Y0078485D02*
X0155667Y0078485D01*
X0155296Y0077487D02*
X0156665Y0077487D01*
X0156294Y0076488D02*
X0159583Y0076488D01*
X0159952Y0076857D02*
X0158624Y0075529D01*
X0160734Y0073419D01*
X0160049Y0072734D01*
X0157939Y0074844D01*
X0156610Y0073516D01*
X0156413Y0073173D01*
X0156311Y0072792D01*
X0156311Y0072397D01*
X0156413Y0072016D01*
X0156610Y0071673D01*
X0157799Y0070484D01*
X0160049Y0072734D01*
X0160734Y0072049D01*
X0161419Y0072734D01*
X0163529Y0070624D01*
X0164857Y0071952D01*
X0165055Y0072294D01*
X0165157Y0072675D01*
X0165157Y0073070D01*
X0165107Y0073256D01*
X0165860Y0073256D01*
X0169677Y0077072D01*
X0169677Y0078139D01*
X0169620Y0078195D01*
X0169775Y0078568D01*
X0169775Y0079632D01*
X0169368Y0080615D01*
X0168615Y0081368D01*
X0167632Y0081775D01*
X0166568Y0081775D01*
X0166195Y0081620D01*
X0166139Y0081677D01*
X0165072Y0081677D01*
X0161256Y0077860D01*
X0161256Y0077107D01*
X0161070Y0077157D01*
X0160675Y0077157D01*
X0160294Y0077055D01*
X0159952Y0076857D01*
X0161256Y0077487D02*
X0158392Y0077487D01*
X0159106Y0078485D02*
X0161881Y0078485D01*
X0162879Y0079484D02*
X0160088Y0079484D01*
X0161087Y0080482D02*
X0163878Y0080482D01*
X0164876Y0081481D02*
X0162085Y0081481D01*
X0163084Y0082479D02*
X0209438Y0082479D01*
X0209332Y0082585D02*
X0210085Y0081832D01*
X0211068Y0081425D01*
X0211888Y0081425D01*
X0213259Y0080055D01*
X0213259Y0080053D01*
X0212445Y0080053D01*
X0211691Y0079299D01*
X0211691Y0079080D01*
X0211620Y0079344D01*
X0211422Y0079686D01*
X0211143Y0079966D01*
X0210801Y0080163D01*
X0210420Y0080265D01*
X0208738Y0080265D01*
X0208738Y0077084D01*
X0207769Y0077084D01*
X0207769Y0076116D01*
X0204785Y0076116D01*
X0204785Y0074237D01*
X0204887Y0073856D01*
X0205085Y0073514D01*
X0205364Y0073234D01*
X0205706Y0073037D01*
X0206088Y0072935D01*
X0207769Y0072935D01*
X0207769Y0076116D01*
X0208738Y0076116D01*
X0208738Y0072935D01*
X0210420Y0072935D01*
X0210801Y0073037D01*
X0211143Y0073234D01*
X0211422Y0073514D01*
X0211620Y0073856D01*
X0211691Y0074120D01*
X0211691Y0073901D01*
X0212445Y0073147D01*
X0217448Y0073147D01*
X0218202Y0073901D01*
X0218202Y0077399D01*
X0218332Y0077085D01*
X0219085Y0076332D01*
X0220068Y0075925D01*
X0221132Y0075925D01*
X0222115Y0076332D01*
X0222868Y0077085D01*
X0223275Y0078068D01*
X0223275Y0079132D01*
X0222868Y0080115D01*
X0222115Y0080868D01*
X0221132Y0081275D01*
X0220576Y0081275D01*
X0221053Y0081752D01*
X0221053Y0086755D01*
X0220299Y0087509D01*
X0214901Y0087509D01*
X0214147Y0086755D01*
X0214147Y0084940D01*
X0213868Y0085615D01*
X0213115Y0086368D01*
X0212132Y0086775D01*
X0211068Y0086775D01*
X0210085Y0086368D01*
X0209332Y0085615D01*
X0208925Y0084632D01*
X0208925Y0083568D01*
X0209332Y0082585D01*
X0208962Y0083478D02*
X0163677Y0083478D01*
X0164030Y0084476D02*
X0208925Y0084476D01*
X0209274Y0085475D02*
X0164275Y0085475D01*
X0164133Y0086473D02*
X0210340Y0086473D01*
X0210959Y0088470D02*
X0116687Y0088470D01*
X0116687Y0087472D02*
X0158867Y0087472D01*
X0157869Y0086473D02*
X0115925Y0086473D01*
X0114927Y0085475D02*
X0156870Y0085475D01*
X0155872Y0084476D02*
X0113928Y0084476D01*
X0112930Y0083478D02*
X0155256Y0083478D01*
X0153574Y0082479D02*
X0111931Y0082479D01*
X0110933Y0081481D02*
X0152671Y0081481D01*
X0152300Y0080482D02*
X0153670Y0080482D01*
X0151577Y0080482D02*
X0109934Y0080482D01*
X0108936Y0079484D02*
X0150592Y0079484D01*
X0150311Y0078485D02*
X0107937Y0078485D01*
X0106939Y0077487D02*
X0150797Y0077487D01*
X0151795Y0076488D02*
X0105940Y0076488D01*
X0103943Y0074491D02*
X0153880Y0074491D01*
X0155309Y0074491D02*
X0157586Y0074491D01*
X0158291Y0074491D02*
X0159661Y0074491D01*
X0159290Y0073493D02*
X0160659Y0073493D01*
X0160288Y0072494D02*
X0159809Y0072494D01*
X0160734Y0072049D02*
X0158484Y0069799D01*
X0159673Y0068610D01*
X0160016Y0068413D01*
X0160397Y0068311D01*
X0160792Y0068311D01*
X0161173Y0068413D01*
X0161516Y0068610D01*
X0162844Y0069939D01*
X0160734Y0072049D01*
X0161179Y0072494D02*
X0161658Y0072494D01*
X0161287Y0071496D02*
X0162656Y0071496D01*
X0162285Y0070497D02*
X0205896Y0070497D01*
X0205888Y0070490D02*
X0205690Y0070147D01*
X0205588Y0069766D01*
X0205588Y0068084D01*
X0208769Y0068084D01*
X0208769Y0071068D01*
X0206891Y0071068D01*
X0206509Y0070966D01*
X0206167Y0070769D01*
X0205888Y0070490D01*
X0205588Y0069499D02*
X0162404Y0069499D01*
X0161325Y0068500D02*
X0205588Y0068500D01*
X0205588Y0066503D02*
X0154602Y0066503D01*
X0155157Y0065505D02*
X0205588Y0065505D01*
X0206092Y0064506D02*
X0156298Y0064506D01*
X0157297Y0063508D02*
X0213859Y0063508D01*
X0213086Y0064506D02*
X0212415Y0064506D01*
X0209738Y0064506D02*
X0208769Y0064506D01*
X0208769Y0065505D02*
X0209738Y0065505D01*
X0209738Y0066503D02*
X0208769Y0066503D01*
X0208769Y0067502D02*
X0153603Y0067502D01*
X0153454Y0067502D02*
X0152084Y0067502D01*
X0152455Y0066503D02*
X0151086Y0066503D01*
X0150382Y0066503D02*
X0149012Y0066503D01*
X0149383Y0067502D02*
X0148013Y0067502D01*
X0147799Y0067716D02*
X0146610Y0066527D01*
X0146413Y0066184D01*
X0146311Y0065803D01*
X0146311Y0065408D01*
X0146413Y0065027D01*
X0146610Y0064684D01*
X0147939Y0063356D01*
X0150049Y0065466D01*
X0147799Y0067716D01*
X0147586Y0067502D02*
X0100085Y0067502D01*
X0101083Y0066503D02*
X0146597Y0066503D01*
X0146311Y0065505D02*
X0102082Y0065505D01*
X0103080Y0064506D02*
X0146789Y0064506D01*
X0147787Y0063508D02*
X0104079Y0063508D01*
X0105077Y0062509D02*
X0142593Y0062509D01*
X0145596Y0062509D02*
X0148786Y0062509D01*
X0149460Y0063508D02*
X0148090Y0063508D01*
X0149089Y0064506D02*
X0150458Y0064506D01*
X0150087Y0065505D02*
X0150010Y0065505D01*
X0151380Y0065505D02*
X0151457Y0065505D01*
X0152605Y0068500D02*
X0159864Y0068500D01*
X0158785Y0069499D02*
X0151606Y0069499D01*
X0149583Y0069499D02*
X0099310Y0069499D01*
X0099086Y0068500D02*
X0148584Y0068500D01*
X0156311Y0072494D02*
X0101946Y0072494D01*
X0101245Y0071496D02*
X0156788Y0071496D01*
X0157787Y0070497D02*
X0100780Y0070497D01*
X0097890Y0069499D02*
X0084588Y0069499D01*
X0083589Y0070497D02*
X0087798Y0070497D01*
X0086913Y0071496D02*
X0082591Y0071496D01*
X0090021Y0072494D02*
X0091391Y0072494D01*
X0092410Y0072494D02*
X0095925Y0072494D01*
X0095955Y0071496D02*
X0091019Y0071496D01*
X0090413Y0070497D02*
X0096420Y0070497D01*
X0096282Y0073493D02*
X0093274Y0073493D01*
X0093336Y0074491D02*
X0097384Y0074491D01*
X0102945Y0073493D02*
X0156597Y0073493D01*
X0158811Y0071496D02*
X0160181Y0071496D01*
X0159182Y0070497D02*
X0157812Y0070497D01*
X0158662Y0075490D02*
X0156395Y0075490D01*
X0164401Y0071496D02*
X0221425Y0071496D01*
X0221575Y0072494D02*
X0165108Y0072494D01*
X0166097Y0073493D02*
X0205106Y0073493D01*
X0204785Y0074491D02*
X0167096Y0074491D01*
X0168094Y0075490D02*
X0204785Y0075490D01*
X0204785Y0077084D02*
X0207769Y0077084D01*
X0207769Y0080265D01*
X0206088Y0080265D01*
X0205706Y0080163D01*
X0205364Y0079966D01*
X0205085Y0079686D01*
X0204887Y0079344D01*
X0204785Y0078963D01*
X0204785Y0077084D01*
X0204785Y0077487D02*
X0169677Y0077487D01*
X0169741Y0078485D02*
X0204785Y0078485D01*
X0204968Y0079484D02*
X0169775Y0079484D01*
X0169423Y0080482D02*
X0212831Y0080482D01*
X0211876Y0079484D02*
X0211539Y0079484D01*
X0208738Y0079484D02*
X0207769Y0079484D01*
X0207769Y0078485D02*
X0208738Y0078485D01*
X0208738Y0077487D02*
X0207769Y0077487D01*
X0207769Y0076488D02*
X0169093Y0076488D01*
X0168342Y0081481D02*
X0210933Y0081481D01*
X0213926Y0085475D02*
X0214147Y0085475D01*
X0214147Y0086473D02*
X0212860Y0086473D01*
X0212241Y0088470D02*
X0214147Y0088470D01*
X0214864Y0087472D02*
X0163511Y0087472D01*
X0161600Y0085600D02*
X0161600Y0085100D01*
X0159466Y0083466D01*
X0142966Y0100466D02*
X0144600Y0102100D01*
X0145100Y0102600D01*
X0142342Y0104447D02*
X0142229Y0104447D01*
X0123837Y0104447D02*
X0116687Y0104447D01*
X0116687Y0105445D02*
X0123130Y0105445D01*
X0112513Y0107442D02*
X0080229Y0107442D01*
X0080736Y0107652D02*
X0087548Y0114464D01*
X0087987Y0115526D01*
X0087987Y0115608D01*
X0091072Y0112523D01*
X0091894Y0112523D01*
X0092085Y0112332D01*
X0093068Y0111925D01*
X0094132Y0111925D01*
X0095115Y0112332D01*
X0095868Y0113085D01*
X0096275Y0114068D01*
X0096275Y0115132D01*
X0095868Y0116115D01*
X0095677Y0116306D01*
X0095677Y0117128D01*
X0091860Y0120944D01*
X0091107Y0120944D01*
X0091157Y0121130D01*
X0091157Y0121525D01*
X0091055Y0121906D01*
X0090857Y0122248D01*
X0089529Y0123576D01*
X0087419Y0121466D01*
X0086734Y0122151D01*
X0088844Y0124261D01*
X0087516Y0125590D01*
X0087173Y0125787D01*
X0086792Y0125889D01*
X0086397Y0125889D01*
X0086016Y0125787D01*
X0085673Y0125590D01*
X0084484Y0124401D01*
X0086734Y0122151D01*
X0086049Y0121466D01*
X0086734Y0120781D01*
X0084940Y0118987D01*
X0084526Y0118987D01*
X0083464Y0118548D01*
X0076652Y0111736D01*
X0076213Y0110674D01*
X0076213Y0109526D01*
X0076652Y0108464D01*
X0077464Y0107652D01*
X0078526Y0107213D01*
X0079674Y0107213D01*
X0080736Y0107652D01*
X0081524Y0108441D02*
X0112513Y0108441D01*
X0112513Y0109439D02*
X0082523Y0109439D01*
X0083521Y0110438D02*
X0112513Y0110438D01*
X0112513Y0111436D02*
X0084520Y0111436D01*
X0085518Y0112435D02*
X0091982Y0112435D01*
X0090162Y0113433D02*
X0086517Y0113433D01*
X0087515Y0114432D02*
X0089164Y0114432D01*
X0088165Y0115430D02*
X0087948Y0115430D01*
X0091466Y0116734D02*
X0093600Y0114600D01*
X0096012Y0113433D02*
X0112513Y0113433D01*
X0112513Y0112435D02*
X0095217Y0112435D01*
X0096275Y0114432D02*
X0112513Y0114432D01*
X0112513Y0115430D02*
X0096151Y0115430D01*
X0095677Y0116429D02*
X0112513Y0116429D01*
X0112513Y0117427D02*
X0099637Y0117427D01*
X0099632Y0117425D02*
X0100615Y0117832D01*
X0101368Y0118585D01*
X0101775Y0119568D01*
X0101775Y0120632D01*
X0101368Y0121615D01*
X0101177Y0121806D01*
X0101177Y0122628D01*
X0097360Y0126444D01*
X0096607Y0126444D01*
X0096657Y0126630D01*
X0096657Y0127025D01*
X0096555Y0127406D01*
X0096357Y0127748D01*
X0095029Y0129076D01*
X0092919Y0126966D01*
X0092234Y0127651D01*
X0094344Y0129761D01*
X0093016Y0131090D01*
X0092673Y0131287D01*
X0092292Y0131389D01*
X0091897Y0131389D01*
X0091516Y0131287D01*
X0091173Y0131090D01*
X0089984Y0129901D01*
X0092234Y0127651D01*
X0091549Y0126966D01*
X0092234Y0126281D01*
X0090124Y0124171D01*
X0091452Y0122843D01*
X0091794Y0122645D01*
X0092175Y0122543D01*
X0092570Y0122543D01*
X0092756Y0122593D01*
X0092756Y0121840D01*
X0096572Y0118023D01*
X0097394Y0118023D01*
X0097585Y0117832D01*
X0098568Y0117425D01*
X0099632Y0117425D01*
X0098563Y0117427D02*
X0095377Y0117427D01*
X0096170Y0118426D02*
X0094379Y0118426D01*
X0095171Y0119424D02*
X0093380Y0119424D01*
X0094173Y0120423D02*
X0092382Y0120423D01*
X0093174Y0121421D02*
X0091157Y0121421D01*
X0090685Y0122420D02*
X0092756Y0122420D01*
X0090876Y0123418D02*
X0089687Y0123418D01*
X0089371Y0123418D02*
X0088001Y0123418D01*
X0088372Y0122420D02*
X0087002Y0122420D01*
X0086465Y0122420D02*
X0085095Y0122420D01*
X0085466Y0123418D02*
X0084097Y0123418D01*
X0083799Y0123716D02*
X0082610Y0122527D01*
X0082413Y0122184D01*
X0082311Y0121803D01*
X0082311Y0121408D01*
X0082413Y0121027D01*
X0082610Y0120684D01*
X0083939Y0119356D01*
X0086049Y0121466D01*
X0083799Y0123716D01*
X0083502Y0123418D02*
X0058487Y0123418D01*
X0058487Y0122420D02*
X0082549Y0122420D01*
X0082311Y0121421D02*
X0058487Y0121421D01*
X0058487Y0120423D02*
X0082872Y0120423D01*
X0083870Y0119424D02*
X0067285Y0119424D01*
X0067171Y0119472D02*
X0066029Y0119472D01*
X0064973Y0119034D01*
X0064166Y0118227D01*
X0063728Y0117171D01*
X0063728Y0116029D01*
X0064166Y0114973D01*
X0064973Y0114166D01*
X0066029Y0113728D01*
X0067171Y0113728D01*
X0068227Y0114166D01*
X0069034Y0114973D01*
X0069472Y0116029D01*
X0069472Y0117171D01*
X0069034Y0118227D01*
X0068227Y0119034D01*
X0067171Y0119472D01*
X0065915Y0119424D02*
X0058487Y0119424D01*
X0058487Y0118426D02*
X0064365Y0118426D01*
X0063834Y0117427D02*
X0058487Y0117427D01*
X0058487Y0116429D02*
X0063728Y0116429D01*
X0063976Y0115430D02*
X0058487Y0115430D01*
X0058487Y0114432D02*
X0060933Y0114432D01*
X0061029Y0114472D02*
X0059973Y0114034D01*
X0059166Y0113227D01*
X0058728Y0112171D01*
X0058728Y0111029D01*
X0059166Y0109973D01*
X0059973Y0109166D01*
X0061029Y0108728D01*
X0062171Y0108728D01*
X0063227Y0109166D01*
X0064034Y0109973D01*
X0064472Y0111029D01*
X0064472Y0112171D01*
X0064034Y0113227D01*
X0063227Y0114034D01*
X0062171Y0114472D01*
X0061029Y0114472D01*
X0062267Y0114432D02*
X0064707Y0114432D01*
X0063828Y0113433D02*
X0078350Y0113433D01*
X0077351Y0112435D02*
X0064362Y0112435D01*
X0064472Y0111436D02*
X0076528Y0111436D01*
X0076213Y0110438D02*
X0064227Y0110438D01*
X0063500Y0109439D02*
X0076248Y0109439D01*
X0076676Y0108441D02*
X0058487Y0108441D01*
X0058487Y0109439D02*
X0059700Y0109439D01*
X0058973Y0110438D02*
X0058487Y0110438D01*
X0058487Y0111436D02*
X0058728Y0111436D01*
X0058838Y0112435D02*
X0058487Y0112435D01*
X0058487Y0113433D02*
X0059372Y0113433D01*
X0057611Y0107442D02*
X0077971Y0107442D01*
X0079348Y0114432D02*
X0068493Y0114432D01*
X0069224Y0115430D02*
X0080347Y0115430D01*
X0081345Y0116429D02*
X0069472Y0116429D01*
X0069366Y0117427D02*
X0082344Y0117427D01*
X0083342Y0118426D02*
X0068835Y0118426D01*
X0058487Y0124417D02*
X0084501Y0124417D01*
X0085499Y0125415D02*
X0058487Y0125415D01*
X0058487Y0126414D02*
X0087978Y0126414D01*
X0087913Y0126527D02*
X0088110Y0126184D01*
X0089439Y0124856D01*
X0091549Y0126966D01*
X0089299Y0129216D01*
X0088110Y0128027D01*
X0087913Y0127684D01*
X0087811Y0127303D01*
X0087811Y0126908D01*
X0087913Y0126527D01*
X0087840Y0127412D02*
X0058487Y0127412D01*
X0058487Y0128411D02*
X0088495Y0128411D01*
X0090104Y0128411D02*
X0091474Y0128411D01*
X0091103Y0127412D02*
X0091995Y0127412D01*
X0092473Y0127412D02*
X0093365Y0127412D01*
X0092993Y0128411D02*
X0094363Y0128411D01*
X0093992Y0129409D02*
X0095885Y0129409D01*
X0095694Y0128411D02*
X0096884Y0128411D01*
X0096551Y0127412D02*
X0098256Y0127412D01*
X0097391Y0126414D02*
X0099182Y0126414D01*
X0098389Y0125415D02*
X0100180Y0125415D01*
X0099388Y0124417D02*
X0101179Y0124417D01*
X0100386Y0123418D02*
X0102425Y0123418D01*
X0102487Y0122420D02*
X0101177Y0122420D01*
X0101448Y0121421D02*
X0102996Y0121421D01*
X0101775Y0120423D02*
X0112513Y0120423D01*
X0112513Y0121421D02*
X0107204Y0121421D01*
X0107713Y0122420D02*
X0112513Y0122420D01*
X0112513Y0123418D02*
X0107775Y0123418D01*
X0107450Y0124417D02*
X0112513Y0124417D01*
X0112513Y0125415D02*
X0106787Y0125415D01*
X0106172Y0126414D02*
X0112513Y0126414D01*
X0112513Y0127412D02*
X0106677Y0127412D01*
X0106394Y0128411D02*
X0112513Y0128411D01*
X0112513Y0129409D02*
X0105395Y0129409D01*
X0104397Y0130408D02*
X0112513Y0130408D01*
X0112511Y0131406D02*
X0103398Y0131406D01*
X0102157Y0132405D02*
X0109190Y0132405D01*
X0108192Y0133403D02*
X0101702Y0133403D01*
X0097110Y0132405D02*
X0096988Y0132405D01*
X0097359Y0131406D02*
X0095989Y0131406D01*
X0096360Y0130408D02*
X0094990Y0130408D01*
X0094887Y0130408D02*
X0093697Y0130408D01*
X0093888Y0131406D02*
X0056463Y0131406D01*
X0057461Y0130408D02*
X0090492Y0130408D01*
X0090475Y0129409D02*
X0058460Y0129409D01*
X0055464Y0132405D02*
X0093311Y0132405D01*
X0093539Y0133403D02*
X0054466Y0133403D01*
X0052987Y0143389D02*
X0089250Y0143389D01*
X0088787Y0144387D02*
X0052987Y0144387D01*
X0052987Y0145386D02*
X0088728Y0145386D01*
X0089024Y0146384D02*
X0052987Y0146384D01*
X0087690Y0125415D02*
X0088879Y0125415D01*
X0088688Y0124417D02*
X0090369Y0124417D01*
X0089998Y0125415D02*
X0091368Y0125415D01*
X0090996Y0126414D02*
X0092101Y0126414D01*
X0096966Y0122234D02*
X0099100Y0120100D01*
X0101209Y0118426D02*
X0112513Y0118426D01*
X0112513Y0119424D02*
X0101715Y0119424D01*
X0116687Y0122420D02*
X0191544Y0122420D01*
X0192136Y0123418D02*
X0116687Y0123418D01*
X0114600Y0133100D02*
X0112002Y0135698D01*
X0110502Y0135698D01*
X0103544Y0143389D02*
X0098950Y0143389D01*
X0099413Y0144387D02*
X0104542Y0144387D01*
X0136600Y0131600D02*
X0136600Y0131600D01*
X0139234Y0134234D01*
X0086375Y0120423D02*
X0085005Y0120423D01*
X0085377Y0119424D02*
X0084007Y0119424D01*
X0086004Y0121421D02*
X0086094Y0121421D01*
X0116687Y0089469D02*
X0209448Y0089469D01*
X0211600Y0091100D02*
X0217620Y0091100D01*
X0217600Y0091080D01*
X0217600Y0090946D01*
X0217620Y0091100D02*
X0225655Y0091100D01*
X0225600Y0091045D01*
X0225600Y0090946D01*
X0225655Y0091100D02*
X0233446Y0091100D01*
X0233600Y0090946D01*
X0230344Y0093463D02*
X0228856Y0093463D01*
X0222344Y0093463D02*
X0221038Y0093463D01*
X0214162Y0093463D02*
X0212885Y0093463D01*
X0220336Y0087472D02*
X0222864Y0087472D01*
X0222344Y0088470D02*
X0221053Y0088470D01*
X0221053Y0086473D02*
X0222344Y0086473D01*
X0222344Y0085475D02*
X0221053Y0085475D01*
X0221053Y0084476D02*
X0222344Y0084476D01*
X0222344Y0083478D02*
X0221053Y0083478D01*
X0221053Y0082479D02*
X0222344Y0082479D01*
X0222418Y0081481D02*
X0220782Y0081481D01*
X0222500Y0080482D02*
X0223913Y0080482D01*
X0223913Y0079484D02*
X0223129Y0079484D01*
X0223275Y0078485D02*
X0223703Y0078485D01*
X0223072Y0077487D02*
X0223034Y0077487D01*
X0222925Y0076488D02*
X0222271Y0076488D01*
X0223165Y0075490D02*
X0218202Y0075490D01*
X0218202Y0076488D02*
X0218929Y0076488D01*
X0218202Y0074491D02*
X0223926Y0074491D01*
X0222210Y0073493D02*
X0217794Y0073493D01*
X0219004Y0070497D02*
X0221662Y0070497D01*
X0222418Y0069499D02*
X0219399Y0069499D01*
X0212889Y0070497D02*
X0212611Y0070497D01*
X0209738Y0070497D02*
X0208769Y0070497D01*
X0208769Y0069499D02*
X0209738Y0069499D01*
X0209738Y0068500D02*
X0208769Y0068500D01*
X0208738Y0073493D02*
X0207769Y0073493D01*
X0207769Y0074491D02*
X0208738Y0074491D01*
X0208738Y0075490D02*
X0207769Y0075490D01*
X0211402Y0073493D02*
X0212099Y0073493D01*
X0208769Y0063068D02*
X0206891Y0063068D01*
X0206509Y0062966D01*
X0206167Y0062769D01*
X0205888Y0062490D01*
X0205690Y0062147D01*
X0205588Y0061766D01*
X0205588Y0060084D01*
X0208769Y0060084D01*
X0208769Y0063068D01*
X0208769Y0062509D02*
X0209738Y0062509D01*
X0209738Y0061511D02*
X0208769Y0061511D01*
X0208769Y0060512D02*
X0209738Y0060512D01*
X0208769Y0059514D02*
X0204788Y0059514D01*
X0205112Y0058515D02*
X0205588Y0058515D01*
X0205588Y0057517D02*
X0205112Y0057517D01*
X0206080Y0056518D02*
X0201931Y0056518D01*
X0201931Y0056116D02*
X0205112Y0056116D01*
X0205112Y0054434D01*
X0205010Y0054053D01*
X0204812Y0053710D01*
X0204533Y0053431D01*
X0204191Y0053234D01*
X0203809Y0053131D01*
X0201931Y0053131D01*
X0201931Y0056116D01*
X0201931Y0055520D02*
X0200962Y0055520D01*
X0200962Y0054521D02*
X0201931Y0054521D01*
X0201931Y0053523D02*
X0200962Y0053523D01*
X0204624Y0053523D02*
X0205921Y0053523D01*
X0205112Y0054521D02*
X0213293Y0054521D01*
X0213398Y0055520D02*
X0205112Y0055520D01*
X0201931Y0057517D02*
X0200962Y0057517D01*
X0200962Y0058515D02*
X0201931Y0058515D01*
X0201931Y0059514D02*
X0200962Y0059514D01*
X0198105Y0059514D02*
X0197794Y0059514D01*
X0205588Y0060512D02*
X0159677Y0060512D01*
X0159294Y0061511D02*
X0205588Y0061511D01*
X0205908Y0062509D02*
X0158295Y0062509D01*
X0155466Y0060734D02*
X0157600Y0058600D01*
X0148966Y0054234D02*
X0150600Y0051600D01*
X0142778Y0044536D02*
X0138269Y0044536D01*
X0139267Y0043537D02*
X0143776Y0043537D01*
X0144775Y0042539D02*
X0140266Y0042539D01*
X0140677Y0041540D02*
X0145773Y0041540D01*
X0146772Y0040542D02*
X0141105Y0040542D01*
X0141275Y0039543D02*
X0147770Y0039543D01*
X0148769Y0038545D02*
X0141058Y0038545D01*
X0140329Y0037546D02*
X0149767Y0037546D01*
X0153761Y0033552D02*
X0135768Y0033552D01*
X0135337Y0032554D02*
X0154760Y0032554D01*
X0155758Y0031555D02*
X0133946Y0031555D01*
X0132254Y0031555D02*
X0130162Y0031555D01*
X0130042Y0032554D02*
X0112443Y0032554D01*
X0110757Y0032554D02*
X0084416Y0032554D01*
X0084357Y0032452D02*
X0084555Y0032794D01*
X0084657Y0033175D01*
X0084657Y0033570D01*
X0084607Y0033756D01*
X0085360Y0033756D01*
X0089177Y0037572D01*
X0089177Y0038394D01*
X0089368Y0038585D01*
X0089775Y0039568D01*
X0089775Y0040632D01*
X0089368Y0041615D01*
X0088615Y0042368D01*
X0087632Y0042775D01*
X0086568Y0042775D01*
X0085585Y0042368D01*
X0085394Y0042177D01*
X0084572Y0042177D01*
X0080756Y0038360D01*
X0080756Y0037607D01*
X0080570Y0037657D01*
X0080175Y0037657D01*
X0079794Y0037555D01*
X0079452Y0037357D01*
X0078124Y0036029D01*
X0080234Y0033919D01*
X0079549Y0033234D01*
X0077439Y0035344D01*
X0076110Y0034016D01*
X0075913Y0033673D01*
X0075811Y0033292D01*
X0075811Y0032897D01*
X0075913Y0032516D01*
X0076110Y0032173D01*
X0077299Y0030984D01*
X0079549Y0033234D01*
X0080234Y0032549D01*
X0080919Y0033234D01*
X0083029Y0031124D01*
X0084357Y0032452D01*
X0084657Y0033552D02*
X0109365Y0033552D01*
X0108932Y0034551D02*
X0086155Y0034551D01*
X0087154Y0035549D02*
X0108925Y0035549D01*
X0109305Y0036548D02*
X0108428Y0036548D01*
X0106772Y0036548D02*
X0088152Y0036548D01*
X0089151Y0037546D02*
X0096267Y0037546D01*
X0095269Y0038545D02*
X0089328Y0038545D01*
X0089765Y0039543D02*
X0094270Y0039543D01*
X0093272Y0040542D02*
X0089775Y0040542D01*
X0089399Y0041540D02*
X0092273Y0041540D01*
X0091275Y0042539D02*
X0088201Y0042539D01*
X0085999Y0042539D02*
X0067425Y0042539D01*
X0066427Y0041540D02*
X0083936Y0041540D01*
X0082937Y0040542D02*
X0065428Y0040542D01*
X0064430Y0039543D02*
X0081939Y0039543D01*
X0080940Y0038545D02*
X0063431Y0038545D01*
X0062433Y0037546D02*
X0079780Y0037546D01*
X0078643Y0036548D02*
X0061434Y0036548D01*
X0060436Y0035549D02*
X0078603Y0035549D01*
X0078232Y0034551D02*
X0079601Y0034551D01*
X0079867Y0033552D02*
X0079230Y0033552D01*
X0078869Y0032554D02*
X0080229Y0032554D01*
X0080234Y0032549D02*
X0077984Y0030299D01*
X0079173Y0029110D01*
X0079516Y0028913D01*
X0079897Y0028811D01*
X0080292Y0028811D01*
X0080673Y0028913D01*
X0081016Y0029110D01*
X0082344Y0030439D01*
X0080234Y0032549D01*
X0080239Y0032554D02*
X0081598Y0032554D01*
X0081227Y0031555D02*
X0082597Y0031555D01*
X0083461Y0031555D02*
X0128038Y0031555D01*
X0126808Y0030557D02*
X0100426Y0030557D01*
X0101098Y0029558D02*
X0126425Y0029558D01*
X0126173Y0028560D02*
X0101275Y0028560D01*
X0101065Y0027561D02*
X0125175Y0027561D01*
X0124176Y0026563D02*
X0100677Y0026563D01*
X0098600Y0028600D02*
X0096466Y0026466D01*
X0096466Y0026466D01*
X0096466Y0026466D01*
X0093955Y0028560D02*
X0065671Y0028560D01*
X0065942Y0028422D02*
X0065315Y0028741D01*
X0064646Y0028958D01*
X0064084Y0029047D01*
X0064084Y0025084D01*
X0068047Y0025084D01*
X0067958Y0025646D01*
X0067741Y0026315D01*
X0067422Y0026942D01*
X0067008Y0027511D01*
X0066511Y0028008D01*
X0065942Y0028422D01*
X0066958Y0027561D02*
X0092957Y0027561D01*
X0092256Y0026563D02*
X0077920Y0026563D01*
X0078596Y0025564D02*
X0090659Y0025564D01*
X0092255Y0021570D02*
X0092582Y0021570D01*
X0091257Y0020572D02*
X0089887Y0020572D01*
X0090258Y0019573D02*
X0088888Y0019573D01*
X0088711Y0019573D02*
X0073460Y0019573D01*
X0072461Y0018575D02*
X0089709Y0018575D01*
X0090733Y0017576D02*
X0082925Y0017576D01*
X0076691Y0013582D02*
X0076509Y0013582D01*
X0076509Y0012584D02*
X0076691Y0012584D01*
X0077007Y0011585D02*
X0076193Y0011585D01*
X0077613Y0010587D02*
X0065032Y0010587D01*
X0066604Y0011585D02*
X0070314Y0011585D01*
X0069998Y0012584D02*
X0067371Y0012584D01*
X0062168Y0010587D02*
X0055032Y0010587D01*
X0056604Y0011585D02*
X0060596Y0011585D01*
X0059829Y0012584D02*
X0057371Y0012584D01*
X0057785Y0013582D02*
X0059415Y0013582D01*
X0059344Y0014581D02*
X0057856Y0014581D01*
X0057801Y0015579D02*
X0059399Y0015579D01*
X0059813Y0016578D02*
X0057387Y0016578D01*
X0049813Y0016578D02*
X0047964Y0016578D01*
X0047801Y0015579D02*
X0049399Y0015579D01*
X0049344Y0014581D02*
X0047856Y0014581D01*
X0047785Y0013582D02*
X0049415Y0013582D01*
X0049829Y0012584D02*
X0047371Y0012584D01*
X0046604Y0011585D02*
X0050596Y0011585D01*
X0052168Y0010587D02*
X0045032Y0010587D01*
X0042168Y0010587D02*
X0041973Y0010587D01*
X0040974Y0009588D02*
X0077425Y0009588D01*
X0076562Y0008590D02*
X0039976Y0008590D01*
X0038977Y0007591D02*
X0075563Y0007591D01*
X0077623Y0004596D02*
X0103699Y0004596D01*
X0096266Y0014581D02*
X0094896Y0014581D01*
X0101966Y0020966D02*
X0104100Y0023100D01*
X0104100Y0023100D01*
X0095952Y0030557D02*
X0082226Y0030557D01*
X0081464Y0029558D02*
X0094954Y0029558D01*
X0084966Y0037966D02*
X0087100Y0040100D01*
X0087100Y0040100D01*
X0090276Y0043537D02*
X0068424Y0043537D01*
X0076646Y0034551D02*
X0029334Y0034551D01*
X0032039Y0028560D02*
X0025671Y0028560D01*
X0025942Y0028422D02*
X0025315Y0028741D01*
X0024646Y0028958D01*
X0024084Y0029047D01*
X0024084Y0025084D01*
X0028047Y0025084D01*
X0027958Y0025646D01*
X0027741Y0026315D01*
X0027422Y0026942D01*
X0027008Y0027511D01*
X0026511Y0028008D01*
X0025942Y0028422D01*
X0026958Y0027561D02*
X0030543Y0027561D01*
X0029992Y0027011D02*
X0029344Y0025447D01*
X0029344Y0023753D01*
X0029992Y0022189D01*
X0031189Y0020992D01*
X0032753Y0020344D01*
X0034447Y0020344D01*
X0036011Y0020992D01*
X0037208Y0022189D01*
X0037856Y0023753D01*
X0037856Y0025447D01*
X0037208Y0027011D01*
X0036011Y0028208D01*
X0034447Y0028856D01*
X0032753Y0028856D01*
X0031189Y0028208D01*
X0029992Y0027011D01*
X0029806Y0026563D02*
X0027615Y0026563D01*
X0027971Y0025564D02*
X0029393Y0025564D01*
X0029344Y0024566D02*
X0024084Y0024566D01*
X0024084Y0024116D02*
X0024084Y0025084D01*
X0023116Y0025084D01*
X0023116Y0024116D01*
X0024084Y0024116D01*
X0024084Y0020152D01*
X0024646Y0020242D01*
X0025315Y0020459D01*
X0025942Y0020778D01*
X0026511Y0021192D01*
X0027008Y0021689D01*
X0027422Y0022258D01*
X0027741Y0022885D01*
X0027958Y0023554D01*
X0028047Y0024116D01*
X0024084Y0024116D01*
X0024084Y0023567D02*
X0023116Y0023567D01*
X0023116Y0024116D02*
X0023116Y0020152D01*
X0022554Y0020242D01*
X0021885Y0020459D01*
X0021258Y0020778D01*
X0020689Y0021192D01*
X0020192Y0021689D01*
X0019778Y0022258D01*
X0019459Y0022885D01*
X0019242Y0023554D01*
X0019152Y0024116D01*
X0023116Y0024116D01*
X0023116Y0024566D02*
X0017202Y0024566D01*
X0017202Y0025564D02*
X0019229Y0025564D01*
X0019242Y0025646D02*
X0019152Y0025084D01*
X0023116Y0025084D01*
X0023116Y0029047D01*
X0022554Y0028958D01*
X0021885Y0028741D01*
X0021258Y0028422D01*
X0020689Y0028008D01*
X0020192Y0027511D01*
X0019778Y0026942D01*
X0019459Y0026315D01*
X0019242Y0025646D01*
X0019585Y0026563D02*
X0017202Y0026563D01*
X0016940Y0027561D02*
X0020242Y0027561D01*
X0021529Y0028560D02*
X0004387Y0028560D01*
X0004387Y0029558D02*
X0078725Y0029558D01*
X0078242Y0030557D02*
X0004387Y0030557D01*
X0004387Y0031555D02*
X0076728Y0031555D01*
X0077870Y0031555D02*
X0079240Y0031555D01*
X0075903Y0032554D02*
X0004387Y0032554D01*
X0004387Y0033552D02*
X0075880Y0033552D01*
X0074280Y0026563D02*
X0067615Y0026563D01*
X0067971Y0025564D02*
X0073604Y0025564D01*
X0073425Y0024566D02*
X0064084Y0024566D01*
X0063116Y0024566D02*
X0057856Y0024566D01*
X0057807Y0025564D02*
X0059229Y0025564D01*
X0059242Y0025646D02*
X0059152Y0025084D01*
X0063116Y0025084D01*
X0063116Y0029047D01*
X0062554Y0028958D01*
X0061885Y0028741D01*
X0061258Y0028422D01*
X0060689Y0028008D01*
X0060192Y0027511D01*
X0059778Y0026942D01*
X0059459Y0026315D01*
X0059242Y0025646D01*
X0059585Y0026563D02*
X0057394Y0026563D01*
X0056657Y0027561D02*
X0060242Y0027561D01*
X0061529Y0028560D02*
X0055161Y0028560D01*
X0052039Y0028560D02*
X0045161Y0028560D01*
X0044447Y0028856D02*
X0046011Y0028208D01*
X0047208Y0027011D01*
X0047856Y0025447D01*
X0047856Y0023753D01*
X0047208Y0022189D01*
X0046011Y0020992D01*
X0044447Y0020344D01*
X0042753Y0020344D01*
X0041189Y0020992D01*
X0039992Y0022189D01*
X0039344Y0023753D01*
X0039344Y0025447D01*
X0039992Y0027011D01*
X0041189Y0028208D01*
X0042753Y0028856D01*
X0044447Y0028856D01*
X0042039Y0028560D02*
X0035161Y0028560D01*
X0036657Y0027561D02*
X0040543Y0027561D01*
X0039806Y0026563D02*
X0037394Y0026563D01*
X0037807Y0025564D02*
X0039393Y0025564D01*
X0039344Y0024566D02*
X0037856Y0024566D01*
X0037779Y0023567D02*
X0039421Y0023567D01*
X0039835Y0022569D02*
X0037365Y0022569D01*
X0036589Y0021570D02*
X0040611Y0021570D01*
X0042204Y0020572D02*
X0034996Y0020572D01*
X0034447Y0018856D02*
X0032753Y0018856D01*
X0031189Y0018208D01*
X0029992Y0017011D01*
X0029344Y0015447D01*
X0029344Y0013753D01*
X0029992Y0012189D01*
X0031189Y0010992D01*
X0032753Y0010344D01*
X0034447Y0010344D01*
X0036011Y0010992D01*
X0037208Y0012189D01*
X0037856Y0013753D01*
X0037856Y0015447D01*
X0037208Y0017011D01*
X0036011Y0018208D01*
X0034447Y0018856D01*
X0035125Y0018575D02*
X0042075Y0018575D01*
X0040557Y0017576D02*
X0036643Y0017576D01*
X0037387Y0016578D02*
X0039813Y0016578D01*
X0039399Y0015579D02*
X0037801Y0015579D01*
X0037856Y0014581D02*
X0039344Y0014581D01*
X0039415Y0013582D02*
X0037785Y0013582D01*
X0037371Y0012584D02*
X0039197Y0012584D01*
X0038199Y0011585D02*
X0036604Y0011585D01*
X0037200Y0010587D02*
X0035032Y0010587D01*
X0036202Y0009588D02*
X0018998Y0009588D01*
X0018000Y0010587D02*
X0022168Y0010587D01*
X0020596Y0011585D02*
X0017001Y0011585D01*
X0017202Y0012584D02*
X0019829Y0012584D01*
X0019415Y0013582D02*
X0017202Y0013582D01*
X0017202Y0014581D02*
X0019344Y0014581D01*
X0019399Y0015579D02*
X0017202Y0015579D01*
X0017202Y0016578D02*
X0019236Y0016578D01*
X0018237Y0017576D02*
X0016925Y0017576D01*
X0021013Y0019573D02*
X0046187Y0019573D01*
X0045188Y0018575D02*
X0045125Y0018575D01*
X0044996Y0020572D02*
X0047185Y0020572D01*
X0046589Y0021570D02*
X0050611Y0021570D01*
X0049835Y0022569D02*
X0047365Y0022569D01*
X0047779Y0023567D02*
X0049421Y0023567D01*
X0049344Y0024566D02*
X0047856Y0024566D01*
X0047807Y0025564D02*
X0049393Y0025564D01*
X0049806Y0026563D02*
X0047394Y0026563D01*
X0046657Y0027561D02*
X0050543Y0027561D01*
X0057779Y0023567D02*
X0059239Y0023567D01*
X0059620Y0022569D02*
X0057365Y0022569D01*
X0056589Y0021570D02*
X0060310Y0021570D01*
X0063116Y0025564D02*
X0064084Y0025564D01*
X0064084Y0026563D02*
X0063116Y0026563D01*
X0063116Y0027561D02*
X0064084Y0027561D01*
X0064084Y0028560D02*
X0063116Y0028560D01*
X0067961Y0023567D02*
X0072681Y0023567D01*
X0071682Y0022569D02*
X0067580Y0022569D01*
X0066890Y0021570D02*
X0070684Y0021570D01*
X0032204Y0020572D02*
X0025537Y0020572D01*
X0024084Y0020572D02*
X0023116Y0020572D01*
X0023116Y0021570D02*
X0024084Y0021570D01*
X0024084Y0022569D02*
X0023116Y0022569D01*
X0021663Y0020572D02*
X0020015Y0020572D01*
X0020310Y0021570D02*
X0019016Y0021570D01*
X0019620Y0022569D02*
X0017202Y0022569D01*
X0017202Y0023567D02*
X0019239Y0023567D01*
X0023116Y0025564D02*
X0024084Y0025564D01*
X0024084Y0026563D02*
X0023116Y0026563D01*
X0023116Y0027561D02*
X0024084Y0027561D01*
X0024084Y0028560D02*
X0023116Y0028560D01*
X0027961Y0023567D02*
X0029421Y0023567D01*
X0029835Y0022569D02*
X0027580Y0022569D01*
X0026890Y0021570D02*
X0030611Y0021570D01*
X0032075Y0018575D02*
X0025125Y0018575D01*
X0026643Y0017576D02*
X0030557Y0017576D01*
X0029813Y0016578D02*
X0027387Y0016578D01*
X0027801Y0015579D02*
X0029399Y0015579D01*
X0029344Y0014581D02*
X0027856Y0014581D01*
X0027785Y0013582D02*
X0029415Y0013582D01*
X0029829Y0012584D02*
X0027371Y0012584D01*
X0026604Y0011585D02*
X0030596Y0011585D01*
X0032168Y0010587D02*
X0025032Y0010587D01*
X0016223Y0007591D02*
X0012637Y0007591D01*
X0011638Y0008590D02*
X0015224Y0008590D01*
X0014226Y0009588D02*
X0010640Y0009588D01*
X0009641Y0010587D02*
X0013227Y0010587D01*
X0011007Y0011585D02*
X0010193Y0011585D01*
X0010509Y0012584D02*
X0010691Y0012584D01*
X0010691Y0013582D02*
X0010509Y0013582D01*
X0005313Y0010587D02*
X0004387Y0010587D01*
X0004387Y0009588D02*
X0005584Y0009588D01*
X0006583Y0008590D02*
X0004387Y0008590D01*
X0004387Y0007591D02*
X0007581Y0007591D01*
X0008580Y0006593D02*
X0004928Y0006593D01*
X0022012Y0018575D02*
X0022075Y0018575D01*
X0011022Y0021570D02*
X0010455Y0021570D01*
X0007738Y0025564D02*
X0006769Y0025564D01*
X0006769Y0026563D02*
X0007738Y0026563D01*
X0007738Y0027561D02*
X0006769Y0027561D01*
X0010495Y0027561D02*
X0010953Y0027561D01*
X0016475Y0040542D02*
X0016725Y0040542D01*
X0016725Y0041540D02*
X0016475Y0041540D01*
X0016475Y0042539D02*
X0016725Y0042539D01*
X0016725Y0043537D02*
X0016475Y0043537D01*
X0016475Y0044536D02*
X0016725Y0044536D01*
X0016725Y0045534D02*
X0016475Y0045534D01*
X0016475Y0046533D02*
X0016725Y0046533D01*
X0016725Y0047532D02*
X0016475Y0047532D01*
X0016475Y0048530D02*
X0016725Y0048530D01*
X0016725Y0049529D02*
X0016475Y0049529D01*
X0016475Y0050527D02*
X0016725Y0050527D01*
X0016725Y0051526D02*
X0016475Y0051526D01*
X0018467Y0051526D02*
X0020139Y0051526D01*
X0019637Y0040542D02*
X0018863Y0040542D01*
X0023563Y0040542D02*
X0024637Y0040542D01*
X0031600Y0071300D02*
X0031600Y0074600D01*
X0033500Y0074600D01*
X0052104Y0080482D02*
X0059162Y0080482D01*
X0071607Y0082479D02*
X0079776Y0082479D01*
X0079425Y0081481D02*
X0072605Y0081481D01*
X0073604Y0080482D02*
X0079461Y0080482D01*
X0079933Y0079484D02*
X0074602Y0079484D01*
X0075601Y0078485D02*
X0080110Y0078485D01*
X0081109Y0077487D02*
X0076599Y0077487D01*
X0082100Y0081100D02*
X0084234Y0078966D01*
X0106111Y0050527D02*
X0130611Y0050527D01*
X0129612Y0049529D02*
X0106275Y0049529D01*
X0106052Y0048530D02*
X0128614Y0048530D01*
X0128985Y0048530D02*
X0130355Y0048530D01*
X0129984Y0047532D02*
X0131353Y0047532D01*
X0132114Y0047532D02*
X0133484Y0047532D01*
X0133113Y0048530D02*
X0134482Y0048530D01*
X0134575Y0048530D02*
X0138784Y0048530D01*
X0139782Y0047532D02*
X0135574Y0047532D01*
X0136155Y0046533D02*
X0140781Y0046533D01*
X0141779Y0045534D02*
X0137270Y0045534D01*
X0136466Y0041734D02*
X0138600Y0039600D01*
X0133100Y0034100D02*
X0130966Y0036234D01*
X0128045Y0034551D02*
X0114268Y0034551D01*
X0114275Y0035549D02*
X0127046Y0035549D01*
X0126756Y0036548D02*
X0126588Y0036548D01*
X0126158Y0036548D02*
X0113895Y0036548D01*
X0113287Y0037546D02*
X0124748Y0037546D01*
X0125346Y0042539D02*
X0123976Y0042539D01*
X0127569Y0044536D02*
X0128759Y0044536D01*
X0129119Y0044536D02*
X0130488Y0044536D01*
X0130117Y0045534D02*
X0131487Y0045534D01*
X0131115Y0046533D02*
X0130982Y0046533D01*
X0132352Y0046533D02*
X0132485Y0046533D01*
X0133577Y0049529D02*
X0137785Y0049529D01*
X0136787Y0050527D02*
X0132578Y0050527D01*
X0127615Y0047532D02*
X0105314Y0047532D01*
X0109829Y0037546D02*
X0109913Y0037546D01*
X0113835Y0033552D02*
X0129043Y0033552D01*
X0131392Y0030557D02*
X0156757Y0030557D01*
X0157755Y0029558D02*
X0134547Y0029558D01*
X0135142Y0028560D02*
X0158754Y0028560D01*
X0159752Y0027561D02*
X0136544Y0027561D01*
X0135514Y0027561D02*
X0134144Y0027561D01*
X0134515Y0026563D02*
X0133322Y0026563D01*
X0132951Y0025564D02*
X0132147Y0025564D01*
X0132518Y0024566D02*
X0131148Y0024566D01*
X0131520Y0023567D02*
X0127287Y0023567D01*
X0127287Y0022569D02*
X0131726Y0022569D01*
X0133075Y0021570D02*
X0127287Y0021570D01*
X0127287Y0020572D02*
X0134024Y0020572D01*
X0133756Y0021570D02*
X0133671Y0021570D01*
X0137966Y0021234D02*
X0140100Y0019100D01*
X0140237Y0023567D02*
X0206746Y0023567D01*
X0205748Y0024566D02*
X0139239Y0024566D01*
X0137639Y0025564D02*
X0161749Y0025564D01*
X0160751Y0026563D02*
X0137464Y0026563D01*
X0129729Y0024566D02*
X0127287Y0024566D01*
X0127951Y0025564D02*
X0128903Y0025564D01*
X0164534Y0033552D02*
X0225728Y0033552D01*
X0225925Y0032554D02*
X0165532Y0032554D01*
X0195754Y0045754D02*
X0194754Y0048600D01*
X0195754Y0045754D02*
X0195100Y0045600D01*
X0197775Y0045534D02*
X0198257Y0045534D01*
X0200962Y0045534D02*
X0201931Y0045534D01*
X0201931Y0046533D02*
X0200962Y0046533D01*
X0200962Y0047532D02*
X0201931Y0047532D01*
X0208769Y0051526D02*
X0209738Y0051526D01*
X0209738Y0052524D02*
X0208769Y0052524D01*
X0208769Y0053523D02*
X0209738Y0053523D01*
X0212586Y0053523D02*
X0212915Y0053523D01*
X0215600Y0053100D02*
X0214946Y0050446D01*
X0215946Y0050600D01*
X0212946Y0056518D02*
X0212427Y0056518D01*
X0209738Y0056518D02*
X0208769Y0056518D01*
X0208769Y0057517D02*
X0209738Y0057517D01*
X0209738Y0058515D02*
X0208769Y0058515D01*
X0212600Y0062509D02*
X0212901Y0062509D01*
X0215946Y0059600D02*
X0215446Y0057254D01*
X0215600Y0057100D01*
X0212926Y0045534D02*
X0212574Y0045534D01*
X0209738Y0041540D02*
X0208769Y0041540D01*
X0208769Y0040542D02*
X0209738Y0040542D01*
X0209738Y0039543D02*
X0208769Y0039543D01*
X0212452Y0039543D02*
X0213048Y0039543D01*
X0221031Y0031555D02*
X0226584Y0031555D01*
X0230616Y0031555D02*
X0234084Y0031555D01*
X0234473Y0031166D02*
X0233666Y0031973D01*
X0233228Y0033029D01*
X0233228Y0034171D01*
X0233666Y0035227D01*
X0234473Y0036034D01*
X0235529Y0036472D01*
X0236671Y0036472D01*
X0237727Y0036034D01*
X0238534Y0035227D01*
X0238972Y0034171D01*
X0238972Y0033029D01*
X0238534Y0031973D01*
X0237727Y0031166D01*
X0236671Y0030728D01*
X0235529Y0030728D01*
X0234473Y0031166D01*
X0233425Y0032554D02*
X0231275Y0032554D01*
X0231472Y0033552D02*
X0233228Y0033552D01*
X0233386Y0034551D02*
X0231314Y0034551D01*
X0230712Y0035549D02*
X0233988Y0035549D01*
X0238212Y0035549D02*
X0241488Y0035549D01*
X0241166Y0035227D02*
X0241973Y0036034D01*
X0243029Y0036472D01*
X0244171Y0036472D01*
X0245227Y0036034D01*
X0246034Y0035227D01*
X0246472Y0034171D01*
X0246472Y0033029D01*
X0246034Y0031973D01*
X0245227Y0031166D01*
X0244171Y0030728D01*
X0243029Y0030728D01*
X0241973Y0031166D01*
X0241166Y0031973D01*
X0240728Y0033029D01*
X0240728Y0034171D01*
X0241166Y0035227D01*
X0240886Y0034551D02*
X0238814Y0034551D01*
X0238972Y0033552D02*
X0240728Y0033552D01*
X0240925Y0032554D02*
X0238775Y0032554D01*
X0238116Y0031555D02*
X0241584Y0031555D01*
X0245616Y0031555D02*
X0255813Y0031555D01*
X0255813Y0030557D02*
X0222030Y0030557D01*
X0223028Y0029558D02*
X0255813Y0029558D01*
X0255813Y0028560D02*
X0224027Y0028560D01*
X0225025Y0027561D02*
X0255813Y0027561D01*
X0255813Y0026563D02*
X0226024Y0026563D01*
X0227022Y0025564D02*
X0255813Y0025564D01*
X0255813Y0024566D02*
X0228021Y0024566D01*
X0229019Y0023567D02*
X0255813Y0023567D01*
X0255813Y0022569D02*
X0230018Y0022569D01*
X0231016Y0021570D02*
X0255813Y0021570D01*
X0255813Y0020572D02*
X0253189Y0020572D01*
X0253534Y0020227D02*
X0252727Y0021034D01*
X0251671Y0021472D01*
X0250529Y0021472D01*
X0249473Y0021034D01*
X0248666Y0020227D01*
X0248228Y0019171D01*
X0248228Y0018029D01*
X0248666Y0016973D01*
X0249473Y0016166D01*
X0250529Y0015728D01*
X0251671Y0015728D01*
X0252727Y0016166D01*
X0253534Y0016973D01*
X0253972Y0018029D01*
X0253972Y0019171D01*
X0253534Y0020227D01*
X0253805Y0019573D02*
X0255813Y0019573D01*
X0255813Y0018575D02*
X0253972Y0018575D01*
X0253784Y0017576D02*
X0255813Y0017576D01*
X0255813Y0016578D02*
X0253139Y0016578D01*
X0255813Y0015579D02*
X0246882Y0015579D01*
X0246639Y0016578D02*
X0249061Y0016578D01*
X0248416Y0017576D02*
X0247284Y0017576D01*
X0247472Y0018575D02*
X0248228Y0018575D01*
X0248395Y0019573D02*
X0247305Y0019573D01*
X0246689Y0020572D02*
X0249011Y0020572D01*
X0242511Y0020572D02*
X0240189Y0020572D01*
X0240805Y0019573D02*
X0241895Y0019573D01*
X0241728Y0018575D02*
X0240972Y0018575D01*
X0240784Y0017576D02*
X0241916Y0017576D01*
X0242561Y0016578D02*
X0240139Y0016578D01*
X0236061Y0016578D02*
X0236009Y0016578D01*
X0235416Y0017576D02*
X0235010Y0017576D01*
X0235228Y0018575D02*
X0234012Y0018575D01*
X0233013Y0019573D02*
X0235395Y0019573D01*
X0236011Y0020572D02*
X0232015Y0020572D01*
X0227734Y0015579D02*
X0220882Y0015579D01*
X0221275Y0014581D02*
X0228733Y0014581D01*
X0228925Y0013582D02*
X0221275Y0013582D01*
X0220866Y0012584D02*
X0229334Y0012584D01*
X0230682Y0011585D02*
X0219518Y0011585D01*
X0217682Y0011585D02*
X0211288Y0011585D01*
X0211300Y0010587D02*
X0255813Y0010587D01*
X0255813Y0011585D02*
X0245518Y0011585D01*
X0246866Y0012584D02*
X0255813Y0012584D01*
X0255813Y0013582D02*
X0247275Y0013582D01*
X0247275Y0014581D02*
X0255813Y0014581D01*
X0255813Y0009588D02*
X0211300Y0009588D01*
X0211300Y0008590D02*
X0255813Y0008590D01*
X0255813Y0007591D02*
X0211300Y0007591D01*
X0219608Y0016578D02*
X0226736Y0016578D01*
X0225737Y0017576D02*
X0217510Y0017576D01*
X0216512Y0018575D02*
X0224739Y0018575D01*
X0223740Y0019573D02*
X0215513Y0019573D01*
X0214515Y0020572D02*
X0222742Y0020572D01*
X0221743Y0021570D02*
X0213516Y0021570D01*
X0212518Y0022569D02*
X0220745Y0022569D01*
X0219746Y0023567D02*
X0211519Y0023567D01*
X0210521Y0024566D02*
X0218748Y0024566D01*
X0217749Y0025564D02*
X0209522Y0025564D01*
X0208524Y0026563D02*
X0216751Y0026563D01*
X0227972Y0036548D02*
X0255813Y0036548D01*
X0255813Y0037546D02*
X0227972Y0037546D01*
X0227610Y0038545D02*
X0255813Y0038545D01*
X0255813Y0039543D02*
X0226705Y0039543D01*
X0245712Y0035549D02*
X0255813Y0035549D01*
X0255813Y0034551D02*
X0246314Y0034551D01*
X0246472Y0033552D02*
X0255813Y0033552D01*
X0255813Y0032554D02*
X0246275Y0032554D01*
X0235230Y0012584D02*
X0233866Y0012584D01*
X0232518Y0011585D02*
X0243682Y0011585D01*
X0242772Y0006593D02*
X0234928Y0006593D01*
X0235927Y0005594D02*
X0241773Y0005594D01*
X0240775Y0004596D02*
X0236925Y0004596D01*
X0237924Y0003597D02*
X0239776Y0003597D01*
X0247928Y0006593D02*
X0255272Y0006593D01*
X0254273Y0005594D02*
X0248927Y0005594D01*
X0249925Y0004596D02*
X0253275Y0004596D01*
X0252276Y0003597D02*
X0250924Y0003597D01*
X0191725Y0051526D02*
X0173779Y0051526D01*
X0172780Y0052524D02*
X0192666Y0052524D01*
X0191876Y0053523D02*
X0170741Y0053523D01*
X0194462Y0140393D02*
X0195431Y0140393D01*
X0195431Y0141392D02*
X0194462Y0141392D01*
X0194462Y0142390D02*
X0195431Y0142390D01*
D18*
X0185100Y0143100D03*
X0164100Y0129100D03*
X0151600Y0119100D03*
X0132100Y0115100D03*
X0121600Y0115100D03*
X0105100Y0123100D03*
X0099100Y0120100D03*
X0093600Y0114600D03*
X0089600Y0110600D03*
X0080600Y0118100D03*
X0066600Y0099600D03*
X0088600Y0086600D03*
X0082100Y0081100D03*
X0098600Y0072100D03*
X0110100Y0074100D03*
X0113600Y0070600D03*
X0117100Y0074100D03*
X0113600Y0077600D03*
X0117100Y0081100D03*
X0120600Y0077600D03*
X0124100Y0081100D03*
X0127600Y0077600D03*
X0131100Y0074100D03*
X0127600Y0070600D03*
X0124100Y0067100D03*
X0120600Y0063600D03*
X0117100Y0067100D03*
X0120600Y0070600D03*
X0131100Y0067100D03*
X0127600Y0063600D03*
X0124100Y0060100D03*
X0134600Y0070600D03*
X0138100Y0074100D03*
X0134600Y0077600D03*
X0131100Y0081100D03*
X0127600Y0084600D03*
X0124100Y0088100D03*
X0120600Y0084600D03*
X0095100Y0094100D03*
X0134100Y0104100D03*
X0140600Y0106600D03*
X0145100Y0102600D03*
X0162100Y0106600D03*
X0174100Y0091600D03*
X0161600Y0085600D03*
X0156600Y0090100D03*
X0149100Y0089100D03*
X0167100Y0079100D03*
X0186600Y0071600D03*
X0201600Y0064100D03*
X0215600Y0057100D03*
X0215600Y0053100D03*
X0195100Y0045600D03*
X0190100Y0040600D03*
X0169600Y0051100D03*
X0161600Y0045350D03*
X0150600Y0051600D03*
X0157600Y0058600D03*
X0146100Y0069600D03*
X0103600Y0049600D03*
X0095600Y0050600D03*
X0091600Y0053600D03*
X0071100Y0059100D03*
X0059600Y0049600D03*
X0065100Y0048600D03*
X0057600Y0043100D03*
X0031600Y0055600D03*
X0023600Y0056600D03*
X0050600Y0058600D03*
X0054600Y0067100D03*
X0059100Y0071100D03*
X0035100Y0074600D03*
X0041600Y0091600D03*
X0025100Y0100100D03*
X0025100Y0106600D03*
X0019100Y0106600D03*
X0009100Y0109100D03*
X0058600Y0141600D03*
X0090600Y0138100D03*
X0114600Y0133100D03*
X0123600Y0134600D03*
X0136600Y0131600D03*
X0146600Y0131600D03*
X0149100Y0144100D03*
X0194100Y0121600D03*
X0189100Y0098600D03*
X0211600Y0091100D03*
X0211600Y0084100D03*
X0220600Y0078600D03*
X0225600Y0076600D03*
X0224100Y0071600D03*
X0239100Y0071600D03*
X0239100Y0094600D03*
X0138600Y0039600D03*
X0133100Y0034100D03*
X0129100Y0029100D03*
X0140100Y0019100D03*
X0132600Y0016600D03*
X0125600Y0015100D03*
X0118100Y0014600D03*
X0113600Y0017600D03*
X0104100Y0023100D03*
X0098600Y0028600D03*
X0094100Y0034100D03*
X0087100Y0040100D03*
X0107600Y0039100D03*
X0111600Y0035100D03*
X0079100Y0019600D03*
X0076100Y0024600D03*
X0080100Y0009600D03*
X0099100Y0005100D03*
X0027600Y0036600D03*
X0217600Y0023600D03*
X0218600Y0014100D03*
X0231600Y0014100D03*
X0244600Y0014100D03*
X0219100Y0005100D03*
D19*
X0238100Y0018600D03*
X0244600Y0018600D03*
X0251100Y0018600D03*
X0243600Y0033600D03*
X0236100Y0033600D03*
X0228600Y0033600D03*
X0225100Y0037100D03*
X0229600Y0045600D03*
X0241600Y0049100D03*
X0228600Y0055600D03*
X0251600Y0061600D03*
X0251600Y0069100D03*
X0249600Y0107600D03*
X0234600Y0111600D03*
X0228100Y0111600D03*
X0221600Y0111600D03*
X0221600Y0118100D03*
X0221600Y0124600D03*
X0096600Y0145100D03*
X0091600Y0145100D03*
X0058600Y0124600D03*
X0054600Y0116600D03*
X0049100Y0116600D03*
X0043600Y0116600D03*
X0043600Y0111100D03*
X0049100Y0111100D03*
X0054600Y0111100D03*
X0061600Y0111600D03*
X0066600Y0116600D03*
X0079100Y0110100D03*
X0085100Y0116100D03*
X0049100Y0136100D03*
X0043600Y0136100D03*
X0043600Y0141600D03*
X0049100Y0141600D03*
X0049100Y0147100D03*
X0043600Y0147100D03*
X0016600Y0141600D03*
X0021600Y0121600D03*
X0026600Y0116600D03*
X0031600Y0121600D03*
X0031600Y0111600D03*
X0021600Y0111600D03*
X0017100Y0056600D03*
X0009100Y0056600D03*
X0009600Y0036600D03*
X0015600Y0036600D03*
X0021600Y0036600D03*
X0071100Y0036600D03*
D20*
X0079100Y0110100D02*
X0085100Y0116100D01*
D21*
X0056600Y0116657D02*
X0041600Y0116657D01*
X0041600Y0115459D02*
X0056600Y0115459D01*
X0056600Y0114260D02*
X0041600Y0114260D01*
X0041600Y0113062D02*
X0056600Y0113062D01*
X0056600Y0111863D02*
X0041600Y0111863D01*
X0041600Y0110665D02*
X0056600Y0110665D01*
X0056600Y0109466D02*
X0041600Y0109466D01*
X0041600Y0109100D02*
X0041600Y0122193D01*
X0041664Y0122156D01*
X0042070Y0122047D01*
X0044240Y0122047D01*
X0044240Y0126000D01*
X0045440Y0126000D01*
X0045440Y0122047D01*
X0047610Y0122047D01*
X0048017Y0122156D01*
X0048382Y0122367D01*
X0048680Y0122665D01*
X0048890Y0123030D01*
X0048999Y0123437D01*
X0048999Y0126000D01*
X0045440Y0126000D01*
X0045440Y0127200D01*
X0044240Y0127200D01*
X0044240Y0131153D01*
X0042070Y0131153D01*
X0041664Y0131044D01*
X0041600Y0131007D01*
X0041600Y0148713D01*
X0051100Y0148713D01*
X0051100Y0134100D01*
X0056600Y0128600D01*
X0056600Y0126803D01*
X0056081Y0126283D01*
X0055628Y0125191D01*
X0055628Y0124009D01*
X0056081Y0122917D01*
X0056600Y0122397D01*
X0056600Y0109100D01*
X0041600Y0109100D01*
X0041600Y0117856D02*
X0056600Y0117856D01*
X0056600Y0119054D02*
X0041600Y0119054D01*
X0041600Y0120253D02*
X0056600Y0120253D01*
X0056600Y0121451D02*
X0041600Y0121451D01*
X0044240Y0122650D02*
X0045440Y0122650D01*
X0045440Y0123848D02*
X0044240Y0123848D01*
X0044240Y0125047D02*
X0045440Y0125047D01*
X0045440Y0126245D02*
X0056065Y0126245D01*
X0055628Y0125047D02*
X0048999Y0125047D01*
X0048999Y0123848D02*
X0055695Y0123848D01*
X0056348Y0122650D02*
X0048664Y0122650D01*
X0048999Y0127200D02*
X0045440Y0127200D01*
X0045440Y0131153D01*
X0047610Y0131153D01*
X0048017Y0131044D01*
X0048382Y0130833D01*
X0048680Y0130535D01*
X0048890Y0130170D01*
X0048999Y0129763D01*
X0048999Y0127200D01*
X0048999Y0127444D02*
X0056600Y0127444D01*
X0056558Y0128642D02*
X0048999Y0128642D01*
X0048978Y0129841D02*
X0055359Y0129841D01*
X0054161Y0131039D02*
X0048025Y0131039D01*
X0045440Y0131039D02*
X0044240Y0131039D01*
X0044240Y0129841D02*
X0045440Y0129841D01*
X0045440Y0128642D02*
X0044240Y0128642D01*
X0044240Y0127444D02*
X0045440Y0127444D01*
X0041656Y0131039D02*
X0041600Y0131039D01*
X0041600Y0132238D02*
X0052962Y0132238D01*
X0051764Y0133436D02*
X0041600Y0133436D01*
X0041600Y0134635D02*
X0051100Y0134635D01*
X0051100Y0135833D02*
X0041600Y0135833D01*
X0041600Y0137032D02*
X0051100Y0137032D01*
X0051100Y0138230D02*
X0041600Y0138230D01*
X0041600Y0139429D02*
X0051100Y0139429D01*
X0051100Y0140627D02*
X0041600Y0140627D01*
X0041600Y0141826D02*
X0051100Y0141826D01*
X0051100Y0143024D02*
X0041600Y0143024D01*
X0041600Y0144223D02*
X0051100Y0144223D01*
X0051100Y0145421D02*
X0041600Y0145421D01*
X0041600Y0146620D02*
X0051100Y0146620D01*
X0051100Y0147818D02*
X0041600Y0147818D01*
X0165466Y0077466D02*
X0165466Y0077466D01*
X0167100Y0079100D01*
D22*
X0194754Y0056600D02*
X0194754Y0048600D01*
X0215946Y0050600D02*
X0215946Y0042600D01*
X0215946Y0059600D02*
X0215946Y0067600D01*
X0114600Y0088100D02*
X0098600Y0072100D01*
X0114600Y0088100D02*
X0114600Y0133100D01*
D23*
X0162600Y0013600D03*
D24*
X0124100Y0074100D03*
M02*
