G75*
%MOIN*%
%OFA0B0*%
%FSLAX25Y25*%
%IPPOS*%
%LPD*%
%AMOC8*
5,1,8,0,0,1.08239X$1,22.5*
%
%ADD10C,0.00000*%
%ADD11C,0.00500*%
%ADD12C,0.00600*%
%ADD13C,0.00185*%
%ADD14C,0.00655*%
%ADD15R,0.19239X0.01392*%
%ADD16R,0.06631X0.02292*%
%ADD17R,0.02293X0.02210*%
D10*
X0003100Y0006600D02*
X0008100Y0001600D01*
X0226100Y0001600D01*
X0230100Y0005600D01*
X0234100Y0005600D01*
X0238100Y0001600D01*
X0239600Y0001600D01*
X0243600Y0005600D01*
X0247100Y0005600D01*
X0251100Y0001600D01*
X0252100Y0001600D01*
X0257100Y0006600D01*
X0257100Y0106600D01*
X0237600Y0126100D01*
X0237600Y0147600D01*
X0235100Y0150100D01*
X0015600Y0150100D01*
X0003100Y0137600D01*
X0003100Y0006600D01*
D11*
X0020757Y0007769D02*
X0023093Y0005434D01*
X0023093Y0004850D01*
X0024441Y0004850D02*
X0026776Y0004850D01*
X0025608Y0004850D02*
X0025608Y0008353D01*
X0026776Y0007185D01*
X0028124Y0007769D02*
X0028124Y0005434D01*
X0028708Y0004850D01*
X0029875Y0004850D01*
X0030459Y0005434D01*
X0028124Y0007769D01*
X0028708Y0008353D01*
X0029875Y0008353D01*
X0030459Y0007769D01*
X0030459Y0005434D01*
X0031807Y0004850D02*
X0034142Y0004850D01*
X0032974Y0004850D02*
X0032974Y0008353D01*
X0034142Y0007185D01*
X0035490Y0007769D02*
X0037825Y0005434D01*
X0037825Y0004850D01*
X0039173Y0004850D02*
X0041508Y0004850D01*
X0040341Y0004850D02*
X0040341Y0008353D01*
X0041508Y0007185D01*
X0042856Y0007769D02*
X0042856Y0005434D01*
X0043440Y0004850D01*
X0044608Y0004850D01*
X0045192Y0005434D01*
X0042856Y0007769D01*
X0043440Y0008353D01*
X0044608Y0008353D01*
X0045192Y0007769D01*
X0045192Y0005434D01*
X0046539Y0004850D02*
X0048875Y0004850D01*
X0046539Y0007185D01*
X0046539Y0007769D01*
X0047123Y0008353D01*
X0048291Y0008353D01*
X0048875Y0007769D01*
X0053906Y0007185D02*
X0053906Y0004850D01*
X0052558Y0004266D02*
X0050223Y0004266D01*
X0053906Y0006601D02*
X0056241Y0006601D01*
X0056241Y0007185D02*
X0055073Y0008353D01*
X0053906Y0007185D01*
X0056241Y0007185D02*
X0056241Y0004850D01*
X0058173Y0004850D02*
X0058173Y0008353D01*
X0059924Y0006601D01*
X0057589Y0006601D01*
X0061272Y0006018D02*
X0061856Y0006601D01*
X0063607Y0006601D01*
X0063607Y0005434D01*
X0063023Y0004850D01*
X0061856Y0004850D01*
X0061272Y0005434D01*
X0061272Y0006018D01*
X0062440Y0007769D02*
X0063607Y0006601D01*
X0062440Y0007769D02*
X0061272Y0008353D01*
X0064955Y0008353D02*
X0064955Y0004850D01*
X0067290Y0008353D01*
X0067290Y0004850D01*
X0086630Y0006668D02*
X0086948Y0006349D01*
X0087585Y0006349D01*
X0087585Y0005712D01*
X0087904Y0005394D01*
X0088541Y0005394D01*
X0089177Y0006031D01*
X0089177Y0006668D01*
X0090306Y0007159D02*
X0091579Y0008433D01*
X0089032Y0008433D01*
X0088713Y0008751D01*
X0088713Y0009388D01*
X0089350Y0010025D01*
X0089987Y0010025D01*
X0091115Y0011790D02*
X0093026Y0009880D01*
X0093663Y0010516D02*
X0092389Y0009243D01*
X0092389Y0011790D02*
X0091115Y0011790D01*
X0092880Y0012918D02*
X0092880Y0013555D01*
X0093517Y0014192D01*
X0094154Y0014192D01*
X0095428Y0012918D01*
X0095428Y0012282D01*
X0094791Y0011645D01*
X0094154Y0011645D01*
X0099448Y0012123D02*
X0101359Y0010213D01*
X0101996Y0010849D02*
X0100722Y0009576D01*
X0100722Y0012123D02*
X0099448Y0012123D01*
X0101850Y0012614D02*
X0103124Y0013888D01*
X0101213Y0013888D01*
X0103124Y0011978D01*
X0104889Y0013743D02*
X0106163Y0015016D01*
X0105526Y0014380D02*
X0103615Y0016290D01*
X0104889Y0016290D01*
X0105380Y0017418D02*
X0105380Y0018055D01*
X0106017Y0018692D01*
X0106654Y0018692D01*
X0107928Y0017418D01*
X0107928Y0016782D01*
X0107291Y0016145D01*
X0106654Y0016145D01*
X0120576Y0016478D02*
X0121850Y0015204D01*
X0121213Y0015841D02*
X0123123Y0017752D01*
X0123123Y0016478D01*
X0123933Y0015668D02*
X0123933Y0015031D01*
X0123296Y0015031D01*
X0122978Y0014713D01*
X0122978Y0014076D01*
X0123615Y0013439D01*
X0124251Y0013439D01*
X0124743Y0012311D02*
X0126017Y0011037D01*
X0125380Y0011674D02*
X0127290Y0013585D01*
X0127290Y0012311D01*
X0128418Y0011820D02*
X0129055Y0011820D01*
X0129692Y0011183D01*
X0129692Y0010546D01*
X0128418Y0009272D01*
X0127782Y0009272D01*
X0127145Y0009909D01*
X0127145Y0010546D01*
X0125525Y0014713D02*
X0125525Y0015350D01*
X0124888Y0015987D01*
X0124251Y0015987D01*
X0123933Y0015668D01*
X0123933Y0015031D02*
X0124251Y0014713D01*
X0140645Y0023409D02*
X0140645Y0024046D01*
X0140645Y0023409D02*
X0141282Y0022772D01*
X0141918Y0022772D01*
X0143192Y0024046D01*
X0143192Y0024683D01*
X0142555Y0025320D01*
X0141918Y0025320D01*
X0140790Y0025811D02*
X0140790Y0027085D01*
X0138880Y0025174D01*
X0139517Y0024537D02*
X0138243Y0025811D01*
X0137751Y0026939D02*
X0137751Y0029487D01*
X0136478Y0028213D01*
X0136478Y0027576D01*
X0137115Y0026939D01*
X0137751Y0026939D01*
X0139025Y0028213D01*
X0139025Y0028850D01*
X0138388Y0029487D01*
X0137751Y0029487D01*
X0136305Y0029659D02*
X0135031Y0030933D01*
X0134394Y0029659D02*
X0136305Y0031570D01*
X0136305Y0029659D01*
X0129192Y0032046D02*
X0129192Y0032683D01*
X0128555Y0033320D01*
X0127918Y0033320D01*
X0126790Y0033811D02*
X0126790Y0035085D01*
X0124880Y0033174D01*
X0125517Y0032537D02*
X0124243Y0033811D01*
X0123433Y0034621D02*
X0122159Y0035894D01*
X0122305Y0037659D02*
X0121031Y0038933D01*
X0120394Y0037659D02*
X0122305Y0039570D01*
X0122305Y0037659D01*
X0123433Y0037168D02*
X0123751Y0037487D01*
X0124388Y0037487D01*
X0125025Y0036850D01*
X0125025Y0036213D01*
X0123433Y0037168D02*
X0123433Y0034621D01*
X0126645Y0032046D02*
X0126645Y0031409D01*
X0127282Y0030772D01*
X0127918Y0030772D01*
X0129192Y0032046D01*
X0140145Y0043409D02*
X0140782Y0042772D01*
X0141418Y0042772D01*
X0142692Y0044046D01*
X0142692Y0044683D01*
X0142055Y0045320D01*
X0141418Y0045320D01*
X0140290Y0045811D02*
X0140290Y0047085D01*
X0138380Y0045174D01*
X0139017Y0044537D02*
X0137743Y0045811D01*
X0137251Y0046939D02*
X0136615Y0046939D01*
X0135978Y0047576D01*
X0135978Y0048213D01*
X0137251Y0049487D01*
X0137251Y0046939D01*
X0138525Y0048213D01*
X0138525Y0048850D01*
X0137888Y0049487D01*
X0137251Y0049487D01*
X0136760Y0050615D02*
X0135805Y0049659D01*
X0135486Y0050615D01*
X0135168Y0050933D01*
X0134531Y0050933D01*
X0133894Y0050296D01*
X0133894Y0049659D01*
X0134531Y0049023D01*
X0135168Y0049023D01*
X0136760Y0050615D02*
X0135486Y0051889D01*
X0140145Y0044046D02*
X0140145Y0043409D01*
X0152282Y0055272D02*
X0151645Y0055909D01*
X0151645Y0056546D01*
X0150517Y0057037D02*
X0149243Y0058311D01*
X0149880Y0057674D02*
X0151790Y0059585D01*
X0151790Y0058311D01*
X0152918Y0057820D02*
X0153555Y0057820D01*
X0154192Y0057183D01*
X0154192Y0056546D01*
X0152918Y0055272D01*
X0152282Y0055272D01*
X0148751Y0059439D02*
X0148751Y0061987D01*
X0147478Y0060713D01*
X0147478Y0060076D01*
X0148115Y0059439D01*
X0148751Y0059439D01*
X0150025Y0060713D01*
X0150025Y0061350D01*
X0149388Y0061987D01*
X0148751Y0061987D01*
X0147305Y0062159D02*
X0146350Y0063115D01*
X0145713Y0063115D01*
X0145394Y0062796D01*
X0145394Y0062159D01*
X0146031Y0061523D01*
X0146668Y0061523D01*
X0147305Y0062159D01*
X0147305Y0063433D01*
X0146986Y0064389D01*
X0151894Y0069159D02*
X0152531Y0068523D01*
X0153168Y0068523D01*
X0153805Y0069159D02*
X0153486Y0070115D01*
X0153168Y0070433D01*
X0152531Y0070433D01*
X0151894Y0069796D01*
X0151894Y0069159D01*
X0153805Y0069159D02*
X0154760Y0070115D01*
X0153486Y0071389D01*
X0155251Y0068987D02*
X0155888Y0068987D01*
X0156525Y0068350D01*
X0156525Y0067713D01*
X0155251Y0068987D02*
X0154933Y0068668D01*
X0154933Y0066121D01*
X0153659Y0067394D01*
X0155743Y0065311D02*
X0157017Y0064037D01*
X0156380Y0064674D02*
X0158290Y0066585D01*
X0158290Y0065311D01*
X0159418Y0064820D02*
X0160055Y0064820D01*
X0160692Y0064183D01*
X0160692Y0063546D01*
X0159418Y0062272D01*
X0158782Y0062272D01*
X0158145Y0062909D01*
X0158145Y0063546D01*
X0172668Y0056070D02*
X0172668Y0053523D01*
X0172350Y0053204D01*
X0173478Y0052713D02*
X0173478Y0052076D01*
X0174115Y0051439D01*
X0174751Y0051439D01*
X0174751Y0053987D01*
X0173478Y0052713D01*
X0174751Y0053987D02*
X0175388Y0053987D01*
X0176025Y0053350D01*
X0176025Y0052713D01*
X0174751Y0051439D01*
X0175243Y0050311D02*
X0176517Y0049037D01*
X0175880Y0049674D02*
X0177790Y0051585D01*
X0177790Y0050311D01*
X0178918Y0049820D02*
X0179555Y0049820D01*
X0180192Y0049183D01*
X0180192Y0048546D01*
X0178918Y0047272D01*
X0178282Y0047272D01*
X0177645Y0047909D01*
X0177645Y0048546D01*
X0181709Y0047350D02*
X0183510Y0047350D01*
X0182610Y0047350D02*
X0182610Y0050052D01*
X0183510Y0049152D01*
X0184655Y0049602D02*
X0186457Y0047800D01*
X0186007Y0047350D01*
X0185106Y0047350D01*
X0184655Y0047800D01*
X0184655Y0049602D01*
X0185106Y0050052D01*
X0186007Y0050052D01*
X0186457Y0049602D01*
X0186457Y0047800D01*
X0187602Y0047350D02*
X0189403Y0047350D01*
X0187602Y0049152D01*
X0187602Y0049602D01*
X0188052Y0050052D01*
X0188953Y0050052D01*
X0189403Y0049602D01*
X0190548Y0049602D02*
X0190999Y0050052D01*
X0191900Y0050052D01*
X0192350Y0049602D01*
X0192350Y0047800D01*
X0191900Y0047350D01*
X0190999Y0047350D01*
X0190548Y0047800D01*
X0190999Y0055350D02*
X0190548Y0055800D01*
X0190999Y0055350D02*
X0191900Y0055350D01*
X0192350Y0055800D01*
X0192350Y0057602D01*
X0191900Y0058052D01*
X0190999Y0058052D01*
X0190548Y0057602D01*
X0189403Y0057602D02*
X0188953Y0058052D01*
X0188052Y0058052D01*
X0187602Y0057602D01*
X0187602Y0057152D01*
X0189403Y0055350D01*
X0187602Y0055350D01*
X0186457Y0055800D02*
X0184655Y0057602D01*
X0184655Y0055800D01*
X0185106Y0055350D01*
X0186007Y0055350D01*
X0186457Y0055800D01*
X0186457Y0057602D01*
X0186007Y0058052D01*
X0185106Y0058052D01*
X0184655Y0057602D01*
X0183510Y0057602D02*
X0183060Y0058052D01*
X0182159Y0058052D01*
X0181709Y0057602D01*
X0181709Y0057152D01*
X0183510Y0055350D01*
X0181709Y0055350D01*
X0174260Y0055115D02*
X0172986Y0056389D01*
X0172668Y0056070D01*
X0197155Y0075350D02*
X0198957Y0075350D01*
X0198056Y0075350D02*
X0198056Y0078052D01*
X0198957Y0077152D01*
X0200102Y0077152D02*
X0201903Y0075350D01*
X0200102Y0075350D01*
X0200102Y0077152D02*
X0200102Y0077602D01*
X0200552Y0078052D01*
X0201453Y0078052D01*
X0201903Y0077602D01*
X0203048Y0077602D02*
X0203048Y0076701D01*
X0203499Y0076251D01*
X0204850Y0076251D01*
X0203949Y0076251D02*
X0203048Y0075350D01*
X0204850Y0075350D02*
X0204850Y0078052D01*
X0203499Y0078052D01*
X0203048Y0077602D01*
X0219209Y0068552D02*
X0220110Y0068102D01*
X0221010Y0067201D01*
X0219659Y0067201D01*
X0219209Y0066751D01*
X0219209Y0066300D01*
X0219659Y0065850D01*
X0220560Y0065850D01*
X0221010Y0066300D01*
X0221010Y0067201D01*
X0222155Y0066300D02*
X0222606Y0065850D01*
X0223507Y0065850D01*
X0223957Y0066300D01*
X0222155Y0068102D01*
X0222155Y0066300D01*
X0222155Y0068102D02*
X0222606Y0068552D01*
X0223507Y0068552D01*
X0223957Y0068102D01*
X0223957Y0066300D01*
X0225102Y0065850D02*
X0226903Y0065850D01*
X0225102Y0067652D01*
X0225102Y0068102D01*
X0225552Y0068552D01*
X0226453Y0068552D01*
X0226903Y0068102D01*
X0228048Y0068102D02*
X0228499Y0068552D01*
X0229400Y0068552D01*
X0229850Y0068102D01*
X0229850Y0066300D01*
X0229400Y0065850D01*
X0228499Y0065850D01*
X0228048Y0066300D01*
X0228499Y0060552D02*
X0229400Y0060552D01*
X0229850Y0060102D01*
X0229850Y0058300D01*
X0229400Y0057850D01*
X0228499Y0057850D01*
X0228048Y0058300D01*
X0226903Y0057850D02*
X0225102Y0057850D01*
X0223957Y0058300D02*
X0222155Y0060102D01*
X0222155Y0058300D01*
X0222606Y0057850D01*
X0223507Y0057850D01*
X0223957Y0058300D01*
X0223957Y0060102D01*
X0223507Y0060552D01*
X0222606Y0060552D01*
X0222155Y0060102D01*
X0221010Y0060552D02*
X0221010Y0059201D01*
X0220110Y0059652D01*
X0219659Y0059652D01*
X0219209Y0059201D01*
X0219209Y0058300D01*
X0219659Y0057850D01*
X0220560Y0057850D01*
X0221010Y0058300D01*
X0221010Y0060552D02*
X0219209Y0060552D01*
X0225102Y0060102D02*
X0225102Y0059652D01*
X0226903Y0057850D01*
X0226903Y0060102D02*
X0226453Y0060552D01*
X0225552Y0060552D01*
X0225102Y0060102D01*
X0228048Y0060102D02*
X0228499Y0060552D01*
X0228499Y0051552D02*
X0229400Y0051552D01*
X0229850Y0051102D01*
X0229850Y0049300D01*
X0229400Y0048850D01*
X0228499Y0048850D01*
X0228048Y0049300D01*
X0226903Y0048850D02*
X0225102Y0048850D01*
X0223957Y0049300D02*
X0222155Y0051102D01*
X0222155Y0049300D01*
X0222606Y0048850D01*
X0223507Y0048850D01*
X0223957Y0049300D01*
X0223957Y0051102D01*
X0223507Y0051552D01*
X0222606Y0051552D01*
X0222155Y0051102D01*
X0221010Y0050201D02*
X0219209Y0050201D01*
X0219659Y0048850D02*
X0219659Y0051552D01*
X0221010Y0050201D01*
X0225102Y0050652D02*
X0225102Y0051102D01*
X0225552Y0051552D01*
X0226453Y0051552D01*
X0226903Y0051102D01*
X0228048Y0051102D02*
X0228499Y0051552D01*
X0226903Y0048850D02*
X0225102Y0050652D01*
X0225552Y0043552D02*
X0226453Y0043552D01*
X0226903Y0043102D01*
X0228048Y0043102D02*
X0228499Y0043552D01*
X0229400Y0043552D01*
X0229850Y0043102D01*
X0229850Y0041300D01*
X0229400Y0040850D01*
X0228499Y0040850D01*
X0228048Y0041300D01*
X0226903Y0040850D02*
X0225102Y0042652D01*
X0225102Y0043102D01*
X0225552Y0043552D01*
X0223957Y0043102D02*
X0223507Y0043552D01*
X0222606Y0043552D01*
X0222155Y0043102D01*
X0223957Y0041300D01*
X0223507Y0040850D01*
X0222606Y0040850D01*
X0222155Y0041300D01*
X0222155Y0043102D01*
X0221010Y0043102D02*
X0220560Y0043552D01*
X0219659Y0043552D01*
X0219209Y0043102D01*
X0219209Y0042652D01*
X0219659Y0042201D01*
X0219209Y0041751D01*
X0219209Y0041300D01*
X0219659Y0040850D01*
X0220560Y0040850D01*
X0221010Y0041300D01*
X0220110Y0042201D02*
X0219659Y0042201D01*
X0223957Y0041300D02*
X0223957Y0043102D01*
X0225102Y0040850D02*
X0226903Y0040850D01*
X0171177Y0081031D02*
X0170541Y0080394D01*
X0169904Y0080394D01*
X0169585Y0080713D01*
X0169585Y0081349D01*
X0170541Y0082305D01*
X0171177Y0081668D01*
X0171177Y0081031D01*
X0170541Y0082305D02*
X0169267Y0082305D01*
X0168311Y0081986D01*
X0170713Y0083751D02*
X0170713Y0084388D01*
X0171350Y0085025D01*
X0171987Y0085025D01*
X0170713Y0083751D02*
X0171032Y0083433D01*
X0173579Y0083433D01*
X0172306Y0082159D01*
X0174389Y0084243D02*
X0175663Y0085516D01*
X0175026Y0084880D02*
X0173115Y0086790D01*
X0174389Y0086790D01*
X0174880Y0087918D02*
X0174880Y0088555D01*
X0175517Y0089192D01*
X0176154Y0089192D01*
X0177428Y0087918D01*
X0177428Y0087282D01*
X0176791Y0086645D01*
X0176154Y0086645D01*
X0169663Y0091516D02*
X0168389Y0090243D01*
X0169026Y0090880D02*
X0167115Y0092790D01*
X0168389Y0092790D01*
X0168880Y0093918D02*
X0168880Y0094555D01*
X0169517Y0095192D01*
X0170154Y0095192D01*
X0171428Y0093918D01*
X0171428Y0093282D01*
X0170791Y0092645D01*
X0170154Y0092645D01*
X0167261Y0089751D02*
X0165987Y0091025D01*
X0165350Y0091025D01*
X0164713Y0090388D01*
X0164713Y0089751D01*
X0167261Y0089751D01*
X0167261Y0089114D01*
X0166624Y0088478D01*
X0165987Y0088478D01*
X0164713Y0089751D01*
X0163904Y0088942D02*
X0164222Y0088623D01*
X0164222Y0087986D01*
X0163585Y0087349D01*
X0163585Y0086712D01*
X0163904Y0086394D01*
X0164541Y0086394D01*
X0165177Y0087031D01*
X0165177Y0087668D01*
X0164859Y0087986D01*
X0164222Y0087986D01*
X0163585Y0087349D02*
X0162948Y0087349D01*
X0162630Y0087668D01*
X0162630Y0088305D01*
X0163267Y0088942D01*
X0163904Y0088942D01*
X0141428Y0103782D02*
X0140791Y0103145D01*
X0140154Y0103145D01*
X0139663Y0102016D02*
X0138389Y0100743D01*
X0139026Y0101380D02*
X0137115Y0103290D01*
X0138389Y0103290D01*
X0138880Y0104418D02*
X0138880Y0105055D01*
X0139517Y0105692D01*
X0140154Y0105692D01*
X0141428Y0104418D01*
X0141428Y0103782D01*
X0137261Y0100251D02*
X0134713Y0100251D01*
X0135987Y0098978D01*
X0136624Y0098978D01*
X0137261Y0099614D01*
X0137261Y0100251D01*
X0135987Y0101525D01*
X0135350Y0101525D01*
X0134713Y0100888D01*
X0134713Y0100251D01*
X0133904Y0099442D02*
X0134222Y0099123D01*
X0134222Y0098486D01*
X0133267Y0097531D01*
X0133904Y0096894D02*
X0132630Y0098168D01*
X0132630Y0098805D01*
X0133267Y0099442D01*
X0133904Y0099442D01*
X0135177Y0098168D02*
X0135177Y0097531D01*
X0134541Y0096894D01*
X0133904Y0096894D01*
X0122496Y0110349D02*
X0122177Y0110668D01*
X0119630Y0110668D01*
X0119311Y0110986D01*
X0120585Y0112260D01*
X0121713Y0112751D02*
X0121713Y0113388D01*
X0122350Y0114025D01*
X0122987Y0114025D01*
X0121713Y0112751D02*
X0122032Y0112433D01*
X0124579Y0112433D01*
X0123306Y0111159D01*
X0125389Y0113243D02*
X0126663Y0114516D01*
X0126026Y0113880D02*
X0124115Y0115790D01*
X0125389Y0115790D01*
X0125880Y0116918D02*
X0125880Y0117555D01*
X0126517Y0118192D01*
X0127154Y0118192D01*
X0128428Y0116918D01*
X0128428Y0116282D01*
X0127791Y0115645D01*
X0127154Y0115645D01*
X0108192Y0130046D02*
X0106918Y0128772D01*
X0106282Y0128772D01*
X0105645Y0129409D01*
X0105645Y0130046D01*
X0104517Y0130537D02*
X0103243Y0131811D01*
X0103880Y0131174D02*
X0105790Y0133085D01*
X0105790Y0131811D01*
X0106918Y0131320D02*
X0107555Y0131320D01*
X0108192Y0130683D01*
X0108192Y0130046D01*
X0104025Y0134213D02*
X0104025Y0134850D01*
X0103388Y0135487D01*
X0102751Y0135487D01*
X0102433Y0135168D01*
X0102433Y0132621D01*
X0101159Y0133894D01*
X0100668Y0135023D02*
X0100986Y0135341D01*
X0100986Y0135978D01*
X0100350Y0136615D01*
X0099713Y0136615D01*
X0099394Y0136296D01*
X0099394Y0135659D01*
X0100031Y0135023D01*
X0100668Y0135023D01*
X0100986Y0135978D02*
X0101623Y0135978D01*
X0101942Y0136296D01*
X0101942Y0136933D01*
X0101305Y0137570D01*
X0100668Y0137570D01*
X0100350Y0137252D01*
X0100350Y0136615D01*
X0109478Y0141576D02*
X0110115Y0140939D01*
X0110751Y0140939D01*
X0111243Y0139811D02*
X0112517Y0138537D01*
X0111880Y0139174D02*
X0113790Y0141085D01*
X0113790Y0139811D01*
X0114918Y0139320D02*
X0115555Y0139320D01*
X0116192Y0138683D01*
X0116192Y0138046D01*
X0114918Y0136772D01*
X0114282Y0136772D01*
X0113645Y0137409D01*
X0113645Y0138046D01*
X0112025Y0142213D02*
X0112025Y0142850D01*
X0111388Y0143487D01*
X0110751Y0143487D01*
X0110433Y0143168D01*
X0110433Y0142531D01*
X0109796Y0142531D01*
X0109478Y0142213D01*
X0109478Y0141576D01*
X0110433Y0142531D02*
X0110751Y0142213D01*
X0108350Y0142704D02*
X0108350Y0145252D01*
X0108668Y0145570D01*
X0109305Y0145570D01*
X0109942Y0144933D01*
X0109942Y0144296D01*
X0108350Y0142704D02*
X0107076Y0143978D01*
X0087790Y0133085D02*
X0085880Y0131174D01*
X0086517Y0130537D02*
X0085243Y0131811D01*
X0084433Y0132621D02*
X0083159Y0133894D01*
X0083796Y0133257D02*
X0085707Y0135168D01*
X0085707Y0133894D01*
X0087790Y0133085D02*
X0087790Y0131811D01*
X0088918Y0131320D02*
X0089555Y0131320D01*
X0090192Y0130683D01*
X0090192Y0130046D01*
X0088918Y0128772D01*
X0088282Y0128772D01*
X0087645Y0129409D01*
X0087645Y0130046D01*
X0084055Y0125820D02*
X0084692Y0125183D01*
X0084692Y0124546D01*
X0083418Y0123272D01*
X0082782Y0123272D01*
X0082145Y0123909D01*
X0082145Y0124546D01*
X0081017Y0125037D02*
X0079743Y0126311D01*
X0080380Y0125674D02*
X0082290Y0127585D01*
X0082290Y0126311D01*
X0083418Y0125820D02*
X0084055Y0125820D01*
X0080207Y0128394D02*
X0080207Y0129668D01*
X0078296Y0127757D01*
X0078933Y0127121D02*
X0077659Y0128394D01*
X0076850Y0129204D02*
X0075576Y0130478D01*
X0076213Y0129841D02*
X0078123Y0131752D01*
X0078123Y0130478D01*
X0082031Y0135023D02*
X0081394Y0135659D01*
X0081394Y0136296D01*
X0082668Y0137570D01*
X0082668Y0135023D01*
X0082031Y0135023D01*
X0082668Y0135023D02*
X0083942Y0136296D01*
X0083942Y0136933D01*
X0083305Y0137570D01*
X0082668Y0137570D01*
X0046350Y0133102D02*
X0046350Y0131300D01*
X0045900Y0130850D01*
X0044999Y0130850D01*
X0044548Y0131300D01*
X0043403Y0130850D02*
X0041602Y0130850D01*
X0042503Y0130850D02*
X0042503Y0133552D01*
X0043403Y0132652D01*
X0044548Y0133102D02*
X0044999Y0133552D01*
X0045900Y0133552D01*
X0046350Y0133102D01*
X0040457Y0133102D02*
X0040457Y0131300D01*
X0038655Y0133102D01*
X0038655Y0131300D01*
X0039106Y0130850D01*
X0040007Y0130850D01*
X0040457Y0131300D01*
X0040457Y0133102D02*
X0040007Y0133552D01*
X0039106Y0133552D01*
X0038655Y0133102D01*
X0037510Y0132652D02*
X0036610Y0133552D01*
X0036610Y0130850D01*
X0037510Y0130850D02*
X0035709Y0130850D01*
X0098476Y0095878D02*
X0099750Y0094604D01*
X0099750Y0097152D01*
X0100068Y0097470D01*
X0100705Y0097470D01*
X0101342Y0096833D01*
X0101342Y0096196D01*
X0103107Y0095068D02*
X0103107Y0093794D01*
X0103107Y0095068D02*
X0101196Y0093157D01*
X0101833Y0092521D02*
X0100559Y0093794D01*
X0103280Y0091074D02*
X0105190Y0092985D01*
X0105190Y0091711D01*
X0106318Y0091220D02*
X0106955Y0091220D01*
X0107592Y0090583D01*
X0107592Y0089946D01*
X0106318Y0088672D01*
X0105682Y0088672D01*
X0105045Y0089309D01*
X0105045Y0089946D01*
X0103917Y0090437D02*
X0102643Y0091711D01*
X0096225Y0087550D02*
X0096225Y0086913D01*
X0096225Y0087550D02*
X0095588Y0088187D01*
X0094951Y0088187D01*
X0094633Y0087868D01*
X0094633Y0085321D01*
X0093359Y0086594D01*
X0092868Y0087723D02*
X0092231Y0087723D01*
X0091594Y0088359D01*
X0091594Y0088996D01*
X0092868Y0090270D01*
X0093505Y0090270D01*
X0094142Y0089633D01*
X0094142Y0088996D01*
X0093823Y0088678D01*
X0093186Y0088678D01*
X0092231Y0089633D01*
X0095443Y0084511D02*
X0096717Y0083237D01*
X0096080Y0083874D02*
X0097990Y0085785D01*
X0097990Y0084511D01*
X0099118Y0084020D02*
X0099755Y0084020D01*
X0100392Y0083383D01*
X0100392Y0082746D01*
X0099118Y0081472D01*
X0098482Y0081472D01*
X0097845Y0082109D01*
X0097845Y0082746D01*
X0083207Y0075168D02*
X0083207Y0073894D01*
X0083207Y0075168D02*
X0081296Y0073257D01*
X0081933Y0072621D02*
X0080659Y0073894D01*
X0080168Y0075023D02*
X0079531Y0075023D01*
X0078894Y0075659D01*
X0078894Y0076296D01*
X0079213Y0076615D01*
X0079850Y0076615D01*
X0080168Y0076296D01*
X0079850Y0076615D02*
X0079850Y0077252D01*
X0080168Y0077570D01*
X0080805Y0077570D01*
X0081442Y0076933D01*
X0081442Y0076296D01*
X0085290Y0073085D02*
X0083380Y0071174D01*
X0084017Y0070537D02*
X0082743Y0071811D01*
X0085290Y0071811D02*
X0085290Y0073085D01*
X0086418Y0071320D02*
X0087055Y0071320D01*
X0087692Y0070683D01*
X0087692Y0070046D01*
X0086418Y0068772D01*
X0085782Y0068772D01*
X0085145Y0069409D01*
X0085145Y0070046D01*
X0069850Y0064602D02*
X0069850Y0062800D01*
X0069400Y0062350D01*
X0068499Y0062350D01*
X0068048Y0062800D01*
X0066903Y0062350D02*
X0065102Y0062350D01*
X0066003Y0062350D02*
X0066003Y0065052D01*
X0066903Y0064152D01*
X0068048Y0064602D02*
X0068499Y0065052D01*
X0069400Y0065052D01*
X0069850Y0064602D01*
X0063957Y0064602D02*
X0063507Y0065052D01*
X0062606Y0065052D01*
X0062155Y0064602D01*
X0062155Y0064152D01*
X0063957Y0062350D01*
X0062155Y0062350D01*
X0061010Y0062350D02*
X0059209Y0064152D01*
X0059209Y0064602D01*
X0059659Y0065052D01*
X0060560Y0065052D01*
X0061010Y0064602D01*
X0061010Y0062350D02*
X0059209Y0062350D01*
X0055850Y0062052D02*
X0054499Y0062052D01*
X0054048Y0061602D01*
X0054048Y0060701D01*
X0054499Y0060251D01*
X0055850Y0060251D01*
X0054949Y0060251D02*
X0054048Y0059350D01*
X0052903Y0059800D02*
X0052453Y0059350D01*
X0051552Y0059350D01*
X0051102Y0059800D01*
X0051102Y0060701D01*
X0051552Y0061152D01*
X0052003Y0061152D01*
X0052903Y0060701D01*
X0052903Y0062052D01*
X0051102Y0062052D01*
X0049957Y0061602D02*
X0049507Y0062052D01*
X0048606Y0062052D01*
X0048155Y0061602D01*
X0048155Y0061152D01*
X0048606Y0060701D01*
X0048155Y0060251D01*
X0048155Y0059800D01*
X0048606Y0059350D01*
X0049507Y0059350D01*
X0049957Y0059800D01*
X0049056Y0060701D02*
X0048606Y0060701D01*
X0055850Y0059350D02*
X0055850Y0062052D01*
X0055850Y0053052D02*
X0054499Y0053052D01*
X0054048Y0052602D01*
X0054048Y0051701D01*
X0054499Y0051251D01*
X0055850Y0051251D01*
X0054949Y0051251D02*
X0054048Y0050350D01*
X0052903Y0050800D02*
X0052453Y0050350D01*
X0051552Y0050350D01*
X0051102Y0050800D01*
X0051102Y0051701D01*
X0051552Y0052152D01*
X0052003Y0052152D01*
X0052903Y0051701D01*
X0052903Y0053052D01*
X0051102Y0053052D01*
X0049957Y0052602D02*
X0049507Y0053052D01*
X0048606Y0053052D01*
X0048155Y0052602D01*
X0048155Y0052152D01*
X0049957Y0050350D01*
X0048155Y0050350D01*
X0049056Y0047052D02*
X0049056Y0044350D01*
X0049957Y0044350D02*
X0048155Y0044350D01*
X0051102Y0044800D02*
X0051552Y0044350D01*
X0052453Y0044350D01*
X0052903Y0044800D01*
X0052903Y0045701D02*
X0052003Y0046152D01*
X0051552Y0046152D01*
X0051102Y0045701D01*
X0051102Y0044800D01*
X0049957Y0046152D02*
X0049056Y0047052D01*
X0051102Y0047052D02*
X0052903Y0047052D01*
X0052903Y0045701D01*
X0054048Y0045701D02*
X0054499Y0045251D01*
X0055850Y0045251D01*
X0054949Y0045251D02*
X0054048Y0044350D01*
X0054048Y0045701D02*
X0054048Y0046602D01*
X0054499Y0047052D01*
X0055850Y0047052D01*
X0055850Y0044350D01*
X0055850Y0050350D02*
X0055850Y0053052D01*
X0076713Y0038388D02*
X0076713Y0037751D01*
X0079261Y0037751D01*
X0079261Y0037114D01*
X0078624Y0036478D01*
X0077987Y0036478D01*
X0076713Y0037751D01*
X0076713Y0038388D02*
X0077350Y0039025D01*
X0077987Y0039025D01*
X0079261Y0037751D01*
X0080389Y0038243D02*
X0081663Y0039516D01*
X0081026Y0038880D02*
X0079115Y0040790D01*
X0080389Y0040790D01*
X0080880Y0041918D02*
X0080880Y0042555D01*
X0081517Y0043192D01*
X0082154Y0043192D01*
X0083428Y0041918D01*
X0083428Y0041282D01*
X0082791Y0040645D01*
X0082154Y0040645D01*
X0077496Y0035349D02*
X0074948Y0035349D01*
X0074630Y0035668D01*
X0074630Y0036305D01*
X0075267Y0036942D01*
X0075904Y0036942D01*
X0077496Y0035349D02*
X0076222Y0034076D01*
X0088213Y0026888D02*
X0088213Y0026251D01*
X0090761Y0026251D01*
X0090761Y0025614D01*
X0090124Y0024978D01*
X0089487Y0024978D01*
X0088213Y0026251D01*
X0088213Y0026888D02*
X0088850Y0027525D01*
X0089487Y0027525D01*
X0090761Y0026251D01*
X0091889Y0026743D02*
X0093163Y0028016D01*
X0092526Y0027380D02*
X0090615Y0029290D01*
X0091889Y0029290D01*
X0092380Y0030418D02*
X0092380Y0031055D01*
X0093017Y0031692D01*
X0093654Y0031692D01*
X0094928Y0030418D01*
X0094928Y0029782D01*
X0094291Y0029145D01*
X0093654Y0029145D01*
X0087404Y0025442D02*
X0086767Y0025442D01*
X0086130Y0024805D01*
X0086130Y0024168D01*
X0086448Y0023849D01*
X0087085Y0023849D01*
X0087085Y0023212D01*
X0087404Y0022894D01*
X0088041Y0022894D01*
X0088677Y0023531D01*
X0088677Y0024168D01*
X0087404Y0024168D02*
X0087085Y0023849D01*
X0080350Y0020552D02*
X0078999Y0020552D01*
X0078548Y0020102D01*
X0078548Y0019201D01*
X0078999Y0018751D01*
X0080350Y0018751D01*
X0079449Y0018751D02*
X0078548Y0017850D01*
X0077403Y0017850D02*
X0075602Y0017850D01*
X0076503Y0017850D02*
X0076503Y0020552D01*
X0077403Y0019652D01*
X0074457Y0020102D02*
X0074007Y0020552D01*
X0073106Y0020552D01*
X0072655Y0020102D01*
X0072655Y0019652D01*
X0073106Y0019201D01*
X0072655Y0018751D01*
X0072655Y0018300D01*
X0073106Y0017850D01*
X0074007Y0017850D01*
X0074457Y0018300D01*
X0073556Y0019201D02*
X0073106Y0019201D01*
X0080350Y0017850D02*
X0080350Y0020552D01*
X0087267Y0007942D02*
X0086630Y0007305D01*
X0086630Y0006668D01*
X0087585Y0006349D02*
X0087904Y0006668D01*
X0087904Y0007942D02*
X0087267Y0007942D01*
X0037825Y0008353D02*
X0035490Y0008353D01*
X0035490Y0007769D01*
X0023093Y0008353D02*
X0020757Y0008353D01*
X0020757Y0007769D01*
X0014350Y0017850D02*
X0014350Y0020552D01*
X0012999Y0020552D01*
X0012548Y0020102D01*
X0012548Y0019201D01*
X0012999Y0018751D01*
X0014350Y0018751D01*
X0013449Y0018751D02*
X0012548Y0017850D01*
X0011403Y0017850D02*
X0009602Y0017850D01*
X0010503Y0017850D02*
X0010503Y0020552D01*
X0011403Y0019652D01*
X0008457Y0020102D02*
X0008007Y0020552D01*
X0007106Y0020552D01*
X0006655Y0020102D01*
X0006655Y0019652D01*
X0008457Y0017850D01*
X0006655Y0017850D01*
X0006655Y0027850D02*
X0008457Y0027850D01*
X0007556Y0027850D02*
X0007556Y0030552D01*
X0008457Y0029652D01*
X0009602Y0027850D02*
X0011403Y0027850D01*
X0010503Y0027850D02*
X0010503Y0030552D01*
X0011403Y0029652D01*
X0012548Y0030102D02*
X0012548Y0029201D01*
X0012999Y0028751D01*
X0014350Y0028751D01*
X0013449Y0028751D02*
X0012548Y0027850D01*
X0014350Y0027850D02*
X0014350Y0030552D01*
X0012999Y0030552D01*
X0012548Y0030102D01*
X0035209Y0078350D02*
X0037010Y0078350D01*
X0036110Y0078350D02*
X0036110Y0081052D01*
X0037010Y0080152D01*
X0038155Y0080602D02*
X0039957Y0078800D01*
X0039507Y0078350D01*
X0038606Y0078350D01*
X0038155Y0078800D01*
X0038155Y0080602D01*
X0038606Y0081052D01*
X0039507Y0081052D01*
X0039957Y0080602D01*
X0039957Y0078800D01*
X0041102Y0078800D02*
X0041552Y0078350D01*
X0042453Y0078350D01*
X0042903Y0078800D01*
X0042903Y0079701D02*
X0042003Y0080152D01*
X0041552Y0080152D01*
X0041102Y0079701D01*
X0041102Y0078800D01*
X0042903Y0079701D02*
X0042903Y0081052D01*
X0041102Y0081052D01*
X0044048Y0080602D02*
X0044499Y0081052D01*
X0045400Y0081052D01*
X0045850Y0080602D01*
X0045850Y0078800D01*
X0045400Y0078350D01*
X0044499Y0078350D01*
X0044048Y0078800D01*
X0135222Y0135076D02*
X0136496Y0136349D01*
X0133948Y0136349D01*
X0133630Y0136668D01*
X0133630Y0137305D01*
X0134267Y0137942D01*
X0134904Y0137942D01*
X0136350Y0138114D02*
X0137624Y0139388D01*
X0135713Y0139388D01*
X0137624Y0137478D01*
X0139389Y0139243D02*
X0140663Y0140516D01*
X0140026Y0139880D02*
X0138115Y0141790D01*
X0139389Y0141790D01*
X0139880Y0142918D02*
X0139880Y0143555D01*
X0140517Y0144192D01*
X0141154Y0144192D01*
X0142428Y0142918D01*
X0142428Y0142282D01*
X0141791Y0141645D01*
X0141154Y0141645D01*
X0186209Y0136850D02*
X0188010Y0136850D01*
X0187110Y0136850D02*
X0187110Y0139552D01*
X0188010Y0138652D01*
X0189155Y0139102D02*
X0190957Y0137300D01*
X0190507Y0136850D01*
X0189606Y0136850D01*
X0189155Y0137300D01*
X0189155Y0139102D01*
X0189606Y0139552D01*
X0190507Y0139552D01*
X0190957Y0139102D01*
X0190957Y0137300D01*
X0192102Y0138201D02*
X0193903Y0138201D01*
X0192552Y0139552D01*
X0192552Y0136850D01*
X0195048Y0137300D02*
X0195499Y0136850D01*
X0196400Y0136850D01*
X0196850Y0137300D01*
X0196850Y0139102D01*
X0196400Y0139552D01*
X0195499Y0139552D01*
X0195048Y0139102D01*
X0215850Y0102045D02*
X0215850Y0100243D01*
X0217652Y0102045D01*
X0218102Y0102045D01*
X0218552Y0101594D01*
X0218552Y0100693D01*
X0218102Y0100243D01*
X0218102Y0099098D02*
X0218552Y0098648D01*
X0218552Y0097747D01*
X0218102Y0097297D01*
X0218102Y0096152D02*
X0217201Y0096152D01*
X0216751Y0095701D01*
X0216751Y0094350D01*
X0216751Y0095251D02*
X0215850Y0096152D01*
X0215850Y0097297D02*
X0217652Y0099098D01*
X0218102Y0099098D01*
X0215850Y0099098D02*
X0215850Y0097297D01*
X0218102Y0096152D02*
X0218552Y0095701D01*
X0218552Y0094350D01*
X0215850Y0094350D01*
X0224350Y0094800D02*
X0224350Y0095701D01*
X0224800Y0096152D01*
X0224350Y0097297D02*
X0226152Y0099098D01*
X0226602Y0099098D01*
X0227052Y0098648D01*
X0227052Y0097747D01*
X0226602Y0097297D01*
X0226602Y0096152D02*
X0227052Y0095701D01*
X0227052Y0094800D01*
X0226602Y0094350D01*
X0224800Y0094350D01*
X0224350Y0094800D01*
X0224350Y0097297D02*
X0224350Y0099098D01*
X0224350Y0100243D02*
X0226152Y0102045D01*
X0226602Y0102045D01*
X0227052Y0101594D01*
X0227052Y0100693D01*
X0226602Y0100243D01*
X0224350Y0100243D02*
X0224350Y0102045D01*
X0232350Y0102045D02*
X0232350Y0100243D01*
X0232350Y0101144D02*
X0235052Y0101144D01*
X0234152Y0100243D01*
X0234152Y0099098D02*
X0234602Y0099098D01*
X0235052Y0098648D01*
X0235052Y0097747D01*
X0234602Y0097297D01*
X0234602Y0096152D02*
X0235052Y0095701D01*
X0235052Y0094800D01*
X0234602Y0094350D01*
X0232800Y0094350D01*
X0232350Y0094800D01*
X0232350Y0095701D01*
X0232800Y0096152D01*
X0232350Y0097297D02*
X0234152Y0099098D01*
X0232350Y0099098D02*
X0232350Y0097297D01*
D12*
X0232037Y0088850D02*
X0232037Y0086350D01*
X0235162Y0086350D02*
X0235162Y0088850D01*
X0227162Y0088850D02*
X0227162Y0086350D01*
X0224037Y0086350D02*
X0224037Y0088850D01*
X0219162Y0088850D02*
X0219162Y0086350D01*
X0216037Y0086350D02*
X0216037Y0088850D01*
X0212850Y0078163D02*
X0210350Y0078163D01*
X0210350Y0075038D02*
X0212850Y0075038D01*
X0213850Y0069163D02*
X0211350Y0069163D01*
X0211350Y0066038D02*
X0213850Y0066038D01*
X0213850Y0061162D02*
X0211350Y0061162D01*
X0211350Y0058037D02*
X0213850Y0058037D01*
X0213850Y0052162D02*
X0211350Y0052162D01*
X0211350Y0049037D02*
X0213850Y0049037D01*
X0213850Y0044162D02*
X0211350Y0044162D01*
X0211350Y0041038D02*
X0213850Y0041038D01*
X0199350Y0047037D02*
X0196850Y0047037D01*
X0196850Y0050162D02*
X0199350Y0050162D01*
X0199350Y0055037D02*
X0196850Y0055037D01*
X0196850Y0058162D02*
X0199350Y0058162D01*
X0176089Y0046821D02*
X0174321Y0048589D01*
X0172111Y0046379D02*
X0173879Y0044611D01*
X0152879Y0061111D02*
X0151111Y0062879D01*
X0153321Y0065089D02*
X0155089Y0063321D01*
X0148589Y0056821D02*
X0146821Y0058589D01*
X0144611Y0056379D02*
X0146379Y0054611D01*
X0136089Y0044321D02*
X0134321Y0046089D01*
X0132111Y0043879D02*
X0133879Y0042111D01*
X0130589Y0038821D02*
X0128821Y0040589D01*
X0126611Y0038379D02*
X0128379Y0036611D01*
X0135821Y0025589D02*
X0137589Y0023821D01*
X0135379Y0021611D02*
X0133611Y0023379D01*
X0129321Y0019089D02*
X0131089Y0017321D01*
X0128879Y0015111D02*
X0127111Y0016879D01*
X0109089Y0010879D02*
X0107321Y0009111D01*
X0105111Y0011321D02*
X0106879Y0013089D01*
X0101589Y0018379D02*
X0099821Y0016611D01*
X0097611Y0018821D02*
X0099379Y0020589D01*
X0096089Y0023879D02*
X0094321Y0022111D01*
X0092111Y0024321D02*
X0093879Y0026089D01*
X0084589Y0035379D02*
X0082821Y0033611D01*
X0080611Y0035821D02*
X0082379Y0037589D01*
X0065850Y0057537D02*
X0063350Y0057537D01*
X0063350Y0060662D02*
X0065850Y0060662D01*
X0042850Y0060537D02*
X0040350Y0060537D01*
X0040350Y0063662D02*
X0042850Y0063662D01*
X0033746Y0066277D02*
X0033746Y0053710D01*
X0014454Y0053710D01*
X0014454Y0066277D01*
X0033746Y0066277D01*
X0040350Y0073038D02*
X0042850Y0073038D01*
X0042850Y0076163D02*
X0040350Y0076163D01*
X0012803Y0069852D02*
X0012803Y0067583D01*
X0011101Y0067583D01*
X0011669Y0068717D01*
X0011669Y0069285D01*
X0011101Y0069852D01*
X0009967Y0069852D01*
X0009400Y0069285D01*
X0009400Y0068150D01*
X0009967Y0067583D01*
X0009967Y0066169D02*
X0012803Y0066169D01*
X0009967Y0066169D02*
X0009400Y0065601D01*
X0009400Y0064467D01*
X0009967Y0063900D01*
X0012803Y0063900D01*
X0014454Y0053710D02*
X0014454Y0050923D01*
X0033746Y0050923D01*
X0033746Y0053710D01*
X0040350Y0052537D02*
X0042850Y0052537D01*
X0042850Y0055662D02*
X0040350Y0055662D01*
X0040350Y0047662D02*
X0042850Y0047662D01*
X0042850Y0044537D02*
X0040350Y0044537D01*
X0011850Y0026162D02*
X0009350Y0026162D01*
X0009350Y0023037D02*
X0011850Y0023037D01*
X0011850Y0016162D02*
X0009350Y0016162D01*
X0009350Y0013037D02*
X0011850Y0013037D01*
X0075350Y0013037D02*
X0077850Y0013037D01*
X0077850Y0016162D02*
X0075350Y0016162D01*
X0163321Y0073111D02*
X0165089Y0074879D01*
X0162879Y0077089D02*
X0161111Y0075321D01*
X0157321Y0079111D02*
X0159089Y0080879D01*
X0156879Y0083089D02*
X0155111Y0081321D01*
X0140821Y0096111D02*
X0142589Y0097879D01*
X0140379Y0100089D02*
X0138611Y0098321D01*
X0127821Y0108611D02*
X0129589Y0110379D01*
X0127379Y0112589D02*
X0125611Y0110821D01*
X0099879Y0128111D02*
X0098111Y0129879D01*
X0100321Y0132089D02*
X0102089Y0130321D01*
X0096589Y0124821D02*
X0094821Y0126589D01*
X0092611Y0124379D02*
X0094379Y0122611D01*
X0091089Y0119321D02*
X0089321Y0121089D01*
X0087111Y0118879D02*
X0088879Y0117111D01*
X0107915Y0136076D02*
X0106147Y0137843D01*
X0108357Y0140053D02*
X0110124Y0138285D01*
X0139611Y0136821D02*
X0141379Y0138589D01*
X0143589Y0136379D02*
X0141821Y0134611D01*
X0190350Y0141538D02*
X0192850Y0141538D01*
X0192850Y0144663D02*
X0190350Y0144663D01*
X0101589Y0089821D02*
X0099821Y0091589D01*
X0097611Y0089379D02*
X0099379Y0087611D01*
X0094689Y0082821D02*
X0092921Y0084589D01*
X0090711Y0082379D02*
X0092479Y0080611D01*
X0088589Y0076821D02*
X0086821Y0078589D01*
X0084611Y0076379D02*
X0086379Y0074611D01*
X0042600Y0124100D02*
X0039600Y0124100D01*
X0039600Y0129100D02*
X0042600Y0129100D01*
D13*
X0201068Y0107343D02*
X0201068Y0106971D01*
X0240229Y0106971D01*
X0231877Y0121633D01*
X0228351Y0119963D01*
X0228907Y0119035D01*
X0229093Y0118664D01*
X0229093Y0117179D01*
X0228536Y0109755D01*
X0228165Y0109755D01*
X0227608Y0110126D01*
X0227237Y0110869D01*
X0226866Y0111982D01*
X0226680Y0113653D01*
X0226680Y0117179D01*
X0225752Y0118478D01*
X0225196Y0118478D01*
X0220185Y0116065D01*
X0220185Y0115880D01*
X0223711Y0112725D01*
X0224453Y0111611D01*
X0224824Y0110869D01*
X0224824Y0110312D01*
X0224639Y0109941D01*
X0224453Y0109755D01*
X0224082Y0109755D01*
X0222783Y0110498D01*
X0221298Y0111426D01*
X0219999Y0112354D01*
X0218328Y0113467D01*
X0216844Y0114395D01*
X0216472Y0114395D01*
X0201068Y0107343D01*
X0201068Y0107325D02*
X0240027Y0107325D01*
X0240132Y0107142D02*
X0201068Y0107142D01*
X0201431Y0107509D02*
X0239923Y0107509D01*
X0239818Y0107692D02*
X0201832Y0107692D01*
X0202233Y0107876D02*
X0239713Y0107876D01*
X0239609Y0108059D02*
X0202634Y0108059D01*
X0203035Y0108243D02*
X0239504Y0108243D01*
X0239400Y0108427D02*
X0203436Y0108427D01*
X0203837Y0108610D02*
X0239295Y0108610D01*
X0239191Y0108794D02*
X0204238Y0108794D01*
X0204639Y0108977D02*
X0239086Y0108977D01*
X0238982Y0109161D02*
X0205040Y0109161D01*
X0205440Y0109344D02*
X0238877Y0109344D01*
X0238773Y0109528D02*
X0205841Y0109528D01*
X0206242Y0109711D02*
X0238668Y0109711D01*
X0238563Y0109895D02*
X0228547Y0109895D01*
X0228560Y0110078D02*
X0238459Y0110078D01*
X0238354Y0110262D02*
X0228574Y0110262D01*
X0228588Y0110446D02*
X0238250Y0110446D01*
X0238145Y0110629D02*
X0228602Y0110629D01*
X0228616Y0110813D02*
X0238041Y0110813D01*
X0237936Y0110996D02*
X0228629Y0110996D01*
X0228643Y0111180D02*
X0237832Y0111180D01*
X0237727Y0111363D02*
X0228657Y0111363D01*
X0228671Y0111547D02*
X0237622Y0111547D01*
X0237518Y0111730D02*
X0228684Y0111730D01*
X0228698Y0111914D02*
X0237413Y0111914D01*
X0237309Y0112098D02*
X0228712Y0112098D01*
X0228726Y0112281D02*
X0237204Y0112281D01*
X0237100Y0112465D02*
X0228739Y0112465D01*
X0228753Y0112648D02*
X0236995Y0112648D01*
X0236891Y0112832D02*
X0228767Y0112832D01*
X0228781Y0113015D02*
X0236786Y0113015D01*
X0236681Y0113199D02*
X0228794Y0113199D01*
X0228808Y0113382D02*
X0236577Y0113382D01*
X0236472Y0113566D02*
X0228822Y0113566D01*
X0228836Y0113749D02*
X0236368Y0113749D01*
X0236263Y0113933D02*
X0228850Y0113933D01*
X0228863Y0114117D02*
X0236159Y0114117D01*
X0236054Y0114300D02*
X0228877Y0114300D01*
X0228891Y0114484D02*
X0235950Y0114484D01*
X0235845Y0114667D02*
X0228905Y0114667D01*
X0228918Y0114851D02*
X0235740Y0114851D01*
X0235636Y0115034D02*
X0228932Y0115034D01*
X0228946Y0115218D02*
X0235531Y0115218D01*
X0235427Y0115401D02*
X0228960Y0115401D01*
X0228973Y0115585D02*
X0235322Y0115585D01*
X0235218Y0115769D02*
X0228987Y0115769D01*
X0229001Y0115952D02*
X0235113Y0115952D01*
X0235009Y0116136D02*
X0229015Y0116136D01*
X0229028Y0116319D02*
X0234904Y0116319D01*
X0234799Y0116503D02*
X0229042Y0116503D01*
X0229056Y0116686D02*
X0234695Y0116686D01*
X0234590Y0116870D02*
X0229070Y0116870D01*
X0229083Y0117053D02*
X0234486Y0117053D01*
X0234381Y0117237D02*
X0229093Y0117237D01*
X0229093Y0117420D02*
X0234277Y0117420D01*
X0234172Y0117604D02*
X0229093Y0117604D01*
X0229093Y0117788D02*
X0234068Y0117788D01*
X0233963Y0117971D02*
X0229093Y0117971D01*
X0229093Y0118155D02*
X0233859Y0118155D01*
X0233754Y0118338D02*
X0229093Y0118338D01*
X0229093Y0118522D02*
X0233649Y0118522D01*
X0233545Y0118705D02*
X0229072Y0118705D01*
X0228980Y0118889D02*
X0233440Y0118889D01*
X0233336Y0119072D02*
X0228885Y0119072D01*
X0228775Y0119256D02*
X0233231Y0119256D01*
X0233127Y0119440D02*
X0228665Y0119440D01*
X0228555Y0119623D02*
X0233022Y0119623D01*
X0232918Y0119807D02*
X0228445Y0119807D01*
X0228408Y0119990D02*
X0232813Y0119990D01*
X0232708Y0120174D02*
X0228796Y0120174D01*
X0229183Y0120357D02*
X0232604Y0120357D01*
X0232499Y0120541D02*
X0229571Y0120541D01*
X0229959Y0120724D02*
X0232395Y0120724D01*
X0232290Y0120908D02*
X0230346Y0120908D01*
X0230734Y0121091D02*
X0232186Y0121091D01*
X0232081Y0121275D02*
X0231121Y0121275D01*
X0231509Y0121459D02*
X0231977Y0121459D01*
X0230207Y0123675D02*
X0226495Y0121819D01*
X0226124Y0121819D01*
X0222226Y0125345D01*
X0222041Y0125531D01*
X0213132Y0127201D01*
X0213132Y0127572D01*
X0220556Y0140378D01*
X0230207Y0123675D01*
X0230180Y0123661D02*
X0224087Y0123661D01*
X0223884Y0123845D02*
X0230109Y0123845D01*
X0230002Y0124028D02*
X0223682Y0124028D01*
X0223479Y0124212D02*
X0229896Y0124212D01*
X0229790Y0124395D02*
X0223276Y0124395D01*
X0223073Y0124579D02*
X0229684Y0124579D01*
X0229578Y0124763D02*
X0222870Y0124763D01*
X0222667Y0124946D02*
X0229472Y0124946D01*
X0229366Y0125130D02*
X0222464Y0125130D01*
X0222261Y0125313D02*
X0229260Y0125313D01*
X0229154Y0125497D02*
X0222075Y0125497D01*
X0221243Y0125680D02*
X0229048Y0125680D01*
X0228942Y0125864D02*
X0220264Y0125864D01*
X0219285Y0126047D02*
X0228836Y0126047D01*
X0228730Y0126231D02*
X0218306Y0126231D01*
X0217327Y0126414D02*
X0228624Y0126414D01*
X0228518Y0126598D02*
X0216349Y0126598D01*
X0215370Y0126782D02*
X0228412Y0126782D01*
X0228306Y0126965D02*
X0214391Y0126965D01*
X0213412Y0127149D02*
X0228200Y0127149D01*
X0228093Y0127332D02*
X0213132Y0127332D01*
X0213132Y0127516D02*
X0227987Y0127516D01*
X0227881Y0127699D02*
X0213205Y0127699D01*
X0213312Y0127883D02*
X0227775Y0127883D01*
X0227669Y0128066D02*
X0213418Y0128066D01*
X0213525Y0128250D02*
X0227563Y0128250D01*
X0227457Y0128434D02*
X0213631Y0128434D01*
X0213737Y0128617D02*
X0227351Y0128617D01*
X0227245Y0128801D02*
X0213844Y0128801D01*
X0213950Y0128984D02*
X0227139Y0128984D01*
X0227033Y0129168D02*
X0214057Y0129168D01*
X0214163Y0129351D02*
X0226927Y0129351D01*
X0226821Y0129535D02*
X0214270Y0129535D01*
X0214376Y0129718D02*
X0226715Y0129718D01*
X0226609Y0129902D02*
X0214482Y0129902D01*
X0214589Y0130085D02*
X0226503Y0130085D01*
X0226397Y0130269D02*
X0214695Y0130269D01*
X0214802Y0130453D02*
X0226291Y0130453D01*
X0226184Y0130636D02*
X0214908Y0130636D01*
X0215014Y0130820D02*
X0226078Y0130820D01*
X0225972Y0131003D02*
X0215121Y0131003D01*
X0215227Y0131187D02*
X0225866Y0131187D01*
X0225760Y0131370D02*
X0215334Y0131370D01*
X0215440Y0131554D02*
X0225654Y0131554D01*
X0225548Y0131737D02*
X0215546Y0131737D01*
X0215653Y0131921D02*
X0225442Y0131921D01*
X0225336Y0132105D02*
X0215759Y0132105D01*
X0215866Y0132288D02*
X0225230Y0132288D01*
X0225124Y0132472D02*
X0215972Y0132472D01*
X0216078Y0132655D02*
X0225018Y0132655D01*
X0224912Y0132839D02*
X0216185Y0132839D01*
X0216291Y0133022D02*
X0224806Y0133022D01*
X0224700Y0133206D02*
X0216398Y0133206D01*
X0216504Y0133389D02*
X0224594Y0133389D01*
X0224488Y0133573D02*
X0216610Y0133573D01*
X0216717Y0133756D02*
X0224382Y0133756D01*
X0224276Y0133940D02*
X0216823Y0133940D01*
X0216930Y0134124D02*
X0224169Y0134124D01*
X0224063Y0134307D02*
X0217036Y0134307D01*
X0217142Y0134491D02*
X0223957Y0134491D01*
X0223851Y0134674D02*
X0217249Y0134674D01*
X0217355Y0134858D02*
X0223745Y0134858D01*
X0223639Y0135041D02*
X0217462Y0135041D01*
X0217568Y0135225D02*
X0223533Y0135225D01*
X0223427Y0135408D02*
X0217674Y0135408D01*
X0217781Y0135592D02*
X0223321Y0135592D01*
X0223215Y0135776D02*
X0217887Y0135776D01*
X0217994Y0135959D02*
X0223109Y0135959D01*
X0223003Y0136143D02*
X0218100Y0136143D01*
X0218206Y0136326D02*
X0222897Y0136326D01*
X0222791Y0136510D02*
X0218313Y0136510D01*
X0218419Y0136693D02*
X0222685Y0136693D01*
X0222579Y0136877D02*
X0218526Y0136877D01*
X0218632Y0137060D02*
X0222473Y0137060D01*
X0222367Y0137244D02*
X0218739Y0137244D01*
X0218845Y0137428D02*
X0222260Y0137428D01*
X0222154Y0137611D02*
X0218951Y0137611D01*
X0219058Y0137795D02*
X0222048Y0137795D01*
X0221942Y0137978D02*
X0219164Y0137978D01*
X0219271Y0138162D02*
X0221836Y0138162D01*
X0221730Y0138345D02*
X0219377Y0138345D01*
X0219483Y0138529D02*
X0221624Y0138529D01*
X0221518Y0138712D02*
X0219590Y0138712D01*
X0219696Y0138896D02*
X0221412Y0138896D01*
X0221306Y0139079D02*
X0219803Y0139079D01*
X0219909Y0139263D02*
X0221200Y0139263D01*
X0221094Y0139447D02*
X0220015Y0139447D01*
X0220122Y0139630D02*
X0220988Y0139630D01*
X0220882Y0139814D02*
X0220228Y0139814D01*
X0220335Y0139997D02*
X0220776Y0139997D01*
X0220670Y0140181D02*
X0220441Y0140181D01*
X0220547Y0140364D02*
X0220564Y0140364D01*
X0224290Y0123478D02*
X0229812Y0123478D01*
X0229445Y0123294D02*
X0224493Y0123294D01*
X0224696Y0123111D02*
X0229078Y0123111D01*
X0228711Y0122927D02*
X0224899Y0122927D01*
X0225102Y0122743D02*
X0228344Y0122743D01*
X0227977Y0122560D02*
X0225305Y0122560D01*
X0225507Y0122376D02*
X0227610Y0122376D01*
X0227243Y0122193D02*
X0225710Y0122193D01*
X0225913Y0122009D02*
X0226876Y0122009D01*
X0226508Y0121826D02*
X0226116Y0121826D01*
X0222783Y0119963D02*
X0218885Y0118107D01*
X0218514Y0118664D01*
X0218328Y0119406D01*
X0218700Y0119963D01*
X0219256Y0120334D01*
X0221113Y0120891D01*
X0221483Y0120891D01*
X0222783Y0119963D01*
X0222745Y0119990D02*
X0218740Y0119990D01*
X0218595Y0119807D02*
X0222454Y0119807D01*
X0222488Y0120174D02*
X0219016Y0120174D01*
X0219333Y0120357D02*
X0222231Y0120357D01*
X0221974Y0120541D02*
X0219945Y0120541D01*
X0220557Y0120724D02*
X0221717Y0120724D01*
X0222069Y0119623D02*
X0218473Y0119623D01*
X0218351Y0119440D02*
X0221683Y0119440D01*
X0221298Y0119256D02*
X0218366Y0119256D01*
X0218412Y0119072D02*
X0220913Y0119072D01*
X0220527Y0118889D02*
X0218458Y0118889D01*
X0218504Y0118705D02*
X0220142Y0118705D01*
X0219756Y0118522D02*
X0218609Y0118522D01*
X0218731Y0118338D02*
X0219371Y0118338D01*
X0218985Y0118155D02*
X0218854Y0118155D01*
X0221093Y0116503D02*
X0226680Y0116503D01*
X0226680Y0116686D02*
X0221474Y0116686D01*
X0221856Y0116870D02*
X0226680Y0116870D01*
X0226680Y0117053D02*
X0222237Y0117053D01*
X0222618Y0117237D02*
X0226639Y0117237D01*
X0226508Y0117420D02*
X0222999Y0117420D01*
X0223381Y0117604D02*
X0226377Y0117604D01*
X0226246Y0117788D02*
X0223762Y0117788D01*
X0224143Y0117971D02*
X0226114Y0117971D01*
X0225983Y0118155D02*
X0224524Y0118155D01*
X0224905Y0118338D02*
X0225852Y0118338D01*
X0226680Y0116319D02*
X0220712Y0116319D01*
X0220331Y0116136D02*
X0226680Y0116136D01*
X0226680Y0115952D02*
X0220185Y0115952D01*
X0220309Y0115769D02*
X0226680Y0115769D01*
X0226680Y0115585D02*
X0220514Y0115585D01*
X0220719Y0115401D02*
X0226680Y0115401D01*
X0226680Y0115218D02*
X0220925Y0115218D01*
X0221130Y0115034D02*
X0226680Y0115034D01*
X0226680Y0114851D02*
X0221335Y0114851D01*
X0221540Y0114667D02*
X0226680Y0114667D01*
X0226680Y0114484D02*
X0221745Y0114484D01*
X0221950Y0114300D02*
X0226680Y0114300D01*
X0226680Y0114117D02*
X0222155Y0114117D01*
X0222360Y0113933D02*
X0226680Y0113933D01*
X0226680Y0113749D02*
X0222566Y0113749D01*
X0222771Y0113566D02*
X0226690Y0113566D01*
X0226710Y0113382D02*
X0222976Y0113382D01*
X0223181Y0113199D02*
X0226731Y0113199D01*
X0226751Y0113015D02*
X0223386Y0113015D01*
X0223591Y0112832D02*
X0226771Y0112832D01*
X0226792Y0112648D02*
X0223762Y0112648D01*
X0223884Y0112465D02*
X0226812Y0112465D01*
X0226833Y0112281D02*
X0224006Y0112281D01*
X0224129Y0112098D02*
X0226853Y0112098D01*
X0226889Y0111914D02*
X0224251Y0111914D01*
X0224374Y0111730D02*
X0226950Y0111730D01*
X0227011Y0111547D02*
X0224485Y0111547D01*
X0224577Y0111363D02*
X0227072Y0111363D01*
X0227133Y0111180D02*
X0224669Y0111180D01*
X0224761Y0110996D02*
X0227195Y0110996D01*
X0227265Y0110813D02*
X0224824Y0110813D01*
X0224824Y0110629D02*
X0227357Y0110629D01*
X0227449Y0110446D02*
X0224824Y0110446D01*
X0224799Y0110262D02*
X0227540Y0110262D01*
X0227680Y0110078D02*
X0224708Y0110078D01*
X0224593Y0109895D02*
X0227955Y0109895D01*
X0223837Y0109895D02*
X0206643Y0109895D01*
X0207044Y0110078D02*
X0223516Y0110078D01*
X0223195Y0110262D02*
X0207445Y0110262D01*
X0207846Y0110446D02*
X0222874Y0110446D01*
X0222572Y0110629D02*
X0208247Y0110629D01*
X0208648Y0110813D02*
X0222279Y0110813D01*
X0221985Y0110996D02*
X0209049Y0110996D01*
X0209450Y0111180D02*
X0221691Y0111180D01*
X0221398Y0111363D02*
X0209851Y0111363D01*
X0210252Y0111547D02*
X0221128Y0111547D01*
X0220871Y0111730D02*
X0210652Y0111730D01*
X0211053Y0111914D02*
X0220614Y0111914D01*
X0220357Y0112098D02*
X0211454Y0112098D01*
X0211855Y0112281D02*
X0220100Y0112281D01*
X0219832Y0112465D02*
X0212256Y0112465D01*
X0212657Y0112648D02*
X0219557Y0112648D01*
X0219281Y0112832D02*
X0213058Y0112832D01*
X0213459Y0113015D02*
X0219006Y0113015D01*
X0218731Y0113199D02*
X0213860Y0113199D01*
X0214261Y0113382D02*
X0218455Y0113382D01*
X0218170Y0113566D02*
X0214662Y0113566D01*
X0215063Y0113749D02*
X0217876Y0113749D01*
X0217583Y0113933D02*
X0215464Y0113933D01*
X0215865Y0114117D02*
X0217289Y0114117D01*
X0216995Y0114300D02*
X0216265Y0114300D01*
X0213317Y0115880D02*
X0213317Y0116065D01*
X0209234Y0120520D01*
X0204038Y0111426D01*
X0213317Y0115880D01*
X0213317Y0115952D02*
X0206624Y0115952D01*
X0206519Y0115769D02*
X0213085Y0115769D01*
X0213253Y0116136D02*
X0206729Y0116136D01*
X0206834Y0116319D02*
X0213085Y0116319D01*
X0212916Y0116503D02*
X0206939Y0116503D01*
X0207044Y0116686D02*
X0212748Y0116686D01*
X0212580Y0116870D02*
X0207149Y0116870D01*
X0207254Y0117053D02*
X0212412Y0117053D01*
X0212243Y0117237D02*
X0207358Y0117237D01*
X0207463Y0117420D02*
X0212075Y0117420D01*
X0211907Y0117604D02*
X0207568Y0117604D01*
X0207673Y0117788D02*
X0211739Y0117788D01*
X0211570Y0117971D02*
X0207778Y0117971D01*
X0207883Y0118155D02*
X0211402Y0118155D01*
X0211234Y0118338D02*
X0207988Y0118338D01*
X0208093Y0118522D02*
X0211066Y0118522D01*
X0210897Y0118705D02*
X0208198Y0118705D01*
X0208302Y0118889D02*
X0210729Y0118889D01*
X0210561Y0119072D02*
X0208407Y0119072D01*
X0208512Y0119256D02*
X0210393Y0119256D01*
X0210224Y0119440D02*
X0208617Y0119440D01*
X0208722Y0119623D02*
X0210056Y0119623D01*
X0209888Y0119807D02*
X0208827Y0119807D01*
X0208932Y0119990D02*
X0209720Y0119990D01*
X0209551Y0120174D02*
X0209037Y0120174D01*
X0209141Y0120357D02*
X0209383Y0120357D01*
X0206415Y0115585D02*
X0212703Y0115585D01*
X0212320Y0115401D02*
X0206310Y0115401D01*
X0206205Y0115218D02*
X0211938Y0115218D01*
X0211556Y0115034D02*
X0206100Y0115034D01*
X0205995Y0114851D02*
X0211173Y0114851D01*
X0210791Y0114667D02*
X0205890Y0114667D01*
X0205785Y0114484D02*
X0210409Y0114484D01*
X0210026Y0114300D02*
X0205680Y0114300D01*
X0205575Y0114117D02*
X0209644Y0114117D01*
X0209261Y0113933D02*
X0205471Y0113933D01*
X0205366Y0113749D02*
X0208879Y0113749D01*
X0208497Y0113566D02*
X0205261Y0113566D01*
X0205156Y0113382D02*
X0208114Y0113382D01*
X0207732Y0113199D02*
X0205051Y0113199D01*
X0204946Y0113015D02*
X0207349Y0113015D01*
X0206967Y0112832D02*
X0204841Y0112832D01*
X0204736Y0112648D02*
X0206585Y0112648D01*
X0206202Y0112465D02*
X0204632Y0112465D01*
X0204527Y0112281D02*
X0205820Y0112281D01*
X0205438Y0112098D02*
X0204422Y0112098D01*
X0204317Y0111914D02*
X0205055Y0111914D01*
X0204673Y0111730D02*
X0204212Y0111730D01*
X0204290Y0111547D02*
X0204107Y0111547D01*
D14*
X0183998Y0104565D02*
X0146339Y0143207D01*
X0154197Y0137148D02*
X0154199Y0137225D01*
X0154205Y0137301D01*
X0154215Y0137377D01*
X0154229Y0137452D01*
X0154246Y0137526D01*
X0154268Y0137600D01*
X0154293Y0137672D01*
X0154322Y0137743D01*
X0154355Y0137812D01*
X0154391Y0137879D01*
X0154431Y0137945D01*
X0154474Y0138008D01*
X0154520Y0138069D01*
X0154570Y0138128D01*
X0154622Y0138183D01*
X0154677Y0138237D01*
X0154735Y0138287D01*
X0154795Y0138334D01*
X0154858Y0138378D01*
X0154923Y0138418D01*
X0154990Y0138455D01*
X0155059Y0138489D01*
X0155129Y0138519D01*
X0155201Y0138545D01*
X0155274Y0138568D01*
X0155348Y0138586D01*
X0155423Y0138601D01*
X0155499Y0138612D01*
X0155575Y0138619D01*
X0155652Y0138622D01*
X0155728Y0138621D01*
X0155805Y0138616D01*
X0155881Y0138607D01*
X0155956Y0138594D01*
X0156031Y0138577D01*
X0156105Y0138557D01*
X0156177Y0138532D01*
X0156248Y0138504D01*
X0156318Y0138472D01*
X0156386Y0138437D01*
X0156452Y0138398D01*
X0156516Y0138356D01*
X0156577Y0138311D01*
X0156636Y0138262D01*
X0156693Y0138210D01*
X0156747Y0138156D01*
X0156797Y0138099D01*
X0156845Y0138039D01*
X0156890Y0137977D01*
X0156931Y0137912D01*
X0156969Y0137846D01*
X0157004Y0137778D01*
X0157035Y0137708D01*
X0157062Y0137636D01*
X0157085Y0137563D01*
X0157105Y0137489D01*
X0157121Y0137414D01*
X0157133Y0137339D01*
X0157141Y0137263D01*
X0157145Y0137186D01*
X0157145Y0137110D01*
X0157141Y0137033D01*
X0157133Y0136957D01*
X0157121Y0136882D01*
X0157105Y0136807D01*
X0157085Y0136733D01*
X0157062Y0136660D01*
X0157035Y0136588D01*
X0157004Y0136518D01*
X0156969Y0136450D01*
X0156931Y0136384D01*
X0156890Y0136319D01*
X0156845Y0136257D01*
X0156797Y0136197D01*
X0156747Y0136140D01*
X0156693Y0136086D01*
X0156636Y0136034D01*
X0156577Y0135985D01*
X0156516Y0135940D01*
X0156452Y0135898D01*
X0156386Y0135859D01*
X0156318Y0135824D01*
X0156248Y0135792D01*
X0156177Y0135764D01*
X0156105Y0135739D01*
X0156031Y0135719D01*
X0155956Y0135702D01*
X0155881Y0135689D01*
X0155805Y0135680D01*
X0155728Y0135675D01*
X0155652Y0135674D01*
X0155575Y0135677D01*
X0155499Y0135684D01*
X0155423Y0135695D01*
X0155348Y0135710D01*
X0155274Y0135728D01*
X0155201Y0135751D01*
X0155129Y0135777D01*
X0155059Y0135807D01*
X0154990Y0135841D01*
X0154923Y0135878D01*
X0154858Y0135918D01*
X0154795Y0135962D01*
X0154735Y0136009D01*
X0154677Y0136059D01*
X0154622Y0136113D01*
X0154570Y0136168D01*
X0154520Y0136227D01*
X0154474Y0136288D01*
X0154431Y0136351D01*
X0154391Y0136417D01*
X0154355Y0136484D01*
X0154322Y0136553D01*
X0154293Y0136624D01*
X0154268Y0136696D01*
X0154246Y0136770D01*
X0154229Y0136844D01*
X0154215Y0136919D01*
X0154205Y0136995D01*
X0154199Y0137071D01*
X0154197Y0137148D01*
X0157145Y0136985D02*
X0158782Y0115044D01*
X0157473Y0110869D02*
X0157475Y0110949D01*
X0157481Y0111029D01*
X0157491Y0111109D01*
X0157504Y0111188D01*
X0157522Y0111267D01*
X0157543Y0111344D01*
X0157569Y0111420D01*
X0157598Y0111495D01*
X0157630Y0111569D01*
X0157666Y0111641D01*
X0157706Y0111711D01*
X0157749Y0111778D01*
X0157795Y0111844D01*
X0157845Y0111908D01*
X0157897Y0111968D01*
X0157952Y0112027D01*
X0158011Y0112082D01*
X0158071Y0112134D01*
X0158135Y0112184D01*
X0158201Y0112230D01*
X0158268Y0112273D01*
X0158338Y0112313D01*
X0158410Y0112349D01*
X0158484Y0112381D01*
X0158559Y0112410D01*
X0158635Y0112436D01*
X0158712Y0112457D01*
X0158791Y0112475D01*
X0158870Y0112488D01*
X0158950Y0112498D01*
X0159030Y0112504D01*
X0159110Y0112506D01*
X0159190Y0112504D01*
X0159270Y0112498D01*
X0159350Y0112488D01*
X0159429Y0112475D01*
X0159508Y0112457D01*
X0159585Y0112436D01*
X0159661Y0112410D01*
X0159736Y0112381D01*
X0159810Y0112349D01*
X0159882Y0112313D01*
X0159952Y0112273D01*
X0160019Y0112230D01*
X0160085Y0112184D01*
X0160149Y0112134D01*
X0160209Y0112082D01*
X0160268Y0112027D01*
X0160323Y0111968D01*
X0160375Y0111908D01*
X0160425Y0111844D01*
X0160471Y0111778D01*
X0160514Y0111711D01*
X0160554Y0111641D01*
X0160590Y0111569D01*
X0160622Y0111495D01*
X0160651Y0111420D01*
X0160677Y0111344D01*
X0160698Y0111267D01*
X0160716Y0111188D01*
X0160729Y0111109D01*
X0160739Y0111029D01*
X0160745Y0110949D01*
X0160747Y0110869D01*
X0160745Y0110789D01*
X0160739Y0110709D01*
X0160729Y0110629D01*
X0160716Y0110550D01*
X0160698Y0110471D01*
X0160677Y0110394D01*
X0160651Y0110318D01*
X0160622Y0110243D01*
X0160590Y0110169D01*
X0160554Y0110097D01*
X0160514Y0110027D01*
X0160471Y0109960D01*
X0160425Y0109894D01*
X0160375Y0109830D01*
X0160323Y0109770D01*
X0160268Y0109711D01*
X0160209Y0109656D01*
X0160149Y0109604D01*
X0160085Y0109554D01*
X0160019Y0109508D01*
X0159952Y0109465D01*
X0159882Y0109425D01*
X0159810Y0109389D01*
X0159736Y0109357D01*
X0159661Y0109328D01*
X0159585Y0109302D01*
X0159508Y0109281D01*
X0159429Y0109263D01*
X0159350Y0109250D01*
X0159270Y0109240D01*
X0159190Y0109234D01*
X0159110Y0109232D01*
X0159030Y0109234D01*
X0158950Y0109240D01*
X0158870Y0109250D01*
X0158791Y0109263D01*
X0158712Y0109281D01*
X0158635Y0109302D01*
X0158559Y0109328D01*
X0158484Y0109357D01*
X0158410Y0109389D01*
X0158338Y0109425D01*
X0158268Y0109465D01*
X0158201Y0109508D01*
X0158135Y0109554D01*
X0158071Y0109604D01*
X0158011Y0109656D01*
X0157952Y0109711D01*
X0157897Y0109770D01*
X0157845Y0109830D01*
X0157795Y0109894D01*
X0157749Y0109960D01*
X0157706Y0110027D01*
X0157666Y0110097D01*
X0157630Y0110169D01*
X0157598Y0110243D01*
X0157569Y0110318D01*
X0157543Y0110394D01*
X0157522Y0110471D01*
X0157504Y0110550D01*
X0157491Y0110629D01*
X0157481Y0110709D01*
X0157475Y0110789D01*
X0157473Y0110869D01*
X0156158Y0110869D02*
X0156160Y0110977D01*
X0156166Y0111086D01*
X0156176Y0111194D01*
X0156190Y0111301D01*
X0156208Y0111408D01*
X0156229Y0111515D01*
X0156255Y0111620D01*
X0156285Y0111724D01*
X0156318Y0111828D01*
X0156355Y0111929D01*
X0156396Y0112030D01*
X0156440Y0112129D01*
X0156488Y0112226D01*
X0156540Y0112321D01*
X0156595Y0112415D01*
X0156654Y0112506D01*
X0156715Y0112595D01*
X0156780Y0112682D01*
X0156849Y0112767D01*
X0156920Y0112848D01*
X0156994Y0112927D01*
X0157071Y0113004D01*
X0157151Y0113077D01*
X0157233Y0113148D01*
X0157318Y0113215D01*
X0157406Y0113279D01*
X0157495Y0113340D01*
X0157587Y0113398D01*
X0157681Y0113452D01*
X0157777Y0113503D01*
X0157875Y0113550D01*
X0157974Y0113594D01*
X0158075Y0113634D01*
X0158177Y0113670D01*
X0158281Y0113702D01*
X0158385Y0113731D01*
X0158491Y0113755D01*
X0158597Y0113776D01*
X0158705Y0113793D01*
X0158812Y0113806D01*
X0158920Y0113815D01*
X0159029Y0113820D01*
X0159137Y0113821D01*
X0159246Y0113818D01*
X0159354Y0113811D01*
X0159462Y0113800D01*
X0159569Y0113785D01*
X0159676Y0113766D01*
X0159782Y0113743D01*
X0159887Y0113717D01*
X0159991Y0113686D01*
X0160094Y0113652D01*
X0160196Y0113614D01*
X0160296Y0113572D01*
X0160394Y0113527D01*
X0160491Y0113478D01*
X0160586Y0113426D01*
X0160679Y0113370D01*
X0160770Y0113310D01*
X0160858Y0113248D01*
X0160944Y0113182D01*
X0161028Y0113113D01*
X0161109Y0113041D01*
X0161188Y0112966D01*
X0161263Y0112888D01*
X0161336Y0112808D01*
X0161406Y0112725D01*
X0161472Y0112639D01*
X0161536Y0112551D01*
X0161596Y0112461D01*
X0161653Y0112368D01*
X0161706Y0112274D01*
X0161756Y0112178D01*
X0161802Y0112080D01*
X0161845Y0111980D01*
X0161884Y0111879D01*
X0161919Y0111776D01*
X0161951Y0111672D01*
X0161978Y0111567D01*
X0162002Y0111462D01*
X0162022Y0111355D01*
X0162038Y0111248D01*
X0162050Y0111140D01*
X0162058Y0111032D01*
X0162062Y0110923D01*
X0162062Y0110815D01*
X0162058Y0110706D01*
X0162050Y0110598D01*
X0162038Y0110490D01*
X0162022Y0110383D01*
X0162002Y0110276D01*
X0161978Y0110171D01*
X0161951Y0110066D01*
X0161919Y0109962D01*
X0161884Y0109859D01*
X0161845Y0109758D01*
X0161802Y0109658D01*
X0161756Y0109560D01*
X0161706Y0109464D01*
X0161653Y0109370D01*
X0161596Y0109277D01*
X0161536Y0109187D01*
X0161472Y0109099D01*
X0161406Y0109013D01*
X0161336Y0108930D01*
X0161263Y0108850D01*
X0161188Y0108772D01*
X0161109Y0108697D01*
X0161028Y0108625D01*
X0160944Y0108556D01*
X0160858Y0108490D01*
X0160770Y0108428D01*
X0160679Y0108368D01*
X0160586Y0108312D01*
X0160491Y0108260D01*
X0160394Y0108211D01*
X0160296Y0108166D01*
X0160196Y0108124D01*
X0160094Y0108086D01*
X0159991Y0108052D01*
X0159887Y0108021D01*
X0159782Y0107995D01*
X0159676Y0107972D01*
X0159569Y0107953D01*
X0159462Y0107938D01*
X0159354Y0107927D01*
X0159246Y0107920D01*
X0159137Y0107917D01*
X0159029Y0107918D01*
X0158920Y0107923D01*
X0158812Y0107932D01*
X0158705Y0107945D01*
X0158597Y0107962D01*
X0158491Y0107983D01*
X0158385Y0108007D01*
X0158281Y0108036D01*
X0158177Y0108068D01*
X0158075Y0108104D01*
X0157974Y0108144D01*
X0157875Y0108188D01*
X0157777Y0108235D01*
X0157681Y0108286D01*
X0157587Y0108340D01*
X0157495Y0108398D01*
X0157406Y0108459D01*
X0157318Y0108523D01*
X0157233Y0108590D01*
X0157151Y0108661D01*
X0157071Y0108734D01*
X0156994Y0108811D01*
X0156920Y0108890D01*
X0156849Y0108971D01*
X0156780Y0109056D01*
X0156715Y0109143D01*
X0156654Y0109232D01*
X0156595Y0109323D01*
X0156540Y0109417D01*
X0156488Y0109512D01*
X0156440Y0109609D01*
X0156396Y0109708D01*
X0156355Y0109809D01*
X0156318Y0109910D01*
X0156285Y0110014D01*
X0156255Y0110118D01*
X0156229Y0110223D01*
X0156208Y0110330D01*
X0156190Y0110437D01*
X0156176Y0110544D01*
X0156166Y0110652D01*
X0156160Y0110761D01*
X0156158Y0110869D01*
X0162385Y0109804D02*
X0171226Y0109804D01*
X0171288Y0109806D01*
X0171350Y0109812D01*
X0171411Y0109821D01*
X0171471Y0109835D01*
X0171530Y0109852D01*
X0171588Y0109873D01*
X0171645Y0109898D01*
X0171700Y0109926D01*
X0171753Y0109957D01*
X0171804Y0109992D01*
X0171853Y0110030D01*
X0171899Y0110071D01*
X0171943Y0110114D01*
X0171984Y0110161D01*
X0172021Y0110209D01*
X0172056Y0110260D01*
X0172087Y0110314D01*
X0172115Y0110369D01*
X0172140Y0110425D01*
X0172161Y0110483D01*
X0172178Y0110543D01*
X0172192Y0110603D01*
X0172201Y0110664D01*
X0172207Y0110725D01*
X0172209Y0110787D01*
X0174174Y0136002D01*
X0174174Y0136657D01*
X0171881Y0136657D02*
X0171554Y0136657D01*
X0171390Y0139604D01*
X0171391Y0139605D02*
X0171389Y0139639D01*
X0171391Y0139674D01*
X0171396Y0139708D01*
X0171405Y0139741D01*
X0171417Y0139774D01*
X0171433Y0139805D01*
X0171451Y0139834D01*
X0171473Y0139860D01*
X0171497Y0139885D01*
X0171524Y0139907D01*
X0171553Y0139926D01*
X0171584Y0139941D01*
X0171616Y0139954D01*
X0171649Y0139963D01*
X0171683Y0139968D01*
X0171718Y0139970D01*
X0171753Y0139968D01*
X0171787Y0139963D01*
X0171820Y0139954D01*
X0171852Y0139941D01*
X0171883Y0139926D01*
X0171912Y0139907D01*
X0171939Y0139885D01*
X0171963Y0139860D01*
X0171985Y0139834D01*
X0172003Y0139805D01*
X0172019Y0139774D01*
X0172031Y0139741D01*
X0172040Y0139708D01*
X0172045Y0139674D01*
X0172047Y0139639D01*
X0172045Y0139605D01*
X0172045Y0139604D02*
X0171881Y0136657D01*
X0174173Y0136657D02*
X0174171Y0136752D01*
X0174166Y0136846D01*
X0174157Y0136941D01*
X0174144Y0137035D01*
X0174127Y0137128D01*
X0174107Y0137221D01*
X0174084Y0137313D01*
X0174057Y0137404D01*
X0174026Y0137494D01*
X0173992Y0137582D01*
X0173955Y0137670D01*
X0173914Y0137755D01*
X0173870Y0137839D01*
X0173822Y0137921D01*
X0173772Y0138002D01*
X0173719Y0138080D01*
X0173662Y0138156D01*
X0173603Y0138230D01*
X0173541Y0138302D01*
X0173476Y0138371D01*
X0173408Y0138438D01*
X0173338Y0138502D01*
X0173266Y0138563D01*
X0173191Y0138622D01*
X0173101Y0138687D01*
X0173009Y0138750D01*
X0172914Y0138809D01*
X0172818Y0138865D01*
X0172720Y0138918D01*
X0172620Y0138968D01*
X0172519Y0139015D01*
X0172416Y0139058D01*
X0172312Y0139097D01*
X0172206Y0139134D01*
X0172100Y0139166D01*
X0171992Y0139196D01*
X0171884Y0139221D01*
X0171775Y0139243D01*
X0171665Y0139262D01*
X0171554Y0139277D01*
X0167297Y0138950D02*
X0167297Y0139604D01*
X0167297Y0140259D01*
X0163039Y0140259D01*
X0163039Y0138950D01*
X0167297Y0138950D01*
X0162712Y0139604D02*
X0162385Y0139604D01*
X0157472Y0137967D02*
X0157427Y0137900D01*
X0157385Y0137831D01*
X0157346Y0137760D01*
X0157310Y0137688D01*
X0157278Y0137614D01*
X0157249Y0137539D01*
X0157223Y0137462D01*
X0157201Y0137384D01*
X0157183Y0137306D01*
X0157168Y0137226D01*
X0157156Y0137146D01*
X0157149Y0137066D01*
X0157145Y0136985D01*
X0157473Y0137967D02*
X0157538Y0138055D01*
X0157606Y0138142D01*
X0157676Y0138226D01*
X0157750Y0138307D01*
X0157826Y0138386D01*
X0157905Y0138463D01*
X0157986Y0138537D01*
X0158069Y0138608D01*
X0158155Y0138676D01*
X0158244Y0138741D01*
X0158334Y0138804D01*
X0158426Y0138863D01*
X0158521Y0138919D01*
X0158617Y0138973D01*
X0158714Y0139022D01*
X0158814Y0139069D01*
X0158915Y0139112D01*
X0159017Y0139152D01*
X0159121Y0139188D01*
X0159225Y0139221D01*
X0159331Y0139251D01*
X0159438Y0139277D01*
X0157063Y0133792D02*
X0155180Y0133792D01*
X0155180Y0130435D01*
X0157227Y0130435D01*
X0159437Y0139276D02*
X0159728Y0139338D01*
X0160020Y0139394D01*
X0160313Y0139443D01*
X0160607Y0139486D01*
X0160902Y0139522D01*
X0161198Y0139551D01*
X0161494Y0139574D01*
X0161791Y0139591D01*
X0162087Y0139601D01*
X0162385Y0139604D01*
X0184980Y0142879D02*
X0148958Y0104237D01*
X0167297Y0139604D02*
X0168364Y0139555D01*
X0169429Y0139483D01*
X0170493Y0139391D01*
X0171554Y0139276D01*
D15*
X0166683Y0136453D03*
D16*
X0164472Y0129125D03*
D17*
X0170735Y0108699D03*
M02*
