%
M48
M72
T01C0.0157
T02C0.0197
T03C0.0236
T04C0.0394
T05C0.1260
%
T01
X7110Y5934
X10410Y2334
X13310Y3434
X15760Y5884
X16710Y7934
X13210Y11534
X8860Y8684
X10510Y12334
X11460Y13334
X9860Y7334
X12560Y2334
X9360Y11484
X9910Y12034
X9510Y9434
X8210Y8134
X8710Y4034
X9860Y2884
X14010Y1934
X15060Y5184
X13860Y3984
X16960Y5134
X14510Y10284
X16160Y8584
X3510Y7484
X5060Y5884
X5760Y4334
X16160Y11984
X12973Y12034
X11360Y1784
X13660Y13184
X14060Y10684
X8010Y984
X11810Y1484
X12410Y8134
X11710Y7434
X12410Y6734
X13110Y7434
X12060Y7784
X12060Y7084
X12760Y7084
X12760Y7784
X5460Y6734
X14910Y14434
X9910Y534
X9410Y3434
X18810Y4084
X14610Y6984
X15660Y9034
X12160Y11534
X8060Y11834
X9060Y13834
X12360Y13484
X5860Y14184
X16410Y12934
X18910Y9884
X22910Y9784
X23910Y7184
X18660Y7184
X21910Y534
X13410Y10434
X14910Y8934
X7910Y1984
X22260Y1784
X17810Y9284
X910Y10934
X12410Y8834
X12060Y8484
X11710Y8134
X11360Y7784
X11010Y7434
X11360Y7084
X11710Y6734
X12060Y6384
X12410Y6034
X12760Y6384
X13110Y6734
X13460Y7084
X12760Y8484
X13110Y8134
X13460Y7784
X13810Y7434
X14660Y13184
X6660Y9984
X20160Y6434
X16160Y4559
X16710Y10584
X8960Y11084
X8760Y5884
X10860Y10884
X7760Y7884
X14810Y11784
X21510Y2184
X19510Y4584
X21560Y5734
X21160Y9134
X19410Y12184
X18510Y14334
X21560Y5334
X21496Y8450
X22560Y7684
X7610Y2484
X9560Y5084
X6510Y4884
X2360Y5684
X9160Y5384
X5910Y7134
X3160Y5584
X22410Y7184
X10360Y4984
X4160Y9184
X24460Y1434
X2510Y10684
X23160Y1434
X1910Y10684
X21860Y1434
X2510Y10034
X10760Y3934
X2760Y3684
X11160Y3534
X5960Y4984
T02
X8510Y11634
X7910Y11034
X4910Y14734
X4360Y14184
X4360Y13634
X4910Y11684
X4360Y11684
X4910Y11134
X4360Y11134
X25110Y1884
X23810Y1884
X24460Y1884
X4360Y14734
X4910Y13634
X5460Y11134
X5460Y11684
X4910Y14184
X9160Y14534
X9660Y14534
X5860Y12484
X2660Y11684
X2160Y12184
X2160Y11184
X3160Y11184
X3160Y12184
X1710Y5684
X1560Y3684
X960Y3684
X7110Y3684
X22860Y5584
X25160Y6934
X25160Y6184
X24160Y4934
X21510Y12784
X22260Y12534
X24960Y10784
X23360Y12284
X21860Y10984
X2160Y3684
X22960Y4584
X910Y5684
X1660Y14184
X23410Y10984
X24360Y3384
X22510Y3734
X22860Y3384
X23610Y3384
X6660Y11684
X6160Y11184
T03
X12410Y7434
T04
X2360Y1484
X2360Y2484
X3360Y1484
X3360Y2484
X4360Y1484
X4360Y2484
X5360Y1484
X5360Y2484
X6360Y1484
X6360Y2484
T05
X16260Y1384
M30
