G75*
%MOIN*%
%OFA0B0*%
%FSLAX25Y25*%
%IPPOS*%
%LPD*%
%AMOC8*
5,1,8,0,0,1.08239X$1,22.5*
%
%ADD10C,0.00000*%
%ADD11C,0.00800*%
%ADD12C,0.05937*%
%ADD13C,0.02775*%
%ADD14C,0.03169*%
%ADD15C,0.16598*%
%ADD16C,0.01200*%
%ADD17C,0.03562*%
D10*
X0003100Y0006842D02*
X0008100Y0001842D01*
X0226100Y0001842D01*
X0230100Y0005842D01*
X0234100Y0005842D01*
X0238100Y0001842D01*
X0239600Y0001842D01*
X0243600Y0005842D01*
X0247100Y0005842D01*
X0251100Y0001842D01*
X0252100Y0001842D01*
X0257100Y0006842D01*
X0257100Y0106842D01*
X0237600Y0126342D01*
X0237600Y0147842D01*
X0235100Y0150342D01*
X0015600Y0150342D01*
X0003100Y0137842D01*
X0003100Y0006842D01*
D11*
X0197000Y0007242D02*
X0199135Y0009378D01*
X0199135Y0009911D01*
X0198601Y0010445D01*
X0197534Y0010445D01*
X0197000Y0009911D01*
X0197000Y0007242D02*
X0199135Y0007242D01*
D12*
X0063600Y0014842D03*
X0053600Y0014842D03*
X0043600Y0014842D03*
X0033600Y0014842D03*
X0023600Y0014842D03*
X0023600Y0024842D03*
X0033600Y0024842D03*
X0043600Y0024842D03*
X0053600Y0024842D03*
X0063600Y0024842D03*
D13*
X0076100Y0024842D03*
X0079100Y0019842D03*
X0080100Y0009842D03*
X0099100Y0005342D03*
X0118100Y0014842D03*
X0113600Y0017842D03*
X0104100Y0023342D03*
X0098600Y0028842D03*
X0094100Y0034342D03*
X0087100Y0040342D03*
X0103600Y0049842D03*
X0095600Y0050842D03*
X0091600Y0053842D03*
X0087600Y0058842D03*
X0071100Y0059342D03*
X0059600Y0049842D03*
X0065100Y0048842D03*
X0057600Y0043342D03*
X0031600Y0055842D03*
X0023600Y0056842D03*
X0035100Y0074842D03*
X0054600Y0067342D03*
X0059100Y0071342D03*
X0077600Y0078842D03*
X0082100Y0081342D03*
X0088600Y0086842D03*
X0095100Y0094342D03*
X0117100Y0081342D03*
X0120600Y0084842D03*
X0124100Y0081342D03*
X0127600Y0084842D03*
X0131100Y0081342D03*
X0127600Y0077842D03*
X0131100Y0074342D03*
X0127600Y0070842D03*
X0124100Y0067342D03*
X0120600Y0063842D03*
X0124100Y0060342D03*
X0127600Y0063842D03*
X0131100Y0067342D03*
X0134600Y0070842D03*
X0138100Y0074342D03*
X0134600Y0077842D03*
X0146100Y0069842D03*
X0157600Y0058842D03*
X0150600Y0051842D03*
X0161600Y0045592D03*
X0169600Y0051342D03*
X0188100Y0040842D03*
X0195100Y0045842D03*
X0215600Y0053342D03*
X0215600Y0057342D03*
X0201600Y0064342D03*
X0186600Y0071842D03*
X0167100Y0079342D03*
X0161600Y0085842D03*
X0156600Y0090342D03*
X0149100Y0089342D03*
X0145100Y0102842D03*
X0140600Y0106842D03*
X0134100Y0104342D03*
X0132100Y0115342D03*
X0129734Y0120342D03*
X0121600Y0115342D03*
X0108600Y0108842D03*
X0093600Y0114842D03*
X0089600Y0110842D03*
X0080600Y0118342D03*
X0099100Y0120342D03*
X0105100Y0123342D03*
X0114600Y0133342D03*
X0123600Y0134842D03*
X0136600Y0131842D03*
X0146600Y0131842D03*
X0164100Y0129342D03*
X0161600Y0119842D03*
X0148100Y0117842D03*
X0167100Y0105842D03*
X0178100Y0092842D03*
X0189100Y0098842D03*
X0211600Y0091342D03*
X0214958Y0084496D03*
X0225600Y0076842D03*
X0224100Y0071842D03*
X0239100Y0071842D03*
X0229100Y0097842D03*
X0194100Y0121842D03*
X0185100Y0143342D03*
X0149100Y0144342D03*
X0090600Y0138342D03*
X0058600Y0141842D03*
X0009100Y0109342D03*
X0019100Y0106842D03*
X0025100Y0106842D03*
X0025100Y0100342D03*
X0041600Y0091842D03*
X0066600Y0099842D03*
X0110100Y0074342D03*
X0113600Y0070842D03*
X0117100Y0074342D03*
X0120600Y0070842D03*
X0117100Y0067342D03*
X0113600Y0077842D03*
X0120600Y0077842D03*
X0124100Y0088342D03*
X0098600Y0073342D03*
X0050600Y0058842D03*
X0027600Y0036842D03*
X0107600Y0039342D03*
X0111600Y0035342D03*
X0125600Y0023342D03*
X0140100Y0019342D03*
X0133100Y0034342D03*
X0138600Y0039842D03*
X0215100Y0021842D03*
X0222600Y0017842D03*
X0218600Y0014342D03*
X0231600Y0014342D03*
X0244600Y0014342D03*
X0219100Y0005342D03*
D14*
X0238100Y0018842D03*
X0244600Y0018842D03*
X0251100Y0018842D03*
X0243600Y0033842D03*
X0236100Y0033842D03*
X0228600Y0033842D03*
X0225100Y0037342D03*
X0229600Y0045842D03*
X0241600Y0049342D03*
X0228600Y0055842D03*
X0251600Y0061842D03*
X0251600Y0069342D03*
X0249600Y0107842D03*
X0234100Y0109842D03*
X0218600Y0109842D03*
X0233600Y0122842D03*
X0222600Y0125342D03*
X0215100Y0127842D03*
X0096600Y0145342D03*
X0091600Y0145342D03*
X0058600Y0124842D03*
X0054600Y0116842D03*
X0049100Y0116842D03*
X0043600Y0116842D03*
X0043600Y0111342D03*
X0049100Y0111342D03*
X0054600Y0111342D03*
X0061600Y0111842D03*
X0066600Y0116842D03*
X0079100Y0110342D03*
X0085100Y0116342D03*
X0049100Y0136342D03*
X0043600Y0136342D03*
X0043600Y0141842D03*
X0049100Y0141842D03*
X0049100Y0147342D03*
X0043600Y0147342D03*
X0016600Y0141842D03*
X0021600Y0121842D03*
X0026600Y0116842D03*
X0031600Y0121842D03*
X0031600Y0111842D03*
X0021600Y0111842D03*
X0017100Y0056842D03*
X0009100Y0056842D03*
X0009600Y0036842D03*
X0015600Y0036842D03*
X0021600Y0036842D03*
X0071100Y0036842D03*
D15*
X0162600Y0013842D03*
D16*
X0226535Y0004240D02*
X0007665Y0004240D01*
X0008675Y0003230D02*
X0004487Y0007417D01*
X0004487Y0137268D01*
X0016175Y0148955D01*
X0041051Y0148955D01*
X0040628Y0147934D01*
X0040628Y0146751D01*
X0041081Y0145659D01*
X0041917Y0144823D01*
X0042474Y0144592D01*
X0041917Y0144362D01*
X0041081Y0143526D01*
X0040628Y0142434D01*
X0040628Y0141251D01*
X0041081Y0140159D01*
X0041917Y0139323D01*
X0042474Y0139092D01*
X0041917Y0138862D01*
X0041081Y0138026D01*
X0040628Y0136934D01*
X0040628Y0135751D01*
X0041081Y0134659D01*
X0041917Y0133823D01*
X0043009Y0133371D01*
X0044191Y0133371D01*
X0045283Y0133823D01*
X0046119Y0134659D01*
X0046350Y0135216D01*
X0046581Y0134659D01*
X0047417Y0133823D01*
X0048509Y0133371D01*
X0049691Y0133371D01*
X0050783Y0133823D01*
X0051619Y0134659D01*
X0052072Y0135751D01*
X0052072Y0136934D01*
X0051619Y0138026D01*
X0050783Y0138862D01*
X0050226Y0139092D01*
X0050783Y0139323D01*
X0051619Y0140159D01*
X0052072Y0141251D01*
X0052072Y0142434D01*
X0051619Y0143526D01*
X0050783Y0144362D01*
X0050226Y0144592D01*
X0050783Y0144823D01*
X0051619Y0145659D01*
X0052072Y0146751D01*
X0052072Y0147934D01*
X0051649Y0148955D01*
X0234525Y0148955D01*
X0236213Y0147268D01*
X0236213Y0125768D01*
X0255713Y0106268D01*
X0255713Y0007417D01*
X0251600Y0003305D01*
X0248487Y0006417D01*
X0247675Y0007230D01*
X0243025Y0007230D01*
X0239025Y0003230D01*
X0238675Y0003230D01*
X0235487Y0006417D01*
X0234675Y0007230D01*
X0229525Y0007230D01*
X0225525Y0003230D01*
X0008675Y0003230D01*
X0006467Y0005438D02*
X0189818Y0005438D01*
X0189513Y0005744D02*
X0190501Y0004755D01*
X0191899Y0004755D01*
X0209201Y0004755D01*
X0210599Y0004755D01*
X0211587Y0005744D01*
X0211587Y0011941D01*
X0210599Y0012930D01*
X0190501Y0012930D01*
X0189513Y0011941D01*
X0189513Y0005744D01*
X0189513Y0006637D02*
X0005268Y0006637D01*
X0004487Y0007835D02*
X0078183Y0007835D01*
X0078528Y0007490D02*
X0077748Y0008271D01*
X0077325Y0009291D01*
X0077325Y0010394D01*
X0077748Y0011414D01*
X0078528Y0012195D01*
X0079548Y0012617D01*
X0080652Y0012617D01*
X0081672Y0012195D01*
X0082452Y0011414D01*
X0082875Y0010394D01*
X0082875Y0009291D01*
X0082452Y0008271D01*
X0081672Y0007490D01*
X0080652Y0007068D01*
X0079548Y0007068D01*
X0078528Y0007490D01*
X0077432Y0009034D02*
X0004487Y0009034D01*
X0004487Y0010232D02*
X0077325Y0010232D01*
X0077764Y0011431D02*
X0066348Y0011431D01*
X0066067Y0011150D02*
X0067293Y0012375D01*
X0067956Y0013976D01*
X0067956Y0015709D01*
X0067293Y0017310D01*
X0066067Y0018535D01*
X0064466Y0019198D01*
X0062734Y0019198D01*
X0061133Y0018535D01*
X0059907Y0017310D01*
X0059244Y0015709D01*
X0059244Y0013976D01*
X0059907Y0012375D01*
X0061133Y0011150D01*
X0062734Y0010487D01*
X0064466Y0010487D01*
X0066067Y0011150D01*
X0067398Y0012629D02*
X0190200Y0012629D01*
X0189513Y0011431D02*
X0082436Y0011431D01*
X0082875Y0010232D02*
X0189513Y0010232D01*
X0189513Y0009034D02*
X0082768Y0009034D01*
X0082017Y0007835D02*
X0189513Y0007835D01*
X0211282Y0005438D02*
X0227733Y0005438D01*
X0228932Y0006637D02*
X0211587Y0006637D01*
X0211587Y0007835D02*
X0255713Y0007835D01*
X0255713Y0009034D02*
X0211587Y0009034D01*
X0211587Y0010232D02*
X0255713Y0010232D01*
X0255713Y0011431D02*
X0211587Y0011431D01*
X0210900Y0012629D02*
X0216389Y0012629D01*
X0216248Y0012771D02*
X0217028Y0011990D01*
X0218048Y0011568D01*
X0219152Y0011568D01*
X0220172Y0011990D01*
X0220952Y0012771D01*
X0221375Y0013791D01*
X0221375Y0014894D01*
X0220952Y0015914D01*
X0220172Y0016695D01*
X0219152Y0017117D01*
X0218048Y0017117D01*
X0217028Y0016695D01*
X0216248Y0015914D01*
X0215825Y0014894D01*
X0215825Y0013791D01*
X0216248Y0012771D01*
X0215825Y0013828D02*
X0067894Y0013828D01*
X0067956Y0015026D02*
X0215880Y0015026D01*
X0216558Y0016225D02*
X0115906Y0016225D01*
X0115952Y0016271D02*
X0116375Y0017291D01*
X0116375Y0018394D01*
X0115952Y0019414D01*
X0115172Y0020195D01*
X0114152Y0020617D01*
X0113048Y0020617D01*
X0112028Y0020195D01*
X0111248Y0019414D01*
X0110825Y0018394D01*
X0110825Y0017291D01*
X0111248Y0016271D01*
X0112028Y0015490D01*
X0113048Y0015068D01*
X0114152Y0015068D01*
X0115172Y0015490D01*
X0115952Y0016271D01*
X0116375Y0017423D02*
X0138095Y0017423D01*
X0137748Y0017771D02*
X0138528Y0016990D01*
X0139548Y0016568D01*
X0140652Y0016568D01*
X0141672Y0016990D01*
X0142452Y0017771D01*
X0142875Y0018791D01*
X0142875Y0019894D01*
X0142452Y0020914D01*
X0141672Y0021695D01*
X0140652Y0022117D01*
X0139548Y0022117D01*
X0138528Y0021695D01*
X0137748Y0020914D01*
X0137325Y0019894D01*
X0137325Y0018791D01*
X0137748Y0017771D01*
X0137395Y0018622D02*
X0116281Y0018622D01*
X0115546Y0019820D02*
X0137325Y0019820D01*
X0137852Y0021019D02*
X0127200Y0021019D01*
X0127172Y0020990D02*
X0127952Y0021771D01*
X0128375Y0022791D01*
X0128375Y0023894D01*
X0127952Y0024914D01*
X0127172Y0025695D01*
X0126152Y0026117D01*
X0125048Y0026117D01*
X0124028Y0025695D01*
X0123248Y0024914D01*
X0122825Y0023894D01*
X0122825Y0022791D01*
X0123248Y0021771D01*
X0124028Y0020990D01*
X0125048Y0020568D01*
X0126152Y0020568D01*
X0127172Y0020990D01*
X0128137Y0022217D02*
X0255713Y0022217D01*
X0255713Y0021019D02*
X0253126Y0021019D01*
X0252783Y0021362D02*
X0251691Y0021814D01*
X0250509Y0021814D01*
X0249417Y0021362D01*
X0248581Y0020526D01*
X0248128Y0019434D01*
X0248128Y0018251D01*
X0248581Y0017159D01*
X0249417Y0016323D01*
X0250509Y0015871D01*
X0251691Y0015871D01*
X0252783Y0016323D01*
X0253619Y0017159D01*
X0254072Y0018251D01*
X0254072Y0019434D01*
X0253619Y0020526D01*
X0252783Y0021362D01*
X0253912Y0019820D02*
X0255713Y0019820D01*
X0255713Y0018622D02*
X0254072Y0018622D01*
X0253729Y0017423D02*
X0255713Y0017423D01*
X0255713Y0016225D02*
X0252545Y0016225D01*
X0249655Y0016225D02*
X0246642Y0016225D01*
X0246413Y0016453D02*
X0247119Y0017159D01*
X0247572Y0018251D01*
X0247572Y0019434D01*
X0247119Y0020526D01*
X0246283Y0021362D01*
X0245191Y0021814D01*
X0244009Y0021814D01*
X0242917Y0021362D01*
X0242081Y0020526D01*
X0241628Y0019434D01*
X0241628Y0018251D01*
X0242081Y0017159D01*
X0242787Y0016453D01*
X0242248Y0015914D01*
X0241825Y0014894D01*
X0241825Y0013791D01*
X0242248Y0012771D01*
X0243028Y0011990D01*
X0244048Y0011568D01*
X0245152Y0011568D01*
X0246172Y0011990D01*
X0246952Y0012771D01*
X0247375Y0013791D01*
X0247375Y0014894D01*
X0246952Y0015914D01*
X0246413Y0016453D01*
X0247229Y0017423D02*
X0248471Y0017423D01*
X0248128Y0018622D02*
X0247572Y0018622D01*
X0247412Y0019820D02*
X0248288Y0019820D01*
X0249074Y0021019D02*
X0246626Y0021019D01*
X0242574Y0021019D02*
X0240126Y0021019D01*
X0239783Y0021362D02*
X0238691Y0021814D01*
X0237509Y0021814D01*
X0236417Y0021362D01*
X0235581Y0020526D01*
X0235128Y0019434D01*
X0235128Y0018251D01*
X0235581Y0017159D01*
X0236417Y0016323D01*
X0237509Y0015871D01*
X0238691Y0015871D01*
X0239783Y0016323D01*
X0240619Y0017159D01*
X0241072Y0018251D01*
X0241072Y0019434D01*
X0240619Y0020526D01*
X0239783Y0021362D01*
X0240912Y0019820D02*
X0241788Y0019820D01*
X0241628Y0018622D02*
X0241072Y0018622D01*
X0240729Y0017423D02*
X0241971Y0017423D01*
X0242558Y0016225D02*
X0239545Y0016225D01*
X0241880Y0015026D02*
X0234320Y0015026D01*
X0234375Y0014894D02*
X0233952Y0015914D01*
X0233172Y0016695D01*
X0232152Y0017117D01*
X0231048Y0017117D01*
X0230028Y0016695D01*
X0229248Y0015914D01*
X0228825Y0014894D01*
X0228825Y0013791D01*
X0229248Y0012771D01*
X0230028Y0011990D01*
X0231048Y0011568D01*
X0232152Y0011568D01*
X0233172Y0011990D01*
X0233952Y0012771D01*
X0234375Y0013791D01*
X0234375Y0014894D01*
X0234375Y0013828D02*
X0241825Y0013828D01*
X0242389Y0012629D02*
X0233811Y0012629D01*
X0229389Y0012629D02*
X0220811Y0012629D01*
X0221375Y0013828D02*
X0228825Y0013828D01*
X0228880Y0015026D02*
X0221320Y0015026D01*
X0220642Y0016225D02*
X0229558Y0016225D01*
X0233642Y0016225D02*
X0236655Y0016225D01*
X0235471Y0017423D02*
X0142105Y0017423D01*
X0142805Y0018622D02*
X0235128Y0018622D01*
X0235288Y0019820D02*
X0142875Y0019820D01*
X0142348Y0021019D02*
X0236074Y0021019D01*
X0247320Y0015026D02*
X0255713Y0015026D01*
X0255713Y0013828D02*
X0247375Y0013828D01*
X0246811Y0012629D02*
X0255713Y0012629D01*
X0254932Y0006637D02*
X0248268Y0006637D01*
X0249467Y0005438D02*
X0253733Y0005438D01*
X0252535Y0004240D02*
X0250665Y0004240D01*
X0242432Y0006637D02*
X0235268Y0006637D01*
X0236467Y0005438D02*
X0241233Y0005438D01*
X0240035Y0004240D02*
X0237665Y0004240D01*
X0255713Y0023416D02*
X0128375Y0023416D01*
X0128077Y0024614D02*
X0255713Y0024614D01*
X0255713Y0025813D02*
X0126887Y0025813D01*
X0124313Y0025813D02*
X0105387Y0025813D01*
X0105672Y0025695D02*
X0104652Y0026117D01*
X0103548Y0026117D01*
X0102528Y0025695D01*
X0101748Y0024914D01*
X0101325Y0023894D01*
X0101325Y0022791D01*
X0101748Y0021771D01*
X0102528Y0020990D01*
X0103548Y0020568D01*
X0104652Y0020568D01*
X0105672Y0020990D01*
X0106452Y0021771D01*
X0106875Y0022791D01*
X0106875Y0023894D01*
X0106452Y0024914D01*
X0105672Y0025695D01*
X0106577Y0024614D02*
X0123123Y0024614D01*
X0122825Y0023416D02*
X0106875Y0023416D01*
X0106637Y0022217D02*
X0123063Y0022217D01*
X0124000Y0021019D02*
X0105700Y0021019D01*
X0102500Y0021019D02*
X0066109Y0021019D01*
X0065994Y0020935D02*
X0066576Y0021358D01*
X0067085Y0021866D01*
X0067507Y0022448D01*
X0067834Y0023089D01*
X0068056Y0023773D01*
X0068165Y0024458D01*
X0063984Y0024458D01*
X0063984Y0020278D01*
X0064670Y0020386D01*
X0065354Y0020609D01*
X0065994Y0020935D01*
X0067340Y0022217D02*
X0075187Y0022217D01*
X0075548Y0022068D02*
X0076652Y0022068D01*
X0077672Y0022490D01*
X0078452Y0023271D01*
X0078875Y0024291D01*
X0078875Y0025394D01*
X0078452Y0026414D01*
X0077672Y0027195D01*
X0076652Y0027617D01*
X0075548Y0027617D01*
X0074528Y0027195D01*
X0073748Y0026414D01*
X0073325Y0025394D01*
X0073325Y0024291D01*
X0073748Y0023271D01*
X0074528Y0022490D01*
X0075548Y0022068D01*
X0077013Y0022217D02*
X0101563Y0022217D01*
X0101325Y0023416D02*
X0078512Y0023416D01*
X0078875Y0024614D02*
X0101623Y0024614D01*
X0102813Y0025813D02*
X0078702Y0025813D01*
X0077855Y0027011D02*
X0096507Y0027011D01*
X0096248Y0027271D02*
X0097028Y0026490D01*
X0098048Y0026068D01*
X0099152Y0026068D01*
X0100172Y0026490D01*
X0100952Y0027271D01*
X0101375Y0028291D01*
X0101375Y0029394D01*
X0100952Y0030414D01*
X0100172Y0031195D01*
X0099152Y0031617D01*
X0098048Y0031617D01*
X0097028Y0031195D01*
X0096248Y0030414D01*
X0095825Y0029394D01*
X0095825Y0028291D01*
X0096248Y0027271D01*
X0095859Y0028210D02*
X0066694Y0028210D01*
X0066576Y0028327D02*
X0065994Y0028750D01*
X0065354Y0029076D01*
X0064670Y0029298D01*
X0063984Y0029407D01*
X0063984Y0025227D01*
X0063216Y0025227D01*
X0063216Y0029407D01*
X0062530Y0029298D01*
X0061846Y0029076D01*
X0061206Y0028750D01*
X0060624Y0028327D01*
X0060115Y0027819D01*
X0059693Y0027237D01*
X0059366Y0026596D01*
X0059144Y0025912D01*
X0059035Y0025227D01*
X0063216Y0025227D01*
X0063216Y0024458D01*
X0063984Y0024458D01*
X0063984Y0025227D01*
X0068165Y0025227D01*
X0068056Y0025912D01*
X0067834Y0026596D01*
X0067507Y0027237D01*
X0067085Y0027819D01*
X0066576Y0028327D01*
X0067622Y0027011D02*
X0074345Y0027011D01*
X0073498Y0025813D02*
X0068072Y0025813D01*
X0067940Y0023416D02*
X0073688Y0023416D01*
X0073325Y0024614D02*
X0063984Y0024614D01*
X0063216Y0024614D02*
X0057956Y0024614D01*
X0057956Y0023976D02*
X0057956Y0025709D01*
X0057293Y0027310D01*
X0056067Y0028535D01*
X0054466Y0029198D01*
X0052734Y0029198D01*
X0051133Y0028535D01*
X0049907Y0027310D01*
X0049244Y0025709D01*
X0049244Y0023976D01*
X0049907Y0022375D01*
X0051133Y0021150D01*
X0052734Y0020487D01*
X0054466Y0020487D01*
X0056067Y0021150D01*
X0057293Y0022375D01*
X0057956Y0023976D01*
X0057724Y0023416D02*
X0059260Y0023416D01*
X0059366Y0023089D02*
X0059693Y0022448D01*
X0060115Y0021866D01*
X0060624Y0021358D01*
X0061206Y0020935D01*
X0061846Y0020609D01*
X0062530Y0020386D01*
X0063216Y0020278D01*
X0063216Y0024458D01*
X0059035Y0024458D01*
X0059144Y0023773D01*
X0059366Y0023089D01*
X0059860Y0022217D02*
X0057135Y0022217D01*
X0055751Y0021019D02*
X0061091Y0021019D01*
X0063216Y0021019D02*
X0063984Y0021019D01*
X0063984Y0022217D02*
X0063216Y0022217D01*
X0063216Y0023416D02*
X0063984Y0023416D01*
X0063984Y0025813D02*
X0063216Y0025813D01*
X0063216Y0027011D02*
X0063984Y0027011D01*
X0063984Y0028210D02*
X0063216Y0028210D01*
X0060506Y0028210D02*
X0056393Y0028210D01*
X0057416Y0027011D02*
X0059578Y0027011D01*
X0059128Y0025813D02*
X0057913Y0025813D01*
X0050807Y0028210D02*
X0046393Y0028210D01*
X0046067Y0028535D02*
X0044466Y0029198D01*
X0042734Y0029198D01*
X0041133Y0028535D01*
X0039907Y0027310D01*
X0039244Y0025709D01*
X0039244Y0023976D01*
X0039907Y0022375D01*
X0041133Y0021150D01*
X0042734Y0020487D01*
X0044466Y0020487D01*
X0046067Y0021150D01*
X0047293Y0022375D01*
X0047956Y0023976D01*
X0047956Y0025709D01*
X0047293Y0027310D01*
X0046067Y0028535D01*
X0047416Y0027011D02*
X0049784Y0027011D01*
X0049287Y0025813D02*
X0047913Y0025813D01*
X0047956Y0024614D02*
X0049244Y0024614D01*
X0049476Y0023416D02*
X0047724Y0023416D01*
X0047135Y0022217D02*
X0050065Y0022217D01*
X0051449Y0021019D02*
X0045751Y0021019D01*
X0044466Y0019198D02*
X0042734Y0019198D01*
X0041133Y0018535D01*
X0039907Y0017310D01*
X0039244Y0015709D01*
X0039244Y0013976D01*
X0039907Y0012375D01*
X0041133Y0011150D01*
X0042734Y0010487D01*
X0044466Y0010487D01*
X0046067Y0011150D01*
X0047293Y0012375D01*
X0047956Y0013976D01*
X0047956Y0015709D01*
X0047293Y0017310D01*
X0046067Y0018535D01*
X0044466Y0019198D01*
X0045859Y0018622D02*
X0051341Y0018622D01*
X0051133Y0018535D02*
X0049907Y0017310D01*
X0049244Y0015709D01*
X0049244Y0013976D01*
X0049907Y0012375D01*
X0051133Y0011150D01*
X0052734Y0010487D01*
X0054466Y0010487D01*
X0056067Y0011150D01*
X0057293Y0012375D01*
X0057956Y0013976D01*
X0057956Y0015709D01*
X0057293Y0017310D01*
X0056067Y0018535D01*
X0054466Y0019198D01*
X0052734Y0019198D01*
X0051133Y0018535D01*
X0050020Y0017423D02*
X0047180Y0017423D01*
X0047742Y0016225D02*
X0049458Y0016225D01*
X0049244Y0015026D02*
X0047956Y0015026D01*
X0047894Y0013828D02*
X0049306Y0013828D01*
X0049802Y0012629D02*
X0047398Y0012629D01*
X0046348Y0011431D02*
X0050852Y0011431D01*
X0056348Y0011431D02*
X0060852Y0011431D01*
X0059802Y0012629D02*
X0057398Y0012629D01*
X0057894Y0013828D02*
X0059306Y0013828D01*
X0059244Y0015026D02*
X0057956Y0015026D01*
X0057742Y0016225D02*
X0059458Y0016225D01*
X0060020Y0017423D02*
X0057180Y0017423D01*
X0055859Y0018622D02*
X0061341Y0018622D01*
X0065859Y0018622D02*
X0110919Y0018622D01*
X0110825Y0017423D02*
X0067180Y0017423D01*
X0067742Y0016225D02*
X0111294Y0016225D01*
X0111654Y0019820D02*
X0004487Y0019820D01*
X0004487Y0018622D02*
X0021341Y0018622D01*
X0021133Y0018535D02*
X0019907Y0017310D01*
X0019244Y0015709D01*
X0019244Y0013976D01*
X0019907Y0012375D01*
X0021133Y0011150D01*
X0022734Y0010487D01*
X0024466Y0010487D01*
X0026067Y0011150D01*
X0027293Y0012375D01*
X0027956Y0013976D01*
X0027956Y0015709D01*
X0027293Y0017310D01*
X0026067Y0018535D01*
X0024466Y0019198D01*
X0022734Y0019198D01*
X0021133Y0018535D01*
X0020020Y0017423D02*
X0004487Y0017423D01*
X0004487Y0016225D02*
X0019458Y0016225D01*
X0019244Y0015026D02*
X0004487Y0015026D01*
X0004487Y0013828D02*
X0019306Y0013828D01*
X0019802Y0012629D02*
X0004487Y0012629D01*
X0004487Y0011431D02*
X0020852Y0011431D01*
X0026348Y0011431D02*
X0030852Y0011431D01*
X0031133Y0011150D02*
X0032734Y0010487D01*
X0034466Y0010487D01*
X0036067Y0011150D01*
X0037293Y0012375D01*
X0037956Y0013976D01*
X0037956Y0015709D01*
X0037293Y0017310D01*
X0036067Y0018535D01*
X0034466Y0019198D01*
X0032734Y0019198D01*
X0031133Y0018535D01*
X0029907Y0017310D01*
X0029244Y0015709D01*
X0029244Y0013976D01*
X0029907Y0012375D01*
X0031133Y0011150D01*
X0029802Y0012629D02*
X0027398Y0012629D01*
X0027894Y0013828D02*
X0029306Y0013828D01*
X0029244Y0015026D02*
X0027956Y0015026D01*
X0027742Y0016225D02*
X0029458Y0016225D01*
X0030020Y0017423D02*
X0027180Y0017423D01*
X0025859Y0018622D02*
X0031341Y0018622D01*
X0032734Y0020487D02*
X0031133Y0021150D01*
X0029907Y0022375D01*
X0029244Y0023976D01*
X0029244Y0025709D01*
X0029907Y0027310D01*
X0031133Y0028535D01*
X0032734Y0029198D01*
X0034466Y0029198D01*
X0036067Y0028535D01*
X0037293Y0027310D01*
X0037956Y0025709D01*
X0037956Y0023976D01*
X0037293Y0022375D01*
X0036067Y0021150D01*
X0034466Y0020487D01*
X0032734Y0020487D01*
X0031449Y0021019D02*
X0026109Y0021019D01*
X0025994Y0020935D02*
X0026576Y0021358D01*
X0027085Y0021866D01*
X0027507Y0022448D01*
X0027834Y0023089D01*
X0028056Y0023773D01*
X0028165Y0024458D01*
X0023984Y0024458D01*
X0023984Y0020278D01*
X0024670Y0020386D01*
X0025354Y0020609D01*
X0025994Y0020935D01*
X0027340Y0022217D02*
X0030065Y0022217D01*
X0029476Y0023416D02*
X0027940Y0023416D01*
X0029244Y0024614D02*
X0023984Y0024614D01*
X0023984Y0024458D02*
X0023984Y0025227D01*
X0023216Y0025227D01*
X0023216Y0029407D01*
X0022530Y0029298D01*
X0021846Y0029076D01*
X0021206Y0028750D01*
X0020624Y0028327D01*
X0020115Y0027819D01*
X0019693Y0027237D01*
X0019366Y0026596D01*
X0019144Y0025912D01*
X0019035Y0025227D01*
X0023216Y0025227D01*
X0023216Y0024458D01*
X0023984Y0024458D01*
X0023216Y0024458D02*
X0023216Y0020278D01*
X0022530Y0020386D01*
X0021846Y0020609D01*
X0021206Y0020935D01*
X0020624Y0021358D01*
X0020115Y0021866D01*
X0019693Y0022448D01*
X0019366Y0023089D01*
X0019144Y0023773D01*
X0019035Y0024458D01*
X0023216Y0024458D01*
X0023216Y0024614D02*
X0004487Y0024614D01*
X0004487Y0023416D02*
X0019260Y0023416D01*
X0019860Y0022217D02*
X0004487Y0022217D01*
X0004487Y0021019D02*
X0021091Y0021019D01*
X0023216Y0021019D02*
X0023984Y0021019D01*
X0023984Y0022217D02*
X0023216Y0022217D01*
X0023216Y0023416D02*
X0023984Y0023416D01*
X0023984Y0025227D02*
X0028165Y0025227D01*
X0028056Y0025912D01*
X0027834Y0026596D01*
X0027507Y0027237D01*
X0027085Y0027819D01*
X0026576Y0028327D01*
X0025994Y0028750D01*
X0025354Y0029076D01*
X0024670Y0029298D01*
X0023984Y0029407D01*
X0023984Y0025227D01*
X0023984Y0025813D02*
X0023216Y0025813D01*
X0023216Y0027011D02*
X0023984Y0027011D01*
X0023984Y0028210D02*
X0023216Y0028210D01*
X0020506Y0028210D02*
X0004487Y0028210D01*
X0004487Y0029408D02*
X0095831Y0029408D01*
X0096440Y0030607D02*
X0004487Y0030607D01*
X0004487Y0031805D02*
X0131974Y0031805D01*
X0131528Y0031990D02*
X0132548Y0031568D01*
X0133652Y0031568D01*
X0134672Y0031990D01*
X0135452Y0032771D01*
X0135875Y0033791D01*
X0135875Y0034894D01*
X0135452Y0035914D01*
X0134672Y0036695D01*
X0133652Y0037117D01*
X0132548Y0037117D01*
X0131528Y0036695D01*
X0130748Y0035914D01*
X0130325Y0034894D01*
X0130325Y0033791D01*
X0130748Y0032771D01*
X0131528Y0031990D01*
X0130651Y0033004D02*
X0113185Y0033004D01*
X0113172Y0032990D02*
X0113952Y0033771D01*
X0114375Y0034791D01*
X0114375Y0035894D01*
X0113952Y0036914D01*
X0113172Y0037695D01*
X0112152Y0038117D01*
X0111048Y0038117D01*
X0110028Y0037695D01*
X0109248Y0036914D01*
X0108825Y0035894D01*
X0108825Y0034791D01*
X0109248Y0033771D01*
X0110028Y0032990D01*
X0111048Y0032568D01*
X0112152Y0032568D01*
X0113172Y0032990D01*
X0114131Y0034202D02*
X0130325Y0034202D01*
X0130535Y0035401D02*
X0114375Y0035401D01*
X0114083Y0036599D02*
X0131433Y0036599D01*
X0134767Y0036599D02*
X0222191Y0036599D01*
X0222128Y0036751D02*
X0222581Y0035659D01*
X0223417Y0034823D01*
X0224509Y0034371D01*
X0225628Y0034371D01*
X0225628Y0033251D01*
X0226081Y0032159D01*
X0226917Y0031323D01*
X0228009Y0030871D01*
X0229191Y0030871D01*
X0230283Y0031323D01*
X0231119Y0032159D01*
X0231572Y0033251D01*
X0231572Y0034434D01*
X0231119Y0035526D01*
X0230283Y0036362D01*
X0229191Y0036814D01*
X0228072Y0036814D01*
X0228072Y0037934D01*
X0227619Y0039026D01*
X0226783Y0039862D01*
X0225691Y0040314D01*
X0224509Y0040314D01*
X0223417Y0039862D01*
X0222581Y0039026D01*
X0222128Y0037934D01*
X0222128Y0036751D01*
X0222128Y0037798D02*
X0140479Y0037798D01*
X0140172Y0037490D02*
X0140952Y0038271D01*
X0141375Y0039291D01*
X0141375Y0040394D01*
X0140952Y0041414D01*
X0140172Y0042195D01*
X0139152Y0042617D01*
X0138048Y0042617D01*
X0137028Y0042195D01*
X0136248Y0041414D01*
X0135825Y0040394D01*
X0135825Y0039291D01*
X0136248Y0038271D01*
X0137028Y0037490D01*
X0138048Y0037068D01*
X0139152Y0037068D01*
X0140172Y0037490D01*
X0141253Y0038996D02*
X0222569Y0038996D01*
X0224221Y0040195D02*
X0141375Y0040195D01*
X0140961Y0041393D02*
X0255713Y0041393D01*
X0255713Y0040195D02*
X0225979Y0040195D01*
X0227631Y0038996D02*
X0255713Y0038996D01*
X0255713Y0037798D02*
X0228072Y0037798D01*
X0229710Y0036599D02*
X0234990Y0036599D01*
X0235509Y0036814D02*
X0234417Y0036362D01*
X0233581Y0035526D01*
X0233128Y0034434D01*
X0233128Y0033251D01*
X0233581Y0032159D01*
X0234417Y0031323D01*
X0235509Y0030871D01*
X0236691Y0030871D01*
X0237783Y0031323D01*
X0238619Y0032159D01*
X0239072Y0033251D01*
X0239072Y0034434D01*
X0238619Y0035526D01*
X0237783Y0036362D01*
X0236691Y0036814D01*
X0235509Y0036814D01*
X0237210Y0036599D02*
X0242490Y0036599D01*
X0243009Y0036814D02*
X0241917Y0036362D01*
X0241081Y0035526D01*
X0240628Y0034434D01*
X0240628Y0033251D01*
X0241081Y0032159D01*
X0241917Y0031323D01*
X0243009Y0030871D01*
X0244191Y0030871D01*
X0245283Y0031323D01*
X0246119Y0032159D01*
X0246572Y0033251D01*
X0246572Y0034434D01*
X0246119Y0035526D01*
X0245283Y0036362D01*
X0244191Y0036814D01*
X0243009Y0036814D01*
X0244710Y0036599D02*
X0255713Y0036599D01*
X0255713Y0035401D02*
X0246171Y0035401D01*
X0246572Y0034202D02*
X0255713Y0034202D01*
X0255713Y0033004D02*
X0246469Y0033004D01*
X0245765Y0031805D02*
X0255713Y0031805D01*
X0255713Y0030607D02*
X0100760Y0030607D01*
X0101369Y0029408D02*
X0255713Y0029408D01*
X0255713Y0028210D02*
X0101341Y0028210D01*
X0100693Y0027011D02*
X0255713Y0027011D01*
X0241435Y0031805D02*
X0238265Y0031805D01*
X0238969Y0033004D02*
X0240731Y0033004D01*
X0240628Y0034202D02*
X0239072Y0034202D01*
X0238671Y0035401D02*
X0241029Y0035401D01*
X0233529Y0035401D02*
X0231171Y0035401D01*
X0231572Y0034202D02*
X0233128Y0034202D01*
X0233231Y0033004D02*
X0231469Y0033004D01*
X0230765Y0031805D02*
X0233935Y0031805D01*
X0226435Y0031805D02*
X0134226Y0031805D01*
X0135549Y0033004D02*
X0225731Y0033004D01*
X0225628Y0034202D02*
X0135875Y0034202D01*
X0135665Y0035401D02*
X0222839Y0035401D01*
X0216152Y0050568D02*
X0215048Y0050568D01*
X0214028Y0050990D01*
X0213248Y0051771D01*
X0212825Y0052791D01*
X0212825Y0053894D01*
X0213248Y0054914D01*
X0213676Y0055342D01*
X0213248Y0055771D01*
X0212825Y0056791D01*
X0212825Y0057894D01*
X0213248Y0058914D01*
X0214028Y0059695D01*
X0215048Y0060117D01*
X0216152Y0060117D01*
X0217172Y0059695D01*
X0217952Y0058914D01*
X0218375Y0057894D01*
X0218375Y0056791D01*
X0217952Y0055771D01*
X0217524Y0055342D01*
X0217952Y0054914D01*
X0218375Y0053894D01*
X0218375Y0052791D01*
X0217952Y0051771D01*
X0217172Y0050990D01*
X0216152Y0050568D01*
X0217151Y0050981D02*
X0255713Y0050981D01*
X0255713Y0049783D02*
X0171957Y0049783D01*
X0171952Y0049771D02*
X0172375Y0050791D01*
X0172375Y0051894D01*
X0171952Y0052914D01*
X0171172Y0053695D01*
X0170152Y0054117D01*
X0169048Y0054117D01*
X0168028Y0053695D01*
X0167248Y0052914D01*
X0166825Y0051894D01*
X0166825Y0050791D01*
X0167248Y0049771D01*
X0168028Y0048990D01*
X0169048Y0048568D01*
X0170152Y0048568D01*
X0171172Y0048990D01*
X0171952Y0049771D01*
X0172375Y0050981D02*
X0214049Y0050981D01*
X0213078Y0052180D02*
X0172257Y0052180D01*
X0171488Y0053378D02*
X0212825Y0053378D01*
X0213108Y0054577D02*
X0151249Y0054577D01*
X0151152Y0054617D02*
X0150048Y0054617D01*
X0149028Y0054195D01*
X0148248Y0053414D01*
X0147825Y0052394D01*
X0147825Y0051291D01*
X0148248Y0050271D01*
X0149028Y0049490D01*
X0150048Y0049068D01*
X0151152Y0049068D01*
X0152172Y0049490D01*
X0152952Y0050271D01*
X0153375Y0051291D01*
X0153375Y0052394D01*
X0152952Y0053414D01*
X0152172Y0054195D01*
X0151152Y0054617D01*
X0149951Y0054577D02*
X0094299Y0054577D01*
X0094375Y0054394D02*
X0093952Y0055414D01*
X0093172Y0056195D01*
X0092152Y0056617D01*
X0091048Y0056617D01*
X0090028Y0056195D01*
X0089248Y0055414D01*
X0088825Y0054394D01*
X0088825Y0053291D01*
X0089248Y0052271D01*
X0090028Y0051490D01*
X0091048Y0051068D01*
X0092152Y0051068D01*
X0092825Y0051347D01*
X0092825Y0050291D01*
X0093248Y0049271D01*
X0094028Y0048490D01*
X0095048Y0048068D01*
X0096152Y0048068D01*
X0097172Y0048490D01*
X0097952Y0049271D01*
X0098375Y0050291D01*
X0098375Y0051394D01*
X0097952Y0052414D01*
X0097172Y0053195D01*
X0096152Y0053617D01*
X0095048Y0053617D01*
X0094375Y0053338D01*
X0094375Y0054394D01*
X0094375Y0053378D02*
X0094472Y0053378D01*
X0096728Y0053378D02*
X0148233Y0053378D01*
X0147825Y0052180D02*
X0105187Y0052180D01*
X0105172Y0052195D02*
X0104152Y0052617D01*
X0103048Y0052617D01*
X0102028Y0052195D01*
X0101248Y0051414D01*
X0100825Y0050394D01*
X0100825Y0049291D01*
X0101248Y0048271D01*
X0102028Y0047490D01*
X0103048Y0047068D01*
X0104152Y0047068D01*
X0105172Y0047490D01*
X0105952Y0048271D01*
X0106375Y0049291D01*
X0106375Y0050394D01*
X0105952Y0051414D01*
X0105172Y0052195D01*
X0106132Y0050981D02*
X0147953Y0050981D01*
X0148735Y0049783D02*
X0106375Y0049783D01*
X0106082Y0048584D02*
X0169008Y0048584D01*
X0170192Y0048584D02*
X0194469Y0048584D01*
X0194548Y0048617D02*
X0193528Y0048195D01*
X0192748Y0047414D01*
X0192325Y0046394D01*
X0192325Y0045291D01*
X0192748Y0044271D01*
X0193528Y0043490D01*
X0194548Y0043068D01*
X0195652Y0043068D01*
X0196672Y0043490D01*
X0197452Y0044271D01*
X0197875Y0045291D01*
X0197875Y0046394D01*
X0197452Y0047414D01*
X0196672Y0048195D01*
X0195652Y0048617D01*
X0194548Y0048617D01*
X0195731Y0048584D02*
X0255713Y0048584D01*
X0255713Y0047386D02*
X0197464Y0047386D01*
X0197875Y0046187D02*
X0255713Y0046187D01*
X0255713Y0044989D02*
X0197750Y0044989D01*
X0196972Y0043790D02*
X0255713Y0043790D01*
X0255713Y0042592D02*
X0139213Y0042592D01*
X0137987Y0042592D02*
X0088775Y0042592D01*
X0088672Y0042695D02*
X0087652Y0043117D01*
X0086548Y0043117D01*
X0085528Y0042695D01*
X0084748Y0041914D01*
X0084325Y0040894D01*
X0084325Y0039791D01*
X0084748Y0038771D01*
X0085528Y0037990D01*
X0086548Y0037568D01*
X0087652Y0037568D01*
X0088672Y0037990D01*
X0089452Y0038771D01*
X0089875Y0039791D01*
X0089875Y0040894D01*
X0089452Y0041914D01*
X0088672Y0042695D01*
X0089668Y0041393D02*
X0105727Y0041393D01*
X0106028Y0041695D02*
X0105248Y0040914D01*
X0104825Y0039894D01*
X0104825Y0038791D01*
X0105248Y0037771D01*
X0106028Y0036990D01*
X0107048Y0036568D01*
X0108152Y0036568D01*
X0109172Y0036990D01*
X0109952Y0037771D01*
X0110375Y0038791D01*
X0110375Y0039894D01*
X0109952Y0040914D01*
X0109172Y0041695D01*
X0108152Y0042117D01*
X0107048Y0042117D01*
X0106028Y0041695D01*
X0104950Y0040195D02*
X0089875Y0040195D01*
X0089546Y0038996D02*
X0104825Y0038996D01*
X0105236Y0037798D02*
X0088208Y0037798D01*
X0085992Y0037798D02*
X0030208Y0037798D01*
X0030375Y0037394D02*
X0029952Y0038414D01*
X0029172Y0039195D01*
X0028152Y0039617D01*
X0027048Y0039617D01*
X0026028Y0039195D01*
X0025248Y0038414D01*
X0024825Y0037394D01*
X0024825Y0036291D01*
X0025248Y0035271D01*
X0026028Y0034490D01*
X0027048Y0034068D01*
X0028152Y0034068D01*
X0029172Y0034490D01*
X0029952Y0035271D01*
X0030375Y0036291D01*
X0030375Y0037394D01*
X0030375Y0036599D02*
X0106972Y0036599D01*
X0108228Y0036599D02*
X0109117Y0036599D01*
X0108825Y0035401D02*
X0030006Y0035401D01*
X0028477Y0034202D02*
X0109069Y0034202D01*
X0110015Y0033004D02*
X0004487Y0033004D01*
X0004487Y0034202D02*
X0026723Y0034202D01*
X0025194Y0035401D02*
X0004487Y0035401D01*
X0004487Y0036599D02*
X0024825Y0036599D01*
X0024992Y0037798D02*
X0004487Y0037798D01*
X0004487Y0038996D02*
X0025830Y0038996D01*
X0029370Y0038996D02*
X0084654Y0038996D01*
X0084325Y0040195D02*
X0004487Y0040195D01*
X0004487Y0041393D02*
X0055625Y0041393D01*
X0055248Y0041771D02*
X0056028Y0040990D01*
X0057048Y0040568D01*
X0058152Y0040568D01*
X0059172Y0040990D01*
X0059952Y0041771D01*
X0060375Y0042791D01*
X0060375Y0043894D01*
X0059952Y0044914D01*
X0059172Y0045695D01*
X0058152Y0046117D01*
X0057048Y0046117D01*
X0056028Y0045695D01*
X0055248Y0044914D01*
X0054825Y0043894D01*
X0054825Y0042791D01*
X0055248Y0041771D01*
X0054907Y0042592D02*
X0004487Y0042592D01*
X0004487Y0043790D02*
X0054825Y0043790D01*
X0055322Y0044989D02*
X0004487Y0044989D01*
X0004487Y0046187D02*
X0064259Y0046187D01*
X0064548Y0046068D02*
X0065652Y0046068D01*
X0066672Y0046490D01*
X0067452Y0047271D01*
X0067875Y0048291D01*
X0067875Y0049394D01*
X0067452Y0050414D01*
X0066672Y0051195D01*
X0065652Y0051617D01*
X0064548Y0051617D01*
X0063528Y0051195D01*
X0062748Y0050414D01*
X0062375Y0049514D01*
X0062375Y0050394D01*
X0061952Y0051414D01*
X0061172Y0052195D01*
X0060152Y0052617D01*
X0059048Y0052617D01*
X0058028Y0052195D01*
X0057248Y0051414D01*
X0056825Y0050394D01*
X0056825Y0049291D01*
X0057248Y0048271D01*
X0058028Y0047490D01*
X0059048Y0047068D01*
X0060152Y0047068D01*
X0061172Y0047490D01*
X0061952Y0048271D01*
X0062325Y0049171D01*
X0062325Y0048291D01*
X0062748Y0047271D01*
X0063528Y0046490D01*
X0064548Y0046068D01*
X0065941Y0046187D02*
X0192325Y0046187D01*
X0192450Y0044989D02*
X0059878Y0044989D01*
X0060375Y0043790D02*
X0193228Y0043790D01*
X0192736Y0047386D02*
X0104920Y0047386D01*
X0102280Y0047386D02*
X0067500Y0047386D01*
X0067875Y0048584D02*
X0093934Y0048584D01*
X0093035Y0049783D02*
X0067714Y0049783D01*
X0066885Y0050981D02*
X0092825Y0050981D01*
X0089338Y0052180D02*
X0061187Y0052180D01*
X0062132Y0050981D02*
X0063315Y0050981D01*
X0062486Y0049783D02*
X0062375Y0049783D01*
X0062325Y0048584D02*
X0062082Y0048584D01*
X0062700Y0047386D02*
X0060920Y0047386D01*
X0058280Y0047386D02*
X0004487Y0047386D01*
X0004487Y0048584D02*
X0057118Y0048584D01*
X0056825Y0049783D02*
X0004487Y0049783D01*
X0004487Y0050981D02*
X0057068Y0050981D01*
X0058013Y0052180D02*
X0004487Y0052180D01*
X0004487Y0053378D02*
X0030298Y0053378D01*
X0030028Y0053490D02*
X0031048Y0053068D01*
X0032152Y0053068D01*
X0033172Y0053490D01*
X0033952Y0054271D01*
X0034375Y0055291D01*
X0034375Y0056394D01*
X0033952Y0057414D01*
X0033172Y0058195D01*
X0032152Y0058617D01*
X0031048Y0058617D01*
X0030028Y0058195D01*
X0029248Y0057414D01*
X0028825Y0056394D01*
X0028825Y0055291D01*
X0029248Y0054271D01*
X0030028Y0053490D01*
X0029121Y0054577D02*
X0025259Y0054577D01*
X0025172Y0054490D02*
X0025952Y0055271D01*
X0026375Y0056291D01*
X0026375Y0057394D01*
X0025952Y0058414D01*
X0025172Y0059195D01*
X0024152Y0059617D01*
X0023048Y0059617D01*
X0022028Y0059195D01*
X0021248Y0058414D01*
X0020825Y0057394D01*
X0020825Y0056291D01*
X0021248Y0055271D01*
X0022028Y0054490D01*
X0023048Y0054068D01*
X0024152Y0054068D01*
X0025172Y0054490D01*
X0026161Y0055775D02*
X0028825Y0055775D01*
X0029065Y0056974D02*
X0026375Y0056974D01*
X0026052Y0058173D02*
X0030006Y0058173D01*
X0033194Y0058173D02*
X0047874Y0058173D01*
X0047825Y0058291D02*
X0048248Y0057271D01*
X0049028Y0056490D01*
X0050048Y0056068D01*
X0051152Y0056068D01*
X0052172Y0056490D01*
X0052952Y0057271D01*
X0053375Y0058291D01*
X0053375Y0059394D01*
X0052952Y0060414D01*
X0052172Y0061195D01*
X0051152Y0061617D01*
X0050048Y0061617D01*
X0049028Y0061195D01*
X0048248Y0060414D01*
X0047825Y0059394D01*
X0047825Y0058291D01*
X0047825Y0059371D02*
X0024746Y0059371D01*
X0022454Y0059371D02*
X0004487Y0059371D01*
X0004487Y0058173D02*
X0021148Y0058173D01*
X0020825Y0056974D02*
X0004487Y0056974D01*
X0004487Y0055775D02*
X0021039Y0055775D01*
X0021941Y0054577D02*
X0004487Y0054577D01*
X0004487Y0060570D02*
X0048403Y0060570D01*
X0048544Y0056974D02*
X0034135Y0056974D01*
X0034375Y0055775D02*
X0089609Y0055775D01*
X0088901Y0054577D02*
X0034079Y0054577D01*
X0032902Y0053378D02*
X0088825Y0053378D01*
X0093591Y0055775D02*
X0213246Y0055775D01*
X0212825Y0056974D02*
X0159656Y0056974D01*
X0159952Y0057271D02*
X0160375Y0058291D01*
X0160375Y0059394D01*
X0159952Y0060414D01*
X0159172Y0061195D01*
X0158152Y0061617D01*
X0157048Y0061617D01*
X0156028Y0061195D01*
X0155248Y0060414D01*
X0154825Y0059394D01*
X0154825Y0058291D01*
X0155248Y0057271D01*
X0156028Y0056490D01*
X0157048Y0056068D01*
X0158152Y0056068D01*
X0159172Y0056490D01*
X0159952Y0057271D01*
X0160326Y0058173D02*
X0212940Y0058173D01*
X0213704Y0059371D02*
X0160375Y0059371D01*
X0159797Y0060570D02*
X0255713Y0060570D01*
X0255713Y0061768D02*
X0072495Y0061768D01*
X0072672Y0061695D02*
X0071652Y0062117D01*
X0070548Y0062117D01*
X0069528Y0061695D01*
X0068748Y0060914D01*
X0068325Y0059894D01*
X0068325Y0058791D01*
X0068748Y0057771D01*
X0069528Y0056990D01*
X0070548Y0056568D01*
X0071652Y0056568D01*
X0072672Y0056990D01*
X0073452Y0057771D01*
X0073875Y0058791D01*
X0073875Y0059894D01*
X0073452Y0060914D01*
X0072672Y0061695D01*
X0073595Y0060570D02*
X0155403Y0060570D01*
X0154825Y0059371D02*
X0073875Y0059371D01*
X0073619Y0058173D02*
X0154874Y0058173D01*
X0155544Y0056974D02*
X0072633Y0056974D01*
X0069567Y0056974D02*
X0052656Y0056974D01*
X0053326Y0058173D02*
X0068581Y0058173D01*
X0068325Y0059371D02*
X0053375Y0059371D01*
X0052797Y0060570D02*
X0068605Y0060570D01*
X0069705Y0061768D02*
X0004487Y0061768D01*
X0004487Y0062967D02*
X0255713Y0062967D01*
X0255713Y0064165D02*
X0004487Y0064165D01*
X0004487Y0065364D02*
X0255713Y0065364D01*
X0255713Y0066562D02*
X0004487Y0066562D01*
X0004487Y0067761D02*
X0255713Y0067761D01*
X0255713Y0068959D02*
X0060597Y0068959D01*
X0060672Y0068990D02*
X0061452Y0069771D01*
X0061875Y0070791D01*
X0061875Y0071894D01*
X0061452Y0072914D01*
X0060672Y0073695D01*
X0059652Y0074117D01*
X0058548Y0074117D01*
X0057528Y0073695D01*
X0056748Y0072914D01*
X0056325Y0071894D01*
X0056325Y0070791D01*
X0056748Y0069771D01*
X0057528Y0068990D01*
X0058548Y0068568D01*
X0059652Y0068568D01*
X0060672Y0068990D01*
X0061613Y0070158D02*
X0221861Y0070158D01*
X0221748Y0070271D02*
X0222528Y0069490D01*
X0223548Y0069068D01*
X0224652Y0069068D01*
X0225672Y0069490D01*
X0226452Y0070271D01*
X0226875Y0071291D01*
X0226875Y0072394D01*
X0226452Y0073414D01*
X0225799Y0074068D01*
X0226152Y0074068D01*
X0227172Y0074490D01*
X0227952Y0075271D01*
X0228375Y0076291D01*
X0228375Y0077394D01*
X0227952Y0078414D01*
X0227172Y0079195D01*
X0226152Y0079617D01*
X0225048Y0079617D01*
X0224028Y0079195D01*
X0223248Y0078414D01*
X0222825Y0077394D01*
X0222825Y0076291D01*
X0223248Y0075271D01*
X0223901Y0074617D01*
X0223548Y0074617D01*
X0222528Y0074195D01*
X0221748Y0073414D01*
X0221325Y0072394D01*
X0221325Y0071291D01*
X0221748Y0070271D01*
X0221325Y0071356D02*
X0100538Y0071356D01*
X0100172Y0070990D02*
X0100952Y0071771D01*
X0101375Y0072791D01*
X0101375Y0073894D01*
X0100952Y0074914D01*
X0100172Y0075695D01*
X0099152Y0076117D01*
X0098048Y0076117D01*
X0097028Y0075695D01*
X0096248Y0074914D01*
X0095825Y0073894D01*
X0095825Y0072791D01*
X0096248Y0071771D01*
X0097028Y0070990D01*
X0098048Y0070568D01*
X0099152Y0070568D01*
X0100172Y0070990D01*
X0101277Y0072555D02*
X0221392Y0072555D01*
X0222087Y0073753D02*
X0101375Y0073753D01*
X0100915Y0074952D02*
X0223567Y0074952D01*
X0222883Y0076150D02*
X0037562Y0076150D01*
X0037452Y0076414D02*
X0036672Y0077195D01*
X0035652Y0077617D01*
X0034548Y0077617D01*
X0033528Y0077195D01*
X0032748Y0076414D01*
X0032325Y0075394D01*
X0032325Y0074291D01*
X0032748Y0073271D01*
X0033528Y0072490D01*
X0034548Y0072068D01*
X0035652Y0072068D01*
X0036672Y0072490D01*
X0037452Y0073271D01*
X0037875Y0074291D01*
X0037875Y0075394D01*
X0037452Y0076414D01*
X0036300Y0077349D02*
X0165170Y0077349D01*
X0165528Y0076990D02*
X0166548Y0076568D01*
X0167652Y0076568D01*
X0168672Y0076990D01*
X0169452Y0077771D01*
X0169875Y0078791D01*
X0169875Y0079894D01*
X0169452Y0080914D01*
X0168672Y0081695D01*
X0167652Y0082117D01*
X0166548Y0082117D01*
X0165528Y0081695D01*
X0164748Y0080914D01*
X0164325Y0079894D01*
X0164325Y0078791D01*
X0164748Y0077771D01*
X0165528Y0076990D01*
X0164426Y0078547D02*
X0004487Y0078547D01*
X0004487Y0077349D02*
X0033900Y0077349D01*
X0032638Y0076150D02*
X0004487Y0076150D01*
X0004487Y0074952D02*
X0032325Y0074952D01*
X0032548Y0073753D02*
X0004487Y0073753D01*
X0004487Y0072555D02*
X0033464Y0072555D01*
X0036736Y0072555D02*
X0056599Y0072555D01*
X0056325Y0071356D02*
X0004487Y0071356D01*
X0004487Y0070158D02*
X0056587Y0070158D01*
X0057603Y0068959D02*
X0004487Y0068959D01*
X0004487Y0079746D02*
X0079773Y0079746D01*
X0079748Y0079771D02*
X0080528Y0078990D01*
X0081548Y0078568D01*
X0082652Y0078568D01*
X0083672Y0078990D01*
X0084452Y0079771D01*
X0084875Y0080791D01*
X0084875Y0081894D01*
X0084452Y0082914D01*
X0083672Y0083695D01*
X0082652Y0084117D01*
X0081548Y0084117D01*
X0080528Y0083695D01*
X0079748Y0082914D01*
X0079325Y0081894D01*
X0079325Y0080791D01*
X0079748Y0079771D01*
X0079325Y0080944D02*
X0004487Y0080944D01*
X0004487Y0082143D02*
X0079428Y0082143D01*
X0080175Y0083341D02*
X0004487Y0083341D01*
X0004487Y0084540D02*
X0086979Y0084540D01*
X0087028Y0084490D02*
X0088048Y0084068D01*
X0089152Y0084068D01*
X0090172Y0084490D01*
X0090952Y0085271D01*
X0091375Y0086291D01*
X0091375Y0087394D01*
X0090952Y0088414D01*
X0090172Y0089195D01*
X0089152Y0089617D01*
X0088048Y0089617D01*
X0087028Y0089195D01*
X0086248Y0088414D01*
X0085825Y0087394D01*
X0085825Y0086291D01*
X0086248Y0085271D01*
X0087028Y0084490D01*
X0086054Y0085738D02*
X0004487Y0085738D01*
X0004487Y0086937D02*
X0085825Y0086937D01*
X0086132Y0088135D02*
X0004487Y0088135D01*
X0004487Y0089334D02*
X0040406Y0089334D01*
X0040028Y0089490D02*
X0041048Y0089068D01*
X0042152Y0089068D01*
X0043172Y0089490D01*
X0043952Y0090271D01*
X0044375Y0091291D01*
X0044375Y0092394D01*
X0043952Y0093414D01*
X0043172Y0094195D01*
X0042152Y0094617D01*
X0041048Y0094617D01*
X0040028Y0094195D01*
X0039248Y0093414D01*
X0038825Y0092394D01*
X0038825Y0091291D01*
X0039248Y0090271D01*
X0040028Y0089490D01*
X0039139Y0090532D02*
X0004487Y0090532D01*
X0004487Y0091731D02*
X0038825Y0091731D01*
X0039047Y0092929D02*
X0004487Y0092929D01*
X0004487Y0094128D02*
X0039961Y0094128D01*
X0043239Y0094128D02*
X0092325Y0094128D01*
X0092325Y0093791D02*
X0092748Y0092771D01*
X0093528Y0091990D01*
X0094548Y0091568D01*
X0095652Y0091568D01*
X0096672Y0091990D01*
X0097452Y0092771D01*
X0097875Y0093791D01*
X0097875Y0094894D01*
X0097452Y0095914D01*
X0096672Y0096695D01*
X0095652Y0097117D01*
X0094548Y0097117D01*
X0093528Y0096695D01*
X0092748Y0095914D01*
X0092325Y0094894D01*
X0092325Y0093791D01*
X0092682Y0092929D02*
X0044153Y0092929D01*
X0044375Y0091731D02*
X0094154Y0091731D01*
X0096046Y0091731D02*
X0208825Y0091731D01*
X0208825Y0091894D02*
X0208825Y0090791D01*
X0209248Y0089771D01*
X0210028Y0088990D01*
X0211048Y0088568D01*
X0212152Y0088568D01*
X0213172Y0088990D01*
X0213952Y0089771D01*
X0214375Y0090791D01*
X0214375Y0091894D01*
X0213952Y0092914D01*
X0213172Y0093695D01*
X0212152Y0094117D01*
X0211048Y0094117D01*
X0210028Y0093695D01*
X0209248Y0092914D01*
X0208825Y0091894D01*
X0209263Y0092929D02*
X0097518Y0092929D01*
X0097875Y0094128D02*
X0255713Y0094128D01*
X0255713Y0095326D02*
X0097696Y0095326D01*
X0096842Y0096525D02*
X0255713Y0096525D01*
X0255713Y0097723D02*
X0026028Y0097723D01*
X0025652Y0097568D02*
X0026672Y0097990D01*
X0027452Y0098771D01*
X0027875Y0099791D01*
X0027875Y0100894D01*
X0027452Y0101914D01*
X0026672Y0102695D01*
X0025652Y0103117D01*
X0024548Y0103117D01*
X0023528Y0102695D01*
X0022748Y0101914D01*
X0022325Y0100894D01*
X0022325Y0099791D01*
X0022748Y0098771D01*
X0023528Y0097990D01*
X0024548Y0097568D01*
X0025652Y0097568D01*
X0024172Y0097723D02*
X0004487Y0097723D01*
X0004487Y0096525D02*
X0093358Y0096525D01*
X0092504Y0095326D02*
X0004487Y0095326D01*
X0004487Y0098922D02*
X0022685Y0098922D01*
X0022325Y0100120D02*
X0004487Y0100120D01*
X0004487Y0101319D02*
X0022501Y0101319D01*
X0023351Y0102517D02*
X0004487Y0102517D01*
X0004487Y0103716D02*
X0142458Y0103716D01*
X0142325Y0103394D02*
X0142325Y0102291D01*
X0142748Y0101271D01*
X0143528Y0100490D01*
X0144548Y0100068D01*
X0145652Y0100068D01*
X0146672Y0100490D01*
X0147452Y0101271D01*
X0147875Y0102291D01*
X0147875Y0103394D01*
X0147452Y0104414D01*
X0146672Y0105195D01*
X0145652Y0105617D01*
X0144548Y0105617D01*
X0143528Y0105195D01*
X0142748Y0104414D01*
X0142325Y0103394D01*
X0142325Y0102517D02*
X0026849Y0102517D01*
X0027699Y0101319D02*
X0142728Y0101319D01*
X0144421Y0100120D02*
X0027875Y0100120D01*
X0027515Y0098922D02*
X0255713Y0098922D01*
X0255713Y0100120D02*
X0145779Y0100120D01*
X0147472Y0101319D02*
X0255713Y0101319D01*
X0255713Y0102517D02*
X0147875Y0102517D01*
X0147742Y0103716D02*
X0255713Y0103716D01*
X0255713Y0104914D02*
X0146952Y0104914D01*
X0143248Y0104914D02*
X0142596Y0104914D01*
X0142952Y0105271D02*
X0143375Y0106291D01*
X0143375Y0107394D01*
X0142952Y0108414D01*
X0142172Y0109195D01*
X0141152Y0109617D01*
X0140048Y0109617D01*
X0139028Y0109195D01*
X0138248Y0108414D01*
X0137825Y0107394D01*
X0137825Y0106291D01*
X0138248Y0105271D01*
X0139028Y0104490D01*
X0140048Y0104068D01*
X0141152Y0104068D01*
X0142172Y0104490D01*
X0142952Y0105271D01*
X0143301Y0106113D02*
X0255713Y0106113D01*
X0254669Y0107311D02*
X0143375Y0107311D01*
X0142857Y0108510D02*
X0253470Y0108510D01*
X0252272Y0109709D02*
X0082054Y0109709D01*
X0082072Y0109751D02*
X0081619Y0108659D01*
X0080783Y0107823D01*
X0079691Y0107371D01*
X0078509Y0107371D01*
X0077417Y0107823D01*
X0076581Y0108659D01*
X0076128Y0109751D01*
X0076128Y0110934D01*
X0076581Y0112026D01*
X0077417Y0112862D01*
X0078509Y0113314D01*
X0079691Y0113314D01*
X0080783Y0112862D01*
X0081619Y0112026D01*
X0082072Y0110934D01*
X0082072Y0109751D01*
X0082072Y0110907D02*
X0251073Y0110907D01*
X0249875Y0112106D02*
X0094243Y0112106D01*
X0094152Y0112068D02*
X0095172Y0112490D01*
X0095952Y0113271D01*
X0096375Y0114291D01*
X0096375Y0115394D01*
X0095952Y0116414D01*
X0095172Y0117195D01*
X0094152Y0117617D01*
X0093048Y0117617D01*
X0092028Y0117195D01*
X0091248Y0116414D01*
X0090825Y0115394D01*
X0090825Y0114291D01*
X0091248Y0113271D01*
X0092028Y0112490D01*
X0093048Y0112068D01*
X0094152Y0112068D01*
X0092957Y0112106D02*
X0081539Y0112106D01*
X0079715Y0113304D02*
X0091234Y0113304D01*
X0090825Y0114503D02*
X0087463Y0114503D01*
X0087619Y0114659D02*
X0088072Y0115751D01*
X0088072Y0116934D01*
X0087619Y0118026D01*
X0086783Y0118862D01*
X0085691Y0119314D01*
X0084509Y0119314D01*
X0083417Y0118862D01*
X0082581Y0118026D01*
X0082128Y0116934D01*
X0082128Y0115751D01*
X0082581Y0114659D01*
X0083417Y0113823D01*
X0084509Y0113371D01*
X0085691Y0113371D01*
X0086783Y0113823D01*
X0087619Y0114659D01*
X0088051Y0115701D02*
X0090952Y0115701D01*
X0091733Y0116900D02*
X0088072Y0116900D01*
X0087547Y0118098D02*
X0097420Y0118098D01*
X0097528Y0117990D02*
X0098548Y0117568D01*
X0099652Y0117568D01*
X0100672Y0117990D01*
X0101452Y0118771D01*
X0101875Y0119791D01*
X0101875Y0120894D01*
X0101452Y0121914D01*
X0100672Y0122695D01*
X0099652Y0123117D01*
X0098548Y0123117D01*
X0097528Y0122695D01*
X0096748Y0121914D01*
X0096325Y0120894D01*
X0096325Y0119791D01*
X0096748Y0118771D01*
X0097528Y0117990D01*
X0096530Y0119297D02*
X0085733Y0119297D01*
X0084467Y0119297D02*
X0068348Y0119297D01*
X0068283Y0119362D02*
X0067191Y0119814D01*
X0066009Y0119814D01*
X0064917Y0119362D01*
X0064081Y0118526D01*
X0063628Y0117434D01*
X0063628Y0116251D01*
X0064081Y0115159D01*
X0064917Y0114323D01*
X0066009Y0113871D01*
X0067191Y0113871D01*
X0068283Y0114323D01*
X0069119Y0115159D01*
X0069572Y0116251D01*
X0069572Y0117434D01*
X0069119Y0118526D01*
X0068283Y0119362D01*
X0069296Y0118098D02*
X0082653Y0118098D01*
X0082128Y0116900D02*
X0069572Y0116900D01*
X0069344Y0115701D02*
X0082149Y0115701D01*
X0082737Y0114503D02*
X0068463Y0114503D01*
X0064737Y0114503D02*
X0062943Y0114503D01*
X0063283Y0114362D02*
X0062191Y0114814D01*
X0061009Y0114814D01*
X0059917Y0114362D01*
X0059081Y0113526D01*
X0058628Y0112434D01*
X0058628Y0111251D01*
X0059081Y0110159D01*
X0059917Y0109323D01*
X0061009Y0108871D01*
X0062191Y0108871D01*
X0063283Y0109323D01*
X0064119Y0110159D01*
X0064572Y0111251D01*
X0064572Y0112434D01*
X0064119Y0113526D01*
X0063283Y0114362D01*
X0064211Y0113304D02*
X0078485Y0113304D01*
X0076660Y0112106D02*
X0064572Y0112106D01*
X0064429Y0110907D02*
X0076128Y0110907D01*
X0076146Y0109709D02*
X0063669Y0109709D01*
X0059531Y0109709D02*
X0057140Y0109709D01*
X0057119Y0109659D02*
X0057572Y0110751D01*
X0057572Y0111934D01*
X0057119Y0113026D01*
X0056283Y0113862D01*
X0055726Y0114092D01*
X0056283Y0114323D01*
X0057119Y0115159D01*
X0057572Y0116251D01*
X0057572Y0117434D01*
X0057119Y0118526D01*
X0056283Y0119362D01*
X0055191Y0119814D01*
X0054009Y0119814D01*
X0052917Y0119362D01*
X0052081Y0118526D01*
X0051850Y0117969D01*
X0051619Y0118526D01*
X0050783Y0119362D01*
X0049691Y0119814D01*
X0048509Y0119814D01*
X0047417Y0119362D01*
X0046581Y0118526D01*
X0046350Y0117969D01*
X0046119Y0118526D01*
X0045283Y0119362D01*
X0044191Y0119814D01*
X0043009Y0119814D01*
X0041917Y0119362D01*
X0041081Y0118526D01*
X0040628Y0117434D01*
X0040628Y0116251D01*
X0041081Y0115159D01*
X0041917Y0114323D01*
X0042474Y0114092D01*
X0041917Y0113862D01*
X0041081Y0113026D01*
X0040628Y0111934D01*
X0040628Y0110751D01*
X0041081Y0109659D01*
X0041917Y0108823D01*
X0043009Y0108371D01*
X0044191Y0108371D01*
X0045283Y0108823D01*
X0046119Y0109659D01*
X0046350Y0110216D01*
X0046581Y0109659D01*
X0047417Y0108823D01*
X0048509Y0108371D01*
X0049691Y0108371D01*
X0050783Y0108823D01*
X0051619Y0109659D01*
X0051850Y0110216D01*
X0052081Y0109659D01*
X0052917Y0108823D01*
X0054009Y0108371D01*
X0055191Y0108371D01*
X0056283Y0108823D01*
X0057119Y0109659D01*
X0057572Y0110907D02*
X0058771Y0110907D01*
X0058628Y0112106D02*
X0057500Y0112106D01*
X0056841Y0113304D02*
X0058989Y0113304D01*
X0060257Y0114503D02*
X0056463Y0114503D01*
X0057344Y0115701D02*
X0063856Y0115701D01*
X0063628Y0116900D02*
X0057572Y0116900D01*
X0057296Y0118098D02*
X0063904Y0118098D01*
X0064852Y0119297D02*
X0056348Y0119297D01*
X0052852Y0119297D02*
X0050848Y0119297D01*
X0051796Y0118098D02*
X0051904Y0118098D01*
X0047352Y0119297D02*
X0045348Y0119297D01*
X0046296Y0118098D02*
X0046404Y0118098D01*
X0041852Y0119297D02*
X0004487Y0119297D01*
X0004487Y0120495D02*
X0096325Y0120495D01*
X0096656Y0121694D02*
X0004487Y0121694D01*
X0004487Y0122892D02*
X0098005Y0122892D01*
X0100195Y0122892D02*
X0102325Y0122892D01*
X0102325Y0122791D02*
X0102748Y0121771D01*
X0103528Y0120990D01*
X0104548Y0120568D01*
X0105652Y0120568D01*
X0106672Y0120990D01*
X0107452Y0121771D01*
X0107875Y0122791D01*
X0107875Y0123894D01*
X0107452Y0124914D01*
X0106672Y0125695D01*
X0105652Y0126117D01*
X0104548Y0126117D01*
X0103528Y0125695D01*
X0102748Y0124914D01*
X0102325Y0123894D01*
X0102325Y0122791D01*
X0102825Y0121694D02*
X0101544Y0121694D01*
X0101875Y0120495D02*
X0126959Y0120495D01*
X0126959Y0120894D02*
X0126959Y0119791D01*
X0127381Y0118771D01*
X0128162Y0117990D01*
X0129182Y0117568D01*
X0130286Y0117568D01*
X0130483Y0117649D01*
X0129748Y0116914D01*
X0129325Y0115894D01*
X0129325Y0114791D01*
X0129748Y0113771D01*
X0130528Y0112990D01*
X0131548Y0112568D01*
X0132652Y0112568D01*
X0133672Y0112990D01*
X0134452Y0113771D01*
X0134875Y0114791D01*
X0134875Y0115894D01*
X0134452Y0116914D01*
X0133672Y0117695D01*
X0132652Y0118117D01*
X0131548Y0118117D01*
X0131351Y0118036D01*
X0132086Y0118771D01*
X0132508Y0119791D01*
X0132508Y0120894D01*
X0132086Y0121914D01*
X0131305Y0122695D01*
X0130286Y0123117D01*
X0129182Y0123117D01*
X0128162Y0122695D01*
X0127381Y0121914D01*
X0126959Y0120894D01*
X0127290Y0121694D02*
X0107375Y0121694D01*
X0107875Y0122892D02*
X0128638Y0122892D01*
X0130829Y0122892D02*
X0191531Y0122892D01*
X0191325Y0122394D02*
X0191748Y0123414D01*
X0192528Y0124195D01*
X0193548Y0124617D01*
X0194652Y0124617D01*
X0195672Y0124195D01*
X0196452Y0123414D01*
X0196875Y0122394D01*
X0196875Y0121291D01*
X0196452Y0120271D01*
X0195672Y0119490D01*
X0194652Y0119068D01*
X0193548Y0119068D01*
X0192528Y0119490D01*
X0191748Y0120271D01*
X0191325Y0121291D01*
X0191325Y0122394D01*
X0191325Y0121694D02*
X0163673Y0121694D01*
X0163952Y0121414D02*
X0163172Y0122195D01*
X0162152Y0122617D01*
X0161048Y0122617D01*
X0160028Y0122195D01*
X0159248Y0121414D01*
X0158825Y0120394D01*
X0158825Y0119291D01*
X0159248Y0118271D01*
X0160028Y0117490D01*
X0161048Y0117068D01*
X0162152Y0117068D01*
X0163172Y0117490D01*
X0163952Y0118271D01*
X0164375Y0119291D01*
X0164375Y0120394D01*
X0163952Y0121414D01*
X0164333Y0120495D02*
X0191655Y0120495D01*
X0192995Y0119297D02*
X0164375Y0119297D01*
X0163780Y0118098D02*
X0243882Y0118098D01*
X0242684Y0119297D02*
X0195205Y0119297D01*
X0196545Y0120495D02*
X0241485Y0120495D01*
X0240287Y0121694D02*
X0196875Y0121694D01*
X0196669Y0122892D02*
X0239088Y0122892D01*
X0237890Y0124091D02*
X0195776Y0124091D01*
X0192424Y0124091D02*
X0107794Y0124091D01*
X0107077Y0125289D02*
X0236691Y0125289D01*
X0236213Y0126488D02*
X0004487Y0126488D01*
X0004487Y0127686D02*
X0236213Y0127686D01*
X0236213Y0128885D02*
X0004487Y0128885D01*
X0004487Y0130083D02*
X0134435Y0130083D01*
X0134248Y0130271D02*
X0135028Y0129490D01*
X0136048Y0129068D01*
X0137152Y0129068D01*
X0138172Y0129490D01*
X0138952Y0130271D01*
X0139375Y0131291D01*
X0139375Y0132394D01*
X0138952Y0133414D01*
X0138172Y0134195D01*
X0137152Y0134617D01*
X0136048Y0134617D01*
X0135028Y0134195D01*
X0134248Y0133414D01*
X0133825Y0132394D01*
X0133825Y0131291D01*
X0134248Y0130271D01*
X0133829Y0131282D02*
X0116463Y0131282D01*
X0116172Y0130990D02*
X0116952Y0131771D01*
X0117375Y0132791D01*
X0117375Y0133894D01*
X0116952Y0134914D01*
X0116172Y0135695D01*
X0115152Y0136117D01*
X0114048Y0136117D01*
X0113028Y0135695D01*
X0112248Y0134914D01*
X0111825Y0133894D01*
X0111825Y0132791D01*
X0112248Y0131771D01*
X0113028Y0130990D01*
X0114048Y0130568D01*
X0115152Y0130568D01*
X0116172Y0130990D01*
X0117246Y0132480D02*
X0133861Y0132480D01*
X0134512Y0133679D02*
X0117375Y0133679D01*
X0116968Y0134877D02*
X0236213Y0134877D01*
X0236213Y0133679D02*
X0138688Y0133679D01*
X0139339Y0132480D02*
X0236213Y0132480D01*
X0236213Y0131282D02*
X0139371Y0131282D01*
X0138765Y0130083D02*
X0236213Y0130083D01*
X0236213Y0136076D02*
X0115252Y0136076D01*
X0113948Y0136076D02*
X0052072Y0136076D01*
X0051931Y0137274D02*
X0236213Y0137274D01*
X0236213Y0138473D02*
X0051172Y0138473D01*
X0051131Y0139671D02*
X0236213Y0139671D01*
X0236213Y0140870D02*
X0186381Y0140870D01*
X0186672Y0140990D02*
X0187452Y0141771D01*
X0187875Y0142791D01*
X0187875Y0143894D01*
X0187452Y0144914D01*
X0186672Y0145695D01*
X0185652Y0146117D01*
X0184548Y0146117D01*
X0183528Y0145695D01*
X0182748Y0144914D01*
X0182325Y0143894D01*
X0182325Y0142791D01*
X0182748Y0141771D01*
X0183528Y0140990D01*
X0184548Y0140568D01*
X0185652Y0140568D01*
X0186672Y0140990D01*
X0187576Y0142068D02*
X0236213Y0142068D01*
X0236213Y0143267D02*
X0187875Y0143267D01*
X0187638Y0144465D02*
X0236213Y0144465D01*
X0236213Y0145664D02*
X0186703Y0145664D01*
X0183497Y0145664D02*
X0099572Y0145664D01*
X0099572Y0145934D02*
X0099572Y0144751D01*
X0099119Y0143659D01*
X0098283Y0142823D01*
X0097191Y0142371D01*
X0096009Y0142371D01*
X0094917Y0142823D01*
X0094100Y0143640D01*
X0093283Y0142823D01*
X0092191Y0142371D01*
X0091009Y0142371D01*
X0089917Y0142823D01*
X0089081Y0143659D01*
X0088628Y0144751D01*
X0088628Y0145934D01*
X0089081Y0147026D01*
X0089917Y0147862D01*
X0091009Y0148314D01*
X0092191Y0148314D01*
X0093283Y0147862D01*
X0094100Y0147045D01*
X0094917Y0147862D01*
X0096009Y0148314D01*
X0097191Y0148314D01*
X0098283Y0147862D01*
X0099119Y0147026D01*
X0099572Y0145934D01*
X0099187Y0146862D02*
X0236213Y0146862D01*
X0235420Y0148061D02*
X0097803Y0148061D01*
X0095397Y0148061D02*
X0092803Y0148061D01*
X0090397Y0148061D02*
X0052019Y0148061D01*
X0052072Y0146862D02*
X0089013Y0146862D01*
X0088628Y0145664D02*
X0051621Y0145664D01*
X0050533Y0144465D02*
X0088747Y0144465D01*
X0089473Y0143267D02*
X0051727Y0143267D01*
X0052072Y0142068D02*
X0182624Y0142068D01*
X0182325Y0143267D02*
X0098727Y0143267D01*
X0099453Y0144465D02*
X0182562Y0144465D01*
X0183819Y0140870D02*
X0051914Y0140870D01*
X0042167Y0144465D02*
X0011685Y0144465D01*
X0010486Y0143267D02*
X0040973Y0143267D01*
X0040628Y0142068D02*
X0009288Y0142068D01*
X0008089Y0140870D02*
X0040786Y0140870D01*
X0041569Y0139671D02*
X0006891Y0139671D01*
X0005692Y0138473D02*
X0041528Y0138473D01*
X0040769Y0137274D02*
X0004494Y0137274D01*
X0004487Y0136076D02*
X0040628Y0136076D01*
X0040990Y0134877D02*
X0004487Y0134877D01*
X0004487Y0133679D02*
X0042266Y0133679D01*
X0044934Y0133679D02*
X0047766Y0133679D01*
X0046490Y0134877D02*
X0046210Y0134877D01*
X0050434Y0133679D02*
X0111825Y0133679D01*
X0111954Y0132480D02*
X0004487Y0132480D01*
X0004487Y0131282D02*
X0112737Y0131282D01*
X0112232Y0134877D02*
X0051710Y0134877D01*
X0041079Y0145664D02*
X0012883Y0145664D01*
X0014082Y0146862D02*
X0040628Y0146862D01*
X0040681Y0148061D02*
X0015280Y0148061D01*
X0004487Y0125289D02*
X0103123Y0125289D01*
X0102406Y0124091D02*
X0004487Y0124091D01*
X0004487Y0118098D02*
X0040904Y0118098D01*
X0040628Y0116900D02*
X0004487Y0116900D01*
X0004487Y0115701D02*
X0040856Y0115701D01*
X0041737Y0114503D02*
X0004487Y0114503D01*
X0004487Y0113304D02*
X0041359Y0113304D01*
X0040700Y0112106D02*
X0004487Y0112106D01*
X0004487Y0110907D02*
X0040628Y0110907D01*
X0041060Y0109709D02*
X0004487Y0109709D01*
X0004487Y0108510D02*
X0016843Y0108510D01*
X0016748Y0108414D02*
X0016325Y0107394D01*
X0016325Y0106291D01*
X0016748Y0105271D01*
X0017528Y0104490D01*
X0018548Y0104068D01*
X0019652Y0104068D01*
X0020672Y0104490D01*
X0021452Y0105271D01*
X0021875Y0106291D01*
X0021875Y0107394D01*
X0021452Y0108414D01*
X0020672Y0109195D01*
X0019652Y0109617D01*
X0018548Y0109617D01*
X0017528Y0109195D01*
X0016748Y0108414D01*
X0016325Y0107311D02*
X0004487Y0107311D01*
X0004487Y0106113D02*
X0016399Y0106113D01*
X0017104Y0104914D02*
X0004487Y0104914D01*
X0021096Y0104914D02*
X0023104Y0104914D01*
X0022748Y0105271D02*
X0023528Y0104490D01*
X0024548Y0104068D01*
X0025652Y0104068D01*
X0026672Y0104490D01*
X0027452Y0105271D01*
X0027875Y0106291D01*
X0027875Y0107394D01*
X0027452Y0108414D01*
X0026672Y0109195D01*
X0025652Y0109617D01*
X0024548Y0109617D01*
X0023528Y0109195D01*
X0022748Y0108414D01*
X0022325Y0107394D01*
X0022325Y0106291D01*
X0022748Y0105271D01*
X0022399Y0106113D02*
X0021801Y0106113D01*
X0021875Y0107311D02*
X0022325Y0107311D01*
X0022843Y0108510D02*
X0021357Y0108510D01*
X0027357Y0108510D02*
X0042673Y0108510D01*
X0044527Y0108510D02*
X0048173Y0108510D01*
X0050027Y0108510D02*
X0053673Y0108510D01*
X0055527Y0108510D02*
X0076730Y0108510D01*
X0081470Y0108510D02*
X0138343Y0108510D01*
X0137825Y0107311D02*
X0027875Y0107311D01*
X0027801Y0106113D02*
X0137899Y0106113D01*
X0138604Y0104914D02*
X0027096Y0104914D01*
X0046140Y0109709D02*
X0046560Y0109709D01*
X0051640Y0109709D02*
X0052060Y0109709D01*
X0044061Y0090532D02*
X0208932Y0090532D01*
X0209685Y0089334D02*
X0089836Y0089334D01*
X0091068Y0088135D02*
X0159969Y0088135D01*
X0160028Y0088195D02*
X0159248Y0087414D01*
X0158825Y0086394D01*
X0158825Y0085291D01*
X0159248Y0084271D01*
X0160028Y0083490D01*
X0161048Y0083068D01*
X0162152Y0083068D01*
X0163172Y0083490D01*
X0163952Y0084271D01*
X0164375Y0085291D01*
X0164375Y0086394D01*
X0163952Y0087414D01*
X0163172Y0088195D01*
X0162152Y0088617D01*
X0161048Y0088617D01*
X0160028Y0088195D01*
X0159050Y0086937D02*
X0091375Y0086937D01*
X0091146Y0085738D02*
X0158825Y0085738D01*
X0159136Y0084540D02*
X0090221Y0084540D01*
X0084772Y0082143D02*
X0213389Y0082143D01*
X0213386Y0082144D02*
X0214406Y0081721D01*
X0215510Y0081721D01*
X0216530Y0082144D01*
X0217311Y0082924D01*
X0217733Y0083944D01*
X0217733Y0085048D01*
X0217311Y0086068D01*
X0216530Y0086848D01*
X0215510Y0087271D01*
X0214406Y0087271D01*
X0213386Y0086848D01*
X0212606Y0086068D01*
X0212183Y0085048D01*
X0212183Y0083944D01*
X0212606Y0082924D01*
X0213386Y0082144D01*
X0212433Y0083341D02*
X0162812Y0083341D01*
X0164064Y0084540D02*
X0212183Y0084540D01*
X0212469Y0085738D02*
X0164375Y0085738D01*
X0164150Y0086937D02*
X0213600Y0086937D01*
X0216317Y0086937D02*
X0255713Y0086937D01*
X0255713Y0088135D02*
X0163231Y0088135D01*
X0160388Y0083341D02*
X0084025Y0083341D01*
X0084875Y0080944D02*
X0164778Y0080944D01*
X0164325Y0079746D02*
X0084427Y0079746D01*
X0096285Y0074952D02*
X0037875Y0074952D01*
X0037652Y0073753D02*
X0057669Y0073753D01*
X0060531Y0073753D02*
X0095825Y0073753D01*
X0095923Y0072555D02*
X0061601Y0072555D01*
X0061875Y0071356D02*
X0096662Y0071356D01*
X0098049Y0052180D02*
X0102013Y0052180D01*
X0101068Y0050981D02*
X0098375Y0050981D01*
X0098165Y0049783D02*
X0100825Y0049783D01*
X0101118Y0048584D02*
X0097266Y0048584D01*
X0085425Y0042592D02*
X0060292Y0042592D01*
X0059575Y0041393D02*
X0084532Y0041393D01*
X0109473Y0041393D02*
X0136239Y0041393D01*
X0135825Y0040195D02*
X0110250Y0040195D01*
X0110375Y0038996D02*
X0135947Y0038996D01*
X0136720Y0037798D02*
X0112923Y0037798D01*
X0110277Y0037798D02*
X0109964Y0037798D01*
X0152465Y0049783D02*
X0167243Y0049783D01*
X0166825Y0050981D02*
X0153247Y0050981D01*
X0153375Y0052180D02*
X0166943Y0052180D01*
X0167712Y0053378D02*
X0152967Y0053378D01*
X0169030Y0077349D02*
X0222825Y0077349D01*
X0223381Y0078547D02*
X0169774Y0078547D01*
X0169875Y0079746D02*
X0255713Y0079746D01*
X0255713Y0080944D02*
X0169422Y0080944D01*
X0213515Y0089334D02*
X0255713Y0089334D01*
X0255713Y0090532D02*
X0214268Y0090532D01*
X0214375Y0091731D02*
X0255713Y0091731D01*
X0255713Y0092929D02*
X0213937Y0092929D01*
X0217447Y0085738D02*
X0255713Y0085738D01*
X0255713Y0084540D02*
X0217733Y0084540D01*
X0217483Y0083341D02*
X0255713Y0083341D01*
X0255713Y0082143D02*
X0216528Y0082143D01*
X0227819Y0078547D02*
X0255713Y0078547D01*
X0255713Y0077349D02*
X0228375Y0077349D01*
X0228317Y0076150D02*
X0255713Y0076150D01*
X0255713Y0074952D02*
X0227633Y0074952D01*
X0226113Y0073753D02*
X0255713Y0073753D01*
X0255713Y0072555D02*
X0226808Y0072555D01*
X0226875Y0071356D02*
X0255713Y0071356D01*
X0255713Y0070158D02*
X0226339Y0070158D01*
X0217496Y0059371D02*
X0255713Y0059371D01*
X0255713Y0058173D02*
X0218260Y0058173D01*
X0218375Y0056974D02*
X0255713Y0056974D01*
X0255713Y0055775D02*
X0217954Y0055775D01*
X0218092Y0054577D02*
X0255713Y0054577D01*
X0255713Y0053378D02*
X0218375Y0053378D01*
X0218122Y0052180D02*
X0255713Y0052180D01*
X0248676Y0113304D02*
X0133986Y0113304D01*
X0134755Y0114503D02*
X0247478Y0114503D01*
X0246279Y0115701D02*
X0134875Y0115701D01*
X0134458Y0116900D02*
X0245081Y0116900D01*
X0159420Y0118098D02*
X0132698Y0118098D01*
X0131502Y0118098D02*
X0131413Y0118098D01*
X0132304Y0119297D02*
X0158825Y0119297D01*
X0158867Y0120495D02*
X0132508Y0120495D01*
X0132177Y0121694D02*
X0159527Y0121694D01*
X0129742Y0116900D02*
X0095467Y0116900D01*
X0096248Y0115701D02*
X0129325Y0115701D01*
X0129444Y0114503D02*
X0096375Y0114503D01*
X0095966Y0113304D02*
X0130214Y0113304D01*
X0128054Y0118098D02*
X0100780Y0118098D01*
X0101670Y0119297D02*
X0127163Y0119297D01*
X0094473Y0143267D02*
X0093727Y0143267D01*
X0087364Y0089334D02*
X0042794Y0089334D01*
X0040807Y0028210D02*
X0036393Y0028210D01*
X0037416Y0027011D02*
X0039784Y0027011D01*
X0039287Y0025813D02*
X0037913Y0025813D01*
X0037956Y0024614D02*
X0039244Y0024614D01*
X0039476Y0023416D02*
X0037724Y0023416D01*
X0037135Y0022217D02*
X0040065Y0022217D01*
X0041449Y0021019D02*
X0035751Y0021019D01*
X0035859Y0018622D02*
X0041341Y0018622D01*
X0040020Y0017423D02*
X0037180Y0017423D01*
X0037742Y0016225D02*
X0039458Y0016225D01*
X0039244Y0015026D02*
X0037956Y0015026D01*
X0037894Y0013828D02*
X0039306Y0013828D01*
X0039802Y0012629D02*
X0037398Y0012629D01*
X0036348Y0011431D02*
X0040852Y0011431D01*
X0029287Y0025813D02*
X0028072Y0025813D01*
X0027622Y0027011D02*
X0029784Y0027011D01*
X0030807Y0028210D02*
X0026694Y0028210D01*
X0019578Y0027011D02*
X0004487Y0027011D01*
X0004487Y0025813D02*
X0019128Y0025813D01*
D17*
X0124100Y0074342D03*
M02*
