G75*
%MOIN*%
%OFA0B0*%
%FSLAX25Y25*%
%IPPOS*%
%LPD*%
%AMOC8*
5,1,8,0,0,1.08239X$1,22.5*
%
%ADD10C,0.00000*%
%ADD11C,0.00800*%
%ADD12R,0.10400X0.05400*%
%ADD13R,0.05518X0.06306*%
%ADD14R,0.04731X0.04337*%
%ADD15R,0.06699X0.11030*%
%ADD16R,0.06699X0.07487*%
%ADD17R,0.04337X0.04731*%
%ADD18R,0.06699X0.03550*%
%ADD19R,0.05000X0.06700*%
%ADD20R,0.06700X0.05000*%
%ADD21R,0.07200X0.00600*%
%ADD22R,0.05400X0.10400*%
%ADD23R,0.03937X0.02362*%
%ADD24R,0.26778X0.26778*%
%ADD25R,0.04429X0.02756*%
%ADD26R,0.04429X0.01575*%
%ADD27R,0.02756X0.04429*%
%ADD28R,0.04337X0.02762*%
%ADD29R,0.04337X0.01581*%
%ADD30R,0.02762X0.04337*%
%ADD31R,0.01581X0.04337*%
%ADD32R,0.01975X0.04534*%
%ADD33R,0.06699X0.01581*%
%ADD34R,0.05124X0.02565*%
%ADD35C,0.06337*%
%ADD36R,0.05518X0.04731*%
%ADD37C,0.22054*%
%ADD38C,0.03175*%
%ADD39C,0.03962*%
D10*
X0003100Y0006842D02*
X0008100Y0001842D01*
X0226100Y0001842D01*
X0230100Y0005842D01*
X0234100Y0005842D01*
X0238100Y0001842D01*
X0239600Y0001842D01*
X0243600Y0005842D01*
X0247100Y0005842D01*
X0251100Y0001842D01*
X0252100Y0001842D01*
X0257100Y0006842D01*
X0257100Y0106842D01*
X0237600Y0126342D01*
X0237600Y0147842D01*
X0235100Y0150342D01*
X0015600Y0150342D01*
X0003100Y0137842D01*
X0003100Y0006842D01*
D11*
X0189900Y0006634D02*
X0211200Y0006634D01*
X0211200Y0007432D02*
X0189900Y0007432D01*
X0189900Y0008231D02*
X0211200Y0008231D01*
X0211200Y0009029D02*
X0189900Y0009029D01*
X0189900Y0009828D02*
X0211200Y0009828D01*
X0211200Y0010626D02*
X0189900Y0010626D01*
X0189900Y0011425D02*
X0211200Y0011425D01*
X0211200Y0012223D02*
X0189900Y0012223D01*
X0189900Y0012542D02*
X0189900Y0005142D01*
X0211200Y0005142D01*
X0211200Y0012542D01*
X0189900Y0012542D01*
X0189900Y0005835D02*
X0211200Y0005835D01*
D12*
X0251100Y0039342D03*
X0251100Y0049342D03*
X0251100Y0076842D03*
X0251100Y0084342D03*
X0251100Y0091842D03*
X0251100Y0101842D03*
X0231100Y0129342D03*
X0231100Y0136842D03*
X0231100Y0144342D03*
X0009100Y0131842D03*
X0009100Y0119342D03*
X0009100Y0049342D03*
D13*
X0095360Y0129342D03*
X0102840Y0129342D03*
X0035340Y0141842D03*
X0027860Y0141842D03*
X0199860Y0128342D03*
X0207340Y0128342D03*
X0227860Y0026342D03*
X0235340Y0026342D03*
D14*
X0222600Y0084496D03*
X0222600Y0091189D03*
X0189446Y0121842D03*
X0182754Y0121842D03*
X0157100Y0120189D03*
X0157100Y0113496D03*
X0051600Y0047689D03*
X0051600Y0040996D03*
D15*
X0200588Y0116342D03*
X0211612Y0116342D03*
D16*
X0211612Y0103842D03*
X0200588Y0103842D03*
D17*
X0222754Y0103842D03*
X0229446Y0103842D03*
X0174446Y0111842D03*
X0167754Y0111842D03*
X0167754Y0121842D03*
X0174446Y0121842D03*
X0102446Y0137342D03*
X0095754Y0137342D03*
X0084100Y0138496D03*
X0084100Y0145189D03*
X0084100Y0130189D03*
X0084100Y0123496D03*
X0054100Y0123496D03*
X0054100Y0130189D03*
X0054100Y0137996D03*
X0054100Y0144689D03*
X0033946Y0131842D03*
X0027254Y0131842D03*
X0054254Y0058842D03*
X0060946Y0058842D03*
X0043600Y0047689D03*
X0043600Y0040996D03*
X0061754Y0043342D03*
X0068446Y0043342D03*
X0233254Y0039342D03*
X0239946Y0039342D03*
D18*
X0007600Y0061842D03*
X0007600Y0066842D03*
X0007600Y0071842D03*
X0007600Y0076842D03*
X0007600Y0081842D03*
X0007600Y0086842D03*
X0007600Y0091842D03*
X0007600Y0096842D03*
X0007600Y0101842D03*
D19*
X0117600Y0142342D03*
X0123600Y0142342D03*
X0129600Y0142342D03*
X0130600Y0009342D03*
X0136600Y0009342D03*
X0142600Y0009342D03*
X0117600Y0009342D03*
X0111600Y0009342D03*
X0105600Y0009342D03*
D20*
X0091600Y0008842D03*
X0091600Y0014842D03*
X0091600Y0020842D03*
X0251100Y0023842D03*
X0251100Y0029842D03*
D21*
X0251100Y0026842D03*
D22*
G36*
X0255686Y0007075D02*
X0251867Y0003256D01*
X0244514Y0010609D01*
X0248333Y0014428D01*
X0255686Y0007075D01*
G37*
G36*
X0242686Y0007075D02*
X0238867Y0003256D01*
X0231514Y0010609D01*
X0235333Y0014428D01*
X0242686Y0007075D01*
G37*
G36*
X0229686Y0007075D02*
X0225867Y0003256D01*
X0218514Y0010609D01*
X0222333Y0014428D01*
X0229686Y0007075D01*
G37*
G36*
X0246686Y0111075D02*
X0242867Y0107256D01*
X0235514Y0114609D01*
X0239333Y0118428D01*
X0246686Y0111075D01*
G37*
G36*
X0249186Y0113575D02*
X0245367Y0109756D01*
X0238014Y0117109D01*
X0241833Y0120928D01*
X0249186Y0113575D01*
G37*
D23*
X0201250Y0136618D03*
X0201250Y0139768D03*
X0201250Y0142917D03*
X0201250Y0146067D03*
X0194950Y0146067D03*
X0194950Y0142917D03*
X0194950Y0139768D03*
X0194950Y0136618D03*
X0233450Y0066067D03*
X0233450Y0062917D03*
X0233450Y0059768D03*
X0233450Y0056618D03*
X0239750Y0056618D03*
X0239750Y0059768D03*
X0239750Y0062917D03*
X0239750Y0066067D03*
X0037250Y0065268D03*
X0037250Y0068417D03*
X0037250Y0071567D03*
X0030950Y0071567D03*
X0030950Y0068417D03*
X0030950Y0065268D03*
X0030950Y0062118D03*
X0037250Y0062118D03*
X0037250Y0079618D03*
X0037250Y0082768D03*
X0037250Y0085917D03*
X0037250Y0089067D03*
X0030950Y0089067D03*
X0030950Y0085917D03*
X0030950Y0082768D03*
X0030950Y0079618D03*
X0030950Y0097118D03*
X0030950Y0100268D03*
X0030950Y0103417D03*
X0030950Y0106567D03*
X0037250Y0106567D03*
X0037250Y0103417D03*
X0037250Y0100268D03*
X0037250Y0097118D03*
D24*
G36*
X0143034Y0074342D02*
X0124100Y0055408D01*
X0105166Y0074342D01*
X0124100Y0093276D01*
X0143034Y0074342D01*
G37*
D25*
G36*
X0181377Y0080118D02*
X0178247Y0076988D01*
X0176299Y0078936D01*
X0179429Y0082066D01*
X0181377Y0080118D01*
G37*
G36*
X0131824Y0129672D02*
X0128694Y0126542D01*
X0126746Y0128490D01*
X0129876Y0131620D01*
X0131824Y0129672D01*
G37*
G36*
X0071901Y0069748D02*
X0068771Y0066618D01*
X0066823Y0068566D01*
X0069953Y0071696D01*
X0071901Y0069748D01*
G37*
G36*
X0121454Y0020195D02*
X0118324Y0017065D01*
X0116376Y0019013D01*
X0119506Y0022143D01*
X0121454Y0020195D01*
G37*
D26*
G36*
X0119227Y0022423D02*
X0116096Y0019292D01*
X0114983Y0020405D01*
X0118114Y0023536D01*
X0119227Y0022423D01*
G37*
G36*
X0117836Y0023815D02*
X0114705Y0020684D01*
X0113592Y0021797D01*
X0116723Y0024928D01*
X0117836Y0023815D01*
G37*
G36*
X0116444Y0025207D02*
X0113313Y0022076D01*
X0112200Y0023189D01*
X0115331Y0026320D01*
X0116444Y0025207D01*
G37*
G36*
X0115052Y0026599D02*
X0111921Y0023468D01*
X0110808Y0024581D01*
X0113939Y0027712D01*
X0115052Y0026599D01*
G37*
G36*
X0113660Y0027991D02*
X0110529Y0024860D01*
X0109416Y0025973D01*
X0112547Y0029104D01*
X0113660Y0027991D01*
G37*
G36*
X0112268Y0029383D02*
X0109137Y0026252D01*
X0108024Y0027365D01*
X0111155Y0030496D01*
X0112268Y0029383D01*
G37*
G36*
X0110876Y0030775D02*
X0107745Y0027644D01*
X0106632Y0028757D01*
X0109763Y0031888D01*
X0110876Y0030775D01*
G37*
G36*
X0109484Y0032166D02*
X0106353Y0029035D01*
X0105240Y0030148D01*
X0108371Y0033279D01*
X0109484Y0032166D01*
G37*
G36*
X0108092Y0033558D02*
X0104961Y0030427D01*
X0103848Y0031540D01*
X0106979Y0034671D01*
X0108092Y0033558D01*
G37*
G36*
X0106700Y0034950D02*
X0103569Y0031819D01*
X0102456Y0032932D01*
X0105587Y0036063D01*
X0106700Y0034950D01*
G37*
G36*
X0105308Y0036342D02*
X0102177Y0033211D01*
X0101064Y0034324D01*
X0104195Y0037455D01*
X0105308Y0036342D01*
G37*
G36*
X0103916Y0037734D02*
X0100785Y0034603D01*
X0099672Y0035716D01*
X0102803Y0038847D01*
X0103916Y0037734D01*
G37*
G36*
X0102524Y0039126D02*
X0099393Y0035995D01*
X0098280Y0037108D01*
X0101411Y0040239D01*
X0102524Y0039126D01*
G37*
G36*
X0101132Y0040518D02*
X0098001Y0037387D01*
X0096888Y0038500D01*
X0100019Y0041631D01*
X0101132Y0040518D01*
G37*
G36*
X0099740Y0041910D02*
X0096609Y0038779D01*
X0095496Y0039892D01*
X0098627Y0043023D01*
X0099740Y0041910D01*
G37*
G36*
X0098348Y0043302D02*
X0095217Y0040171D01*
X0094104Y0041284D01*
X0097235Y0044415D01*
X0098348Y0043302D01*
G37*
G36*
X0096956Y0044694D02*
X0093825Y0041563D01*
X0092712Y0042676D01*
X0095843Y0045807D01*
X0096956Y0044694D01*
G37*
G36*
X0095564Y0046086D02*
X0092433Y0042955D01*
X0091320Y0044068D01*
X0094451Y0047199D01*
X0095564Y0046086D01*
G37*
G36*
X0094173Y0047478D02*
X0091042Y0044347D01*
X0089929Y0045460D01*
X0093060Y0048591D01*
X0094173Y0047478D01*
G37*
G36*
X0092781Y0048870D02*
X0089650Y0045739D01*
X0088537Y0046852D01*
X0091668Y0049983D01*
X0092781Y0048870D01*
G37*
G36*
X0091389Y0050262D02*
X0088258Y0047131D01*
X0087145Y0048244D01*
X0090276Y0051375D01*
X0091389Y0050262D01*
G37*
G36*
X0089997Y0051654D02*
X0086866Y0048523D01*
X0085753Y0049636D01*
X0088884Y0052767D01*
X0089997Y0051654D01*
G37*
G36*
X0088605Y0053046D02*
X0085474Y0049915D01*
X0084361Y0051028D01*
X0087492Y0054159D01*
X0088605Y0053046D01*
G37*
G36*
X0087213Y0054438D02*
X0084082Y0051307D01*
X0082969Y0052420D01*
X0086100Y0055551D01*
X0087213Y0054438D01*
G37*
G36*
X0085821Y0055829D02*
X0082690Y0052698D01*
X0081577Y0053811D01*
X0084708Y0056942D01*
X0085821Y0055829D01*
G37*
G36*
X0084429Y0057221D02*
X0081298Y0054090D01*
X0080185Y0055203D01*
X0083316Y0058334D01*
X0084429Y0057221D01*
G37*
G36*
X0083037Y0058613D02*
X0079906Y0055482D01*
X0078793Y0056595D01*
X0081924Y0059726D01*
X0083037Y0058613D01*
G37*
G36*
X0081645Y0060005D02*
X0078514Y0056874D01*
X0077401Y0057987D01*
X0080532Y0061118D01*
X0081645Y0060005D01*
G37*
G36*
X0080253Y0061397D02*
X0077122Y0058266D01*
X0076009Y0059379D01*
X0079140Y0062510D01*
X0080253Y0061397D01*
G37*
G36*
X0078861Y0062789D02*
X0075730Y0059658D01*
X0074617Y0060771D01*
X0077748Y0063902D01*
X0078861Y0062789D01*
G37*
G36*
X0077469Y0064181D02*
X0074338Y0061050D01*
X0073225Y0062163D01*
X0076356Y0065294D01*
X0077469Y0064181D01*
G37*
G36*
X0076077Y0065573D02*
X0072946Y0062442D01*
X0071833Y0063555D01*
X0074964Y0066686D01*
X0076077Y0065573D01*
G37*
G36*
X0074685Y0066965D02*
X0071554Y0063834D01*
X0070441Y0064947D01*
X0073572Y0068078D01*
X0074685Y0066965D01*
G37*
G36*
X0073293Y0068357D02*
X0070162Y0065226D01*
X0069049Y0066339D01*
X0072180Y0069470D01*
X0073293Y0068357D01*
G37*
G36*
X0072180Y0079215D02*
X0069049Y0082346D01*
X0070162Y0083459D01*
X0073293Y0080328D01*
X0072180Y0079215D01*
G37*
G36*
X0073572Y0080607D02*
X0070441Y0083738D01*
X0071554Y0084851D01*
X0074685Y0081720D01*
X0073572Y0080607D01*
G37*
G36*
X0074964Y0081999D02*
X0071833Y0085130D01*
X0072946Y0086243D01*
X0076077Y0083112D01*
X0074964Y0081999D01*
G37*
G36*
X0076356Y0083391D02*
X0073225Y0086522D01*
X0074338Y0087635D01*
X0077469Y0084504D01*
X0076356Y0083391D01*
G37*
G36*
X0077748Y0084783D02*
X0074617Y0087914D01*
X0075730Y0089027D01*
X0078861Y0085896D01*
X0077748Y0084783D01*
G37*
G36*
X0079140Y0086175D02*
X0076009Y0089306D01*
X0077122Y0090419D01*
X0080253Y0087288D01*
X0079140Y0086175D01*
G37*
G36*
X0080532Y0087567D02*
X0077401Y0090698D01*
X0078514Y0091811D01*
X0081645Y0088680D01*
X0080532Y0087567D01*
G37*
G36*
X0081924Y0088959D02*
X0078793Y0092090D01*
X0079906Y0093203D01*
X0083037Y0090072D01*
X0081924Y0088959D01*
G37*
G36*
X0083316Y0090351D02*
X0080185Y0093482D01*
X0081298Y0094595D01*
X0084429Y0091464D01*
X0083316Y0090351D01*
G37*
G36*
X0084708Y0091742D02*
X0081577Y0094873D01*
X0082690Y0095986D01*
X0085821Y0092855D01*
X0084708Y0091742D01*
G37*
G36*
X0086100Y0093134D02*
X0082969Y0096265D01*
X0084082Y0097378D01*
X0087213Y0094247D01*
X0086100Y0093134D01*
G37*
G36*
X0087492Y0094526D02*
X0084361Y0097657D01*
X0085474Y0098770D01*
X0088605Y0095639D01*
X0087492Y0094526D01*
G37*
G36*
X0088884Y0095918D02*
X0085753Y0099049D01*
X0086866Y0100162D01*
X0089997Y0097031D01*
X0088884Y0095918D01*
G37*
G36*
X0090276Y0097310D02*
X0087145Y0100441D01*
X0088258Y0101554D01*
X0091389Y0098423D01*
X0090276Y0097310D01*
G37*
G36*
X0091668Y0098702D02*
X0088537Y0101833D01*
X0089650Y0102946D01*
X0092781Y0099815D01*
X0091668Y0098702D01*
G37*
G36*
X0093060Y0100094D02*
X0089929Y0103225D01*
X0091042Y0104338D01*
X0094173Y0101207D01*
X0093060Y0100094D01*
G37*
G36*
X0094451Y0101486D02*
X0091320Y0104617D01*
X0092433Y0105730D01*
X0095564Y0102599D01*
X0094451Y0101486D01*
G37*
G36*
X0095843Y0102878D02*
X0092712Y0106009D01*
X0093825Y0107122D01*
X0096956Y0103991D01*
X0095843Y0102878D01*
G37*
G36*
X0097235Y0104270D02*
X0094104Y0107401D01*
X0095217Y0108514D01*
X0098348Y0105383D01*
X0097235Y0104270D01*
G37*
G36*
X0098627Y0105662D02*
X0095496Y0108793D01*
X0096609Y0109906D01*
X0099740Y0106775D01*
X0098627Y0105662D01*
G37*
G36*
X0100019Y0107054D02*
X0096888Y0110185D01*
X0098001Y0111298D01*
X0101132Y0108167D01*
X0100019Y0107054D01*
G37*
G36*
X0101411Y0108446D02*
X0098280Y0111577D01*
X0099393Y0112690D01*
X0102524Y0109559D01*
X0101411Y0108446D01*
G37*
G36*
X0102803Y0109838D02*
X0099672Y0112969D01*
X0100785Y0114082D01*
X0103916Y0110951D01*
X0102803Y0109838D01*
G37*
G36*
X0104195Y0111230D02*
X0101064Y0114361D01*
X0102177Y0115474D01*
X0105308Y0112343D01*
X0104195Y0111230D01*
G37*
G36*
X0105587Y0112622D02*
X0102456Y0115753D01*
X0103569Y0116866D01*
X0106700Y0113735D01*
X0105587Y0112622D01*
G37*
G36*
X0106979Y0114014D02*
X0103848Y0117145D01*
X0104961Y0118258D01*
X0108092Y0115127D01*
X0106979Y0114014D01*
G37*
G36*
X0108371Y0115405D02*
X0105240Y0118536D01*
X0106353Y0119649D01*
X0109484Y0116518D01*
X0108371Y0115405D01*
G37*
G36*
X0109763Y0116797D02*
X0106632Y0119928D01*
X0107745Y0121041D01*
X0110876Y0117910D01*
X0109763Y0116797D01*
G37*
G36*
X0111155Y0118189D02*
X0108024Y0121320D01*
X0109137Y0122433D01*
X0112268Y0119302D01*
X0111155Y0118189D01*
G37*
G36*
X0112547Y0119581D02*
X0109416Y0122712D01*
X0110529Y0123825D01*
X0113660Y0120694D01*
X0112547Y0119581D01*
G37*
G36*
X0113939Y0120973D02*
X0110808Y0124104D01*
X0111921Y0125217D01*
X0115052Y0122086D01*
X0113939Y0120973D01*
G37*
G36*
X0115331Y0122365D02*
X0112200Y0125496D01*
X0113313Y0126609D01*
X0116444Y0123478D01*
X0115331Y0122365D01*
G37*
G36*
X0116723Y0123757D02*
X0113592Y0126888D01*
X0114705Y0128001D01*
X0117836Y0124870D01*
X0116723Y0123757D01*
G37*
G36*
X0118114Y0125149D02*
X0114983Y0128280D01*
X0116096Y0129393D01*
X0119227Y0126262D01*
X0118114Y0125149D01*
G37*
G36*
X0128973Y0126262D02*
X0132104Y0129393D01*
X0133217Y0128280D01*
X0130086Y0125149D01*
X0128973Y0126262D01*
G37*
G36*
X0130364Y0124870D02*
X0133495Y0128001D01*
X0134608Y0126888D01*
X0131477Y0123757D01*
X0130364Y0124870D01*
G37*
G36*
X0131756Y0123478D02*
X0134887Y0126609D01*
X0136000Y0125496D01*
X0132869Y0122365D01*
X0131756Y0123478D01*
G37*
G36*
X0133148Y0122086D02*
X0136279Y0125217D01*
X0137392Y0124104D01*
X0134261Y0120973D01*
X0133148Y0122086D01*
G37*
G36*
X0134540Y0120694D02*
X0137671Y0123825D01*
X0138784Y0122712D01*
X0135653Y0119581D01*
X0134540Y0120694D01*
G37*
G36*
X0135932Y0119302D02*
X0139063Y0122433D01*
X0140176Y0121320D01*
X0137045Y0118189D01*
X0135932Y0119302D01*
G37*
G36*
X0137324Y0117910D02*
X0140455Y0121041D01*
X0141568Y0119928D01*
X0138437Y0116797D01*
X0137324Y0117910D01*
G37*
G36*
X0138716Y0116518D02*
X0141847Y0119649D01*
X0142960Y0118536D01*
X0139829Y0115405D01*
X0138716Y0116518D01*
G37*
G36*
X0140108Y0115127D02*
X0143239Y0118258D01*
X0144352Y0117145D01*
X0141221Y0114014D01*
X0140108Y0115127D01*
G37*
G36*
X0141500Y0113735D02*
X0144631Y0116866D01*
X0145744Y0115753D01*
X0142613Y0112622D01*
X0141500Y0113735D01*
G37*
G36*
X0142892Y0112343D02*
X0146023Y0115474D01*
X0147136Y0114361D01*
X0144005Y0111230D01*
X0142892Y0112343D01*
G37*
G36*
X0144284Y0110951D02*
X0147415Y0114082D01*
X0148528Y0112969D01*
X0145397Y0109838D01*
X0144284Y0110951D01*
G37*
G36*
X0145676Y0109559D02*
X0148807Y0112690D01*
X0149920Y0111577D01*
X0146789Y0108446D01*
X0145676Y0109559D01*
G37*
G36*
X0147068Y0108167D02*
X0150199Y0111298D01*
X0151312Y0110185D01*
X0148181Y0107054D01*
X0147068Y0108167D01*
G37*
G36*
X0148460Y0106775D02*
X0151591Y0109906D01*
X0152704Y0108793D01*
X0149573Y0105662D01*
X0148460Y0106775D01*
G37*
G36*
X0149852Y0105383D02*
X0152983Y0108514D01*
X0154096Y0107401D01*
X0150965Y0104270D01*
X0149852Y0105383D01*
G37*
G36*
X0151244Y0103991D02*
X0154375Y0107122D01*
X0155488Y0106009D01*
X0152357Y0102878D01*
X0151244Y0103991D01*
G37*
G36*
X0152636Y0102599D02*
X0155767Y0105730D01*
X0156880Y0104617D01*
X0153749Y0101486D01*
X0152636Y0102599D01*
G37*
G36*
X0154027Y0101207D02*
X0157158Y0104338D01*
X0158271Y0103225D01*
X0155140Y0100094D01*
X0154027Y0101207D01*
G37*
G36*
X0155419Y0099815D02*
X0158550Y0102946D01*
X0159663Y0101833D01*
X0156532Y0098702D01*
X0155419Y0099815D01*
G37*
G36*
X0156811Y0098423D02*
X0159942Y0101554D01*
X0161055Y0100441D01*
X0157924Y0097310D01*
X0156811Y0098423D01*
G37*
G36*
X0158203Y0097031D02*
X0161334Y0100162D01*
X0162447Y0099049D01*
X0159316Y0095918D01*
X0158203Y0097031D01*
G37*
G36*
X0159595Y0095639D02*
X0162726Y0098770D01*
X0163839Y0097657D01*
X0160708Y0094526D01*
X0159595Y0095639D01*
G37*
G36*
X0160987Y0094247D02*
X0164118Y0097378D01*
X0165231Y0096265D01*
X0162100Y0093134D01*
X0160987Y0094247D01*
G37*
G36*
X0162379Y0092855D02*
X0165510Y0095986D01*
X0166623Y0094873D01*
X0163492Y0091742D01*
X0162379Y0092855D01*
G37*
G36*
X0163771Y0091464D02*
X0166902Y0094595D01*
X0168015Y0093482D01*
X0164884Y0090351D01*
X0163771Y0091464D01*
G37*
G36*
X0165163Y0090072D02*
X0168294Y0093203D01*
X0169407Y0092090D01*
X0166276Y0088959D01*
X0165163Y0090072D01*
G37*
G36*
X0166555Y0088680D02*
X0169686Y0091811D01*
X0170799Y0090698D01*
X0167668Y0087567D01*
X0166555Y0088680D01*
G37*
G36*
X0167947Y0087288D02*
X0171078Y0090419D01*
X0172191Y0089306D01*
X0169060Y0086175D01*
X0167947Y0087288D01*
G37*
G36*
X0169339Y0085896D02*
X0172470Y0089027D01*
X0173583Y0087914D01*
X0170452Y0084783D01*
X0169339Y0085896D01*
G37*
G36*
X0170731Y0084504D02*
X0173862Y0087635D01*
X0174975Y0086522D01*
X0171844Y0083391D01*
X0170731Y0084504D01*
G37*
G36*
X0172123Y0083112D02*
X0175254Y0086243D01*
X0176367Y0085130D01*
X0173236Y0081999D01*
X0172123Y0083112D01*
G37*
G36*
X0173515Y0081720D02*
X0176646Y0084851D01*
X0177759Y0083738D01*
X0174628Y0080607D01*
X0173515Y0081720D01*
G37*
G36*
X0174907Y0080328D02*
X0178038Y0083459D01*
X0179151Y0082346D01*
X0176020Y0079215D01*
X0174907Y0080328D01*
G37*
G36*
X0176020Y0069470D02*
X0179151Y0066339D01*
X0178038Y0065226D01*
X0174907Y0068357D01*
X0176020Y0069470D01*
G37*
G36*
X0174628Y0068078D02*
X0177759Y0064947D01*
X0176646Y0063834D01*
X0173515Y0066965D01*
X0174628Y0068078D01*
G37*
G36*
X0173236Y0066686D02*
X0176367Y0063555D01*
X0175254Y0062442D01*
X0172123Y0065573D01*
X0173236Y0066686D01*
G37*
G36*
X0171844Y0065294D02*
X0174975Y0062163D01*
X0173862Y0061050D01*
X0170731Y0064181D01*
X0171844Y0065294D01*
G37*
G36*
X0170452Y0063902D02*
X0173583Y0060771D01*
X0172470Y0059658D01*
X0169339Y0062789D01*
X0170452Y0063902D01*
G37*
G36*
X0169060Y0062510D02*
X0172191Y0059379D01*
X0171078Y0058266D01*
X0167947Y0061397D01*
X0169060Y0062510D01*
G37*
G36*
X0167668Y0061118D02*
X0170799Y0057987D01*
X0169686Y0056874D01*
X0166555Y0060005D01*
X0167668Y0061118D01*
G37*
G36*
X0166276Y0059726D02*
X0169407Y0056595D01*
X0168294Y0055482D01*
X0165163Y0058613D01*
X0166276Y0059726D01*
G37*
G36*
X0164884Y0058334D02*
X0168015Y0055203D01*
X0166902Y0054090D01*
X0163771Y0057221D01*
X0164884Y0058334D01*
G37*
G36*
X0163492Y0056942D02*
X0166623Y0053811D01*
X0165510Y0052698D01*
X0162379Y0055829D01*
X0163492Y0056942D01*
G37*
G36*
X0162100Y0055551D02*
X0165231Y0052420D01*
X0164118Y0051307D01*
X0160987Y0054438D01*
X0162100Y0055551D01*
G37*
G36*
X0160708Y0054159D02*
X0163839Y0051028D01*
X0162726Y0049915D01*
X0159595Y0053046D01*
X0160708Y0054159D01*
G37*
G36*
X0159316Y0052767D02*
X0162447Y0049636D01*
X0161334Y0048523D01*
X0158203Y0051654D01*
X0159316Y0052767D01*
G37*
G36*
X0157924Y0051375D02*
X0161055Y0048244D01*
X0159942Y0047131D01*
X0156811Y0050262D01*
X0157924Y0051375D01*
G37*
G36*
X0156532Y0049983D02*
X0159663Y0046852D01*
X0158550Y0045739D01*
X0155419Y0048870D01*
X0156532Y0049983D01*
G37*
G36*
X0155140Y0048591D02*
X0158271Y0045460D01*
X0157158Y0044347D01*
X0154027Y0047478D01*
X0155140Y0048591D01*
G37*
G36*
X0153749Y0047199D02*
X0156880Y0044068D01*
X0155767Y0042955D01*
X0152636Y0046086D01*
X0153749Y0047199D01*
G37*
G36*
X0152357Y0045807D02*
X0155488Y0042676D01*
X0154375Y0041563D01*
X0151244Y0044694D01*
X0152357Y0045807D01*
G37*
G36*
X0150965Y0044415D02*
X0154096Y0041284D01*
X0152983Y0040171D01*
X0149852Y0043302D01*
X0150965Y0044415D01*
G37*
G36*
X0149573Y0043023D02*
X0152704Y0039892D01*
X0151591Y0038779D01*
X0148460Y0041910D01*
X0149573Y0043023D01*
G37*
G36*
X0148181Y0041631D02*
X0151312Y0038500D01*
X0150199Y0037387D01*
X0147068Y0040518D01*
X0148181Y0041631D01*
G37*
G36*
X0146789Y0040239D02*
X0149920Y0037108D01*
X0148807Y0035995D01*
X0145676Y0039126D01*
X0146789Y0040239D01*
G37*
G36*
X0145397Y0038847D02*
X0148528Y0035716D01*
X0147415Y0034603D01*
X0144284Y0037734D01*
X0145397Y0038847D01*
G37*
G36*
X0144005Y0037455D02*
X0147136Y0034324D01*
X0146023Y0033211D01*
X0142892Y0036342D01*
X0144005Y0037455D01*
G37*
G36*
X0142613Y0036063D02*
X0145744Y0032932D01*
X0144631Y0031819D01*
X0141500Y0034950D01*
X0142613Y0036063D01*
G37*
G36*
X0141221Y0034671D02*
X0144352Y0031540D01*
X0143239Y0030427D01*
X0140108Y0033558D01*
X0141221Y0034671D01*
G37*
G36*
X0139829Y0033279D02*
X0142960Y0030148D01*
X0141847Y0029035D01*
X0138716Y0032166D01*
X0139829Y0033279D01*
G37*
G36*
X0138437Y0031888D02*
X0141568Y0028757D01*
X0140455Y0027644D01*
X0137324Y0030775D01*
X0138437Y0031888D01*
G37*
G36*
X0137045Y0030496D02*
X0140176Y0027365D01*
X0139063Y0026252D01*
X0135932Y0029383D01*
X0137045Y0030496D01*
G37*
G36*
X0135653Y0029104D02*
X0138784Y0025973D01*
X0137671Y0024860D01*
X0134540Y0027991D01*
X0135653Y0029104D01*
G37*
G36*
X0134261Y0027712D02*
X0137392Y0024581D01*
X0136279Y0023468D01*
X0133148Y0026599D01*
X0134261Y0027712D01*
G37*
G36*
X0132869Y0026320D02*
X0136000Y0023189D01*
X0134887Y0022076D01*
X0131756Y0025207D01*
X0132869Y0026320D01*
G37*
G36*
X0131477Y0024928D02*
X0134608Y0021797D01*
X0133495Y0020684D01*
X0130364Y0023815D01*
X0131477Y0024928D01*
G37*
G36*
X0130086Y0023536D02*
X0133217Y0020405D01*
X0132104Y0019292D01*
X0128973Y0022423D01*
X0130086Y0023536D01*
G37*
D27*
G36*
X0131824Y0019013D02*
X0129876Y0017065D01*
X0126746Y0020195D01*
X0128694Y0022143D01*
X0131824Y0019013D01*
G37*
G36*
X0181377Y0068566D02*
X0179429Y0066618D01*
X0176299Y0069748D01*
X0178247Y0071696D01*
X0181377Y0068566D01*
G37*
G36*
X0121454Y0128490D02*
X0119506Y0126542D01*
X0116376Y0129672D01*
X0118324Y0131620D01*
X0121454Y0128490D01*
G37*
G36*
X0071901Y0078936D02*
X0069953Y0076988D01*
X0066823Y0080118D01*
X0068771Y0082066D01*
X0071901Y0078936D01*
G37*
D28*
X0189368Y0068260D03*
X0222832Y0068260D03*
X0222832Y0045425D03*
X0189368Y0045425D03*
D29*
X0189368Y0047984D03*
X0189368Y0049953D03*
X0189368Y0051921D03*
X0189368Y0053890D03*
X0189368Y0055858D03*
X0189368Y0057827D03*
X0189368Y0059795D03*
X0189368Y0061764D03*
X0189368Y0063732D03*
X0189368Y0065701D03*
X0222832Y0065701D03*
X0222832Y0063732D03*
X0222832Y0061764D03*
X0222832Y0059795D03*
X0222832Y0057827D03*
X0222832Y0055858D03*
X0222832Y0053890D03*
X0222832Y0051921D03*
X0222832Y0049953D03*
X0222832Y0047984D03*
D30*
X0217517Y0040110D03*
X0194683Y0040110D03*
X0194683Y0073575D03*
X0217517Y0073575D03*
D31*
X0214958Y0073575D03*
X0212990Y0073575D03*
X0211021Y0073575D03*
X0209053Y0073575D03*
X0207084Y0073575D03*
X0205116Y0073575D03*
X0203147Y0073575D03*
X0201179Y0073575D03*
X0199210Y0073575D03*
X0197242Y0073575D03*
X0197242Y0040110D03*
X0199210Y0040110D03*
X0201179Y0040110D03*
X0203147Y0040110D03*
X0205116Y0040110D03*
X0207084Y0040110D03*
X0209053Y0040110D03*
X0211021Y0040110D03*
X0212990Y0040110D03*
X0214958Y0040110D03*
D32*
X0188659Y0108201D03*
X0186100Y0108201D03*
X0183541Y0108201D03*
X0183541Y0115484D03*
X0186100Y0115484D03*
X0188659Y0115484D03*
D33*
X0177793Y0135504D03*
X0177793Y0138063D03*
X0177793Y0140622D03*
X0177793Y0143181D03*
X0164407Y0143181D03*
X0164407Y0140622D03*
X0164407Y0138063D03*
X0164407Y0135504D03*
D34*
X0074219Y0138102D03*
X0074219Y0145583D03*
X0063981Y0145583D03*
X0063981Y0141842D03*
X0063981Y0138102D03*
X0063981Y0130583D03*
X0063981Y0126842D03*
X0063981Y0123102D03*
X0074219Y0123102D03*
X0074219Y0130583D03*
D35*
X0063600Y0024842D03*
X0053600Y0024842D03*
X0043600Y0024842D03*
X0033600Y0024842D03*
X0023600Y0024842D03*
X0023600Y0014842D03*
X0033600Y0014842D03*
X0043600Y0014842D03*
X0053600Y0014842D03*
X0063600Y0014842D03*
D36*
X0036128Y0040799D03*
X0027072Y0040799D03*
X0027072Y0047886D03*
X0036128Y0047886D03*
D37*
X0162600Y0013842D03*
D38*
X0124100Y0060342D03*
X0120600Y0063842D03*
X0117100Y0067342D03*
X0113600Y0070842D03*
X0110100Y0074342D03*
X0113600Y0077842D03*
X0117100Y0074342D03*
X0120600Y0070842D03*
X0124100Y0067342D03*
X0127600Y0063842D03*
X0131100Y0067342D03*
X0127600Y0070842D03*
X0131100Y0074342D03*
X0134600Y0070842D03*
X0138100Y0074342D03*
X0134600Y0077842D03*
X0131100Y0081342D03*
X0127600Y0084842D03*
X0124100Y0081342D03*
X0120600Y0084842D03*
X0117100Y0081342D03*
X0120600Y0077842D03*
X0127600Y0077842D03*
X0124100Y0088342D03*
D39*
X0124100Y0074342D03*
M02*
