G75*
%MOIN*%
%OFA0B0*%
%FSLAX25Y25*%
%IPPOS*%
%LPD*%
%AMOC8*
5,1,8,0,0,1.08239X$1,22.5*
%
%ADD10C,0.00000*%
%ADD11C,0.00600*%
%ADD12C,0.00500*%
%ADD13C,0.00800*%
%ADD14C,0.01200*%
%ADD15C,0.00787*%
%ADD16C,0.00400*%
D10*
X0003100Y0006842D02*
X0008100Y0001842D01*
X0226100Y0001842D01*
X0230100Y0005842D01*
X0234100Y0005842D01*
X0238100Y0001842D01*
X0239600Y0001842D01*
X0243600Y0005842D01*
X0247100Y0005842D01*
X0251100Y0001842D01*
X0252100Y0001842D01*
X0257100Y0006842D01*
X0257100Y0106842D01*
X0237600Y0126342D01*
X0237600Y0147842D01*
X0235100Y0150342D01*
X0015600Y0150342D01*
X0003100Y0137842D01*
X0003100Y0006842D01*
X0037899Y0044342D02*
X0038883Y0044342D01*
D11*
X0042038Y0043092D02*
X0042038Y0045592D01*
X0045162Y0045592D02*
X0045162Y0043092D01*
X0050037Y0043092D02*
X0050037Y0045592D01*
X0053162Y0045592D02*
X0053162Y0043092D01*
X0063850Y0041780D02*
X0066350Y0041780D01*
X0066350Y0044905D02*
X0063850Y0044905D01*
X0058850Y0057280D02*
X0056350Y0057280D01*
X0056350Y0060405D02*
X0058850Y0060405D01*
X0060467Y0072642D02*
X0061601Y0072642D01*
X0062169Y0073210D01*
X0062169Y0076045D01*
X0063583Y0074911D02*
X0064717Y0076045D01*
X0064717Y0072642D01*
X0063583Y0072642D02*
X0065852Y0072642D01*
X0060467Y0072642D02*
X0059900Y0073210D01*
X0059900Y0076045D01*
X0063558Y0097575D02*
X0065827Y0097575D01*
X0067242Y0097575D02*
X0069510Y0097575D01*
X0070925Y0098142D02*
X0073193Y0101545D01*
X0074608Y0101545D02*
X0075742Y0100411D01*
X0075742Y0099277D01*
X0074608Y0098142D01*
X0077063Y0097575D02*
X0079332Y0097575D01*
X0062237Y0099277D02*
X0061103Y0098142D01*
X0062237Y0099277D02*
X0062237Y0100411D01*
X0061103Y0101545D01*
X0059688Y0101545D02*
X0057420Y0098142D01*
X0056005Y0097575D02*
X0053737Y0097575D01*
X0052322Y0097575D02*
X0050054Y0097575D01*
X0023423Y0100642D02*
X0021722Y0101777D01*
X0023423Y0102911D01*
X0021722Y0104045D02*
X0021722Y0100642D01*
X0020401Y0100642D02*
X0019266Y0100642D01*
X0019833Y0100642D02*
X0019833Y0104045D01*
X0019266Y0104045D01*
X0017852Y0103478D02*
X0017285Y0104045D01*
X0016150Y0104045D01*
X0015583Y0103478D01*
X0015583Y0101210D01*
X0016150Y0100642D01*
X0017285Y0100642D01*
X0017852Y0101210D01*
X0017285Y0099045D02*
X0015583Y0099045D01*
X0015583Y0095642D01*
X0017285Y0095642D01*
X0017852Y0096210D01*
X0017852Y0098478D01*
X0017285Y0099045D01*
X0019266Y0098478D02*
X0019266Y0097911D01*
X0019833Y0097344D01*
X0020968Y0097344D01*
X0021535Y0096777D01*
X0021535Y0096210D01*
X0020968Y0095642D01*
X0019833Y0095642D01*
X0019266Y0096210D01*
X0019266Y0098478D02*
X0019833Y0099045D01*
X0020968Y0099045D01*
X0021535Y0098478D01*
X0014169Y0099045D02*
X0011900Y0095642D01*
X0013100Y0093342D02*
X0016600Y0093342D01*
X0014600Y0092842D02*
X0015100Y0091842D01*
X0014100Y0091842D02*
X0014600Y0092842D01*
X0014600Y0086342D01*
X0015166Y0084936D02*
X0014599Y0084369D01*
X0014599Y0082667D01*
X0015733Y0082667D01*
X0016300Y0083234D01*
X0016300Y0084369D01*
X0015733Y0084936D01*
X0015166Y0084936D01*
X0013464Y0083801D02*
X0014599Y0082667D01*
X0013464Y0083801D02*
X0012897Y0084936D01*
X0013464Y0081253D02*
X0012897Y0080685D01*
X0012897Y0078984D01*
X0016300Y0078984D01*
X0016300Y0080685D01*
X0015733Y0081253D01*
X0013464Y0081253D01*
X0014599Y0077570D02*
X0014599Y0075301D01*
X0015733Y0073886D02*
X0016300Y0073319D01*
X0016300Y0072185D01*
X0015733Y0071618D01*
X0013464Y0073886D01*
X0015733Y0073886D01*
X0013464Y0073886D02*
X0012897Y0073319D01*
X0012897Y0072185D01*
X0013464Y0071618D01*
X0015733Y0071618D01*
X0015733Y0070203D02*
X0013464Y0070203D01*
X0012897Y0069636D01*
X0012897Y0067935D01*
X0016300Y0067935D01*
X0016300Y0069636D01*
X0015733Y0070203D01*
X0014600Y0066842D02*
X0014600Y0060342D01*
X0014100Y0061342D01*
X0015100Y0061342D02*
X0014600Y0060342D01*
X0013100Y0059842D02*
X0016600Y0059842D01*
X0017400Y0054045D02*
X0017400Y0051210D01*
X0017967Y0050642D01*
X0019101Y0050642D01*
X0019669Y0051210D01*
X0019669Y0054045D01*
X0021083Y0053478D02*
X0021083Y0052911D01*
X0021650Y0052344D01*
X0022785Y0052344D01*
X0023352Y0051777D01*
X0023352Y0051210D01*
X0022785Y0050642D01*
X0021650Y0050642D01*
X0021083Y0051210D01*
X0021083Y0051777D01*
X0021650Y0052344D01*
X0022785Y0052344D02*
X0023352Y0052911D01*
X0023352Y0053478D01*
X0022785Y0054045D01*
X0021650Y0054045D01*
X0021083Y0053478D01*
X0014468Y0044045D02*
X0012766Y0044045D01*
X0012766Y0040642D01*
X0014468Y0040642D01*
X0015035Y0041210D01*
X0015035Y0043478D01*
X0014468Y0044045D01*
X0011352Y0044045D02*
X0011352Y0040642D01*
X0009083Y0044045D01*
X0009083Y0040642D01*
X0007669Y0041210D02*
X0007669Y0042344D01*
X0006534Y0042344D01*
X0005400Y0043478D02*
X0005400Y0041210D01*
X0005967Y0040642D01*
X0007101Y0040642D01*
X0007669Y0041210D01*
X0007669Y0043478D02*
X0007101Y0044045D01*
X0005967Y0044045D01*
X0005400Y0043478D01*
X0012034Y0022045D02*
X0013169Y0022045D01*
X0012601Y0022045D02*
X0012601Y0019210D01*
X0012034Y0018642D01*
X0011467Y0018642D01*
X0010900Y0019210D01*
X0014583Y0019210D02*
X0015150Y0018642D01*
X0016285Y0018642D01*
X0016852Y0019210D01*
X0016852Y0020344D01*
X0016285Y0020911D01*
X0015717Y0020911D01*
X0014583Y0020344D01*
X0014583Y0022045D01*
X0016852Y0022045D01*
X0087600Y0023342D02*
X0087600Y0006342D01*
X0087602Y0006282D01*
X0087607Y0006221D01*
X0087616Y0006162D01*
X0087629Y0006103D01*
X0087645Y0006044D01*
X0087665Y0005987D01*
X0087688Y0005932D01*
X0087715Y0005877D01*
X0087744Y0005825D01*
X0087777Y0005774D01*
X0087813Y0005725D01*
X0087851Y0005679D01*
X0087893Y0005635D01*
X0087937Y0005593D01*
X0087983Y0005555D01*
X0088032Y0005519D01*
X0088083Y0005486D01*
X0088135Y0005457D01*
X0088190Y0005430D01*
X0088245Y0005407D01*
X0088302Y0005387D01*
X0088361Y0005371D01*
X0088420Y0005358D01*
X0088479Y0005349D01*
X0088540Y0005344D01*
X0088600Y0005342D01*
X0094600Y0005342D01*
X0094660Y0005344D01*
X0094721Y0005349D01*
X0094780Y0005358D01*
X0094839Y0005371D01*
X0094898Y0005387D01*
X0094955Y0005407D01*
X0095010Y0005430D01*
X0095065Y0005457D01*
X0095117Y0005486D01*
X0095168Y0005519D01*
X0095217Y0005555D01*
X0095263Y0005593D01*
X0095307Y0005635D01*
X0095349Y0005679D01*
X0095387Y0005725D01*
X0095423Y0005774D01*
X0095456Y0005825D01*
X0095485Y0005877D01*
X0095512Y0005932D01*
X0095535Y0005987D01*
X0095555Y0006044D01*
X0095571Y0006103D01*
X0095584Y0006162D01*
X0095593Y0006221D01*
X0095598Y0006282D01*
X0095600Y0006342D01*
X0095600Y0023342D01*
X0095598Y0023402D01*
X0095593Y0023463D01*
X0095584Y0023522D01*
X0095571Y0023581D01*
X0095555Y0023640D01*
X0095535Y0023697D01*
X0095512Y0023752D01*
X0095485Y0023807D01*
X0095456Y0023859D01*
X0095423Y0023910D01*
X0095387Y0023959D01*
X0095349Y0024005D01*
X0095307Y0024049D01*
X0095263Y0024091D01*
X0095217Y0024129D01*
X0095168Y0024165D01*
X0095117Y0024198D01*
X0095065Y0024227D01*
X0095010Y0024254D01*
X0094955Y0024277D01*
X0094898Y0024297D01*
X0094839Y0024313D01*
X0094780Y0024326D01*
X0094721Y0024335D01*
X0094660Y0024340D01*
X0094600Y0024342D01*
X0088600Y0024342D01*
X0088540Y0024340D01*
X0088479Y0024335D01*
X0088420Y0024326D01*
X0088361Y0024313D01*
X0088302Y0024297D01*
X0088245Y0024277D01*
X0088190Y0024254D01*
X0088135Y0024227D01*
X0088083Y0024198D01*
X0088032Y0024165D01*
X0087983Y0024129D01*
X0087937Y0024091D01*
X0087893Y0024049D01*
X0087851Y0024005D01*
X0087813Y0023959D01*
X0087777Y0023910D01*
X0087744Y0023859D01*
X0087715Y0023807D01*
X0087688Y0023752D01*
X0087665Y0023697D01*
X0087645Y0023640D01*
X0087629Y0023581D01*
X0087616Y0023522D01*
X0087607Y0023463D01*
X0087602Y0023402D01*
X0087600Y0023342D01*
X0089467Y0026142D02*
X0090034Y0026142D01*
X0090601Y0026710D01*
X0090601Y0029545D01*
X0090034Y0029545D02*
X0091169Y0029545D01*
X0092583Y0027844D02*
X0094852Y0027844D01*
X0094285Y0026142D02*
X0094285Y0029545D01*
X0092583Y0027844D01*
X0089467Y0026142D02*
X0088900Y0026710D01*
X0105534Y0018545D02*
X0106669Y0018545D01*
X0106101Y0018545D02*
X0106101Y0015710D01*
X0105534Y0015142D01*
X0104967Y0015142D01*
X0104400Y0015710D01*
X0103100Y0013342D02*
X0120100Y0013342D01*
X0120160Y0013340D01*
X0120221Y0013335D01*
X0120280Y0013326D01*
X0120339Y0013313D01*
X0120398Y0013297D01*
X0120455Y0013277D01*
X0120510Y0013254D01*
X0120565Y0013227D01*
X0120617Y0013198D01*
X0120668Y0013165D01*
X0120717Y0013129D01*
X0120763Y0013091D01*
X0120807Y0013049D01*
X0120849Y0013005D01*
X0120887Y0012959D01*
X0120923Y0012910D01*
X0120956Y0012859D01*
X0120985Y0012807D01*
X0121012Y0012752D01*
X0121035Y0012697D01*
X0121055Y0012640D01*
X0121071Y0012581D01*
X0121084Y0012522D01*
X0121093Y0012463D01*
X0121098Y0012402D01*
X0121100Y0012342D01*
X0121100Y0006342D01*
X0121098Y0006282D01*
X0121093Y0006221D01*
X0121084Y0006162D01*
X0121071Y0006103D01*
X0121055Y0006044D01*
X0121035Y0005987D01*
X0121012Y0005932D01*
X0120985Y0005877D01*
X0120956Y0005825D01*
X0120923Y0005774D01*
X0120887Y0005725D01*
X0120849Y0005679D01*
X0120807Y0005635D01*
X0120763Y0005593D01*
X0120717Y0005555D01*
X0120668Y0005519D01*
X0120617Y0005486D01*
X0120565Y0005457D01*
X0120510Y0005430D01*
X0120455Y0005407D01*
X0120398Y0005387D01*
X0120339Y0005371D01*
X0120280Y0005358D01*
X0120221Y0005349D01*
X0120160Y0005344D01*
X0120100Y0005342D01*
X0103100Y0005342D01*
X0103040Y0005344D01*
X0102979Y0005349D01*
X0102920Y0005358D01*
X0102861Y0005371D01*
X0102802Y0005387D01*
X0102745Y0005407D01*
X0102690Y0005430D01*
X0102635Y0005457D01*
X0102583Y0005486D01*
X0102532Y0005519D01*
X0102483Y0005555D01*
X0102437Y0005593D01*
X0102393Y0005635D01*
X0102351Y0005679D01*
X0102313Y0005725D01*
X0102277Y0005774D01*
X0102244Y0005825D01*
X0102215Y0005877D01*
X0102188Y0005932D01*
X0102165Y0005987D01*
X0102145Y0006044D01*
X0102129Y0006103D01*
X0102116Y0006162D01*
X0102107Y0006221D01*
X0102102Y0006282D01*
X0102100Y0006342D01*
X0102100Y0012342D01*
X0102102Y0012402D01*
X0102107Y0012463D01*
X0102116Y0012522D01*
X0102129Y0012581D01*
X0102145Y0012640D01*
X0102165Y0012697D01*
X0102188Y0012752D01*
X0102215Y0012807D01*
X0102244Y0012859D01*
X0102277Y0012910D01*
X0102313Y0012959D01*
X0102351Y0013005D01*
X0102393Y0013049D01*
X0102437Y0013091D01*
X0102483Y0013129D01*
X0102532Y0013165D01*
X0102583Y0013198D01*
X0102635Y0013227D01*
X0102690Y0013254D01*
X0102745Y0013277D01*
X0102802Y0013297D01*
X0102861Y0013313D01*
X0102920Y0013326D01*
X0102979Y0013335D01*
X0103040Y0013340D01*
X0103100Y0013342D01*
X0108083Y0015710D02*
X0108650Y0015142D01*
X0109785Y0015142D01*
X0110352Y0015710D01*
X0110352Y0016277D01*
X0109785Y0016844D01*
X0109217Y0016844D01*
X0109785Y0016844D02*
X0110352Y0017411D01*
X0110352Y0017978D01*
X0109785Y0018545D01*
X0108650Y0018545D01*
X0108083Y0017978D01*
X0127100Y0012342D02*
X0127100Y0006342D01*
X0127102Y0006282D01*
X0127107Y0006221D01*
X0127116Y0006162D01*
X0127129Y0006103D01*
X0127145Y0006044D01*
X0127165Y0005987D01*
X0127188Y0005932D01*
X0127215Y0005877D01*
X0127244Y0005825D01*
X0127277Y0005774D01*
X0127313Y0005725D01*
X0127351Y0005679D01*
X0127393Y0005635D01*
X0127437Y0005593D01*
X0127483Y0005555D01*
X0127532Y0005519D01*
X0127583Y0005486D01*
X0127635Y0005457D01*
X0127690Y0005430D01*
X0127745Y0005407D01*
X0127802Y0005387D01*
X0127861Y0005371D01*
X0127920Y0005358D01*
X0127979Y0005349D01*
X0128040Y0005344D01*
X0128100Y0005342D01*
X0145100Y0005342D01*
X0145160Y0005344D01*
X0145221Y0005349D01*
X0145280Y0005358D01*
X0145339Y0005371D01*
X0145398Y0005387D01*
X0145455Y0005407D01*
X0145510Y0005430D01*
X0145565Y0005457D01*
X0145617Y0005486D01*
X0145668Y0005519D01*
X0145717Y0005555D01*
X0145763Y0005593D01*
X0145807Y0005635D01*
X0145849Y0005679D01*
X0145887Y0005725D01*
X0145923Y0005774D01*
X0145956Y0005825D01*
X0145985Y0005877D01*
X0146012Y0005932D01*
X0146035Y0005987D01*
X0146055Y0006044D01*
X0146071Y0006103D01*
X0146084Y0006162D01*
X0146093Y0006221D01*
X0146098Y0006282D01*
X0146100Y0006342D01*
X0146100Y0012342D01*
X0146098Y0012402D01*
X0146093Y0012463D01*
X0146084Y0012522D01*
X0146071Y0012581D01*
X0146055Y0012640D01*
X0146035Y0012697D01*
X0146012Y0012752D01*
X0145985Y0012807D01*
X0145956Y0012859D01*
X0145923Y0012910D01*
X0145887Y0012959D01*
X0145849Y0013005D01*
X0145807Y0013049D01*
X0145763Y0013091D01*
X0145717Y0013129D01*
X0145668Y0013165D01*
X0145617Y0013198D01*
X0145565Y0013227D01*
X0145510Y0013254D01*
X0145455Y0013277D01*
X0145398Y0013297D01*
X0145339Y0013313D01*
X0145280Y0013326D01*
X0145221Y0013335D01*
X0145160Y0013340D01*
X0145100Y0013342D01*
X0128100Y0013342D01*
X0128040Y0013340D01*
X0127979Y0013335D01*
X0127920Y0013326D01*
X0127861Y0013313D01*
X0127802Y0013297D01*
X0127745Y0013277D01*
X0127690Y0013254D01*
X0127635Y0013227D01*
X0127583Y0013198D01*
X0127532Y0013165D01*
X0127483Y0013129D01*
X0127437Y0013091D01*
X0127393Y0013049D01*
X0127351Y0013005D01*
X0127313Y0012959D01*
X0127277Y0012910D01*
X0127244Y0012859D01*
X0127215Y0012807D01*
X0127188Y0012752D01*
X0127165Y0012697D01*
X0127145Y0012640D01*
X0127129Y0012581D01*
X0127116Y0012522D01*
X0127107Y0012463D01*
X0127102Y0012402D01*
X0127100Y0012342D01*
X0137400Y0015710D02*
X0137967Y0015142D01*
X0138534Y0015142D01*
X0139101Y0015710D01*
X0139101Y0018545D01*
X0138534Y0018545D02*
X0139669Y0018545D01*
X0141083Y0017978D02*
X0141650Y0018545D01*
X0142785Y0018545D01*
X0143352Y0017978D01*
X0143352Y0017411D01*
X0141083Y0015142D01*
X0143352Y0015142D01*
X0183400Y0018142D02*
X0183400Y0020411D01*
X0184534Y0021545D01*
X0185669Y0020411D01*
X0185669Y0018142D01*
X0187083Y0018710D02*
X0187083Y0019844D01*
X0187650Y0020411D01*
X0189352Y0020411D01*
X0189352Y0021545D02*
X0189352Y0018142D01*
X0187650Y0018142D01*
X0187083Y0018710D01*
X0185669Y0019844D02*
X0183400Y0019844D01*
X0190766Y0020411D02*
X0191901Y0018142D01*
X0193035Y0020411D01*
X0195017Y0020411D02*
X0196151Y0020411D01*
X0196718Y0019844D01*
X0196718Y0018142D01*
X0195017Y0018142D01*
X0194449Y0018710D01*
X0195017Y0019277D01*
X0196718Y0019277D01*
X0198133Y0018142D02*
X0198133Y0020411D01*
X0199834Y0020411D01*
X0200401Y0019844D01*
X0200401Y0018142D01*
X0201816Y0018710D02*
X0202383Y0018142D01*
X0204084Y0018142D01*
X0205499Y0018710D02*
X0205499Y0019844D01*
X0206066Y0020411D01*
X0207200Y0020411D01*
X0207767Y0019844D01*
X0207767Y0019277D01*
X0205499Y0019277D01*
X0205499Y0018710D02*
X0206066Y0018142D01*
X0207200Y0018142D01*
X0209182Y0018710D02*
X0209182Y0019844D01*
X0209749Y0020411D01*
X0211451Y0020411D01*
X0211451Y0021545D02*
X0211451Y0018142D01*
X0209749Y0018142D01*
X0209182Y0018710D01*
X0204084Y0020411D02*
X0202383Y0020411D01*
X0201816Y0019844D01*
X0201816Y0018710D01*
X0230100Y0023842D02*
X0233100Y0023842D01*
X0233100Y0028842D02*
X0230100Y0028842D01*
X0242397Y0030094D02*
X0242964Y0028960D01*
X0244099Y0027826D01*
X0244099Y0029527D01*
X0244666Y0030094D01*
X0245233Y0030094D01*
X0245800Y0029527D01*
X0245800Y0028393D01*
X0245233Y0027826D01*
X0244099Y0027826D01*
X0242397Y0026411D02*
X0242397Y0025277D01*
X0242397Y0025844D02*
X0245233Y0025844D01*
X0245800Y0025277D01*
X0245800Y0024710D01*
X0245233Y0024142D01*
X0247100Y0021342D02*
X0247100Y0032342D01*
X0247102Y0032402D01*
X0247107Y0032463D01*
X0247116Y0032522D01*
X0247129Y0032581D01*
X0247145Y0032640D01*
X0247165Y0032697D01*
X0247188Y0032752D01*
X0247215Y0032807D01*
X0247244Y0032859D01*
X0247277Y0032910D01*
X0247313Y0032959D01*
X0247351Y0033005D01*
X0247393Y0033049D01*
X0247437Y0033091D01*
X0247483Y0033129D01*
X0247532Y0033165D01*
X0247583Y0033198D01*
X0247635Y0033227D01*
X0247690Y0033254D01*
X0247745Y0033277D01*
X0247802Y0033297D01*
X0247861Y0033313D01*
X0247920Y0033326D01*
X0247979Y0033335D01*
X0248040Y0033340D01*
X0248100Y0033342D01*
X0254100Y0033342D01*
X0254160Y0033340D01*
X0254221Y0033335D01*
X0254280Y0033326D01*
X0254339Y0033313D01*
X0254398Y0033297D01*
X0254455Y0033277D01*
X0254510Y0033254D01*
X0254565Y0033227D01*
X0254617Y0033198D01*
X0254668Y0033165D01*
X0254717Y0033129D01*
X0254763Y0033091D01*
X0254807Y0033049D01*
X0254849Y0033005D01*
X0254887Y0032959D01*
X0254923Y0032910D01*
X0254956Y0032859D01*
X0254985Y0032807D01*
X0255012Y0032752D01*
X0255035Y0032697D01*
X0255055Y0032640D01*
X0255071Y0032581D01*
X0255084Y0032522D01*
X0255093Y0032463D01*
X0255098Y0032402D01*
X0255100Y0032342D01*
X0255100Y0021342D01*
X0255098Y0021282D01*
X0255093Y0021221D01*
X0255084Y0021162D01*
X0255071Y0021103D01*
X0255055Y0021044D01*
X0255035Y0020987D01*
X0255012Y0020932D01*
X0254985Y0020877D01*
X0254956Y0020825D01*
X0254923Y0020774D01*
X0254887Y0020725D01*
X0254849Y0020679D01*
X0254807Y0020635D01*
X0254763Y0020593D01*
X0254717Y0020555D01*
X0254668Y0020519D01*
X0254617Y0020486D01*
X0254565Y0020457D01*
X0254510Y0020430D01*
X0254455Y0020407D01*
X0254398Y0020387D01*
X0254339Y0020371D01*
X0254280Y0020358D01*
X0254221Y0020349D01*
X0254160Y0020344D01*
X0254100Y0020342D01*
X0248100Y0020342D01*
X0248040Y0020344D01*
X0247979Y0020349D01*
X0247920Y0020358D01*
X0247861Y0020371D01*
X0247802Y0020387D01*
X0247745Y0020407D01*
X0247690Y0020430D01*
X0247635Y0020457D01*
X0247583Y0020486D01*
X0247532Y0020519D01*
X0247483Y0020555D01*
X0247437Y0020593D01*
X0247393Y0020635D01*
X0247351Y0020679D01*
X0247313Y0020725D01*
X0247277Y0020774D01*
X0247244Y0020825D01*
X0247215Y0020877D01*
X0247188Y0020932D01*
X0247165Y0020987D01*
X0247145Y0021044D01*
X0247129Y0021103D01*
X0247116Y0021162D01*
X0247107Y0021221D01*
X0247102Y0021282D01*
X0247100Y0021342D01*
X0237850Y0037780D02*
X0235350Y0037780D01*
X0235350Y0040905D02*
X0237850Y0040905D01*
X0245400Y0044344D02*
X0247669Y0044344D01*
X0249083Y0044344D02*
X0250217Y0044911D01*
X0250785Y0044911D01*
X0251352Y0044344D01*
X0251352Y0043210D01*
X0250785Y0042642D01*
X0249650Y0042642D01*
X0249083Y0043210D01*
X0249083Y0044344D02*
X0249083Y0046045D01*
X0251352Y0046045D01*
X0252766Y0046045D02*
X0252766Y0043777D01*
X0253901Y0042642D01*
X0255035Y0043777D01*
X0255035Y0046045D01*
X0246534Y0045478D02*
X0246534Y0043210D01*
X0245967Y0054142D02*
X0247101Y0054142D01*
X0247669Y0054710D01*
X0247669Y0055844D01*
X0246534Y0055844D01*
X0245400Y0056978D02*
X0245400Y0054710D01*
X0245967Y0054142D01*
X0249083Y0054142D02*
X0249083Y0057545D01*
X0251352Y0054142D01*
X0251352Y0057545D01*
X0252766Y0057545D02*
X0254468Y0057545D01*
X0255035Y0056978D01*
X0255035Y0054710D01*
X0254468Y0054142D01*
X0252766Y0054142D01*
X0252766Y0057545D01*
X0247669Y0056978D02*
X0247101Y0057545D01*
X0245967Y0057545D01*
X0245400Y0056978D01*
X0219880Y0069638D02*
X0219880Y0044047D01*
X0218895Y0043063D01*
X0193305Y0043063D01*
X0192320Y0044047D01*
X0192320Y0068654D01*
X0194289Y0070622D01*
X0218895Y0070622D01*
X0219880Y0069638D01*
X0230900Y0074642D02*
X0232601Y0074642D01*
X0233169Y0075210D01*
X0233169Y0075777D01*
X0232601Y0076344D01*
X0230900Y0076344D01*
X0230900Y0078045D02*
X0230900Y0074642D01*
X0232601Y0076344D02*
X0233169Y0076911D01*
X0233169Y0077478D01*
X0232601Y0078045D01*
X0230900Y0078045D01*
X0234583Y0074642D02*
X0236852Y0078045D01*
X0238266Y0078045D02*
X0239968Y0078045D01*
X0240535Y0077478D01*
X0240535Y0076344D01*
X0239968Y0075777D01*
X0238266Y0075777D01*
X0238266Y0074642D02*
X0238266Y0078045D01*
X0241949Y0078045D02*
X0241949Y0074642D01*
X0243651Y0074642D01*
X0244218Y0075210D01*
X0244218Y0076344D01*
X0243651Y0076911D01*
X0241949Y0076911D01*
X0243084Y0082142D02*
X0243084Y0083844D01*
X0244218Y0084978D01*
X0244218Y0085545D01*
X0243084Y0083844D02*
X0241949Y0084978D01*
X0241949Y0085545D01*
X0240535Y0085545D02*
X0238266Y0082142D01*
X0236852Y0082710D02*
X0236285Y0083277D01*
X0235150Y0083277D01*
X0234583Y0083844D01*
X0235150Y0084411D01*
X0236852Y0084411D01*
X0233169Y0083844D02*
X0232034Y0083844D01*
X0233169Y0083844D02*
X0233169Y0082710D01*
X0232601Y0082142D01*
X0231467Y0082142D01*
X0230900Y0082710D01*
X0230900Y0084978D01*
X0231467Y0085545D01*
X0232601Y0085545D01*
X0233169Y0084978D01*
X0234583Y0082142D02*
X0236285Y0082142D01*
X0236852Y0082710D01*
X0224162Y0086592D02*
X0224162Y0089092D01*
X0221037Y0089092D02*
X0221037Y0086592D01*
X0230900Y0089642D02*
X0230900Y0093045D01*
X0232601Y0093045D01*
X0233169Y0092478D01*
X0233169Y0091344D01*
X0232601Y0090777D01*
X0230900Y0090777D01*
X0232034Y0090777D02*
X0233169Y0089642D01*
X0234583Y0089642D02*
X0236852Y0093045D01*
X0238266Y0093045D02*
X0239968Y0093045D01*
X0240535Y0092478D01*
X0240535Y0091344D01*
X0239968Y0090777D01*
X0238266Y0090777D01*
X0238266Y0089642D02*
X0238266Y0093045D01*
X0241949Y0091911D02*
X0241949Y0089642D01*
X0241949Y0090777D02*
X0243084Y0091911D01*
X0243651Y0091911D01*
X0227350Y0102280D02*
X0224850Y0102280D01*
X0224850Y0105405D02*
X0227350Y0105405D01*
X0233400Y0103142D02*
X0235669Y0106545D01*
X0237083Y0105978D02*
X0237083Y0103710D01*
X0237650Y0103142D01*
X0238785Y0103142D01*
X0239352Y0103710D01*
X0240766Y0103710D02*
X0241333Y0103142D01*
X0242468Y0103142D01*
X0243035Y0103710D01*
X0243035Y0104277D01*
X0242468Y0104844D01*
X0241333Y0104844D01*
X0240766Y0105411D01*
X0240766Y0105978D01*
X0241333Y0106545D01*
X0242468Y0106545D01*
X0243035Y0105978D01*
X0239352Y0105978D02*
X0238785Y0106545D01*
X0237650Y0106545D01*
X0237083Y0105978D01*
X0232968Y0113642D02*
X0231266Y0113642D01*
X0231266Y0117045D01*
X0232968Y0117045D01*
X0233535Y0116478D01*
X0233535Y0114210D01*
X0232968Y0113642D01*
X0229852Y0113642D02*
X0229852Y0117045D01*
X0227583Y0117045D02*
X0229852Y0113642D01*
X0227583Y0113642D02*
X0227583Y0117045D01*
X0226169Y0116478D02*
X0225601Y0117045D01*
X0224467Y0117045D01*
X0223900Y0116478D01*
X0223900Y0114210D01*
X0224467Y0113642D01*
X0225601Y0113642D01*
X0226169Y0114210D01*
X0226169Y0115344D01*
X0225034Y0115344D01*
X0208600Y0111342D02*
X0203600Y0111342D01*
X0203600Y0106967D02*
X0208600Y0106967D01*
X0208600Y0100717D02*
X0203600Y0100717D01*
X0190037Y0109382D02*
X0182163Y0109382D01*
X0182163Y0110974D01*
X0190037Y0110974D01*
X0190037Y0109382D01*
X0190037Y0110974D02*
X0190037Y0114303D01*
X0182163Y0114303D01*
X0182163Y0110974D01*
X0180285Y0107045D02*
X0180852Y0106478D01*
X0180852Y0105911D01*
X0180285Y0105344D01*
X0180852Y0104777D01*
X0180852Y0104210D01*
X0180285Y0103642D01*
X0179150Y0103642D01*
X0178583Y0104210D01*
X0177169Y0104210D02*
X0177169Y0107045D01*
X0178583Y0106478D02*
X0179150Y0107045D01*
X0180285Y0107045D01*
X0180285Y0105344D02*
X0179717Y0105344D01*
X0177169Y0104210D02*
X0176601Y0103642D01*
X0175467Y0103642D01*
X0174900Y0104210D01*
X0174900Y0107045D01*
X0172350Y0110280D02*
X0169850Y0110280D01*
X0169850Y0113405D02*
X0172350Y0113405D01*
X0172350Y0120280D02*
X0169850Y0120280D01*
X0169850Y0123405D02*
X0172350Y0123405D01*
X0184850Y0123405D02*
X0187350Y0123405D01*
X0187350Y0120280D02*
X0184850Y0120280D01*
X0202100Y0125842D02*
X0205100Y0125842D01*
X0203600Y0121342D02*
X0208600Y0121342D01*
X0205100Y0130842D02*
X0202100Y0130842D01*
X0204257Y0132642D02*
X0206525Y0136045D01*
X0207940Y0136045D02*
X0207940Y0133777D01*
X0209074Y0132642D01*
X0210208Y0133777D01*
X0210208Y0136045D01*
X0211623Y0135478D02*
X0211623Y0134911D01*
X0212190Y0134344D01*
X0213324Y0134344D01*
X0213891Y0133777D01*
X0213891Y0133210D01*
X0213324Y0132642D01*
X0212190Y0132642D01*
X0211623Y0133210D01*
X0215306Y0132642D02*
X0215306Y0136045D01*
X0216534Y0136045D02*
X0218802Y0136045D01*
X0220217Y0135478D02*
X0220784Y0136045D01*
X0221918Y0136045D01*
X0222485Y0135478D01*
X0222485Y0134911D01*
X0220217Y0132642D01*
X0222485Y0132642D01*
X0217668Y0134344D02*
X0216534Y0134344D01*
X0216534Y0136045D02*
X0216534Y0132642D01*
X0213891Y0135478D02*
X0213324Y0136045D01*
X0212190Y0136045D01*
X0211623Y0135478D01*
X0212190Y0139142D02*
X0211623Y0139710D01*
X0212190Y0139142D02*
X0213324Y0139142D01*
X0213891Y0139710D01*
X0213891Y0140277D01*
X0213324Y0140844D01*
X0212190Y0140844D01*
X0211623Y0141411D01*
X0211623Y0141978D01*
X0212190Y0142545D01*
X0213324Y0142545D01*
X0213891Y0141978D01*
X0215306Y0142545D02*
X0215306Y0139142D01*
X0216534Y0139142D02*
X0216534Y0142545D01*
X0218802Y0142545D01*
X0220217Y0141411D02*
X0221351Y0142545D01*
X0221351Y0139142D01*
X0220217Y0139142D02*
X0222485Y0139142D01*
X0217668Y0140844D02*
X0216534Y0140844D01*
X0213418Y0145642D02*
X0212284Y0145642D01*
X0211717Y0146210D01*
X0212284Y0147344D02*
X0213418Y0147344D01*
X0213985Y0146777D01*
X0213985Y0146210D01*
X0213418Y0145642D01*
X0212284Y0147344D02*
X0211717Y0147911D01*
X0211717Y0148478D01*
X0212284Y0149045D01*
X0213418Y0149045D01*
X0213985Y0148478D01*
X0210302Y0148478D02*
X0209735Y0149045D01*
X0208601Y0149045D01*
X0208034Y0148478D01*
X0208034Y0146210D01*
X0208601Y0145642D01*
X0209735Y0145642D01*
X0210302Y0146210D01*
X0206619Y0149045D02*
X0204351Y0145642D01*
X0206525Y0142545D02*
X0204257Y0139142D01*
X0207940Y0139142D02*
X0207940Y0142545D01*
X0207940Y0140844D02*
X0210208Y0140844D01*
X0210208Y0142545D02*
X0210208Y0139142D01*
X0162852Y0146844D02*
X0160583Y0146844D01*
X0162285Y0148545D01*
X0162285Y0145142D01*
X0159169Y0145710D02*
X0159169Y0148545D01*
X0156900Y0148545D02*
X0156900Y0145710D01*
X0157467Y0145142D01*
X0158601Y0145142D01*
X0159169Y0145710D01*
X0140852Y0140642D02*
X0138583Y0140642D01*
X0139717Y0140642D02*
X0139717Y0144045D01*
X0138583Y0142911D01*
X0137169Y0144045D02*
X0136034Y0144045D01*
X0136601Y0144045D02*
X0136601Y0141210D01*
X0136034Y0140642D01*
X0135467Y0140642D01*
X0134900Y0141210D01*
X0133100Y0139342D02*
X0133100Y0145342D01*
X0133098Y0145402D01*
X0133093Y0145463D01*
X0133084Y0145522D01*
X0133071Y0145581D01*
X0133055Y0145640D01*
X0133035Y0145697D01*
X0133012Y0145752D01*
X0132985Y0145807D01*
X0132956Y0145859D01*
X0132923Y0145910D01*
X0132887Y0145959D01*
X0132849Y0146005D01*
X0132807Y0146049D01*
X0132763Y0146091D01*
X0132717Y0146129D01*
X0132668Y0146165D01*
X0132617Y0146198D01*
X0132565Y0146227D01*
X0132510Y0146254D01*
X0132455Y0146277D01*
X0132398Y0146297D01*
X0132339Y0146313D01*
X0132280Y0146326D01*
X0132221Y0146335D01*
X0132160Y0146340D01*
X0132100Y0146342D01*
X0115100Y0146342D01*
X0115040Y0146340D01*
X0114979Y0146335D01*
X0114920Y0146326D01*
X0114861Y0146313D01*
X0114802Y0146297D01*
X0114745Y0146277D01*
X0114690Y0146254D01*
X0114635Y0146227D01*
X0114583Y0146198D01*
X0114532Y0146165D01*
X0114483Y0146129D01*
X0114437Y0146091D01*
X0114393Y0146049D01*
X0114351Y0146005D01*
X0114313Y0145959D01*
X0114277Y0145910D01*
X0114244Y0145859D01*
X0114215Y0145807D01*
X0114188Y0145752D01*
X0114165Y0145697D01*
X0114145Y0145640D01*
X0114129Y0145581D01*
X0114116Y0145522D01*
X0114107Y0145463D01*
X0114102Y0145402D01*
X0114100Y0145342D01*
X0114100Y0139342D01*
X0114102Y0139282D01*
X0114107Y0139221D01*
X0114116Y0139162D01*
X0114129Y0139103D01*
X0114145Y0139044D01*
X0114165Y0138987D01*
X0114188Y0138932D01*
X0114215Y0138877D01*
X0114244Y0138825D01*
X0114277Y0138774D01*
X0114313Y0138725D01*
X0114351Y0138679D01*
X0114393Y0138635D01*
X0114437Y0138593D01*
X0114483Y0138555D01*
X0114532Y0138519D01*
X0114583Y0138486D01*
X0114635Y0138457D01*
X0114690Y0138430D01*
X0114745Y0138407D01*
X0114802Y0138387D01*
X0114861Y0138371D01*
X0114920Y0138358D01*
X0114979Y0138349D01*
X0115040Y0138344D01*
X0115100Y0138342D01*
X0132100Y0138342D01*
X0132160Y0138344D01*
X0132221Y0138349D01*
X0132280Y0138358D01*
X0132339Y0138371D01*
X0132398Y0138387D01*
X0132455Y0138407D01*
X0132510Y0138430D01*
X0132565Y0138457D01*
X0132617Y0138486D01*
X0132668Y0138519D01*
X0132717Y0138555D01*
X0132763Y0138593D01*
X0132807Y0138635D01*
X0132849Y0138679D01*
X0132887Y0138725D01*
X0132923Y0138774D01*
X0132956Y0138825D01*
X0132985Y0138877D01*
X0133012Y0138932D01*
X0133035Y0138987D01*
X0133055Y0139044D01*
X0133071Y0139103D01*
X0133084Y0139162D01*
X0133093Y0139221D01*
X0133098Y0139282D01*
X0133100Y0139342D01*
X0100350Y0138905D02*
X0097850Y0138905D01*
X0097850Y0135780D02*
X0100350Y0135780D01*
X0100600Y0131842D02*
X0097600Y0131842D01*
X0097600Y0126842D02*
X0100600Y0126842D01*
X0085663Y0128092D02*
X0085663Y0125592D01*
X0082538Y0125592D02*
X0082538Y0128092D01*
X0072291Y0128899D02*
X0072291Y0124786D01*
X0072291Y0121616D02*
X0072291Y0121242D01*
X0065909Y0121242D01*
X0065909Y0121616D01*
X0064352Y0120545D02*
X0063217Y0119978D01*
X0062083Y0118844D01*
X0063785Y0118844D01*
X0064352Y0118277D01*
X0064352Y0117710D01*
X0063785Y0117142D01*
X0062650Y0117142D01*
X0062083Y0117710D01*
X0062083Y0118844D01*
X0060669Y0117710D02*
X0060101Y0117142D01*
X0058967Y0117142D01*
X0058400Y0117710D01*
X0058400Y0120545D01*
X0060669Y0120545D02*
X0060669Y0117710D01*
X0065909Y0124786D02*
X0065909Y0125159D01*
X0065909Y0128526D02*
X0065909Y0128899D01*
X0065909Y0132069D02*
X0065909Y0132442D01*
X0072291Y0132442D01*
X0072291Y0132069D01*
X0072291Y0136242D02*
X0065909Y0136242D01*
X0065909Y0136616D01*
X0064352Y0136045D02*
X0064352Y0135478D01*
X0062083Y0133210D01*
X0062083Y0132642D01*
X0060669Y0133210D02*
X0060669Y0136045D01*
X0062083Y0136045D02*
X0064352Y0136045D01*
X0060669Y0133210D02*
X0060101Y0132642D01*
X0058967Y0132642D01*
X0058400Y0133210D01*
X0058400Y0136045D01*
X0055662Y0140092D02*
X0055662Y0142592D01*
X0052537Y0142592D02*
X0052537Y0140092D01*
X0051100Y0140342D02*
X0049100Y0139342D01*
X0050100Y0138342D02*
X0051100Y0140342D01*
X0046100Y0135342D01*
X0046100Y0123342D01*
X0045600Y0122842D01*
X0052537Y0125592D02*
X0052537Y0128092D01*
X0055662Y0128092D02*
X0055662Y0125592D01*
X0072291Y0136242D02*
X0072291Y0136616D01*
X0072291Y0139786D02*
X0072291Y0143899D01*
X0072291Y0147069D02*
X0072291Y0147442D01*
X0065909Y0147442D01*
X0065909Y0147069D01*
X0065909Y0143899D02*
X0065909Y0143526D01*
X0065909Y0140159D02*
X0065909Y0139786D01*
X0082538Y0140592D02*
X0082538Y0143092D01*
X0085663Y0143092D02*
X0085663Y0140592D01*
X0033100Y0139342D02*
X0030100Y0139342D01*
X0030100Y0144342D02*
X0033100Y0144342D01*
X0020218Y0138478D02*
X0020218Y0137911D01*
X0019651Y0137344D01*
X0020218Y0136777D01*
X0020218Y0136210D01*
X0019651Y0135642D01*
X0018517Y0135642D01*
X0017949Y0136210D01*
X0016535Y0136777D02*
X0016535Y0139045D01*
X0017949Y0138478D02*
X0018517Y0139045D01*
X0019651Y0139045D01*
X0020218Y0138478D01*
X0019651Y0137344D02*
X0019084Y0137344D01*
X0016535Y0136777D02*
X0015401Y0135642D01*
X0014266Y0136777D01*
X0014266Y0139045D01*
X0012852Y0138478D02*
X0012852Y0137911D01*
X0012285Y0137344D01*
X0012852Y0136777D01*
X0012852Y0136210D01*
X0012285Y0135642D01*
X0011150Y0135642D01*
X0010583Y0136210D01*
X0011717Y0137344D02*
X0012285Y0137344D01*
X0012852Y0138478D02*
X0012285Y0139045D01*
X0011150Y0139045D01*
X0010583Y0138478D01*
X0009169Y0137344D02*
X0006900Y0137344D01*
X0008034Y0138478D02*
X0008034Y0136210D01*
X0007467Y0126545D02*
X0006900Y0125978D01*
X0006900Y0123710D01*
X0007467Y0123142D01*
X0008601Y0123142D01*
X0009169Y0123710D01*
X0009169Y0124844D01*
X0008034Y0124844D01*
X0009169Y0125978D02*
X0008601Y0126545D01*
X0007467Y0126545D01*
X0010583Y0126545D02*
X0012852Y0123142D01*
X0012852Y0126545D01*
X0014266Y0126545D02*
X0015968Y0126545D01*
X0016535Y0125978D01*
X0016535Y0123710D01*
X0015968Y0123142D01*
X0014266Y0123142D01*
X0014266Y0126545D01*
X0010583Y0126545D02*
X0010583Y0123142D01*
X0029350Y0130280D02*
X0031850Y0130280D01*
X0031850Y0133405D02*
X0029350Y0133405D01*
X0014169Y0104045D02*
X0011900Y0100642D01*
X0155538Y0115592D02*
X0155538Y0118092D01*
X0158663Y0118092D02*
X0158663Y0115592D01*
X0184400Y0077545D02*
X0184400Y0074710D01*
X0184967Y0074142D01*
X0186101Y0074142D01*
X0186669Y0074710D01*
X0186669Y0077545D01*
X0188083Y0076978D02*
X0188650Y0077545D01*
X0189785Y0077545D01*
X0190352Y0076978D01*
X0190352Y0076411D01*
X0188083Y0074142D01*
X0190352Y0074142D01*
X0194289Y0067669D02*
X0194291Y0067731D01*
X0194297Y0067794D01*
X0194307Y0067855D01*
X0194321Y0067916D01*
X0194338Y0067976D01*
X0194359Y0068035D01*
X0194385Y0068092D01*
X0194413Y0068147D01*
X0194445Y0068201D01*
X0194481Y0068252D01*
X0194519Y0068302D01*
X0194561Y0068348D01*
X0194605Y0068392D01*
X0194653Y0068433D01*
X0194702Y0068471D01*
X0194754Y0068505D01*
X0194808Y0068536D01*
X0194864Y0068564D01*
X0194922Y0068588D01*
X0194981Y0068609D01*
X0195041Y0068625D01*
X0195102Y0068638D01*
X0195164Y0068647D01*
X0195226Y0068652D01*
X0195289Y0068653D01*
X0195351Y0068650D01*
X0195413Y0068643D01*
X0195475Y0068632D01*
X0195535Y0068617D01*
X0195595Y0068599D01*
X0195653Y0068577D01*
X0195710Y0068551D01*
X0195765Y0068521D01*
X0195818Y0068488D01*
X0195869Y0068452D01*
X0195917Y0068413D01*
X0195963Y0068370D01*
X0196006Y0068325D01*
X0196046Y0068277D01*
X0196083Y0068227D01*
X0196117Y0068174D01*
X0196148Y0068120D01*
X0196174Y0068064D01*
X0196198Y0068006D01*
X0196217Y0067946D01*
X0196233Y0067886D01*
X0196245Y0067824D01*
X0196253Y0067763D01*
X0196257Y0067700D01*
X0196257Y0067638D01*
X0196253Y0067575D01*
X0196245Y0067514D01*
X0196233Y0067452D01*
X0196217Y0067392D01*
X0196198Y0067332D01*
X0196174Y0067274D01*
X0196148Y0067218D01*
X0196117Y0067164D01*
X0196083Y0067111D01*
X0196046Y0067061D01*
X0196006Y0067013D01*
X0195963Y0066968D01*
X0195917Y0066925D01*
X0195869Y0066886D01*
X0195818Y0066850D01*
X0195765Y0066817D01*
X0195710Y0066787D01*
X0195653Y0066761D01*
X0195595Y0066739D01*
X0195535Y0066721D01*
X0195475Y0066706D01*
X0195413Y0066695D01*
X0195351Y0066688D01*
X0195289Y0066685D01*
X0195226Y0066686D01*
X0195164Y0066691D01*
X0195102Y0066700D01*
X0195041Y0066713D01*
X0194981Y0066729D01*
X0194922Y0066750D01*
X0194864Y0066774D01*
X0194808Y0066802D01*
X0194754Y0066833D01*
X0194702Y0066867D01*
X0194653Y0066905D01*
X0194605Y0066946D01*
X0194561Y0066990D01*
X0194519Y0067036D01*
X0194481Y0067086D01*
X0194445Y0067137D01*
X0194413Y0067191D01*
X0194385Y0067246D01*
X0194359Y0067303D01*
X0194338Y0067362D01*
X0194321Y0067422D01*
X0194307Y0067483D01*
X0194297Y0067544D01*
X0194291Y0067607D01*
X0194289Y0067669D01*
D12*
X0216648Y0084092D02*
X0216648Y0085444D01*
X0217098Y0085894D01*
X0217999Y0085894D01*
X0218449Y0085444D01*
X0218449Y0084092D01*
X0219350Y0084092D02*
X0216648Y0084092D01*
X0218449Y0084993D02*
X0219350Y0085894D01*
X0219350Y0087039D02*
X0217548Y0088841D01*
X0217098Y0088841D01*
X0216648Y0088390D01*
X0216648Y0087489D01*
X0217098Y0087039D01*
X0219350Y0087039D02*
X0219350Y0088841D01*
X0219350Y0089986D02*
X0219350Y0091787D01*
X0219350Y0090886D02*
X0216648Y0090886D01*
X0217548Y0089986D01*
X0232850Y0098493D02*
X0232850Y0099394D01*
X0233751Y0100295D01*
X0234814Y0100295D02*
X0236616Y0100295D01*
X0236616Y0099844D01*
X0234814Y0098043D01*
X0234814Y0097592D01*
X0233751Y0097592D02*
X0232850Y0098493D01*
X0237761Y0098043D02*
X0238211Y0097592D01*
X0239112Y0097592D01*
X0239562Y0098043D01*
X0239562Y0098944D01*
X0239112Y0099394D01*
X0238662Y0099394D01*
X0237761Y0098944D01*
X0237761Y0100295D01*
X0239562Y0100295D01*
X0240707Y0099844D02*
X0241158Y0100295D01*
X0242059Y0100295D01*
X0242509Y0099844D01*
X0242509Y0098944D01*
X0242059Y0098493D01*
X0242059Y0097592D01*
X0242509Y0097592D01*
X0243654Y0097592D02*
X0244555Y0098493D01*
X0244555Y0099394D01*
X0243654Y0100295D01*
X0240707Y0099844D02*
X0240707Y0098944D01*
X0241158Y0098493D01*
X0241158Y0097592D01*
X0240707Y0097592D01*
X0230045Y0107543D02*
X0229594Y0107092D01*
X0228693Y0107092D01*
X0228243Y0107543D01*
X0227098Y0107543D02*
X0226648Y0107092D01*
X0225747Y0107092D01*
X0225297Y0107543D01*
X0224152Y0107092D02*
X0223251Y0107993D01*
X0223701Y0107993D02*
X0222350Y0107993D01*
X0222350Y0107092D02*
X0222350Y0109795D01*
X0223701Y0109795D01*
X0224152Y0109344D01*
X0224152Y0108444D01*
X0223701Y0107993D01*
X0225297Y0109344D02*
X0225747Y0109795D01*
X0226648Y0109795D01*
X0227098Y0109344D01*
X0227098Y0108894D01*
X0226648Y0108444D01*
X0227098Y0107993D01*
X0227098Y0107543D01*
X0226648Y0108444D02*
X0226197Y0108444D01*
X0228243Y0109344D02*
X0228693Y0109795D01*
X0229594Y0109795D01*
X0230045Y0109344D01*
X0230045Y0108894D01*
X0229594Y0108444D01*
X0230045Y0107993D01*
X0230045Y0107543D01*
X0229594Y0108444D02*
X0229144Y0108444D01*
X0195850Y0107337D02*
X0193148Y0107337D01*
X0194499Y0105986D01*
X0194499Y0107787D01*
X0194949Y0104841D02*
X0194499Y0104390D01*
X0194499Y0103940D01*
X0194499Y0104390D02*
X0194048Y0104841D01*
X0193598Y0104841D01*
X0193148Y0104390D01*
X0193148Y0103489D01*
X0193598Y0103039D01*
X0193598Y0101894D02*
X0193148Y0101444D01*
X0193148Y0100543D01*
X0193598Y0100092D01*
X0195400Y0100092D01*
X0195850Y0100543D01*
X0195850Y0101444D01*
X0195400Y0101894D01*
X0195400Y0103039D02*
X0195850Y0103489D01*
X0195850Y0104390D01*
X0195400Y0104841D01*
X0194949Y0104841D01*
X0195400Y0112092D02*
X0193598Y0112092D01*
X0193148Y0112543D01*
X0193148Y0113444D01*
X0193598Y0113894D01*
X0193598Y0115039D02*
X0193148Y0115489D01*
X0193148Y0116390D01*
X0193598Y0116841D01*
X0194048Y0116841D01*
X0194499Y0116390D01*
X0194949Y0116841D01*
X0195400Y0116841D01*
X0195850Y0116390D01*
X0195850Y0115489D01*
X0195400Y0115039D01*
X0195400Y0113894D02*
X0195850Y0113444D01*
X0195850Y0112543D01*
X0195400Y0112092D01*
X0194499Y0115940D02*
X0194499Y0116390D01*
X0195400Y0117986D02*
X0195850Y0118436D01*
X0195850Y0119337D01*
X0195400Y0119787D01*
X0194949Y0119787D01*
X0194499Y0119337D01*
X0194499Y0118886D01*
X0194499Y0119337D02*
X0194048Y0119787D01*
X0193598Y0119787D01*
X0193148Y0119337D01*
X0193148Y0118436D01*
X0193598Y0117986D01*
X0191491Y0125092D02*
X0189690Y0125092D01*
X0191491Y0126894D01*
X0191491Y0127344D01*
X0191041Y0127795D01*
X0190140Y0127795D01*
X0189690Y0127344D01*
X0188545Y0127344D02*
X0188545Y0125543D01*
X0188094Y0125092D01*
X0187193Y0125092D01*
X0186743Y0125543D01*
X0188545Y0127344D01*
X0188094Y0127795D01*
X0187193Y0127795D01*
X0186743Y0127344D01*
X0186743Y0125543D01*
X0185598Y0125543D02*
X0185148Y0125092D01*
X0184247Y0125092D01*
X0183797Y0125543D01*
X0182652Y0125543D02*
X0182201Y0125092D01*
X0181300Y0125092D01*
X0180850Y0125543D01*
X0180850Y0127344D01*
X0181300Y0127795D01*
X0182201Y0127795D01*
X0182652Y0127344D01*
X0183797Y0127344D02*
X0184247Y0127795D01*
X0185148Y0127795D01*
X0185598Y0127344D01*
X0185598Y0126894D01*
X0185148Y0126444D01*
X0185598Y0125993D01*
X0185598Y0125543D01*
X0185148Y0126444D02*
X0184697Y0126444D01*
X0185800Y0130092D02*
X0186701Y0130092D01*
X0187152Y0130543D01*
X0188297Y0130543D02*
X0188747Y0130092D01*
X0189648Y0130092D01*
X0190098Y0130543D01*
X0190098Y0130993D01*
X0189648Y0131444D01*
X0189197Y0131444D01*
X0189648Y0131444D02*
X0190098Y0131894D01*
X0190098Y0132344D01*
X0189648Y0132795D01*
X0188747Y0132795D01*
X0188297Y0132344D01*
X0187152Y0132344D02*
X0186701Y0132795D01*
X0185800Y0132795D01*
X0185350Y0132344D01*
X0185350Y0130543D01*
X0185800Y0130092D01*
X0191243Y0130543D02*
X0191243Y0132344D01*
X0191693Y0132795D01*
X0192594Y0132795D01*
X0193045Y0132344D01*
X0191243Y0130543D01*
X0191693Y0130092D01*
X0192594Y0130092D01*
X0193045Y0130543D01*
X0193045Y0132344D01*
X0194190Y0131894D02*
X0195090Y0132795D01*
X0195090Y0130092D01*
X0194190Y0130092D02*
X0195991Y0130092D01*
X0190850Y0136092D02*
X0188148Y0136092D01*
X0188148Y0137444D01*
X0188598Y0137894D01*
X0189499Y0137894D01*
X0189949Y0137444D01*
X0189949Y0136092D01*
X0189949Y0136993D02*
X0190850Y0137894D01*
X0190850Y0139039D02*
X0188148Y0139039D01*
X0190850Y0140841D01*
X0188148Y0140841D01*
X0189499Y0141986D02*
X0189499Y0143787D01*
X0189048Y0144932D02*
X0188148Y0145833D01*
X0190850Y0145833D01*
X0190850Y0144932D02*
X0190850Y0146734D01*
X0190850Y0143337D02*
X0188148Y0143337D01*
X0189499Y0141986D01*
X0176612Y0145618D02*
X0176612Y0133067D01*
X0165588Y0133067D01*
X0165588Y0145618D01*
X0176612Y0145618D01*
X0171100Y0145520D02*
X0165982Y0145520D01*
X0165982Y0139342D01*
X0171100Y0139342D01*
X0171100Y0145520D01*
X0171100Y0145414D02*
X0165982Y0145414D01*
X0165982Y0144915D02*
X0171100Y0144915D01*
X0171100Y0144417D02*
X0165982Y0144417D01*
X0165982Y0143918D02*
X0171100Y0143918D01*
X0171100Y0143420D02*
X0165982Y0143420D01*
X0165982Y0142921D02*
X0171100Y0142921D01*
X0171100Y0142423D02*
X0165982Y0142423D01*
X0165982Y0141924D02*
X0171100Y0141924D01*
X0171100Y0141426D02*
X0165982Y0141426D01*
X0165982Y0140927D02*
X0171100Y0140927D01*
X0171100Y0140429D02*
X0165982Y0140429D01*
X0165982Y0139930D02*
X0171100Y0139930D01*
X0171100Y0139432D02*
X0165982Y0139432D01*
X0167350Y0127795D02*
X0168701Y0127795D01*
X0169152Y0127344D01*
X0169152Y0126444D01*
X0168701Y0125993D01*
X0167350Y0125993D01*
X0167350Y0125092D02*
X0167350Y0127795D01*
X0168251Y0125993D02*
X0169152Y0125092D01*
X0170297Y0125543D02*
X0170747Y0125092D01*
X0171648Y0125092D01*
X0172098Y0125543D01*
X0172098Y0125993D01*
X0171648Y0126444D01*
X0171197Y0126444D01*
X0171648Y0126444D02*
X0172098Y0126894D01*
X0172098Y0127344D01*
X0171648Y0127795D01*
X0170747Y0127795D01*
X0170297Y0127344D01*
X0173243Y0126894D02*
X0174144Y0127795D01*
X0174144Y0125092D01*
X0173243Y0125092D02*
X0175045Y0125092D01*
X0174594Y0117795D02*
X0173693Y0117795D01*
X0173243Y0117344D01*
X0172098Y0117344D02*
X0172098Y0116894D01*
X0171648Y0116444D01*
X0172098Y0115993D01*
X0172098Y0115543D01*
X0171648Y0115092D01*
X0170747Y0115092D01*
X0170297Y0115543D01*
X0169152Y0115092D02*
X0168251Y0115993D01*
X0168701Y0115993D02*
X0167350Y0115993D01*
X0167350Y0115092D02*
X0167350Y0117795D01*
X0168701Y0117795D01*
X0169152Y0117344D01*
X0169152Y0116444D01*
X0168701Y0115993D01*
X0170297Y0117344D02*
X0170747Y0117795D01*
X0171648Y0117795D01*
X0172098Y0117344D01*
X0171648Y0116444D02*
X0171197Y0116444D01*
X0173243Y0115092D02*
X0175045Y0116894D01*
X0175045Y0117344D01*
X0174594Y0117795D01*
X0175045Y0115092D02*
X0173243Y0115092D01*
X0152850Y0115394D02*
X0151949Y0114493D01*
X0151949Y0114944D02*
X0151949Y0113592D01*
X0152850Y0113592D02*
X0150148Y0113592D01*
X0150148Y0114944D01*
X0150598Y0115394D01*
X0151499Y0115394D01*
X0151949Y0114944D01*
X0151048Y0116539D02*
X0150148Y0117440D01*
X0152850Y0117440D01*
X0152850Y0116539D02*
X0152850Y0118341D01*
X0152400Y0119486D02*
X0152850Y0119936D01*
X0152850Y0120837D01*
X0152400Y0121287D01*
X0151949Y0121287D01*
X0151499Y0120837D01*
X0151499Y0119486D01*
X0152400Y0119486D01*
X0151499Y0119486D02*
X0150598Y0120386D01*
X0150148Y0121287D01*
X0107045Y0141043D02*
X0106594Y0140592D01*
X0105693Y0140592D01*
X0105243Y0141043D01*
X0104098Y0141043D02*
X0103648Y0140592D01*
X0102297Y0140592D01*
X0102297Y0143295D01*
X0103648Y0143295D01*
X0104098Y0142844D01*
X0104098Y0142394D01*
X0103648Y0141944D01*
X0102297Y0141944D01*
X0103648Y0141944D02*
X0104098Y0141493D01*
X0104098Y0141043D01*
X0106144Y0141944D02*
X0106594Y0141944D01*
X0107045Y0141493D01*
X0107045Y0141043D01*
X0106594Y0141944D02*
X0107045Y0142394D01*
X0107045Y0142844D01*
X0106594Y0143295D01*
X0105693Y0143295D01*
X0105243Y0142844D01*
X0101152Y0143295D02*
X0099350Y0143295D01*
X0099350Y0140592D01*
X0099350Y0141944D02*
X0100251Y0141944D01*
X0080850Y0142936D02*
X0080400Y0142486D01*
X0078598Y0144287D01*
X0080400Y0144287D01*
X0080850Y0143837D01*
X0080850Y0142936D01*
X0080400Y0142486D02*
X0078598Y0142486D01*
X0078148Y0142936D01*
X0078148Y0143837D01*
X0078598Y0144287D01*
X0078598Y0145432D02*
X0078148Y0145882D01*
X0078148Y0146783D01*
X0078598Y0147234D01*
X0079048Y0147234D01*
X0080850Y0145432D01*
X0080850Y0147234D01*
X0078598Y0141341D02*
X0080400Y0139539D01*
X0080850Y0139539D01*
X0080400Y0138394D02*
X0080850Y0137944D01*
X0080850Y0137043D01*
X0080400Y0136592D01*
X0078598Y0136592D01*
X0078148Y0137043D01*
X0078148Y0137944D01*
X0078598Y0138394D01*
X0078148Y0139539D02*
X0078148Y0141341D01*
X0078598Y0141341D01*
X0078598Y0132234D02*
X0078148Y0131783D01*
X0078148Y0130882D01*
X0078598Y0130432D01*
X0078598Y0129287D02*
X0080400Y0127486D01*
X0080850Y0127936D01*
X0080850Y0128837D01*
X0080400Y0129287D01*
X0078598Y0129287D01*
X0078148Y0128837D01*
X0078148Y0127936D01*
X0078598Y0127486D01*
X0080400Y0127486D01*
X0080400Y0126341D02*
X0079949Y0126341D01*
X0079499Y0125890D01*
X0079499Y0124539D01*
X0080400Y0124539D01*
X0080850Y0124989D01*
X0080850Y0125890D01*
X0080400Y0126341D01*
X0078598Y0125440D02*
X0079499Y0124539D01*
X0078598Y0125440D02*
X0078148Y0126341D01*
X0078598Y0123394D02*
X0078148Y0122944D01*
X0078148Y0122043D01*
X0078598Y0121592D01*
X0080400Y0121592D01*
X0080850Y0122043D01*
X0080850Y0122944D01*
X0080400Y0123394D01*
X0090350Y0123043D02*
X0090800Y0122592D01*
X0091701Y0122592D01*
X0092152Y0123043D01*
X0093297Y0122592D02*
X0095098Y0122592D01*
X0094197Y0122592D02*
X0094197Y0125295D01*
X0093297Y0124394D01*
X0092152Y0124844D02*
X0091701Y0125295D01*
X0090800Y0125295D01*
X0090350Y0124844D01*
X0090350Y0123043D01*
X0096243Y0122592D02*
X0098045Y0124394D01*
X0098045Y0124844D01*
X0097594Y0125295D01*
X0096693Y0125295D01*
X0096243Y0124844D01*
X0099190Y0124394D02*
X0100090Y0125295D01*
X0100090Y0122592D01*
X0099190Y0122592D02*
X0100991Y0122592D01*
X0098045Y0122592D02*
X0096243Y0122592D01*
X0080850Y0130432D02*
X0079048Y0132234D01*
X0078598Y0132234D01*
X0080850Y0132234D02*
X0080850Y0130432D01*
X0050850Y0130432D02*
X0050850Y0132234D01*
X0050850Y0131333D02*
X0048148Y0131333D01*
X0049048Y0130432D01*
X0048598Y0129287D02*
X0050400Y0127486D01*
X0050850Y0127936D01*
X0050850Y0128837D01*
X0050400Y0129287D01*
X0048598Y0129287D01*
X0048148Y0128837D01*
X0048148Y0127936D01*
X0048598Y0127486D01*
X0050400Y0127486D01*
X0050400Y0126341D02*
X0049949Y0126341D01*
X0049499Y0125890D01*
X0049499Y0124539D01*
X0050400Y0124539D01*
X0050850Y0124989D01*
X0050850Y0125890D01*
X0050400Y0126341D01*
X0048598Y0125440D02*
X0049499Y0124539D01*
X0048598Y0125440D02*
X0048148Y0126341D01*
X0044850Y0126539D02*
X0044400Y0126539D01*
X0042598Y0128341D01*
X0042148Y0128341D01*
X0042148Y0126539D01*
X0042598Y0125394D02*
X0042148Y0124944D01*
X0042148Y0124043D01*
X0042598Y0123592D01*
X0044400Y0123592D01*
X0044850Y0124043D01*
X0044850Y0124944D01*
X0044400Y0125394D01*
X0048148Y0122944D02*
X0048148Y0122043D01*
X0048598Y0121592D01*
X0050400Y0121592D01*
X0050850Y0122043D01*
X0050850Y0122944D01*
X0050400Y0123394D01*
X0048598Y0123394D02*
X0048148Y0122944D01*
X0044400Y0129486D02*
X0042598Y0131287D01*
X0044400Y0131287D01*
X0044850Y0130837D01*
X0044850Y0129936D01*
X0044400Y0129486D01*
X0042598Y0129486D01*
X0042148Y0129936D01*
X0042148Y0130837D01*
X0042598Y0131287D01*
X0043048Y0132432D02*
X0042148Y0133333D01*
X0044850Y0133333D01*
X0044850Y0132432D02*
X0044850Y0134234D01*
X0032144Y0127795D02*
X0032144Y0125092D01*
X0031243Y0125092D02*
X0033045Y0125092D01*
X0031243Y0126894D02*
X0032144Y0127795D01*
X0030098Y0127344D02*
X0030098Y0126894D01*
X0029648Y0126444D01*
X0028297Y0126444D01*
X0029648Y0126444D02*
X0030098Y0125993D01*
X0030098Y0125543D01*
X0029648Y0125092D01*
X0028297Y0125092D01*
X0028297Y0127795D01*
X0029648Y0127795D01*
X0030098Y0127344D01*
X0027152Y0127795D02*
X0025350Y0127795D01*
X0025350Y0125092D01*
X0025350Y0126444D02*
X0026251Y0126444D01*
X0025098Y0146092D02*
X0023297Y0146092D01*
X0024197Y0146092D02*
X0024197Y0148795D01*
X0023297Y0147894D01*
X0022152Y0148344D02*
X0021701Y0148795D01*
X0020800Y0148795D01*
X0020350Y0148344D01*
X0020350Y0146543D01*
X0020800Y0146092D01*
X0021701Y0146092D01*
X0022152Y0146543D01*
X0041098Y0107234D02*
X0040648Y0106783D01*
X0040648Y0105882D01*
X0041098Y0105432D01*
X0041098Y0107234D02*
X0041548Y0107234D01*
X0043350Y0105432D01*
X0043350Y0107234D01*
X0043350Y0104287D02*
X0043350Y0102486D01*
X0043350Y0103386D02*
X0040648Y0103386D01*
X0041548Y0102486D01*
X0040648Y0101341D02*
X0043350Y0101341D01*
X0040648Y0099539D01*
X0043350Y0099539D01*
X0043350Y0098394D02*
X0042449Y0097493D01*
X0042449Y0097944D02*
X0042449Y0096592D01*
X0043350Y0096592D02*
X0040648Y0096592D01*
X0040648Y0097944D01*
X0041098Y0098394D01*
X0041999Y0098394D01*
X0042449Y0097944D01*
X0043350Y0089734D02*
X0043350Y0087932D01*
X0043350Y0088833D02*
X0040648Y0088833D01*
X0041548Y0087932D01*
X0043350Y0086787D02*
X0043350Y0084986D01*
X0043350Y0085886D02*
X0040648Y0085886D01*
X0041548Y0084986D01*
X0040648Y0083841D02*
X0043350Y0083841D01*
X0040648Y0082039D01*
X0043350Y0082039D01*
X0043350Y0080894D02*
X0042449Y0079993D01*
X0042449Y0080444D02*
X0042449Y0079092D01*
X0043350Y0079092D02*
X0040648Y0079092D01*
X0040648Y0080444D01*
X0041098Y0080894D01*
X0041999Y0080894D01*
X0042449Y0080444D01*
X0042900Y0075234D02*
X0041098Y0075234D01*
X0042900Y0073432D01*
X0043350Y0073882D01*
X0043350Y0074783D01*
X0042900Y0075234D01*
X0041098Y0075234D02*
X0040648Y0074783D01*
X0040648Y0073882D01*
X0041098Y0073432D01*
X0042900Y0073432D01*
X0043350Y0072287D02*
X0043350Y0070486D01*
X0043350Y0071386D02*
X0040648Y0071386D01*
X0041548Y0070486D01*
X0040648Y0069341D02*
X0043350Y0069341D01*
X0040648Y0067539D01*
X0043350Y0067539D01*
X0043350Y0066394D02*
X0042449Y0065493D01*
X0042449Y0065944D02*
X0042449Y0064592D01*
X0043350Y0064592D02*
X0040648Y0064592D01*
X0040648Y0065944D01*
X0041098Y0066394D01*
X0041999Y0066394D01*
X0042449Y0065944D01*
X0053850Y0065295D02*
X0053850Y0062592D01*
X0053850Y0063493D02*
X0055201Y0063493D01*
X0055652Y0063944D01*
X0055652Y0064844D01*
X0055201Y0065295D01*
X0053850Y0065295D01*
X0054751Y0063493D02*
X0055652Y0062592D01*
X0056797Y0062592D02*
X0058598Y0062592D01*
X0057697Y0062592D02*
X0057697Y0065295D01*
X0056797Y0064394D01*
X0059743Y0063944D02*
X0059743Y0065295D01*
X0061545Y0065295D01*
X0061094Y0064394D02*
X0061545Y0063944D01*
X0061545Y0063043D01*
X0061094Y0062592D01*
X0060193Y0062592D01*
X0059743Y0063043D01*
X0059743Y0063944D02*
X0060644Y0064394D01*
X0061094Y0064394D01*
X0057094Y0053795D02*
X0055743Y0052444D01*
X0057545Y0052444D01*
X0057094Y0053795D02*
X0057094Y0051092D01*
X0054598Y0051543D02*
X0054148Y0051092D01*
X0052797Y0051092D01*
X0052797Y0053795D01*
X0054148Y0053795D01*
X0054598Y0053344D01*
X0054598Y0052894D01*
X0054148Y0052444D01*
X0052797Y0052444D01*
X0054148Y0052444D02*
X0054598Y0051993D01*
X0054598Y0051543D01*
X0050751Y0052444D02*
X0049850Y0052444D01*
X0049850Y0053795D02*
X0049850Y0051092D01*
X0046491Y0051092D02*
X0044690Y0051092D01*
X0045590Y0051092D02*
X0045590Y0053795D01*
X0044690Y0052894D01*
X0043545Y0053344D02*
X0041743Y0051543D01*
X0042193Y0051092D01*
X0043094Y0051092D01*
X0043545Y0051543D01*
X0043545Y0053344D01*
X0043094Y0053795D01*
X0042193Y0053795D01*
X0041743Y0053344D01*
X0041743Y0051543D01*
X0040598Y0051543D02*
X0040148Y0051092D01*
X0039247Y0051092D01*
X0038797Y0051543D01*
X0038797Y0051993D01*
X0039247Y0052444D01*
X0040148Y0052444D01*
X0040598Y0051993D01*
X0040598Y0051543D01*
X0040148Y0052444D02*
X0040598Y0052894D01*
X0040598Y0053344D01*
X0040148Y0053795D01*
X0039247Y0053795D01*
X0038797Y0053344D01*
X0038797Y0052894D01*
X0039247Y0052444D01*
X0037652Y0053344D02*
X0037201Y0053795D01*
X0036300Y0053795D01*
X0035850Y0053344D01*
X0035850Y0051543D01*
X0036300Y0051092D01*
X0037201Y0051092D01*
X0037652Y0051543D01*
X0037900Y0049242D02*
X0031600Y0049242D01*
X0031600Y0044442D01*
X0037900Y0044442D01*
X0037900Y0049242D01*
X0037900Y0049201D02*
X0031600Y0049201D01*
X0031600Y0048703D02*
X0037900Y0048703D01*
X0037900Y0048204D02*
X0031600Y0048204D01*
X0031600Y0047706D02*
X0037900Y0047706D01*
X0037900Y0047207D02*
X0031600Y0047207D01*
X0031600Y0046709D02*
X0037900Y0046709D01*
X0037900Y0046210D02*
X0031600Y0046210D01*
X0031600Y0045711D02*
X0037900Y0045711D01*
X0037899Y0045327D02*
X0037899Y0044342D01*
X0037899Y0043358D01*
X0037900Y0044714D02*
X0031600Y0044714D01*
X0031600Y0045213D02*
X0037900Y0045213D01*
X0033175Y0049264D02*
X0030025Y0049264D01*
X0025301Y0045327D02*
X0025301Y0043358D01*
X0030025Y0039421D02*
X0033175Y0039421D01*
X0049850Y0053795D02*
X0051652Y0053795D01*
X0071850Y0044295D02*
X0071850Y0041592D01*
X0071850Y0042493D02*
X0073201Y0042493D01*
X0073652Y0042944D01*
X0073652Y0043844D01*
X0073201Y0044295D01*
X0071850Y0044295D01*
X0072751Y0042493D02*
X0073652Y0041592D01*
X0074797Y0041592D02*
X0076598Y0041592D01*
X0075697Y0041592D02*
X0075697Y0044295D01*
X0074797Y0043394D01*
X0077743Y0042944D02*
X0079545Y0042944D01*
X0079094Y0044295D02*
X0079094Y0041592D01*
X0077743Y0042944D02*
X0079094Y0044295D01*
X0209454Y0014842D02*
X0212638Y0015479D01*
X0213448Y0014670D02*
X0214403Y0013714D01*
X0214403Y0013077D01*
X0213766Y0012440D01*
X0213129Y0012440D01*
X0212174Y0013396D01*
X0212811Y0012759D02*
X0212811Y0011485D01*
X0213939Y0010994D02*
X0213939Y0010357D01*
X0214576Y0009720D01*
X0215213Y0009720D01*
X0215531Y0010038D01*
X0215531Y0010675D01*
X0214894Y0011312D01*
X0214894Y0011949D01*
X0215213Y0012268D01*
X0215850Y0012268D01*
X0216487Y0011631D01*
X0216487Y0010994D01*
X0217615Y0010503D02*
X0218889Y0009229D01*
X0218252Y0009866D02*
X0216341Y0007955D01*
X0211537Y0012759D02*
X0213448Y0014670D01*
X0224454Y0014842D02*
X0227638Y0015479D01*
X0228129Y0014351D02*
X0226856Y0013077D01*
X0226856Y0012440D01*
X0227492Y0011804D01*
X0228129Y0011804D01*
X0229403Y0013077D02*
X0229403Y0013714D01*
X0228766Y0014351D01*
X0228129Y0014351D01*
X0237272Y0015024D02*
X0237909Y0014387D01*
X0238546Y0014387D01*
X0237272Y0015024D02*
X0237272Y0015661D01*
X0238546Y0016935D01*
X0239183Y0016935D01*
X0239820Y0016298D01*
X0239820Y0015661D01*
X0240311Y0014533D02*
X0240948Y0013896D01*
X0240948Y0014533D02*
X0239674Y0013259D01*
X0239674Y0012622D01*
X0240426Y0011870D02*
X0241700Y0013144D01*
X0241063Y0012507D02*
X0242337Y0012507D01*
X0242655Y0012188D01*
X0244073Y0012045D02*
X0244392Y0011726D01*
X0242481Y0009815D01*
X0242799Y0009497D02*
X0242162Y0010134D01*
X0224098Y0031092D02*
X0222297Y0031092D01*
X0224098Y0032894D01*
X0224098Y0033344D01*
X0223648Y0033795D01*
X0222747Y0033795D01*
X0222297Y0033344D01*
X0221152Y0033344D02*
X0220701Y0033795D01*
X0219800Y0033795D01*
X0219350Y0033344D01*
X0219350Y0031543D01*
X0219800Y0031092D01*
X0220701Y0031092D01*
X0221152Y0031543D01*
X0232850Y0042592D02*
X0232850Y0045295D01*
X0234652Y0045295D01*
X0235797Y0045295D02*
X0237148Y0045295D01*
X0237598Y0044844D01*
X0237598Y0044394D01*
X0237148Y0043944D01*
X0235797Y0043944D01*
X0237148Y0043944D02*
X0237598Y0043493D01*
X0237598Y0043043D01*
X0237148Y0042592D01*
X0235797Y0042592D01*
X0235797Y0045295D01*
X0233751Y0043944D02*
X0232850Y0043944D01*
X0238743Y0044844D02*
X0239193Y0045295D01*
X0240094Y0045295D01*
X0240545Y0044844D01*
X0240545Y0044394D01*
X0238743Y0042592D01*
X0240545Y0042592D01*
X0230350Y0058092D02*
X0227648Y0058092D01*
X0227648Y0059444D01*
X0228098Y0059894D01*
X0228999Y0059894D01*
X0229449Y0059444D01*
X0229449Y0058092D01*
X0229449Y0058993D02*
X0230350Y0059894D01*
X0230350Y0061039D02*
X0227648Y0061039D01*
X0230350Y0062841D01*
X0227648Y0062841D01*
X0228098Y0063986D02*
X0227648Y0064436D01*
X0227648Y0065337D01*
X0228098Y0065787D01*
X0228548Y0065787D01*
X0230350Y0063986D01*
X0230350Y0065787D01*
X0229900Y0066932D02*
X0230350Y0067382D01*
X0230350Y0068283D01*
X0229900Y0068734D01*
X0229449Y0068734D01*
X0228999Y0068283D01*
X0228999Y0067833D01*
X0228999Y0068283D02*
X0228548Y0068734D01*
X0228098Y0068734D01*
X0227648Y0068283D01*
X0227648Y0067382D01*
X0228098Y0066932D01*
D13*
X0004230Y0036378D02*
X0004230Y0003307D01*
X0036187Y0003307D01*
X0051013Y0003307D01*
X0051013Y0009409D01*
X0036187Y0009409D01*
X0036187Y0003307D01*
X0036187Y0006949D02*
X0008659Y0006949D01*
X0008659Y0032736D01*
X0078541Y0032736D01*
X0078541Y0006949D01*
X0051013Y0006949D01*
X0051013Y0003307D02*
X0061155Y0003307D01*
X0061155Y0004488D01*
X0066978Y0004488D01*
X0066978Y0003307D01*
X0082970Y0003307D01*
X0082970Y0036378D01*
X0004230Y0036378D01*
X0070375Y0072955D02*
X0122712Y0020618D01*
X0125487Y0020618D01*
X0177825Y0072955D01*
X0177825Y0075730D01*
X0125487Y0128067D01*
X0122712Y0128067D01*
X0070375Y0075730D01*
X0070375Y0072955D01*
X0077589Y0074342D02*
X0077591Y0074430D01*
X0077597Y0074518D01*
X0077607Y0074606D01*
X0077621Y0074694D01*
X0077638Y0074780D01*
X0077660Y0074866D01*
X0077685Y0074950D01*
X0077715Y0075034D01*
X0077747Y0075116D01*
X0077784Y0075196D01*
X0077824Y0075275D01*
X0077868Y0075352D01*
X0077915Y0075427D01*
X0077965Y0075499D01*
X0078019Y0075570D01*
X0078075Y0075637D01*
X0078135Y0075703D01*
X0078197Y0075765D01*
X0078263Y0075825D01*
X0078330Y0075881D01*
X0078401Y0075935D01*
X0078473Y0075985D01*
X0078548Y0076032D01*
X0078625Y0076076D01*
X0078704Y0076116D01*
X0078784Y0076153D01*
X0078866Y0076185D01*
X0078950Y0076215D01*
X0079034Y0076240D01*
X0079120Y0076262D01*
X0079206Y0076279D01*
X0079294Y0076293D01*
X0079382Y0076303D01*
X0079470Y0076309D01*
X0079558Y0076311D01*
X0079646Y0076309D01*
X0079734Y0076303D01*
X0079822Y0076293D01*
X0079910Y0076279D01*
X0079996Y0076262D01*
X0080082Y0076240D01*
X0080166Y0076215D01*
X0080250Y0076185D01*
X0080332Y0076153D01*
X0080412Y0076116D01*
X0080491Y0076076D01*
X0080568Y0076032D01*
X0080643Y0075985D01*
X0080715Y0075935D01*
X0080786Y0075881D01*
X0080853Y0075825D01*
X0080919Y0075765D01*
X0080981Y0075703D01*
X0081041Y0075637D01*
X0081097Y0075570D01*
X0081151Y0075499D01*
X0081201Y0075427D01*
X0081248Y0075352D01*
X0081292Y0075275D01*
X0081332Y0075196D01*
X0081369Y0075116D01*
X0081401Y0075034D01*
X0081431Y0074950D01*
X0081456Y0074866D01*
X0081478Y0074780D01*
X0081495Y0074694D01*
X0081509Y0074606D01*
X0081519Y0074518D01*
X0081525Y0074430D01*
X0081527Y0074342D01*
X0081525Y0074254D01*
X0081519Y0074166D01*
X0081509Y0074078D01*
X0081495Y0073990D01*
X0081478Y0073904D01*
X0081456Y0073818D01*
X0081431Y0073734D01*
X0081401Y0073650D01*
X0081369Y0073568D01*
X0081332Y0073488D01*
X0081292Y0073409D01*
X0081248Y0073332D01*
X0081201Y0073257D01*
X0081151Y0073185D01*
X0081097Y0073114D01*
X0081041Y0073047D01*
X0080981Y0072981D01*
X0080919Y0072919D01*
X0080853Y0072859D01*
X0080786Y0072803D01*
X0080715Y0072749D01*
X0080643Y0072699D01*
X0080568Y0072652D01*
X0080491Y0072608D01*
X0080412Y0072568D01*
X0080332Y0072531D01*
X0080250Y0072499D01*
X0080166Y0072469D01*
X0080082Y0072444D01*
X0079996Y0072422D01*
X0079910Y0072405D01*
X0079822Y0072391D01*
X0079734Y0072381D01*
X0079646Y0072375D01*
X0079558Y0072373D01*
X0079470Y0072375D01*
X0079382Y0072381D01*
X0079294Y0072391D01*
X0079206Y0072405D01*
X0079120Y0072422D01*
X0079034Y0072444D01*
X0078950Y0072469D01*
X0078866Y0072499D01*
X0078784Y0072531D01*
X0078704Y0072568D01*
X0078625Y0072608D01*
X0078548Y0072652D01*
X0078473Y0072699D01*
X0078401Y0072749D01*
X0078330Y0072803D01*
X0078263Y0072859D01*
X0078197Y0072919D01*
X0078135Y0072981D01*
X0078075Y0073047D01*
X0078019Y0073114D01*
X0077965Y0073185D01*
X0077915Y0073257D01*
X0077868Y0073332D01*
X0077824Y0073409D01*
X0077784Y0073488D01*
X0077747Y0073568D01*
X0077715Y0073650D01*
X0077685Y0073734D01*
X0077660Y0073818D01*
X0077638Y0073904D01*
X0077621Y0073990D01*
X0077607Y0074078D01*
X0077597Y0074166D01*
X0077591Y0074254D01*
X0077589Y0074342D01*
X0183500Y0028446D02*
X0183500Y0024242D01*
X0186302Y0024242D02*
X0186302Y0028446D01*
X0188104Y0026344D02*
X0190206Y0026344D01*
X0190906Y0025644D01*
X0190906Y0024943D01*
X0190206Y0024242D01*
X0188805Y0024242D01*
X0188104Y0024943D01*
X0188104Y0026344D01*
X0189505Y0027745D01*
X0190906Y0028446D01*
X0192708Y0026344D02*
X0195510Y0026344D01*
X0194810Y0024242D02*
X0194810Y0028446D01*
X0192708Y0026344D01*
X0186302Y0024242D02*
X0183500Y0028446D01*
D14*
X0130376Y0003842D02*
X0130378Y0003871D01*
X0130384Y0003900D01*
X0130393Y0003928D01*
X0130406Y0003954D01*
X0130422Y0003978D01*
X0130442Y0004000D01*
X0130464Y0004020D01*
X0130488Y0004036D01*
X0130514Y0004049D01*
X0130542Y0004058D01*
X0130571Y0004064D01*
X0130600Y0004066D01*
X0130629Y0004064D01*
X0130658Y0004058D01*
X0130686Y0004049D01*
X0130712Y0004036D01*
X0130736Y0004020D01*
X0130758Y0004000D01*
X0130778Y0003978D01*
X0130794Y0003954D01*
X0130807Y0003928D01*
X0130816Y0003900D01*
X0130822Y0003871D01*
X0130824Y0003842D01*
X0130822Y0003813D01*
X0130816Y0003784D01*
X0130807Y0003756D01*
X0130794Y0003730D01*
X0130778Y0003706D01*
X0130758Y0003684D01*
X0130736Y0003664D01*
X0130712Y0003648D01*
X0130686Y0003635D01*
X0130658Y0003626D01*
X0130629Y0003620D01*
X0130600Y0003618D01*
X0130571Y0003620D01*
X0130542Y0003626D01*
X0130514Y0003635D01*
X0130488Y0003648D01*
X0130464Y0003664D01*
X0130442Y0003684D01*
X0130422Y0003706D01*
X0130406Y0003730D01*
X0130393Y0003756D01*
X0130384Y0003784D01*
X0130378Y0003813D01*
X0130376Y0003842D01*
X0104876Y0003842D02*
X0104878Y0003871D01*
X0104884Y0003900D01*
X0104893Y0003928D01*
X0104906Y0003954D01*
X0104922Y0003978D01*
X0104942Y0004000D01*
X0104964Y0004020D01*
X0104988Y0004036D01*
X0105014Y0004049D01*
X0105042Y0004058D01*
X0105071Y0004064D01*
X0105100Y0004066D01*
X0105129Y0004064D01*
X0105158Y0004058D01*
X0105186Y0004049D01*
X0105212Y0004036D01*
X0105236Y0004020D01*
X0105258Y0004000D01*
X0105278Y0003978D01*
X0105294Y0003954D01*
X0105307Y0003928D01*
X0105316Y0003900D01*
X0105322Y0003871D01*
X0105324Y0003842D01*
X0105322Y0003813D01*
X0105316Y0003784D01*
X0105307Y0003756D01*
X0105294Y0003730D01*
X0105278Y0003706D01*
X0105258Y0003684D01*
X0105236Y0003664D01*
X0105212Y0003648D01*
X0105186Y0003635D01*
X0105158Y0003626D01*
X0105129Y0003620D01*
X0105100Y0003618D01*
X0105071Y0003620D01*
X0105042Y0003626D01*
X0105014Y0003635D01*
X0104988Y0003648D01*
X0104964Y0003664D01*
X0104942Y0003684D01*
X0104922Y0003706D01*
X0104906Y0003730D01*
X0104893Y0003756D01*
X0104884Y0003784D01*
X0104878Y0003813D01*
X0104876Y0003842D01*
X0085876Y0021342D02*
X0085878Y0021371D01*
X0085884Y0021400D01*
X0085893Y0021428D01*
X0085906Y0021454D01*
X0085922Y0021478D01*
X0085942Y0021500D01*
X0085964Y0021520D01*
X0085988Y0021536D01*
X0086014Y0021549D01*
X0086042Y0021558D01*
X0086071Y0021564D01*
X0086100Y0021566D01*
X0086129Y0021564D01*
X0086158Y0021558D01*
X0086186Y0021549D01*
X0086212Y0021536D01*
X0086236Y0021520D01*
X0086258Y0021500D01*
X0086278Y0021478D01*
X0086294Y0021454D01*
X0086307Y0021428D01*
X0086316Y0021400D01*
X0086322Y0021371D01*
X0086324Y0021342D01*
X0086322Y0021313D01*
X0086316Y0021284D01*
X0086307Y0021256D01*
X0086294Y0021230D01*
X0086278Y0021206D01*
X0086258Y0021184D01*
X0086236Y0021164D01*
X0086212Y0021148D01*
X0086186Y0021135D01*
X0086158Y0021126D01*
X0086129Y0021120D01*
X0086100Y0021118D01*
X0086071Y0021120D01*
X0086042Y0021126D01*
X0086014Y0021135D01*
X0085988Y0021148D01*
X0085964Y0021164D01*
X0085942Y0021184D01*
X0085922Y0021206D01*
X0085906Y0021230D01*
X0085893Y0021256D01*
X0085884Y0021284D01*
X0085878Y0021313D01*
X0085876Y0021342D01*
X0117376Y0148342D02*
X0117378Y0148371D01*
X0117384Y0148400D01*
X0117393Y0148428D01*
X0117406Y0148454D01*
X0117422Y0148478D01*
X0117442Y0148500D01*
X0117464Y0148520D01*
X0117488Y0148536D01*
X0117514Y0148549D01*
X0117542Y0148558D01*
X0117571Y0148564D01*
X0117600Y0148566D01*
X0117629Y0148564D01*
X0117658Y0148558D01*
X0117686Y0148549D01*
X0117712Y0148536D01*
X0117736Y0148520D01*
X0117758Y0148500D01*
X0117778Y0148478D01*
X0117794Y0148454D01*
X0117807Y0148428D01*
X0117816Y0148400D01*
X0117822Y0148371D01*
X0117824Y0148342D01*
X0117822Y0148313D01*
X0117816Y0148284D01*
X0117807Y0148256D01*
X0117794Y0148230D01*
X0117778Y0148206D01*
X0117758Y0148184D01*
X0117736Y0148164D01*
X0117712Y0148148D01*
X0117686Y0148135D01*
X0117658Y0148126D01*
X0117629Y0148120D01*
X0117600Y0148118D01*
X0117571Y0148120D01*
X0117542Y0148126D01*
X0117514Y0148135D01*
X0117488Y0148148D01*
X0117464Y0148164D01*
X0117442Y0148184D01*
X0117422Y0148206D01*
X0117406Y0148230D01*
X0117393Y0148256D01*
X0117384Y0148284D01*
X0117378Y0148313D01*
X0117376Y0148342D01*
D15*
X0171338Y0046122D02*
X0174085Y0047085D01*
X0176869Y0046134D01*
X0174192Y0045075D01*
X0171338Y0046122D01*
X0169756Y0043232D01*
X0171076Y0040555D01*
X0171076Y0034585D01*
X0167091Y0042328D01*
X0169685Y0043374D01*
X0171076Y0040555D01*
X0171076Y0040686D01*
X0174228Y0039402D01*
X0174228Y0027472D01*
X0171279Y0028685D01*
X0166961Y0036535D01*
X0166961Y0030458D01*
X0164118Y0031623D01*
X0164118Y0043540D01*
X0167091Y0042328D01*
X0166854Y0044433D02*
X0164118Y0043540D01*
X0166854Y0044433D02*
X0169685Y0043374D01*
X0171076Y0040686D02*
X0174192Y0041935D01*
X0177297Y0040663D01*
X0181317Y0034965D01*
X0181317Y0042304D01*
X0184326Y0043540D01*
X0184326Y0031623D01*
X0181471Y0030446D01*
X0177189Y0035976D01*
X0177189Y0032884D01*
X0177189Y0028697D01*
X0174228Y0027472D01*
X0178165Y0031588D02*
X0181471Y0030446D01*
X0178165Y0031588D02*
X0177189Y0032884D01*
X0169685Y0031576D02*
X0166961Y0030458D01*
X0169685Y0031576D02*
X0166961Y0036535D01*
X0171076Y0040686D02*
X0171802Y0040972D01*
X0174192Y0041935D01*
X0176309Y0041067D01*
X0178533Y0043362D01*
X0181317Y0042304D01*
X0181471Y0044576D02*
X0178533Y0043362D01*
X0176869Y0041650D02*
X0176869Y0046134D01*
X0174192Y0045075D02*
X0171802Y0040972D01*
X0174228Y0039402D02*
X0177297Y0040663D01*
X0176309Y0041067D01*
X0181471Y0044576D02*
X0184326Y0043540D01*
D16*
X0233647Y0055240D02*
X0239553Y0055240D01*
X0239553Y0067445D02*
X0233647Y0067445D01*
X0201053Y0135240D02*
X0195147Y0135240D01*
X0195147Y0147445D02*
X0201053Y0147445D01*
X0037053Y0107945D02*
X0031147Y0107945D01*
X0031147Y0095740D02*
X0037053Y0095740D01*
X0037053Y0090445D02*
X0031147Y0090445D01*
X0031147Y0078240D02*
X0037053Y0078240D01*
X0037053Y0072945D02*
X0031147Y0072945D01*
X0031147Y0060740D02*
X0037053Y0060740D01*
M02*
