G75*
%MOIN*%
%OFA0B0*%
%FSLAX25Y25*%
%IPPOS*%
%LPD*%
%AMOC8*
5,1,8,0,0,1.08239X$1,22.5*
%
%ADD10C,0.00000*%
%ADD11C,0.00600*%
%ADD12C,0.00500*%
%ADD13C,0.00800*%
%ADD14C,0.01200*%
%ADD15C,0.00787*%
%ADD16C,0.00400*%
D10*
X0003100Y0006600D02*
X0008100Y0001600D01*
X0226100Y0001600D01*
X0230100Y0005600D01*
X0234100Y0005600D01*
X0238100Y0001600D01*
X0239600Y0001600D01*
X0243600Y0005600D01*
X0247100Y0005600D01*
X0251100Y0001600D01*
X0252100Y0001600D01*
X0257100Y0006600D01*
X0257100Y0106600D01*
X0237600Y0126100D01*
X0237600Y0147600D01*
X0235100Y0150100D01*
X0015600Y0150100D01*
X0003100Y0137600D01*
X0003100Y0006600D01*
X0037899Y0044100D02*
X0038883Y0044100D01*
D11*
X0042038Y0042850D02*
X0042038Y0045350D01*
X0045162Y0045350D02*
X0045162Y0042850D01*
X0050037Y0042850D02*
X0050037Y0045350D01*
X0053162Y0045350D02*
X0053162Y0042850D01*
X0063850Y0041538D02*
X0066350Y0041538D01*
X0066350Y0044662D02*
X0063850Y0044662D01*
X0058850Y0057037D02*
X0056350Y0057037D01*
X0056350Y0060162D02*
X0058850Y0060162D01*
X0060467Y0072400D02*
X0061601Y0072400D01*
X0062169Y0072967D01*
X0062169Y0075803D01*
X0063583Y0074669D02*
X0064717Y0075803D01*
X0064717Y0072400D01*
X0063583Y0072400D02*
X0065852Y0072400D01*
X0060467Y0072400D02*
X0059900Y0072967D01*
X0059900Y0075803D01*
X0025035Y0053236D02*
X0024468Y0053803D01*
X0022766Y0053803D01*
X0022766Y0050400D01*
X0024468Y0050400D01*
X0025035Y0050967D01*
X0025035Y0053236D01*
X0021352Y0053803D02*
X0021352Y0050400D01*
X0019083Y0053803D01*
X0019083Y0050400D01*
X0017669Y0050967D02*
X0017669Y0052101D01*
X0016534Y0052101D01*
X0015400Y0050967D02*
X0015967Y0050400D01*
X0017101Y0050400D01*
X0017669Y0050967D01*
X0017669Y0053236D02*
X0017101Y0053803D01*
X0015967Y0053803D01*
X0015400Y0053236D01*
X0015400Y0050967D01*
X0017400Y0045803D02*
X0017400Y0042967D01*
X0017967Y0042400D01*
X0019101Y0042400D01*
X0019669Y0042967D01*
X0019669Y0045803D01*
X0021083Y0045236D02*
X0021083Y0044669D01*
X0021650Y0044101D01*
X0022785Y0044101D01*
X0023352Y0043534D01*
X0023352Y0042967D01*
X0022785Y0042400D01*
X0021650Y0042400D01*
X0021083Y0042967D01*
X0021083Y0043534D01*
X0021650Y0044101D01*
X0022785Y0044101D02*
X0023352Y0044669D01*
X0023352Y0045236D01*
X0022785Y0045803D01*
X0021650Y0045803D01*
X0021083Y0045236D01*
X0010852Y0042803D02*
X0008583Y0042803D01*
X0008583Y0041101D01*
X0009717Y0041669D01*
X0010285Y0041669D01*
X0010852Y0041101D01*
X0010852Y0039967D01*
X0010285Y0039400D01*
X0009150Y0039400D01*
X0008583Y0039967D01*
X0006601Y0039967D02*
X0006034Y0039400D01*
X0005467Y0039400D01*
X0004900Y0039967D01*
X0006601Y0039967D02*
X0006601Y0042803D01*
X0006034Y0042803D02*
X0007169Y0042803D01*
X0013100Y0059600D02*
X0016600Y0059600D01*
X0014600Y0060100D02*
X0014100Y0061100D01*
X0015100Y0061100D02*
X0014600Y0060100D01*
X0014600Y0066600D01*
X0016300Y0067692D02*
X0012897Y0067692D01*
X0012897Y0069394D01*
X0013464Y0069961D01*
X0015733Y0069961D01*
X0016300Y0069394D01*
X0016300Y0067692D01*
X0015733Y0071375D02*
X0013464Y0073644D01*
X0015733Y0073644D01*
X0016300Y0073077D01*
X0016300Y0071942D01*
X0015733Y0071375D01*
X0013464Y0071375D01*
X0012897Y0071942D01*
X0012897Y0073077D01*
X0013464Y0073644D01*
X0014599Y0075058D02*
X0014599Y0077327D01*
X0016300Y0078742D02*
X0012897Y0078742D01*
X0012897Y0080443D01*
X0013464Y0081010D01*
X0015733Y0081010D01*
X0016300Y0080443D01*
X0016300Y0078742D01*
X0015733Y0082425D02*
X0016300Y0082992D01*
X0016300Y0084126D01*
X0015733Y0084693D01*
X0015166Y0084693D01*
X0014599Y0084126D01*
X0014599Y0082425D01*
X0015733Y0082425D01*
X0014599Y0082425D02*
X0013464Y0083559D01*
X0012897Y0084693D01*
X0014600Y0086100D02*
X0014600Y0092600D01*
X0015100Y0091600D01*
X0014100Y0091600D02*
X0014600Y0092600D01*
X0013100Y0093100D02*
X0016600Y0093100D01*
X0017285Y0095400D02*
X0015583Y0095400D01*
X0015583Y0098803D01*
X0017285Y0098803D01*
X0017852Y0098236D01*
X0017852Y0095967D01*
X0017285Y0095400D01*
X0019266Y0095967D02*
X0019833Y0095400D01*
X0020968Y0095400D01*
X0021535Y0095967D01*
X0021535Y0096534D01*
X0020968Y0097101D01*
X0019833Y0097101D01*
X0019266Y0097669D01*
X0019266Y0098236D01*
X0019833Y0098803D01*
X0020968Y0098803D01*
X0021535Y0098236D01*
X0021722Y0100400D02*
X0021722Y0103803D01*
X0019833Y0103803D02*
X0019833Y0100400D01*
X0019266Y0100400D02*
X0020401Y0100400D01*
X0021722Y0101534D02*
X0023423Y0102669D01*
X0021722Y0101534D02*
X0023423Y0100400D01*
X0019833Y0103803D02*
X0019266Y0103803D01*
X0017852Y0103236D02*
X0017285Y0103803D01*
X0016150Y0103803D01*
X0015583Y0103236D01*
X0015583Y0100967D01*
X0016150Y0100400D01*
X0017285Y0100400D01*
X0017852Y0100967D01*
X0014169Y0098803D02*
X0011900Y0095400D01*
X0011900Y0100400D02*
X0014169Y0103803D01*
X0014266Y0122900D02*
X0015968Y0122900D01*
X0016535Y0123467D01*
X0016535Y0125736D01*
X0015968Y0126303D01*
X0014266Y0126303D01*
X0014266Y0122900D01*
X0012852Y0122900D02*
X0012852Y0126303D01*
X0010583Y0126303D02*
X0012852Y0122900D01*
X0010583Y0122900D02*
X0010583Y0126303D01*
X0009169Y0125736D02*
X0008601Y0126303D01*
X0007467Y0126303D01*
X0006900Y0125736D01*
X0006900Y0123467D01*
X0007467Y0122900D01*
X0008601Y0122900D01*
X0009169Y0123467D01*
X0009169Y0124601D01*
X0008034Y0124601D01*
X0011150Y0135400D02*
X0010583Y0135967D01*
X0011150Y0135400D02*
X0012285Y0135400D01*
X0012852Y0135967D01*
X0012852Y0136534D01*
X0012285Y0137101D01*
X0011717Y0137101D01*
X0012285Y0137101D02*
X0012852Y0137669D01*
X0012852Y0138236D01*
X0012285Y0138803D01*
X0011150Y0138803D01*
X0010583Y0138236D01*
X0009169Y0137101D02*
X0006900Y0137101D01*
X0008034Y0135967D02*
X0008034Y0138236D01*
X0014266Y0138803D02*
X0014266Y0136534D01*
X0015401Y0135400D01*
X0016535Y0136534D01*
X0016535Y0138803D01*
X0017949Y0138236D02*
X0018517Y0138803D01*
X0019651Y0138803D01*
X0020218Y0138236D01*
X0020218Y0137669D01*
X0019651Y0137101D01*
X0020218Y0136534D01*
X0020218Y0135967D01*
X0019651Y0135400D01*
X0018517Y0135400D01*
X0017949Y0135967D01*
X0019084Y0137101D02*
X0019651Y0137101D01*
X0029350Y0133163D02*
X0031850Y0133163D01*
X0031850Y0130037D02*
X0029350Y0130037D01*
X0030100Y0139100D02*
X0033100Y0139100D01*
X0033100Y0144100D02*
X0030100Y0144100D01*
X0046100Y0135100D02*
X0051100Y0140100D01*
X0049100Y0139100D01*
X0050100Y0138100D02*
X0051100Y0140100D01*
X0052537Y0139850D02*
X0052537Y0142350D01*
X0055662Y0142350D02*
X0055662Y0139850D01*
X0058400Y0135803D02*
X0058400Y0132967D01*
X0058967Y0132400D01*
X0060101Y0132400D01*
X0060669Y0132967D01*
X0060669Y0135803D01*
X0062083Y0135803D02*
X0064352Y0135803D01*
X0064352Y0135236D01*
X0062083Y0132967D01*
X0062083Y0132400D01*
X0065909Y0132200D02*
X0065909Y0131827D01*
X0065909Y0132200D02*
X0072291Y0132200D01*
X0072291Y0131827D01*
X0072291Y0136000D02*
X0065909Y0136000D01*
X0065909Y0136373D01*
X0065909Y0139543D02*
X0065909Y0139917D01*
X0065909Y0143283D02*
X0065909Y0143657D01*
X0065909Y0146827D02*
X0065909Y0147200D01*
X0072291Y0147200D01*
X0072291Y0146827D01*
X0072291Y0143657D02*
X0072291Y0139543D01*
X0072291Y0136373D02*
X0072291Y0136000D01*
X0082538Y0140350D02*
X0082538Y0142850D01*
X0085663Y0142850D02*
X0085663Y0140350D01*
X0097850Y0138663D02*
X0100350Y0138663D01*
X0100350Y0135538D02*
X0097850Y0135538D01*
X0097600Y0131600D02*
X0100600Y0131600D01*
X0100600Y0126600D02*
X0097600Y0126600D01*
X0085663Y0127850D02*
X0085663Y0125350D01*
X0082538Y0125350D02*
X0082538Y0127850D01*
X0072291Y0128657D02*
X0072291Y0124543D01*
X0072291Y0121373D02*
X0072291Y0121000D01*
X0065909Y0121000D01*
X0065909Y0121373D01*
X0064352Y0120303D02*
X0063217Y0119736D01*
X0062083Y0118601D01*
X0063785Y0118601D01*
X0064352Y0118034D01*
X0064352Y0117467D01*
X0063785Y0116900D01*
X0062650Y0116900D01*
X0062083Y0117467D01*
X0062083Y0118601D01*
X0060669Y0117467D02*
X0060101Y0116900D01*
X0058967Y0116900D01*
X0058400Y0117467D01*
X0058400Y0120303D01*
X0060669Y0120303D02*
X0060669Y0117467D01*
X0065909Y0124543D02*
X0065909Y0124917D01*
X0065909Y0128283D02*
X0065909Y0128657D01*
X0055662Y0127850D02*
X0055662Y0125350D01*
X0052537Y0125350D02*
X0052537Y0127850D01*
X0046100Y0123100D02*
X0045600Y0122600D01*
X0046100Y0123100D02*
X0046100Y0135100D01*
X0114100Y0139100D02*
X0114100Y0145100D01*
X0114102Y0145160D01*
X0114107Y0145221D01*
X0114116Y0145280D01*
X0114129Y0145339D01*
X0114145Y0145398D01*
X0114165Y0145455D01*
X0114188Y0145510D01*
X0114215Y0145565D01*
X0114244Y0145617D01*
X0114277Y0145668D01*
X0114313Y0145717D01*
X0114351Y0145763D01*
X0114393Y0145807D01*
X0114437Y0145849D01*
X0114483Y0145887D01*
X0114532Y0145923D01*
X0114583Y0145956D01*
X0114635Y0145985D01*
X0114690Y0146012D01*
X0114745Y0146035D01*
X0114802Y0146055D01*
X0114861Y0146071D01*
X0114920Y0146084D01*
X0114979Y0146093D01*
X0115040Y0146098D01*
X0115100Y0146100D01*
X0132100Y0146100D01*
X0132160Y0146098D01*
X0132221Y0146093D01*
X0132280Y0146084D01*
X0132339Y0146071D01*
X0132398Y0146055D01*
X0132455Y0146035D01*
X0132510Y0146012D01*
X0132565Y0145985D01*
X0132617Y0145956D01*
X0132668Y0145923D01*
X0132717Y0145887D01*
X0132763Y0145849D01*
X0132807Y0145807D01*
X0132849Y0145763D01*
X0132887Y0145717D01*
X0132923Y0145668D01*
X0132956Y0145617D01*
X0132985Y0145565D01*
X0133012Y0145510D01*
X0133035Y0145455D01*
X0133055Y0145398D01*
X0133071Y0145339D01*
X0133084Y0145280D01*
X0133093Y0145221D01*
X0133098Y0145160D01*
X0133100Y0145100D01*
X0133100Y0139100D01*
X0133098Y0139040D01*
X0133093Y0138979D01*
X0133084Y0138920D01*
X0133071Y0138861D01*
X0133055Y0138802D01*
X0133035Y0138745D01*
X0133012Y0138690D01*
X0132985Y0138635D01*
X0132956Y0138583D01*
X0132923Y0138532D01*
X0132887Y0138483D01*
X0132849Y0138437D01*
X0132807Y0138393D01*
X0132763Y0138351D01*
X0132717Y0138313D01*
X0132668Y0138277D01*
X0132617Y0138244D01*
X0132565Y0138215D01*
X0132510Y0138188D01*
X0132455Y0138165D01*
X0132398Y0138145D01*
X0132339Y0138129D01*
X0132280Y0138116D01*
X0132221Y0138107D01*
X0132160Y0138102D01*
X0132100Y0138100D01*
X0115100Y0138100D01*
X0115040Y0138102D01*
X0114979Y0138107D01*
X0114920Y0138116D01*
X0114861Y0138129D01*
X0114802Y0138145D01*
X0114745Y0138165D01*
X0114690Y0138188D01*
X0114635Y0138215D01*
X0114583Y0138244D01*
X0114532Y0138277D01*
X0114483Y0138313D01*
X0114437Y0138351D01*
X0114393Y0138393D01*
X0114351Y0138437D01*
X0114313Y0138483D01*
X0114277Y0138532D01*
X0114244Y0138583D01*
X0114215Y0138635D01*
X0114188Y0138690D01*
X0114165Y0138745D01*
X0114145Y0138802D01*
X0114129Y0138861D01*
X0114116Y0138920D01*
X0114107Y0138979D01*
X0114102Y0139040D01*
X0114100Y0139100D01*
X0134900Y0140967D02*
X0135467Y0140400D01*
X0136034Y0140400D01*
X0136601Y0140967D01*
X0136601Y0143803D01*
X0136034Y0143803D02*
X0137169Y0143803D01*
X0138583Y0142669D02*
X0139717Y0143803D01*
X0139717Y0140400D01*
X0138583Y0140400D02*
X0140852Y0140400D01*
X0156900Y0145467D02*
X0157467Y0144900D01*
X0158601Y0144900D01*
X0159169Y0145467D01*
X0159169Y0148303D01*
X0160583Y0146601D02*
X0162852Y0146601D01*
X0162285Y0144900D02*
X0162285Y0148303D01*
X0160583Y0146601D01*
X0156900Y0145467D02*
X0156900Y0148303D01*
X0169850Y0123162D02*
X0172350Y0123162D01*
X0172350Y0120037D02*
X0169850Y0120037D01*
X0160663Y0117850D02*
X0160663Y0115350D01*
X0157538Y0115350D02*
X0157538Y0117850D01*
X0169850Y0113162D02*
X0172350Y0113162D01*
X0172350Y0110037D02*
X0169850Y0110037D01*
X0174900Y0106803D02*
X0174900Y0103967D01*
X0175467Y0103400D01*
X0176601Y0103400D01*
X0177169Y0103967D01*
X0177169Y0106803D01*
X0178583Y0106236D02*
X0179150Y0106803D01*
X0180285Y0106803D01*
X0180852Y0106236D01*
X0180852Y0105669D01*
X0180285Y0105101D01*
X0180852Y0104534D01*
X0180852Y0103967D01*
X0180285Y0103400D01*
X0179150Y0103400D01*
X0178583Y0103967D01*
X0179717Y0105101D02*
X0180285Y0105101D01*
X0182163Y0109139D02*
X0182163Y0110731D01*
X0190037Y0110731D01*
X0190037Y0109139D01*
X0182163Y0109139D01*
X0182163Y0110731D02*
X0182163Y0114061D01*
X0190037Y0114061D01*
X0190037Y0110731D01*
X0203600Y0109100D02*
X0208600Y0109100D01*
X0208600Y0104725D02*
X0203600Y0104725D01*
X0203600Y0098475D02*
X0208600Y0098475D01*
X0207108Y0090803D02*
X0208242Y0089669D01*
X0208242Y0088534D01*
X0207108Y0087400D01*
X0209563Y0086833D02*
X0211832Y0086833D01*
X0205693Y0090803D02*
X0203425Y0087400D01*
X0202010Y0086833D02*
X0199742Y0086833D01*
X0198327Y0086833D02*
X0196058Y0086833D01*
X0194737Y0088534D02*
X0194737Y0089669D01*
X0193603Y0090803D01*
X0192188Y0090803D02*
X0189920Y0087400D01*
X0188505Y0086833D02*
X0186237Y0086833D01*
X0184822Y0086833D02*
X0182554Y0086833D01*
X0193603Y0087400D02*
X0194737Y0088534D01*
X0189785Y0077303D02*
X0188650Y0077303D01*
X0188083Y0076736D01*
X0186669Y0077303D02*
X0186669Y0074467D01*
X0186101Y0073900D01*
X0184967Y0073900D01*
X0184400Y0074467D01*
X0184400Y0077303D01*
X0188083Y0073900D02*
X0190352Y0076169D01*
X0190352Y0076736D01*
X0189785Y0077303D01*
X0190352Y0073900D02*
X0188083Y0073900D01*
X0192320Y0068411D02*
X0194289Y0070380D01*
X0218895Y0070380D01*
X0219880Y0069395D01*
X0219880Y0043805D01*
X0218895Y0042820D01*
X0193305Y0042820D01*
X0192320Y0043805D01*
X0192320Y0068411D01*
X0194289Y0067427D02*
X0194291Y0067489D01*
X0194297Y0067552D01*
X0194307Y0067613D01*
X0194321Y0067674D01*
X0194338Y0067734D01*
X0194359Y0067793D01*
X0194385Y0067850D01*
X0194413Y0067905D01*
X0194445Y0067959D01*
X0194481Y0068010D01*
X0194519Y0068060D01*
X0194561Y0068106D01*
X0194605Y0068150D01*
X0194653Y0068191D01*
X0194702Y0068229D01*
X0194754Y0068263D01*
X0194808Y0068294D01*
X0194864Y0068322D01*
X0194922Y0068346D01*
X0194981Y0068367D01*
X0195041Y0068383D01*
X0195102Y0068396D01*
X0195164Y0068405D01*
X0195226Y0068410D01*
X0195289Y0068411D01*
X0195351Y0068408D01*
X0195413Y0068401D01*
X0195475Y0068390D01*
X0195535Y0068375D01*
X0195595Y0068357D01*
X0195653Y0068335D01*
X0195710Y0068309D01*
X0195765Y0068279D01*
X0195818Y0068246D01*
X0195869Y0068210D01*
X0195917Y0068171D01*
X0195963Y0068128D01*
X0196006Y0068083D01*
X0196046Y0068035D01*
X0196083Y0067985D01*
X0196117Y0067932D01*
X0196148Y0067878D01*
X0196174Y0067822D01*
X0196198Y0067764D01*
X0196217Y0067704D01*
X0196233Y0067644D01*
X0196245Y0067582D01*
X0196253Y0067521D01*
X0196257Y0067458D01*
X0196257Y0067396D01*
X0196253Y0067333D01*
X0196245Y0067272D01*
X0196233Y0067210D01*
X0196217Y0067150D01*
X0196198Y0067090D01*
X0196174Y0067032D01*
X0196148Y0066976D01*
X0196117Y0066922D01*
X0196083Y0066869D01*
X0196046Y0066819D01*
X0196006Y0066771D01*
X0195963Y0066726D01*
X0195917Y0066683D01*
X0195869Y0066644D01*
X0195818Y0066608D01*
X0195765Y0066575D01*
X0195710Y0066545D01*
X0195653Y0066519D01*
X0195595Y0066497D01*
X0195535Y0066479D01*
X0195475Y0066464D01*
X0195413Y0066453D01*
X0195351Y0066446D01*
X0195289Y0066443D01*
X0195226Y0066444D01*
X0195164Y0066449D01*
X0195102Y0066458D01*
X0195041Y0066471D01*
X0194981Y0066487D01*
X0194922Y0066508D01*
X0194864Y0066532D01*
X0194808Y0066560D01*
X0194754Y0066591D01*
X0194702Y0066625D01*
X0194653Y0066663D01*
X0194605Y0066704D01*
X0194561Y0066748D01*
X0194519Y0066794D01*
X0194481Y0066844D01*
X0194445Y0066895D01*
X0194413Y0066949D01*
X0194385Y0067004D01*
X0194359Y0067061D01*
X0194338Y0067120D01*
X0194321Y0067180D01*
X0194307Y0067241D01*
X0194297Y0067302D01*
X0194291Y0067365D01*
X0194289Y0067427D01*
X0230900Y0074400D02*
X0232601Y0074400D01*
X0233169Y0074967D01*
X0233169Y0075534D01*
X0232601Y0076101D01*
X0230900Y0076101D01*
X0230900Y0074400D02*
X0230900Y0077803D01*
X0232601Y0077803D01*
X0233169Y0077236D01*
X0233169Y0076669D01*
X0232601Y0076101D01*
X0234583Y0074400D02*
X0236852Y0077803D01*
X0238266Y0077803D02*
X0239968Y0077803D01*
X0240535Y0077236D01*
X0240535Y0076101D01*
X0239968Y0075534D01*
X0238266Y0075534D01*
X0238266Y0074400D02*
X0238266Y0077803D01*
X0241949Y0077803D02*
X0241949Y0074400D01*
X0243651Y0074400D01*
X0244218Y0074967D01*
X0244218Y0076101D01*
X0243651Y0076669D01*
X0241949Y0076669D01*
X0243084Y0081900D02*
X0243084Y0083601D01*
X0244218Y0084736D01*
X0244218Y0085303D01*
X0243084Y0083601D02*
X0241949Y0084736D01*
X0241949Y0085303D01*
X0240535Y0085303D02*
X0238266Y0081900D01*
X0236852Y0082467D02*
X0236285Y0083034D01*
X0235150Y0083034D01*
X0234583Y0083601D01*
X0235150Y0084169D01*
X0236852Y0084169D01*
X0236852Y0082467D02*
X0236285Y0081900D01*
X0234583Y0081900D01*
X0233169Y0082467D02*
X0233169Y0083601D01*
X0232034Y0083601D01*
X0230900Y0082467D02*
X0231467Y0081900D01*
X0232601Y0081900D01*
X0233169Y0082467D01*
X0230900Y0082467D02*
X0230900Y0084736D01*
X0231467Y0085303D01*
X0232601Y0085303D01*
X0233169Y0084736D01*
X0233169Y0089400D02*
X0232034Y0090534D01*
X0232601Y0090534D02*
X0230900Y0090534D01*
X0230900Y0089400D02*
X0230900Y0092803D01*
X0232601Y0092803D01*
X0233169Y0092236D01*
X0233169Y0091101D01*
X0232601Y0090534D01*
X0234583Y0089400D02*
X0236852Y0092803D01*
X0238266Y0092803D02*
X0239968Y0092803D01*
X0240535Y0092236D01*
X0240535Y0091101D01*
X0239968Y0090534D01*
X0238266Y0090534D01*
X0238266Y0089400D02*
X0238266Y0092803D01*
X0241949Y0091669D02*
X0241949Y0089400D01*
X0241949Y0090534D02*
X0243084Y0091669D01*
X0243651Y0091669D01*
X0225350Y0100037D02*
X0222850Y0100037D01*
X0222850Y0103162D02*
X0225350Y0103162D01*
X0233400Y0102900D02*
X0235669Y0106303D01*
X0237083Y0105736D02*
X0237083Y0103467D01*
X0237650Y0102900D01*
X0238785Y0102900D01*
X0239352Y0103467D01*
X0240766Y0103467D02*
X0241333Y0102900D01*
X0242468Y0102900D01*
X0243035Y0103467D01*
X0243035Y0104034D01*
X0242468Y0104601D01*
X0241333Y0104601D01*
X0240766Y0105169D01*
X0240766Y0105736D01*
X0241333Y0106303D01*
X0242468Y0106303D01*
X0243035Y0105736D01*
X0239352Y0105736D02*
X0238785Y0106303D01*
X0237650Y0106303D01*
X0237083Y0105736D01*
X0236968Y0119400D02*
X0235266Y0119400D01*
X0235266Y0122803D01*
X0236968Y0122803D01*
X0237535Y0122236D01*
X0237535Y0119967D01*
X0236968Y0119400D01*
X0233852Y0119400D02*
X0233852Y0122803D01*
X0231583Y0122803D02*
X0233852Y0119400D01*
X0231583Y0119400D02*
X0231583Y0122803D01*
X0230169Y0122236D02*
X0229601Y0122803D01*
X0228467Y0122803D01*
X0227900Y0122236D01*
X0227900Y0119967D01*
X0228467Y0119400D01*
X0229601Y0119400D01*
X0230169Y0119967D01*
X0230169Y0121101D01*
X0229034Y0121101D01*
X0224485Y0130400D02*
X0222217Y0130400D01*
X0224485Y0132669D01*
X0224485Y0133236D01*
X0223918Y0133803D01*
X0222784Y0133803D01*
X0222217Y0133236D01*
X0220802Y0133803D02*
X0218534Y0133803D01*
X0218534Y0130400D01*
X0217306Y0130400D02*
X0217306Y0133803D01*
X0215891Y0133236D02*
X0215324Y0133803D01*
X0214190Y0133803D01*
X0213623Y0133236D01*
X0213623Y0132669D01*
X0214190Y0132101D01*
X0215324Y0132101D01*
X0215891Y0131534D01*
X0215891Y0130967D01*
X0215324Y0130400D01*
X0214190Y0130400D01*
X0213623Y0130967D01*
X0212208Y0131534D02*
X0212208Y0133803D01*
X0209940Y0133803D02*
X0209940Y0131534D01*
X0211074Y0130400D01*
X0212208Y0131534D01*
X0208525Y0133803D02*
X0206257Y0130400D01*
X0205100Y0128600D02*
X0202100Y0128600D01*
X0202100Y0123600D02*
X0205100Y0123600D01*
X0203600Y0119100D02*
X0208600Y0119100D01*
X0187350Y0120037D02*
X0184850Y0120037D01*
X0184850Y0123162D02*
X0187350Y0123162D01*
X0206257Y0136900D02*
X0208525Y0140303D01*
X0209940Y0140303D02*
X0209940Y0136900D01*
X0209940Y0138601D02*
X0212208Y0138601D01*
X0213623Y0139169D02*
X0213623Y0139736D01*
X0214190Y0140303D01*
X0215324Y0140303D01*
X0215891Y0139736D01*
X0215324Y0138601D02*
X0215891Y0138034D01*
X0215891Y0137467D01*
X0215324Y0136900D01*
X0214190Y0136900D01*
X0213623Y0137467D01*
X0214190Y0138601D02*
X0215324Y0138601D01*
X0214190Y0138601D02*
X0213623Y0139169D01*
X0212208Y0140303D02*
X0212208Y0136900D01*
X0217306Y0136900D02*
X0217306Y0140303D01*
X0218534Y0140303D02*
X0220802Y0140303D01*
X0222217Y0139169D02*
X0223351Y0140303D01*
X0223351Y0136900D01*
X0222217Y0136900D02*
X0224485Y0136900D01*
X0219668Y0138601D02*
X0218534Y0138601D01*
X0218534Y0136900D02*
X0218534Y0140303D01*
X0215418Y0143400D02*
X0214284Y0143400D01*
X0213717Y0143967D01*
X0214284Y0145101D02*
X0215418Y0145101D01*
X0215985Y0144534D01*
X0215985Y0143967D01*
X0215418Y0143400D01*
X0214284Y0145101D02*
X0213717Y0145669D01*
X0213717Y0146236D01*
X0214284Y0146803D01*
X0215418Y0146803D01*
X0215985Y0146236D01*
X0212302Y0146236D02*
X0211735Y0146803D01*
X0210601Y0146803D01*
X0210034Y0146236D01*
X0210034Y0143967D01*
X0210601Y0143400D01*
X0211735Y0143400D01*
X0212302Y0143967D01*
X0208619Y0146803D02*
X0206351Y0143400D01*
X0218534Y0132101D02*
X0219668Y0132101D01*
X0245967Y0057303D02*
X0245400Y0056736D01*
X0245400Y0054467D01*
X0245967Y0053900D01*
X0247101Y0053900D01*
X0247669Y0054467D01*
X0247669Y0055601D01*
X0246534Y0055601D01*
X0247669Y0056736D02*
X0247101Y0057303D01*
X0245967Y0057303D01*
X0249083Y0057303D02*
X0251352Y0053900D01*
X0251352Y0057303D01*
X0252766Y0057303D02*
X0254468Y0057303D01*
X0255035Y0056736D01*
X0255035Y0054467D01*
X0254468Y0053900D01*
X0252766Y0053900D01*
X0252766Y0057303D01*
X0249083Y0057303D02*
X0249083Y0053900D01*
X0249083Y0045803D02*
X0249083Y0044101D01*
X0250217Y0044669D01*
X0250785Y0044669D01*
X0251352Y0044101D01*
X0251352Y0042967D01*
X0250785Y0042400D01*
X0249650Y0042400D01*
X0249083Y0042967D01*
X0247669Y0044101D02*
X0245400Y0044101D01*
X0246534Y0042967D02*
X0246534Y0045236D01*
X0249083Y0045803D02*
X0251352Y0045803D01*
X0252766Y0045803D02*
X0252766Y0043534D01*
X0253901Y0042400D01*
X0255035Y0043534D01*
X0255035Y0045803D01*
X0237850Y0040663D02*
X0235350Y0040663D01*
X0235350Y0037538D02*
X0237850Y0037538D01*
X0247100Y0032100D02*
X0247100Y0021100D01*
X0247102Y0021040D01*
X0247107Y0020979D01*
X0247116Y0020920D01*
X0247129Y0020861D01*
X0247145Y0020802D01*
X0247165Y0020745D01*
X0247188Y0020690D01*
X0247215Y0020635D01*
X0247244Y0020583D01*
X0247277Y0020532D01*
X0247313Y0020483D01*
X0247351Y0020437D01*
X0247393Y0020393D01*
X0247437Y0020351D01*
X0247483Y0020313D01*
X0247532Y0020277D01*
X0247583Y0020244D01*
X0247635Y0020215D01*
X0247690Y0020188D01*
X0247745Y0020165D01*
X0247802Y0020145D01*
X0247861Y0020129D01*
X0247920Y0020116D01*
X0247979Y0020107D01*
X0248040Y0020102D01*
X0248100Y0020100D01*
X0254100Y0020100D01*
X0254160Y0020102D01*
X0254221Y0020107D01*
X0254280Y0020116D01*
X0254339Y0020129D01*
X0254398Y0020145D01*
X0254455Y0020165D01*
X0254510Y0020188D01*
X0254565Y0020215D01*
X0254617Y0020244D01*
X0254668Y0020277D01*
X0254717Y0020313D01*
X0254763Y0020351D01*
X0254807Y0020393D01*
X0254849Y0020437D01*
X0254887Y0020483D01*
X0254923Y0020532D01*
X0254956Y0020583D01*
X0254985Y0020635D01*
X0255012Y0020690D01*
X0255035Y0020745D01*
X0255055Y0020802D01*
X0255071Y0020861D01*
X0255084Y0020920D01*
X0255093Y0020979D01*
X0255098Y0021040D01*
X0255100Y0021100D01*
X0255100Y0032100D01*
X0255098Y0032160D01*
X0255093Y0032221D01*
X0255084Y0032280D01*
X0255071Y0032339D01*
X0255055Y0032398D01*
X0255035Y0032455D01*
X0255012Y0032510D01*
X0254985Y0032565D01*
X0254956Y0032617D01*
X0254923Y0032668D01*
X0254887Y0032717D01*
X0254849Y0032763D01*
X0254807Y0032807D01*
X0254763Y0032849D01*
X0254717Y0032887D01*
X0254668Y0032923D01*
X0254617Y0032956D01*
X0254565Y0032985D01*
X0254510Y0033012D01*
X0254455Y0033035D01*
X0254398Y0033055D01*
X0254339Y0033071D01*
X0254280Y0033084D01*
X0254221Y0033093D01*
X0254160Y0033098D01*
X0254100Y0033100D01*
X0248100Y0033100D01*
X0248040Y0033098D01*
X0247979Y0033093D01*
X0247920Y0033084D01*
X0247861Y0033071D01*
X0247802Y0033055D01*
X0247745Y0033035D01*
X0247690Y0033012D01*
X0247635Y0032985D01*
X0247583Y0032956D01*
X0247532Y0032923D01*
X0247483Y0032887D01*
X0247437Y0032849D01*
X0247393Y0032807D01*
X0247351Y0032763D01*
X0247313Y0032717D01*
X0247277Y0032668D01*
X0247244Y0032617D01*
X0247215Y0032565D01*
X0247188Y0032510D01*
X0247165Y0032455D01*
X0247145Y0032398D01*
X0247129Y0032339D01*
X0247116Y0032280D01*
X0247107Y0032221D01*
X0247102Y0032160D01*
X0247100Y0032100D01*
X0245233Y0029852D02*
X0244666Y0029852D01*
X0244099Y0029285D01*
X0244099Y0027583D01*
X0245233Y0027583D01*
X0245800Y0028150D01*
X0245800Y0029285D01*
X0245233Y0029852D01*
X0244099Y0027583D02*
X0242964Y0028717D01*
X0242397Y0029852D01*
X0242397Y0026169D02*
X0242397Y0025034D01*
X0242397Y0025601D02*
X0245233Y0025601D01*
X0245800Y0025034D01*
X0245800Y0024467D01*
X0245233Y0023900D01*
X0233100Y0023600D02*
X0230100Y0023600D01*
X0230100Y0028600D02*
X0233100Y0028600D01*
X0213451Y0023303D02*
X0213451Y0019900D01*
X0211749Y0019900D01*
X0211182Y0020467D01*
X0211182Y0021601D01*
X0211749Y0022169D01*
X0213451Y0022169D01*
X0209767Y0021601D02*
X0209767Y0021034D01*
X0207499Y0021034D01*
X0207499Y0020467D02*
X0207499Y0021601D01*
X0208066Y0022169D01*
X0209200Y0022169D01*
X0209767Y0021601D01*
X0208066Y0019900D02*
X0207499Y0020467D01*
X0208066Y0019900D02*
X0209200Y0019900D01*
X0206084Y0019900D02*
X0204383Y0019900D01*
X0203816Y0020467D01*
X0203816Y0021601D01*
X0204383Y0022169D01*
X0206084Y0022169D01*
X0202401Y0021601D02*
X0202401Y0019900D01*
X0200133Y0019900D02*
X0200133Y0022169D01*
X0201834Y0022169D01*
X0202401Y0021601D01*
X0198718Y0021601D02*
X0198718Y0019900D01*
X0197017Y0019900D01*
X0196449Y0020467D01*
X0197017Y0021034D01*
X0198718Y0021034D01*
X0198718Y0021601D02*
X0198151Y0022169D01*
X0197017Y0022169D01*
X0195035Y0022169D02*
X0193901Y0019900D01*
X0192766Y0022169D01*
X0191352Y0022169D02*
X0189650Y0022169D01*
X0189083Y0021601D01*
X0189083Y0020467D01*
X0189650Y0019900D01*
X0191352Y0019900D01*
X0191352Y0023303D01*
X0187669Y0022169D02*
X0187669Y0019900D01*
X0185400Y0019900D02*
X0185400Y0022169D01*
X0186534Y0023303D01*
X0187669Y0022169D01*
X0187669Y0021601D02*
X0185400Y0021601D01*
X0146100Y0012100D02*
X0146100Y0006100D01*
X0146098Y0006040D01*
X0146093Y0005979D01*
X0146084Y0005920D01*
X0146071Y0005861D01*
X0146055Y0005802D01*
X0146035Y0005745D01*
X0146012Y0005690D01*
X0145985Y0005635D01*
X0145956Y0005583D01*
X0145923Y0005532D01*
X0145887Y0005483D01*
X0145849Y0005437D01*
X0145807Y0005393D01*
X0145763Y0005351D01*
X0145717Y0005313D01*
X0145668Y0005277D01*
X0145617Y0005244D01*
X0145565Y0005215D01*
X0145510Y0005188D01*
X0145455Y0005165D01*
X0145398Y0005145D01*
X0145339Y0005129D01*
X0145280Y0005116D01*
X0145221Y0005107D01*
X0145160Y0005102D01*
X0145100Y0005100D01*
X0128100Y0005100D01*
X0128040Y0005102D01*
X0127979Y0005107D01*
X0127920Y0005116D01*
X0127861Y0005129D01*
X0127802Y0005145D01*
X0127745Y0005165D01*
X0127690Y0005188D01*
X0127635Y0005215D01*
X0127583Y0005244D01*
X0127532Y0005277D01*
X0127483Y0005313D01*
X0127437Y0005351D01*
X0127393Y0005393D01*
X0127351Y0005437D01*
X0127313Y0005483D01*
X0127277Y0005532D01*
X0127244Y0005583D01*
X0127215Y0005635D01*
X0127188Y0005690D01*
X0127165Y0005745D01*
X0127145Y0005802D01*
X0127129Y0005861D01*
X0127116Y0005920D01*
X0127107Y0005979D01*
X0127102Y0006040D01*
X0127100Y0006100D01*
X0127100Y0012100D01*
X0127102Y0012160D01*
X0127107Y0012221D01*
X0127116Y0012280D01*
X0127129Y0012339D01*
X0127145Y0012398D01*
X0127165Y0012455D01*
X0127188Y0012510D01*
X0127215Y0012565D01*
X0127244Y0012617D01*
X0127277Y0012668D01*
X0127313Y0012717D01*
X0127351Y0012763D01*
X0127393Y0012807D01*
X0127437Y0012849D01*
X0127483Y0012887D01*
X0127532Y0012923D01*
X0127583Y0012956D01*
X0127635Y0012985D01*
X0127690Y0013012D01*
X0127745Y0013035D01*
X0127802Y0013055D01*
X0127861Y0013071D01*
X0127920Y0013084D01*
X0127979Y0013093D01*
X0128040Y0013098D01*
X0128100Y0013100D01*
X0145100Y0013100D01*
X0145160Y0013098D01*
X0145221Y0013093D01*
X0145280Y0013084D01*
X0145339Y0013071D01*
X0145398Y0013055D01*
X0145455Y0013035D01*
X0145510Y0013012D01*
X0145565Y0012985D01*
X0145617Y0012956D01*
X0145668Y0012923D01*
X0145717Y0012887D01*
X0145763Y0012849D01*
X0145807Y0012807D01*
X0145849Y0012763D01*
X0145887Y0012717D01*
X0145923Y0012668D01*
X0145956Y0012617D01*
X0145985Y0012565D01*
X0146012Y0012510D01*
X0146035Y0012455D01*
X0146055Y0012398D01*
X0146071Y0012339D01*
X0146084Y0012280D01*
X0146093Y0012221D01*
X0146098Y0012160D01*
X0146100Y0012100D01*
X0143352Y0014900D02*
X0141083Y0014900D01*
X0143352Y0017169D01*
X0143352Y0017736D01*
X0142785Y0018303D01*
X0141650Y0018303D01*
X0141083Y0017736D01*
X0139669Y0018303D02*
X0138534Y0018303D01*
X0139101Y0018303D02*
X0139101Y0015467D01*
X0138534Y0014900D01*
X0137967Y0014900D01*
X0137400Y0015467D01*
X0121100Y0012100D02*
X0121100Y0006100D01*
X0121098Y0006040D01*
X0121093Y0005979D01*
X0121084Y0005920D01*
X0121071Y0005861D01*
X0121055Y0005802D01*
X0121035Y0005745D01*
X0121012Y0005690D01*
X0120985Y0005635D01*
X0120956Y0005583D01*
X0120923Y0005532D01*
X0120887Y0005483D01*
X0120849Y0005437D01*
X0120807Y0005393D01*
X0120763Y0005351D01*
X0120717Y0005313D01*
X0120668Y0005277D01*
X0120617Y0005244D01*
X0120565Y0005215D01*
X0120510Y0005188D01*
X0120455Y0005165D01*
X0120398Y0005145D01*
X0120339Y0005129D01*
X0120280Y0005116D01*
X0120221Y0005107D01*
X0120160Y0005102D01*
X0120100Y0005100D01*
X0103100Y0005100D01*
X0103040Y0005102D01*
X0102979Y0005107D01*
X0102920Y0005116D01*
X0102861Y0005129D01*
X0102802Y0005145D01*
X0102745Y0005165D01*
X0102690Y0005188D01*
X0102635Y0005215D01*
X0102583Y0005244D01*
X0102532Y0005277D01*
X0102483Y0005313D01*
X0102437Y0005351D01*
X0102393Y0005393D01*
X0102351Y0005437D01*
X0102313Y0005483D01*
X0102277Y0005532D01*
X0102244Y0005583D01*
X0102215Y0005635D01*
X0102188Y0005690D01*
X0102165Y0005745D01*
X0102145Y0005802D01*
X0102129Y0005861D01*
X0102116Y0005920D01*
X0102107Y0005979D01*
X0102102Y0006040D01*
X0102100Y0006100D01*
X0102100Y0012100D01*
X0102102Y0012160D01*
X0102107Y0012221D01*
X0102116Y0012280D01*
X0102129Y0012339D01*
X0102145Y0012398D01*
X0102165Y0012455D01*
X0102188Y0012510D01*
X0102215Y0012565D01*
X0102244Y0012617D01*
X0102277Y0012668D01*
X0102313Y0012717D01*
X0102351Y0012763D01*
X0102393Y0012807D01*
X0102437Y0012849D01*
X0102483Y0012887D01*
X0102532Y0012923D01*
X0102583Y0012956D01*
X0102635Y0012985D01*
X0102690Y0013012D01*
X0102745Y0013035D01*
X0102802Y0013055D01*
X0102861Y0013071D01*
X0102920Y0013084D01*
X0102979Y0013093D01*
X0103040Y0013098D01*
X0103100Y0013100D01*
X0120100Y0013100D01*
X0120160Y0013098D01*
X0120221Y0013093D01*
X0120280Y0013084D01*
X0120339Y0013071D01*
X0120398Y0013055D01*
X0120455Y0013035D01*
X0120510Y0013012D01*
X0120565Y0012985D01*
X0120617Y0012956D01*
X0120668Y0012923D01*
X0120717Y0012887D01*
X0120763Y0012849D01*
X0120807Y0012807D01*
X0120849Y0012763D01*
X0120887Y0012717D01*
X0120923Y0012668D01*
X0120956Y0012617D01*
X0120985Y0012565D01*
X0121012Y0012510D01*
X0121035Y0012455D01*
X0121055Y0012398D01*
X0121071Y0012339D01*
X0121084Y0012280D01*
X0121093Y0012221D01*
X0121098Y0012160D01*
X0121100Y0012100D01*
X0110352Y0015467D02*
X0109785Y0014900D01*
X0108650Y0014900D01*
X0108083Y0015467D01*
X0109217Y0016601D02*
X0109785Y0016601D01*
X0110352Y0016034D01*
X0110352Y0015467D01*
X0109785Y0016601D02*
X0110352Y0017169D01*
X0110352Y0017736D01*
X0109785Y0018303D01*
X0108650Y0018303D01*
X0108083Y0017736D01*
X0106669Y0018303D02*
X0105534Y0018303D01*
X0106101Y0018303D02*
X0106101Y0015467D01*
X0105534Y0014900D01*
X0104967Y0014900D01*
X0104400Y0015467D01*
X0095600Y0023100D02*
X0095600Y0006100D01*
X0095598Y0006040D01*
X0095593Y0005979D01*
X0095584Y0005920D01*
X0095571Y0005861D01*
X0095555Y0005802D01*
X0095535Y0005745D01*
X0095512Y0005690D01*
X0095485Y0005635D01*
X0095456Y0005583D01*
X0095423Y0005532D01*
X0095387Y0005483D01*
X0095349Y0005437D01*
X0095307Y0005393D01*
X0095263Y0005351D01*
X0095217Y0005313D01*
X0095168Y0005277D01*
X0095117Y0005244D01*
X0095065Y0005215D01*
X0095010Y0005188D01*
X0094955Y0005165D01*
X0094898Y0005145D01*
X0094839Y0005129D01*
X0094780Y0005116D01*
X0094721Y0005107D01*
X0094660Y0005102D01*
X0094600Y0005100D01*
X0088600Y0005100D01*
X0088540Y0005102D01*
X0088479Y0005107D01*
X0088420Y0005116D01*
X0088361Y0005129D01*
X0088302Y0005145D01*
X0088245Y0005165D01*
X0088190Y0005188D01*
X0088135Y0005215D01*
X0088083Y0005244D01*
X0088032Y0005277D01*
X0087983Y0005313D01*
X0087937Y0005351D01*
X0087893Y0005393D01*
X0087851Y0005437D01*
X0087813Y0005483D01*
X0087777Y0005532D01*
X0087744Y0005583D01*
X0087715Y0005635D01*
X0087688Y0005690D01*
X0087665Y0005745D01*
X0087645Y0005802D01*
X0087629Y0005861D01*
X0087616Y0005920D01*
X0087607Y0005979D01*
X0087602Y0006040D01*
X0087600Y0006100D01*
X0087600Y0023100D01*
X0087602Y0023160D01*
X0087607Y0023221D01*
X0087616Y0023280D01*
X0087629Y0023339D01*
X0087645Y0023398D01*
X0087665Y0023455D01*
X0087688Y0023510D01*
X0087715Y0023565D01*
X0087744Y0023617D01*
X0087777Y0023668D01*
X0087813Y0023717D01*
X0087851Y0023763D01*
X0087893Y0023807D01*
X0087937Y0023849D01*
X0087983Y0023887D01*
X0088032Y0023923D01*
X0088083Y0023956D01*
X0088135Y0023985D01*
X0088190Y0024012D01*
X0088245Y0024035D01*
X0088302Y0024055D01*
X0088361Y0024071D01*
X0088420Y0024084D01*
X0088479Y0024093D01*
X0088540Y0024098D01*
X0088600Y0024100D01*
X0094600Y0024100D01*
X0094660Y0024098D01*
X0094721Y0024093D01*
X0094780Y0024084D01*
X0094839Y0024071D01*
X0094898Y0024055D01*
X0094955Y0024035D01*
X0095010Y0024012D01*
X0095065Y0023985D01*
X0095117Y0023956D01*
X0095168Y0023923D01*
X0095217Y0023887D01*
X0095263Y0023849D01*
X0095307Y0023807D01*
X0095349Y0023763D01*
X0095387Y0023717D01*
X0095423Y0023668D01*
X0095456Y0023617D01*
X0095485Y0023565D01*
X0095512Y0023510D01*
X0095535Y0023455D01*
X0095555Y0023398D01*
X0095571Y0023339D01*
X0095584Y0023280D01*
X0095593Y0023221D01*
X0095598Y0023160D01*
X0095600Y0023100D01*
X0094285Y0025900D02*
X0094285Y0029303D01*
X0092583Y0027601D01*
X0094852Y0027601D01*
X0091169Y0029303D02*
X0090034Y0029303D01*
X0090601Y0029303D02*
X0090601Y0026467D01*
X0090034Y0025900D01*
X0089467Y0025900D01*
X0088900Y0026467D01*
D12*
X0079094Y0041350D02*
X0079094Y0044052D01*
X0077743Y0042701D01*
X0079545Y0042701D01*
X0076598Y0041350D02*
X0074797Y0041350D01*
X0075697Y0041350D02*
X0075697Y0044052D01*
X0074797Y0043152D01*
X0073652Y0043602D02*
X0073652Y0042701D01*
X0073201Y0042251D01*
X0071850Y0042251D01*
X0072751Y0042251D02*
X0073652Y0041350D01*
X0071850Y0041350D02*
X0071850Y0044052D01*
X0073201Y0044052D01*
X0073652Y0043602D01*
X0057094Y0050850D02*
X0057094Y0053552D01*
X0055743Y0052201D01*
X0057545Y0052201D01*
X0054598Y0051751D02*
X0054598Y0051300D01*
X0054148Y0050850D01*
X0052797Y0050850D01*
X0052797Y0053552D01*
X0054148Y0053552D01*
X0054598Y0053102D01*
X0054598Y0052652D01*
X0054148Y0052201D01*
X0052797Y0052201D01*
X0054148Y0052201D02*
X0054598Y0051751D01*
X0051652Y0053552D02*
X0049850Y0053552D01*
X0049850Y0050850D01*
X0049850Y0052201D02*
X0050751Y0052201D01*
X0046491Y0050850D02*
X0044690Y0050850D01*
X0045590Y0050850D02*
X0045590Y0053552D01*
X0044690Y0052652D01*
X0043545Y0053102D02*
X0041743Y0051300D01*
X0042193Y0050850D01*
X0043094Y0050850D01*
X0043545Y0051300D01*
X0043545Y0053102D01*
X0043094Y0053552D01*
X0042193Y0053552D01*
X0041743Y0053102D01*
X0041743Y0051300D01*
X0040598Y0051300D02*
X0040148Y0050850D01*
X0039247Y0050850D01*
X0038797Y0051300D01*
X0038797Y0051751D01*
X0039247Y0052201D01*
X0040148Y0052201D01*
X0040598Y0051751D01*
X0040598Y0051300D01*
X0040148Y0052201D02*
X0040598Y0052652D01*
X0040598Y0053102D01*
X0040148Y0053552D01*
X0039247Y0053552D01*
X0038797Y0053102D01*
X0038797Y0052652D01*
X0039247Y0052201D01*
X0037652Y0051300D02*
X0037201Y0050850D01*
X0036300Y0050850D01*
X0035850Y0051300D01*
X0035850Y0053102D01*
X0036300Y0053552D01*
X0037201Y0053552D01*
X0037652Y0053102D01*
X0037900Y0049000D02*
X0031600Y0049000D01*
X0031600Y0044200D01*
X0037900Y0044200D01*
X0037900Y0049000D01*
X0037900Y0048959D02*
X0031600Y0048959D01*
X0031600Y0048460D02*
X0037900Y0048460D01*
X0037900Y0047962D02*
X0031600Y0047962D01*
X0031600Y0047463D02*
X0037900Y0047463D01*
X0037900Y0046965D02*
X0031600Y0046965D01*
X0031600Y0046466D02*
X0037900Y0046466D01*
X0037900Y0045968D02*
X0031600Y0045968D01*
X0031600Y0045469D02*
X0037900Y0045469D01*
X0037899Y0045084D02*
X0037899Y0044100D01*
X0037899Y0043116D01*
X0037900Y0044472D02*
X0031600Y0044472D01*
X0031600Y0044970D02*
X0037900Y0044970D01*
X0033175Y0049021D02*
X0030025Y0049021D01*
X0025301Y0045084D02*
X0025301Y0043116D01*
X0030025Y0039179D02*
X0033175Y0039179D01*
X0053850Y0062350D02*
X0053850Y0065052D01*
X0055201Y0065052D01*
X0055652Y0064602D01*
X0055652Y0063701D01*
X0055201Y0063251D01*
X0053850Y0063251D01*
X0054751Y0063251D02*
X0055652Y0062350D01*
X0056797Y0062350D02*
X0058598Y0062350D01*
X0057697Y0062350D02*
X0057697Y0065052D01*
X0056797Y0064152D01*
X0059743Y0063701D02*
X0059743Y0065052D01*
X0061545Y0065052D01*
X0061094Y0064152D02*
X0061545Y0063701D01*
X0061545Y0062800D01*
X0061094Y0062350D01*
X0060193Y0062350D01*
X0059743Y0062800D01*
X0059743Y0063701D02*
X0060644Y0064152D01*
X0061094Y0064152D01*
X0043350Y0064350D02*
X0040648Y0064350D01*
X0040648Y0065701D01*
X0041098Y0066152D01*
X0041999Y0066152D01*
X0042449Y0065701D01*
X0042449Y0064350D01*
X0042449Y0065251D02*
X0043350Y0066152D01*
X0043350Y0067297D02*
X0040648Y0067297D01*
X0043350Y0069098D01*
X0040648Y0069098D01*
X0041548Y0070243D02*
X0040648Y0071144D01*
X0043350Y0071144D01*
X0043350Y0070243D02*
X0043350Y0072045D01*
X0042900Y0073190D02*
X0041098Y0074991D01*
X0042900Y0074991D01*
X0043350Y0074541D01*
X0043350Y0073640D01*
X0042900Y0073190D01*
X0041098Y0073190D01*
X0040648Y0073640D01*
X0040648Y0074541D01*
X0041098Y0074991D01*
X0040648Y0078850D02*
X0040648Y0080201D01*
X0041098Y0080652D01*
X0041999Y0080652D01*
X0042449Y0080201D01*
X0042449Y0078850D01*
X0042449Y0079751D02*
X0043350Y0080652D01*
X0043350Y0081797D02*
X0040648Y0081797D01*
X0043350Y0083598D01*
X0040648Y0083598D01*
X0041548Y0084743D02*
X0040648Y0085644D01*
X0043350Y0085644D01*
X0043350Y0084743D02*
X0043350Y0086545D01*
X0043350Y0087690D02*
X0043350Y0089491D01*
X0043350Y0088590D02*
X0040648Y0088590D01*
X0041548Y0087690D01*
X0040648Y0096350D02*
X0040648Y0097701D01*
X0041098Y0098152D01*
X0041999Y0098152D01*
X0042449Y0097701D01*
X0042449Y0096350D01*
X0042449Y0097251D02*
X0043350Y0098152D01*
X0043350Y0099297D02*
X0040648Y0099297D01*
X0043350Y0101098D01*
X0040648Y0101098D01*
X0041548Y0102243D02*
X0040648Y0103144D01*
X0043350Y0103144D01*
X0043350Y0102243D02*
X0043350Y0104045D01*
X0043350Y0105190D02*
X0041548Y0106991D01*
X0041098Y0106991D01*
X0040648Y0106541D01*
X0040648Y0105640D01*
X0041098Y0105190D01*
X0043350Y0105190D02*
X0043350Y0106991D01*
X0043350Y0096350D02*
X0040648Y0096350D01*
X0040648Y0078850D02*
X0043350Y0078850D01*
X0048598Y0121350D02*
X0050400Y0121350D01*
X0050850Y0121800D01*
X0050850Y0122701D01*
X0050400Y0123152D01*
X0050400Y0124297D02*
X0049499Y0124297D01*
X0049499Y0125648D01*
X0049949Y0126098D01*
X0050400Y0126098D01*
X0050850Y0125648D01*
X0050850Y0124747D01*
X0050400Y0124297D01*
X0049499Y0124297D02*
X0048598Y0125197D01*
X0048148Y0126098D01*
X0048598Y0127243D02*
X0048148Y0127693D01*
X0048148Y0128594D01*
X0048598Y0129045D01*
X0050400Y0127243D01*
X0050850Y0127693D01*
X0050850Y0128594D01*
X0050400Y0129045D01*
X0048598Y0129045D01*
X0049048Y0130190D02*
X0048148Y0131090D01*
X0050850Y0131090D01*
X0050850Y0130190D02*
X0050850Y0131991D01*
X0044850Y0132190D02*
X0044850Y0133991D01*
X0044850Y0133090D02*
X0042148Y0133090D01*
X0043048Y0132190D01*
X0042598Y0131045D02*
X0044400Y0129243D01*
X0044850Y0129693D01*
X0044850Y0130594D01*
X0044400Y0131045D01*
X0042598Y0131045D01*
X0042148Y0130594D01*
X0042148Y0129693D01*
X0042598Y0129243D01*
X0044400Y0129243D01*
X0042598Y0128098D02*
X0044400Y0126297D01*
X0044850Y0126297D01*
X0044400Y0125152D02*
X0044850Y0124701D01*
X0044850Y0123800D01*
X0044400Y0123350D01*
X0042598Y0123350D01*
X0042148Y0123800D01*
X0042148Y0124701D01*
X0042598Y0125152D01*
X0042148Y0126297D02*
X0042148Y0128098D01*
X0042598Y0128098D01*
X0048598Y0127243D02*
X0050400Y0127243D01*
X0048598Y0123152D02*
X0048148Y0122701D01*
X0048148Y0121800D01*
X0048598Y0121350D01*
X0033045Y0124850D02*
X0031243Y0124850D01*
X0032144Y0124850D02*
X0032144Y0127552D01*
X0031243Y0126652D01*
X0030098Y0126652D02*
X0029648Y0126201D01*
X0028297Y0126201D01*
X0029648Y0126201D02*
X0030098Y0125751D01*
X0030098Y0125300D01*
X0029648Y0124850D01*
X0028297Y0124850D01*
X0028297Y0127552D01*
X0029648Y0127552D01*
X0030098Y0127102D01*
X0030098Y0126652D01*
X0027152Y0127552D02*
X0025350Y0127552D01*
X0025350Y0124850D01*
X0025350Y0126201D02*
X0026251Y0126201D01*
X0025098Y0145850D02*
X0023297Y0145850D01*
X0024197Y0145850D02*
X0024197Y0148552D01*
X0023297Y0147652D01*
X0022152Y0148102D02*
X0021701Y0148552D01*
X0020800Y0148552D01*
X0020350Y0148102D01*
X0020350Y0146300D01*
X0020800Y0145850D01*
X0021701Y0145850D01*
X0022152Y0146300D01*
X0078148Y0146541D02*
X0078148Y0145640D01*
X0078598Y0145190D01*
X0078598Y0144045D02*
X0080400Y0142243D01*
X0080850Y0142693D01*
X0080850Y0143594D01*
X0080400Y0144045D01*
X0078598Y0144045D01*
X0078148Y0143594D01*
X0078148Y0142693D01*
X0078598Y0142243D01*
X0080400Y0142243D01*
X0078598Y0141098D02*
X0080400Y0139297D01*
X0080850Y0139297D01*
X0080400Y0138152D02*
X0080850Y0137701D01*
X0080850Y0136800D01*
X0080400Y0136350D01*
X0078598Y0136350D01*
X0078148Y0136800D01*
X0078148Y0137701D01*
X0078598Y0138152D01*
X0078148Y0139297D02*
X0078148Y0141098D01*
X0078598Y0141098D01*
X0080850Y0145190D02*
X0079048Y0146991D01*
X0078598Y0146991D01*
X0078148Y0146541D01*
X0080850Y0146991D02*
X0080850Y0145190D01*
X0099350Y0143052D02*
X0099350Y0140350D01*
X0099350Y0141701D02*
X0100251Y0141701D01*
X0099350Y0143052D02*
X0101152Y0143052D01*
X0102297Y0143052D02*
X0103648Y0143052D01*
X0104098Y0142602D01*
X0104098Y0142152D01*
X0103648Y0141701D01*
X0102297Y0141701D01*
X0103648Y0141701D02*
X0104098Y0141251D01*
X0104098Y0140800D01*
X0103648Y0140350D01*
X0102297Y0140350D01*
X0102297Y0143052D01*
X0105243Y0142602D02*
X0105693Y0143052D01*
X0106594Y0143052D01*
X0107045Y0142602D01*
X0107045Y0142152D01*
X0106594Y0141701D01*
X0107045Y0141251D01*
X0107045Y0140800D01*
X0106594Y0140350D01*
X0105693Y0140350D01*
X0105243Y0140800D01*
X0106144Y0141701D02*
X0106594Y0141701D01*
X0080850Y0131991D02*
X0080850Y0130190D01*
X0079048Y0131991D01*
X0078598Y0131991D01*
X0078148Y0131541D01*
X0078148Y0130640D01*
X0078598Y0130190D01*
X0078598Y0129045D02*
X0080400Y0127243D01*
X0080850Y0127693D01*
X0080850Y0128594D01*
X0080400Y0129045D01*
X0078598Y0129045D01*
X0078148Y0128594D01*
X0078148Y0127693D01*
X0078598Y0127243D01*
X0080400Y0127243D01*
X0080400Y0126098D02*
X0079949Y0126098D01*
X0079499Y0125648D01*
X0079499Y0124297D01*
X0080400Y0124297D01*
X0080850Y0124747D01*
X0080850Y0125648D01*
X0080400Y0126098D01*
X0079499Y0124297D02*
X0078598Y0125197D01*
X0078148Y0126098D01*
X0078598Y0123152D02*
X0078148Y0122701D01*
X0078148Y0121800D01*
X0078598Y0121350D01*
X0080400Y0121350D01*
X0080850Y0121800D01*
X0080850Y0122701D01*
X0080400Y0123152D01*
X0090350Y0122800D02*
X0090800Y0122350D01*
X0091701Y0122350D01*
X0092152Y0122800D01*
X0093297Y0122350D02*
X0095098Y0122350D01*
X0094197Y0122350D02*
X0094197Y0125052D01*
X0093297Y0124152D01*
X0092152Y0124602D02*
X0091701Y0125052D01*
X0090800Y0125052D01*
X0090350Y0124602D01*
X0090350Y0122800D01*
X0096243Y0122350D02*
X0098045Y0124152D01*
X0098045Y0124602D01*
X0097594Y0125052D01*
X0096693Y0125052D01*
X0096243Y0124602D01*
X0099190Y0124152D02*
X0100090Y0125052D01*
X0100090Y0122350D01*
X0099190Y0122350D02*
X0100991Y0122350D01*
X0098045Y0122350D02*
X0096243Y0122350D01*
X0153148Y0120045D02*
X0153598Y0119144D01*
X0154499Y0118243D01*
X0154499Y0119594D01*
X0154949Y0120045D01*
X0155400Y0120045D01*
X0155850Y0119594D01*
X0155850Y0118693D01*
X0155400Y0118243D01*
X0154499Y0118243D01*
X0155850Y0117098D02*
X0155850Y0115297D01*
X0155850Y0116197D02*
X0153148Y0116197D01*
X0154048Y0115297D01*
X0153598Y0114152D02*
X0154499Y0114152D01*
X0154949Y0113701D01*
X0154949Y0112350D01*
X0154949Y0113251D02*
X0155850Y0114152D01*
X0155850Y0112350D02*
X0153148Y0112350D01*
X0153148Y0113701D01*
X0153598Y0114152D01*
X0167350Y0114850D02*
X0167350Y0117552D01*
X0168701Y0117552D01*
X0169152Y0117102D01*
X0169152Y0116201D01*
X0168701Y0115751D01*
X0167350Y0115751D01*
X0168251Y0115751D02*
X0169152Y0114850D01*
X0170297Y0115300D02*
X0170747Y0114850D01*
X0171648Y0114850D01*
X0172098Y0115300D01*
X0172098Y0115751D01*
X0171648Y0116201D01*
X0171197Y0116201D01*
X0171648Y0116201D02*
X0172098Y0116652D01*
X0172098Y0117102D01*
X0171648Y0117552D01*
X0170747Y0117552D01*
X0170297Y0117102D01*
X0173243Y0117102D02*
X0173693Y0117552D01*
X0174594Y0117552D01*
X0175045Y0117102D01*
X0175045Y0116652D01*
X0173243Y0114850D01*
X0175045Y0114850D01*
X0175045Y0124850D02*
X0173243Y0124850D01*
X0174144Y0124850D02*
X0174144Y0127552D01*
X0173243Y0126652D01*
X0172098Y0126652D02*
X0171648Y0126201D01*
X0172098Y0125751D01*
X0172098Y0125300D01*
X0171648Y0124850D01*
X0170747Y0124850D01*
X0170297Y0125300D01*
X0169152Y0124850D02*
X0168251Y0125751D01*
X0168701Y0125751D02*
X0167350Y0125751D01*
X0167350Y0124850D02*
X0167350Y0127552D01*
X0168701Y0127552D01*
X0169152Y0127102D01*
X0169152Y0126201D01*
X0168701Y0125751D01*
X0170297Y0127102D02*
X0170747Y0127552D01*
X0171648Y0127552D01*
X0172098Y0127102D01*
X0172098Y0126652D01*
X0171648Y0126201D02*
X0171197Y0126201D01*
X0180850Y0125300D02*
X0181300Y0124850D01*
X0182201Y0124850D01*
X0182652Y0125300D01*
X0183797Y0125300D02*
X0184247Y0124850D01*
X0185148Y0124850D01*
X0185598Y0125300D01*
X0185598Y0125751D01*
X0185148Y0126201D01*
X0184697Y0126201D01*
X0185148Y0126201D02*
X0185598Y0126652D01*
X0185598Y0127102D01*
X0185148Y0127552D01*
X0184247Y0127552D01*
X0183797Y0127102D01*
X0182652Y0127102D02*
X0182201Y0127552D01*
X0181300Y0127552D01*
X0180850Y0127102D01*
X0180850Y0125300D01*
X0186743Y0125300D02*
X0188545Y0127102D01*
X0188545Y0125300D01*
X0188094Y0124850D01*
X0187193Y0124850D01*
X0186743Y0125300D01*
X0186743Y0127102D01*
X0187193Y0127552D01*
X0188094Y0127552D01*
X0188545Y0127102D01*
X0189690Y0127102D02*
X0190140Y0127552D01*
X0191041Y0127552D01*
X0191491Y0127102D01*
X0191491Y0126652D01*
X0189690Y0124850D01*
X0191491Y0124850D01*
X0191693Y0129350D02*
X0191243Y0129800D01*
X0193045Y0131602D01*
X0193045Y0129800D01*
X0192594Y0129350D01*
X0191693Y0129350D01*
X0191243Y0129800D02*
X0191243Y0131602D01*
X0191693Y0132052D01*
X0192594Y0132052D01*
X0193045Y0131602D01*
X0194190Y0131152D02*
X0195090Y0132052D01*
X0195090Y0129350D01*
X0194190Y0129350D02*
X0195991Y0129350D01*
X0190098Y0129800D02*
X0189648Y0129350D01*
X0188747Y0129350D01*
X0188297Y0129800D01*
X0187152Y0129800D02*
X0186701Y0129350D01*
X0185800Y0129350D01*
X0185350Y0129800D01*
X0185350Y0131602D01*
X0185800Y0132052D01*
X0186701Y0132052D01*
X0187152Y0131602D01*
X0188297Y0131602D02*
X0188747Y0132052D01*
X0189648Y0132052D01*
X0190098Y0131602D01*
X0190098Y0131152D01*
X0189648Y0130701D01*
X0190098Y0130251D01*
X0190098Y0129800D01*
X0189648Y0130701D02*
X0189197Y0130701D01*
X0189148Y0133850D02*
X0189148Y0135201D01*
X0189598Y0135652D01*
X0190499Y0135652D01*
X0190949Y0135201D01*
X0190949Y0133850D01*
X0190949Y0134751D02*
X0191850Y0135652D01*
X0191850Y0136797D02*
X0189148Y0136797D01*
X0191850Y0138598D01*
X0189148Y0138598D01*
X0190499Y0139743D02*
X0190499Y0141545D01*
X0190048Y0142690D02*
X0189148Y0143590D01*
X0191850Y0143590D01*
X0191850Y0142690D02*
X0191850Y0144491D01*
X0191850Y0141094D02*
X0189148Y0141094D01*
X0190499Y0139743D01*
X0191850Y0133850D02*
X0189148Y0133850D01*
X0176612Y0132824D02*
X0165588Y0132824D01*
X0165588Y0145376D01*
X0176612Y0145376D01*
X0176612Y0132824D01*
X0171100Y0139100D02*
X0165982Y0139100D01*
X0165982Y0145277D01*
X0171100Y0145277D01*
X0171100Y0139100D01*
X0171100Y0139189D02*
X0165982Y0139189D01*
X0165982Y0139688D02*
X0171100Y0139688D01*
X0171100Y0140186D02*
X0165982Y0140186D01*
X0165982Y0140685D02*
X0171100Y0140685D01*
X0171100Y0141183D02*
X0165982Y0141183D01*
X0165982Y0141682D02*
X0171100Y0141682D01*
X0171100Y0142180D02*
X0165982Y0142180D01*
X0165982Y0142679D02*
X0171100Y0142679D01*
X0171100Y0143177D02*
X0165982Y0143177D01*
X0165982Y0143676D02*
X0171100Y0143676D01*
X0171100Y0144174D02*
X0165982Y0144174D01*
X0165982Y0144673D02*
X0171100Y0144673D01*
X0171100Y0145171D02*
X0165982Y0145171D01*
X0193598Y0117545D02*
X0194048Y0117545D01*
X0194499Y0117094D01*
X0194949Y0117545D01*
X0195400Y0117545D01*
X0195850Y0117094D01*
X0195850Y0116193D01*
X0195400Y0115743D01*
X0195400Y0114598D02*
X0195850Y0114148D01*
X0195850Y0113247D01*
X0195400Y0112797D01*
X0195400Y0111652D02*
X0195850Y0111201D01*
X0195850Y0110300D01*
X0195400Y0109850D01*
X0193598Y0109850D01*
X0193148Y0110300D01*
X0193148Y0111201D01*
X0193598Y0111652D01*
X0193598Y0112797D02*
X0193148Y0113247D01*
X0193148Y0114148D01*
X0193598Y0114598D01*
X0194048Y0114598D01*
X0194499Y0114148D01*
X0194949Y0114598D01*
X0195400Y0114598D01*
X0194499Y0114148D02*
X0194499Y0113697D01*
X0193598Y0115743D02*
X0193148Y0116193D01*
X0193148Y0117094D01*
X0193598Y0117545D01*
X0194499Y0117094D02*
X0194499Y0116644D01*
X0194499Y0105545D02*
X0194499Y0103743D01*
X0193148Y0105094D01*
X0195850Y0105094D01*
X0195400Y0102598D02*
X0195850Y0102148D01*
X0195850Y0101247D01*
X0195400Y0100797D01*
X0195400Y0099652D02*
X0195850Y0099201D01*
X0195850Y0098300D01*
X0195400Y0097850D01*
X0193598Y0097850D01*
X0193148Y0098300D01*
X0193148Y0099201D01*
X0193598Y0099652D01*
X0193598Y0100797D02*
X0193148Y0101247D01*
X0193148Y0102148D01*
X0193598Y0102598D01*
X0194048Y0102598D01*
X0194499Y0102148D01*
X0194949Y0102598D01*
X0195400Y0102598D01*
X0194499Y0102148D02*
X0194499Y0101697D01*
X0220350Y0104850D02*
X0220350Y0107552D01*
X0221701Y0107552D01*
X0222152Y0107102D01*
X0222152Y0106201D01*
X0221701Y0105751D01*
X0220350Y0105751D01*
X0221251Y0105751D02*
X0222152Y0104850D01*
X0223297Y0105300D02*
X0223747Y0104850D01*
X0224648Y0104850D01*
X0225098Y0105300D01*
X0225098Y0105751D01*
X0224648Y0106201D01*
X0224197Y0106201D01*
X0224648Y0106201D02*
X0225098Y0106652D01*
X0225098Y0107102D01*
X0224648Y0107552D01*
X0223747Y0107552D01*
X0223297Y0107102D01*
X0226243Y0107102D02*
X0226693Y0107552D01*
X0227594Y0107552D01*
X0228045Y0107102D01*
X0228045Y0106652D01*
X0227594Y0106201D01*
X0228045Y0105751D01*
X0228045Y0105300D01*
X0227594Y0104850D01*
X0226693Y0104850D01*
X0226243Y0105300D01*
X0227144Y0106201D02*
X0227594Y0106201D01*
X0233751Y0100052D02*
X0232850Y0099152D01*
X0232850Y0098251D01*
X0233751Y0097350D01*
X0234814Y0097350D02*
X0234814Y0097800D01*
X0236616Y0099602D01*
X0236616Y0100052D01*
X0234814Y0100052D01*
X0237761Y0100052D02*
X0237761Y0098701D01*
X0238662Y0099152D01*
X0239112Y0099152D01*
X0239562Y0098701D01*
X0239562Y0097800D01*
X0239112Y0097350D01*
X0238211Y0097350D01*
X0237761Y0097800D01*
X0240707Y0097350D02*
X0241158Y0097350D01*
X0241158Y0098251D01*
X0240707Y0098701D01*
X0240707Y0099602D01*
X0241158Y0100052D01*
X0242059Y0100052D01*
X0242509Y0099602D01*
X0242509Y0098701D01*
X0242059Y0098251D01*
X0242059Y0097350D01*
X0242509Y0097350D01*
X0243654Y0097350D02*
X0244555Y0098251D01*
X0244555Y0099152D01*
X0243654Y0100052D01*
X0239562Y0100052D02*
X0237761Y0100052D01*
X0229900Y0068491D02*
X0230350Y0068041D01*
X0230350Y0067140D01*
X0229900Y0066690D01*
X0230350Y0065545D02*
X0230350Y0063743D01*
X0228548Y0065545D01*
X0228098Y0065545D01*
X0227648Y0065094D01*
X0227648Y0064193D01*
X0228098Y0063743D01*
X0227648Y0062598D02*
X0230350Y0062598D01*
X0227648Y0060797D01*
X0230350Y0060797D01*
X0230350Y0059652D02*
X0229449Y0058751D01*
X0229449Y0059201D02*
X0229449Y0057850D01*
X0230350Y0057850D02*
X0227648Y0057850D01*
X0227648Y0059201D01*
X0228098Y0059652D01*
X0228999Y0059652D01*
X0229449Y0059201D01*
X0228098Y0066690D02*
X0227648Y0067140D01*
X0227648Y0068041D01*
X0228098Y0068491D01*
X0228548Y0068491D01*
X0228999Y0068041D01*
X0229449Y0068491D01*
X0229900Y0068491D01*
X0228999Y0068041D02*
X0228999Y0067590D01*
X0232850Y0045052D02*
X0234652Y0045052D01*
X0235797Y0045052D02*
X0237148Y0045052D01*
X0237598Y0044602D01*
X0237598Y0044152D01*
X0237148Y0043701D01*
X0235797Y0043701D01*
X0237148Y0043701D02*
X0237598Y0043251D01*
X0237598Y0042800D01*
X0237148Y0042350D01*
X0235797Y0042350D01*
X0235797Y0045052D01*
X0233751Y0043701D02*
X0232850Y0043701D01*
X0232850Y0042350D02*
X0232850Y0045052D01*
X0238743Y0044602D02*
X0239193Y0045052D01*
X0240094Y0045052D01*
X0240545Y0044602D01*
X0240545Y0044152D01*
X0238743Y0042350D01*
X0240545Y0042350D01*
X0224098Y0033102D02*
X0223648Y0033552D01*
X0222747Y0033552D01*
X0222297Y0033102D01*
X0221152Y0033102D02*
X0220701Y0033552D01*
X0219800Y0033552D01*
X0219350Y0033102D01*
X0219350Y0031300D01*
X0219800Y0030850D01*
X0220701Y0030850D01*
X0221152Y0031300D01*
X0222297Y0030850D02*
X0224098Y0032652D01*
X0224098Y0033102D01*
X0224098Y0030850D02*
X0222297Y0030850D01*
X0237272Y0015418D02*
X0237272Y0014782D01*
X0237909Y0014145D01*
X0238546Y0014145D01*
X0239674Y0013016D02*
X0239674Y0012380D01*
X0239674Y0013016D02*
X0240948Y0014290D01*
X0240311Y0014290D02*
X0240948Y0013653D01*
X0241700Y0012901D02*
X0240426Y0011627D01*
X0241063Y0012264D02*
X0242337Y0012264D01*
X0242655Y0011946D01*
X0244073Y0011802D02*
X0244392Y0011484D01*
X0242481Y0009573D01*
X0242162Y0009891D02*
X0242799Y0009254D01*
X0239820Y0015418D02*
X0239820Y0016055D01*
X0239183Y0016692D01*
X0238546Y0016692D01*
X0237272Y0015418D01*
X0229403Y0013472D02*
X0228766Y0014109D01*
X0228129Y0014109D01*
X0226856Y0012835D01*
X0226856Y0012198D01*
X0227492Y0011561D01*
X0228129Y0011561D01*
X0229403Y0012835D02*
X0229403Y0013472D01*
X0227638Y0015237D02*
X0224454Y0014600D01*
X0218889Y0008986D02*
X0217615Y0010260D01*
X0218252Y0009623D02*
X0216341Y0007712D01*
X0215213Y0009478D02*
X0214576Y0009478D01*
X0213939Y0010114D01*
X0213939Y0010751D01*
X0214894Y0011070D02*
X0215531Y0010433D01*
X0215531Y0009796D01*
X0215213Y0009478D01*
X0214894Y0011070D02*
X0214894Y0011707D01*
X0215213Y0012025D01*
X0215850Y0012025D01*
X0216487Y0011388D01*
X0216487Y0010751D01*
X0214403Y0012835D02*
X0213766Y0012198D01*
X0213129Y0012198D01*
X0212174Y0013153D01*
X0212811Y0012516D02*
X0212811Y0011243D01*
X0211537Y0012516D02*
X0213448Y0014427D01*
X0214403Y0013472D01*
X0214403Y0012835D01*
X0212638Y0015237D02*
X0209454Y0014600D01*
D13*
X0004230Y0003065D02*
X0004230Y0036135D01*
X0082970Y0036135D01*
X0082970Y0003065D01*
X0066978Y0003065D01*
X0066978Y0004246D01*
X0061155Y0004246D01*
X0061155Y0003065D01*
X0051013Y0003065D01*
X0036187Y0003065D01*
X0004230Y0003065D01*
X0008659Y0006706D02*
X0008659Y0032494D01*
X0078541Y0032494D01*
X0078541Y0006706D01*
X0051013Y0006706D01*
X0051013Y0009167D02*
X0036187Y0009167D01*
X0036187Y0003065D01*
X0036187Y0006706D02*
X0008659Y0006706D01*
X0051013Y0009167D02*
X0051013Y0003065D01*
X0070375Y0072713D02*
X0122712Y0020375D01*
X0125487Y0020375D01*
X0177825Y0072713D01*
X0177825Y0075487D01*
X0125487Y0127825D01*
X0122712Y0127825D01*
X0070375Y0075487D01*
X0070375Y0072713D01*
X0077589Y0074100D02*
X0077591Y0074188D01*
X0077597Y0074276D01*
X0077607Y0074364D01*
X0077621Y0074452D01*
X0077638Y0074538D01*
X0077660Y0074624D01*
X0077685Y0074708D01*
X0077715Y0074792D01*
X0077747Y0074874D01*
X0077784Y0074954D01*
X0077824Y0075033D01*
X0077868Y0075110D01*
X0077915Y0075185D01*
X0077965Y0075257D01*
X0078019Y0075328D01*
X0078075Y0075395D01*
X0078135Y0075461D01*
X0078197Y0075523D01*
X0078263Y0075583D01*
X0078330Y0075639D01*
X0078401Y0075693D01*
X0078473Y0075743D01*
X0078548Y0075790D01*
X0078625Y0075834D01*
X0078704Y0075874D01*
X0078784Y0075911D01*
X0078866Y0075943D01*
X0078950Y0075973D01*
X0079034Y0075998D01*
X0079120Y0076020D01*
X0079206Y0076037D01*
X0079294Y0076051D01*
X0079382Y0076061D01*
X0079470Y0076067D01*
X0079558Y0076069D01*
X0079646Y0076067D01*
X0079734Y0076061D01*
X0079822Y0076051D01*
X0079910Y0076037D01*
X0079996Y0076020D01*
X0080082Y0075998D01*
X0080166Y0075973D01*
X0080250Y0075943D01*
X0080332Y0075911D01*
X0080412Y0075874D01*
X0080491Y0075834D01*
X0080568Y0075790D01*
X0080643Y0075743D01*
X0080715Y0075693D01*
X0080786Y0075639D01*
X0080853Y0075583D01*
X0080919Y0075523D01*
X0080981Y0075461D01*
X0081041Y0075395D01*
X0081097Y0075328D01*
X0081151Y0075257D01*
X0081201Y0075185D01*
X0081248Y0075110D01*
X0081292Y0075033D01*
X0081332Y0074954D01*
X0081369Y0074874D01*
X0081401Y0074792D01*
X0081431Y0074708D01*
X0081456Y0074624D01*
X0081478Y0074538D01*
X0081495Y0074452D01*
X0081509Y0074364D01*
X0081519Y0074276D01*
X0081525Y0074188D01*
X0081527Y0074100D01*
X0081525Y0074012D01*
X0081519Y0073924D01*
X0081509Y0073836D01*
X0081495Y0073748D01*
X0081478Y0073662D01*
X0081456Y0073576D01*
X0081431Y0073492D01*
X0081401Y0073408D01*
X0081369Y0073326D01*
X0081332Y0073246D01*
X0081292Y0073167D01*
X0081248Y0073090D01*
X0081201Y0073015D01*
X0081151Y0072943D01*
X0081097Y0072872D01*
X0081041Y0072805D01*
X0080981Y0072739D01*
X0080919Y0072677D01*
X0080853Y0072617D01*
X0080786Y0072561D01*
X0080715Y0072507D01*
X0080643Y0072457D01*
X0080568Y0072410D01*
X0080491Y0072366D01*
X0080412Y0072326D01*
X0080332Y0072289D01*
X0080250Y0072257D01*
X0080166Y0072227D01*
X0080082Y0072202D01*
X0079996Y0072180D01*
X0079910Y0072163D01*
X0079822Y0072149D01*
X0079734Y0072139D01*
X0079646Y0072133D01*
X0079558Y0072131D01*
X0079470Y0072133D01*
X0079382Y0072139D01*
X0079294Y0072149D01*
X0079206Y0072163D01*
X0079120Y0072180D01*
X0079034Y0072202D01*
X0078950Y0072227D01*
X0078866Y0072257D01*
X0078784Y0072289D01*
X0078704Y0072326D01*
X0078625Y0072366D01*
X0078548Y0072410D01*
X0078473Y0072457D01*
X0078401Y0072507D01*
X0078330Y0072561D01*
X0078263Y0072617D01*
X0078197Y0072677D01*
X0078135Y0072739D01*
X0078075Y0072805D01*
X0078019Y0072872D01*
X0077965Y0072943D01*
X0077915Y0073015D01*
X0077868Y0073090D01*
X0077824Y0073167D01*
X0077784Y0073246D01*
X0077747Y0073326D01*
X0077715Y0073408D01*
X0077685Y0073492D01*
X0077660Y0073576D01*
X0077638Y0073662D01*
X0077621Y0073748D01*
X0077607Y0073836D01*
X0077597Y0073924D01*
X0077591Y0074012D01*
X0077589Y0074100D01*
X0185500Y0030204D02*
X0185500Y0026000D01*
X0188302Y0026000D02*
X0188302Y0030204D01*
X0190104Y0028102D02*
X0192206Y0028102D01*
X0192906Y0027401D01*
X0192906Y0026701D01*
X0192206Y0026000D01*
X0190805Y0026000D01*
X0190104Y0026701D01*
X0190104Y0028102D01*
X0191505Y0029503D01*
X0192906Y0030204D01*
X0194708Y0028102D02*
X0197510Y0028102D01*
X0196810Y0030204D02*
X0194708Y0028102D01*
X0196810Y0026000D02*
X0196810Y0030204D01*
X0188302Y0026000D02*
X0185500Y0030204D01*
D14*
X0130376Y0003600D02*
X0130378Y0003629D01*
X0130384Y0003658D01*
X0130393Y0003686D01*
X0130406Y0003712D01*
X0130422Y0003736D01*
X0130442Y0003758D01*
X0130464Y0003778D01*
X0130488Y0003794D01*
X0130514Y0003807D01*
X0130542Y0003816D01*
X0130571Y0003822D01*
X0130600Y0003824D01*
X0130629Y0003822D01*
X0130658Y0003816D01*
X0130686Y0003807D01*
X0130712Y0003794D01*
X0130736Y0003778D01*
X0130758Y0003758D01*
X0130778Y0003736D01*
X0130794Y0003712D01*
X0130807Y0003686D01*
X0130816Y0003658D01*
X0130822Y0003629D01*
X0130824Y0003600D01*
X0130822Y0003571D01*
X0130816Y0003542D01*
X0130807Y0003514D01*
X0130794Y0003488D01*
X0130778Y0003464D01*
X0130758Y0003442D01*
X0130736Y0003422D01*
X0130712Y0003406D01*
X0130686Y0003393D01*
X0130658Y0003384D01*
X0130629Y0003378D01*
X0130600Y0003376D01*
X0130571Y0003378D01*
X0130542Y0003384D01*
X0130514Y0003393D01*
X0130488Y0003406D01*
X0130464Y0003422D01*
X0130442Y0003442D01*
X0130422Y0003464D01*
X0130406Y0003488D01*
X0130393Y0003514D01*
X0130384Y0003542D01*
X0130378Y0003571D01*
X0130376Y0003600D01*
X0104876Y0003600D02*
X0104878Y0003629D01*
X0104884Y0003658D01*
X0104893Y0003686D01*
X0104906Y0003712D01*
X0104922Y0003736D01*
X0104942Y0003758D01*
X0104964Y0003778D01*
X0104988Y0003794D01*
X0105014Y0003807D01*
X0105042Y0003816D01*
X0105071Y0003822D01*
X0105100Y0003824D01*
X0105129Y0003822D01*
X0105158Y0003816D01*
X0105186Y0003807D01*
X0105212Y0003794D01*
X0105236Y0003778D01*
X0105258Y0003758D01*
X0105278Y0003736D01*
X0105294Y0003712D01*
X0105307Y0003686D01*
X0105316Y0003658D01*
X0105322Y0003629D01*
X0105324Y0003600D01*
X0105322Y0003571D01*
X0105316Y0003542D01*
X0105307Y0003514D01*
X0105294Y0003488D01*
X0105278Y0003464D01*
X0105258Y0003442D01*
X0105236Y0003422D01*
X0105212Y0003406D01*
X0105186Y0003393D01*
X0105158Y0003384D01*
X0105129Y0003378D01*
X0105100Y0003376D01*
X0105071Y0003378D01*
X0105042Y0003384D01*
X0105014Y0003393D01*
X0104988Y0003406D01*
X0104964Y0003422D01*
X0104942Y0003442D01*
X0104922Y0003464D01*
X0104906Y0003488D01*
X0104893Y0003514D01*
X0104884Y0003542D01*
X0104878Y0003571D01*
X0104876Y0003600D01*
X0085876Y0021100D02*
X0085878Y0021129D01*
X0085884Y0021158D01*
X0085893Y0021186D01*
X0085906Y0021212D01*
X0085922Y0021236D01*
X0085942Y0021258D01*
X0085964Y0021278D01*
X0085988Y0021294D01*
X0086014Y0021307D01*
X0086042Y0021316D01*
X0086071Y0021322D01*
X0086100Y0021324D01*
X0086129Y0021322D01*
X0086158Y0021316D01*
X0086186Y0021307D01*
X0086212Y0021294D01*
X0086236Y0021278D01*
X0086258Y0021258D01*
X0086278Y0021236D01*
X0086294Y0021212D01*
X0086307Y0021186D01*
X0086316Y0021158D01*
X0086322Y0021129D01*
X0086324Y0021100D01*
X0086322Y0021071D01*
X0086316Y0021042D01*
X0086307Y0021014D01*
X0086294Y0020988D01*
X0086278Y0020964D01*
X0086258Y0020942D01*
X0086236Y0020922D01*
X0086212Y0020906D01*
X0086186Y0020893D01*
X0086158Y0020884D01*
X0086129Y0020878D01*
X0086100Y0020876D01*
X0086071Y0020878D01*
X0086042Y0020884D01*
X0086014Y0020893D01*
X0085988Y0020906D01*
X0085964Y0020922D01*
X0085942Y0020942D01*
X0085922Y0020964D01*
X0085906Y0020988D01*
X0085893Y0021014D01*
X0085884Y0021042D01*
X0085878Y0021071D01*
X0085876Y0021100D01*
X0117376Y0148100D02*
X0117378Y0148129D01*
X0117384Y0148158D01*
X0117393Y0148186D01*
X0117406Y0148212D01*
X0117422Y0148236D01*
X0117442Y0148258D01*
X0117464Y0148278D01*
X0117488Y0148294D01*
X0117514Y0148307D01*
X0117542Y0148316D01*
X0117571Y0148322D01*
X0117600Y0148324D01*
X0117629Y0148322D01*
X0117658Y0148316D01*
X0117686Y0148307D01*
X0117712Y0148294D01*
X0117736Y0148278D01*
X0117758Y0148258D01*
X0117778Y0148236D01*
X0117794Y0148212D01*
X0117807Y0148186D01*
X0117816Y0148158D01*
X0117822Y0148129D01*
X0117824Y0148100D01*
X0117822Y0148071D01*
X0117816Y0148042D01*
X0117807Y0148014D01*
X0117794Y0147988D01*
X0117778Y0147964D01*
X0117758Y0147942D01*
X0117736Y0147922D01*
X0117712Y0147906D01*
X0117686Y0147893D01*
X0117658Y0147884D01*
X0117629Y0147878D01*
X0117600Y0147876D01*
X0117571Y0147878D01*
X0117542Y0147884D01*
X0117514Y0147893D01*
X0117488Y0147906D01*
X0117464Y0147922D01*
X0117442Y0147942D01*
X0117422Y0147964D01*
X0117406Y0147988D01*
X0117393Y0148014D01*
X0117384Y0148042D01*
X0117378Y0148071D01*
X0117376Y0148100D01*
D15*
X0171338Y0045879D02*
X0174085Y0046843D01*
X0176869Y0045891D01*
X0174192Y0044833D01*
X0171338Y0045879D01*
X0169756Y0042989D01*
X0171076Y0040313D01*
X0171076Y0034342D01*
X0167091Y0042085D01*
X0169685Y0043132D01*
X0171076Y0040313D01*
X0171076Y0040444D01*
X0174228Y0039159D01*
X0174228Y0027230D01*
X0171279Y0028443D01*
X0166961Y0036293D01*
X0166961Y0030215D01*
X0164118Y0031381D01*
X0164118Y0043298D01*
X0167091Y0042085D01*
X0166854Y0044190D02*
X0164118Y0043298D01*
X0166854Y0044190D02*
X0169685Y0043132D01*
X0171076Y0040444D02*
X0174192Y0041693D01*
X0177297Y0040420D01*
X0181317Y0034723D01*
X0181317Y0042062D01*
X0184326Y0043298D01*
X0184326Y0031381D01*
X0181471Y0030203D01*
X0177189Y0035734D01*
X0177189Y0032642D01*
X0177189Y0028455D01*
X0174228Y0027230D01*
X0178165Y0031345D02*
X0181471Y0030203D01*
X0178165Y0031345D02*
X0177189Y0032642D01*
X0169685Y0031333D02*
X0166961Y0030215D01*
X0169685Y0031333D02*
X0166961Y0036293D01*
X0171076Y0040444D02*
X0171802Y0040729D01*
X0174192Y0041693D01*
X0176309Y0040825D01*
X0178533Y0043120D01*
X0181317Y0042062D01*
X0181471Y0044333D02*
X0178533Y0043120D01*
X0176869Y0041407D02*
X0176869Y0045891D01*
X0174192Y0044833D02*
X0171802Y0040729D01*
X0174228Y0039159D02*
X0177297Y0040420D01*
X0176309Y0040825D01*
X0181471Y0044333D02*
X0184326Y0043298D01*
D16*
X0233647Y0054998D02*
X0239553Y0054998D01*
X0239553Y0067202D02*
X0233647Y0067202D01*
X0202053Y0132998D02*
X0196147Y0132998D01*
X0196147Y0145202D02*
X0202053Y0145202D01*
X0037053Y0107702D02*
X0031147Y0107702D01*
X0031147Y0095498D02*
X0037053Y0095498D01*
X0037053Y0090202D02*
X0031147Y0090202D01*
X0031147Y0077998D02*
X0037053Y0077998D01*
X0037053Y0072702D02*
X0031147Y0072702D01*
X0031147Y0060498D02*
X0037053Y0060498D01*
M02*
