G75*
%MOIN*%
%OFA0B0*%
%FSLAX25Y25*%
%IPPOS*%
%LPD*%
%AMOC8*
5,1,8,0,0,1.08239X$1,22.5*
%
%ADD10R,0.04906X0.06874*%
%ADD11R,0.03543X0.03150*%
%ADD12R,0.04118X0.04906*%
%ADD13R,0.03150X0.03543*%
%ADD14R,0.05299X0.07661*%
%ADD15R,0.03150X0.01575*%
%ADD16R,0.05402X0.02016*%
%ADD17R,0.05654X0.01008*%
%ADD18R,0.02016X0.05402*%
%ADD19R,0.01008X0.05654*%
%ADD20R,0.03661X0.01102*%
%ADD21R,0.01575X0.03150*%
D10*
X0153194Y0041600D03*
X0165006Y0041600D03*
X0022506Y0109100D03*
X0010694Y0109100D03*
D11*
X0101600Y0016821D03*
X0101600Y0010129D03*
X0149100Y0010129D03*
X0149100Y0016821D03*
X0156066Y0031287D03*
X0162759Y0031287D03*
D12*
X0162840Y0041600D03*
X0155360Y0041600D03*
X0042528Y0109100D03*
X0035047Y0109100D03*
X0020340Y0109100D03*
X0012860Y0109100D03*
X0047860Y0126600D03*
X0055340Y0126600D03*
D13*
X0019946Y0124100D03*
X0013254Y0124100D03*
X0135754Y0086600D03*
X0142446Y0086600D03*
X0153254Y0086600D03*
X0159946Y0086600D03*
X0159946Y0076600D03*
X0153254Y0076600D03*
X0142446Y0076600D03*
X0135754Y0076600D03*
D14*
X0022112Y0124100D03*
X0011088Y0124100D03*
D15*
X0033450Y0091324D03*
X0033450Y0088175D03*
X0033450Y0085025D03*
X0033450Y0081876D03*
X0039750Y0081876D03*
X0039750Y0085025D03*
X0039750Y0088175D03*
X0039750Y0091324D03*
X0039750Y0073824D03*
X0039750Y0070675D03*
X0039750Y0067525D03*
X0039750Y0064376D03*
X0033450Y0064376D03*
X0033450Y0067525D03*
X0033450Y0070675D03*
X0033450Y0073824D03*
X0033450Y0056324D03*
X0033450Y0053175D03*
X0033450Y0050025D03*
X0033450Y0046876D03*
X0039750Y0046876D03*
X0039750Y0050025D03*
X0039750Y0053175D03*
X0039750Y0056324D03*
X0080950Y0116876D03*
X0080950Y0120025D03*
X0080950Y0123175D03*
X0080950Y0126324D03*
X0087250Y0126324D03*
X0087250Y0123175D03*
X0087250Y0120025D03*
X0087250Y0116876D03*
X0135950Y0117525D03*
X0135950Y0120675D03*
X0135950Y0123824D03*
X0142250Y0123824D03*
X0142250Y0120675D03*
X0142250Y0117525D03*
X0142250Y0114376D03*
X0135950Y0114376D03*
X0135950Y0106324D03*
X0135950Y0103175D03*
X0135950Y0100025D03*
X0135950Y0096876D03*
X0142250Y0096876D03*
X0142250Y0100025D03*
X0142250Y0103175D03*
X0142250Y0106324D03*
X0150950Y0106324D03*
X0150950Y0103175D03*
X0150950Y0100025D03*
X0150950Y0096876D03*
X0157250Y0096876D03*
X0157250Y0100025D03*
X0157250Y0103175D03*
X0157250Y0106324D03*
X0157250Y0114376D03*
X0157250Y0117525D03*
X0157250Y0120675D03*
X0157250Y0123824D03*
X0150950Y0123824D03*
X0150950Y0120675D03*
X0150950Y0117525D03*
X0150950Y0114376D03*
X0168450Y0066324D03*
X0168450Y0063175D03*
X0168450Y0060025D03*
X0168450Y0056876D03*
X0174750Y0056876D03*
X0174750Y0060025D03*
X0174750Y0063175D03*
X0174750Y0066324D03*
D16*
X0123096Y0052348D03*
X0060104Y0052348D03*
X0060104Y0100852D03*
X0123096Y0100852D03*
D17*
X0123096Y0098254D03*
X0123096Y0096285D03*
X0123096Y0094317D03*
X0123096Y0092348D03*
X0123096Y0090380D03*
X0123096Y0088411D03*
X0123096Y0086443D03*
X0123096Y0084474D03*
X0123096Y0082506D03*
X0123096Y0080537D03*
X0123096Y0078569D03*
X0123096Y0076600D03*
X0123096Y0074631D03*
X0123096Y0072663D03*
X0123096Y0070694D03*
X0123096Y0068726D03*
X0123096Y0066757D03*
X0123096Y0064789D03*
X0123096Y0062820D03*
X0123096Y0060852D03*
X0123096Y0058883D03*
X0123096Y0056915D03*
X0123096Y0054946D03*
X0060104Y0054946D03*
X0060104Y0056915D03*
X0060104Y0058883D03*
X0060104Y0060852D03*
X0060104Y0062820D03*
X0060104Y0064789D03*
X0060104Y0066757D03*
X0060104Y0068726D03*
X0060104Y0070694D03*
X0060104Y0072663D03*
X0060104Y0074631D03*
X0060104Y0076600D03*
X0060104Y0078569D03*
X0060104Y0080537D03*
X0060104Y0082506D03*
X0060104Y0084474D03*
X0060104Y0086443D03*
X0060104Y0088411D03*
X0060104Y0090380D03*
X0060104Y0092348D03*
X0060104Y0094317D03*
X0060104Y0096285D03*
X0060104Y0098254D03*
D18*
X0067348Y0108096D03*
X0115852Y0108096D03*
X0115852Y0045104D03*
X0067348Y0045104D03*
D19*
X0069946Y0045104D03*
X0071915Y0045104D03*
X0073883Y0045104D03*
X0075852Y0045104D03*
X0077820Y0045104D03*
X0079789Y0045104D03*
X0081757Y0045104D03*
X0083726Y0045104D03*
X0085694Y0045104D03*
X0087663Y0045104D03*
X0089631Y0045104D03*
X0091600Y0045104D03*
X0093569Y0045104D03*
X0095537Y0045104D03*
X0097506Y0045104D03*
X0099474Y0045104D03*
X0101443Y0045104D03*
X0103411Y0045104D03*
X0105380Y0045104D03*
X0107348Y0045104D03*
X0109317Y0045104D03*
X0111285Y0045104D03*
X0113254Y0045104D03*
X0113254Y0108096D03*
X0111285Y0108096D03*
X0109317Y0108096D03*
X0107348Y0108096D03*
X0105380Y0108096D03*
X0103411Y0108096D03*
X0101443Y0108096D03*
X0099474Y0108096D03*
X0097506Y0108096D03*
X0095537Y0108096D03*
X0093569Y0108096D03*
X0091600Y0108096D03*
X0089631Y0108096D03*
X0087663Y0108096D03*
X0085694Y0108096D03*
X0083726Y0108096D03*
X0081757Y0108096D03*
X0079789Y0108096D03*
X0077820Y0108096D03*
X0075852Y0108096D03*
X0073883Y0108096D03*
X0071915Y0108096D03*
X0069946Y0108096D03*
D20*
X0136728Y0066465D03*
X0136728Y0063906D03*
X0136728Y0061347D03*
X0136728Y0058787D03*
X0136728Y0056228D03*
X0136728Y0053669D03*
X0136728Y0051110D03*
X0158972Y0051110D03*
X0158972Y0053669D03*
X0158972Y0056228D03*
X0158972Y0058787D03*
X0158972Y0061347D03*
X0158972Y0063906D03*
X0158972Y0066465D03*
D21*
X0064376Y0010325D03*
X0067525Y0010325D03*
X0070675Y0010325D03*
X0073824Y0010325D03*
X0081876Y0010325D03*
X0085025Y0010325D03*
X0088175Y0010325D03*
X0091324Y0010325D03*
X0091324Y0016625D03*
X0088175Y0016625D03*
X0085025Y0016625D03*
X0081876Y0016625D03*
X0073824Y0016625D03*
X0070675Y0016625D03*
X0067525Y0016625D03*
X0064376Y0016625D03*
X0064376Y0025325D03*
X0067525Y0025325D03*
X0070675Y0025325D03*
X0073824Y0025325D03*
X0073824Y0031625D03*
X0070675Y0031625D03*
X0067525Y0031625D03*
X0064376Y0031625D03*
X0081876Y0031625D03*
X0085025Y0031625D03*
X0088175Y0031625D03*
X0091324Y0031625D03*
X0091324Y0025325D03*
X0088175Y0025325D03*
X0085025Y0025325D03*
X0081876Y0025325D03*
X0111876Y0025325D03*
X0115025Y0025325D03*
X0118175Y0025325D03*
X0121324Y0025325D03*
X0121324Y0031625D03*
X0118175Y0031625D03*
X0115025Y0031625D03*
X0111876Y0031625D03*
X0129376Y0031625D03*
X0132525Y0031625D03*
X0135675Y0031625D03*
X0138824Y0031625D03*
X0138824Y0025325D03*
X0135675Y0025325D03*
X0132525Y0025325D03*
X0129376Y0025325D03*
X0129376Y0016625D03*
X0132525Y0016625D03*
X0135675Y0016625D03*
X0138824Y0016625D03*
X0138824Y0010325D03*
X0135675Y0010325D03*
X0132525Y0010325D03*
X0129376Y0010325D03*
X0121324Y0010325D03*
X0118175Y0010325D03*
X0115025Y0010325D03*
X0111876Y0010325D03*
X0111876Y0016625D03*
X0115025Y0016625D03*
X0118175Y0016625D03*
X0121324Y0016625D03*
M02*
