G75*
%MOIN*%
%OFA0B0*%
%FSLAX25Y25*%
%IPPOS*%
%LPD*%
%AMOC8*
5,1,8,0,0,1.08239X$1,22.5*
%
%ADD10R,0.03543X0.03150*%
%ADD11R,0.03150X0.03543*%
%ADD12R,0.01732X0.04291*%
D10*
X0016600Y0033254D03*
X0016600Y0039946D03*
X0041600Y0039946D03*
X0041600Y0033254D03*
X0051600Y0033254D03*
X0051600Y0039946D03*
X0070754Y0072538D03*
X0077446Y0072538D03*
X0077446Y0080663D03*
X0070754Y0080663D03*
X0105441Y0077225D03*
X0112134Y0077225D03*
X0112134Y0069100D03*
X0105441Y0069100D03*
X0173254Y0081600D03*
X0179946Y0081600D03*
X0179946Y0091600D03*
X0173254Y0091600D03*
X0173254Y0101600D03*
X0179946Y0101600D03*
X0179946Y0111600D03*
X0173254Y0111600D03*
X0173254Y0121600D03*
X0179946Y0121600D03*
X0068071Y0126600D03*
X0061379Y0126600D03*
D11*
X0039100Y0124946D03*
X0039100Y0118254D03*
X0048254Y0106600D03*
X0054946Y0106600D03*
X0079725Y0097446D03*
X0079725Y0090754D03*
X0091600Y0090754D03*
X0091600Y0097446D03*
X0102225Y0097446D03*
X0102225Y0090754D03*
X0105350Y0062446D03*
X0105350Y0055754D03*
X0092537Y0055754D03*
X0092537Y0062446D03*
X0077850Y0062446D03*
X0077850Y0055754D03*
D12*
X0055340Y0116482D03*
X0051600Y0116482D03*
X0047860Y0116482D03*
X0047860Y0126718D03*
X0055340Y0126718D03*
M02*
