G75*
%MOIN*%
%OFA0B0*%
%FSLAX25Y25*%
%IPPOS*%
%LPD*%
%AMOC8*
5,1,8,0,0,1.08239X$1,22.5*
%
%ADD10C,0.00000*%
%ADD11R,0.04118X0.04906*%
%ADD12R,0.05299X0.06087*%
%ADD13R,0.09630X0.05299*%
%ADD14R,0.04906X0.04118*%
%ADD15R,0.03150X0.03543*%
%ADD16R,0.03543X0.03150*%
%ADD17R,0.03150X0.01575*%
%ADD18R,0.05402X0.02016*%
%ADD19R,0.05654X0.01008*%
%ADD20R,0.02016X0.05402*%
%ADD21R,0.01008X0.05654*%
%ADD22R,0.03465X0.01890*%
%ADD23R,0.03701X0.00945*%
%ADD24R,0.01890X0.03465*%
%ADD25R,0.00945X0.03701*%
%ADD26R,0.01260X0.03819*%
D10*
X0001500Y0004550D02*
X0004000Y0002050D01*
X0198000Y0002050D01*
X0200500Y0004550D01*
X0200500Y0122050D01*
X0198000Y0124550D01*
X0004000Y0124550D01*
X0001500Y0122050D01*
X0001500Y0004550D01*
D11*
X0146760Y0025550D03*
X0154240Y0025550D03*
X0015740Y0117550D03*
X0008260Y0117550D03*
X0139760Y0118550D03*
X0147240Y0118550D03*
X0185760Y0118550D03*
X0193240Y0118550D03*
D12*
X0156512Y0013050D03*
X0145488Y0013050D03*
D13*
X0168500Y0013538D03*
X0168500Y0024562D03*
D14*
X0054000Y0108310D03*
X0054000Y0115790D03*
X0036500Y0115290D03*
X0036500Y0107810D03*
D15*
X0027846Y0106050D03*
X0021154Y0106050D03*
X0131154Y0032550D03*
X0137846Y0032550D03*
X0122846Y0023050D03*
X0116154Y0023050D03*
X0110846Y0023050D03*
X0104154Y0023050D03*
X0159154Y0118550D03*
X0165846Y0118550D03*
D16*
X0165500Y0110896D03*
X0165500Y0104204D03*
X0181000Y0024396D03*
X0181000Y0017704D03*
D17*
X0036650Y0046326D03*
X0036650Y0049475D03*
X0036650Y0052625D03*
X0036650Y0055774D03*
X0036650Y0061326D03*
X0036650Y0064475D03*
X0036650Y0067625D03*
X0036650Y0070774D03*
X0036650Y0076326D03*
X0036650Y0079475D03*
X0036650Y0082625D03*
X0036650Y0085774D03*
X0030350Y0085774D03*
X0030350Y0082625D03*
X0030350Y0079475D03*
X0030350Y0076326D03*
X0030350Y0070774D03*
X0030350Y0067625D03*
X0030350Y0064475D03*
X0030350Y0061326D03*
X0030350Y0055774D03*
X0030350Y0052625D03*
X0030350Y0049475D03*
X0030350Y0046326D03*
D18*
X0057004Y0046798D03*
X0119996Y0046798D03*
X0119996Y0095302D03*
X0057004Y0095302D03*
D19*
X0057004Y0092704D03*
X0057004Y0090735D03*
X0057004Y0088767D03*
X0057004Y0086798D03*
X0057004Y0084830D03*
X0057004Y0082861D03*
X0057004Y0080893D03*
X0057004Y0078924D03*
X0057004Y0076956D03*
X0057004Y0074987D03*
X0057004Y0073019D03*
X0057004Y0071050D03*
X0057004Y0069081D03*
X0057004Y0067113D03*
X0057004Y0065144D03*
X0057004Y0063176D03*
X0057004Y0061207D03*
X0057004Y0059239D03*
X0057004Y0057270D03*
X0057004Y0055302D03*
X0057004Y0053333D03*
X0057004Y0051365D03*
X0057004Y0049396D03*
X0119996Y0049396D03*
X0119996Y0051365D03*
X0119996Y0053333D03*
X0119996Y0055302D03*
X0119996Y0057270D03*
X0119996Y0059239D03*
X0119996Y0061207D03*
X0119996Y0063176D03*
X0119996Y0065144D03*
X0119996Y0067113D03*
X0119996Y0069081D03*
X0119996Y0071050D03*
X0119996Y0073019D03*
X0119996Y0074987D03*
X0119996Y0076956D03*
X0119996Y0078924D03*
X0119996Y0080893D03*
X0119996Y0082861D03*
X0119996Y0084830D03*
X0119996Y0086798D03*
X0119996Y0088767D03*
X0119996Y0090735D03*
X0119996Y0092704D03*
D20*
X0112752Y0102546D03*
X0064248Y0102546D03*
X0064248Y0039554D03*
X0112752Y0039554D03*
D21*
X0110154Y0039554D03*
X0108185Y0039554D03*
X0106217Y0039554D03*
X0104248Y0039554D03*
X0102280Y0039554D03*
X0100311Y0039554D03*
X0098343Y0039554D03*
X0096374Y0039554D03*
X0094406Y0039554D03*
X0092437Y0039554D03*
X0090469Y0039554D03*
X0088500Y0039554D03*
X0086531Y0039554D03*
X0084563Y0039554D03*
X0082594Y0039554D03*
X0080626Y0039554D03*
X0078657Y0039554D03*
X0076689Y0039554D03*
X0074720Y0039554D03*
X0072752Y0039554D03*
X0070783Y0039554D03*
X0068815Y0039554D03*
X0066846Y0039554D03*
X0066846Y0102546D03*
X0068815Y0102546D03*
X0070783Y0102546D03*
X0072752Y0102546D03*
X0074720Y0102546D03*
X0076689Y0102546D03*
X0078657Y0102546D03*
X0080626Y0102546D03*
X0082594Y0102546D03*
X0084563Y0102546D03*
X0086531Y0102546D03*
X0088500Y0102546D03*
X0090469Y0102546D03*
X0092437Y0102546D03*
X0094406Y0102546D03*
X0096374Y0102546D03*
X0098343Y0102546D03*
X0100311Y0102546D03*
X0102280Y0102546D03*
X0104248Y0102546D03*
X0106217Y0102546D03*
X0108185Y0102546D03*
X0110154Y0102546D03*
D22*
X0134268Y0093294D03*
X0167732Y0093294D03*
X0167732Y0070459D03*
X0134268Y0070459D03*
D23*
X0134268Y0073019D03*
X0134268Y0074987D03*
X0134268Y0076956D03*
X0134268Y0078924D03*
X0134268Y0080893D03*
X0134268Y0082861D03*
X0134268Y0084830D03*
X0134268Y0086798D03*
X0134268Y0088767D03*
X0134268Y0090735D03*
X0167732Y0090735D03*
X0167732Y0088767D03*
X0167732Y0086798D03*
X0167732Y0084830D03*
X0167732Y0082861D03*
X0167732Y0080893D03*
X0167732Y0078924D03*
X0167732Y0076956D03*
X0167732Y0074987D03*
X0167732Y0073019D03*
D24*
X0162417Y0065144D03*
X0139583Y0065144D03*
X0139583Y0098609D03*
X0162417Y0098609D03*
D25*
X0159858Y0098609D03*
X0157890Y0098609D03*
X0155921Y0098609D03*
X0153953Y0098609D03*
X0151984Y0098609D03*
X0150016Y0098609D03*
X0148047Y0098609D03*
X0146079Y0098609D03*
X0144110Y0098609D03*
X0142142Y0098609D03*
X0142142Y0065144D03*
X0144110Y0065144D03*
X0146079Y0065144D03*
X0148047Y0065144D03*
X0150016Y0065144D03*
X0151984Y0065144D03*
X0153953Y0065144D03*
X0155921Y0065144D03*
X0157890Y0065144D03*
X0159858Y0065144D03*
D26*
X0136059Y0024692D03*
X0133500Y0024692D03*
X0130941Y0024692D03*
X0130941Y0017408D03*
X0133500Y0017408D03*
X0136059Y0017408D03*
M02*
