G75*
%MOIN*%
%OFA0B0*%
%FSLAX25Y25*%
%IPPOS*%
%LPD*%
%AMOC8*
5,1,8,0,0,1.08239X$1,22.5*
%
%ADD10C,0.00000*%
%ADD11R,0.05118X0.05906*%
%ADD12R,0.04331X0.03937*%
%ADD13R,0.03937X0.04331*%
%ADD14R,0.02500X0.08500*%
D10*
X0003100Y0006600D02*
X0008100Y0001600D01*
X0226100Y0001600D01*
X0230100Y0005600D01*
X0234100Y0005600D01*
X0238100Y0001600D01*
X0239600Y0001600D01*
X0243600Y0005600D01*
X0247100Y0005600D01*
X0251100Y0001600D01*
X0252100Y0001600D01*
X0257100Y0006600D01*
X0257100Y0106600D01*
X0237600Y0126100D01*
X0237600Y0147600D01*
X0235100Y0150100D01*
X0015600Y0150100D01*
X0003100Y0137600D01*
X0003100Y0006600D01*
D11*
X0037360Y0126600D03*
X0044840Y0126600D03*
D12*
G36*
X0086595Y0124388D02*
X0089656Y0121327D01*
X0086873Y0118544D01*
X0083812Y0121605D01*
X0086595Y0124388D01*
G37*
G36*
X0092095Y0129888D02*
X0095156Y0126827D01*
X0092373Y0124044D01*
X0089312Y0127105D01*
X0092095Y0129888D01*
G37*
G36*
X0097595Y0135388D02*
X0100656Y0132327D01*
X0097873Y0129544D01*
X0094812Y0132605D01*
X0097595Y0135388D01*
G37*
G36*
X0105630Y0143353D02*
X0108691Y0140292D01*
X0105908Y0137509D01*
X0102847Y0140570D01*
X0105630Y0143353D01*
G37*
G36*
X0110363Y0138620D02*
X0113424Y0135559D01*
X0110641Y0132776D01*
X0107580Y0135837D01*
X0110363Y0138620D01*
G37*
G36*
X0102327Y0130656D02*
X0105388Y0127595D01*
X0102605Y0124812D01*
X0099544Y0127873D01*
X0102327Y0130656D01*
G37*
G36*
X0096827Y0125156D02*
X0099888Y0122095D01*
X0097105Y0119312D01*
X0094044Y0122373D01*
X0096827Y0125156D01*
G37*
G36*
X0091327Y0119656D02*
X0094388Y0116595D01*
X0091605Y0113812D01*
X0088544Y0116873D01*
X0091327Y0119656D01*
G37*
G36*
X0122312Y0108095D02*
X0125373Y0111156D01*
X0128156Y0108373D01*
X0125095Y0105312D01*
X0122312Y0108095D01*
G37*
G36*
X0127044Y0112827D02*
X0130105Y0115888D01*
X0132888Y0113105D01*
X0129827Y0110044D01*
X0127044Y0112827D01*
G37*
G36*
X0140044Y0100327D02*
X0143105Y0103388D01*
X0145888Y0100605D01*
X0142827Y0097544D01*
X0140044Y0100327D01*
G37*
G36*
X0135312Y0095595D02*
X0138373Y0098656D01*
X0141156Y0095873D01*
X0138095Y0092812D01*
X0135312Y0095595D01*
G37*
G36*
X0156544Y0083327D02*
X0159605Y0086388D01*
X0162388Y0083605D01*
X0159327Y0080544D01*
X0156544Y0083327D01*
G37*
G36*
X0151812Y0078595D02*
X0154873Y0081656D01*
X0157656Y0078873D01*
X0154595Y0075812D01*
X0151812Y0078595D01*
G37*
G36*
X0157812Y0072595D02*
X0160873Y0075656D01*
X0163656Y0072873D01*
X0160595Y0069812D01*
X0157812Y0072595D01*
G37*
G36*
X0162544Y0077327D02*
X0165605Y0080388D01*
X0168388Y0077605D01*
X0165327Y0074544D01*
X0162544Y0077327D01*
G37*
G36*
X0150595Y0068388D02*
X0153656Y0065327D01*
X0150873Y0062544D01*
X0147812Y0065605D01*
X0150595Y0068388D01*
G37*
G36*
X0155327Y0063656D02*
X0158388Y0060595D01*
X0155605Y0057812D01*
X0152544Y0060873D01*
X0155327Y0063656D01*
G37*
G36*
X0144095Y0061888D02*
X0147156Y0058827D01*
X0144373Y0056044D01*
X0141312Y0059105D01*
X0144095Y0061888D01*
G37*
G36*
X0148827Y0057156D02*
X0151888Y0054095D01*
X0149105Y0051312D01*
X0146044Y0054373D01*
X0148827Y0057156D01*
G37*
G36*
X0131595Y0049388D02*
X0134656Y0046327D01*
X0131873Y0043544D01*
X0128812Y0046605D01*
X0131595Y0049388D01*
G37*
G36*
X0136327Y0044656D02*
X0139388Y0041595D01*
X0136605Y0038812D01*
X0133544Y0041873D01*
X0136327Y0044656D01*
G37*
G36*
X0126095Y0043888D02*
X0129156Y0040827D01*
X0126373Y0038044D01*
X0123312Y0041105D01*
X0126095Y0043888D01*
G37*
G36*
X0130827Y0039156D02*
X0133888Y0036095D01*
X0131105Y0033312D01*
X0128044Y0036373D01*
X0130827Y0039156D01*
G37*
G36*
X0133095Y0028888D02*
X0136156Y0025827D01*
X0133373Y0023044D01*
X0130312Y0026105D01*
X0133095Y0028888D01*
G37*
G36*
X0137827Y0024156D02*
X0140888Y0021095D01*
X0138105Y0018312D01*
X0135044Y0021373D01*
X0137827Y0024156D01*
G37*
X0132446Y0009100D03*
X0125754Y0009100D03*
G36*
X0106544Y0013327D02*
X0109605Y0016388D01*
X0112388Y0013605D01*
X0109327Y0010544D01*
X0106544Y0013327D01*
G37*
G36*
X0101812Y0008595D02*
X0104873Y0011656D01*
X0107656Y0008873D01*
X0104595Y0005812D01*
X0101812Y0008595D01*
G37*
G36*
X0094312Y0016095D02*
X0097373Y0019156D01*
X0100156Y0016373D01*
X0097095Y0013312D01*
X0094312Y0016095D01*
G37*
G36*
X0099044Y0020827D02*
X0102105Y0023888D01*
X0104888Y0021105D01*
X0101827Y0018044D01*
X0099044Y0020827D01*
G37*
G36*
X0088812Y0021595D02*
X0091873Y0024656D01*
X0094656Y0021873D01*
X0091595Y0018812D01*
X0088812Y0021595D01*
G37*
G36*
X0093544Y0026327D02*
X0096605Y0029388D01*
X0099388Y0026605D01*
X0096327Y0023544D01*
X0093544Y0026327D01*
G37*
G36*
X0077312Y0033095D02*
X0080373Y0036156D01*
X0083156Y0033373D01*
X0080095Y0030312D01*
X0077312Y0033095D01*
G37*
G36*
X0082044Y0037827D02*
X0085105Y0040888D01*
X0087888Y0038105D01*
X0084827Y0035044D01*
X0082044Y0037827D01*
G37*
X0067946Y0059100D03*
X0061254Y0059100D03*
X0044946Y0074600D03*
X0038254Y0074600D03*
G36*
X0084373Y0076044D02*
X0081312Y0079105D01*
X0084095Y0081888D01*
X0087156Y0078827D01*
X0084373Y0076044D01*
G37*
G36*
X0089105Y0071312D02*
X0086044Y0074373D01*
X0088827Y0077156D01*
X0091888Y0074095D01*
X0089105Y0071312D01*
G37*
G36*
X0095205Y0077312D02*
X0092144Y0080373D01*
X0094927Y0083156D01*
X0097988Y0080095D01*
X0095205Y0077312D01*
G37*
G36*
X0090473Y0082044D02*
X0087412Y0085105D01*
X0090195Y0087888D01*
X0093256Y0084827D01*
X0090473Y0082044D01*
G37*
G36*
X0102105Y0084312D02*
X0099044Y0087373D01*
X0101827Y0090156D01*
X0104888Y0087095D01*
X0102105Y0084312D01*
G37*
G36*
X0097373Y0089044D02*
X0094312Y0092105D01*
X0097095Y0094888D01*
X0100156Y0091827D01*
X0097373Y0089044D01*
G37*
G36*
X0142156Y0134373D02*
X0139095Y0131312D01*
X0136312Y0134095D01*
X0139373Y0137156D01*
X0142156Y0134373D01*
G37*
G36*
X0146888Y0139105D02*
X0143827Y0136044D01*
X0141044Y0138827D01*
X0144105Y0141888D01*
X0146888Y0139105D01*
G37*
X0188254Y0143100D03*
X0194946Y0143100D03*
X0217600Y0090946D03*
X0217600Y0084254D03*
X0215946Y0067600D03*
X0209254Y0067600D03*
X0209254Y0059600D03*
X0215946Y0059600D03*
X0215946Y0050600D03*
X0209254Y0050600D03*
X0201446Y0048600D03*
X0194754Y0048600D03*
X0194754Y0056600D03*
X0201446Y0056600D03*
X0209254Y0042600D03*
X0215946Y0042600D03*
G36*
X0176605Y0041312D02*
X0173544Y0044373D01*
X0176327Y0047156D01*
X0179388Y0044095D01*
X0176605Y0041312D01*
G37*
G36*
X0171873Y0046044D02*
X0168812Y0049105D01*
X0171595Y0051888D01*
X0174656Y0048827D01*
X0171873Y0046044D01*
G37*
D13*
X0208254Y0076600D03*
X0214946Y0076600D03*
X0225600Y0084254D03*
X0233600Y0084254D03*
X0233600Y0090946D03*
X0225600Y0090946D03*
X0079946Y0014600D03*
X0073254Y0014600D03*
X0044946Y0046100D03*
X0038254Y0046100D03*
X0038254Y0054100D03*
X0044946Y0054100D03*
X0044946Y0062100D03*
X0038254Y0062100D03*
X0013946Y0024600D03*
X0007254Y0024600D03*
X0007254Y0014600D03*
X0013946Y0014600D03*
D14*
X0016600Y0045900D03*
X0021600Y0045900D03*
X0026600Y0045900D03*
X0031600Y0045900D03*
X0031600Y0071300D03*
X0026600Y0071300D03*
X0021600Y0071300D03*
X0016600Y0071300D03*
M02*
