G75*
%MOIN*%
%OFA0B0*%
%FSLAX25Y25*%
%IPPOS*%
%LPD*%
%AMOC8*
5,1,8,0,0,1.08239X$1,22.5*
%
%ADD10R,0.04118X0.04906*%
%ADD11R,0.03543X0.03150*%
%ADD12R,0.05299X0.09630*%
%ADD13R,0.05299X0.06087*%
%ADD14R,0.03150X0.03543*%
%ADD15R,0.03150X0.01575*%
%ADD16R,0.03465X0.01890*%
%ADD17R,0.03701X0.00945*%
%ADD18R,0.01890X0.03465*%
%ADD19R,0.00945X0.03701*%
%ADD20R,0.25378X0.25378*%
%ADD21R,0.01260X0.03819*%
%ADD22R,0.06063X0.00945*%
%ADD23R,0.04291X0.01732*%
%ADD24R,0.04252X0.03465*%
D10*
X0199860Y0128342D03*
X0207340Y0128342D03*
X0102840Y0129342D03*
X0095360Y0129342D03*
X0035340Y0141842D03*
X0027860Y0141842D03*
X0227860Y0026342D03*
X0235340Y0026342D03*
D11*
X0222600Y0084496D03*
X0222600Y0091189D03*
X0189446Y0121842D03*
X0182754Y0121842D03*
X0157100Y0120189D03*
X0157100Y0113496D03*
X0051600Y0047689D03*
X0051600Y0040996D03*
D12*
X0200588Y0116342D03*
X0211612Y0116342D03*
D13*
X0211612Y0103842D03*
X0200588Y0103842D03*
D14*
X0222754Y0103842D03*
X0229446Y0103842D03*
X0174446Y0111842D03*
X0167754Y0111842D03*
X0167754Y0121842D03*
X0174446Y0121842D03*
X0102446Y0137342D03*
X0095754Y0137342D03*
X0084100Y0138496D03*
X0084100Y0145189D03*
X0084100Y0130189D03*
X0084100Y0123496D03*
X0054100Y0123496D03*
X0054100Y0130189D03*
X0054100Y0137996D03*
X0054100Y0144689D03*
X0033946Y0131842D03*
X0027254Y0131842D03*
X0054254Y0058842D03*
X0060946Y0058842D03*
X0043600Y0047689D03*
X0043600Y0040996D03*
X0061754Y0043342D03*
X0068446Y0043342D03*
X0233254Y0039342D03*
X0239946Y0039342D03*
D15*
X0239750Y0056618D03*
X0239750Y0059768D03*
X0239750Y0062917D03*
X0239750Y0066067D03*
X0233450Y0066067D03*
X0233450Y0062917D03*
X0233450Y0059768D03*
X0233450Y0056618D03*
X0201250Y0136618D03*
X0201250Y0139768D03*
X0201250Y0142917D03*
X0201250Y0146067D03*
X0194950Y0146067D03*
X0194950Y0142917D03*
X0194950Y0139768D03*
X0194950Y0136618D03*
X0037250Y0106567D03*
X0037250Y0103417D03*
X0037250Y0100268D03*
X0037250Y0097118D03*
X0030950Y0097118D03*
X0030950Y0100268D03*
X0030950Y0103417D03*
X0030950Y0106567D03*
X0030950Y0089067D03*
X0030950Y0085917D03*
X0030950Y0082768D03*
X0030950Y0079618D03*
X0037250Y0079618D03*
X0037250Y0082768D03*
X0037250Y0085917D03*
X0037250Y0089067D03*
X0037250Y0071567D03*
X0037250Y0068417D03*
X0037250Y0065268D03*
X0037250Y0062118D03*
X0030950Y0062118D03*
X0030950Y0065268D03*
X0030950Y0068417D03*
X0030950Y0071567D03*
D16*
G36*
X0071289Y0069748D02*
X0068841Y0067300D01*
X0067505Y0068636D01*
X0069953Y0071084D01*
X0071289Y0069748D01*
G37*
G36*
X0120842Y0020195D02*
X0118394Y0017747D01*
X0117058Y0019083D01*
X0119506Y0021531D01*
X0120842Y0020195D01*
G37*
X0189368Y0045425D03*
X0222832Y0045425D03*
X0222832Y0068260D03*
X0189368Y0068260D03*
G36*
X0180695Y0080049D02*
X0178247Y0077601D01*
X0176911Y0078937D01*
X0179359Y0081385D01*
X0180695Y0080049D01*
G37*
G36*
X0131142Y0129602D02*
X0128694Y0127154D01*
X0127358Y0128490D01*
X0129806Y0130938D01*
X0131142Y0129602D01*
G37*
D17*
G36*
X0132701Y0128210D02*
X0130086Y0125595D01*
X0129419Y0126262D01*
X0132034Y0128877D01*
X0132701Y0128210D01*
G37*
G36*
X0134093Y0126818D02*
X0131478Y0124203D01*
X0130811Y0124870D01*
X0133426Y0127485D01*
X0134093Y0126818D01*
G37*
G36*
X0135485Y0125426D02*
X0132870Y0122811D01*
X0132203Y0123478D01*
X0134818Y0126093D01*
X0135485Y0125426D01*
G37*
G36*
X0136877Y0124034D02*
X0134262Y0121419D01*
X0133595Y0122086D01*
X0136210Y0124701D01*
X0136877Y0124034D01*
G37*
G36*
X0138268Y0122643D02*
X0135653Y0120028D01*
X0134986Y0120695D01*
X0137601Y0123310D01*
X0138268Y0122643D01*
G37*
G36*
X0139660Y0121251D02*
X0137045Y0118636D01*
X0136378Y0119303D01*
X0138993Y0121918D01*
X0139660Y0121251D01*
G37*
G36*
X0141052Y0119859D02*
X0138437Y0117244D01*
X0137770Y0117911D01*
X0140385Y0120526D01*
X0141052Y0119859D01*
G37*
G36*
X0142444Y0118467D02*
X0139829Y0115852D01*
X0139162Y0116519D01*
X0141777Y0119134D01*
X0142444Y0118467D01*
G37*
G36*
X0143836Y0117075D02*
X0141221Y0114460D01*
X0140554Y0115127D01*
X0143169Y0117742D01*
X0143836Y0117075D01*
G37*
G36*
X0145228Y0115683D02*
X0142613Y0113068D01*
X0141946Y0113735D01*
X0144561Y0116350D01*
X0145228Y0115683D01*
G37*
G36*
X0146620Y0114291D02*
X0144005Y0111676D01*
X0143338Y0112343D01*
X0145953Y0114958D01*
X0146620Y0114291D01*
G37*
G36*
X0148012Y0112899D02*
X0145397Y0110284D01*
X0144730Y0110951D01*
X0147345Y0113566D01*
X0148012Y0112899D01*
G37*
G36*
X0149404Y0111507D02*
X0146789Y0108892D01*
X0146122Y0109559D01*
X0148737Y0112174D01*
X0149404Y0111507D01*
G37*
G36*
X0150796Y0110115D02*
X0148181Y0107500D01*
X0147514Y0108167D01*
X0150129Y0110782D01*
X0150796Y0110115D01*
G37*
G36*
X0152188Y0108723D02*
X0149573Y0106108D01*
X0148906Y0106775D01*
X0151521Y0109390D01*
X0152188Y0108723D01*
G37*
G36*
X0153580Y0107331D02*
X0150965Y0104716D01*
X0150298Y0105383D01*
X0152913Y0107998D01*
X0153580Y0107331D01*
G37*
G36*
X0154972Y0105939D02*
X0152357Y0103324D01*
X0151690Y0103991D01*
X0154305Y0106606D01*
X0154972Y0105939D01*
G37*
G36*
X0156364Y0104547D02*
X0153749Y0101932D01*
X0153082Y0102599D01*
X0155697Y0105214D01*
X0156364Y0104547D01*
G37*
G36*
X0157756Y0103155D02*
X0155141Y0100540D01*
X0154474Y0101207D01*
X0157089Y0103822D01*
X0157756Y0103155D01*
G37*
G36*
X0159148Y0101763D02*
X0156533Y0099148D01*
X0155866Y0099815D01*
X0158481Y0102430D01*
X0159148Y0101763D01*
G37*
G36*
X0160540Y0100371D02*
X0157925Y0097756D01*
X0157258Y0098423D01*
X0159873Y0101038D01*
X0160540Y0100371D01*
G37*
G36*
X0161932Y0098979D02*
X0159317Y0096364D01*
X0158650Y0097031D01*
X0161265Y0099646D01*
X0161932Y0098979D01*
G37*
G36*
X0163323Y0097588D02*
X0160708Y0094973D01*
X0160041Y0095640D01*
X0162656Y0098255D01*
X0163323Y0097588D01*
G37*
G36*
X0164715Y0096196D02*
X0162100Y0093581D01*
X0161433Y0094248D01*
X0164048Y0096863D01*
X0164715Y0096196D01*
G37*
G36*
X0166107Y0094804D02*
X0163492Y0092189D01*
X0162825Y0092856D01*
X0165440Y0095471D01*
X0166107Y0094804D01*
G37*
G36*
X0167499Y0093412D02*
X0164884Y0090797D01*
X0164217Y0091464D01*
X0166832Y0094079D01*
X0167499Y0093412D01*
G37*
G36*
X0168891Y0092020D02*
X0166276Y0089405D01*
X0165609Y0090072D01*
X0168224Y0092687D01*
X0168891Y0092020D01*
G37*
G36*
X0170283Y0090628D02*
X0167668Y0088013D01*
X0167001Y0088680D01*
X0169616Y0091295D01*
X0170283Y0090628D01*
G37*
G36*
X0171675Y0089236D02*
X0169060Y0086621D01*
X0168393Y0087288D01*
X0171008Y0089903D01*
X0171675Y0089236D01*
G37*
G36*
X0173067Y0087844D02*
X0170452Y0085229D01*
X0169785Y0085896D01*
X0172400Y0088511D01*
X0173067Y0087844D01*
G37*
G36*
X0174459Y0086452D02*
X0171844Y0083837D01*
X0171177Y0084504D01*
X0173792Y0087119D01*
X0174459Y0086452D01*
G37*
G36*
X0175851Y0085060D02*
X0173236Y0082445D01*
X0172569Y0083112D01*
X0175184Y0085727D01*
X0175851Y0085060D01*
G37*
G36*
X0177243Y0083668D02*
X0174628Y0081053D01*
X0173961Y0081720D01*
X0176576Y0084335D01*
X0177243Y0083668D01*
G37*
G36*
X0178635Y0082276D02*
X0176020Y0079661D01*
X0175353Y0080328D01*
X0177968Y0082943D01*
X0178635Y0082276D01*
G37*
X0189368Y0065701D03*
X0189368Y0063732D03*
X0189368Y0061764D03*
X0189368Y0059795D03*
X0189368Y0057827D03*
X0189368Y0055858D03*
X0189368Y0053890D03*
X0189368Y0051921D03*
X0189368Y0049953D03*
X0189368Y0047984D03*
X0222832Y0047984D03*
X0222832Y0049953D03*
X0222832Y0051921D03*
X0222832Y0053890D03*
X0222832Y0055858D03*
X0222832Y0057827D03*
X0222832Y0059795D03*
X0222832Y0061764D03*
X0222832Y0063732D03*
X0222832Y0065701D03*
G36*
X0118781Y0022423D02*
X0116166Y0019808D01*
X0115499Y0020475D01*
X0118114Y0023090D01*
X0118781Y0022423D01*
G37*
G36*
X0117389Y0023815D02*
X0114774Y0021200D01*
X0114107Y0021867D01*
X0116722Y0024482D01*
X0117389Y0023815D01*
G37*
G36*
X0115997Y0025207D02*
X0113382Y0022592D01*
X0112715Y0023259D01*
X0115330Y0025874D01*
X0115997Y0025207D01*
G37*
G36*
X0114605Y0026598D02*
X0111990Y0023983D01*
X0111323Y0024650D01*
X0113938Y0027265D01*
X0114605Y0026598D01*
G37*
G36*
X0113214Y0027990D02*
X0110599Y0025375D01*
X0109932Y0026042D01*
X0112547Y0028657D01*
X0113214Y0027990D01*
G37*
G36*
X0111822Y0029382D02*
X0109207Y0026767D01*
X0108540Y0027434D01*
X0111155Y0030049D01*
X0111822Y0029382D01*
G37*
G36*
X0110430Y0030774D02*
X0107815Y0028159D01*
X0107148Y0028826D01*
X0109763Y0031441D01*
X0110430Y0030774D01*
G37*
G36*
X0109038Y0032166D02*
X0106423Y0029551D01*
X0105756Y0030218D01*
X0108371Y0032833D01*
X0109038Y0032166D01*
G37*
G36*
X0107646Y0033558D02*
X0105031Y0030943D01*
X0104364Y0031610D01*
X0106979Y0034225D01*
X0107646Y0033558D01*
G37*
G36*
X0106254Y0034950D02*
X0103639Y0032335D01*
X0102972Y0033002D01*
X0105587Y0035617D01*
X0106254Y0034950D01*
G37*
G36*
X0104862Y0036342D02*
X0102247Y0033727D01*
X0101580Y0034394D01*
X0104195Y0037009D01*
X0104862Y0036342D01*
G37*
G36*
X0103470Y0037734D02*
X0100855Y0035119D01*
X0100188Y0035786D01*
X0102803Y0038401D01*
X0103470Y0037734D01*
G37*
G36*
X0102078Y0039126D02*
X0099463Y0036511D01*
X0098796Y0037178D01*
X0101411Y0039793D01*
X0102078Y0039126D01*
G37*
G36*
X0100686Y0040518D02*
X0098071Y0037903D01*
X0097404Y0038570D01*
X0100019Y0041185D01*
X0100686Y0040518D01*
G37*
G36*
X0099294Y0041910D02*
X0096679Y0039295D01*
X0096012Y0039962D01*
X0098627Y0042577D01*
X0099294Y0041910D01*
G37*
G36*
X0097902Y0043302D02*
X0095287Y0040687D01*
X0094620Y0041354D01*
X0097235Y0043969D01*
X0097902Y0043302D01*
G37*
G36*
X0096510Y0044694D02*
X0093895Y0042079D01*
X0093228Y0042746D01*
X0095843Y0045361D01*
X0096510Y0044694D01*
G37*
G36*
X0095118Y0046086D02*
X0092503Y0043471D01*
X0091836Y0044138D01*
X0094451Y0046753D01*
X0095118Y0046086D01*
G37*
G36*
X0093726Y0047478D02*
X0091111Y0044863D01*
X0090444Y0045530D01*
X0093059Y0048145D01*
X0093726Y0047478D01*
G37*
G36*
X0092334Y0048870D02*
X0089719Y0046255D01*
X0089052Y0046922D01*
X0091667Y0049537D01*
X0092334Y0048870D01*
G37*
G36*
X0090942Y0050262D02*
X0088327Y0047647D01*
X0087660Y0048314D01*
X0090275Y0050929D01*
X0090942Y0050262D01*
G37*
G36*
X0089550Y0051653D02*
X0086935Y0049038D01*
X0086268Y0049705D01*
X0088883Y0052320D01*
X0089550Y0051653D01*
G37*
G36*
X0088159Y0053045D02*
X0085544Y0050430D01*
X0084877Y0051097D01*
X0087492Y0053712D01*
X0088159Y0053045D01*
G37*
G36*
X0086767Y0054437D02*
X0084152Y0051822D01*
X0083485Y0052489D01*
X0086100Y0055104D01*
X0086767Y0054437D01*
G37*
G36*
X0085375Y0055829D02*
X0082760Y0053214D01*
X0082093Y0053881D01*
X0084708Y0056496D01*
X0085375Y0055829D01*
G37*
G36*
X0083983Y0057221D02*
X0081368Y0054606D01*
X0080701Y0055273D01*
X0083316Y0057888D01*
X0083983Y0057221D01*
G37*
G36*
X0082591Y0058613D02*
X0079976Y0055998D01*
X0079309Y0056665D01*
X0081924Y0059280D01*
X0082591Y0058613D01*
G37*
G36*
X0081199Y0060005D02*
X0078584Y0057390D01*
X0077917Y0058057D01*
X0080532Y0060672D01*
X0081199Y0060005D01*
G37*
G36*
X0079807Y0061397D02*
X0077192Y0058782D01*
X0076525Y0059449D01*
X0079140Y0062064D01*
X0079807Y0061397D01*
G37*
G36*
X0078415Y0062789D02*
X0075800Y0060174D01*
X0075133Y0060841D01*
X0077748Y0063456D01*
X0078415Y0062789D01*
G37*
G36*
X0077023Y0064181D02*
X0074408Y0061566D01*
X0073741Y0062233D01*
X0076356Y0064848D01*
X0077023Y0064181D01*
G37*
G36*
X0075631Y0065573D02*
X0073016Y0062958D01*
X0072349Y0063625D01*
X0074964Y0066240D01*
X0075631Y0065573D01*
G37*
G36*
X0074239Y0066965D02*
X0071624Y0064350D01*
X0070957Y0065017D01*
X0073572Y0067632D01*
X0074239Y0066965D01*
G37*
G36*
X0072847Y0068357D02*
X0070232Y0065742D01*
X0069565Y0066409D01*
X0072180Y0069024D01*
X0072847Y0068357D01*
G37*
D18*
G36*
X0071289Y0078937D02*
X0069953Y0077601D01*
X0067505Y0080049D01*
X0068841Y0081385D01*
X0071289Y0078937D01*
G37*
G36*
X0120842Y0128490D02*
X0119506Y0127154D01*
X0117058Y0129602D01*
X0118394Y0130938D01*
X0120842Y0128490D01*
G37*
X0194683Y0073575D03*
G36*
X0180695Y0068636D02*
X0179359Y0067300D01*
X0176911Y0069748D01*
X0178247Y0071084D01*
X0180695Y0068636D01*
G37*
X0217517Y0073575D03*
X0217517Y0040110D03*
X0194683Y0040110D03*
G36*
X0131142Y0019083D02*
X0129806Y0017747D01*
X0127358Y0020195D01*
X0128694Y0021531D01*
X0131142Y0019083D01*
G37*
D19*
G36*
X0132701Y0020475D02*
X0132034Y0019808D01*
X0129419Y0022423D01*
X0130086Y0023090D01*
X0132701Y0020475D01*
G37*
G36*
X0134093Y0021867D02*
X0133426Y0021200D01*
X0130811Y0023815D01*
X0131478Y0024482D01*
X0134093Y0021867D01*
G37*
G36*
X0135485Y0023259D02*
X0134818Y0022592D01*
X0132203Y0025207D01*
X0132870Y0025874D01*
X0135485Y0023259D01*
G37*
G36*
X0136877Y0024650D02*
X0136210Y0023983D01*
X0133595Y0026598D01*
X0134262Y0027265D01*
X0136877Y0024650D01*
G37*
G36*
X0138268Y0026042D02*
X0137601Y0025375D01*
X0134986Y0027990D01*
X0135653Y0028657D01*
X0138268Y0026042D01*
G37*
G36*
X0139660Y0027434D02*
X0138993Y0026767D01*
X0136378Y0029382D01*
X0137045Y0030049D01*
X0139660Y0027434D01*
G37*
G36*
X0141052Y0028826D02*
X0140385Y0028159D01*
X0137770Y0030774D01*
X0138437Y0031441D01*
X0141052Y0028826D01*
G37*
G36*
X0142444Y0030218D02*
X0141777Y0029551D01*
X0139162Y0032166D01*
X0139829Y0032833D01*
X0142444Y0030218D01*
G37*
G36*
X0143836Y0031610D02*
X0143169Y0030943D01*
X0140554Y0033558D01*
X0141221Y0034225D01*
X0143836Y0031610D01*
G37*
G36*
X0145228Y0033002D02*
X0144561Y0032335D01*
X0141946Y0034950D01*
X0142613Y0035617D01*
X0145228Y0033002D01*
G37*
G36*
X0146620Y0034394D02*
X0145953Y0033727D01*
X0143338Y0036342D01*
X0144005Y0037009D01*
X0146620Y0034394D01*
G37*
G36*
X0148012Y0035786D02*
X0147345Y0035119D01*
X0144730Y0037734D01*
X0145397Y0038401D01*
X0148012Y0035786D01*
G37*
G36*
X0149404Y0037178D02*
X0148737Y0036511D01*
X0146122Y0039126D01*
X0146789Y0039793D01*
X0149404Y0037178D01*
G37*
G36*
X0150796Y0038570D02*
X0150129Y0037903D01*
X0147514Y0040518D01*
X0148181Y0041185D01*
X0150796Y0038570D01*
G37*
G36*
X0152188Y0039962D02*
X0151521Y0039295D01*
X0148906Y0041910D01*
X0149573Y0042577D01*
X0152188Y0039962D01*
G37*
G36*
X0153580Y0041354D02*
X0152913Y0040687D01*
X0150298Y0043302D01*
X0150965Y0043969D01*
X0153580Y0041354D01*
G37*
G36*
X0154972Y0042746D02*
X0154305Y0042079D01*
X0151690Y0044694D01*
X0152357Y0045361D01*
X0154972Y0042746D01*
G37*
G36*
X0156364Y0044138D02*
X0155697Y0043471D01*
X0153082Y0046086D01*
X0153749Y0046753D01*
X0156364Y0044138D01*
G37*
G36*
X0157756Y0045530D02*
X0157089Y0044863D01*
X0154474Y0047478D01*
X0155141Y0048145D01*
X0157756Y0045530D01*
G37*
G36*
X0159148Y0046922D02*
X0158481Y0046255D01*
X0155866Y0048870D01*
X0156533Y0049537D01*
X0159148Y0046922D01*
G37*
G36*
X0160540Y0048314D02*
X0159873Y0047647D01*
X0157258Y0050262D01*
X0157925Y0050929D01*
X0160540Y0048314D01*
G37*
G36*
X0161932Y0049705D02*
X0161265Y0049038D01*
X0158650Y0051653D01*
X0159317Y0052320D01*
X0161932Y0049705D01*
G37*
G36*
X0163323Y0051097D02*
X0162656Y0050430D01*
X0160041Y0053045D01*
X0160708Y0053712D01*
X0163323Y0051097D01*
G37*
G36*
X0164715Y0052489D02*
X0164048Y0051822D01*
X0161433Y0054437D01*
X0162100Y0055104D01*
X0164715Y0052489D01*
G37*
G36*
X0166107Y0053881D02*
X0165440Y0053214D01*
X0162825Y0055829D01*
X0163492Y0056496D01*
X0166107Y0053881D01*
G37*
G36*
X0167499Y0055273D02*
X0166832Y0054606D01*
X0164217Y0057221D01*
X0164884Y0057888D01*
X0167499Y0055273D01*
G37*
G36*
X0168891Y0056665D02*
X0168224Y0055998D01*
X0165609Y0058613D01*
X0166276Y0059280D01*
X0168891Y0056665D01*
G37*
G36*
X0170283Y0058057D02*
X0169616Y0057390D01*
X0167001Y0060005D01*
X0167668Y0060672D01*
X0170283Y0058057D01*
G37*
G36*
X0171675Y0059449D02*
X0171008Y0058782D01*
X0168393Y0061397D01*
X0169060Y0062064D01*
X0171675Y0059449D01*
G37*
G36*
X0173067Y0060841D02*
X0172400Y0060174D01*
X0169785Y0062789D01*
X0170452Y0063456D01*
X0173067Y0060841D01*
G37*
G36*
X0174459Y0062233D02*
X0173792Y0061566D01*
X0171177Y0064181D01*
X0171844Y0064848D01*
X0174459Y0062233D01*
G37*
G36*
X0175851Y0063625D02*
X0175184Y0062958D01*
X0172569Y0065573D01*
X0173236Y0066240D01*
X0175851Y0063625D01*
G37*
G36*
X0177243Y0065017D02*
X0176576Y0064350D01*
X0173961Y0066965D01*
X0174628Y0067632D01*
X0177243Y0065017D01*
G37*
G36*
X0178635Y0066409D02*
X0177968Y0065742D01*
X0175353Y0068357D01*
X0176020Y0069024D01*
X0178635Y0066409D01*
G37*
X0197242Y0073575D03*
X0199210Y0073575D03*
X0201179Y0073575D03*
X0203147Y0073575D03*
X0205116Y0073575D03*
X0207084Y0073575D03*
X0209053Y0073575D03*
X0211021Y0073575D03*
X0212990Y0073575D03*
X0214958Y0073575D03*
X0214958Y0040110D03*
X0212990Y0040110D03*
X0211021Y0040110D03*
X0209053Y0040110D03*
X0207084Y0040110D03*
X0205116Y0040110D03*
X0203147Y0040110D03*
X0201179Y0040110D03*
X0199210Y0040110D03*
X0197242Y0040110D03*
G36*
X0093726Y0101207D02*
X0093059Y0100540D01*
X0090444Y0103155D01*
X0091111Y0103822D01*
X0093726Y0101207D01*
G37*
G36*
X0092334Y0099815D02*
X0091667Y0099148D01*
X0089052Y0101763D01*
X0089719Y0102430D01*
X0092334Y0099815D01*
G37*
G36*
X0090942Y0098423D02*
X0090275Y0097756D01*
X0087660Y0100371D01*
X0088327Y0101038D01*
X0090942Y0098423D01*
G37*
G36*
X0089550Y0097031D02*
X0088883Y0096364D01*
X0086268Y0098979D01*
X0086935Y0099646D01*
X0089550Y0097031D01*
G37*
G36*
X0088159Y0095640D02*
X0087492Y0094973D01*
X0084877Y0097588D01*
X0085544Y0098255D01*
X0088159Y0095640D01*
G37*
G36*
X0086767Y0094248D02*
X0086100Y0093581D01*
X0083485Y0096196D01*
X0084152Y0096863D01*
X0086767Y0094248D01*
G37*
G36*
X0085375Y0092856D02*
X0084708Y0092189D01*
X0082093Y0094804D01*
X0082760Y0095471D01*
X0085375Y0092856D01*
G37*
G36*
X0083983Y0091464D02*
X0083316Y0090797D01*
X0080701Y0093412D01*
X0081368Y0094079D01*
X0083983Y0091464D01*
G37*
G36*
X0082591Y0090072D02*
X0081924Y0089405D01*
X0079309Y0092020D01*
X0079976Y0092687D01*
X0082591Y0090072D01*
G37*
G36*
X0081199Y0088680D02*
X0080532Y0088013D01*
X0077917Y0090628D01*
X0078584Y0091295D01*
X0081199Y0088680D01*
G37*
G36*
X0079807Y0087288D02*
X0079140Y0086621D01*
X0076525Y0089236D01*
X0077192Y0089903D01*
X0079807Y0087288D01*
G37*
G36*
X0078415Y0085896D02*
X0077748Y0085229D01*
X0075133Y0087844D01*
X0075800Y0088511D01*
X0078415Y0085896D01*
G37*
G36*
X0077023Y0084504D02*
X0076356Y0083837D01*
X0073741Y0086452D01*
X0074408Y0087119D01*
X0077023Y0084504D01*
G37*
G36*
X0075631Y0083112D02*
X0074964Y0082445D01*
X0072349Y0085060D01*
X0073016Y0085727D01*
X0075631Y0083112D01*
G37*
G36*
X0074239Y0081720D02*
X0073572Y0081053D01*
X0070957Y0083668D01*
X0071624Y0084335D01*
X0074239Y0081720D01*
G37*
G36*
X0072847Y0080328D02*
X0072180Y0079661D01*
X0069565Y0082276D01*
X0070232Y0082943D01*
X0072847Y0080328D01*
G37*
G36*
X0095118Y0102599D02*
X0094451Y0101932D01*
X0091836Y0104547D01*
X0092503Y0105214D01*
X0095118Y0102599D01*
G37*
G36*
X0096510Y0103991D02*
X0095843Y0103324D01*
X0093228Y0105939D01*
X0093895Y0106606D01*
X0096510Y0103991D01*
G37*
G36*
X0097902Y0105383D02*
X0097235Y0104716D01*
X0094620Y0107331D01*
X0095287Y0107998D01*
X0097902Y0105383D01*
G37*
G36*
X0099294Y0106775D02*
X0098627Y0106108D01*
X0096012Y0108723D01*
X0096679Y0109390D01*
X0099294Y0106775D01*
G37*
G36*
X0100686Y0108167D02*
X0100019Y0107500D01*
X0097404Y0110115D01*
X0098071Y0110782D01*
X0100686Y0108167D01*
G37*
G36*
X0102078Y0109559D02*
X0101411Y0108892D01*
X0098796Y0111507D01*
X0099463Y0112174D01*
X0102078Y0109559D01*
G37*
G36*
X0103470Y0110951D02*
X0102803Y0110284D01*
X0100188Y0112899D01*
X0100855Y0113566D01*
X0103470Y0110951D01*
G37*
G36*
X0104862Y0112343D02*
X0104195Y0111676D01*
X0101580Y0114291D01*
X0102247Y0114958D01*
X0104862Y0112343D01*
G37*
G36*
X0106254Y0113735D02*
X0105587Y0113068D01*
X0102972Y0115683D01*
X0103639Y0116350D01*
X0106254Y0113735D01*
G37*
G36*
X0107646Y0115127D02*
X0106979Y0114460D01*
X0104364Y0117075D01*
X0105031Y0117742D01*
X0107646Y0115127D01*
G37*
G36*
X0109038Y0116519D02*
X0108371Y0115852D01*
X0105756Y0118467D01*
X0106423Y0119134D01*
X0109038Y0116519D01*
G37*
G36*
X0110430Y0117911D02*
X0109763Y0117244D01*
X0107148Y0119859D01*
X0107815Y0120526D01*
X0110430Y0117911D01*
G37*
G36*
X0111822Y0119303D02*
X0111155Y0118636D01*
X0108540Y0121251D01*
X0109207Y0121918D01*
X0111822Y0119303D01*
G37*
G36*
X0113214Y0120695D02*
X0112547Y0120028D01*
X0109932Y0122643D01*
X0110599Y0123310D01*
X0113214Y0120695D01*
G37*
G36*
X0114605Y0122086D02*
X0113938Y0121419D01*
X0111323Y0124034D01*
X0111990Y0124701D01*
X0114605Y0122086D01*
G37*
G36*
X0115997Y0123478D02*
X0115330Y0122811D01*
X0112715Y0125426D01*
X0113382Y0126093D01*
X0115997Y0123478D01*
G37*
G36*
X0117389Y0124870D02*
X0116722Y0124203D01*
X0114107Y0126818D01*
X0114774Y0127485D01*
X0117389Y0124870D01*
G37*
G36*
X0118781Y0126262D02*
X0118114Y0125595D01*
X0115499Y0128210D01*
X0116166Y0128877D01*
X0118781Y0126262D01*
G37*
D20*
G36*
X0142044Y0074342D02*
X0124100Y0056398D01*
X0106156Y0074342D01*
X0124100Y0092286D01*
X0142044Y0074342D01*
G37*
D21*
X0183541Y0108201D03*
X0186100Y0108201D03*
X0188659Y0108201D03*
X0188659Y0115484D03*
X0186100Y0115484D03*
X0183541Y0115484D03*
D22*
X0177793Y0135504D03*
X0177793Y0138063D03*
X0177793Y0140622D03*
X0177793Y0143181D03*
X0164407Y0143181D03*
X0164407Y0140622D03*
X0164407Y0138063D03*
X0164407Y0135504D03*
D23*
X0074219Y0138102D03*
X0074219Y0145583D03*
X0063981Y0145583D03*
X0063981Y0141842D03*
X0063981Y0138102D03*
X0063981Y0130583D03*
X0063981Y0126842D03*
X0063981Y0123102D03*
X0074219Y0123102D03*
X0074219Y0130583D03*
D24*
X0027072Y0040799D03*
X0036128Y0040799D03*
X0036128Y0047886D03*
X0027072Y0047886D03*
M02*
