G75*
%MOIN*%
%OFA0B0*%
%FSLAX25Y25*%
%IPPOS*%
%LPD*%
%AMOC8*
5,1,8,0,0,1.08239X$1,22.5*
%
%ADD10R,0.05118X0.05906*%
%ADD11R,0.04331X0.03937*%
%ADD12R,0.06299X0.10630*%
%ADD13R,0.06299X0.07087*%
%ADD14R,0.03937X0.04331*%
%ADD15R,0.03543X0.01969*%
%ADD16R,0.03937X0.02362*%
%ADD17R,0.03937X0.01181*%
%ADD18R,0.02362X0.03937*%
%ADD19R,0.01181X0.03937*%
%ADD20R,0.26378X0.26378*%
%ADD21R,0.01575X0.04134*%
%ADD22R,0.06299X0.01181*%
%ADD23R,0.04724X0.02165*%
%ADD24R,0.05118X0.04331*%
D10*
X0199860Y0128342D03*
X0207340Y0128342D03*
X0102840Y0129342D03*
X0095360Y0129342D03*
X0035340Y0141842D03*
X0027860Y0141842D03*
X0227860Y0026342D03*
X0235340Y0026342D03*
D11*
X0222600Y0084496D03*
X0222600Y0091189D03*
X0189446Y0121842D03*
X0182754Y0121842D03*
X0157100Y0120189D03*
X0157100Y0113496D03*
X0051600Y0047689D03*
X0051600Y0040996D03*
D12*
X0200588Y0116342D03*
X0211612Y0116342D03*
D13*
X0211612Y0103842D03*
X0200588Y0103842D03*
D14*
X0222754Y0103842D03*
X0229446Y0103842D03*
X0174446Y0111842D03*
X0167754Y0111842D03*
X0167754Y0121842D03*
X0174446Y0121842D03*
X0102446Y0137342D03*
X0095754Y0137342D03*
X0084100Y0138496D03*
X0084100Y0145189D03*
X0084100Y0130189D03*
X0084100Y0123496D03*
X0054100Y0123496D03*
X0054100Y0130189D03*
X0054100Y0137996D03*
X0054100Y0144689D03*
X0033946Y0131842D03*
X0027254Y0131842D03*
X0054254Y0058842D03*
X0060946Y0058842D03*
X0043600Y0047689D03*
X0043600Y0040996D03*
X0061754Y0043342D03*
X0068446Y0043342D03*
X0233254Y0039342D03*
X0239946Y0039342D03*
D15*
X0239750Y0056618D03*
X0239750Y0059768D03*
X0239750Y0062917D03*
X0239750Y0066067D03*
X0233450Y0066067D03*
X0233450Y0062917D03*
X0233450Y0059768D03*
X0233450Y0056618D03*
X0201250Y0136618D03*
X0201250Y0139768D03*
X0201250Y0142917D03*
X0201250Y0146067D03*
X0194950Y0146067D03*
X0194950Y0142917D03*
X0194950Y0139768D03*
X0194950Y0136618D03*
X0037250Y0106567D03*
X0037250Y0103417D03*
X0037250Y0100268D03*
X0037250Y0097118D03*
X0030950Y0097118D03*
X0030950Y0100268D03*
X0030950Y0103417D03*
X0030950Y0106567D03*
X0030950Y0089067D03*
X0030950Y0085917D03*
X0030950Y0082768D03*
X0030950Y0079618D03*
X0037250Y0079618D03*
X0037250Y0082768D03*
X0037250Y0085917D03*
X0037250Y0089067D03*
X0037250Y0071567D03*
X0037250Y0068417D03*
X0037250Y0065268D03*
X0037250Y0062118D03*
X0030950Y0062118D03*
X0030950Y0065268D03*
X0030950Y0068417D03*
X0030950Y0071567D03*
D16*
G36*
X0071623Y0069748D02*
X0068841Y0066966D01*
X0067171Y0068636D01*
X0069953Y0071418D01*
X0071623Y0069748D01*
G37*
G36*
X0121176Y0020195D02*
X0118394Y0017413D01*
X0116724Y0019083D01*
X0119506Y0021865D01*
X0121176Y0020195D01*
G37*
X0189368Y0045425D03*
X0222832Y0045425D03*
X0222832Y0068260D03*
X0189368Y0068260D03*
G36*
X0181029Y0080049D02*
X0178247Y0077267D01*
X0176577Y0078937D01*
X0179359Y0081719D01*
X0181029Y0080049D01*
G37*
G36*
X0131476Y0129602D02*
X0128694Y0126820D01*
X0127024Y0128490D01*
X0129806Y0131272D01*
X0131476Y0129602D01*
G37*
D17*
G36*
X0132868Y0128210D02*
X0130086Y0125428D01*
X0129252Y0126262D01*
X0132034Y0129044D01*
X0132868Y0128210D01*
G37*
G36*
X0134260Y0126818D02*
X0131478Y0124036D01*
X0130644Y0124870D01*
X0133426Y0127652D01*
X0134260Y0126818D01*
G37*
G36*
X0135652Y0125426D02*
X0132870Y0122644D01*
X0132036Y0123478D01*
X0134818Y0126260D01*
X0135652Y0125426D01*
G37*
G36*
X0137044Y0124034D02*
X0134262Y0121252D01*
X0133428Y0122086D01*
X0136210Y0124868D01*
X0137044Y0124034D01*
G37*
G36*
X0138435Y0122643D02*
X0135653Y0119861D01*
X0134819Y0120695D01*
X0137601Y0123477D01*
X0138435Y0122643D01*
G37*
G36*
X0139827Y0121251D02*
X0137045Y0118469D01*
X0136211Y0119303D01*
X0138993Y0122085D01*
X0139827Y0121251D01*
G37*
G36*
X0141219Y0119859D02*
X0138437Y0117077D01*
X0137603Y0117911D01*
X0140385Y0120693D01*
X0141219Y0119859D01*
G37*
G36*
X0142611Y0118467D02*
X0139829Y0115685D01*
X0138995Y0116519D01*
X0141777Y0119301D01*
X0142611Y0118467D01*
G37*
G36*
X0144003Y0117075D02*
X0141221Y0114293D01*
X0140387Y0115127D01*
X0143169Y0117909D01*
X0144003Y0117075D01*
G37*
G36*
X0145395Y0115683D02*
X0142613Y0112901D01*
X0141779Y0113735D01*
X0144561Y0116517D01*
X0145395Y0115683D01*
G37*
G36*
X0146787Y0114291D02*
X0144005Y0111509D01*
X0143171Y0112343D01*
X0145953Y0115125D01*
X0146787Y0114291D01*
G37*
G36*
X0148179Y0112899D02*
X0145397Y0110117D01*
X0144563Y0110951D01*
X0147345Y0113733D01*
X0148179Y0112899D01*
G37*
G36*
X0149571Y0111507D02*
X0146789Y0108725D01*
X0145955Y0109559D01*
X0148737Y0112341D01*
X0149571Y0111507D01*
G37*
G36*
X0150963Y0110115D02*
X0148181Y0107333D01*
X0147347Y0108167D01*
X0150129Y0110949D01*
X0150963Y0110115D01*
G37*
G36*
X0152355Y0108723D02*
X0149573Y0105941D01*
X0148739Y0106775D01*
X0151521Y0109557D01*
X0152355Y0108723D01*
G37*
G36*
X0153747Y0107331D02*
X0150965Y0104549D01*
X0150131Y0105383D01*
X0152913Y0108165D01*
X0153747Y0107331D01*
G37*
G36*
X0155139Y0105939D02*
X0152357Y0103157D01*
X0151523Y0103991D01*
X0154305Y0106773D01*
X0155139Y0105939D01*
G37*
G36*
X0156531Y0104547D02*
X0153749Y0101765D01*
X0152915Y0102599D01*
X0155697Y0105381D01*
X0156531Y0104547D01*
G37*
G36*
X0157923Y0103155D02*
X0155141Y0100373D01*
X0154307Y0101207D01*
X0157089Y0103989D01*
X0157923Y0103155D01*
G37*
G36*
X0159315Y0101763D02*
X0156533Y0098981D01*
X0155699Y0099815D01*
X0158481Y0102597D01*
X0159315Y0101763D01*
G37*
G36*
X0160707Y0100371D02*
X0157925Y0097589D01*
X0157091Y0098423D01*
X0159873Y0101205D01*
X0160707Y0100371D01*
G37*
G36*
X0162099Y0098979D02*
X0159317Y0096197D01*
X0158483Y0097031D01*
X0161265Y0099813D01*
X0162099Y0098979D01*
G37*
G36*
X0163490Y0097588D02*
X0160708Y0094806D01*
X0159874Y0095640D01*
X0162656Y0098422D01*
X0163490Y0097588D01*
G37*
G36*
X0164882Y0096196D02*
X0162100Y0093414D01*
X0161266Y0094248D01*
X0164048Y0097030D01*
X0164882Y0096196D01*
G37*
G36*
X0166274Y0094804D02*
X0163492Y0092022D01*
X0162658Y0092856D01*
X0165440Y0095638D01*
X0166274Y0094804D01*
G37*
G36*
X0167666Y0093412D02*
X0164884Y0090630D01*
X0164050Y0091464D01*
X0166832Y0094246D01*
X0167666Y0093412D01*
G37*
G36*
X0169058Y0092020D02*
X0166276Y0089238D01*
X0165442Y0090072D01*
X0168224Y0092854D01*
X0169058Y0092020D01*
G37*
G36*
X0170450Y0090628D02*
X0167668Y0087846D01*
X0166834Y0088680D01*
X0169616Y0091462D01*
X0170450Y0090628D01*
G37*
G36*
X0171842Y0089236D02*
X0169060Y0086454D01*
X0168226Y0087288D01*
X0171008Y0090070D01*
X0171842Y0089236D01*
G37*
G36*
X0173234Y0087844D02*
X0170452Y0085062D01*
X0169618Y0085896D01*
X0172400Y0088678D01*
X0173234Y0087844D01*
G37*
G36*
X0174626Y0086452D02*
X0171844Y0083670D01*
X0171010Y0084504D01*
X0173792Y0087286D01*
X0174626Y0086452D01*
G37*
G36*
X0176018Y0085060D02*
X0173236Y0082278D01*
X0172402Y0083112D01*
X0175184Y0085894D01*
X0176018Y0085060D01*
G37*
G36*
X0177410Y0083668D02*
X0174628Y0080886D01*
X0173794Y0081720D01*
X0176576Y0084502D01*
X0177410Y0083668D01*
G37*
G36*
X0178802Y0082276D02*
X0176020Y0079494D01*
X0175186Y0080328D01*
X0177968Y0083110D01*
X0178802Y0082276D01*
G37*
X0189368Y0065701D03*
X0189368Y0063732D03*
X0189368Y0061764D03*
X0189368Y0059795D03*
X0189368Y0057827D03*
X0189368Y0055858D03*
X0189368Y0053890D03*
X0189368Y0051921D03*
X0189368Y0049953D03*
X0189368Y0047984D03*
X0222832Y0047984D03*
X0222832Y0049953D03*
X0222832Y0051921D03*
X0222832Y0053890D03*
X0222832Y0055858D03*
X0222832Y0057827D03*
X0222832Y0059795D03*
X0222832Y0061764D03*
X0222832Y0063732D03*
X0222832Y0065701D03*
G36*
X0118948Y0022423D02*
X0116166Y0019641D01*
X0115332Y0020475D01*
X0118114Y0023257D01*
X0118948Y0022423D01*
G37*
G36*
X0117556Y0023815D02*
X0114774Y0021033D01*
X0113940Y0021867D01*
X0116722Y0024649D01*
X0117556Y0023815D01*
G37*
G36*
X0116164Y0025207D02*
X0113382Y0022425D01*
X0112548Y0023259D01*
X0115330Y0026041D01*
X0116164Y0025207D01*
G37*
G36*
X0114772Y0026598D02*
X0111990Y0023816D01*
X0111156Y0024650D01*
X0113938Y0027432D01*
X0114772Y0026598D01*
G37*
G36*
X0113381Y0027990D02*
X0110599Y0025208D01*
X0109765Y0026042D01*
X0112547Y0028824D01*
X0113381Y0027990D01*
G37*
G36*
X0111989Y0029382D02*
X0109207Y0026600D01*
X0108373Y0027434D01*
X0111155Y0030216D01*
X0111989Y0029382D01*
G37*
G36*
X0110597Y0030774D02*
X0107815Y0027992D01*
X0106981Y0028826D01*
X0109763Y0031608D01*
X0110597Y0030774D01*
G37*
G36*
X0109205Y0032166D02*
X0106423Y0029384D01*
X0105589Y0030218D01*
X0108371Y0033000D01*
X0109205Y0032166D01*
G37*
G36*
X0107813Y0033558D02*
X0105031Y0030776D01*
X0104197Y0031610D01*
X0106979Y0034392D01*
X0107813Y0033558D01*
G37*
G36*
X0106421Y0034950D02*
X0103639Y0032168D01*
X0102805Y0033002D01*
X0105587Y0035784D01*
X0106421Y0034950D01*
G37*
G36*
X0105029Y0036342D02*
X0102247Y0033560D01*
X0101413Y0034394D01*
X0104195Y0037176D01*
X0105029Y0036342D01*
G37*
G36*
X0103637Y0037734D02*
X0100855Y0034952D01*
X0100021Y0035786D01*
X0102803Y0038568D01*
X0103637Y0037734D01*
G37*
G36*
X0102245Y0039126D02*
X0099463Y0036344D01*
X0098629Y0037178D01*
X0101411Y0039960D01*
X0102245Y0039126D01*
G37*
G36*
X0100853Y0040518D02*
X0098071Y0037736D01*
X0097237Y0038570D01*
X0100019Y0041352D01*
X0100853Y0040518D01*
G37*
G36*
X0099461Y0041910D02*
X0096679Y0039128D01*
X0095845Y0039962D01*
X0098627Y0042744D01*
X0099461Y0041910D01*
G37*
G36*
X0098069Y0043302D02*
X0095287Y0040520D01*
X0094453Y0041354D01*
X0097235Y0044136D01*
X0098069Y0043302D01*
G37*
G36*
X0096677Y0044694D02*
X0093895Y0041912D01*
X0093061Y0042746D01*
X0095843Y0045528D01*
X0096677Y0044694D01*
G37*
G36*
X0095285Y0046086D02*
X0092503Y0043304D01*
X0091669Y0044138D01*
X0094451Y0046920D01*
X0095285Y0046086D01*
G37*
G36*
X0093893Y0047478D02*
X0091111Y0044696D01*
X0090277Y0045530D01*
X0093059Y0048312D01*
X0093893Y0047478D01*
G37*
G36*
X0092501Y0048870D02*
X0089719Y0046088D01*
X0088885Y0046922D01*
X0091667Y0049704D01*
X0092501Y0048870D01*
G37*
G36*
X0091109Y0050262D02*
X0088327Y0047480D01*
X0087493Y0048314D01*
X0090275Y0051096D01*
X0091109Y0050262D01*
G37*
G36*
X0089717Y0051653D02*
X0086935Y0048871D01*
X0086101Y0049705D01*
X0088883Y0052487D01*
X0089717Y0051653D01*
G37*
G36*
X0088326Y0053045D02*
X0085544Y0050263D01*
X0084710Y0051097D01*
X0087492Y0053879D01*
X0088326Y0053045D01*
G37*
G36*
X0086934Y0054437D02*
X0084152Y0051655D01*
X0083318Y0052489D01*
X0086100Y0055271D01*
X0086934Y0054437D01*
G37*
G36*
X0085542Y0055829D02*
X0082760Y0053047D01*
X0081926Y0053881D01*
X0084708Y0056663D01*
X0085542Y0055829D01*
G37*
G36*
X0084150Y0057221D02*
X0081368Y0054439D01*
X0080534Y0055273D01*
X0083316Y0058055D01*
X0084150Y0057221D01*
G37*
G36*
X0082758Y0058613D02*
X0079976Y0055831D01*
X0079142Y0056665D01*
X0081924Y0059447D01*
X0082758Y0058613D01*
G37*
G36*
X0081366Y0060005D02*
X0078584Y0057223D01*
X0077750Y0058057D01*
X0080532Y0060839D01*
X0081366Y0060005D01*
G37*
G36*
X0079974Y0061397D02*
X0077192Y0058615D01*
X0076358Y0059449D01*
X0079140Y0062231D01*
X0079974Y0061397D01*
G37*
G36*
X0078582Y0062789D02*
X0075800Y0060007D01*
X0074966Y0060841D01*
X0077748Y0063623D01*
X0078582Y0062789D01*
G37*
G36*
X0077190Y0064181D02*
X0074408Y0061399D01*
X0073574Y0062233D01*
X0076356Y0065015D01*
X0077190Y0064181D01*
G37*
G36*
X0075798Y0065573D02*
X0073016Y0062791D01*
X0072182Y0063625D01*
X0074964Y0066407D01*
X0075798Y0065573D01*
G37*
G36*
X0074406Y0066965D02*
X0071624Y0064183D01*
X0070790Y0065017D01*
X0073572Y0067799D01*
X0074406Y0066965D01*
G37*
G36*
X0073014Y0068357D02*
X0070232Y0065575D01*
X0069398Y0066409D01*
X0072180Y0069191D01*
X0073014Y0068357D01*
G37*
D18*
G36*
X0071623Y0078937D02*
X0069953Y0077267D01*
X0067171Y0080049D01*
X0068841Y0081719D01*
X0071623Y0078937D01*
G37*
G36*
X0121176Y0128490D02*
X0119506Y0126820D01*
X0116724Y0129602D01*
X0118394Y0131272D01*
X0121176Y0128490D01*
G37*
X0194683Y0073575D03*
G36*
X0181029Y0068636D02*
X0179359Y0066966D01*
X0176577Y0069748D01*
X0178247Y0071418D01*
X0181029Y0068636D01*
G37*
X0217517Y0073575D03*
X0217517Y0040110D03*
X0194683Y0040110D03*
G36*
X0131476Y0019083D02*
X0129806Y0017413D01*
X0127024Y0020195D01*
X0128694Y0021865D01*
X0131476Y0019083D01*
G37*
D19*
G36*
X0132868Y0020475D02*
X0132034Y0019641D01*
X0129252Y0022423D01*
X0130086Y0023257D01*
X0132868Y0020475D01*
G37*
G36*
X0134260Y0021867D02*
X0133426Y0021033D01*
X0130644Y0023815D01*
X0131478Y0024649D01*
X0134260Y0021867D01*
G37*
G36*
X0135652Y0023259D02*
X0134818Y0022425D01*
X0132036Y0025207D01*
X0132870Y0026041D01*
X0135652Y0023259D01*
G37*
G36*
X0137044Y0024650D02*
X0136210Y0023816D01*
X0133428Y0026598D01*
X0134262Y0027432D01*
X0137044Y0024650D01*
G37*
G36*
X0138435Y0026042D02*
X0137601Y0025208D01*
X0134819Y0027990D01*
X0135653Y0028824D01*
X0138435Y0026042D01*
G37*
G36*
X0139827Y0027434D02*
X0138993Y0026600D01*
X0136211Y0029382D01*
X0137045Y0030216D01*
X0139827Y0027434D01*
G37*
G36*
X0141219Y0028826D02*
X0140385Y0027992D01*
X0137603Y0030774D01*
X0138437Y0031608D01*
X0141219Y0028826D01*
G37*
G36*
X0142611Y0030218D02*
X0141777Y0029384D01*
X0138995Y0032166D01*
X0139829Y0033000D01*
X0142611Y0030218D01*
G37*
G36*
X0144003Y0031610D02*
X0143169Y0030776D01*
X0140387Y0033558D01*
X0141221Y0034392D01*
X0144003Y0031610D01*
G37*
G36*
X0145395Y0033002D02*
X0144561Y0032168D01*
X0141779Y0034950D01*
X0142613Y0035784D01*
X0145395Y0033002D01*
G37*
G36*
X0146787Y0034394D02*
X0145953Y0033560D01*
X0143171Y0036342D01*
X0144005Y0037176D01*
X0146787Y0034394D01*
G37*
G36*
X0148179Y0035786D02*
X0147345Y0034952D01*
X0144563Y0037734D01*
X0145397Y0038568D01*
X0148179Y0035786D01*
G37*
G36*
X0149571Y0037178D02*
X0148737Y0036344D01*
X0145955Y0039126D01*
X0146789Y0039960D01*
X0149571Y0037178D01*
G37*
G36*
X0150963Y0038570D02*
X0150129Y0037736D01*
X0147347Y0040518D01*
X0148181Y0041352D01*
X0150963Y0038570D01*
G37*
G36*
X0152355Y0039962D02*
X0151521Y0039128D01*
X0148739Y0041910D01*
X0149573Y0042744D01*
X0152355Y0039962D01*
G37*
G36*
X0153747Y0041354D02*
X0152913Y0040520D01*
X0150131Y0043302D01*
X0150965Y0044136D01*
X0153747Y0041354D01*
G37*
G36*
X0155139Y0042746D02*
X0154305Y0041912D01*
X0151523Y0044694D01*
X0152357Y0045528D01*
X0155139Y0042746D01*
G37*
G36*
X0156531Y0044138D02*
X0155697Y0043304D01*
X0152915Y0046086D01*
X0153749Y0046920D01*
X0156531Y0044138D01*
G37*
G36*
X0157923Y0045530D02*
X0157089Y0044696D01*
X0154307Y0047478D01*
X0155141Y0048312D01*
X0157923Y0045530D01*
G37*
G36*
X0159315Y0046922D02*
X0158481Y0046088D01*
X0155699Y0048870D01*
X0156533Y0049704D01*
X0159315Y0046922D01*
G37*
G36*
X0160707Y0048314D02*
X0159873Y0047480D01*
X0157091Y0050262D01*
X0157925Y0051096D01*
X0160707Y0048314D01*
G37*
G36*
X0162099Y0049705D02*
X0161265Y0048871D01*
X0158483Y0051653D01*
X0159317Y0052487D01*
X0162099Y0049705D01*
G37*
G36*
X0163490Y0051097D02*
X0162656Y0050263D01*
X0159874Y0053045D01*
X0160708Y0053879D01*
X0163490Y0051097D01*
G37*
G36*
X0164882Y0052489D02*
X0164048Y0051655D01*
X0161266Y0054437D01*
X0162100Y0055271D01*
X0164882Y0052489D01*
G37*
G36*
X0166274Y0053881D02*
X0165440Y0053047D01*
X0162658Y0055829D01*
X0163492Y0056663D01*
X0166274Y0053881D01*
G37*
G36*
X0167666Y0055273D02*
X0166832Y0054439D01*
X0164050Y0057221D01*
X0164884Y0058055D01*
X0167666Y0055273D01*
G37*
G36*
X0169058Y0056665D02*
X0168224Y0055831D01*
X0165442Y0058613D01*
X0166276Y0059447D01*
X0169058Y0056665D01*
G37*
G36*
X0170450Y0058057D02*
X0169616Y0057223D01*
X0166834Y0060005D01*
X0167668Y0060839D01*
X0170450Y0058057D01*
G37*
G36*
X0171842Y0059449D02*
X0171008Y0058615D01*
X0168226Y0061397D01*
X0169060Y0062231D01*
X0171842Y0059449D01*
G37*
G36*
X0173234Y0060841D02*
X0172400Y0060007D01*
X0169618Y0062789D01*
X0170452Y0063623D01*
X0173234Y0060841D01*
G37*
G36*
X0174626Y0062233D02*
X0173792Y0061399D01*
X0171010Y0064181D01*
X0171844Y0065015D01*
X0174626Y0062233D01*
G37*
G36*
X0176018Y0063625D02*
X0175184Y0062791D01*
X0172402Y0065573D01*
X0173236Y0066407D01*
X0176018Y0063625D01*
G37*
G36*
X0177410Y0065017D02*
X0176576Y0064183D01*
X0173794Y0066965D01*
X0174628Y0067799D01*
X0177410Y0065017D01*
G37*
G36*
X0178802Y0066409D02*
X0177968Y0065575D01*
X0175186Y0068357D01*
X0176020Y0069191D01*
X0178802Y0066409D01*
G37*
X0197242Y0073575D03*
X0199210Y0073575D03*
X0201179Y0073575D03*
X0203147Y0073575D03*
X0205116Y0073575D03*
X0207084Y0073575D03*
X0209053Y0073575D03*
X0211021Y0073575D03*
X0212990Y0073575D03*
X0214958Y0073575D03*
X0214958Y0040110D03*
X0212990Y0040110D03*
X0211021Y0040110D03*
X0209053Y0040110D03*
X0207084Y0040110D03*
X0205116Y0040110D03*
X0203147Y0040110D03*
X0201179Y0040110D03*
X0199210Y0040110D03*
X0197242Y0040110D03*
G36*
X0093893Y0101207D02*
X0093059Y0100373D01*
X0090277Y0103155D01*
X0091111Y0103989D01*
X0093893Y0101207D01*
G37*
G36*
X0092501Y0099815D02*
X0091667Y0098981D01*
X0088885Y0101763D01*
X0089719Y0102597D01*
X0092501Y0099815D01*
G37*
G36*
X0091109Y0098423D02*
X0090275Y0097589D01*
X0087493Y0100371D01*
X0088327Y0101205D01*
X0091109Y0098423D01*
G37*
G36*
X0089717Y0097031D02*
X0088883Y0096197D01*
X0086101Y0098979D01*
X0086935Y0099813D01*
X0089717Y0097031D01*
G37*
G36*
X0088326Y0095640D02*
X0087492Y0094806D01*
X0084710Y0097588D01*
X0085544Y0098422D01*
X0088326Y0095640D01*
G37*
G36*
X0086934Y0094248D02*
X0086100Y0093414D01*
X0083318Y0096196D01*
X0084152Y0097030D01*
X0086934Y0094248D01*
G37*
G36*
X0085542Y0092856D02*
X0084708Y0092022D01*
X0081926Y0094804D01*
X0082760Y0095638D01*
X0085542Y0092856D01*
G37*
G36*
X0084150Y0091464D02*
X0083316Y0090630D01*
X0080534Y0093412D01*
X0081368Y0094246D01*
X0084150Y0091464D01*
G37*
G36*
X0082758Y0090072D02*
X0081924Y0089238D01*
X0079142Y0092020D01*
X0079976Y0092854D01*
X0082758Y0090072D01*
G37*
G36*
X0081366Y0088680D02*
X0080532Y0087846D01*
X0077750Y0090628D01*
X0078584Y0091462D01*
X0081366Y0088680D01*
G37*
G36*
X0079974Y0087288D02*
X0079140Y0086454D01*
X0076358Y0089236D01*
X0077192Y0090070D01*
X0079974Y0087288D01*
G37*
G36*
X0078582Y0085896D02*
X0077748Y0085062D01*
X0074966Y0087844D01*
X0075800Y0088678D01*
X0078582Y0085896D01*
G37*
G36*
X0077190Y0084504D02*
X0076356Y0083670D01*
X0073574Y0086452D01*
X0074408Y0087286D01*
X0077190Y0084504D01*
G37*
G36*
X0075798Y0083112D02*
X0074964Y0082278D01*
X0072182Y0085060D01*
X0073016Y0085894D01*
X0075798Y0083112D01*
G37*
G36*
X0074406Y0081720D02*
X0073572Y0080886D01*
X0070790Y0083668D01*
X0071624Y0084502D01*
X0074406Y0081720D01*
G37*
G36*
X0073014Y0080328D02*
X0072180Y0079494D01*
X0069398Y0082276D01*
X0070232Y0083110D01*
X0073014Y0080328D01*
G37*
G36*
X0095285Y0102599D02*
X0094451Y0101765D01*
X0091669Y0104547D01*
X0092503Y0105381D01*
X0095285Y0102599D01*
G37*
G36*
X0096677Y0103991D02*
X0095843Y0103157D01*
X0093061Y0105939D01*
X0093895Y0106773D01*
X0096677Y0103991D01*
G37*
G36*
X0098069Y0105383D02*
X0097235Y0104549D01*
X0094453Y0107331D01*
X0095287Y0108165D01*
X0098069Y0105383D01*
G37*
G36*
X0099461Y0106775D02*
X0098627Y0105941D01*
X0095845Y0108723D01*
X0096679Y0109557D01*
X0099461Y0106775D01*
G37*
G36*
X0100853Y0108167D02*
X0100019Y0107333D01*
X0097237Y0110115D01*
X0098071Y0110949D01*
X0100853Y0108167D01*
G37*
G36*
X0102245Y0109559D02*
X0101411Y0108725D01*
X0098629Y0111507D01*
X0099463Y0112341D01*
X0102245Y0109559D01*
G37*
G36*
X0103637Y0110951D02*
X0102803Y0110117D01*
X0100021Y0112899D01*
X0100855Y0113733D01*
X0103637Y0110951D01*
G37*
G36*
X0105029Y0112343D02*
X0104195Y0111509D01*
X0101413Y0114291D01*
X0102247Y0115125D01*
X0105029Y0112343D01*
G37*
G36*
X0106421Y0113735D02*
X0105587Y0112901D01*
X0102805Y0115683D01*
X0103639Y0116517D01*
X0106421Y0113735D01*
G37*
G36*
X0107813Y0115127D02*
X0106979Y0114293D01*
X0104197Y0117075D01*
X0105031Y0117909D01*
X0107813Y0115127D01*
G37*
G36*
X0109205Y0116519D02*
X0108371Y0115685D01*
X0105589Y0118467D01*
X0106423Y0119301D01*
X0109205Y0116519D01*
G37*
G36*
X0110597Y0117911D02*
X0109763Y0117077D01*
X0106981Y0119859D01*
X0107815Y0120693D01*
X0110597Y0117911D01*
G37*
G36*
X0111989Y0119303D02*
X0111155Y0118469D01*
X0108373Y0121251D01*
X0109207Y0122085D01*
X0111989Y0119303D01*
G37*
G36*
X0113381Y0120695D02*
X0112547Y0119861D01*
X0109765Y0122643D01*
X0110599Y0123477D01*
X0113381Y0120695D01*
G37*
G36*
X0114772Y0122086D02*
X0113938Y0121252D01*
X0111156Y0124034D01*
X0111990Y0124868D01*
X0114772Y0122086D01*
G37*
G36*
X0116164Y0123478D02*
X0115330Y0122644D01*
X0112548Y0125426D01*
X0113382Y0126260D01*
X0116164Y0123478D01*
G37*
G36*
X0117556Y0124870D02*
X0116722Y0124036D01*
X0113940Y0126818D01*
X0114774Y0127652D01*
X0117556Y0124870D01*
G37*
G36*
X0118948Y0126262D02*
X0118114Y0125428D01*
X0115332Y0128210D01*
X0116166Y0129044D01*
X0118948Y0126262D01*
G37*
D20*
G36*
X0142752Y0074342D02*
X0124100Y0055690D01*
X0105448Y0074342D01*
X0124100Y0092994D01*
X0142752Y0074342D01*
G37*
D21*
X0183541Y0108201D03*
X0186100Y0108201D03*
X0188659Y0108201D03*
X0188659Y0115484D03*
X0186100Y0115484D03*
X0183541Y0115484D03*
D22*
X0177793Y0135504D03*
X0177793Y0138063D03*
X0177793Y0140622D03*
X0177793Y0143181D03*
X0164407Y0143181D03*
X0164407Y0140622D03*
X0164407Y0138063D03*
X0164407Y0135504D03*
D23*
X0074219Y0138102D03*
X0074219Y0145583D03*
X0063981Y0145583D03*
X0063981Y0141842D03*
X0063981Y0138102D03*
X0063981Y0130583D03*
X0063981Y0126842D03*
X0063981Y0123102D03*
X0074219Y0123102D03*
X0074219Y0130583D03*
D24*
X0027072Y0040799D03*
X0036128Y0040799D03*
X0036128Y0047886D03*
X0027072Y0047886D03*
M02*
