G75*
%MOIN*%
%OFA0B0*%
%FSLAX25Y25*%
%IPPOS*%
%LPD*%
%AMOC8*
5,1,8,0,0,1.08239X$1,22.5*
%
%ADD10R,0.05118X0.05906*%
%ADD11R,0.04331X0.03937*%
%ADD12R,0.03937X0.04331*%
%ADD13R,0.02500X0.08500*%
D10*
X0037360Y0126842D03*
X0044840Y0126842D03*
D11*
G36*
X0086595Y0124631D02*
X0089656Y0121570D01*
X0086873Y0118787D01*
X0083812Y0121848D01*
X0086595Y0124631D01*
G37*
G36*
X0092095Y0130131D02*
X0095156Y0127070D01*
X0092373Y0124287D01*
X0089312Y0127348D01*
X0092095Y0130131D01*
G37*
G36*
X0097595Y0135631D02*
X0100656Y0132570D01*
X0097873Y0129787D01*
X0094812Y0132848D01*
X0097595Y0135631D01*
G37*
G36*
X0105630Y0143595D02*
X0108691Y0140534D01*
X0105908Y0137751D01*
X0102847Y0140812D01*
X0105630Y0143595D01*
G37*
G36*
X0110363Y0138863D02*
X0113424Y0135802D01*
X0110641Y0133019D01*
X0107580Y0136080D01*
X0110363Y0138863D01*
G37*
G36*
X0102327Y0130898D02*
X0105388Y0127837D01*
X0102605Y0125054D01*
X0099544Y0128115D01*
X0102327Y0130898D01*
G37*
G36*
X0096827Y0125398D02*
X0099888Y0122337D01*
X0097105Y0119554D01*
X0094044Y0122615D01*
X0096827Y0125398D01*
G37*
G36*
X0091327Y0119898D02*
X0094388Y0116837D01*
X0091605Y0114054D01*
X0088544Y0117115D01*
X0091327Y0119898D01*
G37*
G36*
X0122312Y0108337D02*
X0125373Y0111398D01*
X0128156Y0108615D01*
X0125095Y0105554D01*
X0122312Y0108337D01*
G37*
G36*
X0127044Y0113070D02*
X0130105Y0116131D01*
X0132888Y0113348D01*
X0129827Y0110287D01*
X0127044Y0113070D01*
G37*
G36*
X0140044Y0100570D02*
X0143105Y0103631D01*
X0145888Y0100848D01*
X0142827Y0097787D01*
X0140044Y0100570D01*
G37*
G36*
X0135312Y0095837D02*
X0138373Y0098898D01*
X0141156Y0096115D01*
X0138095Y0093054D01*
X0135312Y0095837D01*
G37*
G36*
X0156544Y0083570D02*
X0159605Y0086631D01*
X0162388Y0083848D01*
X0159327Y0080787D01*
X0156544Y0083570D01*
G37*
G36*
X0151812Y0078837D02*
X0154873Y0081898D01*
X0157656Y0079115D01*
X0154595Y0076054D01*
X0151812Y0078837D01*
G37*
G36*
X0157812Y0072837D02*
X0160873Y0075898D01*
X0163656Y0073115D01*
X0160595Y0070054D01*
X0157812Y0072837D01*
G37*
G36*
X0162544Y0077570D02*
X0165605Y0080631D01*
X0168388Y0077848D01*
X0165327Y0074787D01*
X0162544Y0077570D01*
G37*
G36*
X0150595Y0068631D02*
X0153656Y0065570D01*
X0150873Y0062787D01*
X0147812Y0065848D01*
X0150595Y0068631D01*
G37*
G36*
X0155327Y0063898D02*
X0158388Y0060837D01*
X0155605Y0058054D01*
X0152544Y0061115D01*
X0155327Y0063898D01*
G37*
G36*
X0144095Y0062131D02*
X0147156Y0059070D01*
X0144373Y0056287D01*
X0141312Y0059348D01*
X0144095Y0062131D01*
G37*
G36*
X0148827Y0057398D02*
X0151888Y0054337D01*
X0149105Y0051554D01*
X0146044Y0054615D01*
X0148827Y0057398D01*
G37*
G36*
X0131595Y0049631D02*
X0134656Y0046570D01*
X0131873Y0043787D01*
X0128812Y0046848D01*
X0131595Y0049631D01*
G37*
G36*
X0136327Y0044898D02*
X0139388Y0041837D01*
X0136605Y0039054D01*
X0133544Y0042115D01*
X0136327Y0044898D01*
G37*
G36*
X0126095Y0044131D02*
X0129156Y0041070D01*
X0126373Y0038287D01*
X0123312Y0041348D01*
X0126095Y0044131D01*
G37*
G36*
X0130827Y0039398D02*
X0133888Y0036337D01*
X0131105Y0033554D01*
X0128044Y0036615D01*
X0130827Y0039398D01*
G37*
G36*
X0133095Y0029131D02*
X0136156Y0026070D01*
X0133373Y0023287D01*
X0130312Y0026348D01*
X0133095Y0029131D01*
G37*
G36*
X0137827Y0024398D02*
X0140888Y0021337D01*
X0138105Y0018554D01*
X0135044Y0021615D01*
X0137827Y0024398D01*
G37*
G36*
X0126873Y0016787D02*
X0123812Y0019848D01*
X0126595Y0022631D01*
X0129656Y0019570D01*
X0126873Y0016787D01*
G37*
G36*
X0131605Y0012054D02*
X0128544Y0015115D01*
X0131327Y0017898D01*
X0134388Y0014837D01*
X0131605Y0012054D01*
G37*
G36*
X0106544Y0013570D02*
X0109605Y0016631D01*
X0112388Y0013848D01*
X0109327Y0010787D01*
X0106544Y0013570D01*
G37*
G36*
X0101812Y0008837D02*
X0104873Y0011898D01*
X0107656Y0009115D01*
X0104595Y0006054D01*
X0101812Y0008837D01*
G37*
G36*
X0094312Y0016337D02*
X0097373Y0019398D01*
X0100156Y0016615D01*
X0097095Y0013554D01*
X0094312Y0016337D01*
G37*
G36*
X0099044Y0021070D02*
X0102105Y0024131D01*
X0104888Y0021348D01*
X0101827Y0018287D01*
X0099044Y0021070D01*
G37*
G36*
X0088812Y0021837D02*
X0091873Y0024898D01*
X0094656Y0022115D01*
X0091595Y0019054D01*
X0088812Y0021837D01*
G37*
G36*
X0093544Y0026570D02*
X0096605Y0029631D01*
X0099388Y0026848D01*
X0096327Y0023787D01*
X0093544Y0026570D01*
G37*
G36*
X0077312Y0033337D02*
X0080373Y0036398D01*
X0083156Y0033615D01*
X0080095Y0030554D01*
X0077312Y0033337D01*
G37*
G36*
X0082044Y0038070D02*
X0085105Y0041131D01*
X0087888Y0038348D01*
X0084827Y0035287D01*
X0082044Y0038070D01*
G37*
X0067946Y0059342D03*
X0061254Y0059342D03*
X0044946Y0074842D03*
X0038254Y0074842D03*
G36*
X0084373Y0076287D02*
X0081312Y0079348D01*
X0084095Y0082131D01*
X0087156Y0079070D01*
X0084373Y0076287D01*
G37*
G36*
X0089105Y0071554D02*
X0086044Y0074615D01*
X0088827Y0077398D01*
X0091888Y0074337D01*
X0089105Y0071554D01*
G37*
G36*
X0095205Y0077554D02*
X0092144Y0080615D01*
X0094927Y0083398D01*
X0097988Y0080337D01*
X0095205Y0077554D01*
G37*
G36*
X0090473Y0082287D02*
X0087412Y0085348D01*
X0090195Y0088131D01*
X0093256Y0085070D01*
X0090473Y0082287D01*
G37*
G36*
X0102105Y0084554D02*
X0099044Y0087615D01*
X0101827Y0090398D01*
X0104888Y0087337D01*
X0102105Y0084554D01*
G37*
G36*
X0097373Y0089287D02*
X0094312Y0092348D01*
X0097095Y0095131D01*
X0100156Y0092070D01*
X0097373Y0089287D01*
G37*
G36*
X0142156Y0134615D02*
X0139095Y0131554D01*
X0136312Y0134337D01*
X0139373Y0137398D01*
X0142156Y0134615D01*
G37*
G36*
X0146888Y0139348D02*
X0143827Y0136287D01*
X0141044Y0139070D01*
X0144105Y0142131D01*
X0146888Y0139348D01*
G37*
X0188254Y0143342D03*
X0194946Y0143342D03*
X0217600Y0091189D03*
X0217600Y0084496D03*
X0215946Y0067842D03*
X0209254Y0067842D03*
X0209254Y0059842D03*
X0215946Y0059842D03*
X0215946Y0050842D03*
X0209254Y0050842D03*
X0201446Y0048842D03*
X0194754Y0048842D03*
X0194754Y0056842D03*
X0201446Y0056842D03*
G36*
X0176605Y0041554D02*
X0173544Y0044615D01*
X0176327Y0047398D01*
X0179388Y0044337D01*
X0176605Y0041554D01*
G37*
G36*
X0171873Y0046287D02*
X0168812Y0049348D01*
X0171595Y0052131D01*
X0174656Y0049070D01*
X0171873Y0046287D01*
G37*
X0209254Y0042842D03*
X0215946Y0042842D03*
D12*
X0007254Y0014842D03*
X0013946Y0014842D03*
X0013946Y0024842D03*
X0007254Y0024842D03*
X0038254Y0046342D03*
X0044946Y0046342D03*
X0044946Y0054342D03*
X0038254Y0054342D03*
X0038254Y0062342D03*
X0044946Y0062342D03*
X0073254Y0014842D03*
X0079946Y0014842D03*
X0225600Y0084496D03*
X0233600Y0084496D03*
X0233600Y0091189D03*
X0225600Y0091189D03*
D13*
X0031600Y0071542D03*
X0026600Y0071542D03*
X0021600Y0071542D03*
X0016600Y0071542D03*
X0016600Y0046142D03*
X0021600Y0046142D03*
X0026600Y0046142D03*
X0031600Y0046142D03*
M02*
