G75*
%MOIN*%
%OFA0B0*%
%FSLAX25Y25*%
%IPPOS*%
%LPD*%
%AMOC8*
5,1,8,0,0,1.08239X$1,22.5*
%
%ADD10C,0.00000*%
%ADD11R,0.05118X0.05906*%
%ADD12R,0.04331X0.03937*%
%ADD13R,0.06299X0.10630*%
%ADD14R,0.06299X0.07087*%
%ADD15R,0.03937X0.04331*%
%ADD16R,0.03543X0.01969*%
%ADD17R,0.03937X0.02362*%
%ADD18R,0.03937X0.01181*%
%ADD19R,0.02362X0.03937*%
%ADD20R,0.01181X0.03937*%
%ADD21R,0.26378X0.26378*%
%ADD22R,0.01575X0.04134*%
%ADD23R,0.06299X0.01181*%
%ADD24R,0.04724X0.02165*%
%ADD25R,0.05118X0.04331*%
D10*
X0003100Y0006600D02*
X0008100Y0001600D01*
X0226100Y0001600D01*
X0230100Y0005600D01*
X0234100Y0005600D01*
X0238100Y0001600D01*
X0239600Y0001600D01*
X0243600Y0005600D01*
X0247100Y0005600D01*
X0251100Y0001600D01*
X0252100Y0001600D01*
X0257100Y0006600D01*
X0257100Y0106600D01*
X0237600Y0126100D01*
X0237600Y0147600D01*
X0235100Y0150100D01*
X0015600Y0150100D01*
X0003100Y0137600D01*
X0003100Y0006600D01*
D11*
X0199860Y0126100D03*
X0207340Y0126100D03*
X0102840Y0129100D03*
X0095360Y0129100D03*
X0035340Y0141600D03*
X0027860Y0141600D03*
X0227860Y0026100D03*
X0235340Y0026100D03*
D12*
X0159100Y0113254D03*
X0159100Y0119946D03*
X0182754Y0121600D03*
X0189446Y0121600D03*
X0051600Y0047446D03*
X0051600Y0040754D03*
D13*
X0200588Y0114100D03*
X0211612Y0114100D03*
D14*
X0211612Y0101600D03*
X0200588Y0101600D03*
D15*
X0220754Y0101600D03*
X0227446Y0101600D03*
X0174446Y0111600D03*
X0167754Y0111600D03*
X0167754Y0121600D03*
X0174446Y0121600D03*
X0102446Y0137100D03*
X0095754Y0137100D03*
X0084100Y0138254D03*
X0084100Y0144946D03*
X0084100Y0129946D03*
X0084100Y0123254D03*
X0054100Y0123254D03*
X0054100Y0129946D03*
X0054100Y0137754D03*
X0054100Y0144446D03*
X0033946Y0131600D03*
X0027254Y0131600D03*
X0054254Y0058600D03*
X0060946Y0058600D03*
X0043600Y0047446D03*
X0043600Y0040754D03*
X0061754Y0043100D03*
X0068446Y0043100D03*
X0233254Y0039100D03*
X0239946Y0039100D03*
D16*
X0239750Y0056376D03*
X0239750Y0059525D03*
X0239750Y0062675D03*
X0239750Y0065824D03*
X0233450Y0065824D03*
X0233450Y0062675D03*
X0233450Y0059525D03*
X0233450Y0056376D03*
X0202250Y0134376D03*
X0202250Y0137525D03*
X0202250Y0140675D03*
X0202250Y0143824D03*
X0195950Y0143824D03*
X0195950Y0140675D03*
X0195950Y0137525D03*
X0195950Y0134376D03*
X0037250Y0106324D03*
X0037250Y0103175D03*
X0037250Y0100025D03*
X0037250Y0096876D03*
X0030950Y0096876D03*
X0030950Y0100025D03*
X0030950Y0103175D03*
X0030950Y0106324D03*
X0030950Y0088824D03*
X0030950Y0085675D03*
X0030950Y0082525D03*
X0030950Y0079376D03*
X0037250Y0079376D03*
X0037250Y0082525D03*
X0037250Y0085675D03*
X0037250Y0088824D03*
X0037250Y0071324D03*
X0037250Y0068175D03*
X0037250Y0065025D03*
X0037250Y0061876D03*
X0030950Y0061876D03*
X0030950Y0065025D03*
X0030950Y0068175D03*
X0030950Y0071324D03*
D17*
G36*
X0071623Y0069506D02*
X0068841Y0066724D01*
X0067171Y0068394D01*
X0069953Y0071176D01*
X0071623Y0069506D01*
G37*
G36*
X0121176Y0019953D02*
X0118394Y0017171D01*
X0116724Y0018841D01*
X0119506Y0021623D01*
X0121176Y0019953D01*
G37*
X0189368Y0045183D03*
X0222832Y0045183D03*
X0222832Y0068017D03*
X0189368Y0068017D03*
G36*
X0181029Y0079806D02*
X0178247Y0077024D01*
X0176577Y0078694D01*
X0179359Y0081476D01*
X0181029Y0079806D01*
G37*
G36*
X0131476Y0129359D02*
X0128694Y0126577D01*
X0127024Y0128247D01*
X0129806Y0131029D01*
X0131476Y0129359D01*
G37*
D18*
G36*
X0132868Y0127968D02*
X0130086Y0125186D01*
X0129252Y0126020D01*
X0132034Y0128802D01*
X0132868Y0127968D01*
G37*
G36*
X0134260Y0126576D02*
X0131478Y0123794D01*
X0130644Y0124628D01*
X0133426Y0127410D01*
X0134260Y0126576D01*
G37*
G36*
X0135652Y0125184D02*
X0132870Y0122402D01*
X0132036Y0123236D01*
X0134818Y0126018D01*
X0135652Y0125184D01*
G37*
G36*
X0137044Y0123792D02*
X0134262Y0121010D01*
X0133428Y0121844D01*
X0136210Y0124626D01*
X0137044Y0123792D01*
G37*
G36*
X0138435Y0122400D02*
X0135653Y0119618D01*
X0134819Y0120452D01*
X0137601Y0123234D01*
X0138435Y0122400D01*
G37*
G36*
X0139827Y0121008D02*
X0137045Y0118226D01*
X0136211Y0119060D01*
X0138993Y0121842D01*
X0139827Y0121008D01*
G37*
G36*
X0141219Y0119616D02*
X0138437Y0116834D01*
X0137603Y0117668D01*
X0140385Y0120450D01*
X0141219Y0119616D01*
G37*
G36*
X0142611Y0118224D02*
X0139829Y0115442D01*
X0138995Y0116276D01*
X0141777Y0119058D01*
X0142611Y0118224D01*
G37*
G36*
X0144003Y0116832D02*
X0141221Y0114050D01*
X0140387Y0114884D01*
X0143169Y0117666D01*
X0144003Y0116832D01*
G37*
G36*
X0145395Y0115440D02*
X0142613Y0112658D01*
X0141779Y0113492D01*
X0144561Y0116274D01*
X0145395Y0115440D01*
G37*
G36*
X0146787Y0114048D02*
X0144005Y0111266D01*
X0143171Y0112100D01*
X0145953Y0114882D01*
X0146787Y0114048D01*
G37*
G36*
X0148179Y0112656D02*
X0145397Y0109874D01*
X0144563Y0110708D01*
X0147345Y0113490D01*
X0148179Y0112656D01*
G37*
G36*
X0149571Y0111265D02*
X0146789Y0108483D01*
X0145955Y0109317D01*
X0148737Y0112099D01*
X0149571Y0111265D01*
G37*
G36*
X0150963Y0109873D02*
X0148181Y0107091D01*
X0147347Y0107925D01*
X0150129Y0110707D01*
X0150963Y0109873D01*
G37*
G36*
X0152355Y0108481D02*
X0149573Y0105699D01*
X0148739Y0106533D01*
X0151521Y0109315D01*
X0152355Y0108481D01*
G37*
G36*
X0153747Y0107089D02*
X0150965Y0104307D01*
X0150131Y0105141D01*
X0152913Y0107923D01*
X0153747Y0107089D01*
G37*
G36*
X0155139Y0105697D02*
X0152357Y0102915D01*
X0151523Y0103749D01*
X0154305Y0106531D01*
X0155139Y0105697D01*
G37*
G36*
X0156531Y0104305D02*
X0153749Y0101523D01*
X0152915Y0102357D01*
X0155697Y0105139D01*
X0156531Y0104305D01*
G37*
G36*
X0157923Y0102913D02*
X0155141Y0100131D01*
X0154307Y0100965D01*
X0157089Y0103747D01*
X0157923Y0102913D01*
G37*
G36*
X0159315Y0101521D02*
X0156533Y0098739D01*
X0155699Y0099573D01*
X0158481Y0102355D01*
X0159315Y0101521D01*
G37*
G36*
X0160707Y0100129D02*
X0157925Y0097347D01*
X0157091Y0098181D01*
X0159873Y0100963D01*
X0160707Y0100129D01*
G37*
G36*
X0162099Y0098737D02*
X0159317Y0095955D01*
X0158483Y0096789D01*
X0161265Y0099571D01*
X0162099Y0098737D01*
G37*
G36*
X0163490Y0097345D02*
X0160708Y0094563D01*
X0159874Y0095397D01*
X0162656Y0098179D01*
X0163490Y0097345D01*
G37*
G36*
X0164882Y0095953D02*
X0162100Y0093171D01*
X0161266Y0094005D01*
X0164048Y0096787D01*
X0164882Y0095953D01*
G37*
G36*
X0166274Y0094561D02*
X0163492Y0091779D01*
X0162658Y0092613D01*
X0165440Y0095395D01*
X0166274Y0094561D01*
G37*
G36*
X0167666Y0093169D02*
X0164884Y0090387D01*
X0164050Y0091221D01*
X0166832Y0094003D01*
X0167666Y0093169D01*
G37*
G36*
X0169058Y0091777D02*
X0166276Y0088995D01*
X0165442Y0089829D01*
X0168224Y0092611D01*
X0169058Y0091777D01*
G37*
G36*
X0170450Y0090385D02*
X0167668Y0087603D01*
X0166834Y0088437D01*
X0169616Y0091219D01*
X0170450Y0090385D01*
G37*
G36*
X0171842Y0088993D02*
X0169060Y0086211D01*
X0168226Y0087045D01*
X0171008Y0089827D01*
X0171842Y0088993D01*
G37*
G36*
X0173234Y0087601D02*
X0170452Y0084819D01*
X0169618Y0085653D01*
X0172400Y0088435D01*
X0173234Y0087601D01*
G37*
G36*
X0174626Y0086210D02*
X0171844Y0083428D01*
X0171010Y0084262D01*
X0173792Y0087044D01*
X0174626Y0086210D01*
G37*
G36*
X0176018Y0084818D02*
X0173236Y0082036D01*
X0172402Y0082870D01*
X0175184Y0085652D01*
X0176018Y0084818D01*
G37*
G36*
X0177410Y0083426D02*
X0174628Y0080644D01*
X0173794Y0081478D01*
X0176576Y0084260D01*
X0177410Y0083426D01*
G37*
G36*
X0178802Y0082034D02*
X0176020Y0079252D01*
X0175186Y0080086D01*
X0177968Y0082868D01*
X0178802Y0082034D01*
G37*
X0189368Y0065458D03*
X0189368Y0063490D03*
X0189368Y0061521D03*
X0189368Y0059553D03*
X0189368Y0057584D03*
X0189368Y0055616D03*
X0189368Y0053647D03*
X0189368Y0051679D03*
X0189368Y0049710D03*
X0189368Y0047742D03*
X0222832Y0047742D03*
X0222832Y0049710D03*
X0222832Y0051679D03*
X0222832Y0053647D03*
X0222832Y0055616D03*
X0222832Y0057584D03*
X0222832Y0059553D03*
X0222832Y0061521D03*
X0222832Y0063490D03*
X0222832Y0065458D03*
G36*
X0118948Y0022180D02*
X0116166Y0019398D01*
X0115332Y0020232D01*
X0118114Y0023014D01*
X0118948Y0022180D01*
G37*
G36*
X0117556Y0023572D02*
X0114774Y0020790D01*
X0113940Y0021624D01*
X0116722Y0024406D01*
X0117556Y0023572D01*
G37*
G36*
X0116164Y0024964D02*
X0113382Y0022182D01*
X0112548Y0023016D01*
X0115330Y0025798D01*
X0116164Y0024964D01*
G37*
G36*
X0114772Y0026356D02*
X0111990Y0023574D01*
X0111156Y0024408D01*
X0113938Y0027190D01*
X0114772Y0026356D01*
G37*
G36*
X0113381Y0027748D02*
X0110599Y0024966D01*
X0109765Y0025800D01*
X0112547Y0028582D01*
X0113381Y0027748D01*
G37*
G36*
X0111989Y0029140D02*
X0109207Y0026358D01*
X0108373Y0027192D01*
X0111155Y0029974D01*
X0111989Y0029140D01*
G37*
G36*
X0110597Y0030532D02*
X0107815Y0027750D01*
X0106981Y0028584D01*
X0109763Y0031366D01*
X0110597Y0030532D01*
G37*
G36*
X0109205Y0031924D02*
X0106423Y0029142D01*
X0105589Y0029976D01*
X0108371Y0032758D01*
X0109205Y0031924D01*
G37*
G36*
X0107813Y0033316D02*
X0105031Y0030534D01*
X0104197Y0031368D01*
X0106979Y0034150D01*
X0107813Y0033316D01*
G37*
G36*
X0106421Y0034708D02*
X0103639Y0031926D01*
X0102805Y0032760D01*
X0105587Y0035542D01*
X0106421Y0034708D01*
G37*
G36*
X0105029Y0036100D02*
X0102247Y0033318D01*
X0101413Y0034152D01*
X0104195Y0036934D01*
X0105029Y0036100D01*
G37*
G36*
X0103637Y0037492D02*
X0100855Y0034710D01*
X0100021Y0035544D01*
X0102803Y0038326D01*
X0103637Y0037492D01*
G37*
G36*
X0102245Y0038883D02*
X0099463Y0036101D01*
X0098629Y0036935D01*
X0101411Y0039717D01*
X0102245Y0038883D01*
G37*
G36*
X0100853Y0040275D02*
X0098071Y0037493D01*
X0097237Y0038327D01*
X0100019Y0041109D01*
X0100853Y0040275D01*
G37*
G36*
X0099461Y0041667D02*
X0096679Y0038885D01*
X0095845Y0039719D01*
X0098627Y0042501D01*
X0099461Y0041667D01*
G37*
G36*
X0098069Y0043059D02*
X0095287Y0040277D01*
X0094453Y0041111D01*
X0097235Y0043893D01*
X0098069Y0043059D01*
G37*
G36*
X0096677Y0044451D02*
X0093895Y0041669D01*
X0093061Y0042503D01*
X0095843Y0045285D01*
X0096677Y0044451D01*
G37*
G36*
X0095285Y0045843D02*
X0092503Y0043061D01*
X0091669Y0043895D01*
X0094451Y0046677D01*
X0095285Y0045843D01*
G37*
G36*
X0093893Y0047235D02*
X0091111Y0044453D01*
X0090277Y0045287D01*
X0093059Y0048069D01*
X0093893Y0047235D01*
G37*
G36*
X0092501Y0048627D02*
X0089719Y0045845D01*
X0088885Y0046679D01*
X0091667Y0049461D01*
X0092501Y0048627D01*
G37*
G36*
X0091109Y0050019D02*
X0088327Y0047237D01*
X0087493Y0048071D01*
X0090275Y0050853D01*
X0091109Y0050019D01*
G37*
G36*
X0089717Y0051411D02*
X0086935Y0048629D01*
X0086101Y0049463D01*
X0088883Y0052245D01*
X0089717Y0051411D01*
G37*
G36*
X0088326Y0052803D02*
X0085544Y0050021D01*
X0084710Y0050855D01*
X0087492Y0053637D01*
X0088326Y0052803D01*
G37*
G36*
X0086934Y0054195D02*
X0084152Y0051413D01*
X0083318Y0052247D01*
X0086100Y0055029D01*
X0086934Y0054195D01*
G37*
G36*
X0085542Y0055587D02*
X0082760Y0052805D01*
X0081926Y0053639D01*
X0084708Y0056421D01*
X0085542Y0055587D01*
G37*
G36*
X0084150Y0056979D02*
X0081368Y0054197D01*
X0080534Y0055031D01*
X0083316Y0057813D01*
X0084150Y0056979D01*
G37*
G36*
X0082758Y0058371D02*
X0079976Y0055589D01*
X0079142Y0056423D01*
X0081924Y0059205D01*
X0082758Y0058371D01*
G37*
G36*
X0081366Y0059763D02*
X0078584Y0056981D01*
X0077750Y0057815D01*
X0080532Y0060597D01*
X0081366Y0059763D01*
G37*
G36*
X0079974Y0061155D02*
X0077192Y0058373D01*
X0076358Y0059207D01*
X0079140Y0061989D01*
X0079974Y0061155D01*
G37*
G36*
X0078582Y0062547D02*
X0075800Y0059765D01*
X0074966Y0060599D01*
X0077748Y0063381D01*
X0078582Y0062547D01*
G37*
G36*
X0077190Y0063938D02*
X0074408Y0061156D01*
X0073574Y0061990D01*
X0076356Y0064772D01*
X0077190Y0063938D01*
G37*
G36*
X0075798Y0065330D02*
X0073016Y0062548D01*
X0072182Y0063382D01*
X0074964Y0066164D01*
X0075798Y0065330D01*
G37*
G36*
X0074406Y0066722D02*
X0071624Y0063940D01*
X0070790Y0064774D01*
X0073572Y0067556D01*
X0074406Y0066722D01*
G37*
G36*
X0073014Y0068114D02*
X0070232Y0065332D01*
X0069398Y0066166D01*
X0072180Y0068948D01*
X0073014Y0068114D01*
G37*
D19*
G36*
X0071623Y0078694D02*
X0069953Y0077024D01*
X0067171Y0079806D01*
X0068841Y0081476D01*
X0071623Y0078694D01*
G37*
G36*
X0121176Y0128247D02*
X0119506Y0126577D01*
X0116724Y0129359D01*
X0118394Y0131029D01*
X0121176Y0128247D01*
G37*
X0194683Y0073332D03*
G36*
X0181029Y0068394D02*
X0179359Y0066724D01*
X0176577Y0069506D01*
X0178247Y0071176D01*
X0181029Y0068394D01*
G37*
X0217517Y0073332D03*
X0217517Y0039868D03*
X0194683Y0039868D03*
G36*
X0131476Y0018841D02*
X0129806Y0017171D01*
X0127024Y0019953D01*
X0128694Y0021623D01*
X0131476Y0018841D01*
G37*
D20*
G36*
X0132868Y0020232D02*
X0132034Y0019398D01*
X0129252Y0022180D01*
X0130086Y0023014D01*
X0132868Y0020232D01*
G37*
G36*
X0134260Y0021624D02*
X0133426Y0020790D01*
X0130644Y0023572D01*
X0131478Y0024406D01*
X0134260Y0021624D01*
G37*
G36*
X0135652Y0023016D02*
X0134818Y0022182D01*
X0132036Y0024964D01*
X0132870Y0025798D01*
X0135652Y0023016D01*
G37*
G36*
X0137044Y0024408D02*
X0136210Y0023574D01*
X0133428Y0026356D01*
X0134262Y0027190D01*
X0137044Y0024408D01*
G37*
G36*
X0138435Y0025800D02*
X0137601Y0024966D01*
X0134819Y0027748D01*
X0135653Y0028582D01*
X0138435Y0025800D01*
G37*
G36*
X0139827Y0027192D02*
X0138993Y0026358D01*
X0136211Y0029140D01*
X0137045Y0029974D01*
X0139827Y0027192D01*
G37*
G36*
X0141219Y0028584D02*
X0140385Y0027750D01*
X0137603Y0030532D01*
X0138437Y0031366D01*
X0141219Y0028584D01*
G37*
G36*
X0142611Y0029976D02*
X0141777Y0029142D01*
X0138995Y0031924D01*
X0139829Y0032758D01*
X0142611Y0029976D01*
G37*
G36*
X0144003Y0031368D02*
X0143169Y0030534D01*
X0140387Y0033316D01*
X0141221Y0034150D01*
X0144003Y0031368D01*
G37*
G36*
X0145395Y0032760D02*
X0144561Y0031926D01*
X0141779Y0034708D01*
X0142613Y0035542D01*
X0145395Y0032760D01*
G37*
G36*
X0146787Y0034152D02*
X0145953Y0033318D01*
X0143171Y0036100D01*
X0144005Y0036934D01*
X0146787Y0034152D01*
G37*
G36*
X0148179Y0035544D02*
X0147345Y0034710D01*
X0144563Y0037492D01*
X0145397Y0038326D01*
X0148179Y0035544D01*
G37*
G36*
X0149571Y0036935D02*
X0148737Y0036101D01*
X0145955Y0038883D01*
X0146789Y0039717D01*
X0149571Y0036935D01*
G37*
G36*
X0150963Y0038327D02*
X0150129Y0037493D01*
X0147347Y0040275D01*
X0148181Y0041109D01*
X0150963Y0038327D01*
G37*
G36*
X0152355Y0039719D02*
X0151521Y0038885D01*
X0148739Y0041667D01*
X0149573Y0042501D01*
X0152355Y0039719D01*
G37*
G36*
X0153747Y0041111D02*
X0152913Y0040277D01*
X0150131Y0043059D01*
X0150965Y0043893D01*
X0153747Y0041111D01*
G37*
G36*
X0155139Y0042503D02*
X0154305Y0041669D01*
X0151523Y0044451D01*
X0152357Y0045285D01*
X0155139Y0042503D01*
G37*
G36*
X0156531Y0043895D02*
X0155697Y0043061D01*
X0152915Y0045843D01*
X0153749Y0046677D01*
X0156531Y0043895D01*
G37*
G36*
X0157923Y0045287D02*
X0157089Y0044453D01*
X0154307Y0047235D01*
X0155141Y0048069D01*
X0157923Y0045287D01*
G37*
G36*
X0159315Y0046679D02*
X0158481Y0045845D01*
X0155699Y0048627D01*
X0156533Y0049461D01*
X0159315Y0046679D01*
G37*
G36*
X0160707Y0048071D02*
X0159873Y0047237D01*
X0157091Y0050019D01*
X0157925Y0050853D01*
X0160707Y0048071D01*
G37*
G36*
X0162099Y0049463D02*
X0161265Y0048629D01*
X0158483Y0051411D01*
X0159317Y0052245D01*
X0162099Y0049463D01*
G37*
G36*
X0163490Y0050855D02*
X0162656Y0050021D01*
X0159874Y0052803D01*
X0160708Y0053637D01*
X0163490Y0050855D01*
G37*
G36*
X0164882Y0052247D02*
X0164048Y0051413D01*
X0161266Y0054195D01*
X0162100Y0055029D01*
X0164882Y0052247D01*
G37*
G36*
X0166274Y0053639D02*
X0165440Y0052805D01*
X0162658Y0055587D01*
X0163492Y0056421D01*
X0166274Y0053639D01*
G37*
G36*
X0167666Y0055031D02*
X0166832Y0054197D01*
X0164050Y0056979D01*
X0164884Y0057813D01*
X0167666Y0055031D01*
G37*
G36*
X0169058Y0056423D02*
X0168224Y0055589D01*
X0165442Y0058371D01*
X0166276Y0059205D01*
X0169058Y0056423D01*
G37*
G36*
X0170450Y0057815D02*
X0169616Y0056981D01*
X0166834Y0059763D01*
X0167668Y0060597D01*
X0170450Y0057815D01*
G37*
G36*
X0171842Y0059207D02*
X0171008Y0058373D01*
X0168226Y0061155D01*
X0169060Y0061989D01*
X0171842Y0059207D01*
G37*
G36*
X0173234Y0060599D02*
X0172400Y0059765D01*
X0169618Y0062547D01*
X0170452Y0063381D01*
X0173234Y0060599D01*
G37*
G36*
X0174626Y0061990D02*
X0173792Y0061156D01*
X0171010Y0063938D01*
X0171844Y0064772D01*
X0174626Y0061990D01*
G37*
G36*
X0176018Y0063382D02*
X0175184Y0062548D01*
X0172402Y0065330D01*
X0173236Y0066164D01*
X0176018Y0063382D01*
G37*
G36*
X0177410Y0064774D02*
X0176576Y0063940D01*
X0173794Y0066722D01*
X0174628Y0067556D01*
X0177410Y0064774D01*
G37*
G36*
X0178802Y0066166D02*
X0177968Y0065332D01*
X0175186Y0068114D01*
X0176020Y0068948D01*
X0178802Y0066166D01*
G37*
X0197242Y0073332D03*
X0199210Y0073332D03*
X0201179Y0073332D03*
X0203147Y0073332D03*
X0205116Y0073332D03*
X0207084Y0073332D03*
X0209053Y0073332D03*
X0211021Y0073332D03*
X0212990Y0073332D03*
X0214958Y0073332D03*
X0214958Y0039868D03*
X0212990Y0039868D03*
X0211021Y0039868D03*
X0209053Y0039868D03*
X0207084Y0039868D03*
X0205116Y0039868D03*
X0203147Y0039868D03*
X0201179Y0039868D03*
X0199210Y0039868D03*
X0197242Y0039868D03*
G36*
X0093893Y0100965D02*
X0093059Y0100131D01*
X0090277Y0102913D01*
X0091111Y0103747D01*
X0093893Y0100965D01*
G37*
G36*
X0092501Y0099573D02*
X0091667Y0098739D01*
X0088885Y0101521D01*
X0089719Y0102355D01*
X0092501Y0099573D01*
G37*
G36*
X0091109Y0098181D02*
X0090275Y0097347D01*
X0087493Y0100129D01*
X0088327Y0100963D01*
X0091109Y0098181D01*
G37*
G36*
X0089717Y0096789D02*
X0088883Y0095955D01*
X0086101Y0098737D01*
X0086935Y0099571D01*
X0089717Y0096789D01*
G37*
G36*
X0088326Y0095397D02*
X0087492Y0094563D01*
X0084710Y0097345D01*
X0085544Y0098179D01*
X0088326Y0095397D01*
G37*
G36*
X0086934Y0094005D02*
X0086100Y0093171D01*
X0083318Y0095953D01*
X0084152Y0096787D01*
X0086934Y0094005D01*
G37*
G36*
X0085542Y0092613D02*
X0084708Y0091779D01*
X0081926Y0094561D01*
X0082760Y0095395D01*
X0085542Y0092613D01*
G37*
G36*
X0084150Y0091221D02*
X0083316Y0090387D01*
X0080534Y0093169D01*
X0081368Y0094003D01*
X0084150Y0091221D01*
G37*
G36*
X0082758Y0089829D02*
X0081924Y0088995D01*
X0079142Y0091777D01*
X0079976Y0092611D01*
X0082758Y0089829D01*
G37*
G36*
X0081366Y0088437D02*
X0080532Y0087603D01*
X0077750Y0090385D01*
X0078584Y0091219D01*
X0081366Y0088437D01*
G37*
G36*
X0079974Y0087045D02*
X0079140Y0086211D01*
X0076358Y0088993D01*
X0077192Y0089827D01*
X0079974Y0087045D01*
G37*
G36*
X0078582Y0085653D02*
X0077748Y0084819D01*
X0074966Y0087601D01*
X0075800Y0088435D01*
X0078582Y0085653D01*
G37*
G36*
X0077190Y0084262D02*
X0076356Y0083428D01*
X0073574Y0086210D01*
X0074408Y0087044D01*
X0077190Y0084262D01*
G37*
G36*
X0075798Y0082870D02*
X0074964Y0082036D01*
X0072182Y0084818D01*
X0073016Y0085652D01*
X0075798Y0082870D01*
G37*
G36*
X0074406Y0081478D02*
X0073572Y0080644D01*
X0070790Y0083426D01*
X0071624Y0084260D01*
X0074406Y0081478D01*
G37*
G36*
X0073014Y0080086D02*
X0072180Y0079252D01*
X0069398Y0082034D01*
X0070232Y0082868D01*
X0073014Y0080086D01*
G37*
G36*
X0095285Y0102357D02*
X0094451Y0101523D01*
X0091669Y0104305D01*
X0092503Y0105139D01*
X0095285Y0102357D01*
G37*
G36*
X0096677Y0103749D02*
X0095843Y0102915D01*
X0093061Y0105697D01*
X0093895Y0106531D01*
X0096677Y0103749D01*
G37*
G36*
X0098069Y0105141D02*
X0097235Y0104307D01*
X0094453Y0107089D01*
X0095287Y0107923D01*
X0098069Y0105141D01*
G37*
G36*
X0099461Y0106533D02*
X0098627Y0105699D01*
X0095845Y0108481D01*
X0096679Y0109315D01*
X0099461Y0106533D01*
G37*
G36*
X0100853Y0107925D02*
X0100019Y0107091D01*
X0097237Y0109873D01*
X0098071Y0110707D01*
X0100853Y0107925D01*
G37*
G36*
X0102245Y0109317D02*
X0101411Y0108483D01*
X0098629Y0111265D01*
X0099463Y0112099D01*
X0102245Y0109317D01*
G37*
G36*
X0103637Y0110708D02*
X0102803Y0109874D01*
X0100021Y0112656D01*
X0100855Y0113490D01*
X0103637Y0110708D01*
G37*
G36*
X0105029Y0112100D02*
X0104195Y0111266D01*
X0101413Y0114048D01*
X0102247Y0114882D01*
X0105029Y0112100D01*
G37*
G36*
X0106421Y0113492D02*
X0105587Y0112658D01*
X0102805Y0115440D01*
X0103639Y0116274D01*
X0106421Y0113492D01*
G37*
G36*
X0107813Y0114884D02*
X0106979Y0114050D01*
X0104197Y0116832D01*
X0105031Y0117666D01*
X0107813Y0114884D01*
G37*
G36*
X0109205Y0116276D02*
X0108371Y0115442D01*
X0105589Y0118224D01*
X0106423Y0119058D01*
X0109205Y0116276D01*
G37*
G36*
X0110597Y0117668D02*
X0109763Y0116834D01*
X0106981Y0119616D01*
X0107815Y0120450D01*
X0110597Y0117668D01*
G37*
G36*
X0111989Y0119060D02*
X0111155Y0118226D01*
X0108373Y0121008D01*
X0109207Y0121842D01*
X0111989Y0119060D01*
G37*
G36*
X0113381Y0120452D02*
X0112547Y0119618D01*
X0109765Y0122400D01*
X0110599Y0123234D01*
X0113381Y0120452D01*
G37*
G36*
X0114772Y0121844D02*
X0113938Y0121010D01*
X0111156Y0123792D01*
X0111990Y0124626D01*
X0114772Y0121844D01*
G37*
G36*
X0116164Y0123236D02*
X0115330Y0122402D01*
X0112548Y0125184D01*
X0113382Y0126018D01*
X0116164Y0123236D01*
G37*
G36*
X0117556Y0124628D02*
X0116722Y0123794D01*
X0113940Y0126576D01*
X0114774Y0127410D01*
X0117556Y0124628D01*
G37*
G36*
X0118948Y0126020D02*
X0118114Y0125186D01*
X0115332Y0127968D01*
X0116166Y0128802D01*
X0118948Y0126020D01*
G37*
D21*
G36*
X0142752Y0074100D02*
X0124100Y0055448D01*
X0105448Y0074100D01*
X0124100Y0092752D01*
X0142752Y0074100D01*
G37*
D22*
X0183541Y0107958D03*
X0186100Y0107958D03*
X0188659Y0107958D03*
X0188659Y0115242D03*
X0186100Y0115242D03*
X0183541Y0115242D03*
D23*
X0177793Y0135261D03*
X0177793Y0137820D03*
X0177793Y0140380D03*
X0177793Y0142939D03*
X0164407Y0142939D03*
X0164407Y0140380D03*
X0164407Y0137820D03*
X0164407Y0135261D03*
D24*
X0074219Y0137860D03*
X0074219Y0130340D03*
X0063981Y0130340D03*
X0063981Y0126600D03*
X0063981Y0122860D03*
X0074219Y0122860D03*
X0063981Y0137860D03*
X0063981Y0141600D03*
X0063981Y0145340D03*
X0074219Y0145340D03*
D25*
X0036128Y0047643D03*
X0027072Y0047643D03*
X0027072Y0040557D03*
X0036128Y0040557D03*
M02*
